G04 Layer_Color=8388736*
%FSLAX44Y44*%
%MOMM*%
G71*
G01*
G75*
%ADD81R,1.1032X1.7032*%
%ADD82R,0.7532X1.1532*%
%ADD83C,1.4732*%
%ADD84C,6.2032*%
%ADD85C,0.2032*%
%ADD86C,1.6532*%
G04:AMPARAMS|DCode=87|XSize=1.2032mm|YSize=2.1032mm|CornerRadius=0.3516mm|HoleSize=0mm|Usage=FLASHONLY|Rotation=270.000|XOffset=0mm|YOffset=0mm|HoleType=Round|Shape=RoundedRectangle|*
%AMROUNDEDRECTD87*
21,1,1.2032,1.4000,0,0,270.0*
21,1,0.5000,2.1032,0,0,270.0*
1,1,0.7032,-0.7000,-0.2500*
1,1,0.7032,-0.7000,0.2500*
1,1,0.7032,0.7000,0.2500*
1,1,0.7032,0.7000,-0.2500*
%
%ADD87ROUNDEDRECTD87*%
D81*
X463500Y365500D02*
D03*
X496500D02*
D03*
Y414500D02*
D03*
X463500D02*
D03*
X403500Y365500D02*
D03*
X436500D02*
D03*
Y414500D02*
D03*
X403500D02*
D03*
X343500D02*
D03*
X376500D02*
D03*
Y365500D02*
D03*
X343500D02*
D03*
X283500Y414500D02*
D03*
X316500D02*
D03*
Y365500D02*
D03*
X283500D02*
D03*
X223500Y414500D02*
D03*
X256500D02*
D03*
Y365500D02*
D03*
X223500D02*
D03*
X163500Y414500D02*
D03*
X196500D02*
D03*
Y365500D02*
D03*
X163500D02*
D03*
X103500Y414500D02*
D03*
X136500D02*
D03*
Y365500D02*
D03*
X103500D02*
D03*
X43500Y414500D02*
D03*
X76500D02*
D03*
Y365500D02*
D03*
X43500D02*
D03*
X-16500Y414500D02*
D03*
X16500D02*
D03*
Y365500D02*
D03*
X-16500D02*
D03*
X-76500Y414500D02*
D03*
X-43500D02*
D03*
Y365500D02*
D03*
X-76500D02*
D03*
X-136500Y414500D02*
D03*
X-103500D02*
D03*
Y365500D02*
D03*
X-136500D02*
D03*
X-196500Y414500D02*
D03*
X-163500D02*
D03*
Y365500D02*
D03*
X-196500D02*
D03*
X-256500Y414500D02*
D03*
X-223500D02*
D03*
Y365500D02*
D03*
X-256500D02*
D03*
X-316500Y414500D02*
D03*
X-283500D02*
D03*
Y365500D02*
D03*
X-316500D02*
D03*
X-376500Y414500D02*
D03*
X-343500D02*
D03*
Y365500D02*
D03*
X-376500D02*
D03*
X-436500Y414500D02*
D03*
X-403500D02*
D03*
Y365500D02*
D03*
X-436500D02*
D03*
X-496500Y414500D02*
D03*
X-463500D02*
D03*
Y365500D02*
D03*
X-496500D02*
D03*
X-493500Y64500D02*
D03*
X-526500D02*
D03*
Y15500D02*
D03*
X-493500D02*
D03*
X526500Y64500D02*
D03*
X493500D02*
D03*
Y15500D02*
D03*
X526500D02*
D03*
D82*
X496500Y430500D02*
D03*
X480500D02*
D03*
X436500D02*
D03*
X420500D02*
D03*
X360500D02*
D03*
X376500D02*
D03*
X300500D02*
D03*
X316500D02*
D03*
X240500D02*
D03*
X256500D02*
D03*
X180500D02*
D03*
X196500D02*
D03*
X120500D02*
D03*
X136500D02*
D03*
X60500D02*
D03*
X76500D02*
D03*
X500D02*
D03*
X16500D02*
D03*
X-59500D02*
D03*
X-43500D02*
D03*
X-119500D02*
D03*
X-103500D02*
D03*
X-179500D02*
D03*
X-163500D02*
D03*
X-239500D02*
D03*
X-223500D02*
D03*
X-299500D02*
D03*
X-283500D02*
D03*
X-359500D02*
D03*
X-343500D02*
D03*
X-419500D02*
D03*
X-403500D02*
D03*
X-479500D02*
D03*
X-463500D02*
D03*
X493500Y-500D02*
D03*
X509500D02*
D03*
X-526500D02*
D03*
X-510500D02*
D03*
D83*
X241300Y317500D02*
D03*
X215900D02*
D03*
X190500D02*
D03*
X-190500D02*
D03*
X-215900D02*
D03*
X-241300D02*
D03*
Y-317500D02*
D03*
X-215900D02*
D03*
X-190500D02*
D03*
X-165100D02*
D03*
X-139700D02*
D03*
X-114300D02*
D03*
X-88900D02*
D03*
X-63500D02*
D03*
X-38100D02*
D03*
X-12700D02*
D03*
X12700D02*
D03*
X38100D02*
D03*
X63500D02*
D03*
X88900D02*
D03*
X114300D02*
D03*
X139700D02*
D03*
X165100D02*
D03*
X190500D02*
D03*
X215900D02*
D03*
X241300D02*
D03*
D84*
X-510000Y200000D02*
D03*
Y-170000D02*
D03*
X510000D02*
D03*
D85*
X277000Y-154000D02*
D03*
X335500D02*
D03*
X169500D02*
D03*
X228000D02*
D03*
X-317000D02*
D03*
X-400500D02*
D03*
X-268000D02*
D03*
X-197000D02*
D03*
X-64500D02*
D03*
X-148000D02*
D03*
X146550Y240150D02*
D03*
Y156650D02*
D03*
X17000Y-154000D02*
D03*
X88000D02*
D03*
X-430000Y150000D02*
D03*
Y79000D02*
D03*
D86*
X495250Y188500D02*
D03*
Y138500D02*
D03*
D87*
X522250Y128500D02*
D03*
Y198500D02*
D03*
M02*
