G04 Layer_Physical_Order=3*
G04 Layer_Color=32768*
%FSLAX44Y44*%
%MOMM*%
G71*
G01*
G75*
%ADD22C,1.0160*%
%ADD23C,1.7780*%
G04:AMPARAMS|DCode=24|XSize=2.286mm|YSize=2.286mm|CornerRadius=0mm|HoleSize=0mm|Usage=FLASHONLY|Rotation=0.000|XOffset=0mm|YOffset=0mm|HoleType=Round|Shape=Relief|Width=0.254mm|Gap=0.254mm|Entries=4|*
%AMTHD24*
7,0,0,2.2860,1.7780,0.2540,45*
%
%ADD24THD24*%
%ADD25C,4.4160*%
%ADD26C,1.9160*%
G04:AMPARAMS|DCode=27|XSize=2.374mm|YSize=2.374mm|CornerRadius=0mm|HoleSize=0mm|Usage=FLASHONLY|Rotation=0.000|XOffset=0mm|YOffset=0mm|HoleType=Round|Shape=Relief|Width=0.254mm|Gap=0.254mm|Entries=4|*
%AMTHD27*
7,0,0,2.3740,1.8660,0.2540,45*
%
%ADD27THD27*%
%AMTHOVALD28*
21,1,0.8000,2.0240,0,0,540.0*
1,1,2.0240,0.4000,0.0000*
1,1,2.0240,-0.4000,0.0000*
21,0,0.8000,1.5160,0,0,540.0*
1,0,1.5160,0.4000,0.0000*
1,0,1.5160,-0.4000,0.0000*
4,0,4,0.3102,0.0898,1.0258,0.8054,1.2054,0.6258,0.4898,-0.0898,0.3102,0.0898,0.0*
4,0,4,-0.4898,0.0898,-1.2054,-0.6258,-1.0258,-0.8054,-0.3102,-0.0898,-0.4898,0.0898,0.0*
4,0,4,0.4898,0.0898,1.2054,-0.6258,1.0258,-0.8054,0.3102,-0.0898,0.4898,0.0898,0.0*
4,0,4,-0.3102,0.0898,-1.0258,0.8054,-1.2054,0.6258,-0.4898,-0.0898,-0.3102,0.0898,0.0*
%
%ADD28THOVALD28*%

%ADD29C,1.3160*%
G04:AMPARAMS|DCode=30|XSize=1.824mm|YSize=1.824mm|CornerRadius=0mm|HoleSize=0mm|Usage=FLASHONLY|Rotation=0.000|XOffset=0mm|YOffset=0mm|HoleType=Round|Shape=Relief|Width=0.254mm|Gap=0.254mm|Entries=4|*
%AMTHD30*
7,0,0,1.8240,1.3160,0.2540,45*
%
%ADD30THD30*%
G04:AMPARAMS|DCode=31|XSize=1.724mm|YSize=1.724mm|CornerRadius=0mm|HoleSize=0mm|Usage=FLASHONLY|Rotation=0.000|XOffset=0mm|YOffset=0mm|HoleType=Round|Shape=Relief|Width=0.254mm|Gap=0.254mm|Entries=4|*
%AMTHD31*
7,0,0,1.7240,1.2160,0.2540,45*
%
%ADD31THD31*%
D22*
X-487500Y-275200D02*
G03*
X-496480Y-253520I-30661J0D01*
G01*
X-487500Y-320651D02*
G03*
X-478980Y-341220I29088J0D01*
G01*
D02*
G03*
X-457300Y-350200I21680J21680D01*
G01*
X457300D02*
G03*
X478980Y-341220I0J30661D01*
G01*
D02*
G03*
X487500Y-320651I-20568J20568D01*
G01*
X496480Y-253520D02*
G03*
X487500Y-275200I21680J-21680D01*
G01*
X541020Y-208980D02*
G03*
X550000Y-187300I-21680J21680D01*
G01*
Y-37213D02*
G03*
X544828Y-24728I-17657J0D01*
G01*
X542000Y-17900D02*
G03*
X544828Y-24728I9657J0D01*
G01*
Y212871D02*
G03*
X542000Y206043I6829J-6829D01*
G01*
X544828Y212871D02*
G03*
X550000Y225357I-12485J12485D01*
G01*
Y397300D02*
G03*
X541020Y418980I-30661J0D01*
G01*
X506480Y453520D02*
G03*
X484800Y462500I-21680J-21680D01*
G01*
X-484800D02*
G03*
X-506480Y453520I0J-30661D01*
G01*
X-541020Y418980D02*
G03*
X-550000Y397300I21680J-21680D01*
G01*
Y225357D02*
G03*
X-544828Y212871I17657J0D01*
G01*
X-542000Y206043D02*
G03*
X-544828Y212871I-9657J0D01*
G01*
Y-24728D02*
G03*
X-542000Y-17900I-6829J6829D01*
G01*
X-544828Y-24728D02*
G03*
X-550000Y-37213I12485J-12485D01*
G01*
Y-187300D02*
G03*
X-541020Y-208980I30661J0D01*
G01*
X-500000Y-250000D02*
X-496480Y-253520D01*
X-487500Y-320651D02*
Y-275200D01*
X-457300Y-350200D02*
X457300D01*
X487500Y-320651D02*
Y-275200D01*
X496480Y-253520D02*
X500000Y-250000D01*
X541020Y-208980D01*
X506480Y453520D02*
X541020Y418980D01*
X-484800Y462500D02*
X484800D01*
X-541020Y418980D02*
X-506480Y453520D01*
X-541020Y-208980D02*
X-500000Y-250000D01*
X-550000Y-187300D02*
Y-37213D01*
X-542000Y-17900D02*
Y206043D01*
X-550000Y225357D02*
Y397300D01*
X550000Y225357D02*
Y397300D01*
X542000Y-17900D02*
Y206043D01*
X550000Y-187300D02*
Y-37213D01*
D23*
X241300Y317500D02*
D03*
X215900D02*
D03*
X190500D02*
D03*
X-190500D02*
D03*
X-215900D02*
D03*
X-241300D02*
D03*
Y-317500D02*
D03*
X-215900D02*
D03*
X-190500D02*
D03*
X-165100D02*
D03*
X-139700D02*
D03*
X-114300D02*
D03*
X-88900D02*
D03*
X-63500D02*
D03*
X-38100D02*
D03*
X-12700D02*
D03*
X88900D02*
D03*
X114300D02*
D03*
X139700D02*
D03*
X165100D02*
D03*
X190500D02*
D03*
X215900D02*
D03*
D24*
X12700D02*
D03*
X38100D02*
D03*
X63500D02*
D03*
X241300D02*
D03*
D25*
X-510000Y200000D02*
D03*
Y-170000D02*
D03*
X510000D02*
D03*
D26*
X277000Y-154000D02*
D03*
X335500D02*
D03*
X169500D02*
D03*
X228000D02*
D03*
X-317000D02*
D03*
X-400500D02*
D03*
X-268000D02*
D03*
X-197000D02*
D03*
X-64500D02*
D03*
X-148000D02*
D03*
X146550Y240150D02*
D03*
Y156650D02*
D03*
X17000Y-154000D02*
D03*
X88000D02*
D03*
X-430000Y150000D02*
D03*
Y79000D02*
D03*
D27*
X495250Y188500D02*
D03*
Y138500D02*
D03*
D28*
X522250Y128500D02*
D03*
Y198500D02*
D03*
D29*
X-20000Y387500D02*
D03*
X517500Y-500D02*
D03*
X-502000Y0D02*
D03*
X-450000Y350000D02*
D03*
X402500Y331750D02*
D03*
X-402500Y232500D02*
D03*
X463250Y242250D02*
D03*
X472500Y430500D02*
D03*
X412500D02*
D03*
X352500D02*
D03*
X292500D02*
D03*
X232500D02*
D03*
X172500D02*
D03*
X112500D02*
D03*
X52500D02*
D03*
X-7500D02*
D03*
X-67500D02*
D03*
X-127500D02*
D03*
X-187500D02*
D03*
X-247500D02*
D03*
X-307500D02*
D03*
X-367500D02*
D03*
X-427500D02*
D03*
X-487500D02*
D03*
X-15000Y115000D02*
D03*
X10000Y217500D02*
D03*
X448250Y242250D02*
D03*
X-235000Y-95000D02*
D03*
X-222500Y-180000D02*
D03*
X-290000Y-97500D02*
D03*
X-75000Y-115000D02*
D03*
X-152500Y227500D02*
D03*
X-30000D02*
D03*
X-110000Y230000D02*
D03*
X-5000Y207500D02*
D03*
X-172500Y-80000D02*
D03*
X457500Y-47500D02*
D03*
X287500Y-125000D02*
D03*
X180000D02*
D03*
X86830Y189610D02*
D03*
Y215010D02*
D03*
X-2070Y230250D02*
D03*
X13170D02*
D03*
X112230Y248030D02*
D03*
X94450Y202310D02*
D03*
X112230Y174370D02*
D03*
X384170Y-11130D02*
D03*
Y-970D02*
D03*
Y39670D02*
D03*
Y54910D02*
D03*
Y21890D02*
D03*
Y65070D02*
D03*
X-12230Y166750D02*
D03*
X331000Y18600D02*
D03*
X-60500Y128500D02*
D03*
X-51000Y248500D02*
D03*
X51000Y151500D02*
D03*
X78000Y42500D02*
D03*
X-463250Y322000D02*
D03*
X-448250D02*
D03*
X30000Y205000D02*
D03*
X16000Y190000D02*
D03*
X112000Y157000D02*
D03*
X106000Y67000D02*
D03*
X111000Y107000D02*
D03*
X30000Y179000D02*
D03*
X113000Y145000D02*
D03*
X206750Y-29250D02*
D03*
X314250D02*
D03*
X132550Y239150D02*
D03*
X-100500Y66500D02*
D03*
X-252000Y32000D02*
D03*
X386500Y211000D02*
D03*
X70000Y263000D02*
D03*
X86830Y240410D02*
D03*
X107150Y232790D02*
D03*
X94450Y227710D02*
D03*
X-362500Y-120000D02*
D03*
X-340000Y-122500D02*
D03*
X-257500Y-107500D02*
D03*
X-232500Y-120000D02*
D03*
X-192500Y-35000D02*
D03*
X-320000Y-67500D02*
D03*
X-37500Y-105000D02*
D03*
X65000Y-85000D02*
D03*
X17500Y-100000D02*
D03*
X-361500Y65000D02*
D03*
X-370000Y7500D02*
D03*
X-338000Y25000D02*
D03*
X-32500Y182500D02*
D03*
X-63500Y-127000D02*
D03*
X-50800Y-114300D02*
D03*
X52500Y-87500D02*
D03*
X12700Y-38100D02*
D03*
X-278130Y-154940D02*
D03*
X-288290Y-143510D02*
D03*
X-273050Y-137160D02*
D03*
X-288290Y-128270D02*
D03*
X-20320Y-8890D02*
D03*
X-373380Y185420D02*
D03*
X-40640Y-261620D02*
D03*
X1000Y183000D02*
D03*
X14000Y169000D02*
D03*
X-26000Y196000D02*
D03*
X-19500Y346500D02*
D03*
D30*
X-42500Y332500D02*
D03*
X67500Y325000D02*
D03*
X-7500Y347500D02*
D03*
X504000Y317250D02*
D03*
X485500Y-500D02*
D03*
X-433000Y127000D02*
D03*
X451250Y340500D02*
D03*
X-451250Y223750D02*
D03*
X-288250Y312000D02*
D03*
X478500Y131100D02*
D03*
X491500Y259750D02*
D03*
Y277250D02*
D03*
Y317250D02*
D03*
X504000Y242250D02*
D03*
X-504000Y322000D02*
D03*
Y247000D02*
D03*
X-491500D02*
D03*
Y287000D02*
D03*
Y304500D02*
D03*
X504500Y430500D02*
D03*
X444500D02*
D03*
X384500D02*
D03*
X324500D02*
D03*
X264500D02*
D03*
X204500D02*
D03*
X144500D02*
D03*
X84500D02*
D03*
X24500D02*
D03*
X-35500D02*
D03*
X-95500D02*
D03*
X-155500D02*
D03*
X-215500D02*
D03*
X-275500D02*
D03*
X-335500D02*
D03*
X-395500D02*
D03*
X-455500D02*
D03*
X368500Y116600D02*
D03*
X518000D02*
D03*
Y-43300D02*
D03*
X453190Y220090D02*
D03*
X-122500Y217500D02*
D03*
X-295000Y-80000D02*
D03*
X-312500Y-110000D02*
D03*
X383500Y-47500D02*
D03*
X352500Y-26400D02*
D03*
X325000Y-125000D02*
D03*
X217500D02*
D03*
X-390000D02*
D03*
X-137500D02*
D03*
X-257500D02*
D03*
X-180000Y-113500D02*
D03*
X-330000Y128000D02*
D03*
X-218500Y35750D02*
D03*
Y69750D02*
D03*
X-407000Y155000D02*
D03*
X-433000Y114500D02*
D03*
X427790Y183090D02*
D03*
X462750Y144490D02*
D03*
X356500Y11100D02*
D03*
X311000Y18600D02*
D03*
X348250Y292250D02*
D03*
X328250D02*
D03*
X308250D02*
D03*
X288250D02*
D03*
X328250Y252250D02*
D03*
X-328250Y272000D02*
D03*
Y292000D02*
D03*
X-308250D02*
D03*
Y272000D02*
D03*
Y252000D02*
D03*
X-328250D02*
D03*
X-348250Y272000D02*
D03*
Y252000D02*
D03*
Y292000D02*
D03*
X-328250Y312000D02*
D03*
X-348250D02*
D03*
X-308250D02*
D03*
X-288250Y292000D02*
D03*
Y272000D02*
D03*
Y252000D02*
D03*
X348250Y252250D02*
D03*
Y312250D02*
D03*
X328250D02*
D03*
X288250D02*
D03*
X308250D02*
D03*
X288250Y252250D02*
D03*
X308250D02*
D03*
X15000Y84500D02*
D03*
X-51000Y151500D02*
D03*
X-72390Y264160D02*
D03*
X50500Y110000D02*
D03*
X48000Y137500D02*
D03*
X90500Y112500D02*
D03*
X-12000Y10000D02*
D03*
X83000Y7500D02*
D03*
X5500Y125000D02*
D03*
X127000Y67000D02*
D03*
X190750Y-29250D02*
D03*
X298250D02*
D03*
X-172500Y242500D02*
D03*
X-82500Y233500D02*
D03*
X348250Y272250D02*
D03*
X328250D02*
D03*
X308250D02*
D03*
X288250D02*
D03*
X110500Y272000D02*
D03*
X160000Y182000D02*
D03*
X70000Y247000D02*
D03*
X-44000Y94000D02*
D03*
X373000Y144000D02*
D03*
X27500Y-115000D02*
D03*
X-302500Y7500D02*
D03*
X-302000Y25000D02*
D03*
X-406400Y55880D02*
D03*
Y35560D02*
D03*
X-30000Y-224000D02*
D03*
X-527000Y-11000D02*
D03*
D31*
X-300500Y83250D02*
D03*
X-311500D02*
D03*
X-300500Y72250D02*
D03*
X-311500D02*
D03*
X-300500Y61250D02*
D03*
X-311500D02*
D03*
M02*
