G04 Layer_Color=16711935*
%FSLAX44Y44*%
%MOMM*%
G71*
G01*
G75*
%ADD82R,0.7532X1.1532*%
%ADD83C,1.4732*%
%ADD84C,6.2032*%
%ADD85C,0.2032*%
%ADD86C,1.6532*%
G04:AMPARAMS|DCode=87|XSize=1.2032mm|YSize=2.1032mm|CornerRadius=0.3516mm|HoleSize=0mm|Usage=FLASHONLY|Rotation=270.000|XOffset=0mm|YOffset=0mm|HoleType=Round|Shape=RoundedRectangle|*
%AMROUNDEDRECTD87*
21,1,1.2032,1.4000,0,0,270.0*
21,1,0.5000,2.1032,0,0,270.0*
1,1,0.7032,-0.7000,-0.2500*
1,1,0.7032,-0.7000,0.2500*
1,1,0.7032,0.7000,0.2500*
1,1,0.7032,0.7000,-0.2500*
%
%ADD87ROUNDEDRECTD87*%
%ADD88R,1.8032X2.4032*%
%ADD89R,0.9032X2.0032*%
%ADD90R,2.1032X1.2032*%
%ADD91R,1.5532X0.6032*%
%ADD92R,1.7032X1.0032*%
%ADD93R,1.5032X1.4932*%
%ADD94R,1.5032X1.8032*%
%ADD95R,1.7032X1.9032*%
%ADD96R,1.9032X1.7032*%
%ADD97R,2.0032X0.9032*%
%ADD98R,2.4032X1.8032*%
%ADD99R,0.6032X2.3032*%
%ADD100R,1.1532X0.7532*%
%ADD101R,1.1532X0.7032*%
%ADD102R,0.8032X2.4032*%
%ADD103R,0.7032X1.1532*%
%ADD104R,0.8032X1.3032*%
%ADD105R,0.8032X1.2532*%
%ADD106R,1.1032X1.1032*%
%ADD107R,0.9532X1.5032*%
%ADD108R,0.6032X0.8032*%
%ADD109R,1.2032X1.2032*%
%ADD110R,0.8532X1.2532*%
%ADD111R,1.1532X3.0032*%
%ADD112R,1.5032X2.0032*%
%ADD113R,9.3032X10.2532*%
%ADD114R,4.3532X1.2032*%
%ADD115R,1.7532X1.1532*%
%ADD116R,0.9032X1.6032*%
%ADD117R,1.2532X0.8032*%
%ADD118R,1.0032X0.8532*%
%ADD119O,0.5032X2.0032*%
%ADD120O,2.0032X0.5032*%
%ADD121R,1.2532X0.8532*%
%ADD122R,1.5032X2.1032*%
%ADD123R,1.1032X1.2532*%
%ADD124O,1.9032X0.5532*%
%ADD125R,2.6032X3.6032*%
%ADD126R,1.1532X1.7532*%
%ADD127R,1.2032X1.3032*%
%ADD128R,1.7032X0.7532*%
%ADD129R,1.2032X1.2032*%
%ADD130R,0.7532X1.7032*%
%ADD131R,0.9532X1.6532*%
D82*
X205000Y141000D02*
D03*
X189000D02*
D03*
X314250Y-38750D02*
D03*
X298250D02*
D03*
X206750D02*
D03*
X190750D02*
D03*
X320500Y18600D02*
D03*
X336500D02*
D03*
X101000Y272000D02*
D03*
X85000D02*
D03*
X-98500Y217500D02*
D03*
X-82500D02*
D03*
Y242500D02*
D03*
X-98500D02*
D03*
Y261500D02*
D03*
X-82500D02*
D03*
X-149500Y242500D02*
D03*
X-165500D02*
D03*
X-237000Y78750D02*
D03*
X-253000D02*
D03*
X-237000Y95000D02*
D03*
X-253000D02*
D03*
X-312000Y25000D02*
D03*
X-328000D02*
D03*
D83*
X241300Y317500D02*
D03*
X215900D02*
D03*
X190500D02*
D03*
X-190500D02*
D03*
X-215900D02*
D03*
X-241300D02*
D03*
Y-317500D02*
D03*
X-215900D02*
D03*
X-190500D02*
D03*
X-165100D02*
D03*
X-139700D02*
D03*
X-114300D02*
D03*
X-88900D02*
D03*
X-63500D02*
D03*
X-38100D02*
D03*
X-12700D02*
D03*
X12700D02*
D03*
X38100D02*
D03*
X63500D02*
D03*
X88900D02*
D03*
X114300D02*
D03*
X139700D02*
D03*
X165100D02*
D03*
X190500D02*
D03*
X215900D02*
D03*
X241300D02*
D03*
D84*
X-510000Y200000D02*
D03*
Y-170000D02*
D03*
X510000D02*
D03*
D85*
X277000Y-154000D02*
D03*
X335500D02*
D03*
X169500D02*
D03*
X228000D02*
D03*
X-317000D02*
D03*
X-400500D02*
D03*
X-268000D02*
D03*
X-197000D02*
D03*
X-64500D02*
D03*
X-148000D02*
D03*
X146550Y240150D02*
D03*
Y156650D02*
D03*
X17000Y-154000D02*
D03*
X88000D02*
D03*
X-430000Y150000D02*
D03*
Y79000D02*
D03*
D86*
X495250Y188500D02*
D03*
Y138500D02*
D03*
D87*
X522250Y128500D02*
D03*
Y198500D02*
D03*
D88*
X265500Y-173000D02*
D03*
X347000D02*
D03*
X158000D02*
D03*
X239500D02*
D03*
X-305500D02*
D03*
X-412000D02*
D03*
X-279500D02*
D03*
X-185500D02*
D03*
X-53000D02*
D03*
X-159500D02*
D03*
X5500D02*
D03*
X99500D02*
D03*
D89*
X325000Y-140000D02*
D03*
X312500D02*
D03*
X300000D02*
D03*
X287500D02*
D03*
X217500D02*
D03*
X205000D02*
D03*
X192500D02*
D03*
X180000D02*
D03*
X-377500D02*
D03*
X-365000D02*
D03*
X-352500D02*
D03*
X-340000D02*
D03*
X-327500D02*
D03*
X-390000D02*
D03*
X-207500D02*
D03*
X-220000D02*
D03*
X-232500D02*
D03*
X-245000D02*
D03*
X-257500D02*
D03*
X-125000D02*
D03*
X-112500D02*
D03*
X-100000D02*
D03*
X-87500D02*
D03*
X-75000D02*
D03*
X-137500D02*
D03*
X77500D02*
D03*
X65000D02*
D03*
X52500D02*
D03*
X40000D02*
D03*
X27500D02*
D03*
D90*
X522250Y134750D02*
D03*
Y192250D02*
D03*
D91*
X495250Y176500D02*
D03*
Y170000D02*
D03*
Y163500D02*
D03*
Y157000D02*
D03*
Y150500D02*
D03*
D92*
X368500Y-10900D02*
D03*
Y100D02*
D03*
Y11100D02*
D03*
Y22100D02*
D03*
Y33100D02*
D03*
Y44100D02*
D03*
Y55100D02*
D03*
Y66100D02*
D03*
D93*
X383500Y-32500D02*
D03*
X457500D02*
D03*
D94*
X367500Y-26400D02*
D03*
D95*
X368500Y101600D02*
D03*
D96*
X518000D02*
D03*
Y-28300D02*
D03*
D97*
X132550Y179650D02*
D03*
Y192150D02*
D03*
Y204650D02*
D03*
Y217150D02*
D03*
Y229650D02*
D03*
Y167150D02*
D03*
X-416000Y89500D02*
D03*
Y102000D02*
D03*
Y114500D02*
D03*
Y127000D02*
D03*
Y139500D02*
D03*
D98*
X165550Y251650D02*
D03*
Y145150D02*
D03*
X-449000Y161500D02*
D03*
Y67500D02*
D03*
D99*
X27000Y102000D02*
D03*
X15000D02*
D03*
X3000D02*
D03*
D100*
X342500Y-138000D02*
D03*
Y-122000D02*
D03*
X235000Y-138000D02*
D03*
Y-122000D02*
D03*
X453190Y196850D02*
D03*
Y212850D02*
D03*
X-35000Y339500D02*
D03*
Y355500D02*
D03*
X-50000Y339500D02*
D03*
Y355500D02*
D03*
X60500Y247000D02*
D03*
Y263000D02*
D03*
X-60500Y263000D02*
D03*
Y247000D02*
D03*
X60500Y137000D02*
D03*
Y153000D02*
D03*
X-60500Y153000D02*
D03*
Y137000D02*
D03*
X-53500Y94000D02*
D03*
Y78000D02*
D03*
D101*
X342500Y-95000D02*
D03*
Y-110000D02*
D03*
X270000Y-123000D02*
D03*
Y-138000D02*
D03*
X270000Y-95000D02*
D03*
Y-110000D02*
D03*
X235000Y-95000D02*
D03*
Y-110000D02*
D03*
X162500Y-123000D02*
D03*
Y-138000D02*
D03*
X162500Y-95000D02*
D03*
Y-110000D02*
D03*
X451250Y331250D02*
D03*
Y316250D02*
D03*
X-451250Y233000D02*
D03*
Y248000D02*
D03*
X127000Y76500D02*
D03*
Y91500D02*
D03*
X106000D02*
D03*
Y76500D02*
D03*
X78000Y50000D02*
D03*
Y65000D02*
D03*
X-330000Y152500D02*
D03*
Y137500D02*
D03*
X-220000Y-102500D02*
D03*
Y-117500D02*
D03*
X77500Y-115000D02*
D03*
Y-100000D02*
D03*
X65000Y-115000D02*
D03*
Y-100000D02*
D03*
X52500Y-115000D02*
D03*
Y-100000D02*
D03*
X40000Y-115000D02*
D03*
Y-100000D02*
D03*
X-20200Y-209000D02*
D03*
Y-224000D02*
D03*
D102*
X179700Y-59750D02*
D03*
X192400D02*
D03*
X205100D02*
D03*
X217800D02*
D03*
X179700Y-107750D02*
D03*
X192400D02*
D03*
X205100D02*
D03*
X217800D02*
D03*
X287200Y-59750D02*
D03*
X299900D02*
D03*
X312600D02*
D03*
X325300D02*
D03*
X287200Y-107750D02*
D03*
X299900D02*
D03*
X312600D02*
D03*
X325300D02*
D03*
D103*
X321000Y-11400D02*
D03*
X336000D02*
D03*
X321000Y3600D02*
D03*
X336000D02*
D03*
X321000Y33600D02*
D03*
X336000D02*
D03*
X321000Y48600D02*
D03*
X336000D02*
D03*
X321000Y63600D02*
D03*
X336000D02*
D03*
X-237500Y111250D02*
D03*
X-252500D02*
D03*
X-342500Y7500D02*
D03*
X-357500D02*
D03*
X-312500D02*
D03*
X-327500D02*
D03*
X-344750Y140500D02*
D03*
X-359750D02*
D03*
X-320000Y-80000D02*
D03*
X-305000D02*
D03*
X-182500Y-80000D02*
D03*
X-197500D02*
D03*
X-5200Y-285000D02*
D03*
X-20200D02*
D03*
D104*
X472250Y154250D02*
D03*
X462750D02*
D03*
X453250D02*
D03*
Y179250D02*
D03*
X462750D02*
D03*
X472250D02*
D03*
D105*
X437290Y192850D02*
D03*
X427790D02*
D03*
X418290D02*
D03*
Y216850D02*
D03*
X437290D02*
D03*
X-303000Y-122000D02*
D03*
X-312500D02*
D03*
X-322000D02*
D03*
Y-98000D02*
D03*
X-303000D02*
D03*
X-22200Y-266000D02*
D03*
X-3200D02*
D03*
Y-242000D02*
D03*
X-12700D02*
D03*
X-22200D02*
D03*
D106*
X432750Y172750D02*
D03*
X404750D02*
D03*
Y160750D02*
D03*
X432750D02*
D03*
D107*
X404500Y144000D02*
D03*
X382500D02*
D03*
D108*
X380110Y171830D02*
D03*
X389110D02*
D03*
X380110Y161670D02*
D03*
X389110D02*
D03*
D109*
X399850Y198600D02*
D03*
Y211100D02*
D03*
X78000Y88750D02*
D03*
Y76250D02*
D03*
D110*
X494500Y242000D02*
D03*
X477500D02*
D03*
X-494500Y322250D02*
D03*
X-477500D02*
D03*
X79000Y120000D02*
D03*
X62000D02*
D03*
X79000Y105000D02*
D03*
X62000D02*
D03*
X-85000Y96000D02*
D03*
X-102000D02*
D03*
X-84700Y-298450D02*
D03*
X-67700D02*
D03*
X-135500D02*
D03*
X-118500D02*
D03*
X-186300D02*
D03*
X-169300D02*
D03*
X-237100D02*
D03*
X-220100D02*
D03*
D111*
X502750Y270000D02*
D03*
X469250D02*
D03*
X-502750Y294250D02*
D03*
X-469250D02*
D03*
X-252000Y52750D02*
D03*
X-218500D02*
D03*
X-361500Y46250D02*
D03*
X-395000D02*
D03*
D112*
X500000Y299000D02*
D03*
X472000D02*
D03*
X-500000Y265250D02*
D03*
X-472000D02*
D03*
D113*
X318250Y282250D02*
D03*
X-318250Y282000D02*
D03*
D114*
X418250Y248250D02*
D03*
Y265250D02*
D03*
Y282250D02*
D03*
Y299250D02*
D03*
Y316250D02*
D03*
X-418250Y316000D02*
D03*
Y299000D02*
D03*
Y282000D02*
D03*
Y265000D02*
D03*
Y248000D02*
D03*
D115*
X67500Y335750D02*
D03*
Y359250D02*
D03*
D116*
X44500Y335000D02*
D03*
X25500D02*
D03*
X44500Y355000D02*
D03*
X25500D02*
D03*
X-17000Y372500D02*
D03*
X2000D02*
D03*
D117*
X-19500Y357000D02*
D03*
Y338000D02*
D03*
X4500D02*
D03*
Y347500D02*
D03*
Y357000D02*
D03*
X-136000Y242500D02*
D03*
Y252000D02*
D03*
Y261500D02*
D03*
X-112000D02*
D03*
Y242500D02*
D03*
D118*
X49500Y372500D02*
D03*
X15500D02*
D03*
D119*
X37500Y144500D02*
D03*
X32500D02*
D03*
X27500D02*
D03*
X22500D02*
D03*
X17500D02*
D03*
X12500D02*
D03*
X7500D02*
D03*
X2500D02*
D03*
X-2500D02*
D03*
X-7500D02*
D03*
X-12500D02*
D03*
X-17500D02*
D03*
X-22500D02*
D03*
X-27500D02*
D03*
X-32500D02*
D03*
X-37500D02*
D03*
Y255500D02*
D03*
X-32500D02*
D03*
X-27500D02*
D03*
X-22500D02*
D03*
X-17500D02*
D03*
X-12500D02*
D03*
X-7500D02*
D03*
X-2500D02*
D03*
X2500D02*
D03*
X7500D02*
D03*
X12500D02*
D03*
X17500D02*
D03*
X22500D02*
D03*
X27500D02*
D03*
X32500D02*
D03*
X37500D02*
D03*
D120*
X-55500Y162500D02*
D03*
Y167500D02*
D03*
Y172500D02*
D03*
Y177500D02*
D03*
Y182500D02*
D03*
Y187500D02*
D03*
Y192500D02*
D03*
Y197500D02*
D03*
Y202500D02*
D03*
Y207500D02*
D03*
Y212500D02*
D03*
Y217500D02*
D03*
Y222500D02*
D03*
Y227500D02*
D03*
Y232500D02*
D03*
Y237500D02*
D03*
X55500D02*
D03*
Y232500D02*
D03*
Y227500D02*
D03*
Y222500D02*
D03*
Y217500D02*
D03*
Y212500D02*
D03*
Y207500D02*
D03*
Y202500D02*
D03*
Y197500D02*
D03*
Y192500D02*
D03*
Y187500D02*
D03*
Y182500D02*
D03*
Y177500D02*
D03*
Y172500D02*
D03*
Y167500D02*
D03*
Y162500D02*
D03*
D121*
X48500Y35000D02*
D03*
Y18000D02*
D03*
Y70000D02*
D03*
Y53000D02*
D03*
X-68500Y94500D02*
D03*
Y77500D02*
D03*
D122*
X25500Y28000D02*
D03*
X-29500D02*
D03*
Y60000D02*
D03*
X25500D02*
D03*
D123*
X-100500Y76000D02*
D03*
X-86500D02*
D03*
D124*
X-277500Y101500D02*
D03*
Y95000D02*
D03*
Y88500D02*
D03*
Y82000D02*
D03*
Y75500D02*
D03*
Y69000D02*
D03*
Y62500D02*
D03*
Y56000D02*
D03*
Y49500D02*
D03*
Y43000D02*
D03*
X-334500Y101500D02*
D03*
Y95000D02*
D03*
Y88500D02*
D03*
Y82000D02*
D03*
Y75500D02*
D03*
Y69000D02*
D03*
Y62500D02*
D03*
Y56000D02*
D03*
Y49500D02*
D03*
Y43000D02*
D03*
D125*
X-306000Y72250D02*
D03*
D126*
X-317750Y117250D02*
D03*
X-294250D02*
D03*
D127*
X-362750Y75500D02*
D03*
X-393750D02*
D03*
X-362750Y98250D02*
D03*
X-393750D02*
D03*
X-362750Y121000D02*
D03*
X-393750D02*
D03*
D128*
X-361750Y157000D02*
D03*
Y176000D02*
D03*
X-342750Y166500D02*
D03*
D129*
X-390000Y140000D02*
D03*
X-377500D02*
D03*
X-390000Y155000D02*
D03*
X-377500D02*
D03*
D130*
X-190000Y-119500D02*
D03*
X-180500Y-100500D02*
D03*
X-199500D02*
D03*
D131*
X-23450Y-300000D02*
D03*
X-1950D02*
D03*
M02*
