G04 Layer_Color=32896*
%FSLAX44Y44*%
%MOMM*%
G71*
G01*
G75*
%ADD12C,0.2540*%
%ADD79C,0.1778*%
%ADD80C,0.1500*%
%ADD132C,0.2500*%
%ADD133C,0.2000*%
%ADD134C,0.1000*%
%ADD135C,0.6000*%
D12*
X494250Y199750D02*
Y207250D01*
X496250Y119500D02*
X542500D01*
X496250D02*
Y127250D01*
X494250Y207250D02*
X542500D01*
Y119500D02*
Y207250D01*
X542000Y89850D02*
X570000D01*
Y-17900D02*
Y89850D01*
X542000Y-17900D02*
X570000D01*
X521000Y89850D02*
Y91350D01*
Y89850D02*
X542000D01*
Y-17900D02*
Y89850D01*
X521000Y-17900D02*
X542000D01*
X467000Y-32900D02*
X506500D01*
X393000D02*
X448000D01*
X411750Y157750D02*
X425750D01*
X411750Y174750D02*
X425750D01*
X18000Y381500D02*
X47000D01*
X18000Y363500D02*
X47000D01*
Y379020D02*
Y381500D01*
X18000Y379020D02*
Y381500D01*
X47000Y363500D02*
Y365980D01*
X18000Y363500D02*
Y365980D01*
X11000Y42000D02*
Y46000D01*
X-5000Y42000D02*
X11000D01*
X-5000D02*
Y46000D01*
X11000D01*
X3000Y29000D02*
X13000D01*
X3000D02*
Y39000D01*
X-2000D02*
X8000D01*
X3000Y49000D02*
Y59000D01*
X-2000Y49000D02*
X8000D01*
X3000Y59000D02*
X13000D01*
X35000Y22000D02*
X40000D01*
Y66000D01*
X36000D02*
X40000D01*
X-44000Y22000D02*
X-40000D01*
X-44000D02*
Y66000D01*
X-39000D01*
X-19000D02*
X15000D01*
X-19000Y22000D02*
X15000D01*
D79*
X-1000Y94750D02*
Y109250D01*
X31000Y94750D02*
Y109250D01*
X19000Y94750D02*
X23000D01*
X7000D02*
X11000D01*
X19000Y109250D02*
X23000D01*
X7000D02*
X11000D01*
X195500Y144750D02*
X198500D01*
X195500Y137250D02*
X198500D01*
X346250Y-131500D02*
Y-128500D01*
X338750Y-131500D02*
Y-128500D01*
X238750Y-131500D02*
Y-128500D01*
X231250Y-131500D02*
Y-128500D01*
X304750Y-35000D02*
X307750D01*
X304750Y-42500D02*
X307750D01*
X197250Y-35000D02*
X200250D01*
X197250Y-42500D02*
X200250D01*
X327000Y14850D02*
X330000D01*
X327000Y22350D02*
X330000D01*
X456940Y203350D02*
Y206350D01*
X449440Y203350D02*
Y206350D01*
X484500Y246250D02*
X487500D01*
X484500Y237750D02*
X487500D01*
X478000Y283000D02*
X494000D01*
X478000Y257000D02*
X494000D01*
X478000D02*
Y283000D01*
X468500Y247500D02*
Y252500D01*
X466000Y250000D02*
X471000D01*
X482500Y307000D02*
X489500D01*
X482500Y291000D02*
X489500D01*
X-489500Y257250D02*
X-482500D01*
X-489500Y273250D02*
X-482500D01*
X-494000Y281250D02*
X-478000D01*
X-494000Y307250D02*
X-478000D01*
Y281250D02*
Y307250D01*
X-468500Y311750D02*
Y316750D01*
X-471000Y314250D02*
X-466000D01*
X-487500Y318000D02*
X-484500D01*
X-487500Y326500D02*
X-484500D01*
X74250Y344500D02*
Y350500D01*
X60750Y344500D02*
Y350500D01*
X34500Y340500D02*
X35500D01*
X34500Y329500D02*
X35500D01*
X34500Y360500D02*
X35500D01*
X34500Y349500D02*
X35500D01*
X-8000Y367000D02*
X-7000D01*
X-8000Y378000D02*
X-7000D01*
X-31250Y346000D02*
Y349000D01*
X-38750Y346000D02*
Y349000D01*
X-46250Y346000D02*
Y349000D01*
X-53750Y346000D02*
Y349000D01*
X91500Y275750D02*
X94500D01*
X91500Y268250D02*
X94500D01*
X64250Y253500D02*
Y256500D01*
X56750Y253500D02*
Y256500D01*
X-64250Y253500D02*
Y256500D01*
X-56750Y253500D02*
Y256500D01*
X64250Y143500D02*
Y146500D01*
X56750Y143500D02*
Y146500D01*
X-64250Y143500D02*
Y146500D01*
X-56750Y143500D02*
Y146500D01*
X69000Y124250D02*
X72000D01*
X69000Y115750D02*
X72000D01*
X69000Y109250D02*
X72000D01*
X69000Y100750D02*
X72000D01*
X44250Y25000D02*
Y28000D01*
X52750Y25000D02*
Y28000D01*
X44250Y60000D02*
Y63000D01*
X52750Y60000D02*
Y63000D01*
X-57250Y84500D02*
Y87500D01*
X-49750Y84500D02*
Y87500D01*
X-72750Y84500D02*
Y87500D01*
X-64250Y84500D02*
Y87500D01*
X-95000Y100250D02*
X-92000D01*
X-95000Y91750D02*
X-92000D01*
X-92000Y213750D02*
X-89000D01*
X-92000Y221250D02*
X-89000D01*
X-92000Y246250D02*
X-89000D01*
X-92000Y238750D02*
X-89000D01*
X-92000Y257750D02*
X-89000D01*
X-92000Y265250D02*
X-89000D01*
X-159000Y246250D02*
X-156000D01*
X-159000Y238750D02*
X-156000D01*
X-243250Y39750D02*
X-227250D01*
X-243250Y65750D02*
X-227250D01*
X-246500Y82500D02*
X-243500D01*
X-246500Y75000D02*
X-243500D01*
X-246500Y98750D02*
X-243500D01*
X-246500Y91250D02*
X-243500D01*
X-309000Y110500D02*
X-303000D01*
X-309000Y124000D02*
X-303000D01*
X-321500Y28750D02*
X-318500D01*
X-321500Y21250D02*
X-318500D01*
X-363250Y66250D02*
X-358250D01*
X-360750Y63750D02*
Y68750D01*
X-370250Y33250D02*
Y59250D01*
X-386250D02*
X-370250D01*
X-386250Y33250D02*
X-370250D01*
X-15700Y-306250D02*
X-9700D01*
X-15700Y-293750D02*
X-9700D01*
X-77700Y-302700D02*
X-74700D01*
X-77700Y-294200D02*
X-74700D01*
X-128500Y-302700D02*
X-125500D01*
X-128500Y-294200D02*
X-125500D01*
X-179300Y-302700D02*
X-176300D01*
X-179300Y-294200D02*
X-176300D01*
X-230100Y-302700D02*
X-227100D01*
X-230100Y-294200D02*
X-227100D01*
D80*
X-10160Y-223520D02*
X-2163D01*
Y-219521D01*
X-3496Y-218188D01*
X-6161D01*
X-7494Y-219521D01*
Y-223520D01*
Y-220854D02*
X-10160Y-218188D01*
Y-215523D02*
Y-212857D01*
Y-214190D01*
X-2163D01*
X-3496Y-215523D01*
X-33020Y-284480D02*
Y-276483D01*
X-37019D01*
X-38352Y-277815D01*
Y-280481D01*
X-37019Y-281814D01*
X-33020D01*
X-35686D02*
X-38352Y-284480D01*
X-46349D02*
X-41017D01*
X-46349Y-279148D01*
Y-277815D01*
X-45016Y-276483D01*
X-42350D01*
X-41017Y-277815D01*
X-49015Y-283147D02*
X-50348Y-284480D01*
X-53014D01*
X-54346Y-283147D01*
Y-277815D01*
X-53014Y-276483D01*
X-50348D01*
X-49015Y-277815D01*
Y-279148D01*
X-50348Y-280481D01*
X-54346D01*
X-38352Y-290515D02*
X-37019Y-289183D01*
X-34353D01*
X-33020Y-290515D01*
Y-295847D01*
X-34353Y-297180D01*
X-37019D01*
X-38352Y-295847D01*
X-41017Y-290515D02*
X-42350Y-289183D01*
X-45016D01*
X-46349Y-290515D01*
Y-291848D01*
X-45016Y-293181D01*
X-43683D01*
X-45016D01*
X-46349Y-294514D01*
Y-295847D01*
X-45016Y-297180D01*
X-42350D01*
X-41017Y-295847D01*
X-49015D02*
X-50348Y-297180D01*
X-53014D01*
X-54346Y-295847D01*
Y-290515D01*
X-53014Y-289183D01*
X-50348D01*
X-49015Y-290515D01*
Y-291848D01*
X-50348Y-293181D01*
X-54346D01*
X-116840Y234057D02*
Y227393D01*
X-118173Y226060D01*
X-120839D01*
X-122172Y227393D01*
Y234057D01*
X-130169D02*
X-127503Y232724D01*
X-124837Y230059D01*
Y227393D01*
X-126170Y226060D01*
X-128836D01*
X-130169Y227393D01*
Y228726D01*
X-128836Y230059D01*
X-124837D01*
X-269240Y122297D02*
Y115633D01*
X-270573Y114300D01*
X-273239D01*
X-274572Y115633D01*
Y122297D01*
X-282569D02*
X-277237D01*
Y118299D01*
X-279903Y119632D01*
X-281236D01*
X-282569Y118299D01*
Y115633D01*
X-281236Y114300D01*
X-278570D01*
X-277237Y115633D01*
X-203200Y109220D02*
Y117217D01*
X-207199D01*
X-208532Y115885D01*
Y113219D01*
X-207199Y111886D01*
X-203200D01*
X-205866D02*
X-208532Y109220D01*
X-216529D02*
X-211197D01*
X-216529Y114552D01*
Y115885D01*
X-215196Y117217D01*
X-212530D01*
X-211197Y115885D01*
X-219195D02*
X-220528Y117217D01*
X-223194D01*
X-224526Y115885D01*
Y114552D01*
X-223194Y113219D01*
X-224526Y111886D01*
Y110553D01*
X-223194Y109220D01*
X-220528D01*
X-219195Y110553D01*
Y111886D01*
X-220528Y113219D01*
X-219195Y114552D01*
Y115885D01*
X-220528Y113219D02*
X-223194D01*
X-322580Y144780D02*
X-314583D01*
Y148779D01*
X-315916Y150112D01*
X-318581D01*
X-319914Y148779D01*
Y144780D01*
Y147446D02*
X-322580Y150112D01*
Y158109D02*
Y152777D01*
X-317248Y158109D01*
X-315916D01*
X-314583Y156776D01*
Y154110D01*
X-315916Y152777D01*
X-314583Y160775D02*
Y166106D01*
X-315916D01*
X-321247Y160775D01*
X-322580D01*
X-332740Y124460D02*
Y132457D01*
X-336739D01*
X-338072Y131124D01*
Y128459D01*
X-336739Y127126D01*
X-332740D01*
X-335406D02*
X-338072Y124460D01*
X-346069D02*
X-340737D01*
X-346069Y129792D01*
Y131124D01*
X-344736Y132457D01*
X-342070D01*
X-340737Y131124D01*
X-354066Y132457D02*
X-351401Y131124D01*
X-348735Y128459D01*
Y125793D01*
X-350068Y124460D01*
X-352734D01*
X-354066Y125793D01*
Y127126D01*
X-352734Y128459D01*
X-348735D01*
X-320040Y180717D02*
Y172720D01*
X-324039D01*
X-325372Y174053D01*
Y179384D01*
X-324039Y180717D01*
X-320040D01*
X-333369Y172720D02*
X-328037D01*
X-333369Y178052D01*
Y179384D01*
X-332036Y180717D01*
X-329370D01*
X-328037Y179384D01*
X-341366Y180717D02*
X-336035D01*
Y176719D01*
X-338701Y178052D01*
X-340034D01*
X-341366Y176719D01*
Y174053D01*
X-340034Y172720D01*
X-337368D01*
X-336035Y174053D01*
X-373380Y180717D02*
Y172720D01*
X-377379D01*
X-378712Y174053D01*
Y179384D01*
X-377379Y180717D01*
X-373380D01*
X-386709Y172720D02*
X-381377D01*
X-386709Y178052D01*
Y179384D01*
X-385376Y180717D01*
X-382710D01*
X-381377Y179384D01*
X-393374Y172720D02*
Y180717D01*
X-389375Y176719D01*
X-394706D01*
X-411480Y71497D02*
Y63500D01*
X-415479D01*
X-416812Y64833D01*
Y70164D01*
X-415479Y71497D01*
X-411480D01*
X-424809Y63500D02*
X-419477D01*
X-424809Y68832D01*
Y70164D01*
X-423476Y71497D01*
X-420810D01*
X-419477Y70164D01*
X-427475D02*
X-428808Y71497D01*
X-431474D01*
X-432806Y70164D01*
Y68832D01*
X-431474Y67499D01*
X-430141D01*
X-431474D01*
X-432806Y66166D01*
Y64833D01*
X-431474Y63500D01*
X-428808D01*
X-427475Y64833D01*
X-373380Y170557D02*
Y162560D01*
X-377379D01*
X-378712Y163893D01*
Y169224D01*
X-377379Y170557D01*
X-373380D01*
X-386709Y162560D02*
X-381377D01*
X-386709Y167892D01*
Y169224D01*
X-385376Y170557D01*
X-382710D01*
X-381377Y169224D01*
X-394706Y162560D02*
X-389375D01*
X-394706Y167892D01*
Y169224D01*
X-393374Y170557D01*
X-390708D01*
X-389375Y169224D01*
X-411480Y61337D02*
Y53340D01*
X-415479D01*
X-416812Y54673D01*
Y60005D01*
X-415479Y61337D01*
X-411480D01*
X-424809Y53340D02*
X-419477D01*
X-424809Y58672D01*
Y60005D01*
X-423476Y61337D01*
X-420810D01*
X-419477Y60005D01*
X-427475Y53340D02*
X-430141D01*
X-428808D01*
Y61337D01*
X-427475Y60005D01*
X-411480Y51177D02*
Y43180D01*
X-415479D01*
X-416812Y44513D01*
Y49844D01*
X-415479Y51177D01*
X-411480D01*
X-424809Y43180D02*
X-419477D01*
X-424809Y48512D01*
Y49844D01*
X-423476Y51177D01*
X-420810D01*
X-419477Y49844D01*
X-427475D02*
X-428808Y51177D01*
X-431474D01*
X-432806Y49844D01*
Y44513D01*
X-431474Y43180D01*
X-428808D01*
X-427475Y44513D01*
Y49844D01*
X-89152Y275905D02*
X-87819Y277237D01*
X-85153D01*
X-83820Y275905D01*
Y270573D01*
X-85153Y269240D01*
X-87819D01*
X-89152Y270573D01*
X-97149Y277237D02*
X-91817D01*
Y273239D01*
X-94483Y274572D01*
X-95816D01*
X-97149Y273239D01*
Y270573D01*
X-95816Y269240D01*
X-93150D01*
X-91817Y270573D01*
X-99815Y277237D02*
X-105146D01*
Y275905D01*
X-99815Y270573D01*
Y269240D01*
X-89152Y232724D02*
X-87819Y234057D01*
X-85153D01*
X-83820Y232724D01*
Y227393D01*
X-85153Y226060D01*
X-87819D01*
X-89152Y227393D01*
X-97149Y234057D02*
X-91817D01*
Y230059D01*
X-94483Y231392D01*
X-95816D01*
X-97149Y230059D01*
Y227393D01*
X-95816Y226060D01*
X-93150D01*
X-91817Y227393D01*
X-105146Y234057D02*
X-102481Y232724D01*
X-99815Y230059D01*
Y227393D01*
X-101148Y226060D01*
X-103814D01*
X-105146Y227393D01*
Y228726D01*
X-103814Y230059D01*
X-99815D01*
X-208532Y90485D02*
X-207199Y91817D01*
X-204533D01*
X-203200Y90485D01*
Y85153D01*
X-204533Y83820D01*
X-207199D01*
X-208532Y85153D01*
X-216529Y91817D02*
X-211197D01*
Y87819D01*
X-213863Y89152D01*
X-215196D01*
X-216529Y87819D01*
Y85153D01*
X-215196Y83820D01*
X-212530D01*
X-211197Y85153D01*
X-224526Y91817D02*
X-219195D01*
Y87819D01*
X-221861Y89152D01*
X-223194D01*
X-224526Y87819D01*
Y85153D01*
X-223194Y83820D01*
X-220528D01*
X-219195Y85153D01*
X-208532Y77785D02*
X-207199Y79117D01*
X-204533D01*
X-203200Y77785D01*
Y72453D01*
X-204533Y71120D01*
X-207199D01*
X-208532Y72453D01*
X-216529Y79117D02*
X-211197D01*
Y75119D01*
X-213863Y76452D01*
X-215196D01*
X-216529Y75119D01*
Y72453D01*
X-215196Y71120D01*
X-212530D01*
X-211197Y72453D01*
X-223194Y71120D02*
Y79117D01*
X-219195Y75119D01*
X-224526D01*
X-208532Y103184D02*
X-207199Y104517D01*
X-204533D01*
X-203200Y103184D01*
Y97853D01*
X-204533Y96520D01*
X-207199D01*
X-208532Y97853D01*
X-216529Y104517D02*
X-211197D01*
Y100519D01*
X-213863Y101852D01*
X-215196D01*
X-216529Y100519D01*
Y97853D01*
X-215196Y96520D01*
X-212530D01*
X-211197Y97853D01*
X-219195Y103184D02*
X-220528Y104517D01*
X-223194D01*
X-224526Y103184D01*
Y101852D01*
X-223194Y100519D01*
X-221861D01*
X-223194D01*
X-224526Y99186D01*
Y97853D01*
X-223194Y96520D01*
X-220528D01*
X-219195Y97853D01*
X-299972Y136205D02*
X-298639Y137537D01*
X-295973D01*
X-294640Y136205D01*
Y130873D01*
X-295973Y129540D01*
X-298639D01*
X-299972Y130873D01*
X-307969Y137537D02*
X-302637D01*
Y133539D01*
X-305303Y134872D01*
X-306636D01*
X-307969Y133539D01*
Y130873D01*
X-306636Y129540D01*
X-303970D01*
X-302637Y130873D01*
X-315966Y129540D02*
X-310635D01*
X-315966Y134872D01*
Y136205D01*
X-314634Y137537D01*
X-311968D01*
X-310635Y136205D01*
X-416812Y39685D02*
X-415479Y41017D01*
X-412813D01*
X-411480Y39685D01*
Y34353D01*
X-412813Y33020D01*
X-415479D01*
X-416812Y34353D01*
X-424809Y41017D02*
X-419477D01*
Y37019D01*
X-422143Y38352D01*
X-423476D01*
X-424809Y37019D01*
Y34353D01*
X-423476Y33020D01*
X-420810D01*
X-419477Y34353D01*
X-427475Y33020D02*
X-430141D01*
X-428808D01*
Y41017D01*
X-427475Y39685D01*
X540000Y218247D02*
Y211583D01*
X538667Y210250D01*
X536001D01*
X534668Y211583D01*
Y218247D01*
X526671Y216915D02*
X528004Y218247D01*
X530670D01*
X532003Y216915D01*
Y215582D01*
X530670Y214249D01*
X528004D01*
X526671Y212916D01*
Y211583D01*
X528004Y210250D01*
X530670D01*
X532003Y211583D01*
X524005Y218247D02*
Y210250D01*
X520006D01*
X518674Y211583D01*
Y212916D01*
X520006Y214249D01*
X524005D01*
X520006D01*
X518674Y215582D01*
Y216915D01*
X520006Y218247D01*
X524005D01*
X538000Y-27501D02*
X535334D01*
X538000Y-28834D02*
X535334D01*
Y-23503D02*
Y-32833D01*
X527337Y-24836D02*
X528670Y-23503D01*
X531335D01*
X532668Y-24836D01*
Y-26168D01*
X531335Y-27501D01*
X528670D01*
X527337Y-28834D01*
Y-30167D01*
X528670Y-31500D01*
X531335D01*
X532668Y-30167D01*
X524671Y-23503D02*
Y-31500D01*
X520672D01*
X519339Y-30167D01*
Y-24836D01*
X520672Y-23503D01*
X524671D01*
X38100Y239137D02*
Y232473D01*
X36767Y231140D01*
X34101D01*
X32768Y232473D01*
Y239137D01*
X24771Y231140D02*
X30103D01*
X24771Y236472D01*
Y237805D01*
X26104Y239137D01*
X28770D01*
X30103Y237805D01*
X87944Y343152D02*
X89277Y341819D01*
Y339153D01*
X87944Y337820D01*
X82613D01*
X81280Y339153D01*
Y341819D01*
X82613Y343152D01*
X81280Y345817D02*
Y348483D01*
Y347150D01*
X89277D01*
X87944Y345817D01*
X89277Y357814D02*
X87944Y355148D01*
X85279Y352482D01*
X82613D01*
X81280Y353815D01*
Y356481D01*
X82613Y357814D01*
X83946D01*
X85279Y356481D01*
Y352482D01*
X-31435Y368552D02*
X-30103Y367219D01*
Y364553D01*
X-31435Y363220D01*
X-36767D01*
X-38100Y364553D01*
Y367219D01*
X-36767Y368552D01*
X-38100Y371217D02*
Y373883D01*
Y372550D01*
X-30103D01*
X-31435Y371217D01*
X-30103Y377882D02*
Y383214D01*
X-31435D01*
X-36767Y377882D01*
X-38100D01*
X-46676Y368552D02*
X-45343Y367219D01*
Y364553D01*
X-46676Y363220D01*
X-52007D01*
X-53340Y364553D01*
Y367219D01*
X-52007Y368552D01*
X-53340Y371217D02*
Y373883D01*
Y372550D01*
X-45343D01*
X-46676Y371217D01*
Y377882D02*
X-45343Y379215D01*
Y381881D01*
X-46676Y383214D01*
X-48008D01*
X-49341Y381881D01*
X-50674Y383214D01*
X-52007D01*
X-53340Y381881D01*
Y379215D01*
X-52007Y377882D01*
X-50674D01*
X-49341Y379215D01*
X-48008Y377882D01*
X-46676D01*
X-49341Y379215D02*
Y381881D01*
X-223772Y-282896D02*
X-222439Y-281563D01*
X-219773D01*
X-218440Y-282896D01*
Y-288227D01*
X-219773Y-289560D01*
X-222439D01*
X-223772Y-288227D01*
X-226437Y-289560D02*
X-229103D01*
X-227770D01*
Y-281563D01*
X-226437Y-282896D01*
X-233102Y-288227D02*
X-234435Y-289560D01*
X-237101D01*
X-238434Y-288227D01*
Y-282896D01*
X-237101Y-281563D01*
X-234435D01*
X-233102Y-282896D01*
Y-284228D01*
X-234435Y-285561D01*
X-238434D01*
X-172972Y-282896D02*
X-171639Y-281563D01*
X-168973D01*
X-167640Y-282896D01*
Y-288227D01*
X-168973Y-289560D01*
X-171639D01*
X-172972Y-288227D01*
X-180969Y-289560D02*
X-175637D01*
X-180969Y-284228D01*
Y-282896D01*
X-179636Y-281563D01*
X-176970D01*
X-175637Y-282896D01*
X-183635D02*
X-184968Y-281563D01*
X-187634D01*
X-188966Y-282896D01*
Y-288227D01*
X-187634Y-289560D01*
X-184968D01*
X-183635Y-288227D01*
Y-282896D01*
X-122172D02*
X-120839Y-281563D01*
X-118173D01*
X-116840Y-282896D01*
Y-288227D01*
X-118173Y-289560D01*
X-120839D01*
X-122172Y-288227D01*
X-130169Y-289560D02*
X-124837D01*
X-130169Y-284228D01*
Y-282896D01*
X-128836Y-281563D01*
X-126170D01*
X-124837Y-282896D01*
X-132835Y-289560D02*
X-135501D01*
X-134168D01*
Y-281563D01*
X-132835Y-282896D01*
X-71372D02*
X-70039Y-281563D01*
X-67373D01*
X-66040Y-282896D01*
Y-288227D01*
X-67373Y-289560D01*
X-70039D01*
X-71372Y-288227D01*
X-79369Y-289560D02*
X-74037D01*
X-79369Y-284228D01*
Y-282896D01*
X-78036Y-281563D01*
X-75370D01*
X-74037Y-282896D01*
X-87366Y-289560D02*
X-82035D01*
X-87366Y-284228D01*
Y-282896D01*
X-86034Y-281563D01*
X-83368D01*
X-82035Y-282896D01*
X40640Y394077D02*
Y386080D01*
X36641D01*
X35308Y387413D01*
Y392744D01*
X36641Y394077D01*
X40640D01*
X32643Y386080D02*
X29977D01*
X31310D01*
Y394077D01*
X32643Y392744D01*
X20646Y394077D02*
X23312Y392744D01*
X25978Y390079D01*
Y387413D01*
X24645Y386080D01*
X21979D01*
X20646Y387413D01*
Y388746D01*
X21979Y390079D01*
X25978D01*
X-2540Y391537D02*
Y383540D01*
X-7872D01*
X-10537D02*
X-13203D01*
X-11870D01*
Y391537D01*
X-10537Y390205D01*
X33020Y314960D02*
Y322957D01*
X29021D01*
X27688Y321624D01*
Y318959D01*
X29021Y317626D01*
X33020D01*
X30354D02*
X27688Y314960D01*
X19691D02*
X25023D01*
X19691Y320292D01*
Y321624D01*
X21024Y322957D01*
X23690D01*
X25023Y321624D01*
X50800Y317500D02*
Y325497D01*
X46801D01*
X45468Y324165D01*
Y321499D01*
X46801Y320166D01*
X50800D01*
X48134D02*
X45468Y317500D01*
X42803Y324165D02*
X41470Y325497D01*
X38804D01*
X37471Y324165D01*
Y322832D01*
X38804Y321499D01*
X40137D01*
X38804D01*
X37471Y320166D01*
Y318833D01*
X38804Y317500D01*
X41470D01*
X42803Y318833D01*
X-17780Y330577D02*
Y323913D01*
X-19113Y322580D01*
X-21779D01*
X-23112Y323913D01*
Y330577D01*
X-25777Y322580D02*
X-28443D01*
X-27110D01*
Y330577D01*
X-25777Y329244D01*
X65085Y20572D02*
X66417Y19239D01*
Y16573D01*
X65085Y15240D01*
X59753D01*
X58420Y16573D01*
Y19239D01*
X59753Y20572D01*
X58420Y28569D02*
Y23237D01*
X63752Y28569D01*
X65085D01*
X66417Y27236D01*
Y24570D01*
X65085Y23237D01*
Y31235D02*
X66417Y32568D01*
Y35234D01*
X65085Y36566D01*
X63752D01*
X62419Y35234D01*
Y33901D01*
Y35234D01*
X61086Y36566D01*
X59753D01*
X58420Y35234D01*
Y32568D01*
X59753Y31235D01*
X65085Y58672D02*
X66417Y57339D01*
Y54673D01*
X65085Y53340D01*
X59753D01*
X58420Y54673D01*
Y57339D01*
X59753Y58672D01*
X58420Y66669D02*
Y61337D01*
X63752Y66669D01*
X65085D01*
X66417Y65336D01*
Y62670D01*
X65085Y61337D01*
X58420Y73334D02*
X66417D01*
X62419Y69335D01*
Y74666D01*
X98808Y286064D02*
X100141Y287397D01*
X102807D01*
X104140Y286064D01*
Y280733D01*
X102807Y279400D01*
X100141D01*
X98808Y280733D01*
X90811Y279400D02*
X96143D01*
X90811Y284732D01*
Y286064D01*
X92144Y287397D01*
X94810D01*
X96143Y286064D01*
X82814Y287397D02*
X88145D01*
Y283399D01*
X85479Y284732D01*
X84146D01*
X82814Y283399D01*
Y280733D01*
X84146Y279400D01*
X86812D01*
X88145Y280733D01*
X-86612Y207325D02*
X-85279Y208657D01*
X-82613D01*
X-81280Y207325D01*
Y201993D01*
X-82613Y200660D01*
X-85279D01*
X-86612Y201993D01*
X-94609Y200660D02*
X-89277D01*
X-94609Y205992D01*
Y207325D01*
X-93276Y208657D01*
X-90610D01*
X-89277Y207325D01*
X-102606Y208657D02*
X-99941Y207325D01*
X-97275Y204659D01*
Y201993D01*
X-98608Y200660D01*
X-101274D01*
X-102606Y201993D01*
Y203326D01*
X-101274Y204659D01*
X-97275D01*
X203930Y161931D02*
X205263Y163263D01*
X207929D01*
X209262Y161931D01*
Y156599D01*
X207929Y155266D01*
X205263D01*
X203930Y156599D01*
X195933Y155266D02*
X201265D01*
X195933Y160598D01*
Y161931D01*
X197266Y163263D01*
X199932D01*
X201265Y161931D01*
X193267Y163263D02*
X187936D01*
Y161931D01*
X193267Y156599D01*
Y155266D01*
X-114552Y98104D02*
X-113219Y99437D01*
X-110553D01*
X-109220Y98104D01*
Y92773D01*
X-110553Y91440D01*
X-113219D01*
X-114552Y92773D01*
X-122549Y91440D02*
X-117217D01*
X-122549Y96772D01*
Y98104D01*
X-121216Y99437D01*
X-118550D01*
X-117217Y98104D01*
X-125215D02*
X-126548Y99437D01*
X-129214D01*
X-130546Y98104D01*
Y96772D01*
X-129214Y95439D01*
X-130546Y94106D01*
Y92773D01*
X-129214Y91440D01*
X-126548D01*
X-125215Y92773D01*
Y94106D01*
X-126548Y95439D01*
X-125215Y96772D01*
Y98104D01*
X-126548Y95439D02*
X-129214D01*
X-66996Y56132D02*
X-65663Y54799D01*
Y52133D01*
X-66996Y50800D01*
X-72327D01*
X-73660Y52133D01*
Y54799D01*
X-72327Y56132D01*
X-73660Y64129D02*
Y58797D01*
X-68328Y64129D01*
X-66996D01*
X-65663Y62796D01*
Y60130D01*
X-66996Y58797D01*
X-72327Y66795D02*
X-73660Y68128D01*
Y70794D01*
X-72327Y72126D01*
X-66996D01*
X-65663Y70794D01*
Y68128D01*
X-66996Y66795D01*
X-68328D01*
X-69661Y68128D01*
Y72126D01*
X101348Y103184D02*
X102681Y104517D01*
X105347D01*
X106680Y103184D01*
Y97853D01*
X105347Y96520D01*
X102681D01*
X101348Y97853D01*
X98683Y103184D02*
X97350Y104517D01*
X94684D01*
X93351Y103184D01*
Y101852D01*
X94684Y100519D01*
X96017D01*
X94684D01*
X93351Y99186D01*
Y97853D01*
X94684Y96520D01*
X97350D01*
X98683Y97853D01*
X90685Y103184D02*
X89352Y104517D01*
X86686D01*
X85354Y103184D01*
Y97853D01*
X86686Y96520D01*
X89352D01*
X90685Y97853D01*
Y103184D01*
X-51755Y56132D02*
X-50423Y54799D01*
Y52133D01*
X-51755Y50800D01*
X-57087D01*
X-58420Y52133D01*
Y54799D01*
X-57087Y56132D01*
X-51755Y58797D02*
X-50423Y60130D01*
Y62796D01*
X-51755Y64129D01*
X-53088D01*
X-54421Y62796D01*
Y61463D01*
Y62796D01*
X-55754Y64129D01*
X-57087D01*
X-58420Y62796D01*
Y60130D01*
X-57087Y58797D01*
X-58420Y66795D02*
Y69461D01*
Y68128D01*
X-50423D01*
X-51755Y66795D01*
X101348Y126045D02*
X102681Y127377D01*
X105347D01*
X106680Y126045D01*
Y120713D01*
X105347Y119380D01*
X102681D01*
X101348Y120713D01*
X98683Y126045D02*
X97350Y127377D01*
X94684D01*
X93351Y126045D01*
Y124712D01*
X94684Y123379D01*
X96017D01*
X94684D01*
X93351Y122046D01*
Y120713D01*
X94684Y119380D01*
X97350D01*
X98683Y120713D01*
X85354Y119380D02*
X90685D01*
X85354Y124712D01*
Y126045D01*
X86686Y127377D01*
X89352D01*
X90685Y126045D01*
X-69535Y139952D02*
X-68203Y138619D01*
Y135953D01*
X-69535Y134620D01*
X-74867D01*
X-76200Y135953D01*
Y138619D01*
X-74867Y139952D01*
X-69535Y142617D02*
X-68203Y143950D01*
Y146616D01*
X-69535Y147949D01*
X-70868D01*
X-72201Y146616D01*
Y145283D01*
Y146616D01*
X-73534Y147949D01*
X-74867D01*
X-76200Y146616D01*
Y143950D01*
X-74867Y142617D01*
X-69535Y150615D02*
X-68203Y151948D01*
Y154614D01*
X-69535Y155946D01*
X-70868D01*
X-72201Y154614D01*
Y153281D01*
Y154614D01*
X-73534Y155946D01*
X-74867D01*
X-76200Y154614D01*
Y151948D01*
X-74867Y150615D01*
X75244Y139952D02*
X76577Y138619D01*
Y135953D01*
X75244Y134620D01*
X69913D01*
X68580Y135953D01*
Y138619D01*
X69913Y139952D01*
X75244Y142617D02*
X76577Y143950D01*
Y146616D01*
X75244Y147949D01*
X73912D01*
X72579Y146616D01*
Y145283D01*
Y146616D01*
X71246Y147949D01*
X69913D01*
X68580Y146616D01*
Y143950D01*
X69913Y142617D01*
X68580Y154614D02*
X76577D01*
X72579Y150615D01*
Y155946D01*
X-46676Y261872D02*
X-45343Y260539D01*
Y257873D01*
X-46676Y256540D01*
X-52007D01*
X-53340Y257873D01*
Y260539D01*
X-52007Y261872D01*
X-46676Y264537D02*
X-45343Y265870D01*
Y268536D01*
X-46676Y269869D01*
X-48008D01*
X-49341Y268536D01*
Y267203D01*
Y268536D01*
X-50674Y269869D01*
X-52007D01*
X-53340Y268536D01*
Y265870D01*
X-52007Y264537D01*
X-45343Y277866D02*
Y272535D01*
X-49341D01*
X-48008Y275201D01*
Y276534D01*
X-49341Y277866D01*
X-52007D01*
X-53340Y276534D01*
Y273868D01*
X-52007Y272535D01*
X49844Y261872D02*
X51177Y260539D01*
Y257873D01*
X49844Y256540D01*
X44513D01*
X43180Y257873D01*
Y260539D01*
X44513Y261872D01*
X49844Y264537D02*
X51177Y265870D01*
Y268536D01*
X49844Y269869D01*
X48512D01*
X47179Y268536D01*
Y267203D01*
Y268536D01*
X45846Y269869D01*
X44513D01*
X43180Y268536D01*
Y265870D01*
X44513Y264537D01*
X51177Y277866D02*
X49844Y275201D01*
X47179Y272535D01*
X44513D01*
X43180Y273868D01*
Y276534D01*
X44513Y277866D01*
X45846D01*
X47179Y276534D01*
Y272535D01*
X468945Y205992D02*
X470277Y204659D01*
Y201993D01*
X468945Y200660D01*
X463613D01*
X462280Y201993D01*
Y204659D01*
X463613Y205992D01*
X468945Y208657D02*
X470277Y209990D01*
Y212656D01*
X468945Y213989D01*
X467612D01*
X466279Y212656D01*
Y211323D01*
Y212656D01*
X464946Y213989D01*
X463613D01*
X462280Y212656D01*
Y209990D01*
X463613Y208657D01*
X470277Y216655D02*
Y221986D01*
X468945D01*
X463613Y216655D01*
X462280D01*
X307088Y32064D02*
X308421Y33397D01*
X311087D01*
X312420Y32064D01*
Y26733D01*
X311087Y25400D01*
X308421D01*
X307088Y26733D01*
X304423Y32064D02*
X303090Y33397D01*
X300424D01*
X299091Y32064D01*
Y30732D01*
X300424Y29399D01*
X301757D01*
X300424D01*
X299091Y28066D01*
Y26733D01*
X300424Y25400D01*
X303090D01*
X304423Y26733D01*
X296425Y32064D02*
X295092Y33397D01*
X292426D01*
X291094Y32064D01*
Y30732D01*
X292426Y29399D01*
X291094Y28066D01*
Y26733D01*
X292426Y25400D01*
X295092D01*
X296425Y26733D01*
Y28066D01*
X295092Y29399D01*
X296425Y30732D01*
Y32064D01*
X295092Y29399D02*
X292426D01*
X458784Y294892D02*
X460117Y293559D01*
Y290893D01*
X458784Y289560D01*
X453453D01*
X452120Y290893D01*
Y293559D01*
X453453Y294892D01*
X452120Y301556D02*
X460117D01*
X456119Y297557D01*
Y302889D01*
X458784Y305555D02*
X460117Y306888D01*
Y309554D01*
X458784Y310886D01*
X453453D01*
X452120Y309554D01*
Y306888D01*
X453453Y305555D01*
X458784D01*
X-453075Y261872D02*
X-451743Y260539D01*
Y257873D01*
X-453075Y256540D01*
X-458407D01*
X-459740Y257873D01*
Y260539D01*
X-458407Y261872D01*
X-459740Y268536D02*
X-451743D01*
X-455741Y264537D01*
Y269869D01*
X-459740Y272535D02*
Y275201D01*
Y273868D01*
X-451743D01*
X-453075Y272535D01*
X458784Y261872D02*
X460117Y260539D01*
Y257873D01*
X458784Y256540D01*
X453453D01*
X452120Y257873D01*
Y260539D01*
X453453Y261872D01*
X452120Y268536D02*
X460117D01*
X456119Y264537D01*
Y269869D01*
X452120Y277866D02*
Y272535D01*
X457452Y277866D01*
X458784D01*
X460117Y276534D01*
Y273868D01*
X458784Y272535D01*
X-453075Y289812D02*
X-451743Y288479D01*
Y285813D01*
X-453075Y284480D01*
X-458407D01*
X-459740Y285813D01*
Y288479D01*
X-458407Y289812D01*
X-459740Y296476D02*
X-451743D01*
X-455741Y292477D01*
Y297809D01*
X-453075Y300475D02*
X-451743Y301808D01*
Y304474D01*
X-453075Y305806D01*
X-454408D01*
X-455741Y304474D01*
Y303141D01*
Y304474D01*
X-457074Y305806D01*
X-458407D01*
X-459740Y304474D01*
Y301808D01*
X-458407Y300475D01*
X489968Y232724D02*
X491301Y234057D01*
X493967D01*
X495300Y232724D01*
Y227393D01*
X493967Y226060D01*
X491301D01*
X489968Y227393D01*
X483304Y226060D02*
Y234057D01*
X487303Y230059D01*
X481971D01*
X475306Y226060D02*
Y234057D01*
X479305Y230059D01*
X473974D01*
X-480312Y336865D02*
X-478979Y338197D01*
X-476313D01*
X-474980Y336865D01*
Y331533D01*
X-476313Y330200D01*
X-478979D01*
X-480312Y331533D01*
X-486976Y330200D02*
Y338197D01*
X-482977Y334199D01*
X-488309D01*
X-496306Y338197D02*
X-490975D01*
Y334199D01*
X-493641Y335532D01*
X-494974D01*
X-496306Y334199D01*
Y331533D01*
X-494974Y330200D01*
X-492308D01*
X-490975Y331533D01*
X222565Y-39118D02*
X223897Y-40451D01*
Y-43117D01*
X222565Y-44450D01*
X217233D01*
X215900Y-43117D01*
Y-40451D01*
X217233Y-39118D01*
X215900Y-32454D02*
X223897D01*
X219899Y-36453D01*
Y-31121D01*
X223897Y-23124D02*
X222565Y-25789D01*
X219899Y-28455D01*
X217233D01*
X215900Y-27122D01*
Y-24456D01*
X217233Y-23124D01*
X218566D01*
X219899Y-24456D01*
Y-28455D01*
X330514Y-39118D02*
X331847Y-40451D01*
Y-43117D01*
X330514Y-44450D01*
X325183D01*
X323850Y-43117D01*
Y-40451D01*
X325183Y-39118D01*
X323850Y-32454D02*
X331847D01*
X327849Y-36453D01*
Y-31121D01*
X331847Y-28455D02*
Y-23124D01*
X330514D01*
X325183Y-28455D01*
X323850D01*
X247964Y-140718D02*
X249297Y-142051D01*
Y-144717D01*
X247964Y-146050D01*
X242633D01*
X241300Y-144717D01*
Y-142051D01*
X242633Y-140718D01*
X241300Y-134054D02*
X249297D01*
X245299Y-138053D01*
Y-132721D01*
X247964Y-130055D02*
X249297Y-128722D01*
Y-126056D01*
X247964Y-124724D01*
X246632D01*
X245299Y-126056D01*
X243966Y-124724D01*
X242633D01*
X241300Y-126056D01*
Y-128722D01*
X242633Y-130055D01*
X243966D01*
X245299Y-128722D01*
X246632Y-130055D01*
X247964D01*
X245299Y-128722D02*
Y-126056D01*
X355914Y-140718D02*
X357247Y-142051D01*
Y-144717D01*
X355914Y-146050D01*
X350583D01*
X349250Y-144717D01*
Y-142051D01*
X350583Y-140718D01*
X349250Y-134054D02*
X357247D01*
X353249Y-138053D01*
Y-132721D01*
X350583Y-130055D02*
X349250Y-128722D01*
Y-126056D01*
X350583Y-124724D01*
X355914D01*
X357247Y-126056D01*
Y-128722D01*
X355914Y-130055D01*
X354582D01*
X353249Y-128722D01*
Y-124724D01*
X434088Y151445D02*
X435421Y152777D01*
X438087D01*
X439420Y151445D01*
Y146113D01*
X438087Y144780D01*
X435421D01*
X434088Y146113D01*
X431423Y144780D02*
Y152777D01*
X428757Y150112D01*
X426091Y152777D01*
Y144780D01*
X418094Y151445D02*
X419426Y152777D01*
X422092D01*
X423425Y151445D01*
Y146113D01*
X422092Y144780D01*
X419426D01*
X418094Y146113D01*
X415428Y144780D02*
X412762D01*
X414095D01*
Y152777D01*
X415428Y151445D01*
X94357Y73660D02*
X86360D01*
Y77659D01*
X87693Y78992D01*
X93025D01*
X94357Y77659D01*
Y73660D01*
X86360Y81657D02*
Y84323D01*
Y82990D01*
X94357D01*
X93025Y81657D01*
X94357Y88322D02*
Y93654D01*
X93025D01*
X87693Y88322D01*
X86360D01*
X482600Y195957D02*
Y187960D01*
X478601D01*
X477268Y189293D01*
Y194625D01*
X478601Y195957D01*
X482600D01*
X474603Y187960D02*
X471937D01*
X473270D01*
Y195957D01*
X474603Y194625D01*
X467938D02*
X466605Y195957D01*
X463939D01*
X462606Y194625D01*
Y193292D01*
X463939Y191959D01*
X462606Y190626D01*
Y189293D01*
X463939Y187960D01*
X466605D01*
X467938Y189293D01*
Y190626D01*
X466605Y191959D01*
X467938Y193292D01*
Y194625D01*
X466605Y191959D02*
X463939D01*
X406400Y188337D02*
Y180340D01*
X402401D01*
X401068Y181673D01*
Y187005D01*
X402401Y188337D01*
X406400D01*
X398403Y180340D02*
X395737D01*
X397070D01*
Y188337D01*
X398403Y187005D01*
X391738Y181673D02*
X390405Y180340D01*
X387739D01*
X386406Y181673D01*
Y187005D01*
X387739Y188337D01*
X390405D01*
X391738Y187005D01*
Y185672D01*
X390405Y184339D01*
X386406D01*
X236597Y-63500D02*
Y-60834D01*
Y-62167D01*
X228600D01*
Y-63500D01*
Y-60834D01*
X235264Y-51504D02*
X236597Y-52837D01*
Y-55503D01*
X235264Y-56835D01*
X229933D01*
X228600Y-55503D01*
Y-52837D01*
X229933Y-51504D01*
X228600Y-48838D02*
Y-46172D01*
Y-47505D01*
X236597D01*
X235264Y-48838D01*
X344547Y-63500D02*
Y-60834D01*
Y-62167D01*
X336550D01*
Y-63500D01*
Y-60834D01*
X343214Y-51504D02*
X344547Y-52837D01*
Y-55503D01*
X343214Y-56835D01*
X337883D01*
X336550Y-55503D01*
Y-52837D01*
X337883Y-51504D01*
X336550Y-43506D02*
Y-48838D01*
X341882Y-43506D01*
X343214D01*
X344547Y-44839D01*
Y-47505D01*
X343214Y-48838D01*
X-109220Y79117D02*
Y71120D01*
X-114552D01*
X-122549D02*
X-117217D01*
X-122549Y76452D01*
Y77785D01*
X-121216Y79117D01*
X-118550D01*
X-117217Y77785D01*
X191006Y275229D02*
X188340D01*
X189673D01*
Y267232D01*
X191006D01*
X188340D01*
X179010Y273897D02*
X180343Y275229D01*
X183008D01*
X184342Y273897D01*
Y272564D01*
X183008Y271231D01*
X180343D01*
X179010Y269898D01*
Y268565D01*
X180343Y267232D01*
X183008D01*
X184342Y268565D01*
X176344Y267232D02*
Y275229D01*
X172345D01*
X171012Y273897D01*
Y271231D01*
X172345Y269898D01*
X176344D01*
X-305332Y-203335D02*
X-303999Y-202003D01*
X-301333D01*
X-300000Y-203335D01*
Y-208667D01*
X-301333Y-210000D01*
X-303999D01*
X-305332Y-208667D01*
Y-206001D01*
X-302666D01*
X-307997Y-210000D02*
Y-202003D01*
X-311996D01*
X-313329Y-203335D01*
Y-206001D01*
X-311996Y-207334D01*
X-307997D01*
X-321326Y-203335D02*
X-319994Y-202003D01*
X-317328D01*
X-315995Y-203335D01*
Y-204668D01*
X-317328Y-206001D01*
X-319994D01*
X-321326Y-207334D01*
Y-208667D01*
X-319994Y-210000D01*
X-317328D01*
X-315995Y-208667D01*
X-50000Y-210000D02*
Y-202003D01*
X-53999D01*
X-55332Y-203335D01*
Y-206001D01*
X-53999Y-207334D01*
X-50000D01*
X-52666D02*
X-55332Y-210000D01*
X-63329Y-202003D02*
X-57997D01*
Y-206001D01*
X-60663D01*
X-57997D01*
Y-210000D01*
X-65995Y-206001D02*
X-71326D01*
X-73992Y-203335D02*
X-75325Y-202003D01*
X-77991D01*
X-79324Y-203335D01*
Y-204668D01*
X-77991Y-206001D01*
X-79324Y-207334D01*
Y-208667D01*
X-77991Y-210000D01*
X-75325D01*
X-73992Y-208667D01*
Y-207334D01*
X-75325Y-206001D01*
X-73992Y-204668D01*
Y-203335D01*
X-75325Y-206001D02*
X-77991D01*
X-87321Y-202003D02*
X-84656Y-203335D01*
X-81990Y-206001D01*
Y-208667D01*
X-83323Y-210000D01*
X-85988D01*
X-87321Y-208667D01*
Y-207334D01*
X-85988Y-206001D01*
X-81990D01*
X-89987Y-203335D02*
X-91320Y-202003D01*
X-93986D01*
X-95319Y-203335D01*
Y-204668D01*
X-93986Y-206001D01*
X-95319Y-207334D01*
Y-208667D01*
X-93986Y-210000D01*
X-91320D01*
X-89987Y-208667D01*
Y-207334D01*
X-91320Y-206001D01*
X-89987Y-204668D01*
Y-203335D01*
X-91320Y-206001D02*
X-93986D01*
X-97985Y-210000D02*
Y-202003D01*
X-101983D01*
X-103316Y-203335D01*
Y-206001D01*
X-101983Y-207334D01*
X-97985D01*
X-105982Y-211333D02*
X-111313D01*
X-113979Y-202003D02*
Y-210000D01*
X-119311D01*
X-121977D02*
Y-202003D01*
X-125976D01*
X-127308Y-203335D01*
Y-206001D01*
X-125976Y-207334D01*
X-121977D01*
X-124643D02*
X-127308Y-210000D01*
X234668Y-203335D02*
X236001Y-202003D01*
X238667D01*
X240000Y-203335D01*
Y-208667D01*
X238667Y-210000D01*
X236001D01*
X234668Y-208667D01*
X232003Y-210000D02*
Y-204668D01*
X229337Y-202003D01*
X226671Y-204668D01*
Y-210000D01*
Y-206001D01*
X232003D01*
X224005Y-210000D02*
Y-202003D01*
X218674Y-210000D01*
Y-202003D01*
X216008Y-210000D02*
X213342D01*
X214675D01*
Y-202003D01*
X216008Y-203335D01*
X344668D02*
X346001Y-202003D01*
X348667D01*
X350000Y-203335D01*
Y-208667D01*
X348667Y-210000D01*
X346001D01*
X344668Y-208667D01*
X342003Y-210000D02*
Y-204668D01*
X339337Y-202003D01*
X336671Y-204668D01*
Y-210000D01*
Y-206001D01*
X342003D01*
X334005Y-210000D02*
Y-202003D01*
X328674Y-210000D01*
Y-202003D01*
X320676Y-210000D02*
X326008D01*
X320676Y-204668D01*
Y-203335D01*
X322009Y-202003D01*
X324675D01*
X326008Y-203335D01*
X-180000Y-210000D02*
Y-202003D01*
X-183999D01*
X-185332Y-203335D01*
Y-206001D01*
X-183999Y-207334D01*
X-180000D01*
X-182666D02*
X-185332Y-210000D01*
X-189330Y-204668D02*
X-191996D01*
X-193329Y-206001D01*
Y-210000D01*
X-189330D01*
X-187997Y-208667D01*
X-189330Y-207334D01*
X-193329D01*
X-201326Y-204668D02*
X-197328D01*
X-195995Y-206001D01*
Y-208667D01*
X-197328Y-210000D01*
X-201326D01*
X-207991D02*
X-205325D01*
X-203992Y-208667D01*
Y-206001D01*
X-205325Y-204668D01*
X-207991D01*
X-209324Y-206001D01*
Y-207334D01*
X-203992D01*
X-211990Y-202003D02*
Y-210000D01*
X-215988D01*
X-217321Y-208667D01*
Y-203335D01*
X-215988Y-202003D01*
X-211990D01*
X-219987Y-210000D02*
Y-204668D01*
X-222653Y-202003D01*
X-225319Y-204668D01*
Y-210000D01*
Y-206001D01*
X-219987D01*
X-233316Y-203335D02*
X-231983Y-202003D01*
X-229317D01*
X-227985Y-203335D01*
Y-208667D01*
X-229317Y-210000D01*
X-231983D01*
X-233316Y-208667D01*
X439168Y227393D02*
Y232724D01*
X440501Y234057D01*
X443167D01*
X444500Y232724D01*
Y227393D01*
X443167Y226060D01*
X440501D01*
X441834Y228726D02*
X439168Y226060D01*
X440501D02*
X439168Y227393D01*
X436503Y226060D02*
X433837D01*
X435170D01*
Y234057D01*
X436503Y232724D01*
X-335532Y-100267D02*
Y-94936D01*
X-334199Y-93603D01*
X-331533D01*
X-330200Y-94936D01*
Y-100267D01*
X-331533Y-101600D01*
X-334199D01*
X-332866Y-98934D02*
X-335532Y-101600D01*
X-334199D02*
X-335532Y-100267D01*
X-343529Y-101600D02*
X-338197D01*
X-343529Y-96268D01*
Y-94936D01*
X-342196Y-93603D01*
X-339530D01*
X-338197Y-94936D01*
X-168847Y-108968D02*
X-163515D01*
X-162183Y-110301D01*
Y-112967D01*
X-163515Y-114300D01*
X-168847D01*
X-170180Y-112967D01*
Y-110301D01*
X-167514Y-111634D02*
X-170180Y-108968D01*
Y-110301D02*
X-168847Y-108968D01*
X-163515Y-106303D02*
X-162183Y-104970D01*
Y-102304D01*
X-163515Y-100971D01*
X-164848D01*
X-166181Y-102304D01*
Y-103637D01*
Y-102304D01*
X-167514Y-100971D01*
X-168847D01*
X-170180Y-102304D01*
Y-104970D01*
X-168847Y-106303D01*
X132080Y76200D02*
X140077D01*
Y80199D01*
X138744Y81532D01*
X136079D01*
X134746Y80199D01*
Y76200D01*
Y78866D02*
X132080Y81532D01*
Y88196D02*
X140077D01*
X136079Y84197D01*
Y89529D01*
X111760Y76200D02*
X119757D01*
Y80199D01*
X118425Y81532D01*
X115759D01*
X114426Y80199D01*
Y76200D01*
Y78866D02*
X111760Y81532D01*
X119757Y89529D02*
Y84197D01*
X115759D01*
X117092Y86863D01*
Y88196D01*
X115759Y89529D01*
X113093D01*
X111760Y88196D01*
Y85530D01*
X113093Y84197D01*
X86360Y50800D02*
X94357D01*
Y54799D01*
X93025Y56132D01*
X90359D01*
X89026Y54799D01*
Y50800D01*
Y53466D02*
X86360Y56132D01*
X94357Y64129D02*
X93025Y61463D01*
X90359Y58797D01*
X87693D01*
X86360Y60130D01*
Y62796D01*
X87693Y64129D01*
X89026D01*
X90359Y62796D01*
Y58797D01*
X408940Y124460D02*
Y132457D01*
X404941D01*
X403608Y131124D01*
Y128459D01*
X404941Y127126D01*
X408940D01*
X406274D02*
X403608Y124460D01*
X400943Y132457D02*
X395611D01*
Y131124D01*
X400943Y125793D01*
Y124460D01*
X312420Y63500D02*
Y71497D01*
X308421D01*
X307088Y70164D01*
Y67499D01*
X308421Y66166D01*
X312420D01*
X309754D02*
X307088Y63500D01*
X304423Y70164D02*
X303090Y71497D01*
X300424D01*
X299091Y70164D01*
Y68832D01*
X300424Y67499D01*
X299091Y66166D01*
Y64833D01*
X300424Y63500D01*
X303090D01*
X304423Y64833D01*
Y66166D01*
X303090Y67499D01*
X304423Y68832D01*
Y70164D01*
X303090Y67499D02*
X300424D01*
X312420Y50800D02*
Y58797D01*
X308421D01*
X307088Y57464D01*
Y54799D01*
X308421Y53466D01*
X312420D01*
X309754D02*
X307088Y50800D01*
X304423Y52133D02*
X303090Y50800D01*
X300424D01*
X299091Y52133D01*
Y57464D01*
X300424Y58797D01*
X303090D01*
X304423Y57464D01*
Y56132D01*
X303090Y54799D01*
X299091D01*
X312420Y38100D02*
Y46097D01*
X308421D01*
X307088Y44764D01*
Y42099D01*
X308421Y40766D01*
X312420D01*
X309754D02*
X307088Y38100D01*
X304423D02*
X301757D01*
X303090D01*
Y46097D01*
X304423Y44764D01*
X297758D02*
X296425Y46097D01*
X293759D01*
X292426Y44764D01*
Y39433D01*
X293759Y38100D01*
X296425D01*
X297758Y39433D01*
Y44764D01*
X312420Y0D02*
Y7997D01*
X308421D01*
X307088Y6665D01*
Y3999D01*
X308421Y2666D01*
X312420D01*
X309754D02*
X307088Y0D01*
X304423D02*
X301757D01*
X303090D01*
Y7997D01*
X304423Y6665D01*
X297758Y0D02*
X295092D01*
X296425D01*
Y7997D01*
X297758Y6665D01*
X312420Y-12700D02*
Y-4703D01*
X308421D01*
X307088Y-6036D01*
Y-8701D01*
X308421Y-10034D01*
X312420D01*
X309754D02*
X307088Y-12700D01*
X304423D02*
X301757D01*
X303090D01*
Y-4703D01*
X304423Y-6036D01*
X292426Y-12700D02*
X297758D01*
X292426Y-7368D01*
Y-6036D01*
X293759Y-4703D01*
X296425D01*
X297758Y-6036D01*
X373380Y170180D02*
Y178177D01*
X369381D01*
X368048Y176845D01*
Y174179D01*
X369381Y172846D01*
X373380D01*
X370714D02*
X368048Y170180D01*
X365383D02*
X362717D01*
X364050D01*
Y178177D01*
X365383Y176845D01*
X358718D02*
X357385Y178177D01*
X354719D01*
X353386Y176845D01*
Y175512D01*
X354719Y174179D01*
X356052D01*
X354719D01*
X353386Y172846D01*
Y171513D01*
X354719Y170180D01*
X357385D01*
X358718Y171513D01*
X373380Y154940D02*
Y162937D01*
X369381D01*
X368048Y161604D01*
Y158939D01*
X369381Y157606D01*
X373380D01*
X370714D02*
X368048Y154940D01*
X365383D02*
X362717D01*
X364050D01*
Y162937D01*
X365383Y161604D01*
X354719Y154940D02*
Y162937D01*
X358718Y158939D01*
X353386D01*
X462280Y317500D02*
X470277D01*
Y321499D01*
X468945Y322832D01*
X466279D01*
X464946Y321499D01*
Y317500D01*
Y320166D02*
X462280Y322832D01*
Y325497D02*
Y328163D01*
Y326830D01*
X470277D01*
X468945Y325497D01*
X470277Y337494D02*
Y332162D01*
X466279D01*
X467612Y334828D01*
Y336161D01*
X466279Y337494D01*
X463613D01*
X462280Y336161D01*
Y333495D01*
X463613Y332162D01*
X-467360Y231140D02*
X-459363D01*
Y235139D01*
X-460695Y236472D01*
X-463361D01*
X-464694Y235139D01*
Y231140D01*
Y233806D02*
X-467360Y236472D01*
Y239137D02*
Y241803D01*
Y240470D01*
X-459363D01*
X-460695Y239137D01*
X-459363Y251134D02*
X-460695Y248468D01*
X-463361Y245802D01*
X-466027D01*
X-467360Y247135D01*
Y249801D01*
X-466027Y251134D01*
X-464694D01*
X-463361Y249801D01*
Y245802D01*
X241300Y-114300D02*
X249297D01*
Y-110301D01*
X247964Y-108968D01*
X245299D01*
X243966Y-110301D01*
Y-114300D01*
Y-111634D02*
X241300Y-108968D01*
Y-106303D02*
Y-103637D01*
Y-104970D01*
X249297D01*
X247964Y-106303D01*
X249297Y-99638D02*
Y-94306D01*
X247964D01*
X242633Y-99638D01*
X241300D01*
X349250Y-114300D02*
X357247D01*
Y-110301D01*
X355914Y-108968D01*
X353249D01*
X351916Y-110301D01*
Y-114300D01*
Y-111634D02*
X349250Y-108968D01*
Y-106303D02*
Y-103637D01*
Y-104970D01*
X357247D01*
X355914Y-106303D01*
Y-99638D02*
X357247Y-98305D01*
Y-95639D01*
X355914Y-94306D01*
X354582D01*
X353249Y-95639D01*
X351916Y-94306D01*
X350583D01*
X349250Y-95639D01*
Y-98305D01*
X350583Y-99638D01*
X351916D01*
X353249Y-98305D01*
X354582Y-99638D01*
X355914D01*
X353249Y-98305D02*
Y-95639D01*
X146050Y-114300D02*
X154047D01*
Y-110301D01*
X152715Y-108968D01*
X150049D01*
X148716Y-110301D01*
Y-114300D01*
Y-111634D02*
X146050Y-108968D01*
Y-106303D02*
Y-103637D01*
Y-104970D01*
X154047D01*
X152715Y-106303D01*
X147383Y-99638D02*
X146050Y-98305D01*
Y-95639D01*
X147383Y-94306D01*
X152715D01*
X154047Y-95639D01*
Y-98305D01*
X152715Y-99638D01*
X151382D01*
X150049Y-98305D01*
Y-94306D01*
X254000Y-114300D02*
X261997D01*
Y-110301D01*
X260665Y-108968D01*
X257999D01*
X256666Y-110301D01*
Y-114300D01*
Y-111634D02*
X254000Y-108968D01*
Y-100971D02*
Y-106303D01*
X259332Y-100971D01*
X260665D01*
X261997Y-102304D01*
Y-104970D01*
X260665Y-106303D01*
Y-98305D02*
X261997Y-96972D01*
Y-94306D01*
X260665Y-92974D01*
X255333D01*
X254000Y-94306D01*
Y-96972D01*
X255333Y-98305D01*
X260665D01*
X146050Y-146050D02*
X154047D01*
Y-142051D01*
X152715Y-140718D01*
X150049D01*
X148716Y-142051D01*
Y-146050D01*
Y-143384D02*
X146050Y-140718D01*
Y-132721D02*
Y-138053D01*
X151382Y-132721D01*
X152715D01*
X154047Y-134054D01*
Y-136720D01*
X152715Y-138053D01*
X146050Y-130055D02*
Y-127389D01*
Y-128722D01*
X154047D01*
X152715Y-130055D01*
X254000Y-146050D02*
X261997D01*
Y-142051D01*
X260665Y-140718D01*
X257999D01*
X256666Y-142051D01*
Y-146050D01*
Y-143384D02*
X254000Y-140718D01*
Y-132721D02*
Y-138053D01*
X259332Y-132721D01*
X260665D01*
X261997Y-134054D01*
Y-136720D01*
X260665Y-138053D01*
X254000Y-124724D02*
Y-130055D01*
X259332Y-124724D01*
X260665D01*
X261997Y-126056D01*
Y-128722D01*
X260665Y-130055D01*
X-330200Y-83820D02*
Y-75823D01*
X-334199D01*
X-335532Y-77155D01*
Y-79821D01*
X-334199Y-81154D01*
X-330200D01*
X-332866D02*
X-335532Y-83820D01*
X-343529D02*
X-338197D01*
X-343529Y-78488D01*
Y-77155D01*
X-342196Y-75823D01*
X-339530D01*
X-338197Y-77155D01*
X-346195D02*
X-347528Y-75823D01*
X-350194D01*
X-351526Y-77155D01*
Y-78488D01*
X-350194Y-79821D01*
X-348861D01*
X-350194D01*
X-351526Y-81154D01*
Y-82487D01*
X-350194Y-83820D01*
X-347528D01*
X-346195Y-82487D01*
X-228600Y-114300D02*
Y-106303D01*
X-232599D01*
X-233932Y-107635D01*
Y-110301D01*
X-232599Y-111634D01*
X-228600D01*
X-231266D02*
X-233932Y-114300D01*
X-241929D02*
X-236597D01*
X-241929Y-108968D01*
Y-107635D01*
X-240596Y-106303D01*
X-237930D01*
X-236597Y-107635D01*
X-248594Y-114300D02*
Y-106303D01*
X-244595Y-110301D01*
X-249926D01*
X-180340Y-71120D02*
Y-63123D01*
X-184339D01*
X-185672Y-64455D01*
Y-67121D01*
X-184339Y-68454D01*
X-180340D01*
X-183006D02*
X-185672Y-71120D01*
X-193669D02*
X-188337D01*
X-193669Y-65788D01*
Y-64455D01*
X-192336Y-63123D01*
X-189670D01*
X-188337Y-64455D01*
X-201666Y-63123D02*
X-196335D01*
Y-67121D01*
X-199001Y-65788D01*
X-200334D01*
X-201666Y-67121D01*
Y-69787D01*
X-200334Y-71120D01*
X-197668D01*
X-196335Y-69787D01*
X439420Y333117D02*
Y326453D01*
X438087Y325120D01*
X435421D01*
X434088Y326453D01*
Y333117D01*
X431423Y331785D02*
X430090Y333117D01*
X427424D01*
X426091Y331785D01*
Y330452D01*
X427424Y329119D01*
X428757D01*
X427424D01*
X426091Y327786D01*
Y326453D01*
X427424Y325120D01*
X430090D01*
X431423Y326453D01*
X-426720Y239137D02*
Y232473D01*
X-428053Y231140D01*
X-430719D01*
X-432052Y232473D01*
Y239137D01*
X-438716Y231140D02*
Y239137D01*
X-434717Y235139D01*
X-440049D01*
X38100Y15617D02*
X32768Y7620D01*
Y15617D02*
X38100Y7620D01*
X30103D02*
X27437D01*
X28770D01*
Y15617D01*
X30103Y14284D01*
X30276Y128183D02*
X24944Y120186D01*
Y128183D02*
X30276Y120186D01*
X16947D02*
X22279D01*
X16947Y125518D01*
Y126851D01*
X18280Y128183D01*
X20946D01*
X22279Y126851D01*
X-403860Y165100D02*
Y173097D01*
X-407859D01*
X-409192Y171765D01*
Y169099D01*
X-407859Y167766D01*
X-403860D01*
X-411857Y163767D02*
X-417189D01*
X-419855Y173097D02*
X-422521D01*
X-421188D01*
Y165100D01*
X-419855D01*
X-422521D01*
X-426519D02*
Y173097D01*
X-431851Y165100D01*
Y173097D01*
X-152652Y258125D02*
X-151319Y259457D01*
X-148653D01*
X-147320Y258125D01*
Y252793D01*
X-148653Y251460D01*
X-151319D01*
X-152652Y252793D01*
X-160649Y259457D02*
X-155317D01*
Y255459D01*
X-157983Y256792D01*
X-159316D01*
X-160649Y255459D01*
Y252793D01*
X-159316Y251460D01*
X-156650D01*
X-155317Y252793D01*
X-163315Y258125D02*
X-164648Y259457D01*
X-167314D01*
X-168646Y258125D01*
Y256792D01*
X-167314Y255459D01*
X-168646Y254126D01*
Y252793D01*
X-167314Y251460D01*
X-164648D01*
X-163315Y252793D01*
Y254126D01*
X-164648Y255459D01*
X-163315Y256792D01*
Y258125D01*
X-164648Y255459D02*
X-167314D01*
X100000Y-210000D02*
Y-204668D01*
X97334Y-202003D01*
X94668Y-204668D01*
Y-210000D01*
Y-206001D01*
X100000D01*
X92003Y-210000D02*
Y-204668D01*
X88004D01*
X86671Y-206001D01*
Y-210000D01*
X82672Y-204668D02*
X80006D01*
X78674Y-206001D01*
Y-210000D01*
X82672D01*
X84005Y-208667D01*
X82672Y-207334D01*
X78674D01*
X76008Y-210000D02*
X73342D01*
X74675D01*
Y-202003D01*
X76008D01*
X68010Y-210000D02*
X65345D01*
X64012Y-208667D01*
Y-206001D01*
X65345Y-204668D01*
X68010D01*
X69343Y-206001D01*
Y-208667D01*
X68010Y-210000D01*
X58680Y-212666D02*
X57347D01*
X56014Y-211333D01*
Y-204668D01*
X60013D01*
X61346Y-206001D01*
Y-208667D01*
X60013Y-210000D01*
X56014D01*
X-345692Y21904D02*
X-344359Y23237D01*
X-341693D01*
X-340360Y21904D01*
Y16573D01*
X-341693Y15240D01*
X-344359D01*
X-345692Y16573D01*
X-353689Y23237D02*
X-348357D01*
Y19239D01*
X-351023Y20572D01*
X-352356D01*
X-353689Y19239D01*
Y16573D01*
X-352356Y15240D01*
X-349690D01*
X-348357Y16573D01*
X-356355Y21904D02*
X-357688Y23237D01*
X-360354D01*
X-361686Y21904D01*
Y16573D01*
X-360354Y15240D01*
X-357688D01*
X-356355Y16573D01*
Y21904D01*
X-337820Y-10160D02*
Y-2163D01*
X-341819D01*
X-343152Y-3496D01*
Y-6161D01*
X-341819Y-7494D01*
X-337820D01*
X-340486D02*
X-343152Y-10160D01*
X-345817Y-3496D02*
X-347150Y-2163D01*
X-349816D01*
X-351149Y-3496D01*
Y-4828D01*
X-349816Y-6161D01*
X-348483D01*
X-349816D01*
X-351149Y-7494D01*
Y-8827D01*
X-349816Y-10160D01*
X-347150D01*
X-345817Y-8827D01*
X-353815Y-3496D02*
X-355148Y-2163D01*
X-357814D01*
X-359146Y-3496D01*
Y-8827D01*
X-357814Y-10160D01*
X-355148D01*
X-353815Y-8827D01*
Y-3496D01*
X-309880Y-10160D02*
Y-2163D01*
X-313879D01*
X-315212Y-3496D01*
Y-6161D01*
X-313879Y-7494D01*
X-309880D01*
X-312546D02*
X-315212Y-10160D01*
X-317877Y-3496D02*
X-319210Y-2163D01*
X-321876D01*
X-323209Y-3496D01*
Y-4828D01*
X-321876Y-6161D01*
X-320543D01*
X-321876D01*
X-323209Y-7494D01*
Y-8827D01*
X-321876Y-10160D01*
X-319210D01*
X-317877Y-8827D01*
X-325875Y-10160D02*
X-328541D01*
X-327208D01*
Y-2163D01*
X-325875Y-3496D01*
X73660Y-91440D02*
X81657D01*
Y-87441D01*
X80324Y-86108D01*
X77659D01*
X76326Y-87441D01*
Y-91440D01*
Y-88774D02*
X73660Y-86108D01*
X80324Y-83443D02*
X81657Y-82110D01*
Y-79444D01*
X80324Y-78111D01*
X78992D01*
X77659Y-79444D01*
Y-80777D01*
Y-79444D01*
X76326Y-78111D01*
X74993D01*
X73660Y-79444D01*
Y-82110D01*
X74993Y-83443D01*
X73660Y-70114D02*
Y-75445D01*
X78992Y-70114D01*
X80324D01*
X81657Y-71446D01*
Y-74112D01*
X80324Y-75445D01*
X60960Y-78740D02*
X68957D01*
Y-74741D01*
X67625Y-73408D01*
X64959D01*
X63626Y-74741D01*
Y-78740D01*
Y-76074D02*
X60960Y-73408D01*
X67625Y-70743D02*
X68957Y-69410D01*
Y-66744D01*
X67625Y-65411D01*
X66292D01*
X64959Y-66744D01*
Y-68077D01*
Y-66744D01*
X63626Y-65411D01*
X62293D01*
X60960Y-66744D01*
Y-69410D01*
X62293Y-70743D01*
X67625Y-62745D02*
X68957Y-61412D01*
Y-58746D01*
X67625Y-57414D01*
X66292D01*
X64959Y-58746D01*
Y-60079D01*
Y-58746D01*
X63626Y-57414D01*
X62293D01*
X60960Y-58746D01*
Y-61412D01*
X62293Y-62745D01*
X48260Y-78740D02*
X56257D01*
Y-74741D01*
X54925Y-73408D01*
X52259D01*
X50926Y-74741D01*
Y-78740D01*
Y-76074D02*
X48260Y-73408D01*
X54925Y-70743D02*
X56257Y-69410D01*
Y-66744D01*
X54925Y-65411D01*
X53592D01*
X52259Y-66744D01*
Y-68077D01*
Y-66744D01*
X50926Y-65411D01*
X49593D01*
X48260Y-66744D01*
Y-69410D01*
X49593Y-70743D01*
X48260Y-58746D02*
X56257D01*
X52259Y-62745D01*
Y-57414D01*
X35560Y-91440D02*
X43557D01*
Y-87441D01*
X42224Y-86108D01*
X39559D01*
X38226Y-87441D01*
Y-91440D01*
Y-88774D02*
X35560Y-86108D01*
X42224Y-83443D02*
X43557Y-82110D01*
Y-79444D01*
X42224Y-78111D01*
X40892D01*
X39559Y-79444D01*
Y-80777D01*
Y-79444D01*
X38226Y-78111D01*
X36893D01*
X35560Y-79444D01*
Y-82110D01*
X36893Y-83443D01*
X43557Y-70114D02*
Y-75445D01*
X39559D01*
X40892Y-72779D01*
Y-71446D01*
X39559Y-70114D01*
X36893D01*
X35560Y-71446D01*
Y-74112D01*
X36893Y-75445D01*
X6413Y-238508D02*
X11745D01*
X13077Y-239841D01*
Y-242507D01*
X11745Y-243840D01*
X6413D01*
X5080Y-242507D01*
Y-239841D01*
X7746Y-241174D02*
X5080Y-238508D01*
Y-239841D02*
X6413Y-238508D01*
X5080Y-231844D02*
X13077D01*
X9079Y-235843D01*
Y-230511D01*
D132*
X172450Y-59750D02*
G03*
X172450Y-59750I-1250J0D01*
G01*
X279950D02*
G03*
X279950Y-59750I-1250J0D01*
G01*
X482000Y154250D02*
G03*
X482000Y154250I-1250J0D01*
G01*
X447040Y192850D02*
G03*
X447040Y192850I-1250J0D01*
G01*
X419500Y326750D02*
G03*
X419500Y326750I-1250J0D01*
G01*
X-417000Y237500D02*
G03*
X-417000Y237500I-1250J0D01*
G01*
X5750Y365500D02*
G03*
X5750Y365500I-1250J0D01*
G01*
X45750Y144500D02*
G03*
X45750Y144500I-1250J0D01*
G01*
X-134750Y234000D02*
G03*
X-134750Y234000I-1250J0D01*
G01*
X-276250Y108750D02*
G03*
X-276250Y108750I-1250J0D01*
G01*
X-360500Y148750D02*
G03*
X-360500Y148750I-1250J0D01*
G01*
X-293250Y-122000D02*
G03*
X-293250Y-122000I-1250J0D01*
G01*
X-206500Y-100500D02*
G03*
X-206500Y-100500I-1250J0D01*
G01*
X-29450Y-242000D02*
G03*
X-29450Y-242000I-1250J0D01*
G01*
D133*
X425750Y170750D02*
G03*
X425750Y170750I-1000J0D01*
G01*
Y161750D02*
G03*
X425750Y161750I-1000J0D01*
G01*
X173750Y-74750D02*
X223750D01*
X173750Y-92750D02*
X223750D01*
X173750D02*
Y-74750D01*
X223750Y-92750D02*
Y-74750D01*
X281250D02*
X331250D01*
X281250Y-92750D02*
X331250D01*
X281250D02*
Y-74750D01*
X331250Y-92750D02*
Y-74750D01*
X477750Y161750D02*
Y171750D01*
X447750Y161750D02*
Y171750D01*
Y161750D02*
X477750D01*
X447750Y171750D02*
X477750D01*
X443290Y201850D02*
Y207850D01*
X412290Y201850D02*
Y207850D01*
Y201850D02*
X443290D01*
X412290Y207850D02*
X443290D01*
X390000Y149500D02*
X397000D01*
X390000Y138500D02*
X397000D01*
X367750Y228750D02*
X382750D01*
Y335750D01*
X367750D02*
X382750D01*
X-382750Y335500D02*
X-367750D01*
X-382750Y228500D02*
Y335500D01*
Y228500D02*
X-367750D01*
X-10500Y332000D02*
Y363000D01*
X-4500Y332000D02*
Y363000D01*
X-10500Y332000D02*
X-4500D01*
X-10500Y363000D02*
X-4500D01*
X-42500Y157500D02*
X42500D01*
X-42500Y242500D02*
X42500D01*
Y157500D02*
Y242500D01*
X-42500Y157500D02*
Y242500D01*
X-127000Y236500D02*
X-121000D01*
X-127000Y267500D02*
X-121000D01*
X-127000Y236500D02*
Y267500D01*
X-121000Y236500D02*
Y267500D01*
X-290000Y39250D02*
Y105250D01*
X-322000Y39250D02*
Y105250D01*
X-290000D01*
X-322000Y39250D02*
X-290000D01*
X-350250Y151000D02*
X-345250D01*
Y159750D01*
X-350250Y182000D02*
X-345250D01*
Y173250D02*
Y182000D01*
X-297000Y-113000D02*
Y-107000D01*
X-328000Y-113000D02*
Y-107000D01*
Y-113000D02*
X-297000D01*
X-328000Y-107000D02*
X-297000D01*
X-183250Y-117000D02*
X-174500D01*
Y-112000D01*
X-205500Y-117000D02*
X-196750D01*
X-205500D02*
Y-112000D01*
X-28200Y-257000D02*
X2800D01*
X-28200Y-251000D02*
X2800D01*
Y-257000D02*
Y-251000D01*
X-28200Y-257000D02*
Y-251000D01*
D134*
X53000Y378750D02*
G03*
X53000Y378750I-500J0D01*
G01*
X-358250Y84000D02*
G03*
X-358250Y84000I-500J0D01*
G01*
Y106750D02*
G03*
X-358250Y106750I-500J0D01*
G01*
Y129500D02*
G03*
X-358250Y129500I-500J0D01*
G01*
D135*
X35500Y167500D02*
G03*
X35500Y167500I-3000J0D01*
G01*
M02*
