G04 Layer_Color=2752767*
%FSLAX44Y44*%
%MOMM*%
G71*
G01*
G75*
%ADD136C,0.0508*%
%ADD137C,0.0677*%
D136*
X239268Y315468D02*
Y319532D01*
X243332D01*
Y315468D01*
X239268D01*
X213868D02*
Y319532D01*
X217932D01*
Y315468D01*
X213868D01*
X188468D02*
Y319532D01*
X192532D01*
Y315468D01*
X188468D01*
X-192532D02*
Y319532D01*
X-188468D01*
Y315468D01*
X-192532D01*
X-217932D02*
Y319532D01*
X-213868D01*
Y315468D01*
X-217932D01*
X-243332D02*
Y319532D01*
X-239268D01*
Y315468D01*
X-243332D01*
Y-319532D02*
Y-315468D01*
X-239268D01*
Y-319532D01*
X-243332D01*
X-217932D02*
Y-315468D01*
X-213868D01*
Y-319532D01*
X-217932D01*
X-192532D02*
Y-315468D01*
X-188468D01*
Y-319532D01*
X-192532D01*
X-167132D02*
Y-315468D01*
X-163068D01*
Y-319532D01*
X-167132D01*
X-141732D02*
Y-315468D01*
X-137668D01*
Y-319532D01*
X-141732D01*
X-116332D02*
Y-315468D01*
X-112268D01*
Y-319532D01*
X-116332D01*
X-90932D02*
Y-315468D01*
X-86868D01*
Y-319532D01*
X-90932D01*
X-65532D02*
Y-315468D01*
X-61468D01*
Y-319532D01*
X-65532D01*
X-40132D02*
Y-315468D01*
X-36068D01*
Y-319532D01*
X-40132D01*
X-14732D02*
Y-315468D01*
X-10668D01*
Y-319532D01*
X-14732D01*
X10668D02*
Y-315468D01*
X14732D01*
Y-319532D01*
X10668D01*
X36068D02*
Y-315468D01*
X40132D01*
Y-319532D01*
X36068D01*
X61468D02*
Y-315468D01*
X65532D01*
Y-319532D01*
X61468D01*
X86868D02*
Y-315468D01*
X90932D01*
Y-319532D01*
X86868D01*
X112268D02*
Y-315468D01*
X116332D01*
Y-319532D01*
X112268D01*
X137668D02*
Y-315468D01*
X141732D01*
Y-319532D01*
X137668D01*
X163068D02*
Y-315468D01*
X167132D01*
Y-319532D01*
X163068D01*
X188468D02*
Y-315468D01*
X192532D01*
Y-319532D01*
X188468D01*
X213868D02*
Y-315468D01*
X217932D01*
Y-319532D01*
X213868D01*
X239268D02*
Y-315468D01*
X243332D01*
Y-319532D01*
X239268D01*
X277000Y-156032D02*
X274968Y-151968D01*
X279032D01*
X277000Y-156032D01*
X335500D02*
X333468Y-151968D01*
X337532D01*
X335500Y-156032D01*
X169500D02*
X167468Y-151968D01*
X171532D01*
X169500Y-156032D01*
X228000D02*
X225968Y-151968D01*
X230032D01*
X228000Y-156032D01*
X-317000D02*
X-319032Y-151968D01*
X-314968D01*
X-317000Y-156032D01*
X-400500D02*
X-402532Y-151968D01*
X-398468D01*
X-400500Y-156032D01*
X-268000D02*
X-270032Y-151968D01*
X-265968D01*
X-268000Y-156032D01*
X-197000D02*
X-199032Y-151968D01*
X-194968D01*
X-197000Y-156032D01*
X-64500D02*
X-66532Y-151968D01*
X-62468D01*
X-64500Y-156032D01*
X-148000D02*
X-150032Y-151968D01*
X-145968D01*
X-148000Y-156032D01*
X495250Y186468D02*
X496266Y187484D01*
X497282D01*
X496266Y188500D01*
X497282Y189516D01*
X496266D01*
X495250Y190532D01*
X494234Y189516D01*
X493218D01*
X494234Y188500D01*
X493218Y187484D01*
X494234D01*
X495250Y186468D01*
Y136468D02*
X496266Y137484D01*
X497282D01*
X496266Y138500D01*
X497282Y139516D01*
X496266D01*
X495250Y140532D01*
X494234Y139516D01*
X493218D01*
X494234Y138500D01*
X493218Y137484D01*
X494234D01*
X495250Y136468D01*
X520218Y126468D02*
X521234Y128500D01*
X520218Y130532D01*
X522250Y129516D01*
X524282Y130532D01*
X523266Y128500D01*
X524282Y126468D01*
X522250Y127484D01*
X520218Y126468D01*
Y196468D02*
X521234Y198500D01*
X520218Y200532D01*
X522250Y199516D01*
X524282Y200532D01*
X523266Y198500D01*
X524282Y196468D01*
X522250Y197484D01*
X520218Y196468D01*
X146550Y238118D02*
X144518Y242182D01*
X148582D01*
X146550Y238118D01*
Y154618D02*
X144518Y158682D01*
X148582D01*
X146550Y154618D01*
X17000Y-156032D02*
X14968Y-151968D01*
X19032D01*
X17000Y-156032D01*
X88000D02*
X85968Y-151968D01*
X90032D01*
X88000Y-156032D01*
X-430000Y147968D02*
X-432032Y152032D01*
X-427968D01*
X-430000Y147968D01*
Y76968D02*
X-432032Y81032D01*
X-427968D01*
X-430000Y76968D01*
X-21016Y386484D02*
Y385468D01*
X-18984D01*
Y386484D01*
X-17968D01*
Y388516D01*
X-18984D01*
Y389532D01*
X-21016D01*
Y388516D01*
X-22032D01*
Y386484D01*
X-21016D01*
X-43516Y331484D02*
Y330468D01*
X-41484D01*
Y331484D01*
X-40468D01*
Y333516D01*
X-41484D01*
Y334532D01*
X-43516D01*
Y333516D01*
X-44532D01*
Y331484D01*
X-43516D01*
X66484Y323984D02*
Y322968D01*
X68516D01*
Y323984D01*
X69532D01*
Y326016D01*
X68516D01*
Y327032D01*
X66484D01*
Y326016D01*
X65468D01*
Y323984D01*
X66484D01*
X-8516Y346484D02*
Y345468D01*
X-6484D01*
Y346484D01*
X-5468D01*
Y348516D01*
X-6484D01*
Y349532D01*
X-8516D01*
Y348516D01*
X-9532D01*
Y346484D01*
X-8516D01*
X502984Y316234D02*
Y315218D01*
X505016D01*
Y316234D01*
X506032D01*
Y318266D01*
X505016D01*
Y319282D01*
X502984D01*
Y318266D01*
X501968D01*
Y316234D01*
X502984D01*
X516484Y-1516D02*
Y-2532D01*
X518516D01*
Y-1516D01*
X519532D01*
Y516D01*
X518516D01*
Y1532D01*
X516484D01*
Y516D01*
X515468D01*
Y-1516D01*
X516484D01*
X484484D02*
Y-2532D01*
X486516D01*
Y-1516D01*
X487532D01*
Y516D01*
X486516D01*
Y1532D01*
X484484D01*
Y516D01*
X483468D01*
Y-1516D01*
X484484D01*
X-503016Y-1016D02*
Y-2032D01*
X-500984D01*
Y-1016D01*
X-499968D01*
Y1016D01*
X-500984D01*
Y2032D01*
X-503016D01*
Y1016D01*
X-504032D01*
Y-1016D01*
X-503016D01*
X-434016Y125984D02*
Y124968D01*
X-431984D01*
Y125984D01*
X-430968D01*
Y128016D01*
X-431984D01*
Y129032D01*
X-434016D01*
Y128016D01*
X-435032D01*
Y125984D01*
X-434016D01*
X-451016Y348984D02*
Y347968D01*
X-448984D01*
Y348984D01*
X-447968D01*
Y351016D01*
X-448984D01*
Y352032D01*
X-451016D01*
Y351016D01*
X-452032D01*
Y348984D01*
X-451016D01*
X401484Y330734D02*
Y329718D01*
X403516D01*
Y330734D01*
X404532D01*
Y332766D01*
X403516D01*
Y333782D01*
X401484D01*
Y332766D01*
X400468D01*
Y330734D01*
X401484D01*
X450234Y339484D02*
Y338468D01*
X452266D01*
Y339484D01*
X453282D01*
Y341516D01*
X452266D01*
Y342532D01*
X450234D01*
Y341516D01*
X449218D01*
Y339484D01*
X450234D01*
X-403516Y231484D02*
Y230468D01*
X-401484D01*
Y231484D01*
X-400468D01*
Y233516D01*
X-401484D01*
Y234532D01*
X-403516D01*
Y233516D01*
X-404532D01*
Y231484D01*
X-403516D01*
X-452266Y222734D02*
Y221718D01*
X-450234D01*
Y222734D01*
X-449218D01*
Y224766D01*
X-450234D01*
Y225782D01*
X-452266D01*
Y224766D01*
X-453282D01*
Y222734D01*
X-452266D01*
X462234Y241234D02*
Y240218D01*
X464266D01*
Y241234D01*
X465282D01*
Y243266D01*
X464266D01*
Y244282D01*
X462234D01*
Y243266D01*
X461218D01*
Y241234D01*
X462234D01*
X-289266Y310984D02*
Y309968D01*
X-287234D01*
Y310984D01*
X-286218D01*
Y313016D01*
X-287234D01*
Y314032D01*
X-289266D01*
Y313016D01*
X-290282D01*
Y310984D01*
X-289266D01*
X477484Y130084D02*
Y129068D01*
X479516D01*
Y130084D01*
X480532D01*
Y132116D01*
X479516D01*
Y133132D01*
X477484D01*
Y132116D01*
X476468D01*
Y130084D01*
X477484D01*
X490484Y258734D02*
Y257718D01*
X492516D01*
Y258734D01*
X493532D01*
Y260766D01*
X492516D01*
Y261782D01*
X490484D01*
Y260766D01*
X489468D01*
Y258734D01*
X490484D01*
Y276234D02*
Y275218D01*
X492516D01*
Y276234D01*
X493532D01*
Y278266D01*
X492516D01*
Y279282D01*
X490484D01*
Y278266D01*
X489468D01*
Y276234D01*
X490484D01*
Y316234D02*
Y315218D01*
X492516D01*
Y316234D01*
X493532D01*
Y318266D01*
X492516D01*
Y319282D01*
X490484D01*
Y318266D01*
X489468D01*
Y316234D01*
X490484D01*
X502984Y241234D02*
Y240218D01*
X505016D01*
Y241234D01*
X506032D01*
Y243266D01*
X505016D01*
Y244282D01*
X502984D01*
Y243266D01*
X501968D01*
Y241234D01*
X502984D01*
X-505016Y320984D02*
Y319968D01*
X-502984D01*
Y320984D01*
X-501968D01*
Y323016D01*
X-502984D01*
Y324032D01*
X-505016D01*
Y323016D01*
X-506032D01*
Y320984D01*
X-505016D01*
Y245984D02*
Y244968D01*
X-502984D01*
Y245984D01*
X-501968D01*
Y248016D01*
X-502984D01*
Y249032D01*
X-505016D01*
Y248016D01*
X-506032D01*
Y245984D01*
X-505016D01*
X-492516D02*
Y244968D01*
X-490484D01*
Y245984D01*
X-489468D01*
Y248016D01*
X-490484D01*
Y249032D01*
X-492516D01*
Y248016D01*
X-493532D01*
Y245984D01*
X-492516D01*
Y285984D02*
Y284968D01*
X-490484D01*
Y285984D01*
X-489468D01*
Y288016D01*
X-490484D01*
Y289032D01*
X-492516D01*
Y288016D01*
X-493532D01*
Y285984D01*
X-492516D01*
Y303484D02*
Y302468D01*
X-490484D01*
Y303484D01*
X-489468D01*
Y305516D01*
X-490484D01*
Y306532D01*
X-492516D01*
Y305516D01*
X-493532D01*
Y303484D01*
X-492516D01*
X471484Y429484D02*
Y428468D01*
X473516D01*
Y429484D01*
X474532D01*
Y431516D01*
X473516D01*
Y432532D01*
X471484D01*
Y431516D01*
X470468D01*
Y429484D01*
X471484D01*
X503484D02*
Y428468D01*
X505516D01*
Y429484D01*
X506532D01*
Y431516D01*
X505516D01*
Y432532D01*
X503484D01*
Y431516D01*
X502468D01*
Y429484D01*
X503484D01*
X411484D02*
Y428468D01*
X413516D01*
Y429484D01*
X414532D01*
Y431516D01*
X413516D01*
Y432532D01*
X411484D01*
Y431516D01*
X410468D01*
Y429484D01*
X411484D01*
X443484D02*
Y428468D01*
X445516D01*
Y429484D01*
X446532D01*
Y431516D01*
X445516D01*
Y432532D01*
X443484D01*
Y431516D01*
X442468D01*
Y429484D01*
X443484D01*
X351484D02*
Y428468D01*
X353516D01*
Y429484D01*
X354532D01*
Y431516D01*
X353516D01*
Y432532D01*
X351484D01*
Y431516D01*
X350468D01*
Y429484D01*
X351484D01*
X383484D02*
Y428468D01*
X385516D01*
Y429484D01*
X386532D01*
Y431516D01*
X385516D01*
Y432532D01*
X383484D01*
Y431516D01*
X382468D01*
Y429484D01*
X383484D01*
X291484D02*
Y428468D01*
X293516D01*
Y429484D01*
X294532D01*
Y431516D01*
X293516D01*
Y432532D01*
X291484D01*
Y431516D01*
X290468D01*
Y429484D01*
X291484D01*
X323484D02*
Y428468D01*
X325516D01*
Y429484D01*
X326532D01*
Y431516D01*
X325516D01*
Y432532D01*
X323484D01*
Y431516D01*
X322468D01*
Y429484D01*
X323484D01*
X231484D02*
Y428468D01*
X233516D01*
Y429484D01*
X234532D01*
Y431516D01*
X233516D01*
Y432532D01*
X231484D01*
Y431516D01*
X230468D01*
Y429484D01*
X231484D01*
X263484D02*
Y428468D01*
X265516D01*
Y429484D01*
X266532D01*
Y431516D01*
X265516D01*
Y432532D01*
X263484D01*
Y431516D01*
X262468D01*
Y429484D01*
X263484D01*
X171484D02*
Y428468D01*
X173516D01*
Y429484D01*
X174532D01*
Y431516D01*
X173516D01*
Y432532D01*
X171484D01*
Y431516D01*
X170468D01*
Y429484D01*
X171484D01*
X203484D02*
Y428468D01*
X205516D01*
Y429484D01*
X206532D01*
Y431516D01*
X205516D01*
Y432532D01*
X203484D01*
Y431516D01*
X202468D01*
Y429484D01*
X203484D01*
X111484D02*
Y428468D01*
X113516D01*
Y429484D01*
X114532D01*
Y431516D01*
X113516D01*
Y432532D01*
X111484D01*
Y431516D01*
X110468D01*
Y429484D01*
X111484D01*
X143484D02*
Y428468D01*
X145516D01*
Y429484D01*
X146532D01*
Y431516D01*
X145516D01*
Y432532D01*
X143484D01*
Y431516D01*
X142468D01*
Y429484D01*
X143484D01*
X51484D02*
Y428468D01*
X53516D01*
Y429484D01*
X54532D01*
Y431516D01*
X53516D01*
Y432532D01*
X51484D01*
Y431516D01*
X50468D01*
Y429484D01*
X51484D01*
X83484D02*
Y428468D01*
X85516D01*
Y429484D01*
X86532D01*
Y431516D01*
X85516D01*
Y432532D01*
X83484D01*
Y431516D01*
X82468D01*
Y429484D01*
X83484D01*
X-8516D02*
Y428468D01*
X-6484D01*
Y429484D01*
X-5468D01*
Y431516D01*
X-6484D01*
Y432532D01*
X-8516D01*
Y431516D01*
X-9532D01*
Y429484D01*
X-8516D01*
X23484D02*
Y428468D01*
X25516D01*
Y429484D01*
X26532D01*
Y431516D01*
X25516D01*
Y432532D01*
X23484D01*
Y431516D01*
X22468D01*
Y429484D01*
X23484D01*
X-68516D02*
Y428468D01*
X-66484D01*
Y429484D01*
X-65468D01*
Y431516D01*
X-66484D01*
Y432532D01*
X-68516D01*
Y431516D01*
X-69532D01*
Y429484D01*
X-68516D01*
X-36516D02*
Y428468D01*
X-34484D01*
Y429484D01*
X-33468D01*
Y431516D01*
X-34484D01*
Y432532D01*
X-36516D01*
Y431516D01*
X-37532D01*
Y429484D01*
X-36516D01*
X-128516D02*
Y428468D01*
X-126484D01*
Y429484D01*
X-125468D01*
Y431516D01*
X-126484D01*
Y432532D01*
X-128516D01*
Y431516D01*
X-129532D01*
Y429484D01*
X-128516D01*
X-96516D02*
Y428468D01*
X-94484D01*
Y429484D01*
X-93468D01*
Y431516D01*
X-94484D01*
Y432532D01*
X-96516D01*
Y431516D01*
X-97532D01*
Y429484D01*
X-96516D01*
X-188516D02*
Y428468D01*
X-186484D01*
Y429484D01*
X-185468D01*
Y431516D01*
X-186484D01*
Y432532D01*
X-188516D01*
Y431516D01*
X-189532D01*
Y429484D01*
X-188516D01*
X-156516D02*
Y428468D01*
X-154484D01*
Y429484D01*
X-153468D01*
Y431516D01*
X-154484D01*
Y432532D01*
X-156516D01*
Y431516D01*
X-157532D01*
Y429484D01*
X-156516D01*
X-248516D02*
Y428468D01*
X-246484D01*
Y429484D01*
X-245468D01*
Y431516D01*
X-246484D01*
Y432532D01*
X-248516D01*
Y431516D01*
X-249532D01*
Y429484D01*
X-248516D01*
X-216516D02*
Y428468D01*
X-214484D01*
Y429484D01*
X-213468D01*
Y431516D01*
X-214484D01*
Y432532D01*
X-216516D01*
Y431516D01*
X-217532D01*
Y429484D01*
X-216516D01*
X-308516D02*
Y428468D01*
X-306484D01*
Y429484D01*
X-305468D01*
Y431516D01*
X-306484D01*
Y432532D01*
X-308516D01*
Y431516D01*
X-309532D01*
Y429484D01*
X-308516D01*
X-276516D02*
Y428468D01*
X-274484D01*
Y429484D01*
X-273468D01*
Y431516D01*
X-274484D01*
Y432532D01*
X-276516D01*
Y431516D01*
X-277532D01*
Y429484D01*
X-276516D01*
X-368516D02*
Y428468D01*
X-366484D01*
Y429484D01*
X-365468D01*
Y431516D01*
X-366484D01*
Y432532D01*
X-368516D01*
Y431516D01*
X-369532D01*
Y429484D01*
X-368516D01*
X-336516D02*
Y428468D01*
X-334484D01*
Y429484D01*
X-333468D01*
Y431516D01*
X-334484D01*
Y432532D01*
X-336516D01*
Y431516D01*
X-337532D01*
Y429484D01*
X-336516D01*
X-428516D02*
Y428468D01*
X-426484D01*
Y429484D01*
X-425468D01*
Y431516D01*
X-426484D01*
Y432532D01*
X-428516D01*
Y431516D01*
X-429532D01*
Y429484D01*
X-428516D01*
X-396516D02*
Y428468D01*
X-394484D01*
Y429484D01*
X-393468D01*
Y431516D01*
X-394484D01*
Y432532D01*
X-396516D01*
Y431516D01*
X-397532D01*
Y429484D01*
X-396516D01*
X-456516D02*
Y428468D01*
X-454484D01*
Y429484D01*
X-453468D01*
Y431516D01*
X-454484D01*
Y432532D01*
X-456516D01*
Y431516D01*
X-457532D01*
Y429484D01*
X-456516D01*
X-488516D02*
Y428468D01*
X-486484D01*
Y429484D01*
X-485468D01*
Y431516D01*
X-486484D01*
Y432532D01*
X-488516D01*
Y431516D01*
X-489532D01*
Y429484D01*
X-488516D01*
X367484Y115584D02*
Y114568D01*
X369516D01*
Y115584D01*
X370532D01*
Y117616D01*
X369516D01*
Y118632D01*
X367484D01*
Y117616D01*
X366468D01*
Y115584D01*
X367484D01*
X516984D02*
Y114568D01*
X519016D01*
Y115584D01*
X520032D01*
Y117616D01*
X519016D01*
Y118632D01*
X516984D01*
Y117616D01*
X515968D01*
Y115584D01*
X516984D01*
Y-44316D02*
Y-45332D01*
X519016D01*
Y-44316D01*
X520032D01*
Y-42284D01*
X519016D01*
Y-41268D01*
X516984D01*
Y-42284D01*
X515968D01*
Y-44316D01*
X516984D01*
X-16016Y113984D02*
Y112968D01*
X-13984D01*
Y113984D01*
X-12968D01*
Y116016D01*
X-13984D01*
Y117032D01*
X-16016D01*
Y116016D01*
X-17032D01*
Y113984D01*
X-16016D01*
X8984Y216484D02*
Y215468D01*
X11016D01*
Y216484D01*
X12032D01*
Y218516D01*
X11016D01*
Y219532D01*
X8984D01*
Y218516D01*
X7968D01*
Y216484D01*
X8984D01*
X452174Y219074D02*
Y218058D01*
X454206D01*
Y219074D01*
X455222D01*
Y221106D01*
X454206D01*
Y222122D01*
X452174D01*
Y221106D01*
X451158D01*
Y219074D01*
X452174D01*
X447234Y241234D02*
Y240218D01*
X449266D01*
Y241234D01*
X450282D01*
Y243266D01*
X449266D01*
Y244282D01*
X447234D01*
Y243266D01*
X446218D01*
Y241234D01*
X447234D01*
X-236016Y-96016D02*
Y-97032D01*
X-233984D01*
Y-96016D01*
X-232968D01*
Y-93984D01*
X-233984D01*
Y-92968D01*
X-236016D01*
Y-93984D01*
X-237032D01*
Y-96016D01*
X-236016D01*
X-223516Y-181016D02*
Y-182032D01*
X-221484D01*
Y-181016D01*
X-220468D01*
Y-178984D01*
X-221484D01*
Y-177968D01*
X-223516D01*
Y-178984D01*
X-224532D01*
Y-181016D01*
X-223516D01*
X-291016Y-98516D02*
Y-99532D01*
X-288984D01*
Y-98516D01*
X-287968D01*
Y-96484D01*
X-288984D01*
Y-95468D01*
X-291016D01*
Y-96484D01*
X-292032D01*
Y-98516D01*
X-291016D01*
X-76016Y-116016D02*
Y-117032D01*
X-73984D01*
Y-116016D01*
X-72968D01*
Y-113984D01*
X-73984D01*
Y-112968D01*
X-76016D01*
Y-113984D01*
X-77032D01*
Y-116016D01*
X-76016D01*
X-153516Y226484D02*
Y225468D01*
X-151484D01*
Y226484D01*
X-150468D01*
Y228516D01*
X-151484D01*
Y229532D01*
X-153516D01*
Y228516D01*
X-154532D01*
Y226484D01*
X-153516D01*
X-31016D02*
Y225468D01*
X-28984D01*
Y226484D01*
X-27968D01*
Y228516D01*
X-28984D01*
Y229532D01*
X-31016D01*
Y228516D01*
X-32032D01*
Y226484D01*
X-31016D01*
X-123516Y216484D02*
Y215468D01*
X-121484D01*
Y216484D01*
X-120468D01*
Y218516D01*
X-121484D01*
Y219532D01*
X-123516D01*
Y218516D01*
X-124532D01*
Y216484D01*
X-123516D01*
X-111016Y228984D02*
Y227968D01*
X-108984D01*
Y228984D01*
X-107968D01*
Y231016D01*
X-108984D01*
Y232032D01*
X-111016D01*
Y231016D01*
X-112032D01*
Y228984D01*
X-111016D01*
X-6016Y206484D02*
Y205468D01*
X-3984D01*
Y206484D01*
X-2968D01*
Y208516D01*
X-3984D01*
Y209532D01*
X-6016D01*
Y208516D01*
X-7032D01*
Y206484D01*
X-6016D01*
X-296016Y-81016D02*
Y-82032D01*
X-293984D01*
Y-81016D01*
X-292968D01*
Y-78984D01*
X-293984D01*
Y-77968D01*
X-296016D01*
Y-78984D01*
X-297032D01*
Y-81016D01*
X-296016D01*
X-313516Y-111016D02*
Y-112032D01*
X-311484D01*
Y-111016D01*
X-310468D01*
Y-108984D01*
X-311484D01*
Y-107968D01*
X-313516D01*
Y-108984D01*
X-314532D01*
Y-111016D01*
X-313516D01*
X-173516Y-81016D02*
Y-82032D01*
X-171484D01*
Y-81016D01*
X-170468D01*
Y-78984D01*
X-171484D01*
Y-77968D01*
X-173516D01*
Y-78984D01*
X-174532D01*
Y-81016D01*
X-173516D01*
X456484Y-48516D02*
Y-49532D01*
X458516D01*
Y-48516D01*
X459532D01*
Y-46484D01*
X458516D01*
Y-45468D01*
X456484D01*
Y-46484D01*
X455468D01*
Y-48516D01*
X456484D01*
X382484D02*
Y-49532D01*
X384516D01*
Y-48516D01*
X385532D01*
Y-46484D01*
X384516D01*
Y-45468D01*
X382484D01*
Y-46484D01*
X381468D01*
Y-48516D01*
X382484D01*
X351484Y-27416D02*
Y-28432D01*
X353516D01*
Y-27416D01*
X354532D01*
Y-25384D01*
X353516D01*
Y-24368D01*
X351484D01*
Y-25384D01*
X350468D01*
Y-27416D01*
X351484D01*
X286484Y-126016D02*
Y-127032D01*
X288516D01*
Y-126016D01*
X289532D01*
Y-123984D01*
X288516D01*
Y-122968D01*
X286484D01*
Y-123984D01*
X285468D01*
Y-126016D01*
X286484D01*
X323984D02*
Y-127032D01*
X326016D01*
Y-126016D01*
X327032D01*
Y-123984D01*
X326016D01*
Y-122968D01*
X323984D01*
Y-123984D01*
X322968D01*
Y-126016D01*
X323984D01*
X178984D02*
Y-127032D01*
X181016D01*
Y-126016D01*
X182032D01*
Y-123984D01*
X181016D01*
Y-122968D01*
X178984D01*
Y-123984D01*
X177968D01*
Y-126016D01*
X178984D01*
X216484D02*
Y-127032D01*
X218516D01*
Y-126016D01*
X219532D01*
Y-123984D01*
X218516D01*
Y-122968D01*
X216484D01*
Y-123984D01*
X215468D01*
Y-126016D01*
X216484D01*
X-391016D02*
Y-127032D01*
X-388984D01*
Y-126016D01*
X-387968D01*
Y-123984D01*
X-388984D01*
Y-122968D01*
X-391016D01*
Y-123984D01*
X-392032D01*
Y-126016D01*
X-391016D01*
X-138516D02*
Y-127032D01*
X-136484D01*
Y-126016D01*
X-135468D01*
Y-123984D01*
X-136484D01*
Y-122968D01*
X-138516D01*
Y-123984D01*
X-139532D01*
Y-126016D01*
X-138516D01*
X-258516D02*
Y-127032D01*
X-256484D01*
Y-126016D01*
X-255468D01*
Y-123984D01*
X-256484D01*
Y-122968D01*
X-258516D01*
Y-123984D01*
X-259532D01*
Y-126016D01*
X-258516D01*
X-181016Y-114516D02*
Y-115532D01*
X-178984D01*
Y-114516D01*
X-177968D01*
Y-112484D01*
X-178984D01*
Y-111468D01*
X-181016D01*
Y-112484D01*
X-182032D01*
Y-114516D01*
X-181016D01*
X-331016Y126984D02*
Y125968D01*
X-328984D01*
Y126984D01*
X-327968D01*
Y129016D01*
X-328984D01*
Y130032D01*
X-331016D01*
Y129016D01*
X-332032D01*
Y126984D01*
X-331016D01*
X-219516Y34734D02*
Y33718D01*
X-217484D01*
Y34734D01*
X-216468D01*
Y36766D01*
X-217484D01*
Y37782D01*
X-219516D01*
Y36766D01*
X-220532D01*
Y34734D01*
X-219516D01*
Y68734D02*
Y67718D01*
X-217484D01*
Y68734D01*
X-216468D01*
Y70766D01*
X-217484D01*
Y71782D01*
X-219516D01*
Y70766D01*
X-220532D01*
Y68734D01*
X-219516D01*
X-408016Y153984D02*
Y152968D01*
X-405984D01*
Y153984D01*
X-404968D01*
Y156016D01*
X-405984D01*
Y157032D01*
X-408016D01*
Y156016D01*
X-409032D01*
Y153984D01*
X-408016D01*
X-434016Y113484D02*
Y112468D01*
X-431984D01*
Y113484D01*
X-430968D01*
Y115516D01*
X-431984D01*
Y116532D01*
X-434016D01*
Y115516D01*
X-435032D01*
Y113484D01*
X-434016D01*
X85814Y188594D02*
Y187578D01*
X87846D01*
Y188594D01*
X88862D01*
Y190626D01*
X87846D01*
Y191642D01*
X85814D01*
Y190626D01*
X84798D01*
Y188594D01*
X85814D01*
Y213994D02*
Y212978D01*
X87846D01*
Y213994D01*
X88862D01*
Y216026D01*
X87846D01*
Y217042D01*
X85814D01*
Y216026D01*
X84798D01*
Y213994D01*
X85814D01*
X-3086Y229234D02*
Y228218D01*
X-1054D01*
Y229234D01*
X-38D01*
Y231266D01*
X-1054D01*
Y232282D01*
X-3086D01*
Y231266D01*
X-4102D01*
Y229234D01*
X-3086D01*
X12154D02*
Y228218D01*
X14186D01*
Y229234D01*
X15202D01*
Y231266D01*
X14186D01*
Y232282D01*
X12154D01*
Y231266D01*
X11138D01*
Y229234D01*
X12154D01*
X111214Y247014D02*
Y245998D01*
X113246D01*
Y247014D01*
X114262D01*
Y249046D01*
X113246D01*
Y250062D01*
X111214D01*
Y249046D01*
X110198D01*
Y247014D01*
X111214D01*
X93434Y201294D02*
Y200278D01*
X95466D01*
Y201294D01*
X96482D01*
Y203326D01*
X95466D01*
Y204342D01*
X93434D01*
Y203326D01*
X92418D01*
Y201294D01*
X93434D01*
X111214Y173354D02*
Y172338D01*
X113246D01*
Y173354D01*
X114262D01*
Y175386D01*
X113246D01*
Y176402D01*
X111214D01*
Y175386D01*
X110198D01*
Y173354D01*
X111214D01*
X383154Y-12146D02*
Y-13162D01*
X385186D01*
Y-12146D01*
X386202D01*
Y-10114D01*
X385186D01*
Y-9098D01*
X383154D01*
Y-10114D01*
X382138D01*
Y-12146D01*
X383154D01*
Y-1986D02*
Y-3002D01*
X385186D01*
Y-1986D01*
X386202D01*
Y46D01*
X385186D01*
Y1062D01*
X383154D01*
Y46D01*
X382138D01*
Y-1986D01*
X383154D01*
Y38654D02*
Y37638D01*
X385186D01*
Y38654D01*
X386202D01*
Y40686D01*
X385186D01*
Y41702D01*
X383154D01*
Y40686D01*
X382138D01*
Y38654D01*
X383154D01*
Y53894D02*
Y52878D01*
X385186D01*
Y53894D01*
X386202D01*
Y55926D01*
X385186D01*
Y56942D01*
X383154D01*
Y55926D01*
X382138D01*
Y53894D01*
X383154D01*
Y20874D02*
Y19858D01*
X385186D01*
Y20874D01*
X386202D01*
Y22906D01*
X385186D01*
Y23922D01*
X383154D01*
Y22906D01*
X382138D01*
Y20874D01*
X383154D01*
Y64054D02*
Y63038D01*
X385186D01*
Y64054D01*
X386202D01*
Y66086D01*
X385186D01*
Y67102D01*
X383154D01*
Y66086D01*
X382138D01*
Y64054D01*
X383154D01*
X-13246Y165734D02*
Y164718D01*
X-11214D01*
Y165734D01*
X-10198D01*
Y167766D01*
X-11214D01*
Y168782D01*
X-13246D01*
Y167766D01*
X-14262D01*
Y165734D01*
X-13246D01*
X426774Y182074D02*
Y181058D01*
X428806D01*
Y182074D01*
X429822D01*
Y184106D01*
X428806D01*
Y185122D01*
X426774D01*
Y184106D01*
X425758D01*
Y182074D01*
X426774D01*
X461734Y143474D02*
Y142458D01*
X463766D01*
Y143474D01*
X464782D01*
Y145506D01*
X463766D01*
Y146522D01*
X461734D01*
Y145506D01*
X460718D01*
Y143474D01*
X461734D01*
X355484Y10084D02*
Y9068D01*
X357516D01*
Y10084D01*
X358532D01*
Y12116D01*
X357516D01*
Y13132D01*
X355484D01*
Y12116D01*
X354468D01*
Y10084D01*
X355484D01*
X329984Y17584D02*
Y16568D01*
X332016D01*
Y17584D01*
X333032D01*
Y19616D01*
X332016D01*
Y20632D01*
X329984D01*
Y19616D01*
X328968D01*
Y17584D01*
X329984D01*
X309984D02*
Y16568D01*
X312016D01*
Y17584D01*
X313032D01*
Y19616D01*
X312016D01*
Y20632D01*
X309984D01*
Y19616D01*
X308968D01*
Y17584D01*
X309984D01*
X347234Y291234D02*
Y290218D01*
X349266D01*
Y291234D01*
X350282D01*
Y293266D01*
X349266D01*
Y294282D01*
X347234D01*
Y293266D01*
X346218D01*
Y291234D01*
X347234D01*
X327234D02*
Y290218D01*
X329266D01*
Y291234D01*
X330282D01*
Y293266D01*
X329266D01*
Y294282D01*
X327234D01*
Y293266D01*
X326218D01*
Y291234D01*
X327234D01*
X307234D02*
Y290218D01*
X309266D01*
Y291234D01*
X310282D01*
Y293266D01*
X309266D01*
Y294282D01*
X307234D01*
Y293266D01*
X306218D01*
Y291234D01*
X307234D01*
X287234D02*
Y290218D01*
X289266D01*
Y291234D01*
X290282D01*
Y293266D01*
X289266D01*
Y294282D01*
X287234D01*
Y293266D01*
X286218D01*
Y291234D01*
X287234D01*
X327234Y251234D02*
Y250218D01*
X329266D01*
Y251234D01*
X330282D01*
Y253266D01*
X329266D01*
Y254282D01*
X327234D01*
Y253266D01*
X326218D01*
Y251234D01*
X327234D01*
X-329266Y270984D02*
Y269968D01*
X-327234D01*
Y270984D01*
X-326218D01*
Y273016D01*
X-327234D01*
Y274032D01*
X-329266D01*
Y273016D01*
X-330282D01*
Y270984D01*
X-329266D01*
Y290984D02*
Y289968D01*
X-327234D01*
Y290984D01*
X-326218D01*
Y293016D01*
X-327234D01*
Y294032D01*
X-329266D01*
Y293016D01*
X-330282D01*
Y290984D01*
X-329266D01*
X-309266D02*
Y289968D01*
X-307234D01*
Y290984D01*
X-306218D01*
Y293016D01*
X-307234D01*
Y294032D01*
X-309266D01*
Y293016D01*
X-310282D01*
Y290984D01*
X-309266D01*
Y270984D02*
Y269968D01*
X-307234D01*
Y270984D01*
X-306218D01*
Y273016D01*
X-307234D01*
Y274032D01*
X-309266D01*
Y273016D01*
X-310282D01*
Y270984D01*
X-309266D01*
Y250984D02*
Y249968D01*
X-307234D01*
Y250984D01*
X-306218D01*
Y253016D01*
X-307234D01*
Y254032D01*
X-309266D01*
Y253016D01*
X-310282D01*
Y250984D01*
X-309266D01*
X-329266D02*
Y249968D01*
X-327234D01*
Y250984D01*
X-326218D01*
Y253016D01*
X-327234D01*
Y254032D01*
X-329266D01*
Y253016D01*
X-330282D01*
Y250984D01*
X-329266D01*
X-349266Y270984D02*
Y269968D01*
X-347234D01*
Y270984D01*
X-346218D01*
Y273016D01*
X-347234D01*
Y274032D01*
X-349266D01*
Y273016D01*
X-350282D01*
Y270984D01*
X-349266D01*
Y250984D02*
Y249968D01*
X-347234D01*
Y250984D01*
X-346218D01*
Y253016D01*
X-347234D01*
Y254032D01*
X-349266D01*
Y253016D01*
X-350282D01*
Y250984D01*
X-349266D01*
Y290984D02*
Y289968D01*
X-347234D01*
Y290984D01*
X-346218D01*
Y293016D01*
X-347234D01*
Y294032D01*
X-349266D01*
Y293016D01*
X-350282D01*
Y290984D01*
X-349266D01*
X-329266Y310984D02*
Y309968D01*
X-327234D01*
Y310984D01*
X-326218D01*
Y313016D01*
X-327234D01*
Y314032D01*
X-329266D01*
Y313016D01*
X-330282D01*
Y310984D01*
X-329266D01*
X-349266D02*
Y309968D01*
X-347234D01*
Y310984D01*
X-346218D01*
Y313016D01*
X-347234D01*
Y314032D01*
X-349266D01*
Y313016D01*
X-350282D01*
Y310984D01*
X-349266D01*
X-309266D02*
Y309968D01*
X-307234D01*
Y310984D01*
X-306218D01*
Y313016D01*
X-307234D01*
Y314032D01*
X-309266D01*
Y313016D01*
X-310282D01*
Y310984D01*
X-309266D01*
X-289266Y290984D02*
Y289968D01*
X-287234D01*
Y290984D01*
X-286218D01*
Y293016D01*
X-287234D01*
Y294032D01*
X-289266D01*
Y293016D01*
X-290282D01*
Y290984D01*
X-289266D01*
Y270984D02*
Y269968D01*
X-287234D01*
Y270984D01*
X-286218D01*
Y273016D01*
X-287234D01*
Y274032D01*
X-289266D01*
Y273016D01*
X-290282D01*
Y270984D01*
X-289266D01*
Y250984D02*
Y249968D01*
X-287234D01*
Y250984D01*
X-286218D01*
Y253016D01*
X-287234D01*
Y254032D01*
X-289266D01*
Y253016D01*
X-290282D01*
Y250984D01*
X-289266D01*
X347234Y251234D02*
Y250218D01*
X349266D01*
Y251234D01*
X350282D01*
Y253266D01*
X349266D01*
Y254282D01*
X347234D01*
Y253266D01*
X346218D01*
Y251234D01*
X347234D01*
Y311234D02*
Y310218D01*
X349266D01*
Y311234D01*
X350282D01*
Y313266D01*
X349266D01*
Y314282D01*
X347234D01*
Y313266D01*
X346218D01*
Y311234D01*
X347234D01*
X327234D02*
Y310218D01*
X329266D01*
Y311234D01*
X330282D01*
Y313266D01*
X329266D01*
Y314282D01*
X327234D01*
Y313266D01*
X326218D01*
Y311234D01*
X327234D01*
X287234D02*
Y310218D01*
X289266D01*
Y311234D01*
X290282D01*
Y313266D01*
X289266D01*
Y314282D01*
X287234D01*
Y313266D01*
X286218D01*
Y311234D01*
X287234D01*
X307234D02*
Y310218D01*
X309266D01*
Y311234D01*
X310282D01*
Y313266D01*
X309266D01*
Y314282D01*
X307234D01*
Y313266D01*
X306218D01*
Y311234D01*
X307234D01*
X287234Y251234D02*
Y250218D01*
X289266D01*
Y251234D01*
X290282D01*
Y253266D01*
X289266D01*
Y254282D01*
X287234D01*
Y253266D01*
X286218D01*
Y251234D01*
X287234D01*
X307234D02*
Y250218D01*
X309266D01*
Y251234D01*
X310282D01*
Y253266D01*
X309266D01*
Y254282D01*
X307234D01*
Y253266D01*
X306218D01*
Y251234D01*
X307234D01*
X13984Y83484D02*
Y82468D01*
X16016D01*
Y83484D01*
X17032D01*
Y85516D01*
X16016D01*
Y86532D01*
X13984D01*
Y85516D01*
X12968D01*
Y83484D01*
X13984D01*
X-52016Y150484D02*
Y149468D01*
X-49984D01*
Y150484D01*
X-48968D01*
Y152516D01*
X-49984D01*
Y153532D01*
X-52016D01*
Y152516D01*
X-53032D01*
Y150484D01*
X-52016D01*
X-61516Y127484D02*
Y126468D01*
X-59484D01*
Y127484D01*
X-58468D01*
Y129516D01*
X-59484D01*
Y130532D01*
X-61516D01*
Y129516D01*
X-62532D01*
Y127484D01*
X-61516D01*
X-73406Y263144D02*
Y262128D01*
X-71374D01*
Y263144D01*
X-70358D01*
Y265176D01*
X-71374D01*
Y266192D01*
X-73406D01*
Y265176D01*
X-74422D01*
Y263144D01*
X-73406D01*
X-52016Y247484D02*
Y246468D01*
X-49984D01*
Y247484D01*
X-48968D01*
Y249516D01*
X-49984D01*
Y250532D01*
X-52016D01*
Y249516D01*
X-53032D01*
Y247484D01*
X-52016D01*
X49984Y150484D02*
Y149468D01*
X52016D01*
Y150484D01*
X53032D01*
Y152516D01*
X52016D01*
Y153532D01*
X49984D01*
Y152516D01*
X48968D01*
Y150484D01*
X49984D01*
X76984Y41484D02*
Y40468D01*
X79016D01*
Y41484D01*
X80032D01*
Y43516D01*
X79016D01*
Y44532D01*
X76984D01*
Y43516D01*
X75968D01*
Y41484D01*
X76984D01*
X49484Y108984D02*
Y107968D01*
X51516D01*
Y108984D01*
X52532D01*
Y111016D01*
X51516D01*
Y112032D01*
X49484D01*
Y111016D01*
X48468D01*
Y108984D01*
X49484D01*
X46984Y136484D02*
Y135468D01*
X49016D01*
Y136484D01*
X50032D01*
Y138516D01*
X49016D01*
Y139532D01*
X46984D01*
Y138516D01*
X45968D01*
Y136484D01*
X46984D01*
X89484Y111484D02*
Y110468D01*
X91516D01*
Y111484D01*
X92532D01*
Y113516D01*
X91516D01*
Y114532D01*
X89484D01*
Y113516D01*
X88468D01*
Y111484D01*
X89484D01*
X-13016Y8984D02*
Y7968D01*
X-10984D01*
Y8984D01*
X-9968D01*
Y11016D01*
X-10984D01*
Y12032D01*
X-13016D01*
Y11016D01*
X-14032D01*
Y8984D01*
X-13016D01*
X81984Y6484D02*
Y5468D01*
X84016D01*
Y6484D01*
X85032D01*
Y8516D01*
X84016D01*
Y9532D01*
X81984D01*
Y8516D01*
X80968D01*
Y6484D01*
X81984D01*
X4484Y123984D02*
Y122968D01*
X6516D01*
Y123984D01*
X7532D01*
Y126016D01*
X6516D01*
Y127032D01*
X4484D01*
Y126016D01*
X3468D01*
Y123984D01*
X4484D01*
X-464266Y320984D02*
Y319968D01*
X-462234D01*
Y320984D01*
X-461218D01*
Y323016D01*
X-462234D01*
Y324032D01*
X-464266D01*
Y323016D01*
X-465282D01*
Y320984D01*
X-464266D01*
X-449266D02*
Y319968D01*
X-447234D01*
Y320984D01*
X-446218D01*
Y323016D01*
X-447234D01*
Y324032D01*
X-449266D01*
Y323016D01*
X-450282D01*
Y320984D01*
X-449266D01*
X28984Y203984D02*
Y202968D01*
X31016D01*
Y203984D01*
X32032D01*
Y206016D01*
X31016D01*
Y207032D01*
X28984D01*
Y206016D01*
X27968D01*
Y203984D01*
X28984D01*
X14984Y188984D02*
Y187968D01*
X17016D01*
Y188984D01*
X18032D01*
Y191016D01*
X17016D01*
Y192032D01*
X14984D01*
Y191016D01*
X13968D01*
Y188984D01*
X14984D01*
X110984Y155984D02*
Y154968D01*
X113016D01*
Y155984D01*
X114032D01*
Y158016D01*
X113016D01*
Y159032D01*
X110984D01*
Y158016D01*
X109968D01*
Y155984D01*
X110984D01*
X125984Y65984D02*
Y64968D01*
X128016D01*
Y65984D01*
X129032D01*
Y68016D01*
X128016D01*
Y69032D01*
X125984D01*
Y68016D01*
X124968D01*
Y65984D01*
X125984D01*
X104984D02*
Y64968D01*
X107016D01*
Y65984D01*
X108032D01*
Y68016D01*
X107016D01*
Y69032D01*
X104984D01*
Y68016D01*
X103968D01*
Y65984D01*
X104984D01*
X109984Y105984D02*
Y104968D01*
X112016D01*
Y105984D01*
X113032D01*
Y108016D01*
X112016D01*
Y109032D01*
X109984D01*
Y108016D01*
X108968D01*
Y105984D01*
X109984D01*
X28984Y177984D02*
Y176968D01*
X31016D01*
Y177984D01*
X32032D01*
Y180016D01*
X31016D01*
Y181032D01*
X28984D01*
Y180016D01*
X27968D01*
Y177984D01*
X28984D01*
X111984Y143984D02*
Y142968D01*
X114016D01*
Y143984D01*
X115032D01*
Y146016D01*
X114016D01*
Y147032D01*
X111984D01*
Y146016D01*
X110968D01*
Y143984D01*
X111984D01*
X189734Y-30266D02*
Y-31282D01*
X191766D01*
Y-30266D01*
X192782D01*
Y-28234D01*
X191766D01*
Y-27218D01*
X189734D01*
Y-28234D01*
X188718D01*
Y-30266D01*
X189734D01*
X205734D02*
Y-31282D01*
X207766D01*
Y-30266D01*
X208782D01*
Y-28234D01*
X207766D01*
Y-27218D01*
X205734D01*
Y-28234D01*
X204718D01*
Y-30266D01*
X205734D01*
X313234D02*
Y-31282D01*
X315266D01*
Y-30266D01*
X316282D01*
Y-28234D01*
X315266D01*
Y-27218D01*
X313234D01*
Y-28234D01*
X312218D01*
Y-30266D01*
X313234D01*
X297234D02*
Y-31282D01*
X299266D01*
Y-30266D01*
X300282D01*
Y-28234D01*
X299266D01*
Y-27218D01*
X297234D01*
Y-28234D01*
X296218D01*
Y-30266D01*
X297234D01*
X-173516Y241484D02*
Y240468D01*
X-171484D01*
Y241484D01*
X-170468D01*
Y243516D01*
X-171484D01*
Y244532D01*
X-173516D01*
Y243516D01*
X-174532D01*
Y241484D01*
X-173516D01*
X-83516Y232484D02*
Y231468D01*
X-81484D01*
Y232484D01*
X-80468D01*
Y234516D01*
X-81484D01*
Y235532D01*
X-83516D01*
Y234516D01*
X-84532D01*
Y232484D01*
X-83516D01*
X131534Y238134D02*
Y237118D01*
X133566D01*
Y238134D01*
X134582D01*
Y240166D01*
X133566D01*
Y241182D01*
X131534D01*
Y240166D01*
X130518D01*
Y238134D01*
X131534D01*
X-101516Y65484D02*
Y64468D01*
X-99484D01*
Y65484D01*
X-98468D01*
Y67516D01*
X-99484D01*
Y68532D01*
X-101516D01*
Y67516D01*
X-102532D01*
Y65484D01*
X-101516D01*
X-253016Y30984D02*
Y29968D01*
X-250984D01*
Y30984D01*
X-249968D01*
Y33016D01*
X-250984D01*
Y34032D01*
X-253016D01*
Y33016D01*
X-254032D01*
Y30984D01*
X-253016D01*
X347234Y271234D02*
Y270218D01*
X349266D01*
Y271234D01*
X350282D01*
Y273266D01*
X349266D01*
Y274282D01*
X347234D01*
Y273266D01*
X346218D01*
Y271234D01*
X347234D01*
X327234D02*
Y270218D01*
X329266D01*
Y271234D01*
X330282D01*
Y273266D01*
X329266D01*
Y274282D01*
X327234D01*
Y273266D01*
X326218D01*
Y271234D01*
X327234D01*
X307234D02*
Y270218D01*
X309266D01*
Y271234D01*
X310282D01*
Y273266D01*
X309266D01*
Y274282D01*
X307234D01*
Y273266D01*
X306218D01*
Y271234D01*
X307234D01*
X287234D02*
Y270218D01*
X289266D01*
Y271234D01*
X290282D01*
Y273266D01*
X289266D01*
Y274282D01*
X287234D01*
Y273266D01*
X286218D01*
Y271234D01*
X287234D01*
X385484Y209984D02*
Y208968D01*
X387516D01*
Y209984D01*
X388532D01*
Y212016D01*
X387516D01*
Y213032D01*
X385484D01*
Y212016D01*
X384468D01*
Y209984D01*
X385484D01*
X109484Y270984D02*
Y269968D01*
X111516D01*
Y270984D01*
X112532D01*
Y273016D01*
X111516D01*
Y274032D01*
X109484D01*
Y273016D01*
X108468D01*
Y270984D01*
X109484D01*
X158984Y180984D02*
Y179968D01*
X161016D01*
Y180984D01*
X162032D01*
Y183016D01*
X161016D01*
Y184032D01*
X158984D01*
Y183016D01*
X157968D01*
Y180984D01*
X158984D01*
X68984Y245984D02*
Y244968D01*
X71016D01*
Y245984D01*
X72032D01*
Y248016D01*
X71016D01*
Y249032D01*
X68984D01*
Y248016D01*
X67968D01*
Y245984D01*
X68984D01*
Y261984D02*
Y260968D01*
X71016D01*
Y261984D01*
X72032D01*
Y264016D01*
X71016D01*
Y265032D01*
X68984D01*
Y264016D01*
X67968D01*
Y261984D01*
X68984D01*
X85814Y239394D02*
Y238378D01*
X87846D01*
Y239394D01*
X88862D01*
Y241426D01*
X87846D01*
Y242442D01*
X85814D01*
Y241426D01*
X84798D01*
Y239394D01*
X85814D01*
X106134Y231774D02*
Y230758D01*
X108166D01*
Y231774D01*
X109182D01*
Y233806D01*
X108166D01*
Y234822D01*
X106134D01*
Y233806D01*
X105118D01*
Y231774D01*
X106134D01*
X-45016Y92984D02*
Y91968D01*
X-42984D01*
Y92984D01*
X-41968D01*
Y95016D01*
X-42984D01*
Y96032D01*
X-45016D01*
Y95016D01*
X-46032D01*
Y92984D01*
X-45016D01*
X371984Y142984D02*
Y141968D01*
X374016D01*
Y142984D01*
X375032D01*
Y145016D01*
X374016D01*
Y146032D01*
X371984D01*
Y145016D01*
X370968D01*
Y142984D01*
X371984D01*
X93434Y226694D02*
Y225678D01*
X95466D01*
Y226694D01*
X96482D01*
Y228726D01*
X95466D01*
Y229742D01*
X93434D01*
Y228726D01*
X92418D01*
Y226694D01*
X93434D01*
X-363516Y-121016D02*
Y-122032D01*
X-361484D01*
Y-121016D01*
X-360468D01*
Y-118984D01*
X-361484D01*
Y-117968D01*
X-363516D01*
Y-118984D01*
X-364532D01*
Y-121016D01*
X-363516D01*
X-341016Y-123516D02*
Y-124532D01*
X-338984D01*
Y-123516D01*
X-337968D01*
Y-121484D01*
X-338984D01*
Y-120468D01*
X-341016D01*
Y-121484D01*
X-342032D01*
Y-123516D01*
X-341016D01*
X-258516Y-108516D02*
Y-109532D01*
X-256484D01*
Y-108516D01*
X-255468D01*
Y-106484D01*
X-256484D01*
Y-105468D01*
X-258516D01*
Y-106484D01*
X-259532D01*
Y-108516D01*
X-258516D01*
X-233516Y-121016D02*
Y-122032D01*
X-231484D01*
Y-121016D01*
X-230468D01*
Y-118984D01*
X-231484D01*
Y-117968D01*
X-233516D01*
Y-118984D01*
X-234532D01*
Y-121016D01*
X-233516D01*
X-193516Y-36016D02*
Y-37032D01*
X-191484D01*
Y-36016D01*
X-190468D01*
Y-33984D01*
X-191484D01*
Y-32968D01*
X-193516D01*
Y-33984D01*
X-194532D01*
Y-36016D01*
X-193516D01*
X-321016Y-68516D02*
Y-69532D01*
X-318984D01*
Y-68516D01*
X-317968D01*
Y-66484D01*
X-318984D01*
Y-65468D01*
X-321016D01*
Y-66484D01*
X-322032D01*
Y-68516D01*
X-321016D01*
X26484Y-116016D02*
Y-117032D01*
X28516D01*
Y-116016D01*
X29532D01*
Y-113984D01*
X28516D01*
Y-112968D01*
X26484D01*
Y-113984D01*
X25468D01*
Y-116016D01*
X26484D01*
X-38516Y-106016D02*
Y-107032D01*
X-36484D01*
Y-106016D01*
X-35468D01*
Y-103984D01*
X-36484D01*
Y-102968D01*
X-38516D01*
Y-103984D01*
X-39532D01*
Y-106016D01*
X-38516D01*
X63984Y-86016D02*
Y-87032D01*
X66016D01*
Y-86016D01*
X67032D01*
Y-83984D01*
X66016D01*
Y-82968D01*
X63984D01*
Y-83984D01*
X62968D01*
Y-86016D01*
X63984D01*
X16484Y-101016D02*
Y-102032D01*
X18516D01*
Y-101016D01*
X19532D01*
Y-98984D01*
X18516D01*
Y-97968D01*
X16484D01*
Y-98984D01*
X15468D01*
Y-101016D01*
X16484D01*
X-362516Y63984D02*
Y62968D01*
X-360484D01*
Y63984D01*
X-359468D01*
Y66016D01*
X-360484D01*
Y67032D01*
X-362516D01*
Y66016D01*
X-363532D01*
Y63984D01*
X-362516D01*
X-371016Y6484D02*
Y5468D01*
X-368984D01*
Y6484D01*
X-367968D01*
Y8516D01*
X-368984D01*
Y9532D01*
X-371016D01*
Y8516D01*
X-372032D01*
Y6484D01*
X-371016D01*
X-303516D02*
Y5468D01*
X-301484D01*
Y6484D01*
X-300468D01*
Y8516D01*
X-301484D01*
Y9532D01*
X-303516D01*
Y8516D01*
X-304532D01*
Y6484D01*
X-303516D01*
X-303016Y23984D02*
Y22968D01*
X-300984D01*
Y23984D01*
X-299968D01*
Y26016D01*
X-300984D01*
Y27032D01*
X-303016D01*
Y26016D01*
X-304032D01*
Y23984D01*
X-303016D01*
X-339016D02*
Y22968D01*
X-336984D01*
Y23984D01*
X-335968D01*
Y26016D01*
X-336984D01*
Y27032D01*
X-339016D01*
Y26016D01*
X-340032D01*
Y23984D01*
X-339016D01*
X-33516Y181484D02*
Y180468D01*
X-31484D01*
Y181484D01*
X-30468D01*
Y183516D01*
X-31484D01*
Y184532D01*
X-33516D01*
Y183516D01*
X-34532D01*
Y181484D01*
X-33516D01*
X-64516Y-128016D02*
Y-129032D01*
X-62484D01*
Y-128016D01*
X-61468D01*
Y-125984D01*
X-62484D01*
Y-124968D01*
X-64516D01*
Y-125984D01*
X-65532D01*
Y-128016D01*
X-64516D01*
X-51816Y-115316D02*
Y-116332D01*
X-49784D01*
Y-115316D01*
X-48768D01*
Y-113284D01*
X-49784D01*
Y-112268D01*
X-51816D01*
Y-113284D01*
X-52832D01*
Y-115316D01*
X-51816D01*
X51484Y-88516D02*
Y-89532D01*
X53516D01*
Y-88516D01*
X54532D01*
Y-86484D01*
X53516D01*
Y-85468D01*
X51484D01*
Y-86484D01*
X50468D01*
Y-88516D01*
X51484D01*
X11684Y-39116D02*
Y-40132D01*
X13716D01*
Y-39116D01*
X14732D01*
Y-37084D01*
X13716D01*
Y-36068D01*
X11684D01*
Y-37084D01*
X10668D01*
Y-39116D01*
X11684D01*
X-279146Y-155956D02*
Y-156972D01*
X-277114D01*
Y-155956D01*
X-276098D01*
Y-153924D01*
X-277114D01*
Y-152908D01*
X-279146D01*
Y-153924D01*
X-280162D01*
Y-155956D01*
X-279146D01*
X-289306Y-144526D02*
Y-145542D01*
X-287274D01*
Y-144526D01*
X-286258D01*
Y-142494D01*
X-287274D01*
Y-141478D01*
X-289306D01*
Y-142494D01*
X-290322D01*
Y-144526D01*
X-289306D01*
X-274066Y-138176D02*
Y-139192D01*
X-272034D01*
Y-138176D01*
X-271018D01*
Y-136144D01*
X-272034D01*
Y-135128D01*
X-274066D01*
Y-136144D01*
X-275082D01*
Y-138176D01*
X-274066D01*
X-289306Y-129286D02*
Y-130302D01*
X-287274D01*
Y-129286D01*
X-286258D01*
Y-127254D01*
X-287274D01*
Y-126238D01*
X-289306D01*
Y-127254D01*
X-290322D01*
Y-129286D01*
X-289306D01*
X-21336Y-9906D02*
Y-10922D01*
X-19304D01*
Y-9906D01*
X-18288D01*
Y-7874D01*
X-19304D01*
Y-6858D01*
X-21336D01*
Y-7874D01*
X-22352D01*
Y-9906D01*
X-21336D01*
X-302532Y81218D02*
X-301516D01*
X-300500Y82234D01*
X-299484Y81218D01*
X-298468D01*
Y82234D01*
X-299484Y83250D01*
X-298468Y84266D01*
Y85282D01*
X-299484D01*
X-300500Y84266D01*
X-301516Y85282D01*
X-302532D01*
Y84266D01*
X-301516Y83250D01*
X-302532Y82234D01*
Y81218D01*
X-313532D02*
X-312516D01*
X-311500Y82234D01*
X-310484Y81218D01*
X-309468D01*
Y82234D01*
X-310484Y83250D01*
X-309468Y84266D01*
Y85282D01*
X-310484D01*
X-311500Y84266D01*
X-312516Y85282D01*
X-313532D01*
Y84266D01*
X-312516Y83250D01*
X-313532Y82234D01*
Y81218D01*
X-302532Y70218D02*
X-301516D01*
X-300500Y71234D01*
X-299484Y70218D01*
X-298468D01*
Y71234D01*
X-299484Y72250D01*
X-298468Y73266D01*
Y74282D01*
X-299484D01*
X-300500Y73266D01*
X-301516Y74282D01*
X-302532D01*
Y73266D01*
X-301516Y72250D01*
X-302532Y71234D01*
Y70218D01*
X-313532D02*
X-312516D01*
X-311500Y71234D01*
X-310484Y70218D01*
X-309468D01*
Y71234D01*
X-310484Y72250D01*
X-309468Y73266D01*
Y74282D01*
X-310484D01*
X-311500Y73266D01*
X-312516Y74282D01*
X-313532D01*
Y73266D01*
X-312516Y72250D01*
X-313532Y71234D01*
Y70218D01*
X-302532Y59218D02*
X-301516D01*
X-300500Y60234D01*
X-299484Y59218D01*
X-298468D01*
Y60234D01*
X-299484Y61250D01*
X-298468Y62266D01*
Y63282D01*
X-299484D01*
X-300500Y62266D01*
X-301516Y63282D01*
X-302532D01*
Y62266D01*
X-301516Y61250D01*
X-302532Y60234D01*
Y59218D01*
X-313532D02*
X-312516D01*
X-311500Y60234D01*
X-310484Y59218D01*
X-309468D01*
Y60234D01*
X-310484Y61250D01*
X-309468Y62266D01*
Y63282D01*
X-310484D01*
X-311500Y62266D01*
X-312516Y63282D01*
X-313532D01*
Y62266D01*
X-312516Y61250D01*
X-313532Y60234D01*
Y59218D01*
X-407416Y54864D02*
Y53848D01*
X-405384D01*
Y54864D01*
X-404368D01*
Y56896D01*
X-405384D01*
Y57912D01*
X-407416D01*
Y56896D01*
X-408432D01*
Y54864D01*
X-407416D01*
Y34544D02*
Y33528D01*
X-405384D01*
Y34544D01*
X-404368D01*
Y36576D01*
X-405384D01*
Y37592D01*
X-407416D01*
Y36576D01*
X-408432D01*
Y34544D01*
X-407416D01*
X-374396Y184404D02*
Y183388D01*
X-372364D01*
Y184404D01*
X-371348D01*
Y186436D01*
X-372364D01*
Y187452D01*
X-374396D01*
Y186436D01*
X-375412D01*
Y184404D01*
X-374396D01*
X-41656Y-262636D02*
Y-263652D01*
X-39624D01*
Y-262636D01*
X-38608D01*
Y-260604D01*
X-39624D01*
Y-259588D01*
X-41656D01*
Y-260604D01*
X-42672D01*
Y-262636D01*
X-41656D01*
X-31016Y-225016D02*
Y-226032D01*
X-28984D01*
Y-225016D01*
X-27968D01*
Y-222984D01*
X-28984D01*
Y-221968D01*
X-31016D01*
Y-222984D01*
X-32032D01*
Y-225016D01*
X-31016D01*
X-528016Y-12016D02*
Y-13032D01*
X-525984D01*
Y-12016D01*
X-524968D01*
Y-9984D01*
X-525984D01*
Y-8968D01*
X-528016D01*
Y-9984D01*
X-529032D01*
Y-12016D01*
X-528016D01*
X-16Y181984D02*
Y180968D01*
X2016D01*
Y181984D01*
X3032D01*
Y184016D01*
X2016D01*
Y185032D01*
X-16D01*
Y184016D01*
X-1032D01*
Y181984D01*
X-16D01*
X12984Y167984D02*
Y166968D01*
X15016D01*
Y167984D01*
X16032D01*
Y170016D01*
X15016D01*
Y171032D01*
X12984D01*
Y170016D01*
X11968D01*
Y167984D01*
X12984D01*
X-27016Y194984D02*
Y193968D01*
X-24984D01*
Y194984D01*
X-23968D01*
Y197016D01*
X-24984D01*
Y198032D01*
X-27016D01*
Y197016D01*
X-28032D01*
Y194984D01*
X-27016D01*
X-20516Y345484D02*
Y344468D01*
X-18484D01*
Y345484D01*
X-17468D01*
Y347516D01*
X-18484D01*
Y348532D01*
X-20516D01*
Y347516D01*
X-21532D01*
Y345484D01*
X-20516D01*
D137*
X-507968Y200000D02*
G03*
X-507968Y200000I-2032J0D01*
G01*
Y-170000D02*
G03*
X-507968Y-170000I-2032J0D01*
G01*
X512032D02*
G03*
X512032Y-170000I-2032J0D01*
G01*
M02*
