G04 Layer_Color=65535*
%FSLAX44Y44*%
%MOMM*%
G71*
G01*
G75*
%ADD12C,0.2540*%
%ADD79C,0.1778*%
%ADD80C,0.1500*%
D12*
X-469900Y0D02*
Y336550D01*
X469900D01*
X470000Y317500D02*
Y336450D01*
X-470000Y-336450D02*
Y-317500D01*
Y-336450D02*
X-469900Y-336550D01*
X469900D01*
Y0D01*
X-469900Y317500D02*
X-254000D01*
X-470000Y317400D02*
X-469900Y317500D01*
X-470000Y-317500D02*
Y317400D01*
X254000Y317500D02*
X469900D01*
X470000Y317400D01*
Y-317500D02*
Y317400D01*
X254000Y-317500D02*
X470000D01*
X-470000D02*
X-254000D01*
X-177800Y317500D02*
X177800D01*
X455000Y365000D02*
Y415000D01*
X472500D02*
X487500D01*
X472500Y365000D02*
X487500D01*
X505000D02*
Y390000D01*
Y415000D01*
X395000Y365000D02*
Y415000D01*
X412500D02*
X427500D01*
X412500Y365000D02*
X427500D01*
X445000D02*
Y390000D01*
Y415000D01*
X385000Y390000D02*
Y415000D01*
Y365000D02*
Y390000D01*
X352500Y365000D02*
X367500D01*
X352500Y415000D02*
X367500D01*
X335000Y365000D02*
Y415000D01*
X325000Y390000D02*
Y415000D01*
Y365000D02*
Y390000D01*
X292500Y365000D02*
X307500D01*
X292500Y415000D02*
X307500D01*
X275000Y365000D02*
Y415000D01*
X265000Y390000D02*
Y415000D01*
Y365000D02*
Y390000D01*
X232500Y365000D02*
X247500D01*
X232500Y415000D02*
X247500D01*
X215000Y365000D02*
Y415000D01*
X205000Y390000D02*
Y415000D01*
Y365000D02*
Y390000D01*
X172500Y365000D02*
X187500D01*
X172500Y415000D02*
X187500D01*
X155000Y365000D02*
Y415000D01*
X145000Y390000D02*
Y415000D01*
Y365000D02*
Y390000D01*
X112500Y365000D02*
X127500D01*
X112500Y415000D02*
X127500D01*
X95000Y365000D02*
Y415000D01*
X85000Y390000D02*
Y415000D01*
Y365000D02*
Y390000D01*
X52500Y365000D02*
X67500D01*
X52500Y415000D02*
X67500D01*
X35000Y365000D02*
Y415000D01*
X25000Y390000D02*
Y415000D01*
Y365000D02*
Y390000D01*
X-7500Y365000D02*
X7500D01*
X-7500Y415000D02*
X7500D01*
X-25000Y365000D02*
Y415000D01*
X-35000Y390000D02*
Y415000D01*
Y365000D02*
Y390000D01*
X-67500Y365000D02*
X-52500D01*
X-67500Y415000D02*
X-52500D01*
X-85000Y365000D02*
Y415000D01*
X-95000Y390000D02*
Y415000D01*
Y365000D02*
Y390000D01*
X-127500Y365000D02*
X-112500D01*
X-127500Y415000D02*
X-112500D01*
X-145000Y365000D02*
Y415000D01*
X-155000Y390000D02*
Y415000D01*
Y365000D02*
Y390000D01*
X-187500Y365000D02*
X-172500D01*
X-187500Y415000D02*
X-172500D01*
X-205000Y365000D02*
Y415000D01*
X-215000Y390000D02*
Y415000D01*
Y365000D02*
Y390000D01*
X-247500Y365000D02*
X-232500D01*
X-247500Y415000D02*
X-232500D01*
X-265000Y365000D02*
Y415000D01*
X-275000Y390000D02*
Y415000D01*
Y365000D02*
Y390000D01*
X-307500Y365000D02*
X-292500D01*
X-307500Y415000D02*
X-292500D01*
X-325000Y365000D02*
Y415000D01*
X-335000Y390000D02*
Y415000D01*
Y365000D02*
Y390000D01*
X-367500Y365000D02*
X-352500D01*
X-367500Y415000D02*
X-352500D01*
X-385000Y365000D02*
Y415000D01*
X-395000Y390000D02*
Y415000D01*
Y365000D02*
Y390000D01*
X-427500Y365000D02*
X-412500D01*
X-427500Y415000D02*
X-412500D01*
X-445000Y365000D02*
Y415000D01*
X-455000Y390000D02*
Y415000D01*
Y365000D02*
Y390000D01*
X-487500Y365000D02*
X-472500D01*
X-487500Y415000D02*
X-472500D01*
X-505000Y365000D02*
Y415000D01*
X-485000Y15000D02*
Y65000D01*
X-517500Y15000D02*
X-502500D01*
X-517500Y65000D02*
X-502500D01*
X-535000Y40000D02*
Y65000D01*
Y15000D02*
Y40000D01*
X535000Y15000D02*
Y65000D01*
X502500Y15000D02*
X517500D01*
X502500Y65000D02*
X517500D01*
X485000Y40000D02*
Y65000D01*
Y15000D02*
Y40000D01*
D79*
X487000Y426750D02*
X490000D01*
X487000Y434250D02*
X490000D01*
X427000Y426750D02*
X430000D01*
X427000Y434250D02*
X430000D01*
X367000D02*
X370000D01*
X367000Y426750D02*
X370000D01*
X307000Y434250D02*
X310000D01*
X307000Y426750D02*
X310000D01*
X247000Y434250D02*
X250000D01*
X247000Y426750D02*
X250000D01*
X187000Y434250D02*
X190000D01*
X187000Y426750D02*
X190000D01*
X127000Y434250D02*
X130000D01*
X127000Y426750D02*
X130000D01*
X67000Y434250D02*
X70000D01*
X67000Y426750D02*
X70000D01*
X7000Y434250D02*
X10000D01*
X7000Y426750D02*
X10000D01*
X-53000Y434250D02*
X-50000D01*
X-53000Y426750D02*
X-50000D01*
X-113000Y434250D02*
X-110000D01*
X-113000Y426750D02*
X-110000D01*
X-173000Y434250D02*
X-170000D01*
X-173000Y426750D02*
X-170000D01*
X-233000Y434250D02*
X-230000D01*
X-233000Y426750D02*
X-230000D01*
X-293000Y434250D02*
X-290000D01*
X-293000Y426750D02*
X-290000D01*
X-353000Y434250D02*
X-350000D01*
X-353000Y426750D02*
X-350000D01*
X-413000Y434250D02*
X-410000D01*
X-413000Y426750D02*
X-410000D01*
X-473000Y434250D02*
X-470000D01*
X-473000Y426750D02*
X-470000D01*
X500000Y3250D02*
X503000D01*
X500000Y-4250D02*
X503000D01*
X-520000Y3250D02*
X-517000D01*
X-520000Y-4250D02*
X-517000D01*
D80*
X-398000Y322003D02*
Y330000D01*
X-401999D01*
X-403332Y328667D01*
Y323335D01*
X-401999Y322003D01*
X-398000D01*
X-405997D02*
X-408663D01*
X-407330D01*
Y330000D01*
X-405997D01*
X-408663D01*
X-417994Y323335D02*
X-416661Y322003D01*
X-413995D01*
X-412662Y323335D01*
Y324668D01*
X-413995Y326001D01*
X-416661D01*
X-417994Y327334D01*
Y328667D01*
X-416661Y330000D01*
X-413995D01*
X-412662Y328667D01*
X-420659Y330000D02*
Y322003D01*
X-424658D01*
X-425991Y323335D01*
Y326001D01*
X-424658Y327334D01*
X-420659D01*
X-530860Y86737D02*
Y78740D01*
X-526861D01*
X-525528Y80073D01*
Y85405D01*
X-526861Y86737D01*
X-530860D01*
X-517531Y78740D02*
X-522863D01*
X-517531Y84072D01*
Y85405D01*
X-518864Y86737D01*
X-521530D01*
X-522863Y85405D01*
X-514865Y77407D02*
X-509534D01*
X-506868Y86737D02*
Y78740D01*
X-504202Y81406D01*
X-501536Y78740D01*
Y86737D01*
X-493539Y85405D02*
X-494872Y86737D01*
X-497537D01*
X-498870Y85405D01*
Y84072D01*
X-497537Y82739D01*
X-494872D01*
X-493539Y81406D01*
Y80073D01*
X-494872Y78740D01*
X-497537D01*
X-498870Y80073D01*
X-485541Y78740D02*
X-490873D01*
X-485541Y84072D01*
Y85405D01*
X-486874Y86737D01*
X-489540D01*
X-490873Y85405D01*
X485140Y86737D02*
Y78740D01*
X489139D01*
X490472Y80073D01*
Y85405D01*
X489139Y86737D01*
X485140D01*
X493137Y78740D02*
X495803D01*
X494470D01*
Y86737D01*
X493137Y85405D01*
X499802Y77407D02*
X505134D01*
X507799Y86737D02*
Y78740D01*
X510465Y81406D01*
X513131Y78740D01*
Y86737D01*
X521128Y85405D02*
X519795Y86737D01*
X517130D01*
X515797Y85405D01*
Y84072D01*
X517130Y82739D01*
X519795D01*
X521128Y81406D01*
Y80073D01*
X519795Y78740D01*
X517130D01*
X515797Y80073D01*
X529126Y78740D02*
X523794D01*
X529126Y84072D01*
Y85405D01*
X527793Y86737D01*
X525127D01*
X523794Y85405D01*
X-525528Y-16195D02*
X-526861Y-14863D01*
X-529527D01*
X-530860Y-16195D01*
Y-21527D01*
X-529527Y-22860D01*
X-526861D01*
X-525528Y-21527D01*
X-517531Y-22860D02*
X-522863D01*
X-517531Y-17528D01*
Y-16195D01*
X-518864Y-14863D01*
X-521530D01*
X-522863Y-16195D01*
X-514865Y-24193D02*
X-509534D01*
X-506868Y-14863D02*
Y-22860D01*
X-504202Y-20194D01*
X-501536Y-22860D01*
Y-14863D01*
X-493539Y-16195D02*
X-494872Y-14863D01*
X-497537D01*
X-498870Y-16195D01*
Y-17528D01*
X-497537Y-18861D01*
X-494872D01*
X-493539Y-20194D01*
Y-21527D01*
X-494872Y-22860D01*
X-497537D01*
X-498870Y-21527D01*
X-485541Y-22860D02*
X-490873D01*
X-485541Y-17528D01*
Y-16195D01*
X-486874Y-14863D01*
X-489540D01*
X-490873Y-16195D01*
X490472Y-11115D02*
X489139Y-9783D01*
X486473D01*
X485140Y-11115D01*
Y-16447D01*
X486473Y-17780D01*
X489139D01*
X490472Y-16447D01*
X493137Y-17780D02*
X495803D01*
X494470D01*
Y-9783D01*
X493137Y-11115D01*
X499802Y-19113D02*
X505134D01*
X507799Y-9783D02*
Y-17780D01*
X510465Y-15114D01*
X513131Y-17780D01*
Y-9783D01*
X521128Y-11115D02*
X519795Y-9783D01*
X517130D01*
X515797Y-11115D01*
Y-12448D01*
X517130Y-13781D01*
X519795D01*
X521128Y-15114D01*
Y-16447D01*
X519795Y-17780D01*
X517130D01*
X515797Y-16447D01*
X529126Y-17780D02*
X523794D01*
X529126Y-12448D01*
Y-11115D01*
X527793Y-9783D01*
X525127D01*
X523794Y-11115D01*
X458500Y354997D02*
Y347000D01*
X462499D01*
X463832Y348333D01*
Y353665D01*
X462499Y354997D01*
X458500D01*
X466497Y347000D02*
X469163D01*
X467830D01*
Y354997D01*
X466497Y353665D01*
X473162Y354997D02*
X478494D01*
Y353665D01*
X473162Y348333D01*
Y347000D01*
X481159Y345667D02*
X486491D01*
X489157Y354997D02*
Y347000D01*
X491823Y349666D01*
X494488Y347000D01*
Y354997D01*
X502486Y353665D02*
X501153Y354997D01*
X498487D01*
X497154Y353665D01*
Y352332D01*
X498487Y350999D01*
X501153D01*
X502486Y349666D01*
Y348333D01*
X501153Y347000D01*
X498487D01*
X497154Y348333D01*
X505152Y347000D02*
X507817D01*
X506484D01*
Y354997D01*
X505152Y353665D01*
X398500Y354997D02*
Y347000D01*
X402499D01*
X403832Y348333D01*
Y353665D01*
X402499Y354997D01*
X398500D01*
X406497Y347000D02*
X409163D01*
X407830D01*
Y354997D01*
X406497Y353665D01*
X418493Y354997D02*
X415828Y353665D01*
X413162Y350999D01*
Y348333D01*
X414495Y347000D01*
X417161D01*
X418493Y348333D01*
Y349666D01*
X417161Y350999D01*
X413162D01*
X421159Y345667D02*
X426491D01*
X429157Y354997D02*
Y347000D01*
X431823Y349666D01*
X434488Y347000D01*
Y354997D01*
X442486Y353665D02*
X441153Y354997D01*
X438487D01*
X437154Y353665D01*
Y352332D01*
X438487Y350999D01*
X441153D01*
X442486Y349666D01*
Y348333D01*
X441153Y347000D01*
X438487D01*
X437154Y348333D01*
X445152Y347000D02*
X447817D01*
X446484D01*
Y354997D01*
X445152Y353665D01*
X460332Y446665D02*
X458999Y447997D01*
X456333D01*
X455000Y446665D01*
Y441333D01*
X456333Y440000D01*
X458999D01*
X460332Y441333D01*
X462997Y440000D02*
X465663D01*
X464330D01*
Y447997D01*
X462997Y446665D01*
X469662Y447997D02*
X474994D01*
Y446665D01*
X469662Y441333D01*
Y440000D01*
X477659Y438667D02*
X482991D01*
X485657Y447997D02*
Y440000D01*
X488323Y442666D01*
X490988Y440000D01*
Y447997D01*
X498986Y446665D02*
X497653Y447997D01*
X494987D01*
X493654Y446665D01*
Y445332D01*
X494987Y443999D01*
X497653D01*
X498986Y442666D01*
Y441333D01*
X497653Y440000D01*
X494987D01*
X493654Y441333D01*
X501652Y440000D02*
X504317D01*
X502985D01*
Y447997D01*
X501652Y446665D01*
X400332D02*
X398999Y447997D01*
X396333D01*
X395000Y446665D01*
Y441333D01*
X396333Y440000D01*
X398999D01*
X400332Y441333D01*
X402997Y440000D02*
X405663D01*
X404330D01*
Y447997D01*
X402997Y446665D01*
X414994Y447997D02*
X412328Y446665D01*
X409662Y443999D01*
Y441333D01*
X410995Y440000D01*
X413661D01*
X414994Y441333D01*
Y442666D01*
X413661Y443999D01*
X409662D01*
X417659Y438667D02*
X422991D01*
X425657Y447997D02*
Y440000D01*
X428323Y442666D01*
X430988Y440000D01*
Y447997D01*
X438986Y446665D02*
X437653Y447997D01*
X434987D01*
X433654Y446665D01*
Y445332D01*
X434987Y443999D01*
X437653D01*
X438986Y442666D01*
Y441333D01*
X437653Y440000D01*
X434987D01*
X433654Y441333D01*
X441652Y440000D02*
X444317D01*
X442985D01*
Y447997D01*
X441652Y446665D01*
X340332D02*
X338999Y447997D01*
X336333D01*
X335000Y446665D01*
Y441333D01*
X336333Y440000D01*
X338999D01*
X340332Y441333D01*
X342997Y440000D02*
X345663D01*
X344330D01*
Y447997D01*
X342997Y446665D01*
X354994Y447997D02*
X349662D01*
Y443999D01*
X352328Y445332D01*
X353661D01*
X354994Y443999D01*
Y441333D01*
X353661Y440000D01*
X350995D01*
X349662Y441333D01*
X357659Y438667D02*
X362991D01*
X365657Y447997D02*
Y440000D01*
X368323Y442666D01*
X370988Y440000D01*
Y447997D01*
X378986Y446665D02*
X377653Y447997D01*
X374987D01*
X373654Y446665D01*
Y445332D01*
X374987Y443999D01*
X377653D01*
X378986Y442666D01*
Y441333D01*
X377653Y440000D01*
X374987D01*
X373654Y441333D01*
X381652Y440000D02*
X384317D01*
X382985D01*
Y447997D01*
X381652Y446665D01*
X280332D02*
X278999Y447997D01*
X276333D01*
X275000Y446665D01*
Y441333D01*
X276333Y440000D01*
X278999D01*
X280332Y441333D01*
X282997Y440000D02*
X285663D01*
X284330D01*
Y447997D01*
X282997Y446665D01*
X293661Y440000D02*
Y447997D01*
X289662Y443999D01*
X294993D01*
X297659Y438667D02*
X302991D01*
X305657Y447997D02*
Y440000D01*
X308323Y442666D01*
X310988Y440000D01*
Y447997D01*
X318986Y446665D02*
X317653Y447997D01*
X314987D01*
X313654Y446665D01*
Y445332D01*
X314987Y443999D01*
X317653D01*
X318986Y442666D01*
Y441333D01*
X317653Y440000D01*
X314987D01*
X313654Y441333D01*
X321652Y440000D02*
X324317D01*
X322985D01*
Y447997D01*
X321652Y446665D01*
X220332D02*
X218999Y447997D01*
X216333D01*
X215000Y446665D01*
Y441333D01*
X216333Y440000D01*
X218999D01*
X220332Y441333D01*
X222997Y440000D02*
X225663D01*
X224330D01*
Y447997D01*
X222997Y446665D01*
X229662D02*
X230995Y447997D01*
X233661D01*
X234993Y446665D01*
Y445332D01*
X233661Y443999D01*
X232328D01*
X233661D01*
X234993Y442666D01*
Y441333D01*
X233661Y440000D01*
X230995D01*
X229662Y441333D01*
X237659Y438667D02*
X242991D01*
X245657Y447997D02*
Y440000D01*
X248323Y442666D01*
X250988Y440000D01*
Y447997D01*
X258986Y446665D02*
X257653Y447997D01*
X254987D01*
X253654Y446665D01*
Y445332D01*
X254987Y443999D01*
X257653D01*
X258986Y442666D01*
Y441333D01*
X257653Y440000D01*
X254987D01*
X253654Y441333D01*
X261652Y440000D02*
X264317D01*
X262985D01*
Y447997D01*
X261652Y446665D01*
X160332D02*
X158999Y447997D01*
X156333D01*
X155000Y446665D01*
Y441333D01*
X156333Y440000D01*
X158999D01*
X160332Y441333D01*
X162997Y440000D02*
X165663D01*
X164330D01*
Y447997D01*
X162997Y446665D01*
X174994Y440000D02*
X169662D01*
X174994Y445332D01*
Y446665D01*
X173661Y447997D01*
X170995D01*
X169662Y446665D01*
X177659Y438667D02*
X182991D01*
X185657Y447997D02*
Y440000D01*
X188323Y442666D01*
X190988Y440000D01*
Y447997D01*
X198986Y446665D02*
X197653Y447997D01*
X194987D01*
X193654Y446665D01*
Y445332D01*
X194987Y443999D01*
X197653D01*
X198986Y442666D01*
Y441333D01*
X197653Y440000D01*
X194987D01*
X193654Y441333D01*
X201652Y440000D02*
X204317D01*
X202985D01*
Y447997D01*
X201652Y446665D01*
X100332D02*
X98999Y447997D01*
X96333D01*
X95000Y446665D01*
Y441333D01*
X96333Y440000D01*
X98999D01*
X100332Y441333D01*
X102997Y440000D02*
X105663D01*
X104330D01*
Y447997D01*
X102997Y446665D01*
X109662Y440000D02*
X112328D01*
X110995D01*
Y447997D01*
X109662Y446665D01*
X116327Y438667D02*
X121658D01*
X124324Y447997D02*
Y440000D01*
X126990Y442666D01*
X129656Y440000D01*
Y447997D01*
X137653Y446665D02*
X136320Y447997D01*
X133654D01*
X132321Y446665D01*
Y445332D01*
X133654Y443999D01*
X136320D01*
X137653Y442666D01*
Y441333D01*
X136320Y440000D01*
X133654D01*
X132321Y441333D01*
X140319Y440000D02*
X142985D01*
X141652D01*
Y447997D01*
X140319Y446665D01*
X40332D02*
X38999Y447997D01*
X36333D01*
X35000Y446665D01*
Y441333D01*
X36333Y440000D01*
X38999D01*
X40332Y441333D01*
X42997Y440000D02*
X45663D01*
X44330D01*
Y447997D01*
X42997Y446665D01*
X49662D02*
X50995Y447997D01*
X53661D01*
X54994Y446665D01*
Y441333D01*
X53661Y440000D01*
X50995D01*
X49662Y441333D01*
Y446665D01*
X57659Y438667D02*
X62991D01*
X65657Y447997D02*
Y440000D01*
X68323Y442666D01*
X70988Y440000D01*
Y447997D01*
X78986Y446665D02*
X77653Y447997D01*
X74987D01*
X73654Y446665D01*
Y445332D01*
X74987Y443999D01*
X77653D01*
X78986Y442666D01*
Y441333D01*
X77653Y440000D01*
X74987D01*
X73654Y441333D01*
X81652Y440000D02*
X84317D01*
X82985D01*
Y447997D01*
X81652Y446665D01*
X-19668D02*
X-21001Y447997D01*
X-23667D01*
X-25000Y446665D01*
Y441333D01*
X-23667Y440000D01*
X-21001D01*
X-19668Y441333D01*
X-17003D02*
X-15670Y440000D01*
X-13004D01*
X-11671Y441333D01*
Y446665D01*
X-13004Y447997D01*
X-15670D01*
X-17003Y446665D01*
Y445332D01*
X-15670Y443999D01*
X-11671D01*
X-9005Y438667D02*
X-3674D01*
X-1008Y447997D02*
Y440000D01*
X1658Y442666D01*
X4324Y440000D01*
Y447997D01*
X12321Y446665D02*
X10988Y447997D01*
X8323D01*
X6990Y446665D01*
Y445332D01*
X8323Y443999D01*
X10988D01*
X12321Y442666D01*
Y441333D01*
X10988Y440000D01*
X8323D01*
X6990Y441333D01*
X14987Y440000D02*
X17653D01*
X16320D01*
Y447997D01*
X14987Y446665D01*
X-79668D02*
X-81001Y447997D01*
X-83667D01*
X-85000Y446665D01*
Y441333D01*
X-83667Y440000D01*
X-81001D01*
X-79668Y441333D01*
X-77003Y446665D02*
X-75670Y447997D01*
X-73004D01*
X-71671Y446665D01*
Y445332D01*
X-73004Y443999D01*
X-71671Y442666D01*
Y441333D01*
X-73004Y440000D01*
X-75670D01*
X-77003Y441333D01*
Y442666D01*
X-75670Y443999D01*
X-77003Y445332D01*
Y446665D01*
X-75670Y443999D02*
X-73004D01*
X-69005Y438667D02*
X-63674D01*
X-61008Y447997D02*
Y440000D01*
X-58342Y442666D01*
X-55676Y440000D01*
Y447997D01*
X-47679Y446665D02*
X-49012Y447997D01*
X-51677D01*
X-53010Y446665D01*
Y445332D01*
X-51677Y443999D01*
X-49012D01*
X-47679Y442666D01*
Y441333D01*
X-49012Y440000D01*
X-51677D01*
X-53010Y441333D01*
X-45013Y440000D02*
X-42347D01*
X-43680D01*
Y447997D01*
X-45013Y446665D01*
X-139668D02*
X-141001Y447997D01*
X-143667D01*
X-145000Y446665D01*
Y441333D01*
X-143667Y440000D01*
X-141001D01*
X-139668Y441333D01*
X-137003Y447997D02*
X-131671D01*
Y446665D01*
X-137003Y441333D01*
Y440000D01*
X-129005Y438667D02*
X-123674D01*
X-121008Y447997D02*
Y440000D01*
X-118342Y442666D01*
X-115676Y440000D01*
Y447997D01*
X-107679Y446665D02*
X-109012Y447997D01*
X-111677D01*
X-113010Y446665D01*
Y445332D01*
X-111677Y443999D01*
X-109012D01*
X-107679Y442666D01*
Y441333D01*
X-109012Y440000D01*
X-111677D01*
X-113010Y441333D01*
X-105013Y440000D02*
X-102347D01*
X-103680D01*
Y447997D01*
X-105013Y446665D01*
X-199668D02*
X-201001Y447997D01*
X-203667D01*
X-205000Y446665D01*
Y441333D01*
X-203667Y440000D01*
X-201001D01*
X-199668Y441333D01*
X-191671Y447997D02*
X-194337Y446665D01*
X-197003Y443999D01*
Y441333D01*
X-195670Y440000D01*
X-193004D01*
X-191671Y441333D01*
Y442666D01*
X-193004Y443999D01*
X-197003D01*
X-189005Y438667D02*
X-183674D01*
X-181008Y447997D02*
Y440000D01*
X-178342Y442666D01*
X-175676Y440000D01*
Y447997D01*
X-167679Y446665D02*
X-169012Y447997D01*
X-171677D01*
X-173010Y446665D01*
Y445332D01*
X-171677Y443999D01*
X-169012D01*
X-167679Y442666D01*
Y441333D01*
X-169012Y440000D01*
X-171677D01*
X-173010Y441333D01*
X-165013Y440000D02*
X-162347D01*
X-163680D01*
Y447997D01*
X-165013Y446665D01*
X-259668D02*
X-261001Y447997D01*
X-263667D01*
X-265000Y446665D01*
Y441333D01*
X-263667Y440000D01*
X-261001D01*
X-259668Y441333D01*
X-251671Y447997D02*
X-257003D01*
Y443999D01*
X-254337Y445332D01*
X-253004D01*
X-251671Y443999D01*
Y441333D01*
X-253004Y440000D01*
X-255670D01*
X-257003Y441333D01*
X-249005Y438667D02*
X-243674D01*
X-241008Y447997D02*
Y440000D01*
X-238342Y442666D01*
X-235676Y440000D01*
Y447997D01*
X-227679Y446665D02*
X-229012Y447997D01*
X-231677D01*
X-233010Y446665D01*
Y445332D01*
X-231677Y443999D01*
X-229012D01*
X-227679Y442666D01*
Y441333D01*
X-229012Y440000D01*
X-231677D01*
X-233010Y441333D01*
X-225013Y440000D02*
X-222347D01*
X-223680D01*
Y447997D01*
X-225013Y446665D01*
X-319668D02*
X-321001Y447997D01*
X-323667D01*
X-325000Y446665D01*
Y441333D01*
X-323667Y440000D01*
X-321001D01*
X-319668Y441333D01*
X-313004Y440000D02*
Y447997D01*
X-317003Y443999D01*
X-311671D01*
X-309005Y438667D02*
X-303674D01*
X-301008Y447997D02*
Y440000D01*
X-298342Y442666D01*
X-295676Y440000D01*
Y447997D01*
X-287679Y446665D02*
X-289012Y447997D01*
X-291677D01*
X-293010Y446665D01*
Y445332D01*
X-291677Y443999D01*
X-289012D01*
X-287679Y442666D01*
Y441333D01*
X-289012Y440000D01*
X-291677D01*
X-293010Y441333D01*
X-285013Y440000D02*
X-282347D01*
X-283680D01*
Y447997D01*
X-285013Y446665D01*
X-379668D02*
X-381001Y447997D01*
X-383667D01*
X-385000Y446665D01*
Y441333D01*
X-383667Y440000D01*
X-381001D01*
X-379668Y441333D01*
X-377003Y446665D02*
X-375670Y447997D01*
X-373004D01*
X-371671Y446665D01*
Y445332D01*
X-373004Y443999D01*
X-374337D01*
X-373004D01*
X-371671Y442666D01*
Y441333D01*
X-373004Y440000D01*
X-375670D01*
X-377003Y441333D01*
X-369005Y438667D02*
X-363674D01*
X-361008Y447997D02*
Y440000D01*
X-358342Y442666D01*
X-355676Y440000D01*
Y447997D01*
X-347679Y446665D02*
X-349012Y447997D01*
X-351677D01*
X-353010Y446665D01*
Y445332D01*
X-351677Y443999D01*
X-349012D01*
X-347679Y442666D01*
Y441333D01*
X-349012Y440000D01*
X-351677D01*
X-353010Y441333D01*
X-345013Y440000D02*
X-342347D01*
X-343680D01*
Y447997D01*
X-345013Y446665D01*
X-439668D02*
X-441001Y447997D01*
X-443667D01*
X-445000Y446665D01*
Y441333D01*
X-443667Y440000D01*
X-441001D01*
X-439668Y441333D01*
X-431671Y440000D02*
X-437003D01*
X-431671Y445332D01*
Y446665D01*
X-433004Y447997D01*
X-435670D01*
X-437003Y446665D01*
X-429005Y438667D02*
X-423674D01*
X-421008Y447997D02*
Y440000D01*
X-418342Y442666D01*
X-415676Y440000D01*
Y447997D01*
X-407679Y446665D02*
X-409012Y447997D01*
X-411677D01*
X-413010Y446665D01*
Y445332D01*
X-411677Y443999D01*
X-409012D01*
X-407679Y442666D01*
Y441333D01*
X-409012Y440000D01*
X-411677D01*
X-413010Y441333D01*
X-405013Y440000D02*
X-402347D01*
X-403680D01*
Y447997D01*
X-405013Y446665D01*
X-499668D02*
X-501001Y447997D01*
X-503667D01*
X-505000Y446665D01*
Y441333D01*
X-503667Y440000D01*
X-501001D01*
X-499668Y441333D01*
X-497003Y440000D02*
X-494337D01*
X-495670D01*
Y447997D01*
X-497003Y446665D01*
X-490338Y438667D02*
X-485006D01*
X-482341Y447997D02*
Y440000D01*
X-479675Y442666D01*
X-477009Y440000D01*
Y447997D01*
X-469012Y446665D02*
X-470345Y447997D01*
X-473010D01*
X-474343Y446665D01*
Y445332D01*
X-473010Y443999D01*
X-470345D01*
X-469012Y442666D01*
Y441333D01*
X-470345Y440000D01*
X-473010D01*
X-474343Y441333D01*
X-466346Y440000D02*
X-463680D01*
X-465013D01*
Y447997D01*
X-466346Y446665D01*
X338500Y354997D02*
Y347000D01*
X342499D01*
X343832Y348333D01*
Y353665D01*
X342499Y354997D01*
X338500D01*
X346497Y347000D02*
X349163D01*
X347830D01*
Y354997D01*
X346497Y353665D01*
X358494Y354997D02*
X353162D01*
Y350999D01*
X355828Y352332D01*
X357161D01*
X358494Y350999D01*
Y348333D01*
X357161Y347000D01*
X354495D01*
X353162Y348333D01*
X361159Y345667D02*
X366491D01*
X369157Y354997D02*
Y347000D01*
X371823Y349666D01*
X374488Y347000D01*
Y354997D01*
X382486Y353665D02*
X381153Y354997D01*
X378487D01*
X377154Y353665D01*
Y352332D01*
X378487Y350999D01*
X381153D01*
X382486Y349666D01*
Y348333D01*
X381153Y347000D01*
X378487D01*
X377154Y348333D01*
X385152Y347000D02*
X387817D01*
X386484D01*
Y354997D01*
X385152Y353665D01*
X278500Y354997D02*
Y347000D01*
X282499D01*
X283832Y348333D01*
Y353665D01*
X282499Y354997D01*
X278500D01*
X286497Y347000D02*
X289163D01*
X287830D01*
Y354997D01*
X286497Y353665D01*
X297161Y347000D02*
Y354997D01*
X293162Y350999D01*
X298494D01*
X301159Y345667D02*
X306491D01*
X309157Y354997D02*
Y347000D01*
X311823Y349666D01*
X314488Y347000D01*
Y354997D01*
X322486Y353665D02*
X321153Y354997D01*
X318487D01*
X317154Y353665D01*
Y352332D01*
X318487Y350999D01*
X321153D01*
X322486Y349666D01*
Y348333D01*
X321153Y347000D01*
X318487D01*
X317154Y348333D01*
X325152Y347000D02*
X327817D01*
X326484D01*
Y354997D01*
X325152Y353665D01*
X218500Y354997D02*
Y347000D01*
X222499D01*
X223832Y348333D01*
Y353665D01*
X222499Y354997D01*
X218500D01*
X226497Y347000D02*
X229163D01*
X227830D01*
Y354997D01*
X226497Y353665D01*
X233162D02*
X234495Y354997D01*
X237161D01*
X238494Y353665D01*
Y352332D01*
X237161Y350999D01*
X235828D01*
X237161D01*
X238494Y349666D01*
Y348333D01*
X237161Y347000D01*
X234495D01*
X233162Y348333D01*
X241159Y345667D02*
X246491D01*
X249157Y354997D02*
Y347000D01*
X251823Y349666D01*
X254488Y347000D01*
Y354997D01*
X262486Y353665D02*
X261153Y354997D01*
X258487D01*
X257154Y353665D01*
Y352332D01*
X258487Y350999D01*
X261153D01*
X262486Y349666D01*
Y348333D01*
X261153Y347000D01*
X258487D01*
X257154Y348333D01*
X265152Y347000D02*
X267817D01*
X266485D01*
Y354997D01*
X265152Y353665D01*
X158500Y354997D02*
Y347000D01*
X162499D01*
X163832Y348333D01*
Y353665D01*
X162499Y354997D01*
X158500D01*
X166497Y347000D02*
X169163D01*
X167830D01*
Y354997D01*
X166497Y353665D01*
X178494Y347000D02*
X173162D01*
X178494Y352332D01*
Y353665D01*
X177161Y354997D01*
X174495D01*
X173162Y353665D01*
X181159Y345667D02*
X186491D01*
X189157Y354997D02*
Y347000D01*
X191823Y349666D01*
X194488Y347000D01*
Y354997D01*
X202486Y353665D02*
X201153Y354997D01*
X198487D01*
X197154Y353665D01*
Y352332D01*
X198487Y350999D01*
X201153D01*
X202486Y349666D01*
Y348333D01*
X201153Y347000D01*
X198487D01*
X197154Y348333D01*
X205152Y347000D02*
X207817D01*
X206485D01*
Y354997D01*
X205152Y353665D01*
X98500Y354997D02*
Y347000D01*
X102499D01*
X103832Y348333D01*
Y353665D01*
X102499Y354997D01*
X98500D01*
X106497Y347000D02*
X109163D01*
X107830D01*
Y354997D01*
X106497Y353665D01*
X113162Y347000D02*
X115828D01*
X114495D01*
Y354997D01*
X113162Y353665D01*
X119826Y345667D02*
X125158D01*
X127824Y354997D02*
Y347000D01*
X130490Y349666D01*
X133155Y347000D01*
Y354997D01*
X141153Y353665D02*
X139820Y354997D01*
X137154D01*
X135821Y353665D01*
Y352332D01*
X137154Y350999D01*
X139820D01*
X141153Y349666D01*
Y348333D01*
X139820Y347000D01*
X137154D01*
X135821Y348333D01*
X143819Y347000D02*
X146484D01*
X145152D01*
Y354997D01*
X143819Y353665D01*
X38500Y354997D02*
Y347000D01*
X42499D01*
X43832Y348333D01*
Y353665D01*
X42499Y354997D01*
X38500D01*
X46497Y347000D02*
X49163D01*
X47830D01*
Y354997D01*
X46497Y353665D01*
X53162D02*
X54495Y354997D01*
X57161D01*
X58494Y353665D01*
Y348333D01*
X57161Y347000D01*
X54495D01*
X53162Y348333D01*
Y353665D01*
X61159Y345667D02*
X66491D01*
X69157Y354997D02*
Y347000D01*
X71823Y349666D01*
X74488Y347000D01*
Y354997D01*
X82486Y353665D02*
X81153Y354997D01*
X78487D01*
X77154Y353665D01*
Y352332D01*
X78487Y350999D01*
X81153D01*
X82486Y349666D01*
Y348333D01*
X81153Y347000D01*
X78487D01*
X77154Y348333D01*
X85152Y347000D02*
X87817D01*
X86484D01*
Y354997D01*
X85152Y353665D01*
X-21500Y354997D02*
Y347000D01*
X-17501D01*
X-16168Y348333D01*
Y353665D01*
X-17501Y354997D01*
X-21500D01*
X-13503Y348333D02*
X-12170Y347000D01*
X-9504D01*
X-8171Y348333D01*
Y353665D01*
X-9504Y354997D01*
X-12170D01*
X-13503Y353665D01*
Y352332D01*
X-12170Y350999D01*
X-8171D01*
X-5505Y345667D02*
X-174D01*
X2492Y354997D02*
Y347000D01*
X5158Y349666D01*
X7824Y347000D01*
Y354997D01*
X15821Y353665D02*
X14488Y354997D01*
X11823D01*
X10490Y353665D01*
Y352332D01*
X11823Y350999D01*
X14488D01*
X15821Y349666D01*
Y348333D01*
X14488Y347000D01*
X11823D01*
X10490Y348333D01*
X18487Y347000D02*
X21153D01*
X19820D01*
Y354997D01*
X18487Y353665D01*
X-81500Y354997D02*
Y347000D01*
X-77501D01*
X-76168Y348333D01*
Y353665D01*
X-77501Y354997D01*
X-81500D01*
X-73503Y353665D02*
X-72170Y354997D01*
X-69504D01*
X-68171Y353665D01*
Y352332D01*
X-69504Y350999D01*
X-68171Y349666D01*
Y348333D01*
X-69504Y347000D01*
X-72170D01*
X-73503Y348333D01*
Y349666D01*
X-72170Y350999D01*
X-73503Y352332D01*
Y353665D01*
X-72170Y350999D02*
X-69504D01*
X-65505Y345667D02*
X-60174D01*
X-57508Y354997D02*
Y347000D01*
X-54842Y349666D01*
X-52176Y347000D01*
Y354997D01*
X-44179Y353665D02*
X-45512Y354997D01*
X-48177D01*
X-49510Y353665D01*
Y352332D01*
X-48177Y350999D01*
X-45512D01*
X-44179Y349666D01*
Y348333D01*
X-45512Y347000D01*
X-48177D01*
X-49510Y348333D01*
X-41513Y347000D02*
X-38847D01*
X-40180D01*
Y354997D01*
X-41513Y353665D01*
X-141500Y354997D02*
Y347000D01*
X-137501D01*
X-136168Y348333D01*
Y353665D01*
X-137501Y354997D01*
X-141500D01*
X-133503D02*
X-128171D01*
Y353665D01*
X-133503Y348333D01*
Y347000D01*
X-125505Y345667D02*
X-120174D01*
X-117508Y354997D02*
Y347000D01*
X-114842Y349666D01*
X-112176Y347000D01*
Y354997D01*
X-104179Y353665D02*
X-105512Y354997D01*
X-108177D01*
X-109510Y353665D01*
Y352332D01*
X-108177Y350999D01*
X-105512D01*
X-104179Y349666D01*
Y348333D01*
X-105512Y347000D01*
X-108177D01*
X-109510Y348333D01*
X-101513Y347000D02*
X-98847D01*
X-100180D01*
Y354997D01*
X-101513Y353665D01*
X-201500Y354997D02*
Y347000D01*
X-197501D01*
X-196168Y348333D01*
Y353665D01*
X-197501Y354997D01*
X-201500D01*
X-188171D02*
X-190837Y353665D01*
X-193503Y350999D01*
Y348333D01*
X-192170Y347000D01*
X-189504D01*
X-188171Y348333D01*
Y349666D01*
X-189504Y350999D01*
X-193503D01*
X-185505Y345667D02*
X-180174D01*
X-177508Y354997D02*
Y347000D01*
X-174842Y349666D01*
X-172176Y347000D01*
Y354997D01*
X-164179Y353665D02*
X-165512Y354997D01*
X-168177D01*
X-169510Y353665D01*
Y352332D01*
X-168177Y350999D01*
X-165512D01*
X-164179Y349666D01*
Y348333D01*
X-165512Y347000D01*
X-168177D01*
X-169510Y348333D01*
X-161513Y347000D02*
X-158847D01*
X-160180D01*
Y354997D01*
X-161513Y353665D01*
X-261500Y354997D02*
Y347000D01*
X-257501D01*
X-256168Y348333D01*
Y353665D01*
X-257501Y354997D01*
X-261500D01*
X-248171D02*
X-253503D01*
Y350999D01*
X-250837Y352332D01*
X-249504D01*
X-248171Y350999D01*
Y348333D01*
X-249504Y347000D01*
X-252170D01*
X-253503Y348333D01*
X-245505Y345667D02*
X-240173D01*
X-237508Y354997D02*
Y347000D01*
X-234842Y349666D01*
X-232176Y347000D01*
Y354997D01*
X-224179Y353665D02*
X-225512Y354997D01*
X-228177D01*
X-229510Y353665D01*
Y352332D01*
X-228177Y350999D01*
X-225512D01*
X-224179Y349666D01*
Y348333D01*
X-225512Y347000D01*
X-228177D01*
X-229510Y348333D01*
X-221513Y347000D02*
X-218847D01*
X-220180D01*
Y354997D01*
X-221513Y353665D01*
X-321500Y354997D02*
Y347000D01*
X-317501D01*
X-316168Y348333D01*
Y353665D01*
X-317501Y354997D01*
X-321500D01*
X-309504Y347000D02*
Y354997D01*
X-313503Y350999D01*
X-308171D01*
X-305505Y345667D02*
X-300173D01*
X-297508Y354997D02*
Y347000D01*
X-294842Y349666D01*
X-292176Y347000D01*
Y354997D01*
X-284179Y353665D02*
X-285512Y354997D01*
X-288177D01*
X-289510Y353665D01*
Y352332D01*
X-288177Y350999D01*
X-285512D01*
X-284179Y349666D01*
Y348333D01*
X-285512Y347000D01*
X-288177D01*
X-289510Y348333D01*
X-281513Y347000D02*
X-278847D01*
X-280180D01*
Y354997D01*
X-281513Y353665D01*
X-381500Y354997D02*
Y347000D01*
X-377501D01*
X-376168Y348333D01*
Y353665D01*
X-377501Y354997D01*
X-381500D01*
X-373503Y353665D02*
X-372170Y354997D01*
X-369504D01*
X-368171Y353665D01*
Y352332D01*
X-369504Y350999D01*
X-370837D01*
X-369504D01*
X-368171Y349666D01*
Y348333D01*
X-369504Y347000D01*
X-372170D01*
X-373503Y348333D01*
X-365505Y345667D02*
X-360173D01*
X-357508Y354997D02*
Y347000D01*
X-354842Y349666D01*
X-352176Y347000D01*
Y354997D01*
X-344179Y353665D02*
X-345512Y354997D01*
X-348177D01*
X-349510Y353665D01*
Y352332D01*
X-348177Y350999D01*
X-345512D01*
X-344179Y349666D01*
Y348333D01*
X-345512Y347000D01*
X-348177D01*
X-349510Y348333D01*
X-341513Y347000D02*
X-338847D01*
X-340180D01*
Y354997D01*
X-341513Y353665D01*
X-441500Y354997D02*
Y347000D01*
X-437501D01*
X-436168Y348333D01*
Y353665D01*
X-437501Y354997D01*
X-441500D01*
X-428171Y347000D02*
X-433503D01*
X-428171Y352332D01*
Y353665D01*
X-429504Y354997D01*
X-432170D01*
X-433503Y353665D01*
X-425505Y345667D02*
X-420174D01*
X-417508Y354997D02*
Y347000D01*
X-414842Y349666D01*
X-412176Y347000D01*
Y354997D01*
X-404179Y353665D02*
X-405512Y354997D01*
X-408177D01*
X-409510Y353665D01*
Y352332D01*
X-408177Y350999D01*
X-405512D01*
X-404179Y349666D01*
Y348333D01*
X-405512Y347000D01*
X-408177D01*
X-409510Y348333D01*
X-401513Y347000D02*
X-398847D01*
X-400180D01*
Y354997D01*
X-401513Y353665D01*
X-501500Y354997D02*
Y347000D01*
X-497501D01*
X-496168Y348333D01*
Y353665D01*
X-497501Y354997D01*
X-501500D01*
X-493503Y347000D02*
X-490837D01*
X-492170D01*
Y354997D01*
X-493503Y353665D01*
X-486838Y345667D02*
X-481506D01*
X-478841Y354997D02*
Y347000D01*
X-476175Y349666D01*
X-473509Y347000D01*
Y354997D01*
X-465512Y353665D02*
X-466844Y354997D01*
X-469510D01*
X-470843Y353665D01*
Y352332D01*
X-469510Y350999D01*
X-466844D01*
X-465512Y349666D01*
Y348333D01*
X-466844Y347000D01*
X-469510D01*
X-470843Y348333D01*
X-462846Y347000D02*
X-460180D01*
X-461513D01*
Y354997D01*
X-462846Y353665D01*
M02*
