G04 Layer_Physical_Order=1*
G04 Layer_Color=255*
%FSLAX44Y44*%
%MOMM*%
G71*
G01*
G75*
%ADD10R,0.9000X1.5000*%
%ADD11R,0.5500X0.9500*%
%ADD12C,0.2540*%
%ADD13C,0.3810*%
%ADD14C,1.2700*%
%ADD15C,6.0000*%
%ADD16C,1.4500*%
G04:AMPARAMS|DCode=17|XSize=1mm|YSize=1.9mm|CornerRadius=0.25mm|HoleSize=0mm|Usage=FLASHONLY|Rotation=270.000|XOffset=0mm|YOffset=0mm|HoleType=Round|Shape=RoundedRectangle|*
%AMROUNDEDRECTD17*
21,1,1.0000,1.4000,0,0,270.0*
21,1,0.5000,1.9000,0,0,270.0*
1,1,0.5000,-0.7000,-0.2500*
1,1,0.5000,-0.7000,0.2500*
1,1,0.5000,0.7000,0.2500*
1,1,0.5000,0.7000,-0.2500*
%
%ADD17ROUNDEDRECTD17*%
%ADD18C,0.8000*%
%ADD19C,0.5000*%
G36*
X489865Y457300D02*
X494734Y455823D01*
X499222Y453424D01*
X502921Y450389D01*
X503092Y450132D01*
X537632Y415592D01*
X537889Y415421D01*
X540924Y411722D01*
X543323Y407234D01*
X544800Y402364D01*
X545269Y397603D01*
X545209Y397300D01*
Y374800D01*
Y227543D01*
Y225357D01*
X545255Y225127D01*
X544844Y222007D01*
X543551Y218886D01*
X542260Y217203D01*
X541418Y216282D01*
X541418Y216282D01*
X539117Y213283D01*
X537671Y209791D01*
X537177Y206043D01*
X537209D01*
Y-17900D01*
X537177D01*
X537671Y-21648D01*
X539117Y-25140D01*
X541418Y-28139D01*
X541418Y-28139D01*
X542260Y-29060D01*
X543551Y-30743D01*
X544844Y-33864D01*
X545255Y-36984D01*
X545209Y-37213D01*
Y-39400D01*
Y-162500D01*
Y-187300D01*
X545269Y-187603D01*
X544800Y-192365D01*
X543323Y-197234D01*
X540924Y-201722D01*
X537889Y-205421D01*
X537632Y-205592D01*
X496612Y-246612D01*
X493092Y-250132D01*
X493080Y-250120D01*
X489466Y-254352D01*
X486558Y-259097D01*
X484428Y-264240D01*
X483128Y-269652D01*
X482692Y-275200D01*
X482709D01*
Y-320651D01*
X482764Y-320928D01*
X482323Y-325407D01*
X480936Y-329981D01*
X478683Y-334196D01*
X475827Y-337675D01*
X475592Y-337832D01*
X475421Y-338089D01*
X471722Y-341124D01*
X467234Y-343523D01*
X462365Y-345000D01*
X457603Y-345469D01*
X457300Y-345409D01*
X-457300D01*
X-457603Y-345469D01*
X-462365Y-345000D01*
X-467234Y-343523D01*
X-471722Y-341124D01*
X-475421Y-338089D01*
X-475592Y-337832D01*
X-475827Y-337675D01*
X-478683Y-334196D01*
X-480936Y-329981D01*
X-482323Y-325407D01*
X-482764Y-320928D01*
X-482709Y-320651D01*
Y-275200D01*
X-482692D01*
X-483128Y-269652D01*
X-484428Y-264240D01*
X-486558Y-259097D01*
X-489466Y-254352D01*
X-493080Y-250120D01*
X-493092Y-250132D01*
X-496612Y-246612D01*
X-496612Y-246612D01*
X-537632Y-205592D01*
X-537889Y-205421D01*
X-540924Y-201722D01*
X-543323Y-197234D01*
X-544800Y-192365D01*
X-545269Y-187603D01*
X-545209Y-187300D01*
Y-39400D01*
Y-37213D01*
X-545255Y-36984D01*
X-544844Y-33864D01*
X-543551Y-30743D01*
X-542260Y-29060D01*
X-541418Y-28139D01*
X-541418Y-28139D01*
X-539117Y-25140D01*
X-537671Y-21648D01*
X-537177Y-17900D01*
X-537209D01*
Y181728D01*
X-535987Y182073D01*
X-535582Y181413D01*
X-532360Y177640D01*
X-528587Y174418D01*
X-524356Y171825D01*
X-519772Y169926D01*
X-514947Y168768D01*
X-510000Y168379D01*
X-505053Y168768D01*
X-500228Y169926D01*
X-495644Y171825D01*
X-491413Y174418D01*
X-487640Y177640D01*
X-484418Y181413D01*
X-481825Y185644D01*
X-479926Y190228D01*
X-478768Y195053D01*
X-478378Y200000D01*
X-478768Y204947D01*
X-479926Y209772D01*
X-481825Y214356D01*
X-484418Y218587D01*
X-487640Y222360D01*
X-491413Y225582D01*
X-495644Y228175D01*
X-500228Y230074D01*
X-505053Y231232D01*
X-510000Y231621D01*
X-514947Y231232D01*
X-519772Y230074D01*
X-524356Y228175D01*
X-528587Y225582D01*
X-532360Y222360D01*
X-535582Y218587D01*
X-538175Y214356D01*
X-538233Y214216D01*
X-539687Y214025D01*
X-541418Y216282D01*
X-541418Y216282D01*
X-542260Y217203D01*
X-543551Y218886D01*
X-544844Y222007D01*
X-545255Y225127D01*
X-545209Y225357D01*
Y227543D01*
Y374800D01*
Y397300D01*
X-545269Y397603D01*
X-544800Y402364D01*
X-543323Y407234D01*
X-540924Y411722D01*
X-537889Y415421D01*
X-537632Y415592D01*
X-503092Y450132D01*
X-502921Y450389D01*
X-499222Y453424D01*
X-494734Y455823D01*
X-489865Y457300D01*
X-485103Y457769D01*
X-484800Y457709D01*
X484800D01*
X485103Y457769D01*
X489865Y457300D01*
D02*
G37*
%LPC*%
G36*
X478000Y82849D02*
X478000Y82849D01*
X240000D01*
X240000Y82849D01*
X238910Y82632D01*
X237986Y82014D01*
X215970Y59999D01*
X73660D01*
X73660Y59999D01*
X72570Y59782D01*
X71646Y59164D01*
X71646Y59164D01*
X36246Y23764D01*
X35628Y22840D01*
X35411Y21750D01*
X35411Y21750D01*
Y-31680D01*
X20410Y-46681D01*
X1180D01*
X-37516Y-7986D01*
X-38440Y-7368D01*
X-39530Y-7151D01*
X-39530Y-7151D01*
X-478820D01*
X-490651Y4680D01*
Y6350D01*
X-489000D01*
X-487834Y6834D01*
X-487350Y8000D01*
Y23000D01*
X-487834Y24166D01*
X-489000Y24650D01*
X-498000D01*
X-499166Y24166D01*
X-499650Y23000D01*
Y8000D01*
X-499166Y6834D01*
X-498000Y6350D01*
X-496349D01*
Y3771D01*
X-497105Y3394D01*
X-497579Y3327D01*
X-498017Y3983D01*
X-499845Y5203D01*
X-502000Y5632D01*
X-504155Y5203D01*
X-504927Y4688D01*
X-506484Y5175D01*
X-506584Y5416D01*
X-507651Y5859D01*
Y34320D01*
X-491486Y50486D01*
X-491486Y50486D01*
X-490868Y51410D01*
X-490651Y52500D01*
X-490651Y52500D01*
Y55350D01*
X-489000D01*
X-487834Y55834D01*
X-487350Y57000D01*
Y72000D01*
X-487834Y73166D01*
X-489000Y73650D01*
X-498000D01*
X-499166Y73166D01*
X-499650Y72000D01*
Y57000D01*
X-499166Y55834D01*
X-498000Y55350D01*
X-496349D01*
Y53680D01*
X-512514Y37514D01*
X-513132Y36590D01*
X-513349Y35500D01*
X-513349Y35500D01*
Y5859D01*
X-514416Y5416D01*
X-514900Y4250D01*
Y-5250D01*
X-514416Y-6416D01*
X-513250Y-6900D01*
X-507750D01*
X-506584Y-6416D01*
X-506159Y-5392D01*
X-505903Y-5173D01*
X-504831Y-4752D01*
X-504155Y-5203D01*
X-502000Y-5632D01*
X-499845Y-5203D01*
X-498017Y-3983D01*
X-496796Y-2155D01*
X-496368Y0D01*
X-496516Y743D01*
X-496071Y1073D01*
X-495332Y1303D01*
X-482014Y-12014D01*
X-482014Y-12014D01*
X-481090Y-12632D01*
X-480000Y-12849D01*
X-480000Y-12849D01*
X-40710D01*
X-2014Y-51544D01*
X-2014Y-51544D01*
X-1090Y-52162D01*
X0Y-52379D01*
X0Y-52379D01*
X21590D01*
X21590Y-52379D01*
X22680Y-52162D01*
X23604Y-51544D01*
X40274Y-34874D01*
X40892Y-33950D01*
X41109Y-32860D01*
X41109Y-32860D01*
Y20570D01*
X74840Y54301D01*
X217150D01*
X217150Y54301D01*
X218240Y54518D01*
X219164Y55136D01*
X241180Y77151D01*
X476820D01*
X487350Y66621D01*
Y57000D01*
X487834Y55834D01*
X489000Y55350D01*
X498000D01*
X499166Y55834D01*
X499650Y57000D01*
Y72000D01*
X499166Y73166D01*
X498000Y73650D01*
X489000D01*
X488561Y73468D01*
X480014Y82014D01*
X479090Y82632D01*
X478000Y82849D01*
D02*
G37*
G36*
X-429678Y85206D02*
X-430000Y85142D01*
X-430322Y85206D01*
X-432078Y84857D01*
X-432350Y84675D01*
X-432672Y84611D01*
X-434161Y83616D01*
X-434343Y83343D01*
X-434616Y83161D01*
X-435611Y81672D01*
X-435675Y81350D01*
X-435857Y81078D01*
X-436206Y79322D01*
X-436173Y79156D01*
X-436238Y79000D01*
X-436173Y78844D01*
X-436206Y78678D01*
X-435857Y76922D01*
X-435675Y76650D01*
X-435611Y76328D01*
X-434616Y74839D01*
X-434343Y74657D01*
X-434161Y74384D01*
X-432672Y73390D01*
X-432350Y73326D01*
X-432078Y73143D01*
X-430322Y72794D01*
X-430000Y72858D01*
X-429678Y72794D01*
X-427922Y73143D01*
X-427650Y73326D01*
X-427328Y73390D01*
X-425839Y74384D01*
X-425657Y74657D01*
X-425384Y74839D01*
X-424389Y76328D01*
X-424325Y76650D01*
X-424143Y76922D01*
X-423794Y78678D01*
X-423827Y78844D01*
X-423762Y79000D01*
X-423827Y79156D01*
X-423794Y79322D01*
X-424143Y81078D01*
X-424325Y81350D01*
X-424389Y81672D01*
X-425384Y83161D01*
X-425657Y83343D01*
X-425839Y83616D01*
X-427328Y84611D01*
X-427650Y84675D01*
X-427922Y84857D01*
X-429678Y85206D01*
D02*
G37*
G36*
X30000Y184632D02*
X27845Y184203D01*
X26017Y182983D01*
X24797Y181155D01*
X24368Y179000D01*
X24797Y176845D01*
X26017Y175017D01*
X27845Y173797D01*
X30000Y173368D01*
X32155Y173797D01*
X33983Y175017D01*
X34740Y176151D01*
X37820D01*
X105634Y108337D01*
X105368Y107000D01*
X105796Y104845D01*
X107017Y103017D01*
X108845Y101797D01*
X111000Y101368D01*
X113155Y101797D01*
X114983Y103017D01*
X116203Y104845D01*
X116632Y107000D01*
X116203Y109155D01*
X114983Y110983D01*
X113155Y112204D01*
X111000Y112632D01*
X109663Y112366D01*
X41014Y181014D01*
X40090Y181632D01*
X39000Y181849D01*
X39000Y181849D01*
X34740D01*
X33983Y182983D01*
X32155Y184203D01*
X30000Y184632D01*
D02*
G37*
G36*
X106000Y72632D02*
X103845Y72203D01*
X102017Y70983D01*
X100796Y69155D01*
X100368Y67000D01*
X100796Y64845D01*
X102017Y63017D01*
X103845Y61796D01*
X106000Y61368D01*
X108155Y61796D01*
X109983Y63017D01*
X111203Y64845D01*
X111632Y67000D01*
X111203Y69155D01*
X109983Y70983D01*
X108155Y72203D01*
X106000Y72632D01*
D02*
G37*
G36*
X-522000Y73650D02*
X-531000D01*
X-532166Y73166D01*
X-532650Y72000D01*
Y57000D01*
X-532166Y55834D01*
X-531000Y55350D01*
X-522000D01*
X-520834Y55834D01*
X-520350Y57000D01*
Y72000D01*
X-520834Y73166D01*
X-522000Y73650D01*
D02*
G37*
G36*
X-361500Y70632D02*
X-363655Y70203D01*
X-365483Y68983D01*
X-366703Y67155D01*
X-367132Y65000D01*
X-366703Y62845D01*
X-365483Y61017D01*
X-363655Y59797D01*
X-361500Y59368D01*
X-359345Y59797D01*
X-357517Y61017D01*
X-356297Y62845D01*
X-355868Y65000D01*
X-356297Y67155D01*
X-357517Y68983D01*
X-359345Y70203D01*
X-361500Y70632D01*
D02*
G37*
G36*
X-100500Y72132D02*
X-102655Y71704D01*
X-104483Y70483D01*
X-105703Y68655D01*
X-106132Y66500D01*
X-105703Y64345D01*
X-104483Y62517D01*
X-102655Y61297D01*
X-100500Y60868D01*
X-98345Y61297D01*
X-96517Y62517D01*
X-95296Y64345D01*
X-94868Y66500D01*
X-95296Y68655D01*
X-96517Y70483D01*
X-98345Y71704D01*
X-100500Y72132D01*
D02*
G37*
G36*
X504957Y137230D02*
X496520D01*
Y128793D01*
X497806Y128962D01*
X500187Y129949D01*
X502232Y131518D01*
X503802Y133563D01*
X504788Y135944D01*
X504957Y137230D01*
D02*
G37*
G36*
X520980Y136139D02*
X515250D01*
X513284Y135748D01*
X511616Y134634D01*
X510503Y132966D01*
X510111Y131000D01*
Y129770D01*
X520980D01*
Y136139D01*
D02*
G37*
G36*
X529250D02*
X523520D01*
Y129770D01*
X534389D01*
Y131000D01*
X533998Y132966D01*
X532884Y134634D01*
X531217Y135748D01*
X529250Y136139D01*
D02*
G37*
G36*
X493980Y137230D02*
X485543D01*
X485712Y135944D01*
X486698Y133563D01*
X488268Y131518D01*
X490313Y129949D01*
X492694Y128962D01*
X493980Y128793D01*
Y137230D01*
D02*
G37*
G36*
X520980Y127230D02*
X510111D01*
Y126000D01*
X510503Y124033D01*
X511616Y122366D01*
X513284Y121252D01*
X515250Y120861D01*
X520980D01*
Y127230D01*
D02*
G37*
G36*
X534389D02*
X523520D01*
Y120861D01*
X529250D01*
X531217Y121252D01*
X532884Y122366D01*
X533998Y124033D01*
X534389Y126000D01*
Y127230D01*
D02*
G37*
G36*
X-60500Y134132D02*
X-62655Y133703D01*
X-64483Y132483D01*
X-65704Y130655D01*
X-66132Y128500D01*
X-65704Y126345D01*
X-64483Y124517D01*
X-62655Y123296D01*
X-60500Y122868D01*
X-58345Y123296D01*
X-56517Y124517D01*
X-55297Y126345D01*
X-54868Y128500D01*
X-55297Y130655D01*
X-56517Y132483D01*
X-58345Y133703D01*
X-60500Y134132D01*
D02*
G37*
G36*
X331000Y24232D02*
X328845Y23804D01*
X327018Y22583D01*
X325797Y20755D01*
X325368Y18600D01*
X325797Y16445D01*
X327018Y14617D01*
X328845Y13397D01*
X331000Y12968D01*
X333155Y13397D01*
X334983Y14617D01*
X336203Y16445D01*
X336632Y18600D01*
X336203Y20755D01*
X334983Y22583D01*
X333155Y23804D01*
X331000Y24232D01*
D02*
G37*
G36*
X384170Y27522D02*
X382015Y27094D01*
X380187Y25873D01*
X378966Y24045D01*
X378538Y21890D01*
X378966Y19735D01*
X380187Y17907D01*
X382015Y16687D01*
X384170Y16258D01*
X386325Y16687D01*
X388153Y17907D01*
X389374Y19735D01*
X389802Y21890D01*
X389374Y24045D01*
X388153Y25873D01*
X386325Y27094D01*
X384170Y27522D01*
D02*
G37*
G36*
X-527770Y25590D02*
X-531000D01*
X-531991Y25393D01*
X-532831Y24831D01*
X-533393Y23991D01*
X-533590Y23000D01*
Y16770D01*
X-527770D01*
Y25590D01*
D02*
G37*
G36*
X-370000Y13132D02*
X-372155Y12703D01*
X-373983Y11483D01*
X-375204Y9655D01*
X-375632Y7500D01*
X-375204Y5345D01*
X-373983Y3517D01*
X-372155Y2297D01*
X-370000Y1868D01*
X-367845Y2297D01*
X-366017Y3517D01*
X-364796Y5345D01*
X-364368Y7500D01*
X-364796Y9655D01*
X-366017Y11483D01*
X-367845Y12703D01*
X-370000Y13132D01*
D02*
G37*
G36*
X498840Y-1770D02*
X494770D01*
Y-7840D01*
X496250D01*
X497241Y-7643D01*
X498081Y-7081D01*
X498643Y-6241D01*
X498840Y-5250D01*
Y-1770D01*
D02*
G37*
G36*
X-373380Y191052D02*
X-375535Y190623D01*
X-377363Y189403D01*
X-378583Y187575D01*
X-379012Y185420D01*
X-378583Y183265D01*
X-377363Y181437D01*
X-375535Y180217D01*
X-373380Y179788D01*
X-371225Y180217D01*
X-369397Y181437D01*
X-368640Y182571D01*
X-324100D01*
X-254514Y112986D01*
X-254514Y112986D01*
X-253590Y112368D01*
X-252500Y112151D01*
X-252500Y112151D01*
X-19740D01*
X-18983Y111017D01*
X-17155Y109796D01*
X-15000Y109368D01*
X-12845Y109796D01*
X-11017Y111017D01*
X-9797Y112845D01*
X-9766Y112997D01*
X-8496Y112872D01*
Y88948D01*
X-43948Y53496D01*
X-325000D01*
X-325000Y53496D01*
X-326338Y53230D01*
X-327472Y52472D01*
X-327472Y52472D01*
X-340472Y39472D01*
X-341230Y38338D01*
X-341496Y37000D01*
Y29308D01*
X-341983Y28983D01*
X-343204Y27155D01*
X-343632Y25000D01*
X-343204Y22845D01*
X-341983Y21017D01*
X-340155Y19797D01*
X-338000Y19368D01*
X-335845Y19797D01*
X-334017Y21017D01*
X-332797Y22845D01*
X-332368Y25000D01*
X-332797Y27155D01*
X-334017Y28983D01*
X-334504Y29308D01*
Y35552D01*
X-323552Y46504D01*
X-42500D01*
X-41162Y46770D01*
X-40028Y47528D01*
X-2528Y85028D01*
X-1770Y86162D01*
X-1579Y87123D01*
X-309Y86998D01*
Y-90D01*
X-6260Y-6041D01*
X-15580D01*
X-16337Y-4907D01*
X-18165Y-3686D01*
X-20320Y-3258D01*
X-22475Y-3686D01*
X-24303Y-4907D01*
X-25524Y-6735D01*
X-25952Y-8890D01*
X-25524Y-11045D01*
X-24303Y-12873D01*
X-22475Y-14094D01*
X-20320Y-14522D01*
X-18165Y-14094D01*
X-16337Y-12873D01*
X-15580Y-11739D01*
X-5080D01*
X-5080Y-11739D01*
X-3990Y-11522D01*
X-3066Y-10904D01*
X4554Y-3284D01*
X5172Y-2360D01*
X5389Y-1270D01*
X5389Y-1270D01*
Y96610D01*
X18524Y109746D01*
X18524Y109746D01*
X19142Y110670D01*
X19359Y111760D01*
Y129540D01*
X19359Y129540D01*
X19142Y130630D01*
X18524Y131554D01*
X-9381Y159460D01*
Y162010D01*
X-8247Y162767D01*
X-7027Y164595D01*
X-6598Y166750D01*
X-7027Y168905D01*
X-8247Y170733D01*
X-10075Y171954D01*
X-12230Y172382D01*
X-14385Y171954D01*
X-16213Y170733D01*
X-17434Y168905D01*
X-17862Y166750D01*
X-17434Y164595D01*
X-16213Y162767D01*
X-15079Y162010D01*
Y158280D01*
X-15079Y158280D01*
X-14862Y157190D01*
X-14244Y156266D01*
X13661Y128360D01*
Y112940D01*
X526Y99804D01*
X-92Y98880D01*
X-234Y98167D01*
X-1504Y98292D01*
Y130000D01*
X-1770Y131338D01*
X-2528Y132472D01*
X-29004Y158948D01*
Y178192D01*
X-28517Y178517D01*
X-27297Y180345D01*
X-26868Y182500D01*
X-27297Y184655D01*
X-28517Y186483D01*
X-30345Y187703D01*
X-32500Y188132D01*
X-34655Y187703D01*
X-36483Y186483D01*
X-37703Y184655D01*
X-38132Y182500D01*
X-37703Y180345D01*
X-36483Y178517D01*
X-35996Y178192D01*
Y157500D01*
X-35730Y156162D01*
X-34972Y155028D01*
X-8496Y128552D01*
Y117128D01*
X-9766Y117003D01*
X-9797Y117155D01*
X-11017Y118983D01*
X-12845Y120204D01*
X-15000Y120632D01*
X-17155Y120204D01*
X-18983Y118983D01*
X-19740Y117849D01*
X-251320D01*
X-320906Y187434D01*
X-321830Y188052D01*
X-322920Y188269D01*
X-322920Y188269D01*
X-368640D01*
X-369397Y189403D01*
X-371225Y190623D01*
X-373380Y191052D01*
D02*
G37*
G36*
X-519410Y14230D02*
X-526500D01*
X-533590D01*
Y8000D01*
X-533393Y7009D01*
X-532831Y6169D01*
X-531991Y5607D01*
X-531834Y4281D01*
X-531840Y4250D01*
Y770D01*
X-526500D01*
X-521160D01*
Y4250D01*
X-521357Y5241D01*
X-520363Y6039D01*
X-520169Y6169D01*
X-519607Y7009D01*
X-519410Y8000D01*
Y14230D01*
D02*
G37*
G36*
X384170Y45302D02*
X382015Y44873D01*
X380187Y43653D01*
X378966Y41825D01*
X378538Y39670D01*
X378966Y37515D01*
X380187Y35687D01*
X382015Y34467D01*
X384170Y34038D01*
X386325Y34467D01*
X388153Y35687D01*
X389374Y37515D01*
X389802Y39670D01*
X389374Y41825D01*
X388153Y43653D01*
X386325Y44873D01*
X384170Y45302D01*
D02*
G37*
G36*
X78000Y48132D02*
X75845Y47703D01*
X74017Y46483D01*
X72797Y44655D01*
X72368Y42500D01*
X72482Y41926D01*
X64838Y34282D01*
X64080Y33148D01*
X63814Y31810D01*
Y-23952D01*
X-15172Y-102938D01*
X-15930Y-104072D01*
X-16196Y-105410D01*
Y-119202D01*
X-47472Y-150478D01*
X-48230Y-151612D01*
X-48496Y-152950D01*
Y-257260D01*
X-48230Y-258598D01*
X-47472Y-259732D01*
X-46158Y-261046D01*
X-46272Y-261620D01*
X-45844Y-263775D01*
X-44623Y-265603D01*
X-42795Y-266824D01*
X-40640Y-267252D01*
X-38485Y-266824D01*
X-36657Y-265603D01*
X-35436Y-263775D01*
X-35008Y-261620D01*
X-35436Y-259465D01*
X-36657Y-257637D01*
X-38485Y-256416D01*
X-40640Y-255988D01*
X-41504Y-254885D01*
Y-154398D01*
X-10228Y-123122D01*
X-10228Y-123122D01*
X-9470Y-121988D01*
X-9204Y-120650D01*
Y-106858D01*
X69782Y-27872D01*
X70540Y-26738D01*
X70806Y-25400D01*
X70806Y-25400D01*
Y30362D01*
X77426Y36982D01*
X78000Y36868D01*
X80155Y37297D01*
X81983Y38517D01*
X83203Y40345D01*
X83632Y42500D01*
X83203Y44655D01*
X81983Y46483D01*
X80155Y47703D01*
X78000Y48132D01*
D02*
G37*
G36*
X384170Y70702D02*
X382015Y70273D01*
X380187Y69053D01*
X378966Y67225D01*
X378538Y65070D01*
X378966Y62915D01*
X380187Y61087D01*
X380880Y60625D01*
Y59355D01*
X380187Y58893D01*
X378966Y57065D01*
X378538Y54910D01*
X378966Y52755D01*
X380187Y50927D01*
X382015Y49707D01*
X384170Y49278D01*
X386325Y49707D01*
X388153Y50927D01*
X389374Y52755D01*
X389802Y54910D01*
X389374Y57065D01*
X388153Y58893D01*
X387461Y59355D01*
Y60625D01*
X388153Y61087D01*
X389374Y62915D01*
X389802Y65070D01*
X389374Y67225D01*
X388153Y69053D01*
X386325Y70273D01*
X384170Y70702D01*
D02*
G37*
G36*
X-252000Y37632D02*
X-254155Y37204D01*
X-255983Y35983D01*
X-257204Y34155D01*
X-257632Y32000D01*
X-257204Y29845D01*
X-255983Y28017D01*
X-254155Y26797D01*
X-252000Y26368D01*
X-249845Y26797D01*
X-248017Y28017D01*
X-246796Y29845D01*
X-246368Y32000D01*
X-246796Y34155D01*
X-248017Y35983D01*
X-249845Y37204D01*
X-252000Y37632D01*
D02*
G37*
G36*
X492230Y25590D02*
X489000D01*
X488009Y25393D01*
X487169Y24831D01*
X486607Y23991D01*
X486410Y23000D01*
Y16770D01*
X492230D01*
Y25590D01*
D02*
G37*
G36*
X-522000D02*
X-525230D01*
Y16770D01*
X-519410D01*
Y23000D01*
X-519607Y23991D01*
X-520169Y24831D01*
X-521009Y25393D01*
X-522000Y25590D01*
D02*
G37*
G36*
X498000D02*
X494770D01*
Y16770D01*
X500590D01*
Y23000D01*
X500393Y23991D01*
X499831Y24831D01*
X498991Y25393D01*
X498000Y25590D01*
D02*
G37*
G36*
X-152500Y233132D02*
X-154655Y232703D01*
X-156483Y231483D01*
X-157704Y229655D01*
X-158132Y227500D01*
X-157704Y225345D01*
X-156483Y223517D01*
X-154655Y222297D01*
X-152500Y221868D01*
X-150345Y222297D01*
X-148517Y223517D01*
X-147296Y225345D01*
X-146868Y227500D01*
X-147296Y229655D01*
X-148517Y231483D01*
X-150345Y232703D01*
X-152500Y233132D01*
D02*
G37*
G36*
X-30000D02*
X-32155Y232703D01*
X-33983Y231483D01*
X-35203Y229655D01*
X-35632Y227500D01*
X-35203Y225345D01*
X-33983Y223517D01*
X-32155Y222297D01*
X-30000Y221868D01*
X-27845Y222297D01*
X-26017Y223517D01*
X-24797Y225345D01*
X-24368Y227500D01*
X-24797Y229655D01*
X-26017Y231483D01*
X-27845Y232703D01*
X-30000Y233132D01*
D02*
G37*
G36*
X94450Y233342D02*
X92295Y232913D01*
X90467Y231693D01*
X89247Y229865D01*
X88818Y227710D01*
X89247Y225555D01*
X90467Y223727D01*
X92295Y222507D01*
X94450Y222078D01*
X96605Y222507D01*
X98433Y223727D01*
X99654Y225555D01*
X100082Y227710D01*
X99654Y229865D01*
X98433Y231693D01*
X96605Y232913D01*
X94450Y233342D01*
D02*
G37*
G36*
X86830Y220642D02*
X84675Y220214D01*
X82847Y218993D01*
X81627Y217165D01*
X81198Y215010D01*
X81627Y212855D01*
X82847Y211027D01*
X84675Y209806D01*
X86830Y209378D01*
X88985Y209806D01*
X90813Y211027D01*
X92034Y212855D01*
X92462Y215010D01*
X92034Y217165D01*
X90813Y218993D01*
X88985Y220214D01*
X86830Y220642D01*
D02*
G37*
G36*
X520980Y206139D02*
X515250D01*
X513284Y205748D01*
X511616Y204634D01*
X510503Y202966D01*
X510111Y201000D01*
Y199770D01*
X520980D01*
Y206139D01*
D02*
G37*
G36*
X529250D02*
X523520D01*
Y199770D01*
X534389D01*
Y201000D01*
X533998Y202966D01*
X532884Y204634D01*
X531217Y205748D01*
X529250Y206139D01*
D02*
G37*
G36*
X386500Y216632D02*
X384345Y216203D01*
X382517Y214983D01*
X381297Y213155D01*
X380868Y211000D01*
X381297Y208845D01*
X382517Y207017D01*
X384345Y205797D01*
X386500Y205368D01*
X388655Y205797D01*
X390483Y207017D01*
X391703Y208845D01*
X392132Y211000D01*
X391703Y213155D01*
X390483Y214983D01*
X388655Y216203D01*
X386500Y216632D01*
D02*
G37*
G36*
X86830Y246042D02*
X84675Y245613D01*
X82847Y244393D01*
X81627Y242565D01*
X81198Y240410D01*
X81627Y238255D01*
X82847Y236427D01*
X84675Y235207D01*
X86830Y234778D01*
X88985Y235207D01*
X90813Y236427D01*
X92034Y238255D01*
X92462Y240410D01*
X92034Y242565D01*
X90813Y244393D01*
X88985Y245613D01*
X86830Y246042D01*
D02*
G37*
G36*
X112230Y253662D02*
X110075Y253234D01*
X108247Y252013D01*
X107027Y250185D01*
X106598Y248030D01*
X106864Y246693D01*
X105136Y244964D01*
X104518Y244040D01*
X104301Y242950D01*
X104301Y242950D01*
Y237530D01*
X103167Y236773D01*
X101946Y234945D01*
X101518Y232790D01*
X101946Y230635D01*
X103167Y228807D01*
X104995Y227586D01*
X107150Y227158D01*
X109305Y227586D01*
X111133Y228807D01*
X112353Y230635D01*
X112782Y232790D01*
X112353Y234945D01*
X111133Y236773D01*
X109999Y237530D01*
Y241770D01*
X110892Y242664D01*
X112230Y242398D01*
X114385Y242826D01*
X116213Y244047D01*
X117434Y245875D01*
X117862Y248030D01*
X117434Y250185D01*
X116213Y252013D01*
X114385Y253234D01*
X112230Y253662D01*
D02*
G37*
G36*
X-51000Y254132D02*
X-53155Y253703D01*
X-54983Y252483D01*
X-56203Y250655D01*
X-56632Y248500D01*
X-56203Y246345D01*
X-54983Y244517D01*
X-53155Y243297D01*
X-51000Y242868D01*
X-48845Y243297D01*
X-47017Y244517D01*
X-45796Y246345D01*
X-45368Y248500D01*
X-45796Y250655D01*
X-47017Y252483D01*
X-48845Y253703D01*
X-51000Y254132D01*
D02*
G37*
G36*
X132550Y244782D02*
X130395Y244354D01*
X128567Y243133D01*
X127346Y241305D01*
X126918Y239150D01*
X127346Y236995D01*
X128567Y235167D01*
X130395Y233946D01*
X132550Y233518D01*
X134705Y233946D01*
X136533Y235167D01*
X137753Y236995D01*
X138182Y239150D01*
X137753Y241305D01*
X136533Y243133D01*
X134705Y244354D01*
X132550Y244782D01*
D02*
G37*
G36*
X-110000Y235632D02*
X-112155Y235203D01*
X-113983Y233983D01*
X-115204Y232155D01*
X-115632Y230000D01*
X-115204Y227845D01*
X-113983Y226017D01*
X-112155Y224797D01*
X-110000Y224368D01*
X-107845Y224797D01*
X-106017Y226017D01*
X-104796Y227845D01*
X-104368Y230000D01*
X-104796Y232155D01*
X-106017Y233983D01*
X-107845Y235203D01*
X-110000Y235632D01*
D02*
G37*
G36*
X-2070Y235882D02*
X-4225Y235453D01*
X-6053Y234233D01*
X-7273Y232405D01*
X-7702Y230250D01*
X-7273Y228095D01*
X-6053Y226267D01*
X-4225Y225047D01*
X-2070Y224618D01*
X85Y225047D01*
X1913Y226267D01*
X3133Y228095D01*
X3562Y230250D01*
X3133Y232405D01*
X1913Y234233D01*
X85Y235453D01*
X-2070Y235882D01*
D02*
G37*
G36*
X13170D02*
X11015Y235453D01*
X9187Y234233D01*
X7966Y232405D01*
X7538Y230250D01*
X7966Y228095D01*
X9187Y226267D01*
X11015Y225047D01*
X13170Y224618D01*
X15325Y225047D01*
X17153Y226267D01*
X18374Y228095D01*
X18802Y230250D01*
X18374Y232405D01*
X17153Y234233D01*
X15325Y235453D01*
X13170Y235882D01*
D02*
G37*
G36*
X146872Y162856D02*
X146550Y162792D01*
X146228Y162856D01*
X144472Y162507D01*
X144200Y162325D01*
X143878Y162260D01*
X142389Y161266D01*
X142207Y160993D01*
X141934Y160811D01*
X140940Y159322D01*
X140876Y159000D01*
X140693Y158728D01*
X140344Y156972D01*
X140377Y156806D01*
X140312Y156650D01*
X140377Y156494D01*
X140344Y156328D01*
X140693Y154572D01*
X140876Y154299D01*
X140940Y153978D01*
X141934Y152489D01*
X142207Y152307D01*
X142389Y152034D01*
X143878Y151039D01*
X144200Y150976D01*
X144472Y150793D01*
X146228Y150444D01*
X146550Y150508D01*
X146872Y150444D01*
X148628Y150793D01*
X148900Y150976D01*
X149222Y151039D01*
X150711Y152034D01*
X150893Y152307D01*
X151166Y152489D01*
X152161Y153978D01*
X152225Y154299D01*
X152407Y154572D01*
X152756Y156328D01*
X152723Y156494D01*
X152788Y156650D01*
X152723Y156806D01*
X152756Y156972D01*
X152407Y158728D01*
X152225Y159000D01*
X152161Y159322D01*
X151166Y160811D01*
X150893Y160993D01*
X150711Y161266D01*
X149222Y162260D01*
X148900Y162325D01*
X148628Y162507D01*
X146872Y162856D01*
D02*
G37*
G36*
X112230Y180002D02*
X110075Y179573D01*
X108247Y178353D01*
X107027Y176525D01*
X106598Y174370D01*
X107027Y172215D01*
X108247Y170387D01*
X110075Y169167D01*
X112230Y168738D01*
X114385Y169167D01*
X116213Y170387D01*
X117434Y172215D01*
X117862Y174370D01*
X117434Y176525D01*
X116213Y178353D01*
X114385Y179573D01*
X112230Y180002D01*
D02*
G37*
G36*
X504957Y187230D02*
X496520D01*
Y178793D01*
X497806Y178962D01*
X500187Y179949D01*
X502232Y181518D01*
X503802Y183563D01*
X504788Y185944D01*
X504957Y187230D01*
D02*
G37*
G36*
X-429678Y156206D02*
X-430000Y156142D01*
X-430322Y156206D01*
X-432078Y155857D01*
X-432350Y155674D01*
X-432672Y155611D01*
X-434161Y154616D01*
X-434343Y154343D01*
X-434616Y154161D01*
X-435611Y152672D01*
X-435675Y152350D01*
X-435857Y152078D01*
X-436206Y150322D01*
X-436173Y150156D01*
X-436238Y150000D01*
X-436173Y149844D01*
X-436206Y149678D01*
X-435857Y147922D01*
X-435675Y147650D01*
X-435611Y147328D01*
X-434616Y145839D01*
X-434343Y145657D01*
X-434161Y145384D01*
X-432672Y144389D01*
X-432350Y144326D01*
X-432078Y144143D01*
X-430322Y143794D01*
X-430000Y143858D01*
X-429678Y143794D01*
X-427922Y144143D01*
X-427650Y144326D01*
X-427328Y144389D01*
X-425839Y145384D01*
X-425657Y145657D01*
X-425384Y145839D01*
X-424389Y147328D01*
X-424325Y147650D01*
X-424143Y147922D01*
X-423794Y149678D01*
X-423827Y149844D01*
X-423762Y150000D01*
X-423827Y150156D01*
X-423794Y150322D01*
X-424143Y152078D01*
X-424325Y152350D01*
X-424389Y152672D01*
X-425384Y154161D01*
X-425657Y154343D01*
X-425839Y154616D01*
X-427328Y155611D01*
X-427650Y155674D01*
X-427922Y155857D01*
X-429678Y156206D01*
D02*
G37*
G36*
X493980Y148207D02*
X492694Y148038D01*
X490313Y147051D01*
X488268Y145482D01*
X486698Y143437D01*
X485712Y141056D01*
X485543Y139770D01*
X493980D01*
Y148207D01*
D02*
G37*
G36*
X496520D02*
Y139770D01*
X504957D01*
X504788Y141056D01*
X503802Y143437D01*
X502232Y145482D01*
X500187Y147051D01*
X497806Y148038D01*
X496520Y148207D01*
D02*
G37*
G36*
X51000Y157132D02*
X48845Y156704D01*
X47017Y155483D01*
X45796Y153655D01*
X45368Y151500D01*
X45796Y149345D01*
X47017Y147517D01*
X48845Y146297D01*
X51000Y145868D01*
X53155Y146297D01*
X54983Y147517D01*
X56203Y149345D01*
X56632Y151500D01*
X56203Y153655D01*
X54983Y155483D01*
X53155Y156704D01*
X51000Y157132D01*
D02*
G37*
G36*
X520980Y197230D02*
X510111D01*
Y196000D01*
X510503Y194034D01*
X511616Y192366D01*
X513284Y191252D01*
X515250Y190861D01*
X520980D01*
Y197230D01*
D02*
G37*
G36*
X534389D02*
X523520D01*
Y190861D01*
X529250D01*
X531217Y191252D01*
X532884Y192366D01*
X533998Y194034D01*
X534389Y196000D01*
Y197230D01*
D02*
G37*
G36*
X94450Y207942D02*
X92295Y207514D01*
X90467Y206293D01*
X89247Y204465D01*
X88818Y202310D01*
X89247Y200155D01*
X90467Y198327D01*
X92295Y197106D01*
X94450Y196678D01*
X96605Y197106D01*
X98433Y198327D01*
X99654Y200155D01*
X100082Y202310D01*
X99654Y204465D01*
X98433Y206293D01*
X96605Y207514D01*
X94450Y207942D01*
D02*
G37*
G36*
X496520Y198207D02*
Y189770D01*
X504957D01*
X504788Y191056D01*
X503802Y193437D01*
X502232Y195482D01*
X500187Y197052D01*
X497806Y198038D01*
X496520Y198207D01*
D02*
G37*
G36*
X493980Y187230D02*
X485543D01*
X485712Y185944D01*
X486698Y183563D01*
X488268Y181518D01*
X490313Y179949D01*
X492694Y178962D01*
X493980Y178793D01*
Y187230D01*
D02*
G37*
G36*
X86830Y195242D02*
X84675Y194813D01*
X82847Y193593D01*
X81627Y191765D01*
X81198Y189610D01*
X81627Y187455D01*
X82847Y185627D01*
X84675Y184407D01*
X86830Y183978D01*
X88985Y184407D01*
X90813Y185627D01*
X92034Y187455D01*
X92462Y189610D01*
X92034Y191765D01*
X90813Y193593D01*
X88985Y194813D01*
X86830Y195242D01*
D02*
G37*
G36*
X493980Y198207D02*
X492694Y198038D01*
X490313Y197052D01*
X488268Y195482D01*
X486698Y193437D01*
X485712Y191056D01*
X485543Y189770D01*
X493980D01*
Y198207D01*
D02*
G37*
G36*
X114300Y-309558D02*
X112245Y-309829D01*
X110329Y-310622D01*
X108684Y-311884D01*
X107422Y-313529D01*
X106629Y-315445D01*
X106358Y-317500D01*
X106629Y-319555D01*
X107422Y-321471D01*
X108684Y-323116D01*
X110329Y-324378D01*
X112245Y-325171D01*
X114300Y-325442D01*
X116355Y-325171D01*
X118271Y-324378D01*
X119916Y-323116D01*
X121178Y-321471D01*
X121971Y-319555D01*
X122242Y-317500D01*
X121971Y-315445D01*
X121178Y-313529D01*
X119916Y-311884D01*
X118271Y-310622D01*
X116355Y-309829D01*
X114300Y-309558D01*
D02*
G37*
G36*
X165100D02*
X163044Y-309829D01*
X161129Y-310622D01*
X159484Y-311884D01*
X158222Y-313529D01*
X157429Y-315445D01*
X157158Y-317500D01*
X157429Y-319555D01*
X158222Y-321471D01*
X159484Y-323116D01*
X161129Y-324378D01*
X163044Y-325171D01*
X165100Y-325442D01*
X167155Y-325171D01*
X169071Y-324378D01*
X170716Y-323116D01*
X171978Y-321471D01*
X172771Y-319555D01*
X173042Y-317500D01*
X172771Y-315445D01*
X171978Y-313529D01*
X170716Y-311884D01*
X169071Y-310622D01*
X167155Y-309829D01*
X165100Y-309558D01*
D02*
G37*
G36*
X240030Y-308701D02*
X238979Y-308839D01*
X236817Y-309735D01*
X234960Y-311160D01*
X233535Y-313017D01*
X232639Y-315179D01*
X232500Y-316230D01*
X240030D01*
Y-308701D01*
D02*
G37*
G36*
X-12700Y-309558D02*
X-14756Y-309829D01*
X-16671Y-310622D01*
X-18316Y-311884D01*
X-19578Y-313529D01*
X-20371Y-315445D01*
X-20642Y-317500D01*
X-20371Y-319555D01*
X-19578Y-321471D01*
X-18316Y-323116D01*
X-16671Y-324378D01*
X-14756Y-325171D01*
X-12700Y-325442D01*
X-10645Y-325171D01*
X-8729Y-324378D01*
X-7084Y-323116D01*
X-5822Y-321471D01*
X-5029Y-319555D01*
X-4758Y-317500D01*
X-5029Y-315445D01*
X-5822Y-313529D01*
X-7084Y-311884D01*
X-8729Y-310622D01*
X-10645Y-309829D01*
X-12700Y-309558D01*
D02*
G37*
G36*
X-88900D02*
X-90955Y-309829D01*
X-92871Y-310622D01*
X-94516Y-311884D01*
X-95778Y-313529D01*
X-96571Y-315445D01*
X-96842Y-317500D01*
X-96571Y-319555D01*
X-95778Y-321471D01*
X-94516Y-323116D01*
X-92871Y-324378D01*
X-90955Y-325171D01*
X-88900Y-325442D01*
X-86845Y-325171D01*
X-84929Y-324378D01*
X-83284Y-323116D01*
X-82022Y-321471D01*
X-81229Y-319555D01*
X-80958Y-317500D01*
X-81229Y-315445D01*
X-82022Y-313529D01*
X-83284Y-311884D01*
X-84929Y-310622D01*
X-86845Y-309829D01*
X-88900Y-309558D01*
D02*
G37*
G36*
X-63500D02*
X-65556Y-309829D01*
X-67471Y-310622D01*
X-69116Y-311884D01*
X-70378Y-313529D01*
X-71171Y-315445D01*
X-71442Y-317500D01*
X-71171Y-319555D01*
X-70378Y-321471D01*
X-69116Y-323116D01*
X-67471Y-324378D01*
X-65556Y-325171D01*
X-63500Y-325442D01*
X-61445Y-325171D01*
X-59529Y-324378D01*
X-57884Y-323116D01*
X-56622Y-321471D01*
X-55829Y-319555D01*
X-55558Y-317500D01*
X-55829Y-315445D01*
X-56622Y-313529D01*
X-57884Y-311884D01*
X-59529Y-310622D01*
X-61445Y-309829D01*
X-63500Y-309558D01*
D02*
G37*
G36*
X-38100D02*
X-40156Y-309829D01*
X-42071Y-310622D01*
X-43716Y-311884D01*
X-44978Y-313529D01*
X-45771Y-315445D01*
X-46042Y-317500D01*
X-45771Y-319555D01*
X-44978Y-321471D01*
X-43716Y-323116D01*
X-42071Y-324378D01*
X-40156Y-325171D01*
X-38100Y-325442D01*
X-36044Y-325171D01*
X-34129Y-324378D01*
X-32484Y-323116D01*
X-31222Y-321471D01*
X-30429Y-319555D01*
X-30158Y-317500D01*
X-30429Y-315445D01*
X-31222Y-313529D01*
X-32484Y-311884D01*
X-34129Y-310622D01*
X-36044Y-309829D01*
X-38100Y-309558D01*
D02*
G37*
G36*
X-317000Y-147762D02*
X-317156Y-147827D01*
X-317322Y-147794D01*
X-319078Y-148143D01*
X-319350Y-148326D01*
X-319672Y-148390D01*
X-321161Y-149384D01*
X-321343Y-149657D01*
X-321616Y-149839D01*
X-322611Y-151328D01*
X-322674Y-151650D01*
X-322857Y-151922D01*
X-323206Y-153678D01*
X-323142Y-154000D01*
X-323206Y-154322D01*
X-322857Y-156078D01*
X-322674Y-156350D01*
X-322611Y-156672D01*
X-321616Y-158161D01*
X-321343Y-158343D01*
X-321161Y-158616D01*
X-319672Y-159611D01*
X-319350Y-159675D01*
X-319078Y-159857D01*
X-317322Y-160206D01*
X-317156Y-160173D01*
X-317000Y-160238D01*
X-316844Y-160173D01*
X-316678Y-160206D01*
X-314922Y-159857D01*
X-314650Y-159675D01*
X-314328Y-159611D01*
X-312839Y-158616D01*
X-312657Y-158343D01*
X-312384Y-158161D01*
X-311390Y-156672D01*
X-311325Y-156350D01*
X-311143Y-156078D01*
X-310794Y-154322D01*
X-310858Y-154000D01*
X-310794Y-153678D01*
X-311143Y-151922D01*
X-311325Y-151650D01*
X-311390Y-151328D01*
X-312384Y-149839D01*
X-312657Y-149657D01*
X-312839Y-149384D01*
X-314328Y-148390D01*
X-314650Y-148326D01*
X-314922Y-148143D01*
X-316678Y-147794D01*
X-316844Y-147827D01*
X-317000Y-147762D01*
D02*
G37*
G36*
X-197000D02*
X-197156Y-147827D01*
X-197322Y-147794D01*
X-199078Y-148143D01*
X-199350Y-148326D01*
X-199672Y-148390D01*
X-201161Y-149384D01*
X-201343Y-149657D01*
X-201616Y-149839D01*
X-202610Y-151328D01*
X-202675Y-151650D01*
X-202857Y-151922D01*
X-203206Y-153678D01*
X-203142Y-154000D01*
X-203206Y-154322D01*
X-202857Y-156078D01*
X-202675Y-156350D01*
X-202610Y-156672D01*
X-201616Y-158161D01*
X-201343Y-158343D01*
X-201161Y-158616D01*
X-199672Y-159611D01*
X-199350Y-159675D01*
X-199078Y-159857D01*
X-197322Y-160206D01*
X-197156Y-160173D01*
X-197000Y-160238D01*
X-196844Y-160173D01*
X-196678Y-160206D01*
X-194922Y-159857D01*
X-194650Y-159675D01*
X-194328Y-159611D01*
X-192839Y-158616D01*
X-192657Y-158343D01*
X-192384Y-158161D01*
X-191390Y-156672D01*
X-191325Y-156350D01*
X-191143Y-156078D01*
X-190794Y-154322D01*
X-190858Y-154000D01*
X-190794Y-153678D01*
X-191143Y-151922D01*
X-191325Y-151650D01*
X-191390Y-151328D01*
X-192384Y-149839D01*
X-192657Y-149657D01*
X-192839Y-149384D01*
X-194328Y-148390D01*
X-194650Y-148326D01*
X-194922Y-148143D01*
X-196678Y-147794D01*
X-196844Y-147827D01*
X-197000Y-147762D01*
D02*
G37*
G36*
X-148000D02*
X-148156Y-147827D01*
X-148322Y-147794D01*
X-150078Y-148143D01*
X-150350Y-148326D01*
X-150672Y-148390D01*
X-152161Y-149384D01*
X-152343Y-149657D01*
X-152616Y-149839D01*
X-153610Y-151328D01*
X-153674Y-151650D01*
X-153857Y-151922D01*
X-154206Y-153678D01*
X-154142Y-154000D01*
X-154206Y-154322D01*
X-153857Y-156078D01*
X-153674Y-156350D01*
X-153610Y-156672D01*
X-152616Y-158161D01*
X-152343Y-158343D01*
X-152161Y-158616D01*
X-150672Y-159611D01*
X-150350Y-159675D01*
X-150078Y-159857D01*
X-148322Y-160206D01*
X-148156Y-160173D01*
X-148000Y-160238D01*
X-147844Y-160173D01*
X-147678Y-160206D01*
X-145922Y-159857D01*
X-145650Y-159675D01*
X-145328Y-159611D01*
X-143839Y-158616D01*
X-143657Y-158343D01*
X-143384Y-158161D01*
X-142389Y-156672D01*
X-142325Y-156350D01*
X-142143Y-156078D01*
X-141794Y-154322D01*
X-141858Y-154000D01*
X-141794Y-153678D01*
X-142143Y-151922D01*
X-142325Y-151650D01*
X-142389Y-151328D01*
X-143384Y-149839D01*
X-143657Y-149657D01*
X-143839Y-149384D01*
X-145328Y-148390D01*
X-145650Y-148326D01*
X-145922Y-148143D01*
X-147678Y-147794D01*
X-147844Y-147827D01*
X-148000Y-147762D01*
D02*
G37*
G36*
X-400500D02*
X-400656Y-147827D01*
X-400822Y-147794D01*
X-402578Y-148143D01*
X-402850Y-148326D01*
X-403172Y-148390D01*
X-404661Y-149384D01*
X-404843Y-149657D01*
X-405116Y-149839D01*
X-406110Y-151328D01*
X-406175Y-151650D01*
X-406357Y-151922D01*
X-406706Y-153678D01*
X-406642Y-154000D01*
X-406706Y-154322D01*
X-406357Y-156078D01*
X-406175Y-156350D01*
X-406110Y-156672D01*
X-405116Y-158161D01*
X-404843Y-158343D01*
X-404661Y-158616D01*
X-403172Y-159611D01*
X-402850Y-159675D01*
X-402578Y-159857D01*
X-400822Y-160206D01*
X-400656Y-160173D01*
X-400500Y-160238D01*
X-400344Y-160173D01*
X-400178Y-160206D01*
X-398422Y-159857D01*
X-398150Y-159675D01*
X-397828Y-159611D01*
X-396339Y-158616D01*
X-396157Y-158343D01*
X-395884Y-158161D01*
X-394889Y-156672D01*
X-394826Y-156350D01*
X-394643Y-156078D01*
X-394294Y-154322D01*
X-394358Y-154000D01*
X-394294Y-153678D01*
X-394643Y-151922D01*
X-394826Y-151650D01*
X-394889Y-151328D01*
X-395884Y-149839D01*
X-396157Y-149657D01*
X-396339Y-149384D01*
X-397828Y-148390D01*
X-398150Y-148326D01*
X-398422Y-148143D01*
X-400178Y-147794D01*
X-400344Y-147827D01*
X-400500Y-147762D01*
D02*
G37*
G36*
X242570Y-308701D02*
Y-316230D01*
X250100D01*
X249961Y-315179D01*
X249065Y-313017D01*
X247640Y-311160D01*
X245783Y-309735D01*
X243621Y-308839D01*
X242570Y-308701D01*
D02*
G37*
G36*
X-510000Y-138378D02*
X-514947Y-138768D01*
X-519772Y-139926D01*
X-524356Y-141825D01*
X-528587Y-144418D01*
X-532360Y-147640D01*
X-535582Y-151413D01*
X-538175Y-155644D01*
X-540074Y-160228D01*
X-541232Y-165053D01*
X-541622Y-170000D01*
X-541232Y-174947D01*
X-540074Y-179772D01*
X-538175Y-184356D01*
X-535582Y-188587D01*
X-532360Y-192360D01*
X-528587Y-195582D01*
X-524356Y-198175D01*
X-519772Y-200074D01*
X-514947Y-201232D01*
X-510000Y-201621D01*
X-505053Y-201232D01*
X-500228Y-200074D01*
X-495644Y-198175D01*
X-491413Y-195582D01*
X-487640Y-192360D01*
X-484418Y-188587D01*
X-481825Y-184356D01*
X-479926Y-179772D01*
X-478768Y-174947D01*
X-478378Y-170000D01*
X-478768Y-165053D01*
X-479926Y-160228D01*
X-481825Y-155644D01*
X-484418Y-151413D01*
X-487640Y-147640D01*
X-491413Y-144418D01*
X-495644Y-141825D01*
X-500228Y-139926D01*
X-505053Y-138768D01*
X-510000Y-138378D01*
D02*
G37*
G36*
X510000D02*
X505053Y-138768D01*
X500228Y-139926D01*
X495644Y-141825D01*
X491413Y-144418D01*
X487640Y-147640D01*
X484418Y-151413D01*
X481825Y-155644D01*
X479926Y-160228D01*
X478768Y-165053D01*
X478378Y-170000D01*
X478768Y-174947D01*
X479926Y-179772D01*
X481825Y-184356D01*
X484418Y-188587D01*
X487640Y-192360D01*
X491413Y-195582D01*
X495644Y-198175D01*
X500228Y-200074D01*
X505053Y-201232D01*
X510000Y-201621D01*
X514947Y-201232D01*
X519772Y-200074D01*
X524356Y-198175D01*
X528587Y-195582D01*
X532360Y-192360D01*
X535582Y-188587D01*
X538175Y-184356D01*
X540074Y-179772D01*
X541232Y-174947D01*
X541622Y-170000D01*
X541232Y-165053D01*
X540074Y-160228D01*
X538175Y-155644D01*
X535582Y-151413D01*
X532360Y-147640D01*
X528587Y-144418D01*
X524356Y-141825D01*
X519772Y-139926D01*
X514947Y-138768D01*
X510000Y-138378D01*
D02*
G37*
G36*
X21500Y-318770D02*
X13970D01*
Y-326300D01*
X15021Y-326161D01*
X17183Y-325265D01*
X19040Y-323840D01*
X20465Y-321983D01*
X21361Y-319821D01*
X21500Y-318770D01*
D02*
G37*
G36*
X46899D02*
X39370D01*
Y-326300D01*
X40421Y-326161D01*
X42583Y-325265D01*
X44440Y-323840D01*
X45865Y-321983D01*
X46761Y-319821D01*
X46899Y-318770D01*
D02*
G37*
G36*
X72299D02*
X64770D01*
Y-326300D01*
X65821Y-326161D01*
X67983Y-325265D01*
X69840Y-323840D01*
X71265Y-321983D01*
X72161Y-319821D01*
X72299Y-318770D01*
D02*
G37*
G36*
X240030D02*
X232500D01*
X232639Y-319821D01*
X233535Y-321983D01*
X234960Y-323840D01*
X236817Y-325265D01*
X238979Y-326161D01*
X240030Y-326300D01*
Y-318770D01*
D02*
G37*
G36*
X11430D02*
X3900D01*
X4039Y-319821D01*
X4935Y-321983D01*
X6360Y-323840D01*
X8217Y-325265D01*
X10379Y-326161D01*
X11430Y-326300D01*
Y-318770D01*
D02*
G37*
G36*
X36830D02*
X29300D01*
X29439Y-319821D01*
X30335Y-321983D01*
X31760Y-323840D01*
X33617Y-325265D01*
X35779Y-326161D01*
X36830Y-326300D01*
Y-318770D01*
D02*
G37*
G36*
X62230D02*
X54700D01*
X54839Y-319821D01*
X55735Y-321983D01*
X57160Y-323840D01*
X59017Y-325265D01*
X61179Y-326161D01*
X62230Y-326300D01*
Y-318770D01*
D02*
G37*
G36*
X-165100Y-309558D02*
X-167155Y-309829D01*
X-169071Y-310622D01*
X-170716Y-311884D01*
X-171978Y-313529D01*
X-172771Y-315445D01*
X-173042Y-317500D01*
X-172771Y-319555D01*
X-171978Y-321471D01*
X-170716Y-323116D01*
X-169071Y-324378D01*
X-167155Y-325171D01*
X-165100Y-325442D01*
X-163044Y-325171D01*
X-161129Y-324378D01*
X-159484Y-323116D01*
X-158222Y-321471D01*
X-157429Y-319555D01*
X-157158Y-317500D01*
X-157429Y-315445D01*
X-158222Y-313529D01*
X-159484Y-311884D01*
X-161129Y-310622D01*
X-163044Y-309829D01*
X-165100Y-309558D01*
D02*
G37*
G36*
X-139700D02*
X-141756Y-309829D01*
X-143671Y-310622D01*
X-145316Y-311884D01*
X-146578Y-313529D01*
X-147371Y-315445D01*
X-147642Y-317500D01*
X-147371Y-319555D01*
X-146578Y-321471D01*
X-145316Y-323116D01*
X-143671Y-324378D01*
X-141756Y-325171D01*
X-139700Y-325442D01*
X-137645Y-325171D01*
X-135729Y-324378D01*
X-134084Y-323116D01*
X-132822Y-321471D01*
X-132029Y-319555D01*
X-131758Y-317500D01*
X-132029Y-315445D01*
X-132822Y-313529D01*
X-134084Y-311884D01*
X-135729Y-310622D01*
X-137645Y-309829D01*
X-139700Y-309558D01*
D02*
G37*
G36*
X-114300D02*
X-116355Y-309829D01*
X-118271Y-310622D01*
X-119916Y-311884D01*
X-121178Y-313529D01*
X-121971Y-315445D01*
X-122242Y-317500D01*
X-121971Y-319555D01*
X-121178Y-321471D01*
X-119916Y-323116D01*
X-118271Y-324378D01*
X-116355Y-325171D01*
X-114300Y-325442D01*
X-112245Y-325171D01*
X-110329Y-324378D01*
X-108684Y-323116D01*
X-107422Y-321471D01*
X-106629Y-319555D01*
X-106358Y-317500D01*
X-106629Y-315445D01*
X-107422Y-313529D01*
X-108684Y-311884D01*
X-110329Y-310622D01*
X-112245Y-309829D01*
X-114300Y-309558D01*
D02*
G37*
G36*
X-190500D02*
X-192556Y-309829D01*
X-194471Y-310622D01*
X-196116Y-311884D01*
X-197378Y-313529D01*
X-198171Y-315445D01*
X-198442Y-317500D01*
X-198171Y-319555D01*
X-197378Y-321471D01*
X-196116Y-323116D01*
X-194471Y-324378D01*
X-192556Y-325171D01*
X-190500Y-325442D01*
X-188444Y-325171D01*
X-186529Y-324378D01*
X-184884Y-323116D01*
X-183622Y-321471D01*
X-182829Y-319555D01*
X-182558Y-317500D01*
X-182829Y-315445D01*
X-183622Y-313529D01*
X-184884Y-311884D01*
X-186529Y-310622D01*
X-188444Y-309829D01*
X-190500Y-309558D01*
D02*
G37*
G36*
X250100Y-318770D02*
X242570D01*
Y-326300D01*
X243621Y-326161D01*
X245783Y-325265D01*
X247640Y-323840D01*
X249065Y-321983D01*
X249961Y-319821D01*
X250100Y-318770D01*
D02*
G37*
G36*
X-241300Y-309558D02*
X-243356Y-309829D01*
X-245271Y-310622D01*
X-246916Y-311884D01*
X-248178Y-313529D01*
X-248971Y-315445D01*
X-249242Y-317500D01*
X-248971Y-319555D01*
X-248178Y-321471D01*
X-246916Y-323116D01*
X-245271Y-324378D01*
X-243356Y-325171D01*
X-241300Y-325442D01*
X-239244Y-325171D01*
X-237329Y-324378D01*
X-235684Y-323116D01*
X-234422Y-321471D01*
X-233629Y-319555D01*
X-233358Y-317500D01*
X-233629Y-315445D01*
X-234422Y-313529D01*
X-235684Y-311884D01*
X-237329Y-310622D01*
X-239244Y-309829D01*
X-241300Y-309558D01*
D02*
G37*
G36*
X-215900D02*
X-217955Y-309829D01*
X-219871Y-310622D01*
X-221516Y-311884D01*
X-222778Y-313529D01*
X-223571Y-315445D01*
X-223842Y-317500D01*
X-223571Y-319555D01*
X-222778Y-321471D01*
X-221516Y-323116D01*
X-219871Y-324378D01*
X-217955Y-325171D01*
X-215900Y-325442D01*
X-213845Y-325171D01*
X-211929Y-324378D01*
X-210284Y-323116D01*
X-209022Y-321471D01*
X-208229Y-319555D01*
X-207958Y-317500D01*
X-208229Y-315445D01*
X-209022Y-313529D01*
X-210284Y-311884D01*
X-211929Y-310622D01*
X-213845Y-309829D01*
X-215900Y-309558D01*
D02*
G37*
G36*
X52500Y-81868D02*
X50345Y-82296D01*
X48517Y-83517D01*
X47297Y-85345D01*
X46868Y-87500D01*
X47297Y-89655D01*
X48517Y-91483D01*
X50345Y-92704D01*
X52500Y-93132D01*
X54655Y-92704D01*
X56483Y-91483D01*
X57703Y-89655D01*
X58132Y-87500D01*
X57703Y-85345D01*
X56483Y-83517D01*
X54655Y-82296D01*
X52500Y-81868D01*
D02*
G37*
G36*
X65000Y-79368D02*
X62845Y-79797D01*
X61017Y-81017D01*
X59797Y-82845D01*
X59368Y-85000D01*
X59797Y-87155D01*
X61017Y-88983D01*
X62845Y-90204D01*
X65000Y-90632D01*
X67155Y-90204D01*
X68983Y-88983D01*
X70203Y-87155D01*
X70632Y-85000D01*
X70203Y-82845D01*
X68983Y-81017D01*
X67155Y-79797D01*
X65000Y-79368D01*
D02*
G37*
G36*
X-172500Y-74368D02*
X-174655Y-74797D01*
X-176483Y-76017D01*
X-177703Y-77845D01*
X-178132Y-80000D01*
X-177703Y-82155D01*
X-176483Y-83983D01*
X-174655Y-85204D01*
X-172500Y-85632D01*
X-170345Y-85204D01*
X-168517Y-83983D01*
X-167297Y-82155D01*
X-166868Y-80000D01*
X-167297Y-77845D01*
X-168517Y-76017D01*
X-170345Y-74797D01*
X-172500Y-74368D01*
D02*
G37*
G36*
X-290000Y-91868D02*
X-292155Y-92296D01*
X-293983Y-93517D01*
X-295203Y-95345D01*
X-295632Y-97500D01*
X-295203Y-99655D01*
X-293983Y-101483D01*
X-292155Y-102704D01*
X-290000Y-103132D01*
X-287845Y-102704D01*
X-286017Y-101483D01*
X-284797Y-99655D01*
X-284368Y-97500D01*
X-284797Y-95345D01*
X-286017Y-93517D01*
X-287845Y-92296D01*
X-290000Y-91868D01*
D02*
G37*
G36*
X-235000Y-89368D02*
X-237155Y-89796D01*
X-238983Y-91017D01*
X-240203Y-92845D01*
X-240632Y-95000D01*
X-240203Y-97155D01*
X-238983Y-98983D01*
X-237155Y-100204D01*
X-235000Y-100632D01*
X-234426Y-100518D01*
X-225996Y-108948D01*
Y-117872D01*
X-227266Y-117997D01*
X-227297Y-117845D01*
X-228517Y-116017D01*
X-230345Y-114796D01*
X-232500Y-114368D01*
X-233074Y-114482D01*
X-242528Y-105028D01*
X-243662Y-104270D01*
X-245000Y-104004D01*
X-253192D01*
X-253517Y-103517D01*
X-255345Y-102296D01*
X-257500Y-101868D01*
X-259655Y-102296D01*
X-261483Y-103517D01*
X-262703Y-105345D01*
X-263132Y-107500D01*
X-262703Y-109655D01*
X-261483Y-111483D01*
X-259655Y-112704D01*
X-257500Y-113132D01*
X-255345Y-112704D01*
X-253517Y-111483D01*
X-253192Y-110996D01*
X-246448D01*
X-238018Y-119426D01*
X-238132Y-120000D01*
X-237703Y-122155D01*
X-236483Y-123983D01*
X-234655Y-125204D01*
X-232500Y-125632D01*
X-230345Y-125204D01*
X-228517Y-123983D01*
X-227297Y-122155D01*
X-227266Y-122003D01*
X-225996Y-122128D01*
Y-175692D01*
X-226483Y-176017D01*
X-227703Y-177845D01*
X-228132Y-180000D01*
X-227703Y-182155D01*
X-226483Y-183983D01*
X-224655Y-185203D01*
X-222500Y-185632D01*
X-220345Y-185203D01*
X-218517Y-183983D01*
X-217297Y-182155D01*
X-216868Y-180000D01*
X-217297Y-177845D01*
X-218517Y-176017D01*
X-219004Y-175692D01*
Y-107500D01*
X-219270Y-106162D01*
X-220028Y-105028D01*
X-229482Y-95574D01*
X-229368Y-95000D01*
X-229797Y-92845D01*
X-231017Y-91017D01*
X-232845Y-89796D01*
X-235000Y-89368D01*
D02*
G37*
G36*
X-37500Y-99368D02*
X-39655Y-99796D01*
X-41483Y-101017D01*
X-42703Y-102845D01*
X-43132Y-105000D01*
X-42703Y-107155D01*
X-41483Y-108983D01*
X-39655Y-110204D01*
X-37500Y-110632D01*
X-35345Y-110204D01*
X-33517Y-108983D01*
X-32297Y-107155D01*
X-31868Y-105000D01*
X-32297Y-102845D01*
X-33517Y-101017D01*
X-35345Y-99796D01*
X-37500Y-99368D01*
D02*
G37*
G36*
X17500Y-94368D02*
X15345Y-94796D01*
X13517Y-96017D01*
X12297Y-97845D01*
X11868Y-100000D01*
X12297Y-102155D01*
X13517Y-103983D01*
X15345Y-105204D01*
X17500Y-105632D01*
X19655Y-105204D01*
X21483Y-103983D01*
X22703Y-102155D01*
X23132Y-100000D01*
X22703Y-97845D01*
X21483Y-96017D01*
X19655Y-94796D01*
X17500Y-94368D01*
D02*
G37*
G36*
X384170Y4662D02*
X382015Y4234D01*
X380187Y3013D01*
X378966Y1185D01*
X378538Y-970D01*
X378966Y-3125D01*
X380187Y-4953D01*
X380880Y-5415D01*
Y-6685D01*
X380187Y-7147D01*
X378966Y-8975D01*
X378538Y-11130D01*
X378966Y-13285D01*
X380187Y-15113D01*
X382015Y-16334D01*
X384170Y-16762D01*
X386325Y-16334D01*
X388153Y-15113D01*
X389374Y-13285D01*
X389802Y-11130D01*
X389374Y-8975D01*
X388153Y-7147D01*
X387461Y-6685D01*
Y-5415D01*
X388153Y-4953D01*
X389374Y-3125D01*
X389802Y-970D01*
X389374Y1185D01*
X388153Y3013D01*
X386325Y4234D01*
X384170Y4662D01*
D02*
G37*
G36*
X-521160Y-1770D02*
X-526500D01*
X-531840D01*
Y-5250D01*
X-531643Y-6241D01*
X-531081Y-7081D01*
X-530241Y-7643D01*
X-529849Y-7721D01*
Y-11000D01*
X-529632Y-12090D01*
X-529014Y-13014D01*
X-528090Y-13632D01*
X-527000Y-13849D01*
X-525910Y-13632D01*
X-524986Y-13014D01*
X-524368Y-12090D01*
X-524151Y-11000D01*
Y-7840D01*
X-523750D01*
X-522759Y-7643D01*
X-521919Y-7081D01*
X-521357Y-6241D01*
X-521160Y-5250D01*
Y-1770D01*
D02*
G37*
G36*
X500590Y14230D02*
X493500D01*
X486410D01*
Y8000D01*
X486607Y7009D01*
X487169Y6169D01*
X487363Y6039D01*
X488020Y5512D01*
X488166Y4281D01*
X488160Y4250D01*
Y2349D01*
X485500D01*
X484410Y2132D01*
X483486Y1514D01*
X482868Y590D01*
X482651Y-500D01*
X482868Y-1590D01*
X483486Y-2514D01*
X484410Y-3132D01*
X485500Y-3349D01*
X488160D01*
Y-5250D01*
X488357Y-6241D01*
X488919Y-7081D01*
X489759Y-7643D01*
X490750Y-7840D01*
X492230D01*
Y-500D01*
X493500D01*
Y770D01*
X498840D01*
Y4250D01*
X498643Y5241D01*
X498777Y5565D01*
X498991Y5607D01*
X499831Y6169D01*
X500393Y7009D01*
X500590Y8000D01*
Y14230D01*
D02*
G37*
G36*
X314250Y-23618D02*
X312095Y-24046D01*
X310267Y-25267D01*
X309046Y-27095D01*
X308618Y-29250D01*
X309046Y-31405D01*
X310267Y-33233D01*
X312095Y-34453D01*
X314250Y-34882D01*
X316405Y-34453D01*
X318233Y-33233D01*
X319454Y-31405D01*
X319882Y-29250D01*
X319454Y-27095D01*
X318233Y-25267D01*
X316405Y-24046D01*
X314250Y-23618D01*
D02*
G37*
G36*
X457500Y-41868D02*
X455345Y-42297D01*
X453517Y-43517D01*
X452297Y-45345D01*
X451868Y-47500D01*
X452297Y-49655D01*
X453517Y-51483D01*
X455345Y-52703D01*
X457500Y-53132D01*
X459655Y-52703D01*
X461483Y-51483D01*
X462704Y-49655D01*
X463132Y-47500D01*
X462704Y-45345D01*
X461483Y-43517D01*
X459655Y-42297D01*
X457500Y-41868D01*
D02*
G37*
G36*
X-192500Y-29368D02*
X-194655Y-29797D01*
X-196483Y-31017D01*
X-196808Y-31504D01*
X-297500D01*
X-298838Y-31770D01*
X-299972Y-32528D01*
X-322472Y-55028D01*
X-323230Y-56162D01*
X-323496Y-57500D01*
Y-63192D01*
X-323983Y-63517D01*
X-325204Y-65345D01*
X-325632Y-67500D01*
X-325204Y-69655D01*
X-323983Y-71483D01*
X-322155Y-72703D01*
X-320000Y-73132D01*
X-317845Y-72703D01*
X-316017Y-71483D01*
X-314797Y-69655D01*
X-314368Y-67500D01*
X-314797Y-65345D01*
X-316017Y-63517D01*
X-316504Y-63192D01*
Y-58948D01*
X-296052Y-38496D01*
X-196808D01*
X-196483Y-38983D01*
X-194655Y-40203D01*
X-192500Y-40632D01*
X-190345Y-40203D01*
X-188517Y-38983D01*
X-187297Y-37155D01*
X-186868Y-35000D01*
X-187297Y-32845D01*
X-188517Y-31017D01*
X-190345Y-29797D01*
X-192500Y-29368D01*
D02*
G37*
G36*
X206750Y-23618D02*
X204595Y-24046D01*
X202767Y-25267D01*
X201546Y-27095D01*
X201118Y-29250D01*
X201546Y-31405D01*
X202767Y-33233D01*
X204595Y-34453D01*
X206750Y-34882D01*
X208905Y-34453D01*
X210733Y-33233D01*
X211954Y-31405D01*
X212382Y-29250D01*
X211954Y-27095D01*
X210733Y-25267D01*
X208905Y-24046D01*
X206750Y-23618D01*
D02*
G37*
G36*
X228000Y-147762D02*
X227844Y-147827D01*
X227678Y-147794D01*
X225922Y-148143D01*
X225650Y-148326D01*
X225328Y-148390D01*
X223839Y-149384D01*
X223657Y-149657D01*
X223384Y-149839D01*
X222390Y-151328D01*
X222325Y-151650D01*
X222143Y-151922D01*
X221794Y-153678D01*
X221858Y-154000D01*
X221794Y-154322D01*
X222143Y-156078D01*
X222325Y-156350D01*
X222390Y-156672D01*
X223384Y-158161D01*
X223657Y-158343D01*
X223839Y-158616D01*
X225328Y-159611D01*
X225650Y-159675D01*
X225922Y-159857D01*
X227678Y-160206D01*
X227844Y-160173D01*
X228000Y-160238D01*
X228156Y-160173D01*
X228322Y-160206D01*
X230078Y-159857D01*
X230350Y-159675D01*
X230672Y-159611D01*
X232161Y-158616D01*
X232343Y-158343D01*
X232616Y-158161D01*
X233610Y-156672D01*
X233675Y-156350D01*
X233857Y-156078D01*
X234206Y-154322D01*
X234142Y-154000D01*
X234206Y-153678D01*
X233857Y-151922D01*
X233675Y-151650D01*
X233610Y-151328D01*
X232616Y-149839D01*
X232343Y-149657D01*
X232161Y-149384D01*
X230672Y-148390D01*
X230350Y-148326D01*
X230078Y-148143D01*
X228322Y-147794D01*
X228156Y-147827D01*
X228000Y-147762D01*
D02*
G37*
G36*
X277000D02*
X276844Y-147827D01*
X276678Y-147794D01*
X274922Y-148143D01*
X274650Y-148326D01*
X274328Y-148390D01*
X272839Y-149384D01*
X272657Y-149657D01*
X272384Y-149839D01*
X271390Y-151328D01*
X271325Y-151650D01*
X271143Y-151922D01*
X270794Y-153678D01*
X270858Y-154000D01*
X270794Y-154322D01*
X271143Y-156078D01*
X271325Y-156350D01*
X271390Y-156672D01*
X272384Y-158161D01*
X272657Y-158343D01*
X272839Y-158616D01*
X274328Y-159611D01*
X274650Y-159675D01*
X274922Y-159857D01*
X276678Y-160206D01*
X276844Y-160173D01*
X277000Y-160238D01*
X277156Y-160173D01*
X277322Y-160206D01*
X279078Y-159857D01*
X279350Y-159675D01*
X279672Y-159611D01*
X281161Y-158616D01*
X281343Y-158343D01*
X281616Y-158161D01*
X282610Y-156672D01*
X282675Y-156350D01*
X282857Y-156078D01*
X283206Y-154322D01*
X283142Y-154000D01*
X283206Y-153678D01*
X282857Y-151922D01*
X282675Y-151650D01*
X282610Y-151328D01*
X281616Y-149839D01*
X281343Y-149657D01*
X281161Y-149384D01*
X279672Y-148390D01*
X279350Y-148326D01*
X279078Y-148143D01*
X277322Y-147794D01*
X277156Y-147827D01*
X277000Y-147762D01*
D02*
G37*
G36*
X335500D02*
X335344Y-147827D01*
X335178Y-147794D01*
X333422Y-148143D01*
X333150Y-148326D01*
X332828Y-148390D01*
X331339Y-149384D01*
X331157Y-149657D01*
X330884Y-149839D01*
X329889Y-151328D01*
X329826Y-151650D01*
X329643Y-151922D01*
X329294Y-153678D01*
X329358Y-154000D01*
X329294Y-154322D01*
X329643Y-156078D01*
X329826Y-156350D01*
X329889Y-156672D01*
X330884Y-158161D01*
X331157Y-158343D01*
X331339Y-158616D01*
X332828Y-159611D01*
X333150Y-159675D01*
X333422Y-159857D01*
X335178Y-160206D01*
X335344Y-160173D01*
X335500Y-160238D01*
X335656Y-160173D01*
X335822Y-160206D01*
X337578Y-159857D01*
X337850Y-159675D01*
X338172Y-159611D01*
X339661Y-158616D01*
X339843Y-158343D01*
X340116Y-158161D01*
X341110Y-156672D01*
X341175Y-156350D01*
X341357Y-156078D01*
X341706Y-154322D01*
X341642Y-154000D01*
X341706Y-153678D01*
X341357Y-151922D01*
X341175Y-151650D01*
X341110Y-151328D01*
X340116Y-149839D01*
X339843Y-149657D01*
X339661Y-149384D01*
X338172Y-148390D01*
X337850Y-148326D01*
X337578Y-148143D01*
X335822Y-147794D01*
X335656Y-147827D01*
X335500Y-147762D01*
D02*
G37*
G36*
X169500D02*
X169344Y-147827D01*
X169178Y-147794D01*
X167422Y-148143D01*
X167150Y-148326D01*
X166828Y-148390D01*
X165339Y-149384D01*
X165157Y-149657D01*
X164884Y-149839D01*
X163890Y-151328D01*
X163825Y-151650D01*
X163643Y-151922D01*
X163294Y-153678D01*
X163358Y-154000D01*
X163294Y-154322D01*
X163643Y-156078D01*
X163825Y-156350D01*
X163890Y-156672D01*
X164884Y-158161D01*
X165157Y-158343D01*
X165339Y-158616D01*
X166828Y-159611D01*
X167150Y-159675D01*
X167422Y-159857D01*
X169178Y-160206D01*
X169344Y-160173D01*
X169500Y-160238D01*
X169656Y-160173D01*
X169822Y-160206D01*
X171578Y-159857D01*
X171850Y-159675D01*
X172172Y-159611D01*
X173661Y-158616D01*
X173843Y-158343D01*
X174116Y-158161D01*
X175110Y-156672D01*
X175175Y-156350D01*
X175357Y-156078D01*
X175706Y-154322D01*
X175642Y-154000D01*
X175706Y-153678D01*
X175357Y-151922D01*
X175175Y-151650D01*
X175110Y-151328D01*
X174116Y-149839D01*
X173843Y-149657D01*
X173661Y-149384D01*
X172172Y-148390D01*
X171850Y-148326D01*
X171578Y-148143D01*
X169822Y-147794D01*
X169656Y-147827D01*
X169500Y-147762D01*
D02*
G37*
G36*
X-64500D02*
X-64656Y-147827D01*
X-64822Y-147794D01*
X-66578Y-148143D01*
X-66850Y-148326D01*
X-67172Y-148390D01*
X-68661Y-149384D01*
X-68843Y-149657D01*
X-69116Y-149839D01*
X-70111Y-151328D01*
X-70174Y-151650D01*
X-70357Y-151922D01*
X-70706Y-153678D01*
X-70642Y-154000D01*
X-70706Y-154322D01*
X-70357Y-156078D01*
X-70174Y-156350D01*
X-70111Y-156672D01*
X-69116Y-158161D01*
X-68843Y-158343D01*
X-68661Y-158616D01*
X-67172Y-159611D01*
X-66850Y-159675D01*
X-66578Y-159857D01*
X-64822Y-160206D01*
X-64656Y-160173D01*
X-64500Y-160238D01*
X-64344Y-160173D01*
X-64178Y-160206D01*
X-62422Y-159857D01*
X-62150Y-159675D01*
X-61828Y-159611D01*
X-60339Y-158616D01*
X-60157Y-158343D01*
X-59884Y-158161D01*
X-58889Y-156672D01*
X-58825Y-156350D01*
X-58643Y-156078D01*
X-58294Y-154322D01*
X-58358Y-154000D01*
X-58294Y-153678D01*
X-58643Y-151922D01*
X-58825Y-151650D01*
X-58889Y-151328D01*
X-59884Y-149839D01*
X-60157Y-149657D01*
X-60339Y-149384D01*
X-61828Y-148390D01*
X-62150Y-148326D01*
X-62422Y-148143D01*
X-64178Y-147794D01*
X-64344Y-147827D01*
X-64500Y-147762D01*
D02*
G37*
G36*
X17000D02*
X16844Y-147827D01*
X16678Y-147794D01*
X14922Y-148143D01*
X14650Y-148326D01*
X14328Y-148390D01*
X12839Y-149384D01*
X12657Y-149657D01*
X12384Y-149839D01*
X11389Y-151328D01*
X11326Y-151650D01*
X11143Y-151922D01*
X10794Y-153678D01*
X10858Y-154000D01*
X10794Y-154322D01*
X11143Y-156078D01*
X11326Y-156350D01*
X11389Y-156672D01*
X12384Y-158161D01*
X12657Y-158343D01*
X12839Y-158616D01*
X14328Y-159611D01*
X14650Y-159675D01*
X14922Y-159857D01*
X16678Y-160206D01*
X16844Y-160173D01*
X17000Y-160238D01*
X17156Y-160173D01*
X17322Y-160206D01*
X19078Y-159857D01*
X19350Y-159675D01*
X19672Y-159611D01*
X21161Y-158616D01*
X21343Y-158343D01*
X21616Y-158161D01*
X22610Y-156672D01*
X22675Y-156350D01*
X22857Y-156078D01*
X23206Y-154322D01*
X23142Y-154000D01*
X23206Y-153678D01*
X22857Y-151922D01*
X22675Y-151650D01*
X22610Y-151328D01*
X21616Y-149839D01*
X21343Y-149657D01*
X21161Y-149384D01*
X19672Y-148390D01*
X19350Y-148326D01*
X19078Y-148143D01*
X17322Y-147794D01*
X17156Y-147827D01*
X17000Y-147762D01*
D02*
G37*
G36*
X88000D02*
X87844Y-147827D01*
X87678Y-147794D01*
X85922Y-148143D01*
X85650Y-148326D01*
X85328Y-148390D01*
X83839Y-149384D01*
X83657Y-149657D01*
X83384Y-149839D01*
X82389Y-151328D01*
X82325Y-151650D01*
X82143Y-151922D01*
X81794Y-153678D01*
X81858Y-154000D01*
X81794Y-154322D01*
X82143Y-156078D01*
X82325Y-156350D01*
X82389Y-156672D01*
X83384Y-158161D01*
X83657Y-158343D01*
X83839Y-158616D01*
X85328Y-159611D01*
X85650Y-159675D01*
X85922Y-159857D01*
X87678Y-160206D01*
X87844Y-160173D01*
X88000Y-160238D01*
X88156Y-160173D01*
X88322Y-160206D01*
X90078Y-159857D01*
X90350Y-159675D01*
X90672Y-159611D01*
X92161Y-158616D01*
X92343Y-158343D01*
X92616Y-158161D01*
X93610Y-156672D01*
X93674Y-156350D01*
X93857Y-156078D01*
X94206Y-154322D01*
X94142Y-154000D01*
X94206Y-153678D01*
X93857Y-151922D01*
X93674Y-151650D01*
X93610Y-151328D01*
X92616Y-149839D01*
X92343Y-149657D01*
X92161Y-149384D01*
X90672Y-148390D01*
X90350Y-148326D01*
X90078Y-148143D01*
X88322Y-147794D01*
X88156Y-147827D01*
X88000Y-147762D01*
D02*
G37*
G36*
X-288290Y-122638D02*
X-290445Y-123067D01*
X-292273Y-124287D01*
X-293030Y-125421D01*
X-293370D01*
X-293370Y-125421D01*
X-294460Y-125638D01*
X-295384Y-126256D01*
X-303004Y-133876D01*
X-303622Y-134800D01*
X-303839Y-135890D01*
X-303839Y-135890D01*
Y-189230D01*
X-303839Y-189230D01*
X-303622Y-190320D01*
X-303004Y-191244D01*
X-272524Y-221724D01*
X-272524Y-221724D01*
X-271600Y-222342D01*
X-270510Y-222559D01*
X-196760D01*
X-115044Y-304274D01*
X-114120Y-304892D01*
X-113030Y-305109D01*
X-113030Y-305109D01*
X1360D01*
X5606Y-309354D01*
X5606Y-309354D01*
X6151Y-309719D01*
X6373Y-311064D01*
X6360Y-311160D01*
X4935Y-313017D01*
X4039Y-315179D01*
X3900Y-316230D01*
X12700D01*
X21500D01*
X21361Y-315179D01*
X20465Y-313017D01*
X19270Y-311459D01*
X19705Y-310189D01*
X31095D01*
X31530Y-311459D01*
X30335Y-313017D01*
X29439Y-315179D01*
X29300Y-316230D01*
X38100D01*
X46899D01*
X46761Y-315179D01*
X45865Y-313017D01*
X44670Y-311459D01*
X45106Y-310189D01*
X56494D01*
X56930Y-311459D01*
X55735Y-313017D01*
X54839Y-315179D01*
X54700Y-316230D01*
X63500D01*
X72299D01*
X72161Y-315179D01*
X71265Y-313017D01*
X70070Y-311459D01*
X70505Y-310189D01*
X77560D01*
X81693Y-314322D01*
X81229Y-315445D01*
X80958Y-317500D01*
X81229Y-319555D01*
X82022Y-321471D01*
X83284Y-323116D01*
X84929Y-324378D01*
X86845Y-325171D01*
X88900Y-325442D01*
X90955Y-325171D01*
X92871Y-324378D01*
X94516Y-323116D01*
X95778Y-321471D01*
X96571Y-319555D01*
X96842Y-317500D01*
X96571Y-315445D01*
X95778Y-313529D01*
X94516Y-311884D01*
X92871Y-310622D01*
X90955Y-309829D01*
X88900Y-309558D01*
X86845Y-309829D01*
X85722Y-310294D01*
X81807Y-306379D01*
X82333Y-305109D01*
X123280D01*
X132493Y-314322D01*
X132029Y-315445D01*
X131758Y-317500D01*
X132029Y-319555D01*
X132822Y-321471D01*
X134084Y-323116D01*
X135729Y-324378D01*
X137645Y-325171D01*
X139700Y-325442D01*
X141756Y-325171D01*
X143671Y-324378D01*
X145316Y-323116D01*
X146578Y-321471D01*
X147371Y-319555D01*
X147642Y-317500D01*
X147371Y-315445D01*
X146578Y-313529D01*
X145316Y-311884D01*
X143671Y-310622D01*
X141756Y-309829D01*
X139700Y-309558D01*
X137645Y-309829D01*
X136522Y-310294D01*
X127528Y-301299D01*
X128054Y-300029D01*
X169000D01*
X183293Y-314322D01*
X182829Y-315445D01*
X182558Y-317500D01*
X182829Y-319555D01*
X183622Y-321471D01*
X184884Y-323116D01*
X186529Y-324378D01*
X188444Y-325171D01*
X190500Y-325442D01*
X192556Y-325171D01*
X194471Y-324378D01*
X196116Y-323116D01*
X197378Y-321471D01*
X198171Y-319555D01*
X198442Y-317500D01*
X198171Y-315445D01*
X197378Y-313529D01*
X196116Y-311884D01*
X194471Y-310622D01*
X192556Y-309829D01*
X190500Y-309558D01*
X188444Y-309829D01*
X187322Y-310294D01*
X173248Y-296219D01*
X173773Y-294949D01*
X189320D01*
X208694Y-314322D01*
X208229Y-315445D01*
X207958Y-317500D01*
X208229Y-319555D01*
X209022Y-321471D01*
X210284Y-323116D01*
X211929Y-324378D01*
X213845Y-325171D01*
X215900Y-325442D01*
X217955Y-325171D01*
X219871Y-324378D01*
X221516Y-323116D01*
X222778Y-321471D01*
X223571Y-319555D01*
X223842Y-317500D01*
X223571Y-315445D01*
X222778Y-313529D01*
X221516Y-311884D01*
X219871Y-310622D01*
X217955Y-309829D01*
X215900Y-309558D01*
X213845Y-309829D01*
X212722Y-310294D01*
X192514Y-290086D01*
X191590Y-289468D01*
X190500Y-289251D01*
X190500Y-289251D01*
X16420D01*
X11250Y-284081D01*
X10326Y-283464D01*
X9236Y-283247D01*
X9235Y-283247D01*
X-105154D01*
X-186870Y-201531D01*
X-187794Y-200914D01*
X-188885Y-200697D01*
X-188885Y-200697D01*
X-262635D01*
X-276897Y-186434D01*
Y-171705D01*
X-276116Y-170924D01*
X-276116Y-170924D01*
X-275498Y-170000D01*
X-275281Y-168910D01*
X-275281Y-168910D01*
Y-159680D01*
X-274147Y-158923D01*
X-273833Y-158452D01*
X-272343Y-158343D01*
X-272161Y-158616D01*
X-270672Y-159611D01*
X-270350Y-159675D01*
X-270078Y-159857D01*
X-268322Y-160206D01*
X-268156Y-160173D01*
X-268000Y-160238D01*
X-267844Y-160173D01*
X-267678Y-160206D01*
X-265922Y-159857D01*
X-265650Y-159675D01*
X-265328Y-159611D01*
X-263839Y-158616D01*
X-263657Y-158343D01*
X-263384Y-158161D01*
X-262390Y-156672D01*
X-262325Y-156350D01*
X-262143Y-156078D01*
X-261794Y-154322D01*
X-261858Y-154000D01*
X-261794Y-153678D01*
X-262143Y-151922D01*
X-262325Y-151650D01*
X-262390Y-151328D01*
X-263384Y-149839D01*
X-263657Y-149657D01*
X-263839Y-149384D01*
X-265328Y-148390D01*
X-265650Y-148326D01*
X-265922Y-148143D01*
X-267678Y-147794D01*
X-267844Y-147827D01*
X-268000Y-147762D01*
X-268156Y-147827D01*
X-268322Y-147794D01*
X-270078Y-148143D01*
X-270350Y-148326D01*
X-270672Y-148390D01*
X-272161Y-149384D01*
X-272343Y-149657D01*
X-272616Y-149839D01*
X-272992Y-150401D01*
X-274147Y-150957D01*
X-275975Y-149736D01*
X-278130Y-149308D01*
X-280285Y-149736D01*
X-282113Y-150957D01*
X-283333Y-152785D01*
X-283762Y-154940D01*
X-283333Y-157095D01*
X-282113Y-158923D01*
X-280979Y-159680D01*
Y-166529D01*
X-281338Y-166796D01*
X-281401Y-166816D01*
X-282988Y-166438D01*
X-283119Y-166242D01*
X-283119Y-166242D01*
X-285441Y-163920D01*
Y-148250D01*
X-284307Y-147493D01*
X-283086Y-145665D01*
X-282658Y-143510D01*
X-283086Y-141355D01*
X-283832Y-140239D01*
X-283153Y-138969D01*
X-278323D01*
X-278253Y-139315D01*
X-277033Y-141143D01*
X-275205Y-142364D01*
X-273050Y-142792D01*
X-270895Y-142364D01*
X-269067Y-141143D01*
X-267847Y-139315D01*
X-267418Y-137160D01*
X-267847Y-135005D01*
X-269067Y-133177D01*
X-270895Y-131957D01*
X-273050Y-131528D01*
X-275205Y-131957D01*
X-277033Y-133177D01*
X-277095Y-133271D01*
X-283720D01*
X-284139Y-132001D01*
X-283086Y-130425D01*
X-282658Y-128270D01*
X-283086Y-126115D01*
X-284307Y-124287D01*
X-286135Y-123067D01*
X-288290Y-122638D01*
D02*
G37*
G36*
X-75000Y-109368D02*
X-77155Y-109796D01*
X-78983Y-111017D01*
X-80204Y-112845D01*
X-80632Y-115000D01*
X-80204Y-117155D01*
X-78983Y-118983D01*
X-77155Y-120204D01*
X-75000Y-120632D01*
X-72845Y-120204D01*
X-71017Y-118983D01*
X-69797Y-117155D01*
X-69368Y-115000D01*
X-69797Y-112845D01*
X-71017Y-111017D01*
X-72845Y-109796D01*
X-75000Y-109368D01*
D02*
G37*
G36*
X-50800Y-108668D02*
X-52955Y-109096D01*
X-54783Y-110317D01*
X-56003Y-112145D01*
X-56432Y-114300D01*
X-56003Y-116455D01*
X-54783Y-118283D01*
X-52955Y-119503D01*
X-50800Y-119932D01*
X-48645Y-119503D01*
X-46817Y-118283D01*
X-45596Y-116455D01*
X-45168Y-114300D01*
X-45596Y-112145D01*
X-46817Y-110317D01*
X-48645Y-109096D01*
X-50800Y-108668D01*
D02*
G37*
G36*
X-362500Y-114368D02*
X-364655Y-114796D01*
X-366483Y-116017D01*
X-367704Y-117845D01*
X-368132Y-120000D01*
X-367704Y-122155D01*
X-366483Y-123983D01*
X-364655Y-125204D01*
X-362500Y-125632D01*
X-360345Y-125204D01*
X-358517Y-123983D01*
X-358192Y-123496D01*
X-345434D01*
X-345204Y-124655D01*
X-343983Y-126483D01*
X-342155Y-127704D01*
X-340000Y-128132D01*
X-337845Y-127704D01*
X-336017Y-126483D01*
X-334796Y-124655D01*
X-334368Y-122500D01*
X-334796Y-120345D01*
X-336017Y-118517D01*
X-337845Y-117296D01*
X-340000Y-116868D01*
X-340783Y-117023D01*
X-341162Y-116770D01*
X-342500Y-116504D01*
X-358192D01*
X-358517Y-116017D01*
X-360345Y-114796D01*
X-362500Y-114368D01*
D02*
G37*
G36*
X-63500Y-121368D02*
X-65655Y-121797D01*
X-67483Y-123017D01*
X-68703Y-124845D01*
X-69132Y-127000D01*
X-68703Y-129155D01*
X-67483Y-130983D01*
X-65655Y-132204D01*
X-63500Y-132632D01*
X-61345Y-132204D01*
X-59517Y-130983D01*
X-58296Y-129155D01*
X-57868Y-127000D01*
X-58296Y-124845D01*
X-59517Y-123017D01*
X-61345Y-121797D01*
X-63500Y-121368D01*
D02*
G37*
G36*
X180000Y-119368D02*
X177845Y-119796D01*
X176017Y-121017D01*
X174797Y-122845D01*
X174368Y-125000D01*
X174797Y-127155D01*
X176017Y-128983D01*
X177845Y-130204D01*
X180000Y-130632D01*
X182155Y-130204D01*
X183983Y-128983D01*
X185203Y-127155D01*
X185632Y-125000D01*
X185203Y-122845D01*
X183983Y-121017D01*
X182155Y-119796D01*
X180000Y-119368D01*
D02*
G37*
G36*
X287500D02*
X285345Y-119796D01*
X283517Y-121017D01*
X282297Y-122845D01*
X281868Y-125000D01*
X282297Y-127155D01*
X283517Y-128983D01*
X285345Y-130204D01*
X287500Y-130632D01*
X289655Y-130204D01*
X291483Y-128983D01*
X292703Y-127155D01*
X293132Y-125000D01*
X292703Y-122845D01*
X291483Y-121017D01*
X289655Y-119796D01*
X287500Y-119368D01*
D02*
G37*
G36*
X146872Y246356D02*
X146550Y246292D01*
X146228Y246356D01*
X144472Y246007D01*
X144200Y245825D01*
X143878Y245760D01*
X142389Y244766D01*
X142207Y244493D01*
X141934Y244311D01*
X140940Y242822D01*
X140876Y242500D01*
X140693Y242228D01*
X140344Y240472D01*
X140377Y240306D01*
X140312Y240150D01*
X140377Y239994D01*
X140344Y239828D01*
X140693Y238072D01*
X140876Y237799D01*
X140940Y237478D01*
X141934Y235989D01*
X142207Y235807D01*
X142389Y235534D01*
X143878Y234540D01*
X144200Y234475D01*
X144472Y234293D01*
X146228Y233944D01*
X146550Y234008D01*
X146872Y233944D01*
X148628Y234293D01*
X148900Y234475D01*
X149222Y234540D01*
X150711Y235534D01*
X150893Y235807D01*
X151166Y235989D01*
X152161Y237478D01*
X152225Y237799D01*
X152407Y238072D01*
X152756Y239828D01*
X152723Y239994D01*
X152788Y240150D01*
X152723Y240306D01*
X152756Y240472D01*
X152407Y242228D01*
X152225Y242500D01*
X152161Y242822D01*
X151166Y244311D01*
X150893Y244493D01*
X150711Y244766D01*
X149222Y245760D01*
X148900Y245825D01*
X148628Y246007D01*
X146872Y246356D01*
D02*
G37*
G36*
X199250Y437840D02*
X197770D01*
Y430500D01*
X196500D01*
Y429230D01*
X191160D01*
Y425750D01*
X191357Y424759D01*
X191223Y424435D01*
X191009Y424393D01*
X190169Y423831D01*
X189607Y422991D01*
X189410Y422000D01*
Y415770D01*
X196500D01*
X203590D01*
Y422000D01*
X203393Y422991D01*
X202831Y423831D01*
X201991Y424393D01*
X201818Y425640D01*
X201840Y425750D01*
Y427651D01*
X204500D01*
X205590Y427868D01*
X206514Y428486D01*
X207132Y429410D01*
X207349Y430500D01*
X207132Y431590D01*
X206514Y432514D01*
X205590Y433132D01*
X204500Y433349D01*
X201840D01*
Y435250D01*
X201643Y436241D01*
X201081Y437081D01*
X200241Y437643D01*
X199250Y437840D01*
D02*
G37*
G36*
X499250D02*
X497770D01*
Y430500D01*
X496500D01*
Y429230D01*
X491160D01*
Y425750D01*
X491357Y424759D01*
X491223Y424435D01*
X491009Y424393D01*
X490169Y423831D01*
X489607Y422991D01*
X489410Y422000D01*
Y415770D01*
X496500D01*
X503590D01*
Y422000D01*
X503393Y422991D01*
X502831Y423831D01*
X501991Y424393D01*
X501818Y425640D01*
X501840Y425750D01*
Y427651D01*
X504500D01*
X505590Y427868D01*
X506514Y428486D01*
X507132Y429410D01*
X507349Y430500D01*
X507132Y431590D01*
X506514Y432514D01*
X505590Y433132D01*
X504500Y433349D01*
X501840D01*
Y435250D01*
X501643Y436241D01*
X501081Y437081D01*
X500241Y437643D01*
X499250Y437840D01*
D02*
G37*
G36*
X139250D02*
X137770D01*
Y430500D01*
X136500D01*
Y429230D01*
X131160D01*
Y425750D01*
X131357Y424759D01*
X131223Y424435D01*
X131009Y424393D01*
X130169Y423831D01*
X129607Y422991D01*
X129410Y422000D01*
Y415770D01*
X136500D01*
X143590D01*
Y422000D01*
X143393Y422991D01*
X142831Y423831D01*
X141991Y424393D01*
X141818Y425640D01*
X141840Y425750D01*
Y427651D01*
X144500D01*
X145590Y427868D01*
X146514Y428486D01*
X147132Y429410D01*
X147349Y430500D01*
X147132Y431590D01*
X146514Y432514D01*
X145590Y433132D01*
X144500Y433349D01*
X141840D01*
Y435250D01*
X141643Y436241D01*
X141081Y437081D01*
X140241Y437643D01*
X139250Y437840D01*
D02*
G37*
G36*
X-100750D02*
X-102230D01*
Y430500D01*
X-103500D01*
Y429230D01*
X-108840D01*
Y425750D01*
X-108643Y424759D01*
X-108777Y424435D01*
X-108991Y424393D01*
X-109831Y423831D01*
X-110393Y422991D01*
X-110590Y422000D01*
Y415770D01*
X-103500D01*
X-96410D01*
Y422000D01*
X-96607Y422991D01*
X-97169Y423831D01*
X-97363Y423961D01*
X-98357Y424759D01*
X-98160Y425750D01*
Y427651D01*
X-95500D01*
X-94410Y427868D01*
X-93486Y428486D01*
X-92868Y429410D01*
X-92651Y430500D01*
X-92868Y431590D01*
X-93486Y432514D01*
X-94410Y433132D01*
X-95500Y433349D01*
X-98160D01*
Y435250D01*
X-98357Y436241D01*
X-98919Y437081D01*
X-99759Y437643D01*
X-100750Y437840D01*
D02*
G37*
G36*
X319250D02*
X317770D01*
Y430500D01*
X316500D01*
Y429230D01*
X311160D01*
Y425750D01*
X311357Y424759D01*
X311223Y424435D01*
X311009Y424393D01*
X310169Y423831D01*
X309607Y422991D01*
X309410Y422000D01*
Y415770D01*
X316500D01*
X323590D01*
Y422000D01*
X323393Y422991D01*
X322831Y423831D01*
X322637Y423961D01*
X321643Y424759D01*
X321840Y425750D01*
Y427651D01*
X324500D01*
X325590Y427868D01*
X326514Y428486D01*
X327132Y429410D01*
X327349Y430500D01*
X327132Y431590D01*
X326514Y432514D01*
X325590Y433132D01*
X324500Y433349D01*
X321840D01*
Y435250D01*
X321643Y436241D01*
X321081Y437081D01*
X320241Y437643D01*
X319250Y437840D01*
D02*
G37*
G36*
X-460750D02*
X-462230D01*
Y430500D01*
X-463500D01*
Y429230D01*
X-468840D01*
Y425750D01*
X-468643Y424759D01*
X-468777Y424435D01*
X-468991Y424393D01*
X-469831Y423831D01*
X-470393Y422991D01*
X-470590Y422000D01*
Y415770D01*
X-463500D01*
X-456410D01*
Y422000D01*
X-456607Y422991D01*
X-457169Y423831D01*
X-457363Y423961D01*
X-458357Y424759D01*
X-458160Y425750D01*
Y427651D01*
X-455500D01*
X-454410Y427868D01*
X-453486Y428486D01*
X-452868Y429410D01*
X-452651Y430500D01*
X-452868Y431590D01*
X-453486Y432514D01*
X-454410Y433132D01*
X-455500Y433349D01*
X-458160D01*
Y435250D01*
X-458357Y436241D01*
X-458919Y437081D01*
X-459759Y437643D01*
X-460750Y437840D01*
D02*
G37*
G36*
X-160750D02*
X-162230D01*
Y430500D01*
X-163500D01*
Y429230D01*
X-168840D01*
Y425750D01*
X-168643Y424759D01*
X-168777Y424435D01*
X-168991Y424393D01*
X-169831Y423831D01*
X-170393Y422991D01*
X-170590Y422000D01*
Y415770D01*
X-163500D01*
X-156410D01*
Y422000D01*
X-156607Y422991D01*
X-157169Y423831D01*
X-157363Y423961D01*
X-158357Y424759D01*
X-158160Y425750D01*
Y427651D01*
X-155500D01*
X-154410Y427868D01*
X-153486Y428486D01*
X-152868Y429410D01*
X-152651Y430500D01*
X-152868Y431590D01*
X-153486Y432514D01*
X-154410Y433132D01*
X-155500Y433349D01*
X-158160D01*
Y435250D01*
X-158357Y436241D01*
X-158919Y437081D01*
X-159759Y437643D01*
X-160750Y437840D01*
D02*
G37*
G36*
X-344770D02*
X-346250D01*
X-347241Y437643D01*
X-348081Y437081D01*
X-348643Y436241D01*
X-348840Y435250D01*
Y431770D01*
X-344770D01*
Y437840D01*
D02*
G37*
G36*
X-44770D02*
X-46250D01*
X-47241Y437643D01*
X-48081Y437081D01*
X-48643Y436241D01*
X-48840Y435250D01*
Y431770D01*
X-44770D01*
Y437840D01*
D02*
G37*
G36*
X255230D02*
X253750D01*
X252759Y437643D01*
X251919Y437081D01*
X251357Y436241D01*
X251160Y435250D01*
Y431770D01*
X255230D01*
Y437840D01*
D02*
G37*
G36*
X-404770D02*
X-406250D01*
X-407241Y437643D01*
X-408081Y437081D01*
X-408643Y436241D01*
X-408840Y435250D01*
Y431770D01*
X-404770D01*
Y437840D01*
D02*
G37*
G36*
X439250D02*
X437770D01*
Y430500D01*
X436500D01*
Y429230D01*
X431160D01*
Y425750D01*
X431357Y424759D01*
X431223Y424435D01*
X431009Y424393D01*
X430169Y423831D01*
X429607Y422991D01*
X429410Y422000D01*
Y415770D01*
X436500D01*
X443590D01*
Y422000D01*
X443393Y422991D01*
X442831Y423831D01*
X442637Y423961D01*
X441643Y424759D01*
X441840Y425750D01*
Y427651D01*
X444500D01*
X445590Y427868D01*
X446514Y428486D01*
X447132Y429410D01*
X447349Y430500D01*
X447132Y431590D01*
X446514Y432514D01*
X445590Y433132D01*
X444500Y433349D01*
X441840D01*
Y435250D01*
X441643Y436241D01*
X441081Y437081D01*
X440241Y437643D01*
X439250Y437840D01*
D02*
G37*
G36*
X75230D02*
X73750D01*
X72759Y437643D01*
X71919Y437081D01*
X71357Y436241D01*
X71160Y435250D01*
Y431770D01*
X75230D01*
Y437840D01*
D02*
G37*
G36*
X375230D02*
X373750D01*
X372759Y437643D01*
X371919Y437081D01*
X371357Y436241D01*
X371160Y435250D01*
Y431770D01*
X375230D01*
Y437840D01*
D02*
G37*
G36*
X503590Y413230D02*
X497770D01*
Y404410D01*
X501000D01*
X501991Y404607D01*
X502831Y405169D01*
X503393Y406009D01*
X503590Y407000D01*
Y413230D01*
D02*
G37*
G36*
X-280750Y437840D02*
X-282230D01*
Y430500D01*
X-283500D01*
Y429230D01*
X-288840D01*
Y425750D01*
X-288643Y424759D01*
X-289637Y423961D01*
X-289831Y423831D01*
X-290393Y422991D01*
X-290590Y422000D01*
Y415770D01*
X-283500D01*
X-276410D01*
Y422000D01*
X-276607Y422991D01*
X-277169Y423831D01*
X-277363Y423961D01*
X-278357Y424759D01*
X-278160Y425750D01*
Y427651D01*
X-275500D01*
X-274410Y427868D01*
X-273486Y428486D01*
X-272868Y429410D01*
X-272651Y430500D01*
X-272868Y431590D01*
X-273486Y432514D01*
X-274410Y433132D01*
X-275500Y433349D01*
X-278160D01*
Y435250D01*
X-278357Y436241D01*
X-278919Y437081D01*
X-279759Y437643D01*
X-280750Y437840D01*
D02*
G37*
G36*
X19250D02*
X17770D01*
Y430500D01*
X16500D01*
Y429230D01*
X11160D01*
Y425750D01*
X11357Y424759D01*
X11223Y424435D01*
X11009Y424393D01*
X10169Y423831D01*
X9607Y422991D01*
X9410Y422000D01*
Y415770D01*
X16500D01*
X23590D01*
Y422000D01*
X23393Y422991D01*
X22831Y423831D01*
X22637Y423961D01*
X21643Y424759D01*
X21840Y425750D01*
Y427651D01*
X24500D01*
X25590Y427868D01*
X26514Y428486D01*
X27132Y429410D01*
X27349Y430500D01*
X27132Y431590D01*
X26514Y432514D01*
X25590Y433132D01*
X24500Y433349D01*
X21840D01*
Y435250D01*
X21643Y436241D01*
X21081Y437081D01*
X20241Y437643D01*
X19250Y437840D01*
D02*
G37*
G36*
X495230Y413230D02*
X489410D01*
Y407000D01*
X489607Y406009D01*
X490169Y405169D01*
X491009Y404607D01*
X492000Y404410D01*
X495230D01*
Y413230D01*
D02*
G37*
G36*
X383590Y413230D02*
X377770D01*
Y404410D01*
X381000D01*
X381991Y404607D01*
X382831Y405169D01*
X383393Y406009D01*
X383590Y407000D01*
Y413230D01*
D02*
G37*
G36*
X435230Y413230D02*
X429410D01*
Y407000D01*
X429607Y406009D01*
X430169Y405169D01*
X431009Y404607D01*
X432000Y404410D01*
X435230D01*
Y413230D01*
D02*
G37*
G36*
X443590D02*
X437770D01*
Y404410D01*
X441000D01*
X441991Y404607D01*
X442831Y405169D01*
X443393Y406009D01*
X443590Y407000D01*
Y413230D01*
D02*
G37*
G36*
X-220750Y437840D02*
X-222230D01*
Y430500D01*
X-223500D01*
Y429230D01*
X-228840D01*
Y425750D01*
X-228643Y424759D01*
X-228777Y424435D01*
X-228991Y424393D01*
X-229831Y423831D01*
X-230393Y422991D01*
X-230590Y422000D01*
Y415770D01*
X-223500D01*
X-216410D01*
Y422000D01*
X-216607Y422991D01*
X-217169Y423831D01*
X-217363Y423961D01*
X-218357Y424759D01*
X-218160Y425750D01*
Y427651D01*
X-215500D01*
X-214410Y427868D01*
X-213486Y428486D01*
X-212868Y429410D01*
X-212651Y430500D01*
X-212868Y431590D01*
X-213486Y432514D01*
X-214410Y433132D01*
X-215500Y433349D01*
X-218160D01*
Y435250D01*
X-218357Y436241D01*
X-218919Y437081D01*
X-219759Y437643D01*
X-220750Y437840D01*
D02*
G37*
G36*
X-40750D02*
X-42230D01*
Y430500D01*
X-43500D01*
Y429230D01*
X-48840D01*
Y425750D01*
X-48643Y424759D01*
X-48777Y424435D01*
X-48991Y424393D01*
X-49831Y423831D01*
X-50393Y422991D01*
X-50590Y422000D01*
Y415770D01*
X-43500D01*
X-36410D01*
Y422000D01*
X-36607Y422991D01*
X-37169Y423831D01*
X-37363Y423961D01*
X-38357Y424759D01*
X-38160Y425750D01*
Y427651D01*
X-35500D01*
X-34410Y427868D01*
X-33486Y428486D01*
X-32868Y429410D01*
X-32651Y430500D01*
X-32868Y431590D01*
X-33486Y432514D01*
X-34410Y433132D01*
X-35500Y433349D01*
X-38160D01*
Y435250D01*
X-38357Y436241D01*
X-38919Y437081D01*
X-39759Y437643D01*
X-40750Y437840D01*
D02*
G37*
G36*
X259250D02*
X257770D01*
Y430500D01*
X256500D01*
Y429230D01*
X251160D01*
Y425750D01*
X251357Y424759D01*
X251223Y424435D01*
X251009Y424393D01*
X250169Y423831D01*
X249607Y422991D01*
X249410Y422000D01*
Y415770D01*
X256500D01*
X263590D01*
Y422000D01*
X263393Y422991D01*
X262831Y423831D01*
X262637Y423961D01*
X261643Y424759D01*
X261840Y425750D01*
Y427651D01*
X264500D01*
X265590Y427868D01*
X266514Y428486D01*
X267132Y429410D01*
X267349Y430500D01*
X267132Y431590D01*
X266514Y432514D01*
X265590Y433132D01*
X264500Y433349D01*
X261840D01*
Y435250D01*
X261643Y436241D01*
X261081Y437081D01*
X260241Y437643D01*
X259250Y437840D01*
D02*
G37*
G36*
X-340750D02*
X-342230D01*
Y430500D01*
X-343500D01*
Y429230D01*
X-348840D01*
Y425750D01*
X-348643Y424759D01*
X-349637Y423961D01*
X-349831Y423831D01*
X-350393Y422991D01*
X-350590Y422000D01*
Y415770D01*
X-343500D01*
X-336410D01*
Y422000D01*
X-336607Y422991D01*
X-337169Y423831D01*
X-337363Y423961D01*
X-338357Y424759D01*
X-338160Y425750D01*
Y427651D01*
X-335500D01*
X-334410Y427868D01*
X-333486Y428486D01*
X-332868Y429410D01*
X-332651Y430500D01*
X-332868Y431590D01*
X-333486Y432514D01*
X-334410Y433132D01*
X-335500Y433349D01*
X-338160D01*
Y435250D01*
X-338357Y436241D01*
X-338919Y437081D01*
X-339759Y437643D01*
X-340750Y437840D01*
D02*
G37*
G36*
X79250D02*
X77770D01*
Y430500D01*
X76500D01*
Y429230D01*
X71160D01*
Y425750D01*
X71357Y424759D01*
X71223Y424435D01*
X71009Y424393D01*
X70169Y423831D01*
X69607Y422991D01*
X69410Y422000D01*
Y415770D01*
X76500D01*
X83590D01*
Y422000D01*
X83393Y422991D01*
X82831Y423831D01*
X82637Y423961D01*
X81643Y424759D01*
X81840Y425750D01*
Y427651D01*
X84500D01*
X85590Y427868D01*
X86514Y428486D01*
X87132Y429410D01*
X87349Y430500D01*
X87132Y431590D01*
X86514Y432514D01*
X85590Y433132D01*
X84500Y433349D01*
X81840D01*
Y435250D01*
X81643Y436241D01*
X81081Y437081D01*
X80241Y437643D01*
X79250Y437840D01*
D02*
G37*
G36*
X379250D02*
X377770D01*
Y430500D01*
X376500D01*
Y429230D01*
X371160D01*
Y425750D01*
X371357Y424759D01*
X371223Y424435D01*
X371009Y424393D01*
X370169Y423831D01*
X369607Y422991D01*
X369410Y422000D01*
Y415770D01*
X376500D01*
X383590D01*
Y422000D01*
X383393Y422991D01*
X382831Y423831D01*
X382637Y423961D01*
X381643Y424759D01*
X381840Y425750D01*
Y427651D01*
X384500D01*
X385590Y427868D01*
X386514Y428486D01*
X387132Y429410D01*
X387349Y430500D01*
X387132Y431590D01*
X386514Y432514D01*
X385590Y433132D01*
X384500Y433349D01*
X381840D01*
Y435250D01*
X381643Y436241D01*
X381081Y437081D01*
X380241Y437643D01*
X379250Y437840D01*
D02*
G37*
G36*
X-400750D02*
X-402230D01*
Y430500D01*
X-403500D01*
Y429230D01*
X-408840D01*
Y425750D01*
X-408643Y424759D01*
X-409637Y423961D01*
X-409831Y423831D01*
X-410393Y422991D01*
X-410590Y422000D01*
Y415770D01*
X-403500D01*
X-396410D01*
Y422000D01*
X-396607Y422991D01*
X-397169Y423831D01*
X-397363Y423961D01*
X-398357Y424759D01*
X-398160Y425750D01*
Y427651D01*
X-395500D01*
X-394410Y427868D01*
X-393486Y428486D01*
X-392868Y429410D01*
X-392651Y430500D01*
X-392868Y431590D01*
X-393486Y432514D01*
X-394410Y433132D01*
X-395500Y433349D01*
X-398160D01*
Y435250D01*
X-398357Y436241D01*
X-398919Y437081D01*
X-399759Y437643D01*
X-400750Y437840D01*
D02*
G37*
G36*
X-56750Y436900D02*
X-62250D01*
X-63416Y436416D01*
X-63570Y436045D01*
X-65073Y435522D01*
X-65345Y435704D01*
X-67500Y436132D01*
X-69655Y435704D01*
X-71483Y434483D01*
X-72703Y432655D01*
X-73132Y430500D01*
X-72703Y428345D01*
X-71483Y426517D01*
X-69655Y425297D01*
X-67500Y424868D01*
X-65345Y425297D01*
X-65073Y425478D01*
X-63570Y424955D01*
X-63416Y424584D01*
X-62349Y424141D01*
Y395680D01*
X-78514Y379514D01*
X-79132Y378590D01*
X-79349Y377500D01*
X-79349Y377500D01*
Y374650D01*
X-81000D01*
X-82166Y374166D01*
X-82650Y373000D01*
Y358000D01*
X-82166Y356834D01*
X-81000Y356350D01*
X-72000D01*
X-70834Y356834D01*
X-70350Y358000D01*
Y373000D01*
X-70834Y374166D01*
X-72000Y374650D01*
X-73651D01*
Y376320D01*
X-57486Y392486D01*
X-57486Y392486D01*
X-56868Y393410D01*
X-56651Y394500D01*
X-56651Y394500D01*
Y424141D01*
X-55584Y424584D01*
X-55100Y425750D01*
Y435250D01*
X-55584Y436416D01*
X-56750Y436900D01*
D02*
G37*
G36*
X3250D02*
X-2250D01*
X-3416Y436416D01*
X-3570Y436045D01*
X-5073Y435522D01*
X-5345Y435704D01*
X-7500Y436132D01*
X-9655Y435704D01*
X-11483Y434483D01*
X-12703Y432655D01*
X-13132Y430500D01*
X-12703Y428345D01*
X-11483Y426517D01*
X-9655Y425297D01*
X-7500Y424868D01*
X-5345Y425297D01*
X-5073Y425478D01*
X-3570Y424955D01*
X-3416Y424584D01*
X-2349Y424141D01*
Y395680D01*
X-14447Y383582D01*
X-15433Y384391D01*
X-14797Y385345D01*
X-14368Y387500D01*
X-14797Y389655D01*
X-16017Y391483D01*
X-17845Y392704D01*
X-20000Y393132D01*
X-21302Y392873D01*
X-21928Y394044D01*
X-14486Y401486D01*
X-14486Y401486D01*
X-13868Y402410D01*
X-13651Y403500D01*
X-13651Y403500D01*
Y405350D01*
X-12000D01*
X-10834Y405834D01*
X-10350Y407000D01*
Y422000D01*
X-10834Y423166D01*
X-12000Y423650D01*
X-21000D01*
X-22166Y423166D01*
X-22650Y422000D01*
Y407000D01*
X-22166Y405834D01*
X-21000Y405350D01*
X-20474D01*
X-19948Y404080D01*
X-45514Y378514D01*
X-46132Y377590D01*
X-46349Y376500D01*
X-46349Y376500D01*
Y374650D01*
X-48000D01*
X-49166Y374166D01*
X-49650Y373000D01*
Y358000D01*
X-49166Y356834D01*
X-48000Y356350D01*
X-39000D01*
X-37834Y356834D01*
X-37350Y358000D01*
Y373000D01*
X-37834Y374166D01*
X-39000Y374650D01*
X-39526D01*
X-40052Y375920D01*
X-26544Y389428D01*
X-25373Y388802D01*
X-25632Y387500D01*
X-25203Y385345D01*
X-23983Y383517D01*
X-22155Y382296D01*
X-20000Y381868D01*
X-17845Y382296D01*
X-16891Y382934D01*
X-16082Y381947D01*
X-18514Y379514D01*
X-19132Y378590D01*
X-19349Y377500D01*
X-19349Y377500D01*
Y374650D01*
X-21000D01*
X-22166Y374166D01*
X-22650Y373000D01*
Y358000D01*
X-22166Y356834D01*
X-21000Y356350D01*
X-12000D01*
X-10834Y356834D01*
X-10350Y358000D01*
Y373000D01*
X-10834Y374166D01*
X-12000Y374650D01*
X-13651D01*
Y376320D01*
X2514Y392486D01*
X2514Y392486D01*
X3132Y393410D01*
X3349Y394500D01*
X3349Y394500D01*
Y424141D01*
X4416Y424584D01*
X4900Y425750D01*
Y435250D01*
X4416Y436416D01*
X3250Y436900D01*
D02*
G37*
G36*
X63250D02*
X57750D01*
X56584Y436416D01*
X56430Y436045D01*
X54927Y435522D01*
X54655Y435704D01*
X52500Y436132D01*
X50345Y435704D01*
X48517Y434483D01*
X47297Y432655D01*
X46868Y430500D01*
X47297Y428345D01*
X48517Y426517D01*
X50345Y425297D01*
X52500Y424868D01*
X54655Y425297D01*
X54927Y425478D01*
X56430Y424955D01*
X56584Y424584D01*
X57651Y424141D01*
Y395680D01*
X41486Y379514D01*
X40868Y378590D01*
X40651Y377500D01*
X40651Y377500D01*
Y374650D01*
X39000D01*
X37834Y374166D01*
X37350Y373000D01*
Y358000D01*
X37834Y356834D01*
X39000Y356350D01*
X48000D01*
X49166Y356834D01*
X49650Y358000D01*
Y373000D01*
X49166Y374166D01*
X48000Y374650D01*
X46349D01*
Y376320D01*
X62514Y392486D01*
X62514Y392486D01*
X63132Y393410D01*
X63349Y394500D01*
X63349Y394500D01*
Y424141D01*
X64416Y424584D01*
X64900Y425750D01*
Y435250D01*
X64416Y436416D01*
X63250Y436900D01*
D02*
G37*
G36*
X-116750D02*
X-122250D01*
X-123416Y436416D01*
X-123570Y436045D01*
X-125073Y435522D01*
X-125345Y435704D01*
X-127500Y436132D01*
X-129655Y435704D01*
X-131483Y434483D01*
X-132704Y432655D01*
X-133132Y430500D01*
X-132704Y428345D01*
X-131483Y426517D01*
X-129655Y425297D01*
X-127500Y424868D01*
X-125345Y425297D01*
X-125073Y425478D01*
X-123570Y424955D01*
X-123416Y424584D01*
X-122349Y424141D01*
Y395680D01*
X-138514Y379514D01*
X-139132Y378590D01*
X-139349Y377500D01*
X-139349Y377500D01*
Y374650D01*
X-141000D01*
X-142166Y374166D01*
X-142650Y373000D01*
Y358000D01*
X-142166Y356834D01*
X-141000Y356350D01*
X-132000D01*
X-130834Y356834D01*
X-130350Y358000D01*
Y373000D01*
X-130834Y374166D01*
X-132000Y374650D01*
X-133651D01*
Y376320D01*
X-117486Y392486D01*
X-117486Y392486D01*
X-116868Y393410D01*
X-116651Y394500D01*
X-116651Y394500D01*
Y424141D01*
X-115584Y424584D01*
X-115100Y425750D01*
Y435250D01*
X-115584Y436416D01*
X-116750Y436900D01*
D02*
G37*
G36*
X-296750D02*
X-302250D01*
X-303416Y436416D01*
X-303570Y436045D01*
X-305073Y435522D01*
X-305345Y435704D01*
X-307500Y436132D01*
X-309655Y435704D01*
X-311483Y434483D01*
X-312703Y432655D01*
X-313132Y430500D01*
X-312703Y428345D01*
X-311483Y426517D01*
X-309655Y425297D01*
X-307500Y424868D01*
X-305345Y425297D01*
X-305073Y425478D01*
X-303570Y424955D01*
X-303416Y424584D01*
X-302349Y424141D01*
Y395680D01*
X-318514Y379514D01*
X-319132Y378590D01*
X-319349Y377500D01*
X-319349Y377500D01*
Y374650D01*
X-321000D01*
X-322166Y374166D01*
X-322650Y373000D01*
Y358000D01*
X-322166Y356834D01*
X-321000Y356350D01*
X-312000D01*
X-310834Y356834D01*
X-310350Y358000D01*
Y373000D01*
X-310834Y374166D01*
X-312000Y374650D01*
X-313651D01*
Y376320D01*
X-297486Y392486D01*
X-297486Y392486D01*
X-296868Y393410D01*
X-296651Y394500D01*
X-296651Y394500D01*
Y424141D01*
X-295584Y424584D01*
X-295100Y425750D01*
Y435250D01*
X-295584Y436416D01*
X-296750Y436900D01*
D02*
G37*
G36*
X-236750D02*
X-242250D01*
X-243416Y436416D01*
X-243570Y436045D01*
X-245073Y435522D01*
X-245345Y435704D01*
X-247500Y436132D01*
X-249655Y435704D01*
X-251483Y434483D01*
X-252703Y432655D01*
X-253132Y430500D01*
X-252703Y428345D01*
X-251483Y426517D01*
X-249655Y425297D01*
X-247500Y424868D01*
X-245345Y425297D01*
X-245073Y425478D01*
X-243570Y424955D01*
X-243416Y424584D01*
X-242349Y424141D01*
Y395680D01*
X-258514Y379514D01*
X-259132Y378590D01*
X-259349Y377500D01*
X-259349Y377500D01*
Y374650D01*
X-261000D01*
X-262166Y374166D01*
X-262650Y373000D01*
Y358000D01*
X-262166Y356834D01*
X-261000Y356350D01*
X-252000D01*
X-250834Y356834D01*
X-250350Y358000D01*
Y373000D01*
X-250834Y374166D01*
X-252000Y374650D01*
X-253651D01*
Y376320D01*
X-237486Y392486D01*
X-237486Y392486D01*
X-236868Y393410D01*
X-236651Y394500D01*
X-236651Y394500D01*
Y424141D01*
X-235584Y424584D01*
X-235100Y425750D01*
Y435250D01*
X-235584Y436416D01*
X-236750Y436900D01*
D02*
G37*
G36*
X-176750D02*
X-182250D01*
X-183416Y436416D01*
X-183570Y436045D01*
X-185073Y435522D01*
X-185345Y435704D01*
X-187500Y436132D01*
X-189655Y435704D01*
X-191483Y434483D01*
X-192703Y432655D01*
X-193132Y430500D01*
X-192703Y428345D01*
X-191483Y426517D01*
X-189655Y425297D01*
X-187500Y424868D01*
X-185345Y425297D01*
X-185073Y425478D01*
X-183570Y424955D01*
X-183416Y424584D01*
X-182349Y424141D01*
Y395680D01*
X-198514Y379514D01*
X-199132Y378590D01*
X-199349Y377500D01*
X-199349Y377500D01*
Y374650D01*
X-201000D01*
X-202166Y374166D01*
X-202650Y373000D01*
Y358000D01*
X-202166Y356834D01*
X-201000Y356350D01*
X-192000D01*
X-190834Y356834D01*
X-190350Y358000D01*
Y373000D01*
X-190834Y374166D01*
X-192000Y374650D01*
X-193651D01*
Y376320D01*
X-177486Y392486D01*
X-177486Y392486D01*
X-176868Y393410D01*
X-176651Y394500D01*
X-176651Y394500D01*
Y424141D01*
X-175584Y424584D01*
X-175100Y425750D01*
Y435250D01*
X-175584Y436416D01*
X-176750Y436900D01*
D02*
G37*
G36*
X363250D02*
X357750D01*
X356584Y436416D01*
X356430Y436045D01*
X354927Y435522D01*
X354655Y435704D01*
X352500Y436132D01*
X350345Y435704D01*
X348517Y434483D01*
X347296Y432655D01*
X346868Y430500D01*
X347296Y428345D01*
X348517Y426517D01*
X350345Y425297D01*
X352500Y424868D01*
X354655Y425297D01*
X354927Y425478D01*
X356430Y424955D01*
X356584Y424584D01*
X357651Y424141D01*
Y395680D01*
X341486Y379514D01*
X340868Y378590D01*
X340651Y377500D01*
X340651Y377500D01*
Y374650D01*
X339000D01*
X337834Y374166D01*
X337350Y373000D01*
Y358000D01*
X337834Y356834D01*
X339000Y356350D01*
X348000D01*
X349166Y356834D01*
X349650Y358000D01*
Y373000D01*
X349166Y374166D01*
X348000Y374650D01*
X346349D01*
Y376320D01*
X362514Y392486D01*
X362514Y392486D01*
X363132Y393410D01*
X363349Y394500D01*
X363349Y394500D01*
Y424141D01*
X364416Y424584D01*
X364900Y425750D01*
Y435250D01*
X364416Y436416D01*
X363250Y436900D01*
D02*
G37*
G36*
X423250D02*
X417750D01*
X416584Y436416D01*
X416430Y436045D01*
X414927Y435522D01*
X414655Y435704D01*
X412500Y436132D01*
X410345Y435704D01*
X408517Y434483D01*
X407296Y432655D01*
X406868Y430500D01*
X407296Y428345D01*
X408517Y426517D01*
X410345Y425297D01*
X412500Y424868D01*
X414655Y425297D01*
X414927Y425478D01*
X416430Y424955D01*
X416584Y424584D01*
X417651Y424141D01*
Y395680D01*
X401486Y379514D01*
X400868Y378590D01*
X400651Y377500D01*
X400651Y377500D01*
Y374650D01*
X399000D01*
X397834Y374166D01*
X397350Y373000D01*
Y358000D01*
X397834Y356834D01*
X399000Y356350D01*
X408000D01*
X409166Y356834D01*
X409650Y358000D01*
Y373000D01*
X409166Y374166D01*
X408000Y374650D01*
X406349D01*
Y376320D01*
X422514Y392486D01*
X422514Y392486D01*
X423132Y393410D01*
X423349Y394500D01*
X423349Y394500D01*
Y424141D01*
X424416Y424584D01*
X424900Y425750D01*
Y435250D01*
X424416Y436416D01*
X423250Y436900D01*
D02*
G37*
G36*
X483250D02*
X477750D01*
X476584Y436416D01*
X476430Y436045D01*
X474927Y435522D01*
X474655Y435704D01*
X472500Y436132D01*
X470345Y435704D01*
X468517Y434483D01*
X467296Y432655D01*
X466868Y430500D01*
X467296Y428345D01*
X468517Y426517D01*
X470345Y425297D01*
X472500Y424868D01*
X474655Y425297D01*
X474927Y425478D01*
X476430Y424955D01*
X476584Y424584D01*
X477651Y424141D01*
Y395680D01*
X461486Y379514D01*
X460868Y378590D01*
X460651Y377500D01*
X460651Y377500D01*
Y374650D01*
X459000D01*
X457834Y374166D01*
X457350Y373000D01*
Y358000D01*
X457834Y356834D01*
X459000Y356350D01*
X468000D01*
X469166Y356834D01*
X469650Y358000D01*
Y373000D01*
X469166Y374166D01*
X468000Y374650D01*
X466349D01*
Y376320D01*
X482514Y392486D01*
X482514Y392486D01*
X483132Y393410D01*
X483349Y394500D01*
X483349Y394500D01*
Y424141D01*
X484416Y424584D01*
X484900Y425750D01*
Y435250D01*
X484416Y436416D01*
X483250Y436900D01*
D02*
G37*
G36*
X303250D02*
X297750D01*
X296584Y436416D01*
X296430Y436045D01*
X294927Y435522D01*
X294655Y435704D01*
X292500Y436132D01*
X290345Y435704D01*
X288517Y434483D01*
X287297Y432655D01*
X286868Y430500D01*
X287297Y428345D01*
X288517Y426517D01*
X290345Y425297D01*
X292500Y424868D01*
X294655Y425297D01*
X294927Y425478D01*
X296430Y424955D01*
X296584Y424584D01*
X297651Y424141D01*
Y395680D01*
X281486Y379514D01*
X280868Y378590D01*
X280651Y377500D01*
X280651Y377500D01*
Y374650D01*
X279000D01*
X277834Y374166D01*
X277350Y373000D01*
Y358000D01*
X277834Y356834D01*
X279000Y356350D01*
X288000D01*
X289166Y356834D01*
X289650Y358000D01*
Y373000D01*
X289166Y374166D01*
X288000Y374650D01*
X286349D01*
Y376320D01*
X302514Y392486D01*
X302514Y392486D01*
X303132Y393410D01*
X303349Y394500D01*
X303349Y394500D01*
Y424141D01*
X304416Y424584D01*
X304900Y425750D01*
Y435250D01*
X304416Y436416D01*
X303250Y436900D01*
D02*
G37*
G36*
X123250D02*
X117750D01*
X116584Y436416D01*
X116430Y436045D01*
X114927Y435522D01*
X114655Y435704D01*
X112500Y436132D01*
X110345Y435704D01*
X108517Y434483D01*
X107296Y432655D01*
X106868Y430500D01*
X107296Y428345D01*
X108517Y426517D01*
X110345Y425297D01*
X112500Y424868D01*
X114655Y425297D01*
X114927Y425478D01*
X116430Y424955D01*
X116584Y424584D01*
X117651Y424141D01*
Y395680D01*
X101486Y379514D01*
X100868Y378590D01*
X100651Y377500D01*
X100651Y377500D01*
Y374650D01*
X99000D01*
X97834Y374166D01*
X97350Y373000D01*
Y358000D01*
X97834Y356834D01*
X99000Y356350D01*
X108000D01*
X109166Y356834D01*
X109650Y358000D01*
Y373000D01*
X109166Y374166D01*
X108000Y374650D01*
X106349D01*
Y376320D01*
X122514Y392486D01*
X122514Y392486D01*
X123132Y393410D01*
X123349Y394500D01*
X123349Y394500D01*
Y424141D01*
X124416Y424584D01*
X124900Y425750D01*
Y435250D01*
X124416Y436416D01*
X123250Y436900D01*
D02*
G37*
G36*
X183250D02*
X177750D01*
X176584Y436416D01*
X176430Y436045D01*
X174927Y435522D01*
X174655Y435704D01*
X172500Y436132D01*
X170345Y435704D01*
X168517Y434483D01*
X167297Y432655D01*
X166868Y430500D01*
X167297Y428345D01*
X168517Y426517D01*
X170345Y425297D01*
X172500Y424868D01*
X174655Y425297D01*
X174927Y425478D01*
X176430Y424955D01*
X176584Y424584D01*
X177651Y424141D01*
Y395680D01*
X161486Y379514D01*
X160868Y378590D01*
X160651Y377500D01*
X160651Y377500D01*
Y374650D01*
X159000D01*
X157834Y374166D01*
X157350Y373000D01*
Y358000D01*
X157834Y356834D01*
X159000Y356350D01*
X168000D01*
X169166Y356834D01*
X169650Y358000D01*
Y373000D01*
X169166Y374166D01*
X168000Y374650D01*
X166349D01*
Y376320D01*
X182514Y392486D01*
X182514Y392486D01*
X183132Y393410D01*
X183349Y394500D01*
X183349Y394500D01*
Y424141D01*
X184416Y424584D01*
X184900Y425750D01*
Y435250D01*
X184416Y436416D01*
X183250Y436900D01*
D02*
G37*
G36*
X243250D02*
X237750D01*
X236584Y436416D01*
X236430Y436045D01*
X234927Y435522D01*
X234655Y435704D01*
X232500Y436132D01*
X230345Y435704D01*
X228517Y434483D01*
X227297Y432655D01*
X226868Y430500D01*
X227297Y428345D01*
X228517Y426517D01*
X230345Y425297D01*
X232500Y424868D01*
X234655Y425297D01*
X234927Y425478D01*
X236430Y424955D01*
X236584Y424584D01*
X237651Y424141D01*
Y395680D01*
X221486Y379514D01*
X220868Y378590D01*
X220651Y377500D01*
X220651Y377500D01*
Y374650D01*
X219000D01*
X217834Y374166D01*
X217350Y373000D01*
Y358000D01*
X217834Y356834D01*
X219000Y356350D01*
X228000D01*
X229166Y356834D01*
X229650Y358000D01*
Y373000D01*
X229166Y374166D01*
X228000Y374650D01*
X226349D01*
Y376320D01*
X242514Y392486D01*
X242514Y392486D01*
X243132Y393410D01*
X243349Y394500D01*
X243349Y394500D01*
Y424141D01*
X244416Y424584D01*
X244900Y425750D01*
Y435250D01*
X244416Y436416D01*
X243250Y436900D01*
D02*
G37*
G36*
X-104770Y437840D02*
X-106250D01*
X-107241Y437643D01*
X-108081Y437081D01*
X-108643Y436241D01*
X-108840Y435250D01*
Y431770D01*
X-104770D01*
Y437840D01*
D02*
G37*
G36*
X195230D02*
X193750D01*
X192759Y437643D01*
X191919Y437081D01*
X191357Y436241D01*
X191160Y435250D01*
Y431770D01*
X195230D01*
Y437840D01*
D02*
G37*
G36*
X495230D02*
X493750D01*
X492759Y437643D01*
X491919Y437081D01*
X491357Y436241D01*
X491160Y435250D01*
Y431770D01*
X495230D01*
Y437840D01*
D02*
G37*
G36*
X-164770D02*
X-166250D01*
X-167241Y437643D01*
X-168081Y437081D01*
X-168643Y436241D01*
X-168840Y435250D01*
Y431770D01*
X-164770D01*
Y437840D01*
D02*
G37*
G36*
X315230D02*
X313750D01*
X312759Y437643D01*
X311919Y437081D01*
X311357Y436241D01*
X311160Y435250D01*
Y431770D01*
X315230D01*
Y437840D01*
D02*
G37*
G36*
X-464770D02*
X-466250D01*
X-467241Y437643D01*
X-468081Y437081D01*
X-468643Y436241D01*
X-468840Y435250D01*
Y431770D01*
X-464770D01*
Y437840D01*
D02*
G37*
G36*
X-284770D02*
X-286250D01*
X-287241Y437643D01*
X-288081Y437081D01*
X-288643Y436241D01*
X-288840Y435250D01*
Y431770D01*
X-284770D01*
Y437840D01*
D02*
G37*
G36*
X-476750Y436900D02*
X-482250D01*
X-483416Y436416D01*
X-483570Y436045D01*
X-485073Y435522D01*
X-485345Y435704D01*
X-487500Y436132D01*
X-489655Y435704D01*
X-491483Y434483D01*
X-492704Y432655D01*
X-493132Y430500D01*
X-492704Y428345D01*
X-491483Y426517D01*
X-489655Y425297D01*
X-487500Y424868D01*
X-485345Y425297D01*
X-485073Y425478D01*
X-483570Y424955D01*
X-483416Y424584D01*
X-482349Y424141D01*
Y395680D01*
X-498514Y379514D01*
X-499132Y378590D01*
X-499349Y377500D01*
X-499349Y377500D01*
Y374650D01*
X-501000D01*
X-502166Y374166D01*
X-502650Y373000D01*
Y358000D01*
X-502166Y356834D01*
X-501000Y356350D01*
X-492000D01*
X-490834Y356834D01*
X-490350Y358000D01*
Y373000D01*
X-490834Y374166D01*
X-492000Y374650D01*
X-493651D01*
Y376320D01*
X-477486Y392486D01*
X-477486Y392486D01*
X-476868Y393410D01*
X-476651Y394500D01*
X-476651Y394500D01*
Y424141D01*
X-475584Y424584D01*
X-475100Y425750D01*
Y435250D01*
X-475584Y436416D01*
X-476750Y436900D01*
D02*
G37*
G36*
X-416750D02*
X-422250D01*
X-423416Y436416D01*
X-423570Y436045D01*
X-425073Y435522D01*
X-425345Y435704D01*
X-427500Y436132D01*
X-429655Y435704D01*
X-431483Y434483D01*
X-432704Y432655D01*
X-433132Y430500D01*
X-432704Y428345D01*
X-431483Y426517D01*
X-429655Y425297D01*
X-427500Y424868D01*
X-425345Y425297D01*
X-425073Y425478D01*
X-423570Y424955D01*
X-423416Y424584D01*
X-422349Y424141D01*
Y395680D01*
X-438514Y379514D01*
X-439132Y378590D01*
X-439349Y377500D01*
X-439349Y377500D01*
Y374650D01*
X-441000D01*
X-442166Y374166D01*
X-442650Y373000D01*
Y358000D01*
X-442166Y356834D01*
X-441000Y356350D01*
X-432000D01*
X-430834Y356834D01*
X-430350Y358000D01*
Y373000D01*
X-430834Y374166D01*
X-432000Y374650D01*
X-433651D01*
Y376320D01*
X-417486Y392486D01*
X-417486Y392486D01*
X-416868Y393410D01*
X-416651Y394500D01*
X-416651Y394500D01*
Y424141D01*
X-415584Y424584D01*
X-415100Y425750D01*
Y435250D01*
X-415584Y436416D01*
X-416750Y436900D01*
D02*
G37*
G36*
X-356750D02*
X-362250D01*
X-363416Y436416D01*
X-363570Y436045D01*
X-365073Y435522D01*
X-365345Y435704D01*
X-367500Y436132D01*
X-369655Y435704D01*
X-371483Y434483D01*
X-372704Y432655D01*
X-373132Y430500D01*
X-372704Y428345D01*
X-371483Y426517D01*
X-369655Y425297D01*
X-367500Y424868D01*
X-365345Y425297D01*
X-365073Y425478D01*
X-363570Y424955D01*
X-363416Y424584D01*
X-362349Y424141D01*
Y395680D01*
X-378514Y379514D01*
X-379132Y378590D01*
X-379349Y377500D01*
X-379349Y377500D01*
Y374650D01*
X-381000D01*
X-382166Y374166D01*
X-382650Y373000D01*
Y358000D01*
X-382166Y356834D01*
X-381000Y356350D01*
X-372000D01*
X-370834Y356834D01*
X-370350Y358000D01*
Y373000D01*
X-370834Y374166D01*
X-372000Y374650D01*
X-373651D01*
Y376320D01*
X-357486Y392486D01*
X-357486Y392486D01*
X-356868Y393410D01*
X-356651Y394500D01*
X-356651Y394500D01*
Y424141D01*
X-355584Y424584D01*
X-355100Y425750D01*
Y435250D01*
X-355584Y436416D01*
X-356750Y436900D01*
D02*
G37*
G36*
X15230Y437840D02*
X13750D01*
X12759Y437643D01*
X11919Y437081D01*
X11357Y436241D01*
X11160Y435250D01*
Y431770D01*
X15230D01*
Y437840D01*
D02*
G37*
G36*
X-224770D02*
X-226250D01*
X-227241Y437643D01*
X-228081Y437081D01*
X-228643Y436241D01*
X-228840Y435250D01*
Y431770D01*
X-224770D01*
Y437840D01*
D02*
G37*
G36*
X135230D02*
X133750D01*
X132759Y437643D01*
X131919Y437081D01*
X131357Y436241D01*
X131160Y435250D01*
Y431770D01*
X135230D01*
Y437840D01*
D02*
G37*
G36*
X435230D02*
X433750D01*
X432759Y437643D01*
X431919Y437081D01*
X431357Y436241D01*
X431160Y435250D01*
Y431770D01*
X435230D01*
Y437840D01*
D02*
G37*
G36*
X48000Y423650D02*
X39000D01*
X37834Y423166D01*
X37350Y422000D01*
Y407000D01*
X37834Y405834D01*
X39000Y405350D01*
X39526D01*
X40052Y404080D01*
X14486Y378514D01*
X13868Y377590D01*
X13651Y376500D01*
X13651Y376500D01*
Y374650D01*
X12000D01*
X10834Y374166D01*
X10350Y373000D01*
Y358000D01*
X10834Y356834D01*
X12000Y356350D01*
X21000D01*
X22166Y356834D01*
X22650Y358000D01*
Y373000D01*
X22166Y374166D01*
X21000Y374650D01*
X20474D01*
X19948Y375920D01*
X45514Y401486D01*
X45514Y401486D01*
X46132Y402410D01*
X46349Y403500D01*
X46349Y403500D01*
Y405350D01*
X48000D01*
X49166Y405834D01*
X49650Y407000D01*
Y422000D01*
X49166Y423166D01*
X48000Y423650D01*
D02*
G37*
G36*
X108000D02*
X99000D01*
X97834Y423166D01*
X97350Y422000D01*
Y407000D01*
X97834Y405834D01*
X99000Y405350D01*
X99526D01*
X100052Y404080D01*
X74486Y378514D01*
X73868Y377590D01*
X73651Y376500D01*
X73651Y376500D01*
Y374650D01*
X72000D01*
X70834Y374166D01*
X70350Y373000D01*
Y358000D01*
X70834Y356834D01*
X72000Y356350D01*
X81000D01*
X82166Y356834D01*
X82649Y358000D01*
Y373000D01*
X82166Y374166D01*
X81000Y374650D01*
X80474D01*
X79948Y375920D01*
X105514Y401486D01*
X105514Y401486D01*
X106132Y402410D01*
X106349Y403500D01*
X106349Y403500D01*
Y405350D01*
X108000D01*
X109166Y405834D01*
X109650Y407000D01*
Y422000D01*
X109166Y423166D01*
X108000Y423650D01*
D02*
G37*
G36*
X168000D02*
X159000D01*
X157834Y423166D01*
X157350Y422000D01*
Y407000D01*
X157834Y405834D01*
X159000Y405350D01*
X159526D01*
X160052Y404080D01*
X134486Y378514D01*
X133868Y377590D01*
X133651Y376500D01*
X133651Y376500D01*
Y374650D01*
X132000D01*
X130834Y374166D01*
X130350Y373000D01*
Y358000D01*
X130834Y356834D01*
X132000Y356350D01*
X141000D01*
X142166Y356834D01*
X142649Y358000D01*
Y373000D01*
X142166Y374166D01*
X141000Y374650D01*
X140474D01*
X139948Y375920D01*
X165514Y401486D01*
X165514Y401486D01*
X166132Y402410D01*
X166349Y403500D01*
X166349Y403500D01*
Y405350D01*
X168000D01*
X169166Y405834D01*
X169650Y407000D01*
Y422000D01*
X169166Y423166D01*
X168000Y423650D01*
D02*
G37*
G36*
X-72000D02*
X-81000D01*
X-82166Y423166D01*
X-82650Y422000D01*
Y407000D01*
X-82166Y405834D01*
X-81000Y405350D01*
X-80474D01*
X-79948Y404080D01*
X-105514Y378514D01*
X-106132Y377590D01*
X-106349Y376500D01*
X-106349Y376500D01*
Y374650D01*
X-108000D01*
X-109166Y374166D01*
X-109650Y373000D01*
Y358000D01*
X-109166Y356834D01*
X-108000Y356350D01*
X-99000D01*
X-97834Y356834D01*
X-97351Y358000D01*
Y373000D01*
X-97834Y374166D01*
X-99000Y374650D01*
X-99526D01*
X-100052Y375920D01*
X-74486Y401486D01*
X-74486Y401486D01*
X-73868Y402410D01*
X-73651Y403500D01*
X-73651Y403500D01*
Y405350D01*
X-72000D01*
X-70834Y405834D01*
X-70350Y407000D01*
Y422000D01*
X-70834Y423166D01*
X-72000Y423650D01*
D02*
G37*
G36*
X-252000D02*
X-261000D01*
X-262166Y423166D01*
X-262650Y422000D01*
Y407000D01*
X-262166Y405834D01*
X-261000Y405350D01*
X-260474D01*
X-259948Y404080D01*
X-285514Y378514D01*
X-286132Y377590D01*
X-286349Y376500D01*
X-286349Y376500D01*
Y374650D01*
X-288000D01*
X-289166Y374166D01*
X-289650Y373000D01*
Y358000D01*
X-289166Y356834D01*
X-288000Y356350D01*
X-279000D01*
X-277834Y356834D01*
X-277350Y358000D01*
Y373000D01*
X-277834Y374166D01*
X-279000Y374650D01*
X-279526D01*
X-280052Y375920D01*
X-254486Y401486D01*
X-254486Y401486D01*
X-253868Y402410D01*
X-253651Y403500D01*
X-253651Y403500D01*
Y405350D01*
X-252000D01*
X-250834Y405834D01*
X-250350Y407000D01*
Y422000D01*
X-250834Y423166D01*
X-252000Y423650D01*
D02*
G37*
G36*
X-192000D02*
X-201000D01*
X-202166Y423166D01*
X-202650Y422000D01*
Y407000D01*
X-202166Y405834D01*
X-201000Y405350D01*
X-200474D01*
X-199948Y404080D01*
X-225514Y378514D01*
X-226132Y377590D01*
X-226349Y376500D01*
X-226349Y376500D01*
Y374650D01*
X-228000D01*
X-229166Y374166D01*
X-229650Y373000D01*
Y358000D01*
X-229166Y356834D01*
X-228000Y356350D01*
X-219000D01*
X-217834Y356834D01*
X-217350Y358000D01*
Y373000D01*
X-217834Y374166D01*
X-219000Y374650D01*
X-219526D01*
X-220052Y375920D01*
X-194486Y401486D01*
X-194486Y401486D01*
X-193868Y402410D01*
X-193651Y403500D01*
X-193651Y403500D01*
Y405350D01*
X-192000D01*
X-190834Y405834D01*
X-190350Y407000D01*
Y422000D01*
X-190834Y423166D01*
X-192000Y423650D01*
D02*
G37*
G36*
X-132000D02*
X-141000D01*
X-142166Y423166D01*
X-142650Y422000D01*
Y407000D01*
X-142166Y405834D01*
X-141000Y405350D01*
X-140474D01*
X-139948Y404080D01*
X-165514Y378514D01*
X-166132Y377590D01*
X-166349Y376500D01*
X-166349Y376500D01*
Y374650D01*
X-168000D01*
X-169166Y374166D01*
X-169650Y373000D01*
Y358000D01*
X-169166Y356834D01*
X-168000Y356350D01*
X-159000D01*
X-157834Y356834D01*
X-157350Y358000D01*
Y373000D01*
X-157834Y374166D01*
X-159000Y374650D01*
X-159526D01*
X-160052Y375920D01*
X-134486Y401486D01*
X-134486Y401486D01*
X-133868Y402410D01*
X-133651Y403500D01*
X-133651Y403500D01*
Y405350D01*
X-132000D01*
X-130834Y405834D01*
X-130350Y407000D01*
Y422000D01*
X-130834Y423166D01*
X-132000Y423650D01*
D02*
G37*
G36*
X468000D02*
X459000D01*
X457834Y423166D01*
X457350Y422000D01*
Y407000D01*
X457834Y405834D01*
X459000Y405350D01*
X459526D01*
X460052Y404080D01*
X434486Y378514D01*
X433868Y377590D01*
X433651Y376500D01*
X433651Y376500D01*
Y374650D01*
X432000D01*
X430834Y374166D01*
X430350Y373000D01*
Y358000D01*
X430834Y356834D01*
X432000Y356350D01*
X441000D01*
X442166Y356834D01*
X442650Y358000D01*
Y373000D01*
X442166Y374166D01*
X441000Y374650D01*
X440474D01*
X439948Y375920D01*
X465514Y401486D01*
X465514Y401486D01*
X466132Y402410D01*
X466349Y403500D01*
X466349Y403500D01*
Y405350D01*
X468000D01*
X469166Y405834D01*
X469650Y407000D01*
Y422000D01*
X469166Y423166D01*
X468000Y423650D01*
D02*
G37*
G36*
X501000Y374650D02*
X492000D01*
X490834Y374166D01*
X490350Y373000D01*
Y363379D01*
X454442Y327470D01*
X453824Y326546D01*
X453607Y325456D01*
X453607Y325456D01*
Y246461D01*
X452337Y246076D01*
X452233Y246233D01*
X450405Y247453D01*
X448250Y247882D01*
X446095Y247453D01*
X444267Y246233D01*
X443046Y244405D01*
X442618Y242250D01*
X443046Y240095D01*
X444267Y238267D01*
X446095Y237047D01*
X448250Y236618D01*
X450405Y237047D01*
X452233Y238267D01*
X452473Y238627D01*
X453821Y238359D01*
X453824Y238346D01*
X454442Y237421D01*
X457135Y234728D01*
Y152512D01*
X453942Y149319D01*
X453324Y148394D01*
X453107Y147304D01*
X453107Y147304D01*
Y114044D01*
X453107Y114044D01*
X453324Y112954D01*
X453942Y112030D01*
X477986Y87986D01*
X477986Y87986D01*
X478910Y87368D01*
X480000Y87151D01*
X495820D01*
X506151Y76820D01*
Y58180D01*
X471986Y24014D01*
X471368Y23090D01*
X471151Y22000D01*
X471151Y22000D01*
Y-5000D01*
X471151Y-5000D01*
X471368Y-6090D01*
X471986Y-7014D01*
X479986Y-15014D01*
X479986Y-15014D01*
X480910Y-15632D01*
X482000Y-15849D01*
X482000Y-15849D01*
X520000D01*
X520000Y-15849D01*
X521090Y-15632D01*
X522014Y-15014D01*
X528514Y-8514D01*
X528514Y-8514D01*
X529132Y-7590D01*
X529349Y-6500D01*
Y6350D01*
X531000D01*
X532166Y6834D01*
X532650Y8000D01*
Y23000D01*
X532166Y24166D01*
X531000Y24650D01*
X522000D01*
X520834Y24166D01*
X520350Y23000D01*
Y8000D01*
X520834Y6834D01*
X522000Y6350D01*
X523651D01*
Y2523D01*
X522381Y2138D01*
X521483Y3483D01*
X519655Y4703D01*
X517500Y5132D01*
X515345Y4703D01*
X515073Y4522D01*
X513570Y5045D01*
X513416Y5416D01*
X512349Y5859D01*
Y34320D01*
X528514Y50486D01*
X528514Y50486D01*
X529132Y51410D01*
X529349Y52500D01*
X529349Y52500D01*
Y55350D01*
X531000D01*
X532166Y55834D01*
X532650Y57000D01*
Y72000D01*
X532166Y73166D01*
X531000Y73650D01*
X522000D01*
X520834Y73166D01*
X520350Y72000D01*
Y57000D01*
X520834Y55834D01*
X522000Y55350D01*
X523651D01*
Y53680D01*
X507486Y37514D01*
X506868Y36590D01*
X506651Y35500D01*
X506651Y35500D01*
Y5859D01*
X505584Y5416D01*
X505100Y4250D01*
Y-5250D01*
X505584Y-6416D01*
X506750Y-6900D01*
X512250D01*
X513416Y-6416D01*
X513570Y-6045D01*
X515073Y-5522D01*
X515345Y-5703D01*
X517500Y-6132D01*
X519655Y-5703D01*
X521483Y-4483D01*
X522381Y-3138D01*
X523651Y-3523D01*
Y-5320D01*
X518820Y-10151D01*
X483180D01*
X476849Y-3820D01*
Y20820D01*
X511014Y54986D01*
X511014Y54986D01*
X511632Y55910D01*
X511849Y57000D01*
X511849Y57000D01*
Y78000D01*
X511849Y78000D01*
X511632Y79090D01*
X511014Y80014D01*
X499014Y92014D01*
X498090Y92632D01*
X497000Y92849D01*
X497000Y92849D01*
X481180D01*
X458805Y115224D01*
Y146124D01*
X461998Y149318D01*
X461998Y149318D01*
X462616Y150242D01*
X462833Y151332D01*
X462833Y151332D01*
Y235406D01*
X463250Y236618D01*
X465405Y237047D01*
X467233Y238267D01*
X468453Y240095D01*
X468882Y242250D01*
X468453Y244405D01*
X467233Y246233D01*
X465405Y247453D01*
X463250Y247882D01*
X461095Y247453D01*
X460425Y247006D01*
X459305Y247605D01*
Y324276D01*
X491561Y356532D01*
X492000Y356350D01*
X501000D01*
X502166Y356834D01*
X502650Y358000D01*
Y373000D01*
X502166Y374166D01*
X501000Y374650D01*
D02*
G37*
G36*
X-464770Y413230D02*
X-470590D01*
Y407000D01*
X-470393Y406009D01*
X-469831Y405169D01*
X-468991Y404607D01*
X-468000Y404410D01*
X-464770D01*
Y413230D01*
D02*
G37*
G36*
X408000Y423650D02*
X399000D01*
X397834Y423166D01*
X397350Y422000D01*
Y407000D01*
X397834Y405834D01*
X399000Y405350D01*
X399526D01*
X400052Y404080D01*
X374486Y378514D01*
X373868Y377590D01*
X373651Y376500D01*
X373651Y376500D01*
Y374650D01*
X372000D01*
X370834Y374166D01*
X370350Y373000D01*
Y358000D01*
X370834Y356834D01*
X372000Y356350D01*
X381000D01*
X382166Y356834D01*
X382650Y358000D01*
Y373000D01*
X382166Y374166D01*
X381000Y374650D01*
X380474D01*
X379948Y375920D01*
X405514Y401486D01*
X405514Y401486D01*
X406132Y402410D01*
X406349Y403500D01*
X406349Y403500D01*
Y405350D01*
X408000D01*
X409166Y405834D01*
X409650Y407000D01*
Y422000D01*
X409166Y423166D01*
X408000Y423650D01*
D02*
G37*
G36*
X228000D02*
X219000D01*
X217834Y423166D01*
X217350Y422000D01*
Y407000D01*
X217834Y405834D01*
X219000Y405350D01*
X219526D01*
X220052Y404080D01*
X194486Y378514D01*
X193868Y377590D01*
X193651Y376500D01*
X193651Y376500D01*
Y374650D01*
X192000D01*
X190834Y374166D01*
X190350Y373000D01*
Y358000D01*
X190834Y356834D01*
X192000Y356350D01*
X201000D01*
X202166Y356834D01*
X202650Y358000D01*
Y373000D01*
X202166Y374166D01*
X201000Y374650D01*
X200474D01*
X199948Y375920D01*
X225514Y401486D01*
X225514Y401486D01*
X226132Y402410D01*
X226349Y403500D01*
X226349Y403500D01*
Y405350D01*
X228000D01*
X229166Y405834D01*
X229650Y407000D01*
Y422000D01*
X229166Y423166D01*
X228000Y423650D01*
D02*
G37*
G36*
X288000D02*
X279000D01*
X277834Y423166D01*
X277350Y422000D01*
Y407000D01*
X277834Y405834D01*
X279000Y405350D01*
X279526D01*
X280052Y404080D01*
X254486Y378514D01*
X253868Y377590D01*
X253651Y376500D01*
X253651Y376500D01*
Y374650D01*
X252000D01*
X250834Y374166D01*
X250350Y373000D01*
Y358000D01*
X250834Y356834D01*
X252000Y356350D01*
X261000D01*
X262166Y356834D01*
X262650Y358000D01*
Y373000D01*
X262166Y374166D01*
X261000Y374650D01*
X260474D01*
X259948Y375920D01*
X285514Y401486D01*
X285514Y401486D01*
X286132Y402410D01*
X286349Y403500D01*
X286349Y403500D01*
Y405350D01*
X288000D01*
X289166Y405834D01*
X289650Y407000D01*
Y422000D01*
X289166Y423166D01*
X288000Y423650D01*
D02*
G37*
G36*
X348000D02*
X339000D01*
X337834Y423166D01*
X337350Y422000D01*
Y407000D01*
X337834Y405834D01*
X339000Y405350D01*
X339526D01*
X340052Y404080D01*
X314486Y378514D01*
X313868Y377590D01*
X313651Y376500D01*
X313651Y376500D01*
Y374650D01*
X312000D01*
X310834Y374166D01*
X310350Y373000D01*
Y358000D01*
X310834Y356834D01*
X312000Y356350D01*
X321000D01*
X322166Y356834D01*
X322649Y358000D01*
Y373000D01*
X322166Y374166D01*
X321000Y374650D01*
X320474D01*
X319948Y375920D01*
X345514Y401486D01*
X345514Y401486D01*
X346132Y402410D01*
X346349Y403500D01*
X346349Y403500D01*
Y405350D01*
X348000D01*
X349166Y405834D01*
X349650Y407000D01*
Y422000D01*
X349166Y423166D01*
X348000Y423650D01*
D02*
G37*
G36*
X-190500Y325442D02*
X-192556Y325171D01*
X-194471Y324378D01*
X-196116Y323116D01*
X-197378Y321471D01*
X-198171Y319555D01*
X-198442Y317500D01*
X-198171Y315445D01*
X-197378Y313529D01*
X-196116Y311884D01*
X-194471Y310622D01*
X-192556Y309829D01*
X-190500Y309558D01*
X-188444Y309829D01*
X-186529Y310622D01*
X-184884Y311884D01*
X-183622Y313529D01*
X-182829Y315445D01*
X-182558Y317500D01*
X-182829Y319555D01*
X-183622Y321471D01*
X-184884Y323116D01*
X-186529Y324378D01*
X-188444Y325171D01*
X-190500Y325442D01*
D02*
G37*
G36*
X190500D02*
X188444Y325171D01*
X186529Y324378D01*
X184884Y323116D01*
X183622Y321471D01*
X182829Y319555D01*
X182558Y317500D01*
X182829Y315445D01*
X183622Y313529D01*
X184884Y311884D01*
X186529Y310622D01*
X188444Y309829D01*
X190500Y309558D01*
X192556Y309829D01*
X194471Y310622D01*
X196116Y311884D01*
X197378Y313529D01*
X198171Y315445D01*
X198442Y317500D01*
X198171Y319555D01*
X197378Y321471D01*
X196116Y323116D01*
X194471Y324378D01*
X192556Y325171D01*
X190500Y325442D01*
D02*
G37*
G36*
X215900D02*
X213845Y325171D01*
X211929Y324378D01*
X210284Y323116D01*
X209022Y321471D01*
X208229Y319555D01*
X207958Y317500D01*
X208229Y315445D01*
X209022Y313529D01*
X210284Y311884D01*
X211929Y310622D01*
X213845Y309829D01*
X215900Y309558D01*
X217955Y309829D01*
X219871Y310622D01*
X221516Y311884D01*
X222778Y313529D01*
X223571Y315445D01*
X223842Y317500D01*
X223571Y319555D01*
X222778Y321471D01*
X221516Y323116D01*
X219871Y324378D01*
X217955Y325171D01*
X215900Y325442D01*
D02*
G37*
G36*
X-215900D02*
X-217955Y325171D01*
X-219871Y324378D01*
X-221516Y323116D01*
X-222778Y321471D01*
X-223571Y319555D01*
X-223842Y317500D01*
X-223571Y315445D01*
X-222778Y313529D01*
X-221516Y311884D01*
X-219871Y310622D01*
X-217955Y309829D01*
X-215900Y309558D01*
X-213845Y309829D01*
X-211929Y310622D01*
X-210284Y311884D01*
X-209022Y313529D01*
X-208229Y315445D01*
X-207958Y317500D01*
X-208229Y319555D01*
X-209022Y321471D01*
X-210284Y323116D01*
X-211929Y324378D01*
X-213845Y325171D01*
X-215900Y325442D01*
D02*
G37*
G36*
X70000Y268632D02*
X67845Y268204D01*
X66017Y266983D01*
X64797Y265155D01*
X64368Y263000D01*
X64797Y260845D01*
X66017Y259017D01*
X67845Y257796D01*
X70000Y257368D01*
X72155Y257796D01*
X73983Y259017D01*
X75203Y260845D01*
X75632Y263000D01*
X75203Y265155D01*
X73983Y266983D01*
X72155Y268204D01*
X70000Y268632D01*
D02*
G37*
G36*
X-19500Y352132D02*
X-21655Y351703D01*
X-23483Y350483D01*
X-24704Y348655D01*
X-25132Y346500D01*
X-24704Y344345D01*
X-23483Y342517D01*
X-21655Y341297D01*
X-19500Y340868D01*
X-18849Y340333D01*
Y223180D01*
X-24014Y218014D01*
X-24632Y217090D01*
X-24849Y216000D01*
X-24849Y216000D01*
Y202698D01*
X-25923Y201664D01*
X-26068Y201619D01*
X-28155Y201203D01*
X-29983Y199983D01*
X-30740Y198849D01*
X-374000D01*
X-374000Y198849D01*
X-374684Y198713D01*
X-399651Y223680D01*
Y227760D01*
X-398517Y228517D01*
X-397296Y230345D01*
X-396868Y232500D01*
X-397296Y234655D01*
X-398517Y236483D01*
X-400345Y237703D01*
X-402500Y238132D01*
X-404655Y237703D01*
X-406483Y236483D01*
X-407704Y234655D01*
X-408132Y232500D01*
X-407704Y230345D01*
X-406483Y228517D01*
X-405349Y227760D01*
Y222500D01*
X-405349Y222500D01*
X-405132Y221410D01*
X-404514Y220486D01*
X-377014Y192986D01*
X-377014Y192986D01*
X-376090Y192368D01*
X-375000Y192151D01*
X-373910Y192368D01*
X-372986Y192986D01*
X-372820Y193151D01*
X-30740D01*
X-29983Y192017D01*
X-28155Y190797D01*
X-26000Y190368D01*
X-23845Y190797D01*
X-22017Y192017D01*
X-20796Y193845D01*
X-20610Y194785D01*
X-19231Y195203D01*
X-14014Y189986D01*
X-14014Y189986D01*
X-13090Y189368D01*
X-12000Y189151D01*
X-9180D01*
X-4366Y184338D01*
X-4632Y183000D01*
X-4203Y180845D01*
X-2983Y179017D01*
X-1155Y177796D01*
X1000Y177368D01*
X3155Y177796D01*
X4881Y178950D01*
X6151Y178654D01*
Y177180D01*
X4986Y176014D01*
X4368Y175090D01*
X4151Y174000D01*
X4151Y174000D01*
Y154290D01*
X4151Y154290D01*
X4368Y153200D01*
X4986Y152276D01*
X27631Y129630D01*
Y67220D01*
X10686Y50274D01*
X10068Y49350D01*
X9851Y48260D01*
X9851Y48260D01*
Y-33360D01*
X8717Y-34117D01*
X7497Y-35945D01*
X7068Y-38100D01*
X7497Y-40255D01*
X8717Y-42083D01*
X10545Y-43303D01*
X12700Y-43732D01*
X14855Y-43303D01*
X16683Y-42083D01*
X17903Y-40255D01*
X18332Y-38100D01*
X17903Y-35945D01*
X16683Y-34117D01*
X15549Y-33360D01*
Y47080D01*
X32494Y64026D01*
X32494Y64026D01*
X33112Y64950D01*
X33329Y66040D01*
Y130810D01*
X33329Y130810D01*
X33112Y131900D01*
X32494Y132824D01*
X32494Y132824D01*
X9849Y155470D01*
Y163603D01*
X11119Y164282D01*
X11845Y163797D01*
X14000Y163368D01*
X16155Y163797D01*
X17983Y165017D01*
X19203Y166845D01*
X19632Y169000D01*
X19203Y171155D01*
X17983Y172983D01*
X16155Y174203D01*
X14000Y174632D01*
X12723Y174378D01*
X12643Y174417D01*
X11745Y175479D01*
X11849Y176000D01*
Y184603D01*
X13119Y185282D01*
X13845Y184797D01*
X16000Y184368D01*
X18155Y184797D01*
X19983Y186017D01*
X20740Y187151D01*
X52820D01*
X88986Y150986D01*
X89910Y150368D01*
X91000Y150151D01*
X91000Y150151D01*
X99820D01*
X106986Y142985D01*
X106986Y142985D01*
X107910Y142368D01*
X108146Y142321D01*
X109017Y141017D01*
X110844Y139796D01*
X113000Y139368D01*
X115155Y139796D01*
X116982Y141017D01*
X118203Y142844D01*
X118632Y145000D01*
X118203Y147155D01*
X116982Y148982D01*
X115155Y150203D01*
X113905Y150452D01*
Y151747D01*
X114155Y151797D01*
X115983Y153017D01*
X117204Y154845D01*
X117632Y157000D01*
X117204Y159155D01*
X115983Y160983D01*
X114155Y162204D01*
X112000Y162632D01*
X111299Y162493D01*
X111090Y162632D01*
X110000Y162849D01*
X110000Y162849D01*
X96180D01*
X52014Y207014D01*
X51090Y207632D01*
X50000Y207849D01*
X50000Y207849D01*
X34740D01*
X33983Y208983D01*
X32155Y210203D01*
X30000Y210632D01*
X27845Y210203D01*
X26017Y208983D01*
X24797Y207155D01*
X24368Y205000D01*
X24797Y202845D01*
X26017Y201017D01*
X27845Y199797D01*
X30000Y199368D01*
X32155Y199797D01*
X33983Y201017D01*
X34740Y202151D01*
X48820D01*
X92986Y157986D01*
X92986Y157986D01*
X93910Y157368D01*
X95000Y157151D01*
X95000Y157151D01*
X106244D01*
X106368Y157000D01*
X106797Y154845D01*
X108017Y153017D01*
X109845Y151797D01*
X111095Y151548D01*
Y150253D01*
X110844Y150203D01*
X109035Y148994D01*
X103014Y155014D01*
X102090Y155632D01*
X101000Y155849D01*
X101000Y155849D01*
X92180D01*
X56014Y192014D01*
X55090Y192632D01*
X54000Y192849D01*
X54000Y192849D01*
X20740D01*
X19983Y193983D01*
X18155Y195203D01*
X16000Y195632D01*
X13845Y195203D01*
X12017Y193983D01*
X11146Y192679D01*
X9646Y192383D01*
X1014Y201014D01*
X90Y201632D01*
X-1000Y201849D01*
X-1000Y201849D01*
X-1229D01*
X-1614Y203119D01*
X-1017Y203517D01*
X-260Y204651D01*
X12500D01*
X12500Y204651D01*
X13590Y204868D01*
X14514Y205486D01*
X37014Y227986D01*
X37014Y227986D01*
X37632Y228910D01*
X37849Y230000D01*
X37849Y230000D01*
Y256320D01*
X61180Y279651D01*
X385000D01*
X385000Y279651D01*
X386090Y279868D01*
X387014Y280486D01*
X404514Y297986D01*
X404514Y297986D01*
X405132Y298910D01*
X405349Y300000D01*
Y327010D01*
X406483Y327767D01*
X407704Y329595D01*
X408132Y331750D01*
X407704Y333905D01*
X406483Y335733D01*
X404655Y336954D01*
X402500Y337382D01*
X400345Y336954D01*
X398517Y335733D01*
X397296Y333905D01*
X396868Y331750D01*
X397296Y329595D01*
X398517Y327767D01*
X399651Y327010D01*
Y301180D01*
X383820Y285349D01*
X60000D01*
X60000Y285349D01*
X58910Y285132D01*
X57986Y284514D01*
X57986Y284514D01*
X32986Y259514D01*
X32368Y258590D01*
X32151Y257500D01*
X32151Y257500D01*
Y231180D01*
X16544Y215572D01*
X15373Y216198D01*
X15632Y217500D01*
X15203Y219655D01*
X13983Y221483D01*
X12155Y222703D01*
X10000Y223132D01*
X7845Y222703D01*
X6017Y221483D01*
X5260Y220349D01*
X-10500D01*
X-10500Y220349D01*
X-11590Y220132D01*
X-12514Y219514D01*
X-12514Y219514D01*
X-17003Y215026D01*
X-17442Y215021D01*
X-18363Y215462D01*
X-18354Y215617D01*
X-13986Y219986D01*
X-13368Y220910D01*
X-13151Y222000D01*
X-13151Y222000D01*
Y343000D01*
X-13151Y343000D01*
X-13368Y344090D01*
X-13986Y345014D01*
X-14134Y345163D01*
X-13868Y346500D01*
X-14296Y348655D01*
X-15517Y350483D01*
X-17345Y351703D01*
X-19500Y352132D01*
D02*
G37*
G36*
X-241300Y325442D02*
X-243356Y325171D01*
X-245271Y324378D01*
X-246916Y323116D01*
X-248178Y321471D01*
X-248971Y319555D01*
X-249242Y317500D01*
X-248971Y315445D01*
X-248178Y313529D01*
X-246916Y311884D01*
X-245271Y310622D01*
X-243356Y309829D01*
X-241300Y309558D01*
X-239244Y309829D01*
X-237329Y310622D01*
X-235684Y311884D01*
X-234422Y313529D01*
X-233629Y315445D01*
X-233358Y317500D01*
X-233629Y319555D01*
X-234422Y321471D01*
X-235684Y323116D01*
X-237329Y324378D01*
X-239244Y325171D01*
X-241300Y325442D01*
D02*
G37*
G36*
X-432000Y423650D02*
X-441000D01*
X-442166Y423166D01*
X-442650Y422000D01*
Y407000D01*
X-442166Y405834D01*
X-441000Y405350D01*
X-440474D01*
X-439948Y404080D01*
X-465514Y378514D01*
X-466132Y377590D01*
X-466349Y376500D01*
X-466349Y376500D01*
Y374650D01*
X-468000D01*
X-469166Y374166D01*
X-469650Y373000D01*
Y358000D01*
X-469166Y356834D01*
X-468000Y356350D01*
X-459000D01*
X-457834Y356834D01*
X-457350Y358000D01*
Y373000D01*
X-457834Y374166D01*
X-459000Y374650D01*
X-459526D01*
X-460052Y375920D01*
X-434486Y401486D01*
X-434486Y401486D01*
X-433868Y402410D01*
X-433651Y403500D01*
X-433651Y403500D01*
Y405350D01*
X-432000D01*
X-430834Y405834D01*
X-430350Y407000D01*
Y422000D01*
X-430834Y423166D01*
X-432000Y423650D01*
D02*
G37*
G36*
X-372000D02*
X-381000D01*
X-382166Y423166D01*
X-382650Y422000D01*
Y407000D01*
X-382166Y405834D01*
X-381000Y405350D01*
X-380474D01*
X-379948Y404080D01*
X-405514Y378514D01*
X-406132Y377590D01*
X-406349Y376500D01*
X-406349Y376500D01*
Y374650D01*
X-408000D01*
X-409166Y374166D01*
X-409650Y373000D01*
Y358000D01*
X-409166Y356834D01*
X-408000Y356350D01*
X-399000D01*
X-397834Y356834D01*
X-397350Y358000D01*
Y373000D01*
X-397834Y374166D01*
X-399000Y374650D01*
X-399526D01*
X-400052Y375920D01*
X-374486Y401486D01*
X-374486Y401486D01*
X-373868Y402410D01*
X-373651Y403500D01*
X-373651Y403500D01*
Y405350D01*
X-372000D01*
X-370834Y405834D01*
X-370350Y407000D01*
Y422000D01*
X-370834Y423166D01*
X-372000Y423650D01*
D02*
G37*
G36*
X-312000D02*
X-321000D01*
X-322166Y423166D01*
X-322650Y422000D01*
Y407000D01*
X-322166Y405834D01*
X-321000Y405350D01*
X-320474D01*
X-319948Y404080D01*
X-345514Y378514D01*
X-346132Y377590D01*
X-346349Y376500D01*
X-346349Y376500D01*
Y374650D01*
X-348000D01*
X-349166Y374166D01*
X-349650Y373000D01*
Y358000D01*
X-349166Y356834D01*
X-348000Y356350D01*
X-339000D01*
X-337834Y356834D01*
X-337351Y358000D01*
Y373000D01*
X-337834Y374166D01*
X-339000Y374650D01*
X-339526D01*
X-340052Y375920D01*
X-314486Y401486D01*
X-314486Y401486D01*
X-313868Y402410D01*
X-313651Y403500D01*
X-313651Y403500D01*
Y405350D01*
X-312000D01*
X-310834Y405834D01*
X-310350Y407000D01*
Y422000D01*
X-310834Y423166D01*
X-312000Y423650D01*
D02*
G37*
G36*
X-492000D02*
X-501000D01*
X-502166Y423166D01*
X-502650Y422000D01*
Y407000D01*
X-502166Y405834D01*
X-501000Y405350D01*
X-499349D01*
Y392180D01*
X-509514Y382014D01*
X-510132Y381090D01*
X-510349Y380000D01*
X-510349Y380000D01*
Y355000D01*
X-510349Y355000D01*
X-510132Y353910D01*
X-509514Y352986D01*
X-504514Y347986D01*
X-503590Y347368D01*
X-502500Y347151D01*
X-502500Y347151D01*
X-454740D01*
X-453983Y346017D01*
X-452155Y344796D01*
X-450000Y344368D01*
X-447845Y344796D01*
X-446017Y346017D01*
X-444796Y347845D01*
X-444368Y350000D01*
X-444796Y352155D01*
X-446017Y353983D01*
X-447845Y355204D01*
X-450000Y355632D01*
X-452155Y355204D01*
X-453983Y353983D01*
X-454740Y352849D01*
X-501320D01*
X-504651Y356180D01*
Y378820D01*
X-494486Y388986D01*
X-494486Y388986D01*
X-493868Y389910D01*
X-493651Y391000D01*
X-493651Y391000D01*
Y405350D01*
X-492000D01*
X-490834Y405834D01*
X-490350Y407000D01*
Y422000D01*
X-490834Y423166D01*
X-492000Y423650D01*
D02*
G37*
G36*
X241300Y325442D02*
X239244Y325171D01*
X237329Y324378D01*
X235684Y323116D01*
X234422Y321471D01*
X233629Y319555D01*
X233358Y317500D01*
X233629Y315445D01*
X234422Y313529D01*
X235684Y311884D01*
X237329Y310622D01*
X239244Y309829D01*
X241300Y309558D01*
X243356Y309829D01*
X245271Y310622D01*
X246916Y311884D01*
X248178Y313529D01*
X248971Y315445D01*
X249242Y317500D01*
X248971Y319555D01*
X248178Y321471D01*
X246916Y323116D01*
X245271Y324378D01*
X243356Y325171D01*
X241300Y325442D01*
D02*
G37*
G36*
X-463250Y327632D02*
X-465405Y327203D01*
X-467233Y325983D01*
X-468453Y324155D01*
X-468882Y322000D01*
X-468453Y319845D01*
X-467233Y318017D01*
X-465405Y316796D01*
X-463250Y316368D01*
X-461095Y316796D01*
X-459267Y318017D01*
X-458046Y319845D01*
X-457618Y322000D01*
X-458046Y324155D01*
X-459267Y325983D01*
X-461095Y327203D01*
X-463250Y327632D01*
D02*
G37*
G36*
X-448250D02*
X-450405Y327203D01*
X-452233Y325983D01*
X-453453Y324155D01*
X-453882Y322000D01*
X-453453Y319845D01*
X-452233Y318017D01*
X-450405Y316796D01*
X-448250Y316368D01*
X-446095Y316796D01*
X-444267Y318017D01*
X-443046Y319845D01*
X-442618Y322000D01*
X-443046Y324155D01*
X-444267Y325983D01*
X-446095Y327203D01*
X-448250Y327632D01*
D02*
G37*
G36*
X83590Y413230D02*
X77770D01*
Y404410D01*
X81000D01*
X81991Y404607D01*
X82831Y405169D01*
X83393Y406009D01*
X83590Y407000D01*
Y413230D01*
D02*
G37*
G36*
X135230Y413230D02*
X129410D01*
Y407000D01*
X129607Y406009D01*
X130169Y405169D01*
X131009Y404607D01*
X132000Y404410D01*
X135230D01*
Y413230D01*
D02*
G37*
G36*
X143590D02*
X137770D01*
Y404410D01*
X141000D01*
X141991Y404607D01*
X142831Y405169D01*
X143393Y406009D01*
X143590Y407000D01*
Y413230D01*
D02*
G37*
G36*
X75230Y413230D02*
X69410D01*
Y407000D01*
X69607Y406009D01*
X70169Y405169D01*
X71009Y404607D01*
X72000Y404410D01*
X75230D01*
Y413230D01*
D02*
G37*
G36*
X-36410Y413230D02*
X-42230D01*
Y404410D01*
X-39000D01*
X-38009Y404607D01*
X-37169Y405169D01*
X-36607Y406009D01*
X-36410Y407000D01*
Y413230D01*
D02*
G37*
G36*
X15230Y413230D02*
X9410D01*
Y407000D01*
X9607Y406009D01*
X10169Y405169D01*
X11009Y404607D01*
X12000Y404410D01*
X15230D01*
Y413230D01*
D02*
G37*
G36*
X23590D02*
X17770D01*
Y404410D01*
X21000D01*
X21991Y404607D01*
X22831Y405169D01*
X23393Y406009D01*
X23590Y407000D01*
Y413230D01*
D02*
G37*
G36*
X315230Y413230D02*
X309410D01*
Y407000D01*
X309607Y406009D01*
X310169Y405169D01*
X311009Y404607D01*
X312000Y404410D01*
X315230D01*
Y413230D01*
D02*
G37*
G36*
X323590D02*
X317770D01*
Y404410D01*
X321000D01*
X321991Y404607D01*
X322831Y405169D01*
X323393Y406009D01*
X323590Y407000D01*
Y413230D01*
D02*
G37*
G36*
X375230Y413230D02*
X369410D01*
Y407000D01*
X369607Y406009D01*
X370169Y405169D01*
X371009Y404607D01*
X372000Y404410D01*
X375230D01*
Y413230D01*
D02*
G37*
G36*
X263590Y413230D02*
X257770D01*
Y404410D01*
X261000D01*
X261991Y404607D01*
X262831Y405169D01*
X263393Y406009D01*
X263590Y407000D01*
Y413230D01*
D02*
G37*
G36*
X195230Y413230D02*
X189410D01*
Y407000D01*
X189607Y406009D01*
X190169Y405169D01*
X191009Y404607D01*
X192000Y404410D01*
X195230D01*
Y413230D01*
D02*
G37*
G36*
X203590D02*
X197770D01*
Y404410D01*
X201000D01*
X201991Y404607D01*
X202831Y405169D01*
X203393Y406009D01*
X203590Y407000D01*
Y413230D01*
D02*
G37*
G36*
X255230Y413230D02*
X249410D01*
Y407000D01*
X249607Y406009D01*
X250169Y405169D01*
X251009Y404607D01*
X252000Y404410D01*
X255230D01*
Y413230D01*
D02*
G37*
G36*
X-336410D02*
X-342230D01*
Y404410D01*
X-339000D01*
X-338009Y404607D01*
X-337169Y405169D01*
X-336607Y406009D01*
X-336410Y407000D01*
Y413230D01*
D02*
G37*
G36*
X-284770Y413230D02*
X-290590D01*
Y407000D01*
X-290393Y406009D01*
X-289831Y405169D01*
X-288991Y404607D01*
X-288000Y404410D01*
X-284770D01*
Y413230D01*
D02*
G37*
G36*
X-276410D02*
X-282230D01*
Y404410D01*
X-279000D01*
X-278009Y404607D01*
X-277169Y405169D01*
X-276607Y406009D01*
X-276410Y407000D01*
Y413230D01*
D02*
G37*
G36*
X-344770Y413230D02*
X-350590D01*
Y407000D01*
X-350393Y406009D01*
X-349831Y405169D01*
X-348991Y404607D01*
X-348000Y404410D01*
X-344770D01*
Y413230D01*
D02*
G37*
G36*
X-456410Y413230D02*
X-462230D01*
Y404410D01*
X-459000D01*
X-458009Y404607D01*
X-457169Y405169D01*
X-456607Y406009D01*
X-456410Y407000D01*
Y413230D01*
D02*
G37*
G36*
X-404770Y413230D02*
X-410590D01*
Y407000D01*
X-410393Y406009D01*
X-409831Y405169D01*
X-408991Y404607D01*
X-408000Y404410D01*
X-404770D01*
Y413230D01*
D02*
G37*
G36*
X-396410D02*
X-402230D01*
Y404410D01*
X-399000D01*
X-398009Y404607D01*
X-397169Y405169D01*
X-396607Y406009D01*
X-396410Y407000D01*
Y413230D01*
D02*
G37*
G36*
X-104770Y413230D02*
X-110590D01*
Y407000D01*
X-110393Y406009D01*
X-109831Y405169D01*
X-108991Y404607D01*
X-108000Y404410D01*
X-104770D01*
Y413230D01*
D02*
G37*
G36*
X-96410D02*
X-102230D01*
Y404410D01*
X-99000D01*
X-98009Y404607D01*
X-97169Y405169D01*
X-96607Y406009D01*
X-96410Y407000D01*
Y413230D01*
D02*
G37*
G36*
X-44770Y413230D02*
X-50590D01*
Y407000D01*
X-50393Y406009D01*
X-49831Y405169D01*
X-48991Y404607D01*
X-48000Y404410D01*
X-44770D01*
Y413230D01*
D02*
G37*
G36*
X-156410Y413230D02*
X-162230D01*
Y404410D01*
X-159000D01*
X-158009Y404607D01*
X-157169Y405169D01*
X-156607Y406009D01*
X-156410Y407000D01*
Y413230D01*
D02*
G37*
G36*
X-224770Y413230D02*
X-230590D01*
Y407000D01*
X-230393Y406009D01*
X-229831Y405169D01*
X-228991Y404607D01*
X-228000Y404410D01*
X-224770D01*
Y413230D01*
D02*
G37*
G36*
X-216410D02*
X-222230D01*
Y404410D01*
X-219000D01*
X-218009Y404607D01*
X-217169Y405169D01*
X-216607Y406009D01*
X-216410Y407000D01*
Y413230D01*
D02*
G37*
G36*
X-164770Y413230D02*
X-170590D01*
Y407000D01*
X-170393Y406009D01*
X-169831Y405169D01*
X-168991Y404607D01*
X-168000Y404410D01*
X-164770D01*
Y413230D01*
D02*
G37*
%LPD*%
D10*
X463500Y365500D02*
D03*
X496500D02*
D03*
Y414500D02*
D03*
X463500D02*
D03*
X403500Y365500D02*
D03*
X436500D02*
D03*
Y414500D02*
D03*
X403500D02*
D03*
X343500D02*
D03*
X376500D02*
D03*
Y365500D02*
D03*
X343500D02*
D03*
X283500Y414500D02*
D03*
X316500D02*
D03*
Y365500D02*
D03*
X283500D02*
D03*
X223500Y414500D02*
D03*
X256500D02*
D03*
Y365500D02*
D03*
X223500D02*
D03*
X163500Y414500D02*
D03*
X196500D02*
D03*
Y365500D02*
D03*
X163500D02*
D03*
X103500Y414500D02*
D03*
X136500D02*
D03*
Y365500D02*
D03*
X103500D02*
D03*
X43500Y414500D02*
D03*
X76500D02*
D03*
Y365500D02*
D03*
X43500D02*
D03*
X-16500Y414500D02*
D03*
X16500D02*
D03*
Y365500D02*
D03*
X-16500D02*
D03*
X-76500Y414500D02*
D03*
X-43500D02*
D03*
Y365500D02*
D03*
X-76500D02*
D03*
X-136500Y414500D02*
D03*
X-103500D02*
D03*
Y365500D02*
D03*
X-136500D02*
D03*
X-196500Y414500D02*
D03*
X-163500D02*
D03*
Y365500D02*
D03*
X-196500D02*
D03*
X-256500Y414500D02*
D03*
X-223500D02*
D03*
Y365500D02*
D03*
X-256500D02*
D03*
X-316500Y414500D02*
D03*
X-283500D02*
D03*
Y365500D02*
D03*
X-316500D02*
D03*
X-376500Y414500D02*
D03*
X-343500D02*
D03*
Y365500D02*
D03*
X-376500D02*
D03*
X-436500Y414500D02*
D03*
X-403500D02*
D03*
Y365500D02*
D03*
X-436500D02*
D03*
X-496500Y414500D02*
D03*
X-463500D02*
D03*
Y365500D02*
D03*
X-496500D02*
D03*
X-493500Y64500D02*
D03*
X-526500D02*
D03*
Y15500D02*
D03*
X-493500D02*
D03*
X526500Y64500D02*
D03*
X493500D02*
D03*
Y15500D02*
D03*
X526500D02*
D03*
D11*
X496500Y430500D02*
D03*
X480500D02*
D03*
X436500D02*
D03*
X420500D02*
D03*
X360500D02*
D03*
X376500D02*
D03*
X300500D02*
D03*
X316500D02*
D03*
X240500D02*
D03*
X256500D02*
D03*
X180500D02*
D03*
X196500D02*
D03*
X120500D02*
D03*
X136500D02*
D03*
X60500D02*
D03*
X76500D02*
D03*
X500D02*
D03*
X16500D02*
D03*
X-59500D02*
D03*
X-43500D02*
D03*
X-119500D02*
D03*
X-103500D02*
D03*
X-179500D02*
D03*
X-163500D02*
D03*
X-239500D02*
D03*
X-223500D02*
D03*
X-299500D02*
D03*
X-283500D02*
D03*
X-359500D02*
D03*
X-343500D02*
D03*
X-419500D02*
D03*
X-403500D02*
D03*
X-479500D02*
D03*
X-463500D02*
D03*
X493500Y-500D02*
D03*
X509500D02*
D03*
X-526500D02*
D03*
X-510500D02*
D03*
D12*
X-526500Y0D02*
X-526000D01*
X-527000Y-500D02*
X-526500Y0D01*
X-527000Y-11000D02*
Y-500D01*
X-493500Y3500D02*
Y15500D01*
Y3500D02*
X-480000Y-10000D01*
X217150Y57150D02*
X240000Y80000D01*
X478000D01*
X493500Y64500D01*
X455956Y114044D02*
X480000Y90000D01*
X455956Y114044D02*
Y147304D01*
X459984Y151332D01*
Y235908D01*
X456456Y239436D02*
X459984Y235908D01*
X456456Y239436D02*
Y325456D01*
X496500Y365500D01*
X509500Y-500D02*
X517500D01*
X485500D02*
X493500D01*
X-526500Y0D02*
Y15500D01*
Y-500D02*
Y0D01*
X-510000D02*
X-502000D01*
X-526500Y15500D02*
X-526500Y15500D01*
X-493500Y52500D02*
Y64500D01*
X-510500Y35500D02*
X-493500Y52500D01*
X-510500Y-500D02*
Y35500D01*
X493500Y15500D02*
X493500Y15500D01*
X493500Y-500D02*
Y15500D01*
X526500Y52500D02*
Y64500D01*
X509500Y35500D02*
X526500Y52500D01*
X509500Y-500D02*
Y35500D01*
X-507500Y380000D02*
X-496500Y391000D01*
X-507500Y355000D02*
Y380000D01*
Y355000D02*
X-502500Y350000D01*
X-450000D01*
X402500Y300000D02*
Y331750D01*
X385000Y282500D02*
X402500Y300000D01*
X60000Y282500D02*
X385000D01*
X35000Y257500D02*
X60000Y282500D01*
X-402500Y222500D02*
Y232500D01*
Y222500D02*
X-375000Y195000D01*
X-496500Y391000D02*
Y414500D01*
X472500Y430500D02*
X480500D01*
X496500D02*
X504500D01*
X412500D02*
X420500D01*
X436500D02*
X444500D01*
X352500D02*
X360500D01*
X376500D02*
X384500D01*
X292500D02*
X300500D01*
X316500D02*
X324500D01*
X232500D02*
X240500D01*
X256500D02*
X264500D01*
X172500D02*
X180500D01*
X196500D02*
X204500D01*
X112500D02*
X120500D01*
X136500D02*
X144500D01*
X52500D02*
X60500D01*
X76500D02*
X84500D01*
X-7500D02*
X500D01*
X16500D02*
X24500D01*
X-67500D02*
X-59500D01*
X-43500D02*
X-35500D01*
X-127500D02*
X-119500D01*
X-103500D02*
X-95500D01*
X-187500D02*
X-179500D01*
X-163500D02*
X-155500D01*
X-247500D02*
X-239500D01*
X-223500D02*
X-215500D01*
X-307500D02*
X-299500D01*
X-283500D02*
X-275500D01*
X-367500D02*
X-359500D01*
X-343500D02*
X-335500D01*
X-427500D02*
X-419500D01*
X-403500D02*
X-395500D01*
X-463500D02*
X-455500D01*
X-487500D02*
X-479500D01*
X480500Y394500D02*
Y430500D01*
X463500Y377500D02*
X480500Y394500D01*
X463500Y365500D02*
Y377500D01*
X496500Y414500D02*
Y430500D01*
X496500Y414500D02*
X496500Y414500D01*
X420500Y394500D02*
Y430500D01*
X403500Y377500D02*
X420500Y394500D01*
X403500Y365500D02*
Y377500D01*
X436500Y414500D02*
Y430500D01*
X436500Y414500D02*
X436500Y414500D01*
X436500Y365500D02*
Y376500D01*
X463500Y403500D01*
Y414500D01*
X360500Y394500D02*
Y430500D01*
X343500Y377500D02*
X360500Y394500D01*
X343500Y365500D02*
Y377500D01*
X376500Y414500D02*
Y430500D01*
X376500Y414500D02*
X376500Y414500D01*
X376500Y365500D02*
Y376500D01*
X403500Y403500D01*
Y414500D01*
X300500Y394500D02*
Y430500D01*
X283500Y377500D02*
X300500Y394500D01*
X283500Y365500D02*
Y377500D01*
X316500Y414500D02*
Y430500D01*
X316500Y414500D02*
X316500Y414500D01*
X316500Y365500D02*
Y376500D01*
X343500Y403500D01*
Y414500D01*
X240500Y394500D02*
Y430500D01*
X223500Y377500D02*
X240500Y394500D01*
X223500Y365500D02*
Y377500D01*
X256500Y414500D02*
Y430500D01*
X256500Y414500D02*
X256500Y414500D01*
X256500Y365500D02*
Y376500D01*
X283500Y403500D01*
Y414500D01*
X180500Y394500D02*
Y430500D01*
X163500Y377500D02*
X180500Y394500D01*
X163500Y365500D02*
Y377500D01*
X196500Y414500D02*
Y430500D01*
X196500Y414500D02*
X196500Y414500D01*
X196500Y365500D02*
Y376500D01*
X223500Y403500D01*
Y414500D01*
X120500Y394500D02*
Y430500D01*
X103500Y377500D02*
X120500Y394500D01*
X103500Y365500D02*
Y377500D01*
X136500Y414500D02*
Y430500D01*
X136500Y414500D02*
X136500Y414500D01*
X136500Y365500D02*
Y376500D01*
X163500Y403500D01*
Y414500D01*
X60500Y394500D02*
Y430500D01*
X43500Y377500D02*
X60500Y394500D01*
X43500Y365500D02*
Y377500D01*
X76500Y414500D02*
Y430500D01*
X76500Y414500D02*
X76500Y414500D01*
X76500Y365500D02*
Y376500D01*
X103500Y403500D01*
Y414500D01*
X500Y394500D02*
Y430500D01*
X-16500Y377500D02*
X500Y394500D01*
X-16500Y365500D02*
Y377500D01*
X16500Y414500D02*
Y430500D01*
X16500Y414500D02*
X16500Y414500D01*
X16500Y365500D02*
Y376500D01*
X43500Y403500D01*
Y414500D01*
X-59500Y394500D02*
Y430500D01*
X-76500Y377500D02*
X-59500Y394500D01*
X-76500Y365500D02*
Y377500D01*
X-43500Y414500D02*
Y430500D01*
X-43500Y414500D02*
X-43500Y414500D01*
X-43500Y365500D02*
Y376500D01*
X-16500Y403500D01*
Y414500D01*
X-119500Y394500D02*
Y430500D01*
X-136500Y377500D02*
X-119500Y394500D01*
X-136500Y365500D02*
Y377500D01*
X-103500Y414500D02*
Y430500D01*
X-103500Y414500D02*
X-103500Y414500D01*
X-103500Y365500D02*
Y376500D01*
X-76500Y403500D01*
Y414500D01*
X-179500Y394500D02*
Y430500D01*
X-196500Y377500D02*
X-179500Y394500D01*
X-196500Y365500D02*
Y377500D01*
X-163500Y414500D02*
Y430500D01*
X-163500Y414500D02*
X-163500Y414500D01*
X-163500Y365500D02*
Y376500D01*
X-136500Y403500D01*
Y414500D01*
X-239500Y394500D02*
Y430500D01*
X-256500Y377500D02*
X-239500Y394500D01*
X-256500Y365500D02*
Y377500D01*
X-223500Y414500D02*
Y430500D01*
X-223500Y414500D02*
X-223500Y414500D01*
X-223500Y365500D02*
Y376500D01*
X-196500Y403500D01*
Y414500D01*
X-299500Y394500D02*
Y430500D01*
X-316500Y377500D02*
X-299500Y394500D01*
X-316500Y365500D02*
Y377500D01*
X-283500Y414500D02*
Y430500D01*
X-283500Y414500D02*
X-283500Y414500D01*
X-283500Y365500D02*
Y376500D01*
X-256500Y403500D01*
Y414500D01*
X-359500Y394500D02*
Y430500D01*
X-376500Y377500D02*
X-359500Y394500D01*
X-376500Y365500D02*
Y377500D01*
X-343500Y414500D02*
Y430500D01*
X-343500Y414500D02*
X-343500Y414500D01*
X-343500Y365500D02*
Y376500D01*
X-316500Y403500D01*
Y414500D01*
X-419500Y394500D02*
Y430500D01*
X-436500Y377500D02*
X-419500Y394500D01*
X-436500Y365500D02*
Y377500D01*
X-403500Y414500D02*
Y430500D01*
X-403500Y414500D02*
X-403500Y414500D01*
X-403500Y365500D02*
Y376500D01*
X-376500Y403500D01*
Y414500D01*
X-436500Y403500D02*
Y414500D01*
X-463500Y376500D02*
X-436500Y403500D01*
X-463500Y365500D02*
Y376500D01*
Y414500D02*
X-463500Y414500D01*
Y430500D01*
X-496500Y365500D02*
Y377500D01*
X-479500Y394500D01*
Y430500D01*
X-252500Y115000D02*
X-15000D01*
X10000Y217500D02*
X12500D01*
X35000Y230000D02*
Y257500D01*
X12500Y207500D02*
X35000Y230000D01*
X-5000Y207500D02*
X12500D01*
X30000Y205000D02*
X50000D01*
X95000Y160000D01*
X16000Y190000D02*
X54000D01*
X91000Y153000D01*
X101000D01*
X95000Y160000D02*
X110000D01*
X112000Y158000D01*
Y157000D02*
Y158000D01*
X39000Y179000D02*
X111000Y107000D01*
X30000Y179000D02*
X39000D01*
X101000Y153000D02*
X109000Y145000D01*
X113000D01*
X107150Y242950D02*
X112230Y248030D01*
X107150Y232790D02*
Y242950D01*
X73660Y57150D02*
X217150D01*
X12700Y-38100D02*
Y48260D01*
X30480Y66040D01*
X-39530Y-10000D02*
X0Y-49530D01*
X-480000Y-10000D02*
X-39530D01*
X0Y-49530D02*
X21590D01*
X38260Y-32860D01*
Y21750D01*
X73660Y57150D01*
X78740Y-307340D02*
X88900Y-317500D01*
X124460Y-302260D02*
X139700Y-317500D01*
X170180Y-297180D02*
X190500Y-317500D01*
Y-292100D02*
X215900Y-317500D01*
X9236Y-286096D02*
X15240Y-292100D01*
X190500D01*
X7004Y-291484D02*
X12700Y-297180D01*
X170180D01*
X4772Y-296872D02*
X10160Y-302260D01*
X124460D01*
X2540D02*
X7620Y-307340D01*
X78740D01*
X-113030Y-302260D02*
X2540D01*
X-108566Y-291484D02*
X7004D01*
X-110798Y-296872D02*
X4772D01*
X-195580Y-219710D02*
X-113030Y-302260D01*
X-191116Y-208934D02*
X-108566Y-291484D01*
X-193348Y-214322D02*
X-110798Y-296872D01*
X-270510Y-219710D02*
X-195580D01*
X-266046Y-208934D02*
X-191116D01*
X-268278Y-214322D02*
X-193348D01*
X-285134Y-189846D02*
X-266046Y-208934D01*
X-279746Y-187614D02*
X-263815Y-203545D01*
X-285134Y-189846D02*
Y-168256D01*
X-279746Y-187614D02*
Y-170525D01*
X-273050Y-139700D02*
Y-137160D01*
X-279746Y-170525D02*
X-278130Y-168910D01*
Y-154940D01*
X-300990Y-189230D02*
X-270510Y-219710D01*
X-300990Y-189230D02*
Y-135890D01*
X-294640Y-187960D02*
X-268278Y-214322D01*
X-294640Y-187960D02*
Y-146790D01*
X-295910Y-145520D02*
X-294640Y-146790D01*
X-295910Y-145520D02*
Y-139700D01*
X-292330Y-136120D01*
X-293370Y-128270D02*
X-288290D01*
X-300990Y-135890D02*
X-293370Y-128270D01*
X-292330Y-136120D02*
X-274090D01*
X-273050Y-137160D01*
X-288290Y-165100D02*
X-285134Y-168256D01*
X-288290Y-165100D02*
Y-143510D01*
X30480Y66040D02*
Y130810D01*
X-12230Y158280D02*
Y166750D01*
Y158280D02*
X16510Y129540D01*
Y111760D02*
Y129540D01*
X2540Y97790D02*
X16510Y111760D01*
X2540Y-1270D02*
Y97790D01*
X-5080Y-8890D02*
X2540Y-1270D01*
X-20320Y-8890D02*
X-5080D01*
X-373380Y185420D02*
X-322920D01*
X-252500Y115000D01*
X-106334Y-286096D02*
X9236D01*
X-263815Y-203545D02*
X-188885D01*
X-106334Y-286096D01*
X526500Y-6500D02*
Y15500D01*
X520000Y-13000D02*
X526500Y-6500D01*
X482000Y-13000D02*
X520000D01*
X474000Y-5000D02*
X482000Y-13000D01*
X474000Y-5000D02*
Y22000D01*
X509000Y57000D01*
Y78000D01*
X497000Y90000D02*
X509000Y78000D01*
X480000Y90000D02*
X497000D01*
X-16000Y203000D02*
Y212000D01*
X-10500Y217500D01*
X10000D01*
X-375000Y195000D02*
X-374000Y196000D01*
X-26000D01*
X-16000Y203000D02*
X-12000Y199000D01*
X-1000D01*
X9000Y189000D01*
Y176000D02*
Y189000D01*
X7000Y174000D02*
X9000Y176000D01*
X7000Y154290D02*
Y174000D01*
Y154290D02*
X30480Y130810D01*
X-8000Y192000D02*
X1000Y183000D01*
X-12000Y192000D02*
X-8000D01*
X-22000Y202000D02*
X-12000Y192000D01*
X-22000Y202000D02*
Y216000D01*
X-16000Y222000D01*
Y343000D01*
X-19500Y346500D02*
X-16000Y343000D01*
D13*
X-235000Y-95000D02*
X-222500Y-107500D01*
Y-180000D02*
Y-107500D01*
X-362500Y-120000D02*
X-342500D01*
X-340000Y-122500D01*
X-257500Y-107500D02*
X-245000D01*
X-232500Y-120000D01*
X-297500Y-35000D02*
X-192500D01*
X-338000Y25000D02*
Y37000D01*
X-325000Y50000D01*
X-42500D01*
X-5000Y87500D01*
X-45000Y-257260D02*
Y-152950D01*
X-12700Y-120650D01*
X-32500Y157500D02*
Y182500D01*
Y157500D02*
X-5000Y130000D01*
Y87500D02*
Y130000D01*
X67310Y31810D02*
X78000Y42500D01*
X-320000Y-57500D02*
X-297500Y-35000D01*
X-320000Y-67500D02*
Y-57500D01*
X-12700Y-120650D02*
Y-105410D01*
X67310Y-25400D01*
Y31810D01*
X-45000Y-257260D02*
X-40640Y-261620D01*
D14*
X241300Y317500D02*
D03*
X215900D02*
D03*
X190500D02*
D03*
X-190500D02*
D03*
X-215900D02*
D03*
X-241300D02*
D03*
Y-317500D02*
D03*
X-215900D02*
D03*
X-190500D02*
D03*
X-165100D02*
D03*
X-139700D02*
D03*
X-114300D02*
D03*
X-88900D02*
D03*
X-63500D02*
D03*
X-38100D02*
D03*
X-12700D02*
D03*
X12700D02*
D03*
X38100D02*
D03*
X63500D02*
D03*
X88900D02*
D03*
X114300D02*
D03*
X139700D02*
D03*
X165100D02*
D03*
X190500D02*
D03*
X215900D02*
D03*
X241300D02*
D03*
D15*
X-510000Y200000D02*
D03*
Y-170000D02*
D03*
X510000D02*
D03*
D16*
X495250Y188500D02*
D03*
Y138500D02*
D03*
D17*
X522250Y128500D02*
D03*
Y198500D02*
D03*
D18*
X-20000Y387500D02*
D03*
X-42500Y332500D02*
D03*
X67500Y325000D02*
D03*
X-7500Y347500D02*
D03*
X504000Y317250D02*
D03*
X517500Y-500D02*
D03*
X485500D02*
D03*
X-502000Y0D02*
D03*
X-433000Y127000D02*
D03*
X-450000Y350000D02*
D03*
X402500Y331750D02*
D03*
X451250Y340500D02*
D03*
X-402500Y232500D02*
D03*
X-451250Y223750D02*
D03*
X463250Y242250D02*
D03*
X-288250Y312000D02*
D03*
X478500Y131100D02*
D03*
X491500Y259750D02*
D03*
Y277250D02*
D03*
Y317250D02*
D03*
X504000Y242250D02*
D03*
X-504000Y322000D02*
D03*
Y247000D02*
D03*
X-491500D02*
D03*
Y287000D02*
D03*
Y304500D02*
D03*
X472500Y430500D02*
D03*
X504500D02*
D03*
X412500D02*
D03*
X444500D02*
D03*
X352500D02*
D03*
X384500D02*
D03*
X292500D02*
D03*
X324500D02*
D03*
X232500D02*
D03*
X264500D02*
D03*
X172500D02*
D03*
X204500D02*
D03*
X112500D02*
D03*
X144500D02*
D03*
X52500D02*
D03*
X84500D02*
D03*
X-7500D02*
D03*
X24500D02*
D03*
X-67500D02*
D03*
X-35500D02*
D03*
X-127500D02*
D03*
X-95500D02*
D03*
X-187500D02*
D03*
X-155500D02*
D03*
X-247500D02*
D03*
X-215500D02*
D03*
X-307500D02*
D03*
X-275500D02*
D03*
X-367500D02*
D03*
X-335500D02*
D03*
X-427500D02*
D03*
X-395500D02*
D03*
X-455500D02*
D03*
X-487500D02*
D03*
X368500Y116600D02*
D03*
X518000D02*
D03*
Y-43300D02*
D03*
X-15000Y115000D02*
D03*
X10000Y217500D02*
D03*
X453190Y220090D02*
D03*
X448250Y242250D02*
D03*
X-235000Y-95000D02*
D03*
X-222500Y-180000D02*
D03*
X-290000Y-97500D02*
D03*
X-75000Y-115000D02*
D03*
X-152500Y227500D02*
D03*
X-30000D02*
D03*
X-122500Y217500D02*
D03*
X-110000Y230000D02*
D03*
X-5000Y207500D02*
D03*
X-295000Y-80000D02*
D03*
X-312500Y-110000D02*
D03*
X-172500Y-80000D02*
D03*
X457500Y-47500D02*
D03*
X383500D02*
D03*
X352500Y-26400D02*
D03*
X287500Y-125000D02*
D03*
X325000D02*
D03*
X180000D02*
D03*
X217500D02*
D03*
X-390000D02*
D03*
X-137500D02*
D03*
X-257500D02*
D03*
X-180000Y-113500D02*
D03*
X-330000Y128000D02*
D03*
X-218500Y35750D02*
D03*
Y69750D02*
D03*
X-407000Y155000D02*
D03*
X-433000Y114500D02*
D03*
X86830Y189610D02*
D03*
Y215010D02*
D03*
X-2070Y230250D02*
D03*
X13170D02*
D03*
X112230Y248030D02*
D03*
X94450Y202310D02*
D03*
X112230Y174370D02*
D03*
X384170Y-11130D02*
D03*
Y-970D02*
D03*
Y39670D02*
D03*
Y54910D02*
D03*
Y21890D02*
D03*
Y65070D02*
D03*
X-12230Y166750D02*
D03*
X427790Y183090D02*
D03*
X462750Y144490D02*
D03*
X356500Y11100D02*
D03*
X331000Y18600D02*
D03*
X311000D02*
D03*
X348250Y292250D02*
D03*
X328250D02*
D03*
X308250D02*
D03*
X288250D02*
D03*
X328250Y252250D02*
D03*
X-328250Y272000D02*
D03*
Y292000D02*
D03*
X-308250D02*
D03*
Y272000D02*
D03*
Y252000D02*
D03*
X-328250D02*
D03*
X-348250Y272000D02*
D03*
Y252000D02*
D03*
Y292000D02*
D03*
X-328250Y312000D02*
D03*
X-348250D02*
D03*
X-308250D02*
D03*
X-288250Y292000D02*
D03*
Y272000D02*
D03*
Y252000D02*
D03*
X348250Y252250D02*
D03*
Y312250D02*
D03*
X328250D02*
D03*
X288250D02*
D03*
X308250D02*
D03*
X288250Y252250D02*
D03*
X308250D02*
D03*
X15000Y84500D02*
D03*
X-51000Y151500D02*
D03*
X-60500Y128500D02*
D03*
X-72390Y264160D02*
D03*
X-51000Y248500D02*
D03*
X51000Y151500D02*
D03*
X78000Y42500D02*
D03*
X50500Y110000D02*
D03*
X48000Y137500D02*
D03*
X90500Y112500D02*
D03*
X-12000Y10000D02*
D03*
X83000Y7500D02*
D03*
X5500Y125000D02*
D03*
X-463250Y322000D02*
D03*
X-448250D02*
D03*
X30000Y205000D02*
D03*
X16000Y190000D02*
D03*
X112000Y157000D02*
D03*
X127000Y67000D02*
D03*
X106000D02*
D03*
X111000Y107000D02*
D03*
X30000Y179000D02*
D03*
X113000Y145000D02*
D03*
X190750Y-29250D02*
D03*
X206750D02*
D03*
X314250D02*
D03*
X298250D02*
D03*
X-172500Y242500D02*
D03*
X-82500Y233500D02*
D03*
X132550Y239150D02*
D03*
X-100500Y66500D02*
D03*
X-252000Y32000D02*
D03*
X348250Y272250D02*
D03*
X328250D02*
D03*
X308250D02*
D03*
X288250D02*
D03*
X386500Y211000D02*
D03*
X110500Y272000D02*
D03*
X160000Y182000D02*
D03*
X70000Y247000D02*
D03*
Y263000D02*
D03*
X86830Y240410D02*
D03*
X107150Y232790D02*
D03*
X-44000Y94000D02*
D03*
X373000Y144000D02*
D03*
X94450Y227710D02*
D03*
X-362500Y-120000D02*
D03*
X-340000Y-122500D02*
D03*
X-257500Y-107500D02*
D03*
X-232500Y-120000D02*
D03*
X-192500Y-35000D02*
D03*
X-320000Y-67500D02*
D03*
X27500Y-115000D02*
D03*
X-37500Y-105000D02*
D03*
X65000Y-85000D02*
D03*
X17500Y-100000D02*
D03*
X-361500Y65000D02*
D03*
X-370000Y7500D02*
D03*
X-302500D02*
D03*
X-302000Y25000D02*
D03*
X-338000D02*
D03*
X-32500Y182500D02*
D03*
X-63500Y-127000D02*
D03*
X-50800Y-114300D02*
D03*
X52500Y-87500D02*
D03*
X12700Y-38100D02*
D03*
X-278130Y-154940D02*
D03*
X-288290Y-143510D02*
D03*
X-273050Y-137160D02*
D03*
X-288290Y-128270D02*
D03*
X-20320Y-8890D02*
D03*
X-406400Y55880D02*
D03*
Y35560D02*
D03*
X-373380Y185420D02*
D03*
X-40640Y-261620D02*
D03*
X-30000Y-224000D02*
D03*
X-527000Y-11000D02*
D03*
X1000Y183000D02*
D03*
X14000Y169000D02*
D03*
X-26000Y196000D02*
D03*
X-19500Y346500D02*
D03*
D19*
X-300500Y83250D02*
D03*
X-311500D02*
D03*
X-300500Y72250D02*
D03*
X-311500D02*
D03*
X-300500Y61250D02*
D03*
X-311500D02*
D03*
M02*
