G04 Layer_Color=128*
%FSLAX44Y44*%
%MOMM*%
G71*
G01*
G75*
%ADD136C,0.0508*%
D136*
X237490Y317500D02*
X245110D01*
X241300Y313690D02*
Y321310D01*
X212090Y317500D02*
X219710D01*
X215900Y313690D02*
Y321310D01*
X186690Y317500D02*
X194310D01*
X190500Y313690D02*
Y321310D01*
X-194310Y317500D02*
X-186690D01*
X-190500Y313690D02*
Y321310D01*
X-219710Y317500D02*
X-212090D01*
X-215900Y313690D02*
Y321310D01*
X-245110Y317500D02*
X-237490D01*
X-241300Y313690D02*
Y321310D01*
X-245110Y-317500D02*
X-237490D01*
X-241300Y-321310D02*
Y-313690D01*
X-219710Y-317500D02*
X-212090D01*
X-215900Y-321310D02*
Y-313690D01*
X-194310Y-317500D02*
X-186690D01*
X-190500Y-321310D02*
Y-313690D01*
X-168910Y-317500D02*
X-161290D01*
X-165100Y-321310D02*
Y-313690D01*
X-143510Y-317500D02*
X-135890D01*
X-139700Y-321310D02*
Y-313690D01*
X-118110Y-317500D02*
X-110490D01*
X-114300Y-321310D02*
Y-313690D01*
X-92710Y-317500D02*
X-85090D01*
X-88900Y-321310D02*
Y-313690D01*
X-67310Y-317500D02*
X-59690D01*
X-63500Y-321310D02*
Y-313690D01*
X-41910Y-317500D02*
X-34290D01*
X-38100Y-321310D02*
Y-313690D01*
X-16510Y-317500D02*
X-8890D01*
X-12700Y-321310D02*
Y-313690D01*
X8890Y-317500D02*
X16510D01*
X12700Y-321310D02*
Y-313690D01*
X34290Y-317500D02*
X41910D01*
X38100Y-321310D02*
Y-313690D01*
X59690Y-317500D02*
X67310D01*
X63500Y-321310D02*
Y-313690D01*
X85090Y-317500D02*
X92710D01*
X88900Y-321310D02*
Y-313690D01*
X110490Y-317500D02*
X118110D01*
X114300Y-321310D02*
Y-313690D01*
X135890Y-317500D02*
X143510D01*
X139700Y-321310D02*
Y-313690D01*
X161290Y-317500D02*
X168910D01*
X165100Y-321310D02*
Y-313690D01*
X186690Y-317500D02*
X194310D01*
X190500Y-321310D02*
Y-313690D01*
X212090Y-317500D02*
X219710D01*
X215900Y-321310D02*
Y-313690D01*
X237490Y-317500D02*
X245110D01*
X241300Y-321310D02*
Y-313690D01*
X-527000Y200000D02*
X-493000D01*
X-510000Y183000D02*
Y217000D01*
X-527000Y-170000D02*
X-493000D01*
X-510000Y-187000D02*
Y-153000D01*
X493000Y-170000D02*
X527000D01*
X510000Y-187000D02*
Y-153000D01*
X272500Y-154000D02*
X281500D01*
X277000Y-158500D02*
Y-149500D01*
X331000Y-154000D02*
X340000D01*
X335500Y-158500D02*
Y-149500D01*
X165000Y-154000D02*
X174000D01*
X169500Y-158500D02*
Y-149500D01*
X223500Y-154000D02*
X232500D01*
X228000Y-158500D02*
Y-149500D01*
X-321500Y-154000D02*
X-312500D01*
X-317000Y-158500D02*
Y-149500D01*
X-405000Y-154000D02*
X-396000D01*
X-400500Y-158500D02*
Y-149500D01*
X-272500Y-154000D02*
X-263500D01*
X-268000Y-158500D02*
Y-149500D01*
X-201500Y-154000D02*
X-192500D01*
X-197000Y-158500D02*
Y-149500D01*
X-69000Y-154000D02*
X-60000D01*
X-64500Y-158500D02*
Y-149500D01*
X-152500Y-154000D02*
X-143500D01*
X-148000Y-158500D02*
Y-149500D01*
X491000Y188500D02*
X499500D01*
X495250Y184250D02*
Y192750D01*
X491000Y138500D02*
X499500D01*
X495250Y134250D02*
Y142750D01*
X519750Y128500D02*
X524750D01*
X522250Y126000D02*
Y131000D01*
X519750Y198500D02*
X524750D01*
X522250Y196000D02*
Y201000D01*
X142050Y240150D02*
X151050D01*
X146550Y235650D02*
Y244650D01*
X142050Y156650D02*
X151050D01*
X146550Y152150D02*
Y161150D01*
X12500Y-154000D02*
X21500D01*
X17000Y-158500D02*
Y-149500D01*
X83500Y-154000D02*
X92500D01*
X88000Y-158500D02*
Y-149500D01*
X-434500Y150000D02*
X-425500D01*
X-430000Y145500D02*
Y154500D01*
X-434500Y79000D02*
X-425500D01*
X-430000Y74500D02*
Y83500D01*
X-21500Y387500D02*
X-18500D01*
X-20000Y386000D02*
Y389000D01*
X-44000Y332500D02*
X-41000D01*
X-42500Y331000D02*
Y334000D01*
X66000Y325000D02*
X69000D01*
X67500Y323500D02*
Y326500D01*
X-9000Y347500D02*
X-6000D01*
X-7500Y346000D02*
Y349000D01*
X502500Y317250D02*
X505500D01*
X504000Y315750D02*
Y318750D01*
X516000Y-500D02*
X519000D01*
X517500Y-2000D02*
Y1000D01*
X484000Y-500D02*
X487000D01*
X485500Y-2000D02*
Y1000D01*
X-503500Y0D02*
X-500500D01*
X-502000Y-1500D02*
Y1500D01*
X-434500Y127000D02*
X-431500D01*
X-433000Y125500D02*
Y128500D01*
X-451500Y350000D02*
X-448500D01*
X-450000Y348500D02*
Y351500D01*
X401000Y331750D02*
X404000D01*
X402500Y330250D02*
Y333250D01*
X449750Y340500D02*
X452750D01*
X451250Y339000D02*
Y342000D01*
X-404000Y232500D02*
X-401000D01*
X-402500Y231000D02*
Y234000D01*
X-452750Y223750D02*
X-449750D01*
X-451250Y222250D02*
Y225250D01*
X461750Y242250D02*
X464750D01*
X463250Y240750D02*
Y243750D01*
X-289750Y312000D02*
X-286750D01*
X-288250Y310500D02*
Y313500D01*
X477000Y131100D02*
X480000D01*
X478500Y129600D02*
Y132600D01*
X490000Y259750D02*
X493000D01*
X491500Y258250D02*
Y261250D01*
X490000Y277250D02*
X493000D01*
X491500Y275750D02*
Y278750D01*
X490000Y317250D02*
X493000D01*
X491500Y315750D02*
Y318750D01*
X502500Y242250D02*
X505500D01*
X504000Y240750D02*
Y243750D01*
X-505500Y322000D02*
X-502500D01*
X-504000Y320500D02*
Y323500D01*
X-505500Y247000D02*
X-502500D01*
X-504000Y245500D02*
Y248500D01*
X-493000Y247000D02*
X-490000D01*
X-491500Y245500D02*
Y248500D01*
X-493000Y287000D02*
X-490000D01*
X-491500Y285500D02*
Y288500D01*
X-493000Y304500D02*
X-490000D01*
X-491500Y303000D02*
Y306000D01*
X471000Y430500D02*
X474000D01*
X472500Y429000D02*
Y432000D01*
X503000Y430500D02*
X506000D01*
X504500Y429000D02*
Y432000D01*
X411000Y430500D02*
X414000D01*
X412500Y429000D02*
Y432000D01*
X443000Y430500D02*
X446000D01*
X444500Y429000D02*
Y432000D01*
X351000Y430500D02*
X354000D01*
X352500Y429000D02*
Y432000D01*
X383000Y430500D02*
X386000D01*
X384500Y429000D02*
Y432000D01*
X291000Y430500D02*
X294000D01*
X292500Y429000D02*
Y432000D01*
X323000Y430500D02*
X326000D01*
X324500Y429000D02*
Y432000D01*
X231000Y430500D02*
X234000D01*
X232500Y429000D02*
Y432000D01*
X263000Y430500D02*
X266000D01*
X264500Y429000D02*
Y432000D01*
X171000Y430500D02*
X174000D01*
X172500Y429000D02*
Y432000D01*
X203000Y430500D02*
X206000D01*
X204500Y429000D02*
Y432000D01*
X111000Y430500D02*
X114000D01*
X112500Y429000D02*
Y432000D01*
X143000Y430500D02*
X146000D01*
X144500Y429000D02*
Y432000D01*
X51000Y430500D02*
X54000D01*
X52500Y429000D02*
Y432000D01*
X83000Y430500D02*
X86000D01*
X84500Y429000D02*
Y432000D01*
X-9000Y430500D02*
X-6000D01*
X-7500Y429000D02*
Y432000D01*
X23000Y430500D02*
X26000D01*
X24500Y429000D02*
Y432000D01*
X-69000Y430500D02*
X-66000D01*
X-67500Y429000D02*
Y432000D01*
X-37000Y430500D02*
X-34000D01*
X-35500Y429000D02*
Y432000D01*
X-129000Y430500D02*
X-126000D01*
X-127500Y429000D02*
Y432000D01*
X-97000Y430500D02*
X-94000D01*
X-95500Y429000D02*
Y432000D01*
X-189000Y430500D02*
X-186000D01*
X-187500Y429000D02*
Y432000D01*
X-157000Y430500D02*
X-154000D01*
X-155500Y429000D02*
Y432000D01*
X-249000Y430500D02*
X-246000D01*
X-247500Y429000D02*
Y432000D01*
X-217000Y430500D02*
X-214000D01*
X-215500Y429000D02*
Y432000D01*
X-309000Y430500D02*
X-306000D01*
X-307500Y429000D02*
Y432000D01*
X-277000Y430500D02*
X-274000D01*
X-275500Y429000D02*
Y432000D01*
X-369000Y430500D02*
X-366000D01*
X-367500Y429000D02*
Y432000D01*
X-337000Y430500D02*
X-334000D01*
X-335500Y429000D02*
Y432000D01*
X-429000Y430500D02*
X-426000D01*
X-427500Y429000D02*
Y432000D01*
X-397000Y430500D02*
X-394000D01*
X-395500Y429000D02*
Y432000D01*
X-457000Y430500D02*
X-454000D01*
X-455500Y429000D02*
Y432000D01*
X-489000Y430500D02*
X-486000D01*
X-487500Y429000D02*
Y432000D01*
X367000Y116600D02*
X370000D01*
X368500Y115100D02*
Y118100D01*
X516500Y116600D02*
X519500D01*
X518000Y115100D02*
Y118100D01*
X516500Y-43300D02*
X519500D01*
X518000Y-44800D02*
Y-41800D01*
X-16500Y115000D02*
X-13500D01*
X-15000Y113500D02*
Y116500D01*
X8500Y217500D02*
X11500D01*
X10000Y216000D02*
Y219000D01*
X451690Y220090D02*
X454690D01*
X453190Y218590D02*
Y221590D01*
X446750Y242250D02*
X449750D01*
X448250Y240750D02*
Y243750D01*
X-236500Y-95000D02*
X-233500D01*
X-235000Y-96500D02*
Y-93500D01*
X-224000Y-180000D02*
X-221000D01*
X-222500Y-181500D02*
Y-178500D01*
X-291500Y-97500D02*
X-288500D01*
X-290000Y-99000D02*
Y-96000D01*
X-76500Y-115000D02*
X-73500D01*
X-75000Y-116500D02*
Y-113500D01*
X-154000Y227500D02*
X-151000D01*
X-152500Y226000D02*
Y229000D01*
X-31500Y227500D02*
X-28500D01*
X-30000Y226000D02*
Y229000D01*
X-124000Y217500D02*
X-121000D01*
X-122500Y216000D02*
Y219000D01*
X-111500Y230000D02*
X-108500D01*
X-110000Y228500D02*
Y231500D01*
X-6500Y207500D02*
X-3500D01*
X-5000Y206000D02*
Y209000D01*
X-296500Y-80000D02*
X-293500D01*
X-295000Y-81500D02*
Y-78500D01*
X-314000Y-110000D02*
X-311000D01*
X-312500Y-111500D02*
Y-108500D01*
X-174000Y-80000D02*
X-171000D01*
X-172500Y-81500D02*
Y-78500D01*
X456000Y-47500D02*
X459000D01*
X457500Y-49000D02*
Y-46000D01*
X382000Y-47500D02*
X385000D01*
X383500Y-49000D02*
Y-46000D01*
X351000Y-26400D02*
X354000D01*
X352500Y-27900D02*
Y-24900D01*
X286000Y-125000D02*
X289000D01*
X287500Y-126500D02*
Y-123500D01*
X323500Y-125000D02*
X326500D01*
X325000Y-126500D02*
Y-123500D01*
X178500Y-125000D02*
X181500D01*
X180000Y-126500D02*
Y-123500D01*
X216000Y-125000D02*
X219000D01*
X217500Y-126500D02*
Y-123500D01*
X-391500Y-125000D02*
X-388500D01*
X-390000Y-126500D02*
Y-123500D01*
X-139000Y-125000D02*
X-136000D01*
X-137500Y-126500D02*
Y-123500D01*
X-259000Y-125000D02*
X-256000D01*
X-257500Y-126500D02*
Y-123500D01*
X-181500Y-113500D02*
X-178500D01*
X-180000Y-115000D02*
Y-112000D01*
X-331500Y128000D02*
X-328500D01*
X-330000Y126500D02*
Y129500D01*
X-220000Y35750D02*
X-217000D01*
X-218500Y34250D02*
Y37250D01*
X-220000Y69750D02*
X-217000D01*
X-218500Y68250D02*
Y71250D01*
X-408500Y155000D02*
X-405500D01*
X-407000Y153500D02*
Y156500D01*
X-434500Y114500D02*
X-431500D01*
X-433000Y113000D02*
Y116000D01*
X85330Y189610D02*
X88330D01*
X86830Y188110D02*
Y191110D01*
X85330Y215010D02*
X88330D01*
X86830Y213510D02*
Y216510D01*
X-3570Y230250D02*
X-570D01*
X-2070Y228750D02*
Y231750D01*
X11670Y230250D02*
X14670D01*
X13170Y228750D02*
Y231750D01*
X110730Y248030D02*
X113730D01*
X112230Y246530D02*
Y249530D01*
X92950Y202310D02*
X95950D01*
X94450Y200810D02*
Y203810D01*
X110730Y174370D02*
X113730D01*
X112230Y172870D02*
Y175870D01*
X382670Y-11130D02*
X385670D01*
X384170Y-12630D02*
Y-9630D01*
X382670Y-970D02*
X385670D01*
X384170Y-2470D02*
Y530D01*
X382670Y39670D02*
X385670D01*
X384170Y38170D02*
Y41170D01*
X382670Y54910D02*
X385670D01*
X384170Y53410D02*
Y56410D01*
X382670Y21890D02*
X385670D01*
X384170Y20390D02*
Y23390D01*
X382670Y65070D02*
X385670D01*
X384170Y63570D02*
Y66570D01*
X-13730Y166750D02*
X-10730D01*
X-12230Y165250D02*
Y168250D01*
X426290Y183090D02*
X429290D01*
X427790Y181590D02*
Y184590D01*
X461250Y144490D02*
X464250D01*
X462750Y142990D02*
Y145990D01*
X355000Y11100D02*
X358000D01*
X356500Y9600D02*
Y12600D01*
X329500Y18600D02*
X332500D01*
X331000Y17100D02*
Y20100D01*
X309500Y18600D02*
X312500D01*
X311000Y17100D02*
Y20100D01*
X346750Y292250D02*
X349750D01*
X348250Y290750D02*
Y293750D01*
X326750Y292250D02*
X329750D01*
X328250Y290750D02*
Y293750D01*
X306750Y292250D02*
X309750D01*
X308250Y290750D02*
Y293750D01*
X286750Y292250D02*
X289750D01*
X288250Y290750D02*
Y293750D01*
X326750Y252250D02*
X329750D01*
X328250Y250750D02*
Y253750D01*
X-329750Y272000D02*
X-326750D01*
X-328250Y270500D02*
Y273500D01*
X-329750Y292000D02*
X-326750D01*
X-328250Y290500D02*
Y293500D01*
X-309750Y292000D02*
X-306750D01*
X-308250Y290500D02*
Y293500D01*
X-309750Y272000D02*
X-306750D01*
X-308250Y270500D02*
Y273500D01*
X-309750Y252000D02*
X-306750D01*
X-308250Y250500D02*
Y253500D01*
X-329750Y252000D02*
X-326750D01*
X-328250Y250500D02*
Y253500D01*
X-349750Y272000D02*
X-346750D01*
X-348250Y270500D02*
Y273500D01*
X-349750Y252000D02*
X-346750D01*
X-348250Y250500D02*
Y253500D01*
X-349750Y292000D02*
X-346750D01*
X-348250Y290500D02*
Y293500D01*
X-329750Y312000D02*
X-326750D01*
X-328250Y310500D02*
Y313500D01*
X-349750Y312000D02*
X-346750D01*
X-348250Y310500D02*
Y313500D01*
X-309750Y312000D02*
X-306750D01*
X-308250Y310500D02*
Y313500D01*
X-289750Y292000D02*
X-286750D01*
X-288250Y290500D02*
Y293500D01*
X-289750Y272000D02*
X-286750D01*
X-288250Y270500D02*
Y273500D01*
X-289750Y252000D02*
X-286750D01*
X-288250Y250500D02*
Y253500D01*
X346750Y252250D02*
X349750D01*
X348250Y250750D02*
Y253750D01*
X346750Y312250D02*
X349750D01*
X348250Y310750D02*
Y313750D01*
X326750Y312250D02*
X329750D01*
X328250Y310750D02*
Y313750D01*
X286750Y312250D02*
X289750D01*
X288250Y310750D02*
Y313750D01*
X306750Y312250D02*
X309750D01*
X308250Y310750D02*
Y313750D01*
X286750Y252250D02*
X289750D01*
X288250Y250750D02*
Y253750D01*
X306750Y252250D02*
X309750D01*
X308250Y250750D02*
Y253750D01*
X13500Y84500D02*
X16500D01*
X15000Y83000D02*
Y86000D01*
X-52500Y151500D02*
X-49500D01*
X-51000Y150000D02*
Y153000D01*
X-62000Y128500D02*
X-59000D01*
X-60500Y127000D02*
Y130000D01*
X-73890Y264160D02*
X-70890D01*
X-72390Y262660D02*
Y265660D01*
X-52500Y248500D02*
X-49500D01*
X-51000Y247000D02*
Y250000D01*
X49500Y151500D02*
X52500D01*
X51000Y150000D02*
Y153000D01*
X76500Y42500D02*
X79500D01*
X78000Y41000D02*
Y44000D01*
X49000Y110000D02*
X52000D01*
X50500Y108500D02*
Y111500D01*
X46500Y137500D02*
X49500D01*
X48000Y136000D02*
Y139000D01*
X89000Y112500D02*
X92000D01*
X90500Y111000D02*
Y114000D01*
X-13500Y10000D02*
X-10500D01*
X-12000Y8500D02*
Y11500D01*
X81500Y7500D02*
X84500D01*
X83000Y6000D02*
Y9000D01*
X4000Y125000D02*
X7000D01*
X5500Y123500D02*
Y126500D01*
X-464750Y322000D02*
X-461750D01*
X-463250Y320500D02*
Y323500D01*
X-449750Y322000D02*
X-446750D01*
X-448250Y320500D02*
Y323500D01*
X28500Y205000D02*
X31500D01*
X30000Y203500D02*
Y206500D01*
X14500Y190000D02*
X17500D01*
X16000Y188500D02*
Y191500D01*
X110500Y157000D02*
X113500D01*
X112000Y155500D02*
Y158500D01*
X125500Y67000D02*
X128500D01*
X127000Y65500D02*
Y68500D01*
X104500Y67000D02*
X107500D01*
X106000Y65500D02*
Y68500D01*
X109500Y107000D02*
X112500D01*
X111000Y105500D02*
Y108500D01*
X28500Y179000D02*
X31500D01*
X30000Y177500D02*
Y180500D01*
X111500Y145000D02*
X114500D01*
X113000Y143500D02*
Y146500D01*
X189250Y-29250D02*
X192250D01*
X190750Y-30750D02*
Y-27750D01*
X205250Y-29250D02*
X208250D01*
X206750Y-30750D02*
Y-27750D01*
X312750Y-29250D02*
X315750D01*
X314250Y-30750D02*
Y-27750D01*
X296750Y-29250D02*
X299750D01*
X298250Y-30750D02*
Y-27750D01*
X-174000Y242500D02*
X-171000D01*
X-172500Y241000D02*
Y244000D01*
X-84000Y233500D02*
X-81000D01*
X-82500Y232000D02*
Y235000D01*
X131050Y239150D02*
X134050D01*
X132550Y237650D02*
Y240650D01*
X-102000Y66500D02*
X-99000D01*
X-100500Y65000D02*
Y68000D01*
X-253500Y32000D02*
X-250500D01*
X-252000Y30500D02*
Y33500D01*
X346750Y272250D02*
X349750D01*
X348250Y270750D02*
Y273750D01*
X326750Y272250D02*
X329750D01*
X328250Y270750D02*
Y273750D01*
X306750Y272250D02*
X309750D01*
X308250Y270750D02*
Y273750D01*
X286750Y272250D02*
X289750D01*
X288250Y270750D02*
Y273750D01*
X385000Y211000D02*
X388000D01*
X386500Y209500D02*
Y212500D01*
X109000Y272000D02*
X112000D01*
X110500Y270500D02*
Y273500D01*
X158500Y182000D02*
X161500D01*
X160000Y180500D02*
Y183500D01*
X68500Y247000D02*
X71500D01*
X70000Y245500D02*
Y248500D01*
X68500Y263000D02*
X71500D01*
X70000Y261500D02*
Y264500D01*
X85330Y240410D02*
X88330D01*
X86830Y238910D02*
Y241910D01*
X105650Y232790D02*
X108650D01*
X107150Y231290D02*
Y234290D01*
X-45500Y94000D02*
X-42500D01*
X-44000Y92500D02*
Y95500D01*
X371500Y144000D02*
X374500D01*
X373000Y142500D02*
Y145500D01*
X92950Y227710D02*
X95950D01*
X94450Y226210D02*
Y229210D01*
X-364000Y-120000D02*
X-361000D01*
X-362500Y-121500D02*
Y-118500D01*
X-341500Y-122500D02*
X-338500D01*
X-340000Y-124000D02*
Y-121000D01*
X-259000Y-107500D02*
X-256000D01*
X-257500Y-109000D02*
Y-106000D01*
X-234000Y-120000D02*
X-231000D01*
X-232500Y-121500D02*
Y-118500D01*
X-194000Y-35000D02*
X-191000D01*
X-192500Y-36500D02*
Y-33500D01*
X-321500Y-67500D02*
X-318500D01*
X-320000Y-69000D02*
Y-66000D01*
X26000Y-115000D02*
X29000D01*
X27500Y-116500D02*
Y-113500D01*
X-39000Y-105000D02*
X-36000D01*
X-37500Y-106500D02*
Y-103500D01*
X63500Y-85000D02*
X66500D01*
X65000Y-86500D02*
Y-83500D01*
X16000Y-100000D02*
X19000D01*
X17500Y-101500D02*
Y-98500D01*
X-363000Y65000D02*
X-360000D01*
X-361500Y63500D02*
Y66500D01*
X-371500Y7500D02*
X-368500D01*
X-370000Y6000D02*
Y9000D01*
X-304000Y7500D02*
X-301000D01*
X-302500Y6000D02*
Y9000D01*
X-303500Y25000D02*
X-300500D01*
X-302000Y23500D02*
Y26500D01*
X-339500Y25000D02*
X-336500D01*
X-338000Y23500D02*
Y26500D01*
X-34000Y182500D02*
X-31000D01*
X-32500Y181000D02*
Y184000D01*
X-65000Y-127000D02*
X-62000D01*
X-63500Y-128500D02*
Y-125500D01*
X-52300Y-114300D02*
X-49300D01*
X-50800Y-115800D02*
Y-112800D01*
X51000Y-87500D02*
X54000D01*
X52500Y-89000D02*
Y-86000D01*
X11200Y-38100D02*
X14200D01*
X12700Y-39600D02*
Y-36600D01*
X-279630Y-154940D02*
X-276630D01*
X-278130Y-156440D02*
Y-153440D01*
X-289790Y-143510D02*
X-286790D01*
X-288290Y-145010D02*
Y-142010D01*
X-274550Y-137160D02*
X-271550D01*
X-273050Y-138660D02*
Y-135660D01*
X-289790Y-128270D02*
X-286790D01*
X-288290Y-129770D02*
Y-126770D01*
X-21820Y-8890D02*
X-18820D01*
X-20320Y-10390D02*
Y-7390D01*
X-301500Y83250D02*
X-299500D01*
X-300500Y82250D02*
Y84250D01*
X-312500Y83250D02*
X-310500D01*
X-311500Y82250D02*
Y84250D01*
X-301500Y72250D02*
X-299500D01*
X-300500Y71250D02*
Y73250D01*
X-312500Y72250D02*
X-310500D01*
X-311500Y71250D02*
Y73250D01*
X-301500Y61250D02*
X-299500D01*
X-300500Y60250D02*
Y62250D01*
X-312500Y61250D02*
X-310500D01*
X-311500Y60250D02*
Y62250D01*
X-407900Y55880D02*
X-404900D01*
X-406400Y54380D02*
Y57380D01*
X-407900Y35560D02*
X-404900D01*
X-406400Y34060D02*
Y37060D01*
X-374880Y185420D02*
X-371880D01*
X-373380Y183920D02*
Y186920D01*
X-42140Y-261620D02*
X-39140D01*
X-40640Y-263120D02*
Y-260120D01*
X-31500Y-224000D02*
X-28500D01*
X-30000Y-225500D02*
Y-222500D01*
X-528500Y-11000D02*
X-525500D01*
X-527000Y-12500D02*
Y-9500D01*
X-500Y183000D02*
X2500D01*
X1000Y181500D02*
Y184500D01*
X12500Y169000D02*
X15500D01*
X14000Y167500D02*
Y170500D01*
X-27500Y196000D02*
X-24500D01*
X-26000Y194500D02*
Y197500D01*
X-21000Y346500D02*
X-18000D01*
X-19500Y345000D02*
Y348000D01*
M02*
