G04 Layer_Physical_Order=2*
G04 Layer_Color=36540*
%FSLAX44Y44*%
%MOMM*%
G71*
G01*
G75*
%ADD12C,0.2540*%
%ADD13C,0.3810*%
%ADD14C,1.2700*%
%ADD16C,1.4500*%
G04:AMPARAMS|DCode=17|XSize=1mm|YSize=1.9mm|CornerRadius=0.25mm|HoleSize=0mm|Usage=FLASHONLY|Rotation=270.000|XOffset=0mm|YOffset=0mm|HoleType=Round|Shape=RoundedRectangle|*
%AMROUNDEDRECTD17*
21,1,1.0000,1.4000,0,0,270.0*
21,1,0.5000,1.9000,0,0,270.0*
1,1,0.5000,-0.7000,-0.2500*
1,1,0.5000,-0.7000,0.2500*
1,1,0.5000,0.7000,0.2500*
1,1,0.5000,0.7000,-0.2500*
%
%ADD17ROUNDEDRECTD17*%
%ADD18C,0.8000*%
%ADD19C,0.5000*%
%ADD20C,1.2700*%
%ADD21C,0.6350*%
G36*
X489865Y457300D02*
X494734Y455823D01*
X499222Y453424D01*
X502921Y450389D01*
X503092Y450132D01*
X537632Y415592D01*
X537889Y415421D01*
X540924Y411722D01*
X543323Y407234D01*
X544800Y402364D01*
X545269Y397603D01*
X545209Y397300D01*
Y374800D01*
Y227543D01*
Y225357D01*
X545255Y225127D01*
X544844Y222007D01*
X543551Y218886D01*
X542260Y217203D01*
X541418Y216282D01*
X541418Y216282D01*
X539117Y213283D01*
X537671Y209791D01*
X537177Y206043D01*
X537209D01*
Y-17900D01*
X537177D01*
X537671Y-21648D01*
X539117Y-25140D01*
X541418Y-28139D01*
X541418Y-28139D01*
X542260Y-29060D01*
X543551Y-30743D01*
X544844Y-33864D01*
X545255Y-36984D01*
X545209Y-37213D01*
Y-39400D01*
Y-162500D01*
Y-187300D01*
X545269Y-187603D01*
X544800Y-192365D01*
X543323Y-197234D01*
X540924Y-201722D01*
X537889Y-205421D01*
X537632Y-205592D01*
X496612Y-246612D01*
X493092Y-250132D01*
X493080Y-250120D01*
X489466Y-254352D01*
X486558Y-259097D01*
X484428Y-264240D01*
X483128Y-269652D01*
X482692Y-275200D01*
X482709D01*
Y-320651D01*
X482764Y-320928D01*
X482323Y-325407D01*
X480936Y-329981D01*
X478683Y-334196D01*
X475827Y-337675D01*
X475592Y-337832D01*
X475421Y-338089D01*
X471722Y-341124D01*
X467234Y-343523D01*
X462365Y-345000D01*
X457603Y-345469D01*
X457300Y-345409D01*
X-457300D01*
X-457603Y-345469D01*
X-462365Y-345000D01*
X-467234Y-343523D01*
X-471722Y-341124D01*
X-475421Y-338089D01*
X-475592Y-337832D01*
X-475827Y-337675D01*
X-478683Y-334196D01*
X-480936Y-329981D01*
X-482323Y-325407D01*
X-482764Y-320928D01*
X-482709Y-320651D01*
Y-275200D01*
X-482692D01*
X-483128Y-269652D01*
X-484428Y-264240D01*
X-486558Y-259097D01*
X-489466Y-254352D01*
X-493080Y-250120D01*
X-493092Y-250132D01*
X-496612Y-246612D01*
X-496612Y-246612D01*
X-537632Y-205592D01*
X-537889Y-205421D01*
X-540924Y-201722D01*
X-543323Y-197234D01*
X-544800Y-192365D01*
X-545269Y-187603D01*
X-545209Y-187300D01*
Y-39400D01*
Y-37213D01*
X-545255Y-36984D01*
X-544844Y-33864D01*
X-543551Y-30743D01*
X-542260Y-29060D01*
X-541418Y-28139D01*
X-541418Y-28139D01*
X-539117Y-25140D01*
X-537671Y-21648D01*
X-537177Y-17900D01*
X-537209D01*
Y181728D01*
X-535987Y182073D01*
X-535582Y181413D01*
X-532360Y177640D01*
X-528587Y174418D01*
X-524356Y171825D01*
X-519772Y169926D01*
X-514947Y168768D01*
X-510000Y168379D01*
X-505053Y168768D01*
X-500228Y169926D01*
X-495644Y171825D01*
X-491413Y174418D01*
X-487640Y177640D01*
X-484418Y181413D01*
X-481825Y185644D01*
X-479926Y190228D01*
X-478768Y195053D01*
X-478378Y200000D01*
X-478768Y204947D01*
X-479926Y209772D01*
X-481825Y214356D01*
X-484418Y218587D01*
X-487640Y222360D01*
X-491413Y225582D01*
X-495644Y228175D01*
X-500228Y230074D01*
X-505053Y231232D01*
X-510000Y231621D01*
X-514947Y231232D01*
X-519772Y230074D01*
X-524356Y228175D01*
X-528587Y225582D01*
X-532360Y222360D01*
X-535582Y218587D01*
X-538175Y214356D01*
X-538233Y214216D01*
X-539687Y214025D01*
X-541418Y216282D01*
X-541418Y216282D01*
X-542260Y217203D01*
X-543551Y218886D01*
X-544844Y222007D01*
X-545255Y225127D01*
X-545209Y225357D01*
Y227543D01*
Y374800D01*
Y397300D01*
X-545269Y397603D01*
X-544800Y402364D01*
X-543323Y407234D01*
X-540924Y411722D01*
X-537889Y415421D01*
X-537632Y415592D01*
X-503092Y450132D01*
X-502921Y450389D01*
X-499222Y453424D01*
X-494734Y455823D01*
X-489865Y457300D01*
X-485103Y457769D01*
X-484800Y457709D01*
X484800D01*
X485103Y457769D01*
X489865Y457300D01*
D02*
G37*
%LPC*%
G36*
X-148000Y-147762D02*
X-148156Y-147827D01*
X-148322Y-147794D01*
X-150078Y-148143D01*
X-150350Y-148326D01*
X-150672Y-148390D01*
X-152161Y-149384D01*
X-152343Y-149657D01*
X-152616Y-149839D01*
X-153610Y-151328D01*
X-153674Y-151650D01*
X-153857Y-151922D01*
X-154206Y-153678D01*
X-154142Y-154000D01*
X-154206Y-154322D01*
X-153857Y-156078D01*
X-153674Y-156350D01*
X-153610Y-156672D01*
X-152616Y-158161D01*
X-152343Y-158343D01*
X-152161Y-158616D01*
X-150672Y-159611D01*
X-150350Y-159675D01*
X-150078Y-159857D01*
X-148322Y-160206D01*
X-148156Y-160173D01*
X-148000Y-160238D01*
X-147844Y-160173D01*
X-147678Y-160206D01*
X-145922Y-159857D01*
X-145650Y-159675D01*
X-145328Y-159611D01*
X-143839Y-158616D01*
X-143657Y-158343D01*
X-143384Y-158161D01*
X-142389Y-156672D01*
X-142325Y-156350D01*
X-142143Y-156078D01*
X-141794Y-154322D01*
X-141858Y-154000D01*
X-141794Y-153678D01*
X-142143Y-151922D01*
X-142325Y-151650D01*
X-142389Y-151328D01*
X-143384Y-149839D01*
X-143657Y-149657D01*
X-143839Y-149384D01*
X-145328Y-148390D01*
X-145650Y-148326D01*
X-145922Y-148143D01*
X-147678Y-147794D01*
X-147844Y-147827D01*
X-148000Y-147762D01*
D02*
G37*
G36*
X-197000D02*
X-197156Y-147827D01*
X-197322Y-147794D01*
X-199078Y-148143D01*
X-199350Y-148326D01*
X-199672Y-148390D01*
X-201161Y-149384D01*
X-201343Y-149657D01*
X-201616Y-149839D01*
X-202610Y-151328D01*
X-202675Y-151650D01*
X-202857Y-151922D01*
X-203206Y-153678D01*
X-203142Y-154000D01*
X-203206Y-154322D01*
X-202857Y-156078D01*
X-202675Y-156350D01*
X-202610Y-156672D01*
X-201616Y-158161D01*
X-201343Y-158343D01*
X-201161Y-158616D01*
X-199672Y-159611D01*
X-199350Y-159675D01*
X-199078Y-159857D01*
X-197322Y-160206D01*
X-197156Y-160173D01*
X-197000Y-160238D01*
X-196844Y-160173D01*
X-196678Y-160206D01*
X-194922Y-159857D01*
X-194650Y-159675D01*
X-194328Y-159611D01*
X-192839Y-158616D01*
X-192657Y-158343D01*
X-192384Y-158161D01*
X-191390Y-156672D01*
X-191325Y-156350D01*
X-191143Y-156078D01*
X-190794Y-154322D01*
X-190858Y-154000D01*
X-190794Y-153678D01*
X-191143Y-151922D01*
X-191325Y-151650D01*
X-191390Y-151328D01*
X-192384Y-149839D01*
X-192657Y-149657D01*
X-192839Y-149384D01*
X-194328Y-148390D01*
X-194650Y-148326D01*
X-194922Y-148143D01*
X-196678Y-147794D01*
X-196844Y-147827D01*
X-197000Y-147762D01*
D02*
G37*
G36*
X-268000D02*
X-268156Y-147827D01*
X-268322Y-147794D01*
X-270078Y-148143D01*
X-270350Y-148326D01*
X-270672Y-148390D01*
X-272161Y-149384D01*
X-272343Y-149657D01*
X-272616Y-149839D01*
X-272992Y-150401D01*
X-274147Y-150957D01*
X-275975Y-149736D01*
X-278130Y-149308D01*
X-280285Y-149736D01*
X-282113Y-150957D01*
X-283333Y-152785D01*
X-283762Y-154940D01*
X-283333Y-157095D01*
X-282113Y-158923D01*
X-280285Y-160144D01*
X-278130Y-160572D01*
X-275975Y-160144D01*
X-274147Y-158923D01*
X-273833Y-158452D01*
X-272343Y-158343D01*
X-272161Y-158616D01*
X-270672Y-159611D01*
X-270350Y-159675D01*
X-270078Y-159857D01*
X-268322Y-160206D01*
X-268156Y-160173D01*
X-268000Y-160238D01*
X-267844Y-160173D01*
X-267678Y-160206D01*
X-265922Y-159857D01*
X-265650Y-159675D01*
X-265328Y-159611D01*
X-263839Y-158616D01*
X-263657Y-158343D01*
X-263384Y-158161D01*
X-262390Y-156672D01*
X-262325Y-156350D01*
X-262143Y-156078D01*
X-261794Y-154322D01*
X-261858Y-154000D01*
X-261794Y-153678D01*
X-262143Y-151922D01*
X-262325Y-151650D01*
X-262390Y-151328D01*
X-263384Y-149839D01*
X-263657Y-149657D01*
X-263839Y-149384D01*
X-265328Y-148390D01*
X-265650Y-148326D01*
X-265922Y-148143D01*
X-267678Y-147794D01*
X-267844Y-147827D01*
X-268000Y-147762D01*
D02*
G37*
G36*
X-64500D02*
X-64656Y-147827D01*
X-64822Y-147794D01*
X-66578Y-148143D01*
X-66850Y-148326D01*
X-67172Y-148390D01*
X-68661Y-149384D01*
X-68843Y-149657D01*
X-69116Y-149839D01*
X-70111Y-151328D01*
X-70174Y-151650D01*
X-70357Y-151922D01*
X-70706Y-153678D01*
X-70642Y-154000D01*
X-70706Y-154322D01*
X-70357Y-156078D01*
X-70174Y-156350D01*
X-70111Y-156672D01*
X-69116Y-158161D01*
X-68843Y-158343D01*
X-68661Y-158616D01*
X-67172Y-159611D01*
X-66850Y-159675D01*
X-66578Y-159857D01*
X-64822Y-160206D01*
X-64656Y-160173D01*
X-64500Y-160238D01*
X-64344Y-160173D01*
X-64178Y-160206D01*
X-62422Y-159857D01*
X-62150Y-159675D01*
X-61828Y-159611D01*
X-60339Y-158616D01*
X-60157Y-158343D01*
X-59884Y-158161D01*
X-58889Y-156672D01*
X-58825Y-156350D01*
X-58643Y-156078D01*
X-58294Y-154322D01*
X-58358Y-154000D01*
X-58294Y-153678D01*
X-58643Y-151922D01*
X-58825Y-151650D01*
X-58889Y-151328D01*
X-59884Y-149839D01*
X-60157Y-149657D01*
X-60339Y-149384D01*
X-61828Y-148390D01*
X-62150Y-148326D01*
X-62422Y-148143D01*
X-64178Y-147794D01*
X-64344Y-147827D01*
X-64500Y-147762D01*
D02*
G37*
G36*
X169500D02*
X169344Y-147827D01*
X169178Y-147794D01*
X167422Y-148143D01*
X167150Y-148326D01*
X166828Y-148390D01*
X165339Y-149384D01*
X165157Y-149657D01*
X164884Y-149839D01*
X163890Y-151328D01*
X163825Y-151650D01*
X163643Y-151922D01*
X163294Y-153678D01*
X163358Y-154000D01*
X163294Y-154322D01*
X163643Y-156078D01*
X163825Y-156350D01*
X163890Y-156672D01*
X164884Y-158161D01*
X165157Y-158343D01*
X165339Y-158616D01*
X166828Y-159611D01*
X167150Y-159675D01*
X167422Y-159857D01*
X169178Y-160206D01*
X169344Y-160173D01*
X169500Y-160238D01*
X169656Y-160173D01*
X169822Y-160206D01*
X171578Y-159857D01*
X171850Y-159675D01*
X172172Y-159611D01*
X173661Y-158616D01*
X173843Y-158343D01*
X174116Y-158161D01*
X175110Y-156672D01*
X175175Y-156350D01*
X175357Y-156078D01*
X175706Y-154322D01*
X175642Y-154000D01*
X175706Y-153678D01*
X175357Y-151922D01*
X175175Y-151650D01*
X175110Y-151328D01*
X174116Y-149839D01*
X173843Y-149657D01*
X173661Y-149384D01*
X172172Y-148390D01*
X171850Y-148326D01*
X171578Y-148143D01*
X169822Y-147794D01*
X169656Y-147827D01*
X169500Y-147762D01*
D02*
G37*
G36*
X88000D02*
X87844Y-147827D01*
X87678Y-147794D01*
X85922Y-148143D01*
X85650Y-148326D01*
X85328Y-148390D01*
X83839Y-149384D01*
X83657Y-149657D01*
X83384Y-149839D01*
X82389Y-151328D01*
X82325Y-151650D01*
X82143Y-151922D01*
X81794Y-153678D01*
X81858Y-154000D01*
X81794Y-154322D01*
X82143Y-156078D01*
X82325Y-156350D01*
X82389Y-156672D01*
X83384Y-158161D01*
X83657Y-158343D01*
X83839Y-158616D01*
X85328Y-159611D01*
X85650Y-159675D01*
X85922Y-159857D01*
X87678Y-160206D01*
X87844Y-160173D01*
X88000Y-160238D01*
X88156Y-160173D01*
X88322Y-160206D01*
X90078Y-159857D01*
X90350Y-159675D01*
X90672Y-159611D01*
X92161Y-158616D01*
X92343Y-158343D01*
X92616Y-158161D01*
X93610Y-156672D01*
X93674Y-156350D01*
X93857Y-156078D01*
X94206Y-154322D01*
X94142Y-154000D01*
X94206Y-153678D01*
X93857Y-151922D01*
X93674Y-151650D01*
X93610Y-151328D01*
X92616Y-149839D01*
X92343Y-149657D01*
X92161Y-149384D01*
X90672Y-148390D01*
X90350Y-148326D01*
X90078Y-148143D01*
X88322Y-147794D01*
X88156Y-147827D01*
X88000Y-147762D01*
D02*
G37*
G36*
X17000D02*
X16844Y-147827D01*
X16678Y-147794D01*
X14922Y-148143D01*
X14650Y-148326D01*
X14328Y-148390D01*
X12839Y-149384D01*
X12657Y-149657D01*
X12384Y-149839D01*
X11389Y-151328D01*
X11326Y-151650D01*
X11143Y-151922D01*
X10794Y-153678D01*
X10858Y-154000D01*
X10794Y-154322D01*
X11143Y-156078D01*
X11326Y-156350D01*
X11389Y-156672D01*
X12384Y-158161D01*
X12657Y-158343D01*
X12839Y-158616D01*
X14328Y-159611D01*
X14650Y-159675D01*
X14922Y-159857D01*
X16678Y-160206D01*
X16844Y-160173D01*
X17000Y-160238D01*
X17156Y-160173D01*
X17322Y-160206D01*
X19078Y-159857D01*
X19350Y-159675D01*
X19672Y-159611D01*
X21161Y-158616D01*
X21343Y-158343D01*
X21616Y-158161D01*
X22610Y-156672D01*
X22675Y-156350D01*
X22857Y-156078D01*
X23206Y-154322D01*
X23142Y-154000D01*
X23206Y-153678D01*
X22857Y-151922D01*
X22675Y-151650D01*
X22610Y-151328D01*
X21616Y-149839D01*
X21343Y-149657D01*
X21161Y-149384D01*
X19672Y-148390D01*
X19350Y-148326D01*
X19078Y-148143D01*
X17322Y-147794D01*
X17156Y-147827D01*
X17000Y-147762D01*
D02*
G37*
G36*
X-317000D02*
X-317156Y-147827D01*
X-317322Y-147794D01*
X-319078Y-148143D01*
X-319350Y-148326D01*
X-319672Y-148390D01*
X-321161Y-149384D01*
X-321343Y-149657D01*
X-321616Y-149839D01*
X-322611Y-151328D01*
X-322674Y-151650D01*
X-322857Y-151922D01*
X-323206Y-153678D01*
X-323142Y-154000D01*
X-323206Y-154322D01*
X-322857Y-156078D01*
X-322674Y-156350D01*
X-322611Y-156672D01*
X-321616Y-158161D01*
X-321343Y-158343D01*
X-321161Y-158616D01*
X-319672Y-159611D01*
X-319350Y-159675D01*
X-319078Y-159857D01*
X-317322Y-160206D01*
X-317156Y-160173D01*
X-317000Y-160238D01*
X-316844Y-160173D01*
X-316678Y-160206D01*
X-314922Y-159857D01*
X-314650Y-159675D01*
X-314328Y-159611D01*
X-312839Y-158616D01*
X-312657Y-158343D01*
X-312384Y-158161D01*
X-311390Y-156672D01*
X-311325Y-156350D01*
X-311143Y-156078D01*
X-310794Y-154322D01*
X-310858Y-154000D01*
X-310794Y-153678D01*
X-311143Y-151922D01*
X-311325Y-151650D01*
X-311390Y-151328D01*
X-312384Y-149839D01*
X-312657Y-149657D01*
X-312839Y-149384D01*
X-314328Y-148390D01*
X-314650Y-148326D01*
X-314922Y-148143D01*
X-316678Y-147794D01*
X-316844Y-147827D01*
X-317000Y-147762D01*
D02*
G37*
G36*
X-510000Y-138378D02*
X-514947Y-138768D01*
X-519772Y-139926D01*
X-524356Y-141825D01*
X-528587Y-144418D01*
X-532360Y-147640D01*
X-535582Y-151413D01*
X-538175Y-155644D01*
X-540074Y-160228D01*
X-541232Y-165053D01*
X-541622Y-170000D01*
X-541232Y-174947D01*
X-540074Y-179772D01*
X-538175Y-184356D01*
X-535582Y-188587D01*
X-532360Y-192360D01*
X-528587Y-195582D01*
X-524356Y-198175D01*
X-519772Y-200074D01*
X-514947Y-201232D01*
X-510000Y-201621D01*
X-505053Y-201232D01*
X-500228Y-200074D01*
X-495644Y-198175D01*
X-491413Y-195582D01*
X-487640Y-192360D01*
X-484418Y-188587D01*
X-481825Y-184356D01*
X-479926Y-179772D01*
X-478768Y-174947D01*
X-478378Y-170000D01*
X-478768Y-165053D01*
X-479926Y-160228D01*
X-481825Y-155644D01*
X-484418Y-151413D01*
X-487640Y-147640D01*
X-491413Y-144418D01*
X-495644Y-141825D01*
X-500228Y-139926D01*
X-505053Y-138768D01*
X-510000Y-138378D01*
D02*
G37*
G36*
X-40640Y-255988D02*
X-42795Y-256416D01*
X-44623Y-257637D01*
X-45844Y-259465D01*
X-46272Y-261620D01*
X-45844Y-263775D01*
X-44623Y-265603D01*
X-42795Y-266824D01*
X-40640Y-267252D01*
X-38485Y-266824D01*
X-36657Y-265603D01*
X-35436Y-263775D01*
X-35008Y-261620D01*
X-35436Y-259465D01*
X-36657Y-257637D01*
X-38485Y-256416D01*
X-40640Y-255988D01*
D02*
G37*
G36*
X39370Y-308701D02*
Y-316230D01*
X46899D01*
X46761Y-315179D01*
X45865Y-313017D01*
X44440Y-311160D01*
X42583Y-309735D01*
X40421Y-308839D01*
X39370Y-308701D01*
D02*
G37*
G36*
X510000Y-138378D02*
X505053Y-138768D01*
X500228Y-139926D01*
X495644Y-141825D01*
X491413Y-144418D01*
X487640Y-147640D01*
X484418Y-151413D01*
X481825Y-155644D01*
X479926Y-160228D01*
X478768Y-165053D01*
X478378Y-170000D01*
X478768Y-174947D01*
X479926Y-179772D01*
X481825Y-184356D01*
X484418Y-188587D01*
X487640Y-192360D01*
X491413Y-195582D01*
X495644Y-198175D01*
X500228Y-200074D01*
X505053Y-201232D01*
X510000Y-201621D01*
X514947Y-201232D01*
X519772Y-200074D01*
X524356Y-198175D01*
X528587Y-195582D01*
X532360Y-192360D01*
X535582Y-188587D01*
X538175Y-184356D01*
X540074Y-179772D01*
X541232Y-174947D01*
X541622Y-170000D01*
X541232Y-165053D01*
X540074Y-160228D01*
X538175Y-155644D01*
X535582Y-151413D01*
X532360Y-147640D01*
X528587Y-144418D01*
X524356Y-141825D01*
X519772Y-139926D01*
X514947Y-138768D01*
X510000Y-138378D01*
D02*
G37*
G36*
X-400500Y-147762D02*
X-400656Y-147827D01*
X-400822Y-147794D01*
X-402578Y-148143D01*
X-402850Y-148326D01*
X-403172Y-148390D01*
X-404661Y-149384D01*
X-404843Y-149657D01*
X-405116Y-149839D01*
X-406110Y-151328D01*
X-406175Y-151650D01*
X-406357Y-151922D01*
X-406706Y-153678D01*
X-406642Y-154000D01*
X-406706Y-154322D01*
X-406357Y-156078D01*
X-406175Y-156350D01*
X-406110Y-156672D01*
X-405116Y-158161D01*
X-404843Y-158343D01*
X-404661Y-158616D01*
X-403172Y-159611D01*
X-402850Y-159675D01*
X-402578Y-159857D01*
X-400822Y-160206D01*
X-400656Y-160173D01*
X-400500Y-160238D01*
X-400344Y-160173D01*
X-400178Y-160206D01*
X-398422Y-159857D01*
X-398150Y-159675D01*
X-397828Y-159611D01*
X-396339Y-158616D01*
X-396157Y-158343D01*
X-395884Y-158161D01*
X-394889Y-156672D01*
X-394826Y-156350D01*
X-394643Y-156078D01*
X-394294Y-154322D01*
X-394358Y-154000D01*
X-394294Y-153678D01*
X-394643Y-151922D01*
X-394826Y-151650D01*
X-394889Y-151328D01*
X-395884Y-149839D01*
X-396157Y-149657D01*
X-396339Y-149384D01*
X-397828Y-148390D01*
X-398150Y-148326D01*
X-398422Y-148143D01*
X-400178Y-147794D01*
X-400344Y-147827D01*
X-400500Y-147762D01*
D02*
G37*
G36*
X-288290Y-137878D02*
X-290445Y-138307D01*
X-292273Y-139527D01*
X-293493Y-141355D01*
X-293922Y-143510D01*
X-293493Y-145665D01*
X-292273Y-147493D01*
X-290445Y-148714D01*
X-288290Y-149142D01*
X-286135Y-148714D01*
X-284307Y-147493D01*
X-283086Y-145665D01*
X-282658Y-143510D01*
X-283086Y-141355D01*
X-284307Y-139527D01*
X-286135Y-138307D01*
X-288290Y-137878D01*
D02*
G37*
G36*
X-222500Y-174368D02*
X-224655Y-174797D01*
X-226483Y-176017D01*
X-227703Y-177845D01*
X-228132Y-180000D01*
X-227703Y-182155D01*
X-226483Y-183983D01*
X-224655Y-185203D01*
X-222500Y-185632D01*
X-220345Y-185203D01*
X-218517Y-183983D01*
X-217297Y-182155D01*
X-216868Y-180000D01*
X-217297Y-177845D01*
X-218517Y-176017D01*
X-220345Y-174797D01*
X-222500Y-174368D01*
D02*
G37*
G36*
X17500Y-94368D02*
X15345Y-94796D01*
X13517Y-96017D01*
X12760Y-97151D01*
X2500D01*
X2500Y-97151D01*
X1410Y-97368D01*
X486Y-97986D01*
X486Y-97986D01*
X-25680Y-124151D01*
X-58760D01*
X-59517Y-123017D01*
X-61345Y-121797D01*
X-63500Y-121368D01*
X-65655Y-121797D01*
X-67483Y-123017D01*
X-68703Y-124845D01*
X-69132Y-127000D01*
X-68703Y-129155D01*
X-67483Y-130983D01*
X-65655Y-132204D01*
X-63500Y-132632D01*
X-61345Y-132204D01*
X-59517Y-130983D01*
X-58760Y-129849D01*
X-24500D01*
X-24500Y-129849D01*
X-23410Y-129632D01*
X-22486Y-129014D01*
X3680Y-102849D01*
X12760D01*
X13517Y-103983D01*
X15345Y-105204D01*
X17500Y-105632D01*
X19655Y-105204D01*
X21483Y-103983D01*
X22703Y-102155D01*
X23132Y-100000D01*
X22703Y-97845D01*
X21483Y-96017D01*
X19655Y-94796D01*
X17500Y-94368D01*
D02*
G37*
G36*
X-235000Y-89368D02*
X-237155Y-89796D01*
X-238983Y-91017D01*
X-240203Y-92845D01*
X-240632Y-95000D01*
X-240203Y-97155D01*
X-238983Y-98983D01*
X-237155Y-100204D01*
X-235000Y-100632D01*
X-232845Y-100204D01*
X-231017Y-98983D01*
X-229797Y-97155D01*
X-229368Y-95000D01*
X-229797Y-92845D01*
X-231017Y-91017D01*
X-232845Y-89796D01*
X-235000Y-89368D01*
D02*
G37*
G36*
X-257500Y-101868D02*
X-259655Y-102296D01*
X-261483Y-103517D01*
X-262703Y-105345D01*
X-263132Y-107500D01*
X-262703Y-109655D01*
X-261483Y-111483D01*
X-259655Y-112704D01*
X-257500Y-113132D01*
X-255345Y-112704D01*
X-253517Y-111483D01*
X-252297Y-109655D01*
X-251868Y-107500D01*
X-252297Y-105345D01*
X-253517Y-103517D01*
X-255345Y-102296D01*
X-257500Y-101868D01*
D02*
G37*
G36*
X55000Y-72151D02*
X55000Y-72151D01*
X-7500D01*
X-8590Y-72368D01*
X-9514Y-72986D01*
X-9514Y-72986D01*
X-36163Y-99634D01*
X-37500Y-99368D01*
X-39655Y-99796D01*
X-41483Y-101017D01*
X-42703Y-102845D01*
X-43132Y-105000D01*
X-42703Y-107155D01*
X-41483Y-108983D01*
X-39655Y-110204D01*
X-39892Y-111451D01*
X-46060D01*
X-46817Y-110317D01*
X-48645Y-109096D01*
X-50800Y-108668D01*
X-52955Y-109096D01*
X-54783Y-110317D01*
X-56003Y-112145D01*
X-56432Y-114300D01*
X-56003Y-116455D01*
X-54783Y-118283D01*
X-52955Y-119503D01*
X-50800Y-119932D01*
X-48645Y-119503D01*
X-46817Y-118283D01*
X-46060Y-117149D01*
X-26800D01*
X-26800Y-117149D01*
X-25710Y-116932D01*
X-24786Y-116314D01*
X6180Y-85349D01*
X46266D01*
X47108Y-86292D01*
X46868Y-87500D01*
X47297Y-89655D01*
X48517Y-91483D01*
X50345Y-92704D01*
X52500Y-93132D01*
X54655Y-92704D01*
X56483Y-91483D01*
X57703Y-89655D01*
X58132Y-87500D01*
X57703Y-85345D01*
X56483Y-83517D01*
X54655Y-82296D01*
X52500Y-81868D01*
X51163Y-82134D01*
X49514Y-80486D01*
X48590Y-79868D01*
X47500Y-79651D01*
X47500Y-79651D01*
X5000D01*
X5000Y-79651D01*
X3910Y-79868D01*
X2986Y-80486D01*
X2986Y-80486D01*
X-27980Y-111451D01*
X-35108D01*
X-35345Y-110204D01*
X-33517Y-108983D01*
X-32297Y-107155D01*
X-31868Y-105000D01*
X-32134Y-103663D01*
X-6320Y-77849D01*
X53820D01*
X59634Y-83663D01*
X59368Y-85000D01*
X59797Y-87155D01*
X61017Y-88983D01*
X62845Y-90204D01*
X65000Y-90632D01*
X67155Y-90204D01*
X68983Y-88983D01*
X70203Y-87155D01*
X70632Y-85000D01*
X70203Y-82845D01*
X68983Y-81017D01*
X67155Y-79797D01*
X65000Y-79368D01*
X63663Y-79634D01*
X57014Y-72986D01*
X56090Y-72368D01*
X55000Y-72151D01*
D02*
G37*
G36*
X12700Y-32468D02*
X10545Y-32896D01*
X8717Y-34117D01*
X7497Y-35945D01*
X7068Y-38100D01*
X7497Y-40255D01*
X8717Y-42083D01*
X10545Y-43303D01*
X12700Y-43732D01*
X14855Y-43303D01*
X16683Y-42083D01*
X17903Y-40255D01*
X18332Y-38100D01*
X17903Y-35945D01*
X16683Y-34117D01*
X14855Y-32896D01*
X12700Y-32468D01*
D02*
G37*
G36*
X-320000Y-61868D02*
X-322155Y-62297D01*
X-323983Y-63517D01*
X-325204Y-65345D01*
X-325632Y-67500D01*
X-325204Y-69655D01*
X-323983Y-71483D01*
X-322155Y-72703D01*
X-320000Y-73132D01*
X-317845Y-72703D01*
X-316017Y-71483D01*
X-314797Y-69655D01*
X-314368Y-67500D01*
X-314797Y-65345D01*
X-316017Y-63517D01*
X-317845Y-62297D01*
X-320000Y-61868D01*
D02*
G37*
G36*
X-152500Y235442D02*
X-235000D01*
X-237055Y235171D01*
X-238971Y234378D01*
X-240616Y233116D01*
X-240616Y233116D01*
X-257616Y216116D01*
X-258878Y214471D01*
X-259671Y212556D01*
X-259807Y211528D01*
X-259942Y210500D01*
X-259942Y210500D01*
Y32000D01*
Y-52210D01*
X-295616Y-87884D01*
X-296878Y-89529D01*
X-297671Y-91445D01*
X-297942Y-93500D01*
X-297942Y-93500D01*
Y-97500D01*
X-297671Y-99556D01*
X-296878Y-101471D01*
X-295616Y-103116D01*
X-293971Y-104378D01*
X-292055Y-105171D01*
X-290000Y-105442D01*
X-287945Y-105171D01*
X-286029Y-104378D01*
X-284384Y-103116D01*
X-283122Y-101471D01*
X-282329Y-99556D01*
X-282058Y-97500D01*
Y-96790D01*
X-252000Y-66732D01*
X-215616Y-103116D01*
X-215616Y-103116D01*
X-213971Y-104378D01*
X-212055Y-105171D01*
X-210000Y-105442D01*
X-142500D01*
X-142500Y-105442D01*
X-141472Y-105307D01*
X-140444Y-105171D01*
X-138529Y-104378D01*
X-136884Y-103116D01*
X-101710Y-67942D01*
X131710D01*
X149384Y-85616D01*
X149384Y-85616D01*
X151029Y-86878D01*
X152944Y-87671D01*
X155000Y-87942D01*
X177454D01*
X177940Y-89115D01*
X177528Y-89528D01*
X176770Y-90662D01*
X176504Y-92000D01*
Y-120692D01*
X176017Y-121017D01*
X174797Y-122845D01*
X174368Y-125000D01*
X174797Y-127155D01*
X176017Y-128983D01*
X177845Y-130204D01*
X180000Y-130632D01*
X182155Y-130204D01*
X183983Y-128983D01*
X185203Y-127155D01*
X185632Y-125000D01*
X185203Y-122845D01*
X183983Y-121017D01*
X183496Y-120692D01*
Y-93448D01*
X189002Y-87942D01*
X284954D01*
X285440Y-89115D01*
X285028Y-89528D01*
X284270Y-90662D01*
X284004Y-92000D01*
Y-120692D01*
X283517Y-121017D01*
X282297Y-122845D01*
X281868Y-125000D01*
X282297Y-127155D01*
X283517Y-128983D01*
X285345Y-130204D01*
X287500Y-130632D01*
X289655Y-130204D01*
X291483Y-128983D01*
X292703Y-127155D01*
X293132Y-125000D01*
X292703Y-122845D01*
X291483Y-121017D01*
X290996Y-120692D01*
Y-93448D01*
X296502Y-87942D01*
X452500D01*
X452500Y-87942D01*
X454556Y-87671D01*
X456471Y-86878D01*
X458116Y-85616D01*
X488116Y-55616D01*
X488116Y-55616D01*
X489378Y-53971D01*
X490171Y-52056D01*
X490442Y-50000D01*
Y-30790D01*
X505616Y-15616D01*
X505616Y-15616D01*
X506878Y-13971D01*
X507671Y-12055D01*
X507942Y-10000D01*
Y52500D01*
X507942Y52500D01*
X507807Y53528D01*
X507671Y54556D01*
X506878Y56471D01*
X505616Y58116D01*
X505616Y58116D01*
X394442Y169290D01*
Y211000D01*
X394171Y213055D01*
X393378Y214971D01*
X392116Y216616D01*
X390471Y217878D01*
X388555Y218671D01*
X386500Y218942D01*
X384445Y218671D01*
X382529Y217878D01*
X380884Y216616D01*
X379622Y214971D01*
X378829Y213055D01*
X378558Y211000D01*
Y166000D01*
X378558Y166000D01*
X378693Y164972D01*
X378829Y163944D01*
X379622Y162029D01*
X380884Y160384D01*
X492058Y49210D01*
Y-6710D01*
X476884Y-21884D01*
X475622Y-23529D01*
X474829Y-25445D01*
X474558Y-27500D01*
X474558Y-27500D01*
Y-46710D01*
X449210Y-72058D01*
X314046D01*
X313560Y-70885D01*
X316722Y-67722D01*
X317480Y-66588D01*
X317746Y-65250D01*
Y-33558D01*
X318233Y-33233D01*
X319454Y-31405D01*
X319882Y-29250D01*
X319454Y-27095D01*
X318233Y-25267D01*
X316405Y-24046D01*
X314250Y-23618D01*
X312095Y-24046D01*
X310267Y-25267D01*
X309046Y-27095D01*
X308618Y-29250D01*
X309046Y-31405D01*
X310267Y-33233D01*
X310754Y-33558D01*
Y-63802D01*
X302498Y-72058D01*
X206546D01*
X206060Y-70885D01*
X209222Y-67722D01*
X209980Y-66588D01*
X210246Y-65250D01*
Y-33558D01*
X210733Y-33233D01*
X211954Y-31405D01*
X212382Y-29250D01*
X211954Y-27095D01*
X210733Y-25267D01*
X208905Y-24046D01*
X206750Y-23618D01*
X204595Y-24046D01*
X202767Y-25267D01*
X201546Y-27095D01*
X201118Y-29250D01*
X201546Y-31405D01*
X202767Y-33233D01*
X203254Y-33558D01*
Y-63802D01*
X194998Y-72058D01*
X158290D01*
X140616Y-54384D01*
X138971Y-53122D01*
X137056Y-52329D01*
X136028Y-52193D01*
X135000Y-52058D01*
X135000Y-52058D01*
X-105000D01*
X-105000Y-52058D01*
X-106028Y-52193D01*
X-107056Y-52329D01*
X-107849Y-52657D01*
X-108971Y-53122D01*
X-110616Y-54384D01*
X-110616Y-54384D01*
X-145790Y-89558D01*
X-206710D01*
X-244058Y-52210D01*
Y32000D01*
Y207210D01*
X-231710Y219558D01*
X-152500D01*
X-150444Y219829D01*
X-148529Y220622D01*
X-146884Y221884D01*
X-145622Y223529D01*
X-144829Y225445D01*
X-144558Y227500D01*
X-144829Y229555D01*
X-145622Y231471D01*
X-146884Y233116D01*
X-148529Y234378D01*
X-150444Y235171D01*
X-152500Y235442D01*
D02*
G37*
G36*
X-232500Y-114368D02*
X-234655Y-114796D01*
X-236483Y-116017D01*
X-237703Y-117845D01*
X-238132Y-120000D01*
X-237703Y-122155D01*
X-236483Y-123983D01*
X-234655Y-125204D01*
X-232500Y-125632D01*
X-230345Y-125204D01*
X-228517Y-123983D01*
X-227297Y-122155D01*
X-226868Y-120000D01*
X-227297Y-117845D01*
X-228517Y-116017D01*
X-230345Y-114796D01*
X-232500Y-114368D01*
D02*
G37*
G36*
X335500Y-147762D02*
X335344Y-147827D01*
X335178Y-147794D01*
X333422Y-148143D01*
X333150Y-148326D01*
X332828Y-148390D01*
X331339Y-149384D01*
X331157Y-149657D01*
X330884Y-149839D01*
X329889Y-151328D01*
X329826Y-151650D01*
X329643Y-151922D01*
X329294Y-153678D01*
X329358Y-154000D01*
X329294Y-154322D01*
X329643Y-156078D01*
X329826Y-156350D01*
X329889Y-156672D01*
X330884Y-158161D01*
X331157Y-158343D01*
X331339Y-158616D01*
X332828Y-159611D01*
X333150Y-159675D01*
X333422Y-159857D01*
X335178Y-160206D01*
X335344Y-160173D01*
X335500Y-160238D01*
X335656Y-160173D01*
X335822Y-160206D01*
X337578Y-159857D01*
X337850Y-159675D01*
X338172Y-159611D01*
X339661Y-158616D01*
X339843Y-158343D01*
X340116Y-158161D01*
X341110Y-156672D01*
X341175Y-156350D01*
X341357Y-156078D01*
X341706Y-154322D01*
X341642Y-154000D01*
X341706Y-153678D01*
X341357Y-151922D01*
X341175Y-151650D01*
X341110Y-151328D01*
X340116Y-149839D01*
X339843Y-149657D01*
X339661Y-149384D01*
X338172Y-148390D01*
X337850Y-148326D01*
X337578Y-148143D01*
X335822Y-147794D01*
X335656Y-147827D01*
X335500Y-147762D01*
D02*
G37*
G36*
X277000D02*
X276844Y-147827D01*
X276678Y-147794D01*
X274922Y-148143D01*
X274650Y-148326D01*
X274328Y-148390D01*
X272839Y-149384D01*
X272657Y-149657D01*
X272384Y-149839D01*
X271390Y-151328D01*
X271325Y-151650D01*
X271143Y-151922D01*
X270794Y-153678D01*
X270858Y-154000D01*
X270794Y-154322D01*
X271143Y-156078D01*
X271325Y-156350D01*
X271390Y-156672D01*
X272384Y-158161D01*
X272657Y-158343D01*
X272839Y-158616D01*
X274328Y-159611D01*
X274650Y-159675D01*
X274922Y-159857D01*
X276678Y-160206D01*
X276844Y-160173D01*
X277000Y-160238D01*
X277156Y-160173D01*
X277322Y-160206D01*
X279078Y-159857D01*
X279350Y-159675D01*
X279672Y-159611D01*
X281161Y-158616D01*
X281343Y-158343D01*
X281616Y-158161D01*
X282610Y-156672D01*
X282675Y-156350D01*
X282857Y-156078D01*
X283206Y-154322D01*
X283142Y-154000D01*
X283206Y-153678D01*
X282857Y-151922D01*
X282675Y-151650D01*
X282610Y-151328D01*
X281616Y-149839D01*
X281343Y-149657D01*
X281161Y-149384D01*
X279672Y-148390D01*
X279350Y-148326D01*
X279078Y-148143D01*
X277322Y-147794D01*
X277156Y-147827D01*
X277000Y-147762D01*
D02*
G37*
G36*
X228000D02*
X227844Y-147827D01*
X227678Y-147794D01*
X225922Y-148143D01*
X225650Y-148326D01*
X225328Y-148390D01*
X223839Y-149384D01*
X223657Y-149657D01*
X223384Y-149839D01*
X222390Y-151328D01*
X222325Y-151650D01*
X222143Y-151922D01*
X221794Y-153678D01*
X221858Y-154000D01*
X221794Y-154322D01*
X222143Y-156078D01*
X222325Y-156350D01*
X222390Y-156672D01*
X223384Y-158161D01*
X223657Y-158343D01*
X223839Y-158616D01*
X225328Y-159611D01*
X225650Y-159675D01*
X225922Y-159857D01*
X227678Y-160206D01*
X227844Y-160173D01*
X228000Y-160238D01*
X228156Y-160173D01*
X228322Y-160206D01*
X230078Y-159857D01*
X230350Y-159675D01*
X230672Y-159611D01*
X232161Y-158616D01*
X232343Y-158343D01*
X232616Y-158161D01*
X233610Y-156672D01*
X233675Y-156350D01*
X233857Y-156078D01*
X234206Y-154322D01*
X234142Y-154000D01*
X234206Y-153678D01*
X233857Y-151922D01*
X233675Y-151650D01*
X233610Y-151328D01*
X232616Y-149839D01*
X232343Y-149657D01*
X232161Y-149384D01*
X230672Y-148390D01*
X230350Y-148326D01*
X230078Y-148143D01*
X228322Y-147794D01*
X228156Y-147827D01*
X228000Y-147762D01*
D02*
G37*
G36*
X-273050Y-131528D02*
X-275205Y-131957D01*
X-277033Y-133177D01*
X-278253Y-135005D01*
X-278682Y-137160D01*
X-278253Y-139315D01*
X-277033Y-141143D01*
X-275205Y-142364D01*
X-273050Y-142792D01*
X-270895Y-142364D01*
X-269067Y-141143D01*
X-267847Y-139315D01*
X-267418Y-137160D01*
X-267847Y-135005D01*
X-269067Y-133177D01*
X-270895Y-131957D01*
X-273050Y-131528D01*
D02*
G37*
G36*
X-362500Y-114368D02*
X-364655Y-114796D01*
X-366483Y-116017D01*
X-367704Y-117845D01*
X-368132Y-120000D01*
X-367704Y-122155D01*
X-366483Y-123983D01*
X-364655Y-125204D01*
X-362500Y-125632D01*
X-360345Y-125204D01*
X-358517Y-123983D01*
X-357296Y-122155D01*
X-356868Y-120000D01*
X-357296Y-117845D01*
X-358517Y-116017D01*
X-360345Y-114796D01*
X-362500Y-114368D01*
D02*
G37*
G36*
X-340000Y-116868D02*
X-342155Y-117296D01*
X-343983Y-118517D01*
X-345204Y-120345D01*
X-345632Y-122500D01*
X-345204Y-124655D01*
X-343983Y-126483D01*
X-342155Y-127704D01*
X-340000Y-128132D01*
X-337845Y-127704D01*
X-336017Y-126483D01*
X-334796Y-124655D01*
X-334368Y-122500D01*
X-334796Y-120345D01*
X-336017Y-118517D01*
X-337845Y-117296D01*
X-340000Y-116868D01*
D02*
G37*
G36*
X-288290Y-122638D02*
X-290445Y-123067D01*
X-292273Y-124287D01*
X-293493Y-126115D01*
X-293922Y-128270D01*
X-293493Y-130425D01*
X-292273Y-132253D01*
X-290445Y-133474D01*
X-288290Y-133902D01*
X-286135Y-133474D01*
X-284307Y-132253D01*
X-283086Y-130425D01*
X-282658Y-128270D01*
X-283086Y-126115D01*
X-284307Y-124287D01*
X-286135Y-123067D01*
X-288290Y-122638D01*
D02*
G37*
G36*
X64770Y-308701D02*
Y-316230D01*
X72299D01*
X72161Y-315179D01*
X71265Y-313017D01*
X69840Y-311160D01*
X67983Y-309735D01*
X65821Y-308839D01*
X64770Y-308701D01*
D02*
G37*
G36*
X-190500Y-309558D02*
X-192556Y-309829D01*
X-194471Y-310622D01*
X-196116Y-311884D01*
X-197378Y-313529D01*
X-198171Y-315445D01*
X-198442Y-317500D01*
X-198171Y-319555D01*
X-197378Y-321471D01*
X-196116Y-323116D01*
X-194471Y-324378D01*
X-192556Y-325171D01*
X-190500Y-325442D01*
X-188444Y-325171D01*
X-186529Y-324378D01*
X-184884Y-323116D01*
X-183622Y-321471D01*
X-182829Y-319555D01*
X-182558Y-317500D01*
X-182829Y-315445D01*
X-183622Y-313529D01*
X-184884Y-311884D01*
X-186529Y-310622D01*
X-188444Y-309829D01*
X-190500Y-309558D01*
D02*
G37*
G36*
X-215900D02*
X-217955Y-309829D01*
X-219871Y-310622D01*
X-221516Y-311884D01*
X-222778Y-313529D01*
X-223571Y-315445D01*
X-223842Y-317500D01*
X-223571Y-319555D01*
X-222778Y-321471D01*
X-221516Y-323116D01*
X-219871Y-324378D01*
X-217955Y-325171D01*
X-215900Y-325442D01*
X-213845Y-325171D01*
X-211929Y-324378D01*
X-210284Y-323116D01*
X-209022Y-321471D01*
X-208229Y-319555D01*
X-207958Y-317500D01*
X-208229Y-315445D01*
X-209022Y-313529D01*
X-210284Y-311884D01*
X-211929Y-310622D01*
X-213845Y-309829D01*
X-215900Y-309558D01*
D02*
G37*
G36*
X-241300D02*
X-243356Y-309829D01*
X-245271Y-310622D01*
X-246916Y-311884D01*
X-248178Y-313529D01*
X-248971Y-315445D01*
X-249242Y-317500D01*
X-248971Y-319555D01*
X-248178Y-321471D01*
X-246916Y-323116D01*
X-245271Y-324378D01*
X-243356Y-325171D01*
X-241300Y-325442D01*
X-239244Y-325171D01*
X-237329Y-324378D01*
X-235684Y-323116D01*
X-234422Y-321471D01*
X-233629Y-319555D01*
X-233358Y-317500D01*
X-233629Y-315445D01*
X-234422Y-313529D01*
X-235684Y-311884D01*
X-237329Y-310622D01*
X-239244Y-309829D01*
X-241300Y-309558D01*
D02*
G37*
G36*
X-165100D02*
X-167155Y-309829D01*
X-169071Y-310622D01*
X-170716Y-311884D01*
X-171978Y-313529D01*
X-172771Y-315445D01*
X-173042Y-317500D01*
X-172771Y-319555D01*
X-171978Y-321471D01*
X-170716Y-323116D01*
X-169071Y-324378D01*
X-167155Y-325171D01*
X-165100Y-325442D01*
X-163044Y-325171D01*
X-161129Y-324378D01*
X-159484Y-323116D01*
X-158222Y-321471D01*
X-157429Y-319555D01*
X-157158Y-317500D01*
X-157429Y-315445D01*
X-158222Y-313529D01*
X-159484Y-311884D01*
X-161129Y-310622D01*
X-163044Y-309829D01*
X-165100Y-309558D01*
D02*
G37*
G36*
X-88900D02*
X-90955Y-309829D01*
X-92871Y-310622D01*
X-94516Y-311884D01*
X-95778Y-313529D01*
X-96571Y-315445D01*
X-96842Y-317500D01*
X-96571Y-319555D01*
X-95778Y-321471D01*
X-94516Y-323116D01*
X-92871Y-324378D01*
X-90955Y-325171D01*
X-88900Y-325442D01*
X-86845Y-325171D01*
X-84929Y-324378D01*
X-83284Y-323116D01*
X-82022Y-321471D01*
X-81229Y-319555D01*
X-80958Y-317500D01*
X-81229Y-315445D01*
X-82022Y-313529D01*
X-83284Y-311884D01*
X-84929Y-310622D01*
X-86845Y-309829D01*
X-88900Y-309558D01*
D02*
G37*
G36*
X-114300D02*
X-116355Y-309829D01*
X-118271Y-310622D01*
X-119916Y-311884D01*
X-121178Y-313529D01*
X-121971Y-315445D01*
X-122242Y-317500D01*
X-121971Y-319555D01*
X-121178Y-321471D01*
X-119916Y-323116D01*
X-118271Y-324378D01*
X-116355Y-325171D01*
X-114300Y-325442D01*
X-112245Y-325171D01*
X-110329Y-324378D01*
X-108684Y-323116D01*
X-107422Y-321471D01*
X-106629Y-319555D01*
X-106358Y-317500D01*
X-106629Y-315445D01*
X-107422Y-313529D01*
X-108684Y-311884D01*
X-110329Y-310622D01*
X-112245Y-309829D01*
X-114300Y-309558D01*
D02*
G37*
G36*
X-139700D02*
X-141756Y-309829D01*
X-143671Y-310622D01*
X-145316Y-311884D01*
X-146578Y-313529D01*
X-147371Y-315445D01*
X-147642Y-317500D01*
X-147371Y-319555D01*
X-146578Y-321471D01*
X-145316Y-323116D01*
X-143671Y-324378D01*
X-141756Y-325171D01*
X-139700Y-325442D01*
X-137645Y-325171D01*
X-135729Y-324378D01*
X-134084Y-323116D01*
X-132822Y-321471D01*
X-132029Y-319555D01*
X-131758Y-317500D01*
X-132029Y-315445D01*
X-132822Y-313529D01*
X-134084Y-311884D01*
X-135729Y-310622D01*
X-137645Y-309829D01*
X-139700Y-309558D01*
D02*
G37*
G36*
X250100Y-318770D02*
X242570D01*
Y-326300D01*
X243621Y-326161D01*
X245783Y-325265D01*
X247640Y-323840D01*
X249065Y-321983D01*
X249961Y-319821D01*
X250100Y-318770D01*
D02*
G37*
G36*
X62230D02*
X54700D01*
X54839Y-319821D01*
X55735Y-321983D01*
X57160Y-323840D01*
X59017Y-325265D01*
X61179Y-326161D01*
X62230Y-326300D01*
Y-318770D01*
D02*
G37*
G36*
X36830D02*
X29300D01*
X29439Y-319821D01*
X30335Y-321983D01*
X31760Y-323840D01*
X33617Y-325265D01*
X35779Y-326161D01*
X36830Y-326300D01*
Y-318770D01*
D02*
G37*
G36*
X11430D02*
X3900D01*
X4039Y-319821D01*
X4935Y-321983D01*
X6360Y-323840D01*
X8217Y-325265D01*
X10379Y-326161D01*
X11430Y-326300D01*
Y-318770D01*
D02*
G37*
G36*
X240030D02*
X232500D01*
X232639Y-319821D01*
X233535Y-321983D01*
X234960Y-323840D01*
X236817Y-325265D01*
X238979Y-326161D01*
X240030Y-326300D01*
Y-318770D01*
D02*
G37*
G36*
X72299D02*
X64770D01*
Y-326300D01*
X65821Y-326161D01*
X67983Y-325265D01*
X69840Y-323840D01*
X71265Y-321983D01*
X72161Y-319821D01*
X72299Y-318770D01*
D02*
G37*
G36*
X46899D02*
X39370D01*
Y-326300D01*
X40421Y-326161D01*
X42583Y-325265D01*
X44440Y-323840D01*
X45865Y-321983D01*
X46761Y-319821D01*
X46899Y-318770D01*
D02*
G37*
G36*
X21500D02*
X13970D01*
Y-326300D01*
X15021Y-326161D01*
X17183Y-325265D01*
X19040Y-323840D01*
X20465Y-321983D01*
X21361Y-319821D01*
X21500Y-318770D01*
D02*
G37*
G36*
X62230Y-308701D02*
X61179Y-308839D01*
X59017Y-309735D01*
X57160Y-311160D01*
X55735Y-313017D01*
X54839Y-315179D01*
X54700Y-316230D01*
X62230D01*
Y-308701D01*
D02*
G37*
G36*
X11430D02*
X10379Y-308839D01*
X8217Y-309735D01*
X6360Y-311160D01*
X4935Y-313017D01*
X4039Y-315179D01*
X3900Y-316230D01*
X11430D01*
Y-308701D01*
D02*
G37*
G36*
X215900Y-309558D02*
X213845Y-309829D01*
X211929Y-310622D01*
X210284Y-311884D01*
X209022Y-313529D01*
X208229Y-315445D01*
X207958Y-317500D01*
X208229Y-319555D01*
X209022Y-321471D01*
X210284Y-323116D01*
X211929Y-324378D01*
X213845Y-325171D01*
X215900Y-325442D01*
X217955Y-325171D01*
X219871Y-324378D01*
X221516Y-323116D01*
X222778Y-321471D01*
X223571Y-319555D01*
X223842Y-317500D01*
X223571Y-315445D01*
X222778Y-313529D01*
X221516Y-311884D01*
X219871Y-310622D01*
X217955Y-309829D01*
X215900Y-309558D01*
D02*
G37*
G36*
X240030Y-308701D02*
X238979Y-308839D01*
X236817Y-309735D01*
X234960Y-311160D01*
X233535Y-313017D01*
X232639Y-315179D01*
X232500Y-316230D01*
X240030D01*
Y-308701D01*
D02*
G37*
G36*
X13970Y-308701D02*
Y-316230D01*
X21500D01*
X21361Y-315179D01*
X20465Y-313017D01*
X19040Y-311160D01*
X17183Y-309735D01*
X15021Y-308839D01*
X13970Y-308701D01*
D02*
G37*
G36*
X242570D02*
Y-316230D01*
X250100D01*
X249961Y-315179D01*
X249065Y-313017D01*
X247640Y-311160D01*
X245783Y-309735D01*
X243621Y-308839D01*
X242570Y-308701D01*
D02*
G37*
G36*
X36830Y-308701D02*
X35779Y-308839D01*
X33617Y-309735D01*
X31760Y-311160D01*
X30335Y-313017D01*
X29439Y-315179D01*
X29300Y-316230D01*
X36830D01*
Y-308701D01*
D02*
G37*
G36*
X190500Y-309558D02*
X188444Y-309829D01*
X186529Y-310622D01*
X184884Y-311884D01*
X183622Y-313529D01*
X182829Y-315445D01*
X182558Y-317500D01*
X182829Y-319555D01*
X183622Y-321471D01*
X184884Y-323116D01*
X186529Y-324378D01*
X188444Y-325171D01*
X190500Y-325442D01*
X192556Y-325171D01*
X194471Y-324378D01*
X196116Y-323116D01*
X197378Y-321471D01*
X198171Y-319555D01*
X198442Y-317500D01*
X198171Y-315445D01*
X197378Y-313529D01*
X196116Y-311884D01*
X194471Y-310622D01*
X192556Y-309829D01*
X190500Y-309558D01*
D02*
G37*
G36*
X-12700D02*
X-14756Y-309829D01*
X-16671Y-310622D01*
X-18316Y-311884D01*
X-19578Y-313529D01*
X-20371Y-315445D01*
X-20642Y-317500D01*
X-20371Y-319555D01*
X-19578Y-321471D01*
X-18316Y-323116D01*
X-16671Y-324378D01*
X-14756Y-325171D01*
X-12700Y-325442D01*
X-10645Y-325171D01*
X-8729Y-324378D01*
X-7084Y-323116D01*
X-5822Y-321471D01*
X-5029Y-319555D01*
X-4758Y-317500D01*
X-5029Y-315445D01*
X-5822Y-313529D01*
X-7084Y-311884D01*
X-8729Y-310622D01*
X-10645Y-309829D01*
X-12700Y-309558D01*
D02*
G37*
G36*
X-38100D02*
X-40156Y-309829D01*
X-42071Y-310622D01*
X-43716Y-311884D01*
X-44978Y-313529D01*
X-45771Y-315445D01*
X-46042Y-317500D01*
X-45771Y-319555D01*
X-44978Y-321471D01*
X-43716Y-323116D01*
X-42071Y-324378D01*
X-40156Y-325171D01*
X-38100Y-325442D01*
X-36044Y-325171D01*
X-34129Y-324378D01*
X-32484Y-323116D01*
X-31222Y-321471D01*
X-30429Y-319555D01*
X-30158Y-317500D01*
X-30429Y-315445D01*
X-31222Y-313529D01*
X-32484Y-311884D01*
X-34129Y-310622D01*
X-36044Y-309829D01*
X-38100Y-309558D01*
D02*
G37*
G36*
X-63500D02*
X-65556Y-309829D01*
X-67471Y-310622D01*
X-69116Y-311884D01*
X-70378Y-313529D01*
X-71171Y-315445D01*
X-71442Y-317500D01*
X-71171Y-319555D01*
X-70378Y-321471D01*
X-69116Y-323116D01*
X-67471Y-324378D01*
X-65556Y-325171D01*
X-63500Y-325442D01*
X-61445Y-325171D01*
X-59529Y-324378D01*
X-57884Y-323116D01*
X-56622Y-321471D01*
X-55829Y-319555D01*
X-55558Y-317500D01*
X-55829Y-315445D01*
X-56622Y-313529D01*
X-57884Y-311884D01*
X-59529Y-310622D01*
X-61445Y-309829D01*
X-63500Y-309558D01*
D02*
G37*
G36*
X88900D02*
X86845Y-309829D01*
X84929Y-310622D01*
X83284Y-311884D01*
X82022Y-313529D01*
X81229Y-315445D01*
X80958Y-317500D01*
X81229Y-319555D01*
X82022Y-321471D01*
X83284Y-323116D01*
X84929Y-324378D01*
X86845Y-325171D01*
X88900Y-325442D01*
X90955Y-325171D01*
X92871Y-324378D01*
X94516Y-323116D01*
X95778Y-321471D01*
X96571Y-319555D01*
X96842Y-317500D01*
X96571Y-315445D01*
X95778Y-313529D01*
X94516Y-311884D01*
X92871Y-310622D01*
X90955Y-309829D01*
X88900Y-309558D01*
D02*
G37*
G36*
X165100D02*
X163044Y-309829D01*
X161129Y-310622D01*
X159484Y-311884D01*
X158222Y-313529D01*
X157429Y-315445D01*
X157158Y-317500D01*
X157429Y-319555D01*
X158222Y-321471D01*
X159484Y-323116D01*
X161129Y-324378D01*
X163044Y-325171D01*
X165100Y-325442D01*
X167155Y-325171D01*
X169071Y-324378D01*
X170716Y-323116D01*
X171978Y-321471D01*
X172771Y-319555D01*
X173042Y-317500D01*
X172771Y-315445D01*
X171978Y-313529D01*
X170716Y-311884D01*
X169071Y-310622D01*
X167155Y-309829D01*
X165100Y-309558D01*
D02*
G37*
G36*
X139700D02*
X137645Y-309829D01*
X135729Y-310622D01*
X134084Y-311884D01*
X132822Y-313529D01*
X132029Y-315445D01*
X131758Y-317500D01*
X132029Y-319555D01*
X132822Y-321471D01*
X134084Y-323116D01*
X135729Y-324378D01*
X137645Y-325171D01*
X139700Y-325442D01*
X141756Y-325171D01*
X143671Y-324378D01*
X145316Y-323116D01*
X146578Y-321471D01*
X147371Y-319555D01*
X147642Y-317500D01*
X147371Y-315445D01*
X146578Y-313529D01*
X145316Y-311884D01*
X143671Y-310622D01*
X141756Y-309829D01*
X139700Y-309558D01*
D02*
G37*
G36*
X114300D02*
X112245Y-309829D01*
X110329Y-310622D01*
X108684Y-311884D01*
X107422Y-313529D01*
X106629Y-315445D01*
X106358Y-317500D01*
X106629Y-319555D01*
X107422Y-321471D01*
X108684Y-323116D01*
X110329Y-324378D01*
X112245Y-325171D01*
X114300Y-325442D01*
X116355Y-325171D01*
X118271Y-324378D01*
X119916Y-323116D01*
X121178Y-321471D01*
X121971Y-319555D01*
X122242Y-317500D01*
X121971Y-315445D01*
X121178Y-313529D01*
X119916Y-311884D01*
X118271Y-310622D01*
X116355Y-309829D01*
X114300Y-309558D01*
D02*
G37*
G36*
X-192500Y-29368D02*
X-194655Y-29797D01*
X-196483Y-31017D01*
X-197703Y-32845D01*
X-198132Y-35000D01*
X-197703Y-37155D01*
X-196483Y-38983D01*
X-194655Y-40203D01*
X-192500Y-40632D01*
X-190345Y-40203D01*
X-188517Y-38983D01*
X-187297Y-37155D01*
X-186868Y-35000D01*
X-187297Y-32845D01*
X-188517Y-31017D01*
X-190345Y-29797D01*
X-192500Y-29368D01*
D02*
G37*
G36*
X520980Y197230D02*
X510111D01*
Y196000D01*
X510503Y194034D01*
X511616Y192366D01*
X513284Y191252D01*
X515250Y190861D01*
X520980D01*
Y197230D01*
D02*
G37*
G36*
X496520Y198207D02*
Y189770D01*
X504957D01*
X504788Y191056D01*
X503802Y193437D01*
X502232Y195482D01*
X500187Y197052D01*
X497806Y198038D01*
X496520Y198207D01*
D02*
G37*
G36*
X534389Y197230D02*
X523520D01*
Y190861D01*
X529250D01*
X531217Y191252D01*
X532884Y192366D01*
X533998Y194034D01*
X534389Y196000D01*
Y197230D01*
D02*
G37*
G36*
X529250Y206139D02*
X523520D01*
Y199770D01*
X534389D01*
Y201000D01*
X533998Y202966D01*
X532884Y204634D01*
X531217Y205748D01*
X529250Y206139D01*
D02*
G37*
G36*
X520980D02*
X515250D01*
X513284Y205748D01*
X511616Y204634D01*
X510503Y202966D01*
X510111Y201000D01*
Y199770D01*
X520980D01*
Y206139D01*
D02*
G37*
G36*
X493980Y198207D02*
X492694Y198038D01*
X490313Y197052D01*
X488268Y195482D01*
X486698Y193437D01*
X485712Y191056D01*
X485543Y189770D01*
X493980D01*
Y198207D01*
D02*
G37*
G36*
X-429678Y156206D02*
X-430000Y156142D01*
X-430322Y156206D01*
X-432078Y155857D01*
X-432350Y155674D01*
X-432672Y155611D01*
X-434161Y154616D01*
X-434343Y154343D01*
X-434616Y154161D01*
X-435611Y152672D01*
X-435675Y152350D01*
X-435857Y152078D01*
X-436206Y150322D01*
X-436173Y150156D01*
X-436238Y150000D01*
X-436173Y149844D01*
X-436206Y149678D01*
X-435857Y147922D01*
X-435675Y147650D01*
X-435611Y147328D01*
X-434616Y145839D01*
X-434343Y145657D01*
X-434161Y145384D01*
X-432672Y144389D01*
X-432350Y144326D01*
X-432078Y144143D01*
X-430322Y143794D01*
X-430000Y143858D01*
X-429678Y143794D01*
X-427922Y144143D01*
X-427650Y144326D01*
X-427328Y144389D01*
X-425839Y145384D01*
X-425657Y145657D01*
X-425384Y145839D01*
X-424389Y147328D01*
X-424325Y147650D01*
X-424143Y147922D01*
X-423794Y149678D01*
X-423827Y149844D01*
X-423762Y150000D01*
X-423827Y150156D01*
X-423794Y150322D01*
X-424143Y152078D01*
X-424325Y152350D01*
X-424389Y152672D01*
X-425384Y154161D01*
X-425657Y154343D01*
X-425839Y154616D01*
X-427328Y155611D01*
X-427650Y155674D01*
X-427922Y155857D01*
X-429678Y156206D01*
D02*
G37*
G36*
X496520Y148207D02*
Y139770D01*
X504957D01*
X504788Y141056D01*
X503802Y143437D01*
X502232Y145482D01*
X500187Y147051D01*
X497806Y148038D01*
X496520Y148207D01*
D02*
G37*
G36*
X504957Y187230D02*
X496520D01*
Y178793D01*
X497806Y178962D01*
X500187Y179949D01*
X502232Y181518D01*
X503802Y183563D01*
X504788Y185944D01*
X504957Y187230D01*
D02*
G37*
G36*
X-373380Y191052D02*
X-375535Y190623D01*
X-377363Y189403D01*
X-378583Y187575D01*
X-379012Y185420D01*
X-378583Y183265D01*
X-377363Y181437D01*
X-375535Y180217D01*
X-373380Y179788D01*
X-371225Y180217D01*
X-369397Y181437D01*
X-368176Y183265D01*
X-367748Y185420D01*
X-368176Y187575D01*
X-369397Y189403D01*
X-371225Y190623D01*
X-373380Y191052D01*
D02*
G37*
G36*
X493980Y187230D02*
X485543D01*
X485712Y185944D01*
X486698Y183563D01*
X488268Y181518D01*
X490313Y179949D01*
X492694Y178962D01*
X493980Y178793D01*
Y187230D01*
D02*
G37*
G36*
X241300Y325442D02*
X239244Y325171D01*
X237329Y324378D01*
X235684Y323116D01*
X234422Y321471D01*
X233629Y319555D01*
X233358Y317500D01*
X233629Y315445D01*
X234422Y313529D01*
X235684Y311884D01*
X237329Y310622D01*
X239244Y309829D01*
X241300Y309558D01*
X243356Y309829D01*
X245271Y310622D01*
X246916Y311884D01*
X248178Y313529D01*
X248971Y315445D01*
X249242Y317500D01*
X248971Y319555D01*
X248178Y321471D01*
X246916Y323116D01*
X245271Y324378D01*
X243356Y325171D01*
X241300Y325442D01*
D02*
G37*
G36*
X215900D02*
X213845Y325171D01*
X211929Y324378D01*
X210284Y323116D01*
X209022Y321471D01*
X208229Y319555D01*
X207958Y317500D01*
X208229Y315445D01*
X209022Y313529D01*
X210284Y311884D01*
X211929Y310622D01*
X213845Y309829D01*
X215900Y309558D01*
X217955Y309829D01*
X219871Y310622D01*
X221516Y311884D01*
X222778Y313529D01*
X223571Y315445D01*
X223842Y317500D01*
X223571Y319555D01*
X222778Y321471D01*
X221516Y323116D01*
X219871Y324378D01*
X217955Y325171D01*
X215900Y325442D01*
D02*
G37*
G36*
X402500Y337382D02*
X400345Y336954D01*
X398517Y335733D01*
X397296Y333905D01*
X396868Y331750D01*
X397296Y329595D01*
X398517Y327767D01*
X400345Y326547D01*
X402500Y326118D01*
X404655Y326547D01*
X406483Y327767D01*
X407704Y329595D01*
X408132Y331750D01*
X407704Y333905D01*
X406483Y335733D01*
X404655Y336954D01*
X402500Y337382D01*
D02*
G37*
G36*
X472500Y438442D02*
X470444Y438171D01*
X468529Y437378D01*
X466884Y436116D01*
X453210Y422442D01*
X431790D01*
X418116Y436116D01*
X418116Y436116D01*
X416471Y437378D01*
X414556Y438171D01*
X412500Y438442D01*
X410444Y438171D01*
X408529Y437378D01*
X406884Y436116D01*
X406884Y436116D01*
X393210Y422442D01*
X371790D01*
X358116Y436116D01*
X356471Y437378D01*
X354556Y438171D01*
X352500Y438442D01*
X350444Y438171D01*
X348529Y437378D01*
X346884Y436116D01*
X346884Y436116D01*
X333210Y422442D01*
X311790D01*
X298116Y436116D01*
X296471Y437378D01*
X294555Y438171D01*
X292500Y438442D01*
X290445Y438171D01*
X288529Y437378D01*
X286884Y436116D01*
X286884Y436116D01*
X273210Y422442D01*
X251790D01*
X238116Y436116D01*
X238116Y436116D01*
X237926Y436261D01*
X237769Y436442D01*
X237106Y436890D01*
X236471Y437378D01*
X236250Y437469D01*
X236052Y437603D01*
X235295Y437865D01*
X234556Y438171D01*
X234318Y438203D01*
X234092Y438281D01*
X233294Y438338D01*
X232500Y438442D01*
X232263Y438411D01*
X232024Y438428D01*
X231238Y438276D01*
X230445Y438171D01*
X230224Y438080D01*
X229988Y438034D01*
X229268Y437684D01*
X228529Y437378D01*
X228339Y437232D01*
X228124Y437128D01*
X227519Y436603D01*
X226884Y436116D01*
X226884D01*
X226884Y436116D01*
X213210Y422442D01*
X191790D01*
X178116Y436116D01*
X176471Y437378D01*
X174556Y438171D01*
X172500Y438442D01*
X170445Y438171D01*
X168529Y437378D01*
X166884Y436116D01*
X166884Y436116D01*
X153210Y422442D01*
X131790D01*
X118116Y436116D01*
X116471Y437378D01*
X114556Y438171D01*
X112500Y438442D01*
X110445Y438171D01*
X108529Y437378D01*
X106884Y436116D01*
X106884Y436116D01*
X93210Y422442D01*
X71790D01*
X58116Y436116D01*
X56471Y437378D01*
X54556Y438171D01*
X52500Y438442D01*
X50445Y438171D01*
X48529Y437378D01*
X46884Y436116D01*
X46884Y436116D01*
X33210Y422442D01*
X11790D01*
X-1884Y436116D01*
X-3529Y437378D01*
X-5444Y438171D01*
X-7500Y438442D01*
X-9556Y438171D01*
X-11471Y437378D01*
X-13116Y436116D01*
X-13116Y436116D01*
X-26790Y422442D01*
X-48210D01*
X-61884Y436116D01*
X-63529Y437378D01*
X-65444Y438171D01*
X-67500Y438442D01*
X-69556Y438171D01*
X-71471Y437378D01*
X-73116Y436116D01*
X-73116Y436116D01*
X-86790Y422442D01*
X-108210D01*
X-121884Y436116D01*
X-123529Y437378D01*
X-125444Y438171D01*
X-127500Y438442D01*
X-129556Y438171D01*
X-131471Y437378D01*
X-133116Y436116D01*
X-133116Y436116D01*
X-146790Y422442D01*
X-168210D01*
X-181884Y436116D01*
X-183529Y437378D01*
X-185444Y438171D01*
X-187500Y438442D01*
X-189555Y438171D01*
X-191471Y437378D01*
X-193116Y436116D01*
X-193116Y436116D01*
X-206790Y422442D01*
X-228210D01*
X-241884Y436116D01*
X-243529Y437378D01*
X-245444Y438171D01*
X-247500Y438442D01*
X-249555Y438171D01*
X-251471Y437378D01*
X-253116Y436116D01*
X-253116Y436116D01*
X-266790Y422442D01*
X-288210D01*
X-301884Y436116D01*
X-303529Y437378D01*
X-305444Y438171D01*
X-307500Y438442D01*
X-309555Y438171D01*
X-311471Y437378D01*
X-313116Y436116D01*
X-313116Y436116D01*
X-326790Y422442D01*
X-348210D01*
X-361884Y436116D01*
X-363529Y437378D01*
X-365444Y438171D01*
X-367500Y438442D01*
X-369556Y438171D01*
X-371471Y437378D01*
X-373116Y436116D01*
X-373116Y436116D01*
X-386790Y422442D01*
X-408210D01*
X-421884Y436116D01*
X-423529Y437378D01*
X-425444Y438171D01*
X-427500Y438442D01*
X-429556Y438171D01*
X-431471Y437378D01*
X-433116Y436116D01*
X-433116Y436116D01*
X-446790Y422442D01*
X-468210D01*
X-481884Y436116D01*
X-483529Y437378D01*
X-485444Y438171D01*
X-487500Y438442D01*
X-489556Y438171D01*
X-491471Y437378D01*
X-493116Y436116D01*
X-494378Y434471D01*
X-495171Y432556D01*
X-495442Y430500D01*
X-495171Y428445D01*
X-494378Y426529D01*
X-493116Y424884D01*
X-482732Y414500D01*
X-483116Y414116D01*
X-484378Y412471D01*
X-485171Y410555D01*
X-485442Y408500D01*
X-485442Y408500D01*
Y297500D01*
X-485442Y297500D01*
X-485171Y295445D01*
X-484378Y293529D01*
X-483116Y291884D01*
X-477942Y286710D01*
Y220000D01*
X-477942Y220000D01*
X-477671Y217945D01*
X-476878Y216029D01*
X-475616Y214384D01*
X-457942Y196710D01*
Y28290D01*
X-478290Y7942D01*
X-502000D01*
X-504055Y7671D01*
X-505971Y6878D01*
X-507616Y5616D01*
X-508878Y3971D01*
X-509671Y2056D01*
X-509942Y0D01*
X-509671Y-2056D01*
X-508878Y-3971D01*
X-507616Y-5616D01*
X-505971Y-6878D01*
X-504055Y-7671D01*
X-502000Y-7942D01*
X-475000D01*
X-475000Y-7942D01*
X-472944Y-7671D01*
X-471029Y-6878D01*
X-469384Y-5616D01*
X-444384Y19384D01*
X-444384Y19384D01*
X-443122Y21029D01*
X-442329Y22945D01*
X-442193Y23972D01*
X-442058Y25000D01*
X-442058Y25000D01*
Y200000D01*
X-442058Y200000D01*
X-442193Y201028D01*
X-442329Y202055D01*
X-443122Y203971D01*
X-444384Y205616D01*
X-444384Y205616D01*
X-462058Y223290D01*
Y290000D01*
X-462329Y292055D01*
X-463122Y293971D01*
X-464384Y295616D01*
X-464384Y295616D01*
X-469558Y300790D01*
Y315315D01*
X-468288Y315941D01*
X-467221Y315122D01*
X-465305Y314329D01*
X-463250Y314058D01*
X-437790D01*
X-432942Y309210D01*
Y202500D01*
X-432942Y202500D01*
X-432671Y200445D01*
X-431878Y198529D01*
X-430616Y196884D01*
X-397942Y164210D01*
Y-66710D01*
X-425616Y-94384D01*
X-426878Y-96029D01*
X-427671Y-97944D01*
X-427942Y-100000D01*
X-427942Y-100000D01*
Y-190000D01*
X-427942Y-190000D01*
X-427671Y-192055D01*
X-426878Y-193971D01*
X-425616Y-195616D01*
X-388116Y-233116D01*
X-388116Y-233116D01*
X-386471Y-234378D01*
X-384556Y-235171D01*
X-382500Y-235442D01*
X-382500Y-235442D01*
X-95000D01*
X-95000Y-235442D01*
X-93972Y-235307D01*
X-92944Y-235171D01*
X-91029Y-234378D01*
X-89384Y-233116D01*
X-74384Y-218116D01*
X-74384Y-218116D01*
X-73122Y-216471D01*
X-72329Y-214555D01*
X-72058Y-212500D01*
X-72058Y-212500D01*
Y-123290D01*
X-69384Y-120616D01*
X-68122Y-118971D01*
X-67329Y-117056D01*
X-67058Y-115000D01*
X-67329Y-112944D01*
X-68122Y-111029D01*
X-69384Y-109384D01*
X-71029Y-108122D01*
X-72944Y-107329D01*
X-75000Y-107058D01*
X-77056Y-107329D01*
X-78971Y-108122D01*
X-80616Y-109384D01*
X-85616Y-114384D01*
X-86878Y-116029D01*
X-87671Y-117944D01*
X-87807Y-118972D01*
X-87942Y-120000D01*
X-87942Y-120000D01*
Y-209210D01*
X-98290Y-219558D01*
X-379210D01*
X-412058Y-186710D01*
Y-103290D01*
X-384384Y-75616D01*
X-384384Y-75616D01*
X-383122Y-73971D01*
X-382329Y-72056D01*
X-382058Y-70000D01*
Y167500D01*
X-382329Y169555D01*
X-383122Y171471D01*
X-384384Y173116D01*
X-384384Y173116D01*
X-417058Y205790D01*
Y312500D01*
X-417329Y314555D01*
X-418122Y316471D01*
X-419384Y318116D01*
X-419384Y318116D01*
X-428884Y327616D01*
X-430529Y328878D01*
X-432444Y329671D01*
X-434500Y329942D01*
X-434500Y329942D01*
X-463250D01*
X-465305Y329671D01*
X-467221Y328878D01*
X-468288Y328059D01*
X-469558Y328685D01*
Y405210D01*
X-468210Y406558D01*
X-443500D01*
X-443500Y406558D01*
X-441445Y406829D01*
X-439529Y407622D01*
X-437884Y408884D01*
X-427500Y419268D01*
X-417116Y408884D01*
X-417116Y408884D01*
X-415471Y407622D01*
X-413555Y406829D01*
X-411500Y406558D01*
X-411500Y406558D01*
X-383500D01*
X-383500Y406558D01*
X-382472Y406693D01*
X-381444Y406829D01*
X-379529Y407622D01*
X-377884Y408884D01*
X-367500Y419268D01*
X-357116Y408884D01*
X-357116Y408884D01*
X-355471Y407622D01*
X-354349Y407157D01*
X-353555Y406829D01*
X-352528Y406693D01*
X-351500Y406558D01*
X-351500Y406558D01*
X-323500D01*
X-323500Y406558D01*
X-321444Y406829D01*
X-319529Y407622D01*
X-317884Y408884D01*
X-307500Y419268D01*
X-297116Y408884D01*
X-297116Y408884D01*
X-295471Y407622D01*
X-293556Y406829D01*
X-291500Y406558D01*
X-291500Y406558D01*
X-263500D01*
X-263500Y406558D01*
X-262472Y406693D01*
X-261444Y406829D01*
X-259529Y407622D01*
X-257884Y408884D01*
X-247500Y419268D01*
X-237116Y408884D01*
X-237116Y408884D01*
X-235471Y407622D01*
X-234349Y407157D01*
X-233556Y406829D01*
X-232528Y406693D01*
X-231500Y406558D01*
X-231500Y406558D01*
X-203500D01*
X-203500Y406558D01*
X-201444Y406829D01*
X-199529Y407622D01*
X-197884Y408884D01*
X-187500Y419268D01*
X-177116Y408884D01*
X-177116Y408884D01*
X-175471Y407622D01*
X-173556Y406829D01*
X-171500Y406558D01*
X-171500Y406558D01*
X-143500D01*
X-143500Y406558D01*
X-142472Y406693D01*
X-141444Y406829D01*
X-139529Y407622D01*
X-137884Y408884D01*
X-127500Y419268D01*
X-117116Y408884D01*
X-117116Y408884D01*
X-115471Y407622D01*
X-114349Y407157D01*
X-113555Y406829D01*
X-112528Y406693D01*
X-111500Y406558D01*
X-111500Y406558D01*
X-83500D01*
X-83500Y406558D01*
X-81444Y406829D01*
X-79529Y407622D01*
X-77884Y408884D01*
X-67500Y419268D01*
X-57116Y408884D01*
X-57116Y408884D01*
X-55471Y407622D01*
X-53555Y406829D01*
X-51500Y406558D01*
X-51500Y406558D01*
X-31442D01*
Y391000D01*
X-31442Y391000D01*
X-31307Y389972D01*
X-31171Y388944D01*
X-30378Y387029D01*
X-29116Y385384D01*
X-25616Y381884D01*
X-23971Y380622D01*
X-22055Y379829D01*
X-20000Y379558D01*
X-17945Y379829D01*
X-16029Y380622D01*
X-14384Y381884D01*
X-13122Y383529D01*
X-12329Y385444D01*
X-12058Y387500D01*
X-12329Y389556D01*
X-13122Y391471D01*
X-14384Y393116D01*
X-15558Y394290D01*
Y411210D01*
X-7500Y419268D01*
X2884Y408884D01*
X2884Y408884D01*
X4529Y407622D01*
X5651Y407157D01*
X6445Y406829D01*
X7472Y406693D01*
X8500Y406558D01*
X8500Y406558D01*
X36500D01*
X36500Y406558D01*
X38556Y406829D01*
X40471Y407622D01*
X42116Y408884D01*
X52500Y419268D01*
X62884Y408884D01*
X62884Y408884D01*
X64529Y407622D01*
X66445Y406829D01*
X68500Y406558D01*
X68500Y406558D01*
X96500D01*
X96500Y406558D01*
X97528Y406693D01*
X98556Y406829D01*
X100471Y407622D01*
X102116Y408884D01*
X112500Y419268D01*
X122884Y408884D01*
X122884Y408884D01*
X124529Y407622D01*
X125651Y407157D01*
X126445Y406829D01*
X127472Y406693D01*
X128500Y406558D01*
X128500Y406558D01*
X156500D01*
X156500Y406558D01*
X158556Y406829D01*
X160471Y407622D01*
X162116Y408884D01*
X172500Y419268D01*
X182884Y408884D01*
X182884Y408884D01*
X184529Y407622D01*
X186445Y406829D01*
X188500Y406558D01*
X188500Y406558D01*
X216500D01*
X216500Y406558D01*
X217528Y406693D01*
X218556Y406829D01*
X220471Y407622D01*
X222116Y408884D01*
X232500Y419268D01*
X242884Y408884D01*
X244529Y407622D01*
X246444Y406829D01*
X248500Y406558D01*
X248500Y406558D01*
X276500D01*
X276500Y406558D01*
X277528Y406693D01*
X278556Y406829D01*
X280471Y407622D01*
X282116Y408884D01*
X292500Y419268D01*
X302884Y408884D01*
X302884Y408884D01*
X304529Y407622D01*
X305651Y407157D01*
X306444Y406829D01*
X307472Y406693D01*
X308500Y406558D01*
X308500Y406558D01*
X336500D01*
X336500Y406558D01*
X338556Y406829D01*
X340471Y407622D01*
X342116Y408884D01*
X352500Y419268D01*
X362884Y408884D01*
X362884Y408884D01*
X364529Y407622D01*
X366445Y406829D01*
X368500Y406558D01*
X368500Y406558D01*
X396500D01*
X396500Y406558D01*
X397528Y406693D01*
X398556Y406829D01*
X400471Y407622D01*
X402116Y408884D01*
X412500Y419268D01*
X422884Y408884D01*
X422884Y408884D01*
X424529Y407622D01*
X426445Y406829D01*
X428500Y406558D01*
X453210D01*
X465308Y394460D01*
Y250540D01*
X464960Y250192D01*
X442250D01*
X440195Y249921D01*
X438279Y249128D01*
X436634Y247866D01*
X436634Y247866D01*
X426884Y238116D01*
X425622Y236471D01*
X424829Y234555D01*
X424558Y232500D01*
X424558Y232500D01*
Y207500D01*
X424558Y207500D01*
X424829Y205445D01*
X425622Y203529D01*
X426884Y201884D01*
X437058Y191710D01*
Y143116D01*
X437058Y143116D01*
X437329Y141060D01*
X438122Y139145D01*
X439384Y137500D01*
X509558Y67326D01*
Y-500D01*
X509829Y-2555D01*
X510622Y-4471D01*
X511884Y-6116D01*
X513529Y-7378D01*
X515444Y-8171D01*
X517500Y-8442D01*
X519556Y-8171D01*
X521471Y-7378D01*
X523116Y-6116D01*
X524378Y-4471D01*
X525171Y-2555D01*
X525442Y-500D01*
Y70616D01*
X525171Y72671D01*
X524378Y74587D01*
X523116Y76232D01*
X523116Y76232D01*
X452942Y146405D01*
Y195000D01*
X452671Y197055D01*
X451878Y198971D01*
X450616Y200616D01*
X450616Y200616D01*
X440442Y210790D01*
Y229210D01*
X445540Y234308D01*
X468250D01*
X468250Y234308D01*
X470305Y234579D01*
X472221Y235372D01*
X473866Y236634D01*
X478866Y241634D01*
X478866Y241634D01*
X480128Y243279D01*
X480921Y245194D01*
X481192Y247250D01*
Y397750D01*
X480921Y399806D01*
X480128Y401721D01*
X478866Y403366D01*
X478866Y403366D01*
X467732Y414500D01*
X478116Y424884D01*
X479378Y426529D01*
X480171Y428445D01*
X480442Y430500D01*
X480171Y432556D01*
X479378Y434471D01*
X478116Y436116D01*
X476471Y437378D01*
X474556Y438171D01*
X472500Y438442D01*
D02*
G37*
G36*
X-19500Y352132D02*
X-21655Y351703D01*
X-23483Y350483D01*
X-24704Y348655D01*
X-25132Y346500D01*
X-24704Y344345D01*
X-23483Y342517D01*
X-21655Y341297D01*
X-19500Y340868D01*
X-17345Y341297D01*
X-15517Y342517D01*
X-14296Y344345D01*
X-13868Y346500D01*
X-14296Y348655D01*
X-15517Y350483D01*
X-17345Y351703D01*
X-19500Y352132D01*
D02*
G37*
G36*
X190500Y325442D02*
X188444Y325171D01*
X186529Y324378D01*
X184884Y323116D01*
X183622Y321471D01*
X182829Y319555D01*
X182558Y317500D01*
X182829Y315445D01*
X183622Y313529D01*
X184884Y311884D01*
X186529Y310622D01*
X188444Y309829D01*
X190500Y309558D01*
X192556Y309829D01*
X194471Y310622D01*
X196116Y311884D01*
X197378Y313529D01*
X198171Y315445D01*
X198442Y317500D01*
X198171Y319555D01*
X197378Y321471D01*
X196116Y323116D01*
X194471Y324378D01*
X192556Y325171D01*
X190500Y325442D01*
D02*
G37*
G36*
X250000Y390996D02*
X248662Y390730D01*
X247528Y389972D01*
X246770Y388838D01*
X246504Y387500D01*
Y356448D01*
X236052Y345996D01*
X85000D01*
X83662Y345730D01*
X82528Y344972D01*
X72528Y334972D01*
X71770Y333838D01*
X71504Y332500D01*
Y301650D01*
X-130000Y301650D01*
X-131166Y301166D01*
X-141166Y291166D01*
X-141650Y290000D01*
Y262849D01*
X-251320D01*
X-272151Y283680D01*
Y330000D01*
X-272368Y331090D01*
X-272986Y332014D01*
X-272986Y332014D01*
X-292986Y352014D01*
X-293910Y352632D01*
X-295000Y352849D01*
X-295000Y352849D01*
X-445260D01*
X-446017Y353983D01*
X-447845Y355204D01*
X-450000Y355632D01*
X-452155Y355204D01*
X-453983Y353983D01*
X-455204Y352155D01*
X-455632Y350000D01*
X-455204Y347845D01*
X-453983Y346017D01*
X-452155Y344796D01*
X-450000Y344368D01*
X-447845Y344796D01*
X-446017Y346017D01*
X-445260Y347151D01*
X-296180D01*
X-277849Y328820D01*
Y282500D01*
X-277849Y282500D01*
X-277632Y281410D01*
X-277014Y280486D01*
X-254514Y257986D01*
X-253590Y257368D01*
X-252500Y257151D01*
X-252500Y257151D01*
X-141650D01*
X-141650Y71162D01*
X-142833Y70926D01*
X-144388Y69888D01*
X-175888Y38388D01*
X-176926Y36834D01*
X-177291Y35000D01*
Y-77227D01*
X-177703Y-77845D01*
X-178132Y-80000D01*
X-177703Y-82155D01*
X-176483Y-83983D01*
X-174655Y-85204D01*
X-172500Y-85632D01*
X-170345Y-85204D01*
X-168517Y-83983D01*
X-167297Y-82155D01*
X-166868Y-80000D01*
X-167297Y-77845D01*
X-167709Y-77227D01*
Y33015D01*
X-142823Y57902D01*
X-141650Y57415D01*
Y10000D01*
X-141166Y8834D01*
X-131166Y-1166D01*
X-130000Y-1650D01*
X130000D01*
X131166Y-1166D01*
X141166Y8834D01*
X141650Y10000D01*
Y32709D01*
X318515D01*
X326209Y25015D01*
Y21373D01*
X325797Y20755D01*
X325368Y18600D01*
X325797Y16445D01*
X327018Y14617D01*
X328845Y13397D01*
X331000Y12968D01*
X333155Y13397D01*
X334983Y14617D01*
X336203Y16445D01*
X336632Y18600D01*
X336203Y20755D01*
X335791Y21373D01*
Y27000D01*
X335426Y28833D01*
X334388Y30388D01*
X323888Y40888D01*
X322333Y41926D01*
X320500Y42291D01*
X141650D01*
Y151029D01*
X142920Y151680D01*
X143878Y151039D01*
X144200Y150976D01*
X144472Y150793D01*
X146228Y150444D01*
X146550Y150508D01*
X146872Y150444D01*
X148628Y150793D01*
X148900Y150976D01*
X149222Y151039D01*
X150711Y152034D01*
X150893Y152307D01*
X151166Y152489D01*
X152161Y153978D01*
X152225Y154299D01*
X152407Y154572D01*
X152756Y156328D01*
X152723Y156494D01*
X152788Y156650D01*
X152723Y156806D01*
X152756Y156972D01*
X152407Y158728D01*
X152225Y159000D01*
X152161Y159322D01*
X151166Y160811D01*
X150893Y160993D01*
X150711Y161266D01*
X149222Y162260D01*
X148900Y162325D01*
X148628Y162507D01*
X146872Y162856D01*
X146550Y162792D01*
X146228Y162856D01*
X144472Y162507D01*
X144200Y162325D01*
X143878Y162260D01*
X142920Y161620D01*
X141650Y162271D01*
Y191841D01*
X182170D01*
X340681Y33330D01*
Y8087D01*
X340681Y8087D01*
X340898Y6997D01*
X341516Y6072D01*
X360732Y-13144D01*
X360732Y-13144D01*
X361657Y-13762D01*
X362747Y-13979D01*
X362747Y-13979D01*
X379430D01*
X380187Y-15113D01*
X382015Y-16334D01*
X384170Y-16762D01*
X386325Y-16334D01*
X388153Y-15113D01*
X389374Y-13285D01*
X389802Y-11130D01*
X389374Y-8975D01*
X388153Y-7147D01*
X387461Y-6685D01*
Y-5415D01*
X388153Y-4953D01*
X389374Y-3125D01*
X389802Y-970D01*
X389374Y1185D01*
X388153Y3013D01*
X386325Y4234D01*
X384170Y4662D01*
X382015Y4234D01*
X380187Y3013D01*
X379430Y1879D01*
X359514D01*
X351023Y10370D01*
Y36511D01*
X352293Y37190D01*
X352520Y37038D01*
X353610Y36821D01*
X353610Y36821D01*
X379430D01*
X380187Y35687D01*
X382015Y34467D01*
X384170Y34038D01*
X386325Y34467D01*
X388153Y35687D01*
X389374Y37515D01*
X389802Y39670D01*
X389374Y41825D01*
X388153Y43653D01*
X388091Y43694D01*
Y45221D01*
X388173Y45276D01*
X389268Y46371D01*
X391220D01*
X391481Y46110D01*
Y28150D01*
X389110Y25778D01*
X388153Y25873D01*
X386325Y27094D01*
X384170Y27522D01*
X382015Y27094D01*
X380187Y25873D01*
X378966Y24045D01*
X378538Y21890D01*
X378966Y19735D01*
X380187Y17907D01*
X382015Y16687D01*
X384170Y16258D01*
X386325Y16687D01*
X388153Y17907D01*
X388910Y19041D01*
X389250D01*
X389250Y19041D01*
X390340Y19258D01*
X391264Y19876D01*
X396344Y24956D01*
X396344Y24956D01*
X396962Y25880D01*
X397179Y26970D01*
X397179Y26970D01*
Y47290D01*
X397179Y47290D01*
X396962Y48380D01*
X396344Y49304D01*
X394414Y51234D01*
X393490Y51852D01*
X392400Y52069D01*
X392400Y52069D01*
X390326D01*
X389490Y53339D01*
X389802Y54910D01*
X389374Y57065D01*
X388153Y58893D01*
X387461Y59355D01*
Y60625D01*
X388153Y61087D01*
X389374Y62915D01*
X389802Y65070D01*
X389374Y67225D01*
X388153Y69053D01*
X386325Y70273D01*
X384170Y70702D01*
X382015Y70273D01*
X380187Y69053D01*
X379430Y67919D01*
X350943D01*
X197810Y221051D01*
X198336Y222321D01*
X221650D01*
X316486Y127486D01*
X316486Y127486D01*
X317410Y126868D01*
X318500Y126651D01*
X401240D01*
X454651Y73240D01*
Y-42760D01*
X453517Y-43517D01*
X452297Y-45345D01*
X451868Y-47500D01*
X452297Y-49655D01*
X453517Y-51483D01*
X455345Y-52703D01*
X457500Y-53132D01*
X459655Y-52703D01*
X461483Y-51483D01*
X462704Y-49655D01*
X463132Y-47500D01*
X462704Y-45345D01*
X461483Y-43517D01*
X460349Y-42760D01*
Y74420D01*
X460349Y74420D01*
X460132Y75510D01*
X459514Y76434D01*
X459514Y76434D01*
X404434Y131514D01*
X403510Y132132D01*
X402420Y132349D01*
X402420Y132349D01*
X319680D01*
X224844Y227184D01*
X223920Y227802D01*
X222830Y228019D01*
X222830Y228019D01*
X141650D01*
Y234529D01*
X142920Y235180D01*
X143878Y234540D01*
X144200Y234475D01*
X144472Y234293D01*
X146228Y233944D01*
X146550Y234008D01*
X146872Y233944D01*
X148628Y234293D01*
X148900Y234475D01*
X149222Y234540D01*
X150711Y235534D01*
X150893Y235807D01*
X151166Y235989D01*
X152161Y237478D01*
X152225Y237799D01*
X152407Y238072D01*
X152756Y239828D01*
X152723Y239994D01*
X152788Y240150D01*
X152723Y240306D01*
X152756Y240472D01*
X152407Y242228D01*
X152225Y242500D01*
X152161Y242822D01*
X151166Y244311D01*
X150893Y244493D01*
X150711Y244766D01*
X149222Y245760D01*
X148900Y245825D01*
X148628Y246007D01*
X146872Y246356D01*
X146550Y246292D01*
X146228Y246356D01*
X144472Y246007D01*
X144200Y245825D01*
X143878Y245760D01*
X142920Y245120D01*
X141650Y245771D01*
Y290000D01*
X141166Y291166D01*
X131166Y301166D01*
X130000Y301649D01*
X78496Y301650D01*
Y331052D01*
X86448Y339004D01*
X237500D01*
X238838Y339270D01*
X239972Y340028D01*
X252472Y352528D01*
X253230Y353662D01*
X253496Y355000D01*
Y387500D01*
X253230Y388838D01*
X252472Y389972D01*
X251338Y390730D01*
X250000Y390996D01*
D02*
G37*
G36*
X-402500Y238132D02*
X-404655Y237703D01*
X-406483Y236483D01*
X-407704Y234655D01*
X-408132Y232500D01*
X-407704Y230345D01*
X-406483Y228517D01*
X-404655Y227297D01*
X-402500Y226868D01*
X-400345Y227297D01*
X-398517Y228517D01*
X-397296Y230345D01*
X-396868Y232500D01*
X-397296Y234655D01*
X-398517Y236483D01*
X-400345Y237703D01*
X-402500Y238132D01*
D02*
G37*
G36*
X-241300Y325442D02*
X-243356Y325171D01*
X-245271Y324378D01*
X-246916Y323116D01*
X-248178Y321471D01*
X-248971Y319555D01*
X-249242Y317500D01*
X-248971Y315445D01*
X-248178Y313529D01*
X-246916Y311884D01*
X-245271Y310622D01*
X-243356Y309829D01*
X-241300Y309558D01*
X-239244Y309829D01*
X-237329Y310622D01*
X-235684Y311884D01*
X-234422Y313529D01*
X-233629Y315445D01*
X-233358Y317500D01*
X-233629Y319555D01*
X-234422Y321471D01*
X-235684Y323116D01*
X-237329Y324378D01*
X-239244Y325171D01*
X-241300Y325442D01*
D02*
G37*
G36*
X-190500D02*
X-192556Y325171D01*
X-194471Y324378D01*
X-196116Y323116D01*
X-197378Y321471D01*
X-198171Y319555D01*
X-198442Y317500D01*
X-198171Y315445D01*
X-197378Y313529D01*
X-196116Y311884D01*
X-194471Y310622D01*
X-192556Y309829D01*
X-190500Y309558D01*
X-188444Y309829D01*
X-186529Y310622D01*
X-184884Y311884D01*
X-183622Y313529D01*
X-182829Y315445D01*
X-182558Y317500D01*
X-182829Y319555D01*
X-183622Y321471D01*
X-184884Y323116D01*
X-186529Y324378D01*
X-188444Y325171D01*
X-190500Y325442D01*
D02*
G37*
G36*
X-215900D02*
X-217955Y325171D01*
X-219871Y324378D01*
X-221516Y323116D01*
X-222778Y321471D01*
X-223571Y319555D01*
X-223842Y317500D01*
X-223571Y315445D01*
X-222778Y313529D01*
X-221516Y311884D01*
X-219871Y310622D01*
X-217955Y309829D01*
X-215900Y309558D01*
X-213845Y309829D01*
X-211929Y310622D01*
X-210284Y311884D01*
X-209022Y313529D01*
X-208229Y315445D01*
X-207958Y317500D01*
X-208229Y319555D01*
X-209022Y321471D01*
X-210284Y323116D01*
X-211929Y324378D01*
X-213845Y325171D01*
X-215900Y325442D01*
D02*
G37*
G36*
X493980Y148207D02*
X492694Y148038D01*
X490313Y147051D01*
X488268Y145482D01*
X486698Y143437D01*
X485712Y141056D01*
X485543Y139770D01*
X493980D01*
Y148207D01*
D02*
G37*
G36*
X504957Y137230D02*
X496520D01*
Y128793D01*
X497806Y128962D01*
X500187Y129949D01*
X502232Y131518D01*
X503802Y133563D01*
X504788Y135944D01*
X504957Y137230D01*
D02*
G37*
G36*
X520980Y136139D02*
X515250D01*
X513284Y135748D01*
X511616Y134634D01*
X510503Y132966D01*
X510111Y131000D01*
Y129770D01*
X520980D01*
Y136139D01*
D02*
G37*
G36*
X529250D02*
X523520D01*
Y129770D01*
X534389D01*
Y131000D01*
X533998Y132966D01*
X532884Y134634D01*
X531217Y135748D01*
X529250Y136139D01*
D02*
G37*
G36*
X-429678Y85206D02*
X-430000Y85142D01*
X-430322Y85206D01*
X-432078Y84857D01*
X-432350Y84675D01*
X-432672Y84611D01*
X-434161Y83616D01*
X-434343Y83343D01*
X-434616Y83161D01*
X-435611Y81672D01*
X-435675Y81350D01*
X-435857Y81078D01*
X-436206Y79322D01*
X-436173Y79156D01*
X-436238Y79000D01*
X-436173Y78844D01*
X-436206Y78678D01*
X-435857Y76922D01*
X-435675Y76650D01*
X-435611Y76328D01*
X-434616Y74839D01*
X-434343Y74657D01*
X-434161Y74384D01*
X-432672Y73390D01*
X-432350Y73326D01*
X-432078Y73143D01*
X-430322Y72794D01*
X-430000Y72858D01*
X-429678Y72794D01*
X-427922Y73143D01*
X-427650Y73326D01*
X-427328Y73390D01*
X-425839Y74384D01*
X-425657Y74657D01*
X-425384Y74839D01*
X-424389Y76328D01*
X-424325Y76650D01*
X-424143Y76922D01*
X-423794Y78678D01*
X-423827Y78844D01*
X-423762Y79000D01*
X-423827Y79156D01*
X-423794Y79322D01*
X-424143Y81078D01*
X-424325Y81350D01*
X-424389Y81672D01*
X-425384Y83161D01*
X-425657Y83343D01*
X-425839Y83616D01*
X-427328Y84611D01*
X-427650Y84675D01*
X-427922Y84857D01*
X-429678Y85206D01*
D02*
G37*
G36*
X520980Y127230D02*
X510111D01*
Y126000D01*
X510503Y124033D01*
X511616Y122366D01*
X513284Y121252D01*
X515250Y120861D01*
X520980D01*
Y127230D01*
D02*
G37*
G36*
X534389D02*
X523520D01*
Y120861D01*
X529250D01*
X531217Y121252D01*
X532884Y122366D01*
X533998Y124033D01*
X534389Y126000D01*
Y127230D01*
D02*
G37*
G36*
X493980Y137230D02*
X485543D01*
X485712Y135944D01*
X486698Y133563D01*
X488268Y131518D01*
X490313Y129949D01*
X492694Y128962D01*
X493980Y128793D01*
Y137230D01*
D02*
G37*
G36*
X-361500Y70632D02*
X-363655Y70203D01*
X-365483Y68983D01*
X-366703Y67155D01*
X-367132Y65000D01*
X-366703Y62845D01*
X-366291Y62227D01*
Y17984D01*
X-371427Y12848D01*
X-372155Y12703D01*
X-373983Y11483D01*
X-375204Y9655D01*
X-375632Y7500D01*
X-375204Y5345D01*
X-373983Y3517D01*
X-372155Y2297D01*
X-370000Y1868D01*
X-367845Y2297D01*
X-366017Y3517D01*
X-364796Y5345D01*
X-364652Y6073D01*
X-358112Y12612D01*
X-357074Y14167D01*
X-356709Y16000D01*
Y62227D01*
X-356297Y62845D01*
X-355868Y65000D01*
X-356297Y67155D01*
X-357517Y68983D01*
X-359345Y70203D01*
X-361500Y70632D01*
D02*
G37*
G36*
X-20320Y-3258D02*
X-22475Y-3686D01*
X-24303Y-4907D01*
X-25524Y-6735D01*
X-25952Y-8890D01*
X-25524Y-11045D01*
X-24303Y-12873D01*
X-22475Y-14094D01*
X-20320Y-14522D01*
X-18165Y-14094D01*
X-16337Y-12873D01*
X-15116Y-11045D01*
X-14688Y-8890D01*
X-15116Y-6735D01*
X-16337Y-4907D01*
X-18165Y-3686D01*
X-20320Y-3258D01*
D02*
G37*
G36*
X-338000Y30632D02*
X-340155Y30203D01*
X-341983Y28983D01*
X-343204Y27155D01*
X-343632Y25000D01*
X-343204Y22845D01*
X-341983Y21017D01*
X-340155Y19797D01*
X-338000Y19368D01*
X-335845Y19797D01*
X-334017Y21017D01*
X-332797Y22845D01*
X-332368Y25000D01*
X-332797Y27155D01*
X-334017Y28983D01*
X-335845Y30203D01*
X-338000Y30632D01*
D02*
G37*
%LPD*%
G36*
X130000Y300000D02*
X140000Y290000D01*
Y228019D01*
X121030D01*
X120159Y228890D01*
Y237870D01*
X119942Y238960D01*
X119324Y239884D01*
X119324Y239884D01*
X116784Y242424D01*
X116427Y242663D01*
X116244Y243846D01*
X116282Y244142D01*
X116291Y244165D01*
X117434Y245875D01*
X117862Y248030D01*
X117434Y250185D01*
X116213Y252013D01*
X114385Y253234D01*
X112230Y253662D01*
X110075Y253234D01*
X108247Y252013D01*
X107027Y250185D01*
X106598Y248030D01*
X107027Y245875D01*
X107926Y244529D01*
X107316Y243259D01*
X91570D01*
X90813Y244393D01*
X88985Y245613D01*
X86830Y246042D01*
X84675Y245613D01*
X82847Y244393D01*
X81627Y242565D01*
X81198Y240410D01*
X81627Y238255D01*
X82847Y236427D01*
X84675Y235207D01*
X86830Y234778D01*
X88985Y235207D01*
X90813Y236427D01*
X91570Y237561D01*
X102236D01*
X102846Y236291D01*
X101946Y234945D01*
X101518Y232790D01*
X101946Y230635D01*
X103167Y228807D01*
X104995Y227586D01*
X107150Y227158D01*
X109305Y227586D01*
X111133Y228807D01*
X112353Y230635D01*
X112782Y232790D01*
X112353Y234945D01*
X111454Y236291D01*
X112064Y237561D01*
X113590D01*
X114461Y236690D01*
Y227710D01*
X114461Y227710D01*
X114678Y226620D01*
X115296Y225696D01*
X116783Y224209D01*
X116257Y222939D01*
X103250D01*
X99816Y226373D01*
X100082Y227710D01*
X99654Y229865D01*
X98433Y231693D01*
X96605Y232913D01*
X94450Y233342D01*
X92295Y232913D01*
X90467Y231693D01*
X89247Y229865D01*
X88818Y227710D01*
X89247Y225555D01*
X90467Y223727D01*
X92295Y222507D01*
X94450Y222078D01*
X95787Y222344D01*
X99003Y219129D01*
X98476Y217859D01*
X91570D01*
X90813Y218993D01*
X88985Y220214D01*
X86830Y220642D01*
X84675Y220214D01*
X82847Y218993D01*
X81627Y217165D01*
X81198Y215010D01*
X81627Y212855D01*
X82847Y211027D01*
X84675Y209806D01*
X86830Y209378D01*
X88985Y209806D01*
X90813Y211027D01*
X91570Y212161D01*
X106096D01*
X106622Y210891D01*
X100890Y205159D01*
X99190D01*
X98433Y206293D01*
X96605Y207514D01*
X94450Y207942D01*
X92295Y207514D01*
X90467Y206293D01*
X89247Y204465D01*
X88818Y202310D01*
X89247Y200155D01*
X90467Y198327D01*
X92295Y197106D01*
X94450Y196678D01*
X96605Y197106D01*
X98433Y198327D01*
X99190Y199461D01*
X102070D01*
X102070Y199461D01*
X103160Y199678D01*
X104084Y200296D01*
X110115Y206326D01*
X110370Y206275D01*
X110788Y204897D01*
X98350Y192459D01*
X91570D01*
X90813Y193593D01*
X88985Y194813D01*
X86830Y195242D01*
X84675Y194813D01*
X82847Y193593D01*
X81627Y191765D01*
X81198Y189610D01*
X81627Y187455D01*
X82847Y185627D01*
X84675Y184407D01*
X86830Y183978D01*
X88985Y184407D01*
X90813Y185627D01*
X91570Y186761D01*
X99530D01*
X99530Y186761D01*
X100620Y186978D01*
X101544Y187596D01*
X115195Y201246D01*
X115450Y201195D01*
X115868Y199817D01*
X98350Y182299D01*
X82930D01*
X25344Y239884D01*
X24420Y240502D01*
X23330Y240719D01*
X23330Y240719D01*
X3010D01*
X3010Y240719D01*
X1920Y240502D01*
X996Y239884D01*
X996Y239884D01*
X-3239Y235650D01*
X-4225Y235453D01*
X-6053Y234233D01*
X-7273Y232405D01*
X-7702Y230250D01*
X-7273Y228095D01*
X-6053Y226267D01*
X-4225Y225047D01*
X-2070Y224618D01*
X85Y225047D01*
X1913Y226267D01*
X3133Y228095D01*
X3562Y230250D01*
X3133Y232405D01*
X2509Y233340D01*
X4190Y235021D01*
X8256D01*
X8866Y233751D01*
X7966Y232405D01*
X7538Y230250D01*
X7966Y228095D01*
X9187Y226267D01*
X11015Y225047D01*
X13170Y224618D01*
X15325Y225047D01*
X17153Y226267D01*
X17910Y227401D01*
X19610D01*
X73892Y173119D01*
X73366Y171849D01*
X18740D01*
X17983Y172983D01*
X16155Y174203D01*
X14000Y174632D01*
X11845Y174203D01*
X10017Y172983D01*
X8796Y171155D01*
X8368Y169000D01*
X8796Y166845D01*
X10017Y165017D01*
X11845Y163797D01*
X14000Y163368D01*
X16155Y163797D01*
X17983Y165017D01*
X18740Y166151D01*
X106860D01*
X106860Y166151D01*
X107950Y166368D01*
X108874Y166986D01*
X110892Y169004D01*
X112230Y168738D01*
X114385Y169167D01*
X116213Y170387D01*
X117434Y172215D01*
X117862Y174370D01*
X117434Y176525D01*
X116213Y178353D01*
X114385Y179573D01*
X113312Y179787D01*
X112894Y181165D01*
X123570Y191841D01*
X140000D01*
Y10000D01*
X130000Y-0D01*
X-130000D01*
X-140000Y10000D01*
X-140000Y257151D01*
X-88680D01*
X-57014Y225486D01*
X-57014Y225486D01*
X-56090Y224868D01*
X-55000Y224651D01*
X-34740D01*
X-33983Y223517D01*
X-32155Y222297D01*
X-30000Y221868D01*
X-27845Y222297D01*
X-26017Y223517D01*
X-24797Y225345D01*
X-24368Y227500D01*
X-24797Y229655D01*
X-26017Y231483D01*
X-27845Y232703D01*
X-30000Y233132D01*
X-32155Y232703D01*
X-33983Y231483D01*
X-34740Y230349D01*
X-53820D01*
X-85486Y262014D01*
X-86410Y262632D01*
X-87500Y262849D01*
X-87500Y262849D01*
X-140000D01*
Y290000D01*
X-130000Y300000D01*
X130000Y300000D01*
D02*
G37*
%LPC*%
G36*
X-72390Y269792D02*
X-74545Y269363D01*
X-76373Y268143D01*
X-77593Y266315D01*
X-78022Y264160D01*
X-77593Y262005D01*
X-76373Y260177D01*
X-74545Y258957D01*
X-72390Y258528D01*
X-70235Y258957D01*
X-68407Y260177D01*
X-67186Y262005D01*
X-66758Y264160D01*
X-67186Y266315D01*
X-68407Y268143D01*
X-70235Y269363D01*
X-72390Y269792D01*
D02*
G37*
G36*
X110500Y277632D02*
X108345Y277204D01*
X106517Y275983D01*
X105296Y274155D01*
X104868Y272000D01*
X105296Y269845D01*
X106517Y268017D01*
X108345Y266796D01*
X110500Y266368D01*
X112655Y266796D01*
X114482Y268017D01*
X115703Y269845D01*
X116132Y272000D01*
X115703Y274155D01*
X114482Y275983D01*
X112655Y277204D01*
X110500Y277632D01*
D02*
G37*
G36*
X70000Y252632D02*
X67845Y252204D01*
X66017Y250983D01*
X64797Y249155D01*
X64368Y247000D01*
X64797Y244845D01*
X66017Y243017D01*
X67845Y241796D01*
X70000Y241368D01*
X72155Y241796D01*
X73983Y243017D01*
X75203Y244845D01*
X75632Y247000D01*
X75203Y249155D01*
X73983Y250983D01*
X72155Y252204D01*
X70000Y252632D01*
D02*
G37*
G36*
X50500Y115632D02*
X48345Y115204D01*
X46517Y113983D01*
X45297Y112155D01*
X44868Y110000D01*
X45297Y107845D01*
X46517Y106017D01*
X48345Y104796D01*
X50500Y104368D01*
X52655Y104796D01*
X54483Y106017D01*
X55704Y107845D01*
X56132Y110000D01*
X55704Y112155D01*
X54483Y113983D01*
X52655Y115204D01*
X50500Y115632D01*
D02*
G37*
G36*
X-82500Y239132D02*
X-84655Y238703D01*
X-86483Y237483D01*
X-87704Y235655D01*
X-88132Y233500D01*
X-87704Y231345D01*
X-86483Y229517D01*
X-84655Y228297D01*
X-82500Y227868D01*
X-80345Y228297D01*
X-78517Y229517D01*
X-77297Y231345D01*
X-76868Y233500D01*
X-77297Y235655D01*
X-78517Y237483D01*
X-80345Y238703D01*
X-82500Y239132D01*
D02*
G37*
G36*
X127000Y72632D02*
X124845Y72203D01*
X123017Y70983D01*
X121797Y69155D01*
X121368Y67000D01*
X121797Y64845D01*
X123017Y63017D01*
X124845Y61796D01*
X127000Y61368D01*
X129155Y61796D01*
X130983Y63017D01*
X132204Y64845D01*
X132632Y67000D01*
X132204Y69155D01*
X130983Y70983D01*
X129155Y72203D01*
X127000Y72632D01*
D02*
G37*
G36*
X83000Y13132D02*
X80845Y12703D01*
X79017Y11483D01*
X77797Y9655D01*
X77368Y7500D01*
X77797Y5345D01*
X79017Y3517D01*
X80845Y2297D01*
X83000Y1868D01*
X85155Y2297D01*
X86983Y3517D01*
X88203Y5345D01*
X88632Y7500D01*
X88203Y9655D01*
X86983Y11483D01*
X85155Y12703D01*
X83000Y13132D01*
D02*
G37*
G36*
X-12000Y15632D02*
X-14155Y15203D01*
X-15983Y13983D01*
X-17204Y12155D01*
X-17632Y10000D01*
X-17204Y7845D01*
X-15983Y6017D01*
X-14155Y4796D01*
X-12000Y4368D01*
X-9845Y4796D01*
X-8017Y6017D01*
X-6797Y7845D01*
X-6368Y10000D01*
X-6797Y12155D01*
X-8017Y13983D01*
X-9845Y15203D01*
X-12000Y15632D01*
D02*
G37*
G36*
X111000Y112632D02*
X108845Y112204D01*
X107017Y110983D01*
X105796Y109155D01*
X105368Y107000D01*
X105796Y104845D01*
X107017Y103017D01*
X108845Y101797D01*
X111000Y101368D01*
X113155Y101797D01*
X114983Y103017D01*
X116203Y104845D01*
X116632Y107000D01*
X116203Y109155D01*
X114983Y110983D01*
X113155Y112204D01*
X111000Y112632D01*
D02*
G37*
G36*
X15000Y90132D02*
X12845Y89704D01*
X11017Y88483D01*
X9797Y86655D01*
X9368Y84500D01*
X9797Y82345D01*
X11017Y80517D01*
X12845Y79296D01*
X15000Y78868D01*
X17155Y79296D01*
X18983Y80517D01*
X20203Y82345D01*
X20632Y84500D01*
X20203Y86655D01*
X18983Y88483D01*
X17155Y89704D01*
X15000Y90132D01*
D02*
G37*
G36*
X-44000Y99632D02*
X-46155Y99204D01*
X-47983Y97983D01*
X-49204Y96155D01*
X-49632Y94000D01*
X-49204Y91845D01*
X-47983Y90017D01*
X-46155Y88797D01*
X-44000Y88368D01*
X-41845Y88797D01*
X-40017Y90017D01*
X-38797Y91845D01*
X-38368Y94000D01*
X-38797Y96155D01*
X-40017Y97983D01*
X-41845Y99204D01*
X-44000Y99632D01*
D02*
G37*
G36*
X-32500Y188132D02*
X-34655Y187703D01*
X-36483Y186483D01*
X-37703Y184655D01*
X-38132Y182500D01*
X-37703Y180345D01*
X-36483Y178517D01*
X-34655Y177297D01*
X-32500Y176868D01*
X-30345Y177297D01*
X-28517Y178517D01*
X-27297Y180345D01*
X-26868Y182500D01*
X-27297Y184655D01*
X-28517Y186483D01*
X-30345Y187703D01*
X-32500Y188132D01*
D02*
G37*
G36*
X30000Y184632D02*
X27845Y184203D01*
X26017Y182983D01*
X24797Y181155D01*
X24368Y179000D01*
X24797Y176845D01*
X26017Y175017D01*
X27845Y173797D01*
X30000Y173368D01*
X32155Y173797D01*
X33983Y175017D01*
X35203Y176845D01*
X35632Y179000D01*
X35203Y181155D01*
X33983Y182983D01*
X32155Y184203D01*
X30000Y184632D01*
D02*
G37*
G36*
X16000Y195632D02*
X13845Y195203D01*
X12017Y193983D01*
X10797Y192155D01*
X10368Y190000D01*
X10797Y187845D01*
X12017Y186017D01*
X13845Y184797D01*
X16000Y184368D01*
X18155Y184797D01*
X19983Y186017D01*
X21203Y187845D01*
X21632Y190000D01*
X21203Y192155D01*
X19983Y193983D01*
X18155Y195203D01*
X16000Y195632D01*
D02*
G37*
G36*
X1000Y188632D02*
X-1155Y188204D01*
X-2983Y186983D01*
X-4203Y185155D01*
X-4632Y183000D01*
X-4203Y180845D01*
X-2983Y179017D01*
X-1155Y177796D01*
X1000Y177368D01*
X3155Y177796D01*
X4983Y179017D01*
X6204Y180845D01*
X6632Y183000D01*
X6204Y185155D01*
X4983Y186983D01*
X3155Y188204D01*
X1000Y188632D01*
D02*
G37*
G36*
X-51000Y157132D02*
X-53155Y156704D01*
X-54983Y155483D01*
X-56203Y153655D01*
X-56632Y151500D01*
X-56203Y149345D01*
X-54983Y147517D01*
X-53155Y146297D01*
X-51000Y145868D01*
X-48845Y146297D01*
X-47017Y147517D01*
X-45796Y149345D01*
X-45368Y151500D01*
X-45796Y153655D01*
X-47017Y155483D01*
X-48845Y156704D01*
X-51000Y157132D01*
D02*
G37*
G36*
X112000Y162632D02*
X109845Y162204D01*
X108017Y160983D01*
X106797Y159155D01*
X106368Y157000D01*
X106797Y154845D01*
X108017Y153017D01*
X109845Y151797D01*
X111095Y151548D01*
Y150253D01*
X110844Y150203D01*
X109017Y148982D01*
X107796Y147155D01*
X107368Y145000D01*
X107796Y142844D01*
X109017Y141017D01*
X110844Y139796D01*
X113000Y139368D01*
X115155Y139796D01*
X116982Y141017D01*
X118203Y142844D01*
X118632Y145000D01*
X118203Y147155D01*
X116982Y148982D01*
X115155Y150203D01*
X113905Y150452D01*
Y151747D01*
X114155Y151797D01*
X115983Y153017D01*
X117204Y154845D01*
X117632Y157000D01*
X117204Y159155D01*
X115983Y160983D01*
X114155Y162204D01*
X112000Y162632D01*
D02*
G37*
G36*
X-12230Y172382D02*
X-14385Y171954D01*
X-16213Y170733D01*
X-17434Y168905D01*
X-17862Y166750D01*
X-17434Y164595D01*
X-16213Y162767D01*
X-14385Y161546D01*
X-12230Y161118D01*
X-10075Y161546D01*
X-8247Y162767D01*
X-7027Y164595D01*
X-6598Y166750D01*
X-7027Y168905D01*
X-8247Y170733D01*
X-10075Y171954D01*
X-12230Y172382D01*
D02*
G37*
G36*
X48000Y143132D02*
X45845Y142704D01*
X44017Y141483D01*
X42797Y139655D01*
X42368Y137500D01*
X42797Y135345D01*
X44017Y133517D01*
X45845Y132296D01*
X48000Y131868D01*
X50155Y132296D01*
X51983Y133517D01*
X53204Y135345D01*
X53632Y137500D01*
X53204Y139655D01*
X51983Y141483D01*
X50155Y142704D01*
X48000Y143132D01*
D02*
G37*
G36*
X-5000Y213132D02*
X-7155Y212703D01*
X-8983Y211483D01*
X-10203Y209655D01*
X-10632Y207500D01*
X-10203Y205345D01*
X-8983Y203517D01*
X-7155Y202297D01*
X-5000Y201868D01*
X-2845Y202297D01*
X-1017Y203517D01*
X203Y205345D01*
X632Y207500D01*
X203Y209655D01*
X-1017Y211483D01*
X-2845Y212703D01*
X-5000Y213132D01*
D02*
G37*
G36*
X90500Y118132D02*
X88345Y117704D01*
X86517Y116483D01*
X85296Y114655D01*
X84868Y112500D01*
X85296Y110345D01*
X86517Y108517D01*
X88345Y107296D01*
X90500Y106868D01*
X92655Y107296D01*
X94483Y108517D01*
X95703Y110345D01*
X96132Y112500D01*
X95703Y114655D01*
X94483Y116483D01*
X92655Y117704D01*
X90500Y118132D01*
D02*
G37*
G36*
X10000Y223132D02*
X7845Y222703D01*
X6017Y221483D01*
X4796Y219655D01*
X4368Y217500D01*
X4796Y215345D01*
X6017Y213517D01*
X7845Y212297D01*
X10000Y211868D01*
X12155Y212297D01*
X13983Y213517D01*
X15203Y215345D01*
X15632Y217500D01*
X15203Y219655D01*
X13983Y221483D01*
X12155Y222703D01*
X10000Y223132D01*
D02*
G37*
G36*
X-122500D02*
X-124655Y222703D01*
X-126483Y221483D01*
X-127704Y219655D01*
X-128132Y217500D01*
X-127704Y215345D01*
X-126483Y213517D01*
X-124655Y212297D01*
X-122500Y211868D01*
X-120345Y212297D01*
X-118517Y213517D01*
X-117296Y215345D01*
X-116868Y217500D01*
X-117296Y219655D01*
X-118517Y221483D01*
X-120345Y222703D01*
X-122500Y223132D01*
D02*
G37*
G36*
X5500Y130632D02*
X3345Y130204D01*
X1517Y128983D01*
X297Y127155D01*
X-132Y125000D01*
X297Y122845D01*
X1517Y121017D01*
X3345Y119796D01*
X5500Y119368D01*
X7655Y119796D01*
X9483Y121017D01*
X10704Y122845D01*
X11132Y125000D01*
X10704Y127155D01*
X9483Y128983D01*
X7655Y130204D01*
X5500Y130632D01*
D02*
G37*
G36*
X-26000Y201632D02*
X-28155Y201203D01*
X-29983Y199983D01*
X-31203Y198155D01*
X-31632Y196000D01*
X-31203Y193845D01*
X-29983Y192017D01*
X-28155Y190797D01*
X-26000Y190368D01*
X-23845Y190797D01*
X-22017Y192017D01*
X-20796Y193845D01*
X-20368Y196000D01*
X-20796Y198155D01*
X-22017Y199983D01*
X-23845Y201203D01*
X-26000Y201632D01*
D02*
G37*
G36*
X-15000Y120632D02*
X-17155Y120204D01*
X-18983Y118983D01*
X-20203Y117155D01*
X-20632Y115000D01*
X-20203Y112845D01*
X-18983Y111017D01*
X-17155Y109796D01*
X-15000Y109368D01*
X-12845Y109796D01*
X-11017Y111017D01*
X-9797Y112845D01*
X-9368Y115000D01*
X-9797Y117155D01*
X-11017Y118983D01*
X-12845Y120204D01*
X-15000Y120632D01*
D02*
G37*
G36*
X30000Y210632D02*
X27845Y210203D01*
X26017Y208983D01*
X24797Y207155D01*
X24368Y205000D01*
X24797Y202845D01*
X26017Y201017D01*
X27845Y199797D01*
X30000Y199368D01*
X32155Y199797D01*
X33983Y201017D01*
X35203Y202845D01*
X35632Y205000D01*
X35203Y207155D01*
X33983Y208983D01*
X32155Y210203D01*
X30000Y210632D01*
D02*
G37*
%LPD*%
D12*
X-450000Y350000D02*
X-295000D01*
X-275000Y330000D01*
X318500Y129500D02*
X402420D01*
X457500Y74420D01*
X183350Y194690D02*
X343530Y34510D01*
Y8087D02*
Y34510D01*
X99530Y179450D02*
X119850Y199770D01*
X185890D01*
X348174Y9190D02*
Y37486D01*
X185890Y199770D02*
X348174Y37486D01*
X353610Y39670D02*
X384170D01*
X188430Y204850D02*
X353610Y39670D01*
X348174Y9190D02*
X358334Y-970D01*
X343530Y8087D02*
X362747Y-11130D01*
X358334Y-970D02*
X384170D01*
X362747Y-11130D02*
X384170D01*
X353174Y47290D02*
X386158D01*
X190534Y209930D02*
X353174Y47290D01*
X352738Y54910D02*
X384170D01*
X192638Y215010D02*
X352738Y54910D01*
X349763Y65070D02*
X384170D01*
X194743Y220090D02*
X349763Y65070D01*
X222830Y225170D02*
X318500Y129500D01*
X119850Y225170D02*
X222830D01*
X457500Y-47500D02*
Y74420D01*
X-275000Y282500D02*
Y330000D01*
Y282500D02*
X-252500Y260000D01*
X-87500D01*
X-55000Y227500D01*
X-30000D01*
X86830Y189610D02*
X99530D01*
X86830Y215010D02*
X192638D01*
X-2070Y230250D02*
Y232790D01*
X3010Y237870D01*
X13170Y230250D02*
X20790D01*
X114770Y240410D02*
X117310Y237870D01*
Y227710D02*
Y237870D01*
Y227710D02*
X119850Y225170D01*
X109690Y209930D02*
X190534D01*
X102070Y202310D02*
X109690Y209930D01*
X114770Y204850D02*
X188430D01*
X99530Y189610D02*
X114770Y204850D01*
X94450Y202310D02*
X102070D01*
X23330Y237870D02*
X81750Y179450D01*
X3010Y237870D02*
X23330D01*
X81750Y179450D02*
X99530D01*
X122390Y194690D02*
X183350D01*
X102070Y174370D02*
X122390Y194690D01*
X76670Y174370D02*
X102070D01*
X20790Y230250D02*
X76670Y174370D01*
X106860Y169000D02*
X112230Y174370D01*
X386158Y47290D02*
X388088Y49220D01*
X394330Y26970D02*
Y47290D01*
X392400Y49220D02*
X394330Y47290D01*
X388088Y49220D02*
X392400D01*
X384170Y21890D02*
X389250D01*
X394330Y26970D01*
X102070Y220090D02*
X194743D01*
X86830Y240410D02*
X114770D01*
X94450Y227710D02*
X102070Y220090D01*
X-37500Y-105000D02*
X-7500Y-75000D01*
X55000D01*
X65000Y-85000D01*
X2500Y-100000D02*
X17500D01*
X-50800Y-114300D02*
X-26800D01*
X-24500Y-127000D02*
X2500Y-100000D01*
X-63500Y-127000D02*
X-24500D01*
X47500Y-82500D02*
X52500Y-87500D01*
X-26800Y-114300D02*
X5000Y-82500D01*
X47500D01*
X14000Y169000D02*
X106860D01*
D13*
X250000Y355000D02*
Y387500D01*
X237500Y342500D02*
X250000Y355000D01*
X85000Y342500D02*
X237500D01*
X75000Y332500D02*
X85000Y342500D01*
X70000Y263000D02*
X75000Y268000D01*
Y332500D01*
X206750Y-65250D02*
Y-29250D01*
X180000Y-125000D02*
Y-92000D01*
X287500Y-125000D02*
Y-92000D01*
X314250Y-65250D02*
Y-29250D01*
X192000Y-80000D02*
X206750Y-65250D01*
X287500Y-92000D02*
X299500Y-80000D01*
X314250Y-65250D01*
X180000Y-92000D02*
X192000Y-80000D01*
D14*
X12700Y-317500D02*
D03*
X38100D02*
D03*
X63500D02*
D03*
X241300D02*
D03*
D16*
X495250Y188500D02*
D03*
Y138500D02*
D03*
D17*
X522250Y128500D02*
D03*
Y198500D02*
D03*
D18*
X-20000Y387500D02*
D03*
X-42500Y332500D02*
D03*
X67500Y325000D02*
D03*
X-7500Y347500D02*
D03*
X504000Y317250D02*
D03*
X517500Y-500D02*
D03*
X485500D02*
D03*
X-502000Y0D02*
D03*
X-433000Y127000D02*
D03*
X-450000Y350000D02*
D03*
X451250Y340500D02*
D03*
X-451250Y223750D02*
D03*
X463250Y242250D02*
D03*
X-288250Y312000D02*
D03*
X478500Y131100D02*
D03*
X491500Y259750D02*
D03*
Y277250D02*
D03*
Y317250D02*
D03*
X504000Y242250D02*
D03*
X-504000Y322000D02*
D03*
Y247000D02*
D03*
X-491500D02*
D03*
Y287000D02*
D03*
Y304500D02*
D03*
X472500Y430500D02*
D03*
X504500D02*
D03*
X412500D02*
D03*
X444500D02*
D03*
X352500D02*
D03*
X384500D02*
D03*
X292500D02*
D03*
X324500D02*
D03*
X232500D02*
D03*
X264500D02*
D03*
X172500D02*
D03*
X204500D02*
D03*
X112500D02*
D03*
X144500D02*
D03*
X52500D02*
D03*
X84500D02*
D03*
X-7500D02*
D03*
X24500D02*
D03*
X-67500D02*
D03*
X-35500D02*
D03*
X-127500D02*
D03*
X-95500D02*
D03*
X-187500D02*
D03*
X-155500D02*
D03*
X-247500D02*
D03*
X-215500D02*
D03*
X-307500D02*
D03*
X-275500D02*
D03*
X-367500D02*
D03*
X-335500D02*
D03*
X-427500D02*
D03*
X-395500D02*
D03*
X-455500D02*
D03*
X-487500D02*
D03*
X368500Y116600D02*
D03*
X518000D02*
D03*
Y-43300D02*
D03*
X453190Y220090D02*
D03*
X448250Y242250D02*
D03*
X-290000Y-97500D02*
D03*
X-75000Y-115000D02*
D03*
X-152500Y227500D02*
D03*
X-30000D02*
D03*
X-110000Y230000D02*
D03*
X-295000Y-80000D02*
D03*
X-312500Y-110000D02*
D03*
X-172500Y-80000D02*
D03*
X457500Y-47500D02*
D03*
X383500D02*
D03*
X352500Y-26400D02*
D03*
X287500Y-125000D02*
D03*
X325000D02*
D03*
X180000D02*
D03*
X217500D02*
D03*
X-390000D02*
D03*
X-137500D02*
D03*
X-257500D02*
D03*
X-180000Y-113500D02*
D03*
X-330000Y128000D02*
D03*
X-218500Y35750D02*
D03*
Y69750D02*
D03*
X-407000Y155000D02*
D03*
X-433000Y114500D02*
D03*
X86830Y189610D02*
D03*
Y215010D02*
D03*
X-2070Y230250D02*
D03*
X13170D02*
D03*
X94450Y202310D02*
D03*
X112230Y174370D02*
D03*
X384170Y-11130D02*
D03*
Y-970D02*
D03*
Y39670D02*
D03*
Y54910D02*
D03*
Y21890D02*
D03*
Y65070D02*
D03*
X427790Y183090D02*
D03*
X462750Y144490D02*
D03*
X356500Y11100D02*
D03*
X331000Y18600D02*
D03*
X311000D02*
D03*
X348250Y292250D02*
D03*
X328250D02*
D03*
X308250D02*
D03*
X288250D02*
D03*
X328250Y252250D02*
D03*
X-328250Y272000D02*
D03*
Y292000D02*
D03*
X-308250D02*
D03*
Y272000D02*
D03*
Y252000D02*
D03*
X-328250D02*
D03*
X-348250Y272000D02*
D03*
Y252000D02*
D03*
Y292000D02*
D03*
X-328250Y312000D02*
D03*
X-348250D02*
D03*
X-308250D02*
D03*
X-288250Y292000D02*
D03*
Y272000D02*
D03*
Y252000D02*
D03*
X348250Y252250D02*
D03*
Y312250D02*
D03*
X328250D02*
D03*
X288250D02*
D03*
X308250D02*
D03*
X288250Y252250D02*
D03*
X308250D02*
D03*
X-60500Y128500D02*
D03*
X-51000Y248500D02*
D03*
X51000Y151500D02*
D03*
X78000Y42500D02*
D03*
X-463250Y322000D02*
D03*
X-448250D02*
D03*
X106000Y67000D02*
D03*
X190750Y-29250D02*
D03*
X206750D02*
D03*
X314250D02*
D03*
X298250D02*
D03*
X-172500Y242500D02*
D03*
X132550Y239150D02*
D03*
X-100500Y66500D02*
D03*
X-252000Y32000D02*
D03*
X348250Y272250D02*
D03*
X328250D02*
D03*
X308250D02*
D03*
X288250D02*
D03*
X386500Y211000D02*
D03*
X160000Y182000D02*
D03*
X70000Y263000D02*
D03*
X86830Y240410D02*
D03*
X373000Y144000D02*
D03*
X94450Y227710D02*
D03*
X27500Y-115000D02*
D03*
X-37500Y-105000D02*
D03*
X65000Y-85000D02*
D03*
X17500Y-100000D02*
D03*
X-361500Y65000D02*
D03*
X-370000Y7500D02*
D03*
X-302500D02*
D03*
X-302000Y25000D02*
D03*
X-63500Y-127000D02*
D03*
X-50800Y-114300D02*
D03*
X52500Y-87500D02*
D03*
X-406400Y55880D02*
D03*
Y35560D02*
D03*
X-30000Y-224000D02*
D03*
X-527000Y-11000D02*
D03*
X14000Y169000D02*
D03*
D19*
X-300500Y83250D02*
D03*
X-311500D02*
D03*
X-300500Y72250D02*
D03*
X-311500D02*
D03*
X-300500Y61250D02*
D03*
X-311500D02*
D03*
D20*
X-23500Y391000D02*
X-20000Y387500D01*
X-23500Y391000D02*
Y414500D01*
X-450000Y25000D02*
Y200000D01*
X-475000Y0D02*
X-450000Y25000D01*
X-502000Y0D02*
X-475000D01*
X-290000Y-97500D02*
Y-93500D01*
X-434500Y322000D02*
X-425000Y312500D01*
X-448250Y322000D02*
X-434500D01*
X452500Y-80000D02*
X482500Y-50000D01*
Y-27500D01*
X500000Y-10000D01*
Y52500D01*
X299500Y-80000D02*
X452500D01*
X517500Y-500D02*
Y70616D01*
X386500Y166000D02*
X500000Y52500D01*
X386500Y166000D02*
Y211000D01*
X445000Y143116D02*
X517500Y70616D01*
X445000Y143116D02*
Y195000D01*
X432500Y207500D02*
X445000Y195000D01*
X432500Y207500D02*
Y232500D01*
X442250Y242250D01*
X448250D01*
X-487500Y430500D02*
X-471500Y414500D01*
X-477500Y297500D02*
X-470000Y290000D01*
X-477500Y297500D02*
Y408500D01*
X-470000Y220000D02*
Y290000D01*
Y220000D02*
X-450000Y200000D01*
X-420000Y-190000D02*
Y-100000D01*
X-390000Y-70000D01*
X-420000Y-190000D02*
X-382500Y-227500D01*
X-95000D01*
X-477500Y408500D02*
X-471500Y414500D01*
X463250Y242250D02*
X468250D01*
X448250D02*
X463250D01*
X456500Y414500D02*
X473250Y397750D01*
Y247250D02*
Y397750D01*
X468250Y242250D02*
X473250Y247250D01*
X396500Y414500D02*
X412500Y430500D01*
X428500Y414500D01*
X412500Y430500D02*
X412500D01*
X428500Y414500D02*
X456500D01*
X472500Y430500D01*
X352500D02*
X368500Y414500D01*
X396500D01*
X232500Y430500D02*
X232500Y430500D01*
X216500Y414500D02*
X232500Y430500D01*
X292500Y430500D02*
X308500Y414500D01*
X336500D01*
X352500Y430500D01*
X232500Y430500D02*
X248500Y414500D01*
X232500Y430500D02*
X232500Y430500D01*
X248500Y414500D02*
X276500D01*
X292500Y430500D01*
X172500D02*
X188500Y414500D01*
X216500D01*
X112500Y430500D02*
X128500Y414500D01*
X156500D01*
X172500Y430500D01*
X52500D02*
X68500Y414500D01*
X96500D01*
X112500Y430500D01*
X-7500D02*
X8500Y414500D01*
X36500D01*
X52500Y430500D01*
X-67500D02*
X-51500Y414500D01*
X-23500D01*
X-7500Y430500D01*
X-127500D02*
X-111500Y414500D01*
X-83500D01*
X-67500Y430500D01*
X-187500D02*
X-171500Y414500D01*
X-143500D01*
X-127500Y430500D01*
X-247500D02*
X-231500Y414500D01*
X-203500D01*
X-187500Y430500D01*
X-307500D02*
X-291500Y414500D01*
X-263500D01*
X-247500Y430500D01*
X-367500D02*
X-351500Y414500D01*
X-323500D01*
X-307500Y430500D01*
X-427500D02*
X-411500Y414500D01*
X-383500D01*
X-367500Y430500D01*
X-443500Y414500D02*
X-427500Y430500D01*
X-471500Y414500D02*
X-443500D01*
X-252000Y-55500D02*
Y32000D01*
X-80000Y-120000D02*
X-75000Y-115000D01*
X-80000Y-212500D02*
Y-120000D01*
X-95000Y-227500D02*
X-80000Y-212500D01*
X-463250Y322000D02*
X-448250D01*
X-235000Y227500D02*
X-152500D01*
X-252000Y210500D02*
X-235000Y227500D01*
X-252000Y32000D02*
Y210500D01*
X192000Y-80000D02*
X299500D01*
X155000D02*
X192000D01*
X-142500Y-97500D02*
X-105000Y-60000D01*
X135000D01*
X155000Y-80000D01*
X-390000Y-70000D02*
Y167500D01*
X-425000Y202500D02*
Y312500D01*
Y202500D02*
X-390000Y167500D01*
X-210000Y-97500D02*
X-142500D01*
X-290000Y-93500D02*
X-252000Y-55500D01*
X-210000Y-97500D01*
D21*
X-361500Y16000D02*
Y65000D01*
X-370000Y7500D02*
X-361500Y16000D01*
X331000Y18600D02*
Y27000D01*
X320500Y37500D02*
X331000Y27000D01*
X120000Y37500D02*
X320500D01*
X-172500Y-80000D02*
Y35000D01*
X-141000Y66500D01*
X-100500D01*
X106000Y51500D02*
Y67000D01*
Y51500D02*
X120000Y37500D01*
M02*
