G04 Layer_Color=8421504*
%FSLAX44Y44*%
%MOMM*%
G71*
G01*
G75*
%ADD10R,0.9000X1.5000*%
%ADD11R,0.5500X0.9500*%
D10*
X463500Y365500D02*
D03*
X496500D02*
D03*
Y414500D02*
D03*
X463500D02*
D03*
X403500Y365500D02*
D03*
X436500D02*
D03*
Y414500D02*
D03*
X403500D02*
D03*
X343500D02*
D03*
X376500D02*
D03*
Y365500D02*
D03*
X343500D02*
D03*
X283500Y414500D02*
D03*
X316500D02*
D03*
Y365500D02*
D03*
X283500D02*
D03*
X223500Y414500D02*
D03*
X256500D02*
D03*
Y365500D02*
D03*
X223500D02*
D03*
X163500Y414500D02*
D03*
X196500D02*
D03*
Y365500D02*
D03*
X163500D02*
D03*
X103500Y414500D02*
D03*
X136500D02*
D03*
Y365500D02*
D03*
X103500D02*
D03*
X43500Y414500D02*
D03*
X76500D02*
D03*
Y365500D02*
D03*
X43500D02*
D03*
X-16500Y414500D02*
D03*
X16500D02*
D03*
Y365500D02*
D03*
X-16500D02*
D03*
X-76500Y414500D02*
D03*
X-43500D02*
D03*
Y365500D02*
D03*
X-76500D02*
D03*
X-136500Y414500D02*
D03*
X-103500D02*
D03*
Y365500D02*
D03*
X-136500D02*
D03*
X-196500Y414500D02*
D03*
X-163500D02*
D03*
Y365500D02*
D03*
X-196500D02*
D03*
X-256500Y414500D02*
D03*
X-223500D02*
D03*
Y365500D02*
D03*
X-256500D02*
D03*
X-316500Y414500D02*
D03*
X-283500D02*
D03*
Y365500D02*
D03*
X-316500D02*
D03*
X-376500Y414500D02*
D03*
X-343500D02*
D03*
Y365500D02*
D03*
X-376500D02*
D03*
X-436500Y414500D02*
D03*
X-403500D02*
D03*
Y365500D02*
D03*
X-436500D02*
D03*
X-496500Y414500D02*
D03*
X-463500D02*
D03*
Y365500D02*
D03*
X-496500D02*
D03*
X-493500Y64500D02*
D03*
X-526500D02*
D03*
Y15500D02*
D03*
X-493500D02*
D03*
X526500Y64500D02*
D03*
X493500D02*
D03*
Y15500D02*
D03*
X526500D02*
D03*
D11*
X496500Y430500D02*
D03*
X480500D02*
D03*
X436500D02*
D03*
X420500D02*
D03*
X360500D02*
D03*
X376500D02*
D03*
X300500D02*
D03*
X316500D02*
D03*
X240500D02*
D03*
X256500D02*
D03*
X180500D02*
D03*
X196500D02*
D03*
X120500D02*
D03*
X136500D02*
D03*
X60500D02*
D03*
X76500D02*
D03*
X500D02*
D03*
X16500D02*
D03*
X-59500D02*
D03*
X-43500D02*
D03*
X-119500D02*
D03*
X-103500D02*
D03*
X-179500D02*
D03*
X-163500D02*
D03*
X-239500D02*
D03*
X-223500D02*
D03*
X-299500D02*
D03*
X-283500D02*
D03*
X-359500D02*
D03*
X-343500D02*
D03*
X-419500D02*
D03*
X-403500D02*
D03*
X-479500D02*
D03*
X-463500D02*
D03*
X493500Y-500D02*
D03*
X509500D02*
D03*
X-526500D02*
D03*
X-510500D02*
D03*
M02*
