G04 Layer_Color=128*
%FSLAX44Y44*%
%MOMM*%
G71*
G01*
G75*
%ADD11R,0.5500X0.9500*%
%ADD32R,1.6000X2.2000*%
%ADD33R,0.7000X1.8000*%
%ADD34R,1.9000X1.0000*%
%ADD35R,1.3500X0.4000*%
%ADD36R,1.5000X0.8000*%
%ADD37R,1.3000X1.2900*%
%ADD38R,1.3000X1.6000*%
%ADD39R,1.5000X1.7000*%
%ADD40R,1.7000X1.5000*%
%ADD41R,1.8000X0.7000*%
%ADD42R,2.2000X1.6000*%
%ADD43R,0.4000X2.1000*%
%ADD44R,0.9500X0.5500*%
%ADD45R,0.9500X0.5000*%
%ADD46R,0.6000X2.2000*%
%ADD47R,0.5000X0.9500*%
%ADD48R,0.6000X1.1000*%
%ADD49R,0.6000X1.0500*%
%ADD50R,0.9000X0.9000*%
%ADD51R,0.7500X1.3000*%
%ADD52R,0.4000X0.6000*%
%ADD53R,1.0000X1.0000*%
%ADD54R,0.6500X1.0500*%
%ADD55R,0.9500X2.8000*%
%ADD56R,1.3000X1.8000*%
%ADD57R,9.1000X10.0500*%
%ADD58R,4.1500X1.0000*%
%ADD59R,1.5500X0.9500*%
%ADD60R,0.7000X1.4000*%
%ADD61R,1.0500X0.6000*%
%ADD62R,0.8000X0.6500*%
%ADD63O,0.3000X1.8000*%
%ADD64O,1.8000X0.3000*%
%ADD65R,1.0500X0.6500*%
%ADD66R,1.3000X1.9000*%
%ADD67R,0.9000X1.0500*%
%ADD68O,1.7000X0.3500*%
%ADD69R,2.4000X3.4000*%
%ADD70R,0.9500X1.5500*%
%ADD71R,1.0000X1.1000*%
%ADD72R,1.5000X0.5500*%
%ADD73R,1.0000X1.0000*%
%ADD74R,0.5500X1.5000*%
%ADD75R,0.7500X1.4500*%
D11*
X205000Y141000D02*
D03*
X189000D02*
D03*
X314250Y-38750D02*
D03*
X298250D02*
D03*
X206750D02*
D03*
X190750D02*
D03*
X320500Y18600D02*
D03*
X336500D02*
D03*
X101000Y272000D02*
D03*
X85000D02*
D03*
X-98500Y217500D02*
D03*
X-82500D02*
D03*
Y242500D02*
D03*
X-98500D02*
D03*
Y261500D02*
D03*
X-82500D02*
D03*
X-149500Y242500D02*
D03*
X-165500D02*
D03*
X-237000Y78750D02*
D03*
X-253000D02*
D03*
X-237000Y95000D02*
D03*
X-253000D02*
D03*
X-312000Y25000D02*
D03*
X-328000D02*
D03*
D32*
X265500Y-173000D02*
D03*
X347000D02*
D03*
X158000D02*
D03*
X239500D02*
D03*
X-305500D02*
D03*
X-412000D02*
D03*
X-279500D02*
D03*
X-185500D02*
D03*
X-53000D02*
D03*
X-159500D02*
D03*
X5500D02*
D03*
X99500D02*
D03*
D33*
X325000Y-140000D02*
D03*
X312500D02*
D03*
X300000D02*
D03*
X287500D02*
D03*
X217500D02*
D03*
X205000D02*
D03*
X192500D02*
D03*
X180000D02*
D03*
X-377500D02*
D03*
X-365000D02*
D03*
X-352500D02*
D03*
X-340000D02*
D03*
X-327500D02*
D03*
X-390000D02*
D03*
X-207500D02*
D03*
X-220000D02*
D03*
X-232500D02*
D03*
X-245000D02*
D03*
X-257500D02*
D03*
X-125000D02*
D03*
X-112500D02*
D03*
X-100000D02*
D03*
X-87500D02*
D03*
X-75000D02*
D03*
X-137500D02*
D03*
X77500D02*
D03*
X65000D02*
D03*
X52500D02*
D03*
X40000D02*
D03*
X27500D02*
D03*
D34*
X522250Y134750D02*
D03*
Y192250D02*
D03*
D35*
X495250Y176500D02*
D03*
Y170000D02*
D03*
Y163500D02*
D03*
Y157000D02*
D03*
Y150500D02*
D03*
D36*
X368500Y-10900D02*
D03*
Y100D02*
D03*
Y11100D02*
D03*
Y22100D02*
D03*
Y33100D02*
D03*
Y44100D02*
D03*
Y55100D02*
D03*
Y66100D02*
D03*
D37*
X383500Y-32500D02*
D03*
X457500D02*
D03*
D38*
X367500Y-26400D02*
D03*
D39*
X368500Y101600D02*
D03*
D40*
X518000D02*
D03*
Y-28300D02*
D03*
D41*
X132550Y179650D02*
D03*
Y192150D02*
D03*
Y204650D02*
D03*
Y217150D02*
D03*
Y229650D02*
D03*
Y167150D02*
D03*
X-416000Y89500D02*
D03*
Y102000D02*
D03*
Y114500D02*
D03*
Y127000D02*
D03*
Y139500D02*
D03*
D42*
X165550Y251650D02*
D03*
Y145150D02*
D03*
X-449000Y161500D02*
D03*
Y67500D02*
D03*
D43*
X27000Y102000D02*
D03*
X15000D02*
D03*
X3000D02*
D03*
D44*
X342500Y-138000D02*
D03*
Y-122000D02*
D03*
X235000Y-138000D02*
D03*
Y-122000D02*
D03*
X453190Y196850D02*
D03*
Y212850D02*
D03*
X-35000Y339500D02*
D03*
Y355500D02*
D03*
X-50000Y339500D02*
D03*
Y355500D02*
D03*
X60500Y247000D02*
D03*
Y263000D02*
D03*
X-60500Y263000D02*
D03*
Y247000D02*
D03*
X60500Y137000D02*
D03*
Y153000D02*
D03*
X-60500Y153000D02*
D03*
Y137000D02*
D03*
X-53500Y94000D02*
D03*
Y78000D02*
D03*
D45*
X342500Y-95000D02*
D03*
Y-110000D02*
D03*
X270000Y-123000D02*
D03*
Y-138000D02*
D03*
X270000Y-95000D02*
D03*
Y-110000D02*
D03*
X235000Y-95000D02*
D03*
Y-110000D02*
D03*
X162500Y-123000D02*
D03*
Y-138000D02*
D03*
X162500Y-95000D02*
D03*
Y-110000D02*
D03*
X451250Y331250D02*
D03*
Y316250D02*
D03*
X-451250Y233000D02*
D03*
Y248000D02*
D03*
X127000Y76500D02*
D03*
Y91500D02*
D03*
X106000D02*
D03*
Y76500D02*
D03*
X78000Y50000D02*
D03*
Y65000D02*
D03*
X-330000Y152500D02*
D03*
Y137500D02*
D03*
X-220000Y-102500D02*
D03*
Y-117500D02*
D03*
X77500Y-115000D02*
D03*
Y-100000D02*
D03*
X65000Y-115000D02*
D03*
Y-100000D02*
D03*
X52500Y-115000D02*
D03*
Y-100000D02*
D03*
X40000Y-115000D02*
D03*
Y-100000D02*
D03*
X-20200Y-209000D02*
D03*
Y-224000D02*
D03*
D46*
X179700Y-59750D02*
D03*
X192400D02*
D03*
X205100D02*
D03*
X217800D02*
D03*
X179700Y-107750D02*
D03*
X192400D02*
D03*
X205100D02*
D03*
X217800D02*
D03*
X287200Y-59750D02*
D03*
X299900D02*
D03*
X312600D02*
D03*
X325300D02*
D03*
X287200Y-107750D02*
D03*
X299900D02*
D03*
X312600D02*
D03*
X325300D02*
D03*
D47*
X321000Y-11400D02*
D03*
X336000D02*
D03*
X321000Y3600D02*
D03*
X336000D02*
D03*
X321000Y33600D02*
D03*
X336000D02*
D03*
X321000Y48600D02*
D03*
X336000D02*
D03*
X321000Y63600D02*
D03*
X336000D02*
D03*
X-237500Y111250D02*
D03*
X-252500D02*
D03*
X-342500Y7500D02*
D03*
X-357500D02*
D03*
X-312500D02*
D03*
X-327500D02*
D03*
X-344750Y140500D02*
D03*
X-359750D02*
D03*
X-320000Y-80000D02*
D03*
X-305000D02*
D03*
X-182500Y-80000D02*
D03*
X-197500D02*
D03*
X-5200Y-285000D02*
D03*
X-20200D02*
D03*
D48*
X472250Y154250D02*
D03*
X462750D02*
D03*
X453250D02*
D03*
Y179250D02*
D03*
X462750D02*
D03*
X472250D02*
D03*
D49*
X437290Y192850D02*
D03*
X427790D02*
D03*
X418290D02*
D03*
Y216850D02*
D03*
X437290D02*
D03*
X-303000Y-122000D02*
D03*
X-312500D02*
D03*
X-322000D02*
D03*
Y-98000D02*
D03*
X-303000D02*
D03*
X-22200Y-266000D02*
D03*
X-3200D02*
D03*
Y-242000D02*
D03*
X-12700D02*
D03*
X-22200D02*
D03*
D50*
X432750Y172750D02*
D03*
X404750D02*
D03*
Y160750D02*
D03*
X432750D02*
D03*
D51*
X404500Y144000D02*
D03*
X382500D02*
D03*
D52*
X380110Y171830D02*
D03*
X389110D02*
D03*
X380110Y161670D02*
D03*
X389110D02*
D03*
D53*
X399850Y198600D02*
D03*
Y211100D02*
D03*
X78000Y88750D02*
D03*
Y76250D02*
D03*
D54*
X494500Y242000D02*
D03*
X477500D02*
D03*
X-494500Y322250D02*
D03*
X-477500D02*
D03*
X79000Y120000D02*
D03*
X62000D02*
D03*
X79000Y105000D02*
D03*
X62000D02*
D03*
X-85000Y96000D02*
D03*
X-102000D02*
D03*
X-84700Y-298450D02*
D03*
X-67700D02*
D03*
X-135500D02*
D03*
X-118500D02*
D03*
X-186300D02*
D03*
X-169300D02*
D03*
X-237100D02*
D03*
X-220100D02*
D03*
D55*
X502750Y270000D02*
D03*
X469250D02*
D03*
X-502750Y294250D02*
D03*
X-469250D02*
D03*
X-252000Y52750D02*
D03*
X-218500D02*
D03*
X-361500Y46250D02*
D03*
X-395000D02*
D03*
D56*
X500000Y299000D02*
D03*
X472000D02*
D03*
X-500000Y265250D02*
D03*
X-472000D02*
D03*
D57*
X318250Y282250D02*
D03*
X-318250Y282000D02*
D03*
D58*
X418250Y248250D02*
D03*
Y265250D02*
D03*
Y282250D02*
D03*
Y299250D02*
D03*
Y316250D02*
D03*
X-418250Y316000D02*
D03*
Y299000D02*
D03*
Y282000D02*
D03*
Y265000D02*
D03*
Y248000D02*
D03*
D59*
X67500Y335750D02*
D03*
Y359250D02*
D03*
D60*
X44500Y335000D02*
D03*
X25500D02*
D03*
X44500Y355000D02*
D03*
X25500D02*
D03*
X-17000Y372500D02*
D03*
X2000D02*
D03*
D61*
X-19500Y357000D02*
D03*
Y338000D02*
D03*
X4500D02*
D03*
Y347500D02*
D03*
Y357000D02*
D03*
X-136000Y242500D02*
D03*
Y252000D02*
D03*
Y261500D02*
D03*
X-112000D02*
D03*
Y242500D02*
D03*
D62*
X49500Y372500D02*
D03*
X15500D02*
D03*
D63*
X37500Y144500D02*
D03*
X32500D02*
D03*
X27500D02*
D03*
X22500D02*
D03*
X17500D02*
D03*
X12500D02*
D03*
X7500D02*
D03*
X2500D02*
D03*
X-2500D02*
D03*
X-7500D02*
D03*
X-12500D02*
D03*
X-17500D02*
D03*
X-22500D02*
D03*
X-27500D02*
D03*
X-32500D02*
D03*
X-37500D02*
D03*
Y255500D02*
D03*
X-32500D02*
D03*
X-27500D02*
D03*
X-22500D02*
D03*
X-17500D02*
D03*
X-12500D02*
D03*
X-7500D02*
D03*
X-2500D02*
D03*
X2500D02*
D03*
X7500D02*
D03*
X12500D02*
D03*
X17500D02*
D03*
X22500D02*
D03*
X27500D02*
D03*
X32500D02*
D03*
X37500D02*
D03*
D64*
X-55500Y162500D02*
D03*
Y167500D02*
D03*
Y172500D02*
D03*
Y177500D02*
D03*
Y182500D02*
D03*
Y187500D02*
D03*
Y192500D02*
D03*
Y197500D02*
D03*
Y202500D02*
D03*
Y207500D02*
D03*
Y212500D02*
D03*
Y217500D02*
D03*
Y222500D02*
D03*
Y227500D02*
D03*
Y232500D02*
D03*
Y237500D02*
D03*
X55500D02*
D03*
Y232500D02*
D03*
Y227500D02*
D03*
Y222500D02*
D03*
Y217500D02*
D03*
Y212500D02*
D03*
Y207500D02*
D03*
Y202500D02*
D03*
Y197500D02*
D03*
Y192500D02*
D03*
Y187500D02*
D03*
Y182500D02*
D03*
Y177500D02*
D03*
Y172500D02*
D03*
Y167500D02*
D03*
Y162500D02*
D03*
D65*
X48500Y35000D02*
D03*
Y18000D02*
D03*
Y70000D02*
D03*
Y53000D02*
D03*
X-68500Y94500D02*
D03*
Y77500D02*
D03*
D66*
X25500Y28000D02*
D03*
X-29500D02*
D03*
Y60000D02*
D03*
X25500D02*
D03*
D67*
X-100500Y76000D02*
D03*
X-86500D02*
D03*
D68*
X-277500Y101500D02*
D03*
Y95000D02*
D03*
Y88500D02*
D03*
Y82000D02*
D03*
Y75500D02*
D03*
Y69000D02*
D03*
Y62500D02*
D03*
Y56000D02*
D03*
Y49500D02*
D03*
Y43000D02*
D03*
X-334500Y101500D02*
D03*
Y95000D02*
D03*
Y88500D02*
D03*
Y82000D02*
D03*
Y75500D02*
D03*
Y69000D02*
D03*
Y62500D02*
D03*
Y56000D02*
D03*
Y49500D02*
D03*
Y43000D02*
D03*
D69*
X-306000Y72250D02*
D03*
D70*
X-317750Y117250D02*
D03*
X-294250D02*
D03*
D71*
X-362750Y75500D02*
D03*
X-393750D02*
D03*
X-362750Y98250D02*
D03*
X-393750D02*
D03*
X-362750Y121000D02*
D03*
X-393750D02*
D03*
D72*
X-361750Y157000D02*
D03*
Y176000D02*
D03*
X-342750Y166500D02*
D03*
D73*
X-390000Y140000D02*
D03*
X-377500D02*
D03*
X-390000Y155000D02*
D03*
X-377500D02*
D03*
D74*
X-190000Y-119500D02*
D03*
X-180500Y-100500D02*
D03*
X-199500D02*
D03*
D75*
X-23450Y-300000D02*
D03*
X-1950D02*
D03*
M02*
