G04 Layer_Color=16711935*
%FSLAX44Y44*%
%MOMM*%
G71*
G01*
G75*
%ADD21C,0.6350*%
D21*
X-544828Y-24728D02*
G03*
X-542000Y-17900I-6829J6829D01*
G01*
X-544828Y-24728D02*
G03*
X-550000Y-37213I12485J-12485D01*
G01*
Y225357D02*
G03*
X-544828Y212871I17657J0D01*
G01*
X-542000Y206043D02*
G03*
X-544828Y212871I-9657J0D01*
G01*
X544828D02*
G03*
X542000Y206043I6829J-6829D01*
G01*
X544828Y212871D02*
G03*
X550000Y225357I-12485J12485D01*
G01*
Y-37213D02*
G03*
X544828Y-24728I-17657J0D01*
G01*
X542000Y-17900D02*
G03*
X544828Y-24728I9657J0D01*
G01*
X-478980Y-341220D02*
G03*
X-457300Y-350200I21680J21680D01*
G01*
X-487500Y-320651D02*
G03*
X-478980Y-341220I29088J0D01*
G01*
X-487500Y-275200D02*
G03*
X-496480Y-253520I-30661J0D01*
G01*
X-550000Y-187300D02*
G03*
X-541020Y-208980I30661J0D01*
G01*
X541020D02*
G03*
X550000Y-187300I-21680J21680D01*
G01*
X496480Y-253520D02*
G03*
X487500Y-275200I21680J-21680D01*
G01*
X478980Y-341220D02*
G03*
X487500Y-320651I-20568J20568D01*
G01*
X457300Y-350200D02*
G03*
X478980Y-341220I0J30661D01*
G01*
X-541020Y418980D02*
G03*
X-550000Y397300I21680J-21680D01*
G01*
X-484800Y462500D02*
G03*
X-506480Y453520I0J-30661D01*
G01*
X506480D02*
G03*
X484800Y462500I-21680J-21680D01*
G01*
X550000Y397300D02*
G03*
X541020Y418980I-30661J0D01*
G01*
X550000Y397300D02*
G03*
X541020Y418980I-30661J0D01*
G01*
X506480Y453520D02*
G03*
X484800Y462500I-21680J-21680D01*
G01*
X-484800D02*
G03*
X-506480Y453520I0J-30661D01*
G01*
X-541020Y418980D02*
G03*
X-550000Y397300I21680J-21680D01*
G01*
X457300Y-350200D02*
G03*
X478980Y-341220I0J30661D01*
G01*
D02*
G03*
X487500Y-320651I-20568J20568D01*
G01*
X496480Y-253520D02*
G03*
X487500Y-275200I21680J-21680D01*
G01*
X541020Y-208980D02*
G03*
X550000Y-187300I-21680J21680D01*
G01*
X-550000D02*
G03*
X-541020Y-208980I30661J0D01*
G01*
X-487500Y-275200D02*
G03*
X-496480Y-253520I-30661J0D01*
G01*
X-487500Y-320651D02*
G03*
X-478980Y-341220I29088J0D01*
G01*
D02*
G03*
X-457300Y-350200I21680J21680D01*
G01*
X542000Y-17900D02*
G03*
X544828Y-24728I9657J0D01*
G01*
X550000Y-37213D02*
G03*
X544828Y-24728I-17657J0D01*
G01*
Y212871D02*
G03*
X550000Y225357I-12485J12485D01*
G01*
X544828Y212871D02*
G03*
X542000Y206043I6829J-6829D01*
G01*
X-542000D02*
G03*
X-544828Y212871I-9657J0D01*
G01*
X-550000Y225357D02*
G03*
X-544828Y212871I17657J0D01*
G01*
Y-24728D02*
G03*
X-550000Y-37213I12485J-12485D01*
G01*
X-544828Y-24728D02*
G03*
X-542000Y-17900I-6829J6829D01*
G01*
X-550000Y227543D02*
Y374800D01*
Y-187300D02*
Y-39400D01*
X-542000Y-17900D02*
Y206043D01*
X-550000Y-39400D02*
Y-37213D01*
Y225357D02*
Y227543D01*
X550000Y225357D02*
Y227543D01*
Y-39400D02*
Y-37213D01*
Y227543D02*
Y374800D01*
X542000Y-17900D02*
Y206043D01*
X-477300Y462500D02*
X-440000D01*
X-450000Y-350200D02*
X450000D01*
X-457300D02*
X-450000D01*
X-487500Y-320651D02*
Y-275200D01*
X-500000Y-250000D02*
X-496480Y-253520D01*
X-541020Y-208980D02*
X-500000Y-250000D01*
X550000Y-187300D02*
Y-162500D01*
X500000Y-250000D02*
X541020Y-208980D01*
X496480Y-253520D02*
X500000Y-250000D01*
X487500Y-320651D02*
Y-275200D01*
X550000Y-162500D02*
Y-39400D01*
X450000Y-350200D02*
X457300D01*
X-550000Y374800D02*
Y397300D01*
X-541020Y418980D02*
X-506480Y453520D01*
X-484800Y462500D02*
X-477300D01*
X477300D02*
X484800D01*
X506480Y453520D02*
X541020Y418980D01*
X550000Y374800D02*
Y397300D01*
X440000Y462500D02*
X477300D01*
X-440000D02*
X440000D01*
X-440000D02*
X440000D01*
X477300D01*
X550000Y374800D02*
Y397300D01*
X506480Y453520D02*
X541020Y418980D01*
X477300Y462500D02*
X484800D01*
X-484800D02*
X-477300D01*
X-541020Y418980D02*
X-506480Y453520D01*
X-550000Y374800D02*
Y397300D01*
X450000Y-350200D02*
X457300D01*
X550000Y-162500D02*
Y-39400D01*
X487500Y-320651D02*
Y-275200D01*
X496480Y-253520D02*
X500000Y-250000D01*
X541020Y-208980D01*
X550000Y-187300D02*
Y-162500D01*
X-541020Y-208980D02*
X-500000Y-250000D01*
X-496480Y-253520D01*
X-487500Y-320651D02*
Y-275200D01*
X-457300Y-350200D02*
X-450000D01*
X450000D01*
X-477300Y462500D02*
X-440000D01*
X542000Y-17900D02*
Y206043D01*
X550000Y227543D02*
Y374800D01*
Y-39400D02*
Y-37213D01*
Y225357D02*
Y227543D01*
X-550000Y225357D02*
Y227543D01*
Y-39400D02*
Y-37213D01*
X-542000Y-17900D02*
Y206043D01*
X-550000Y-187300D02*
Y-39400D01*
Y227543D02*
Y374800D01*
M02*
