M48
;Layer_Color=9474304
;FILE_FORMAT=4:4
METRIC,LZ
;TYPE=PLATED
T1F00S00C0.2000
T2F00S00C0.3000
T4F00S00C0.7620
T5F00S00C0.8500
T6F00S00C3.4000
;TYPE=NON_PLATED
T7F00S00C0.9000
%
T01
X-003115Y0006125
Y0007225
Y0008325
X-003005
Y0007225
Y0006125
T02
X002175Y-00125
X002875
X00325
X0031425Y-0002925
X0029825
X003525Y-000264
X003565Y000111
X00331Y000186
X00311
X0038417Y0002189
Y0003967
Y0005491
Y0006507
Y-0000097
Y-0001113
X003835Y-000475
X004575
X00518Y-000433
X005175Y-000005
X004855
X0020675Y-0002925
X0019075
X0018Y-00125
X00065Y-00085
X000525Y-000875
X000175Y-001
X000275Y-00115
X-000375Y-00105
X-000508Y-001143
X-00075Y-00115
X-000635Y-00127
X-001375Y-00125
X-0018Y-001135
X-001725Y-0008
X-001925Y-00035
X-001005Y000665
X00015Y000845
X-00012Y0001
X-0002032Y-0000889
X000127Y-000381
X00083Y000075
X00078Y000425
X00106Y00067
X00127
X-0003Y-00224
X-0004064Y-0026162
X-002225Y-0018
X-002325Y-0012
X-00235Y-00095
X-002575Y-001075
Y-00125
X-0027305Y-0013716
X-0028829Y-0014351
Y-0012827
X-0029Y-000975
X-00295Y-0008
X-0032Y-000675
X-003125Y-0011
X-0034Y-001225
X-003625Y-0012
X-0039Y-00125
X-0027813Y-0015494
X-003025Y000075
X-00302Y00025
X-00338
X-0037Y000075
X-004064Y0003556
Y0005588
X-003615Y00065
X-00252Y00032
X-002185Y0003575
Y0006975
X-00502Y0
X-00527Y-00011
X-00433Y001145
Y00127
X-00407Y00155
X-0037338Y0018542
X-004025Y002325
X-0045125Y0022375
X-004915Y00247
X-00504
X-004915Y00287
Y003045
X-00504Y00322
X-0046325Y00322
X-0044825
X-0045Y0035
X-004555Y004305
X-004275
X-003955
X-003675
X-003355
X-003075
X-002755
X-002475
X-002155
X-0028825Y00312
X-0030825
Y00292
X-0032825
Y00272
X-0030825
Y00252
X-0032825
X-0034825
Y00272
Y00292
Y00312
X-0032825
X-0028825Y00292
Y00272
Y00252
X-0033Y00128
X-004875Y004305
X-001875
X-001555
X-001275
X-000955
X-000675
X-000355
X-000075
X000245
X000525
X000845
X001125
X001445
X001725
X000675Y00325
X0007Y00263
Y00247
X0008683Y0024041
X0009445Y0022771
X0010715Y0023279
X0011223Y0024803
X001105Y00272
X0013255Y0023915
X0008683Y0021501
X0009445Y0020231
X0008683Y0018961
X0011223Y0017437
X00112Y00157
X00113Y00145
X00111Y00107
X000905Y001125
X000505Y0011
X00048Y001375
X00051Y001515
X0003Y00179
X00016Y0019
X00001Y00183
X00014Y00169
X-0001223Y0016675
X-000325Y001825
X-00026Y00196
X-00005Y002075
X0001Y002175
X0001317Y0023025
X-0000207
X-0003Y002275
X-00051Y002485
X-0007239Y0026416
X-000825Y002335
X-0011Y0023
X-001225Y002175
X-001525Y002275
X-001725Y002425
X-00051Y001515
X-000605Y001285
X-00044Y00094
X-00015Y00115
X000055Y00125
X0003Y00205
X0016Y00182
X-000075Y003475
X-000195Y003465
X-000425Y003325
X-0002Y003875
X002045Y004305
X002325
X002645
X002925
X003245
X003525
X003845
X004125
X004445
X004725
X005045
X00504Y0031725
X004915
Y0027725
Y0025975
X00504Y0024225
X0046325Y0024225
X0044825
X0045319Y0022009
X0042779Y0018309
X003865Y00211
X0034825Y0025225
X0032825
X0030825
X0028825
Y0027225
Y0029225
X0030825
X0032825
X0034825
Y0031225
X0032825
X0030825
X0028825
X0030825Y0027225
X0032825
X0034825
X004025Y0033175
X0045125Y003405
X0046275Y0014449
X004785Y001311
X00518Y001166
X003685
X00373Y00144
T04
X-002413Y-003175
X-002159
X-001905
X-001651
X-001397
X-001143
X-000889
X-000635
X-000381
X-000127
X000127
X000381
X000635
X000889
X001143
X001397
X001651
X001905
X002159
X002413
X-002159Y003175
X-002413
X-001905
X001905
X002159
X002413
T05
X0049525Y001385
Y001885
T06
X0051Y-0017
X-0051
Y002
T07
X00228Y-00154
X00277
X003355
X001695
X00088
X00017
X-000645
X-00148
X-00197
X-00268
X-00317
X-004005
X-0043Y00079
Y0015
X0014655Y0015665
Y0024015
M30
