%FSTAX23Y23*%
%MOIN*%
%SFA1B1*%

%IPPOS*%
%ADD136C,0.002000*%
%ADD137C,0.002665*%
%LNpcb_singleledrow-1*%
%LPD*%
G54D136*
X00942Y01242D02*
Y01258D01*
X00958*
Y01242*
X00942*
X00842D02*
Y01258D01*
X00858*
Y01242*
X00842*
X00742D02*
Y01258D01*
X00758*
Y01242*
X00742*
X-00758D02*
Y01258D01*
X-00742*
Y01242*
X-00758*
X-00858D02*
Y01258D01*
X-00842*
Y01242*
X-00858*
X-00958D02*
Y01258D01*
X-00942*
Y01242*
X-00958*
Y-01258D02*
Y-01242D01*
X-00942*
Y-01258*
X-00958*
X-00858D02*
Y-01242D01*
X-00842*
Y-01258*
X-00858*
X-00758D02*
Y-01242D01*
X-00742*
Y-01258*
X-00758*
X-00658D02*
Y-01242D01*
X-00642*
Y-01258*
X-00658*
X-00558D02*
Y-01242D01*
X-00542*
Y-01258*
X-00558*
X-00458D02*
Y-01242D01*
X-00442*
Y-01258*
X-00458*
X-00358D02*
Y-01242D01*
X-00342*
Y-01258*
X-00358*
X-00258D02*
Y-01242D01*
X-00242*
Y-01258*
X-00258*
X-00158D02*
Y-01242D01*
X-00142*
Y-01258*
X-00158*
X-00058D02*
Y-01242D01*
X-00042*
Y-01258*
X-00058*
X00042D02*
Y-01242D01*
X00058*
Y-01258*
X00042*
X00142D02*
Y-01242D01*
X00158*
Y-01258*
X00142*
X00242D02*
Y-01242D01*
X00258*
Y-01258*
X00242*
X00342D02*
Y-01242D01*
X00358*
Y-01258*
X00342*
X00442D02*
Y-01242D01*
X00458*
Y-01258*
X00442*
X00542D02*
Y-01242D01*
X00558*
Y-01258*
X00542*
X00642D02*
Y-01242D01*
X00658*
Y-01258*
X00642*
X00742D02*
Y-01242D01*
X00758*
Y-01258*
X00742*
X00842D02*
Y-01242D01*
X00858*
Y-01258*
X00842*
X00942D02*
Y-01242D01*
X00958*
Y-01258*
X00942*
X0109Y-00614D02*
X01082Y-00598D01*
X01098*
X0109Y-00614*
X0132D02*
X01312Y-00598D01*
X01328*
X0132Y-00614*
X00667D02*
X00659Y-00598D01*
X00675*
X00667Y-00614*
X00897D02*
X00889Y-00598D01*
X00905*
X00897Y-00614*
X-01248D02*
X-01256Y-00598D01*
X-0124*
X-01248Y-00614*
X-01576D02*
X-01584Y-00598D01*
X-01568*
X-01576Y-00614*
X-01055D02*
X-01063Y-00598D01*
X-01047*
X-01055Y-00614*
X-00775D02*
X-00783Y-00598D01*
X-00767*
X-00775Y-00614*
X-00253D02*
X-00261Y-00598D01*
X-00245*
X-00253Y-00614*
X-00582D02*
X-0059Y-00598D01*
X-00574*
X-00582Y-00614*
X01949Y00734D02*
X01953Y00738D01*
X01957*
X01953Y00742*
X01957Y00746*
X01953*
X01949Y0075*
X01945Y00746*
X01941*
X01945Y00742*
X01941Y00738*
X01945*
X01949Y00734*
Y00537D02*
X01953Y00541D01*
X01957*
X01953Y00545*
X01957Y00549*
X01953*
X01949Y00553*
X01945Y00549*
X01941*
X01945Y00545*
X01941Y00541*
X01945*
X01949Y00537*
X02048Y00497D02*
X02052Y00505D01*
X02048Y00513*
X02056Y00509*
X02064Y00513*
X0206Y00505*
X02064Y00497*
X02056Y00501*
X02048Y00497*
Y00773D02*
X02052Y00781D01*
X02048Y00789*
X02056Y00785*
X02064Y00789*
X0206Y00781*
X02064Y00773*
X02056Y00777*
X02048Y00773*
X00576Y00937D02*
X00568Y00953D01*
X00584*
X00576Y00937*
Y00608D02*
X00568Y00624D01*
X00584*
X00576Y00608*
X00066Y-00614D02*
X00058Y-00598D01*
X00074*
X00066Y-00614*
X00346D02*
X00338Y-00598D01*
X00354*
X00346Y-00614*
X-01692Y00582D02*
X-017Y00598D01*
X-01684*
X-01692Y00582*
Y00303D02*
X-017Y00319D01*
X-01684*
X-01692Y00303*
X-00082Y01521D02*
Y01517D01*
X-00074*
Y01521*
X-0007*
Y01529*
X-00074*
Y01533*
X-00082*
Y01529*
X-00086*
Y01521*
X-00082*
X-00171Y01305D02*
Y01301D01*
X-00163*
Y01305*
X-00159*
Y01313*
X-00163*
Y01317*
X-00171*
Y01313*
X-00175*
Y01305*
X-00171*
X00261Y01275D02*
Y01271D01*
X00269*
Y01275*
X00273*
Y01283*
X00269*
Y01287*
X00261*
Y01283*
X00257*
Y01275*
X00261*
X-00033Y01364D02*
Y0136D01*
X-00025*
Y01364*
X-00021*
Y01372*
X-00025*
Y01376*
X-00033*
Y01372*
X-00037*
Y01364*
X-00033*
X0198Y01245D02*
Y01241D01*
X01988*
Y01245*
X01992*
Y01253*
X01988*
Y01257*
X0198*
Y01253*
X01976*
Y01245*
X0198*
X02033Y-00005D02*
Y-00009D01*
X02041*
Y-00005*
X02045*
Y00002*
X02041*
Y00006*
X02033*
Y00002*
X02029*
Y-00005*
X02033*
X01907D02*
Y-00009D01*
X01915*
Y-00005*
X01919*
Y00002*
X01915*
Y00006*
X01907*
Y00002*
X01903*
Y-00005*
X01907*
X-0198Y-00004D02*
Y-00008D01*
X-01972*
Y-00004*
X-01968*
Y00004*
X-01972*
Y00008*
X-0198*
Y00004*
X-01984*
Y-00004*
X-0198*
X-01708Y00496D02*
Y00492D01*
X-017*
Y00496*
X-01696*
Y00504*
X-017*
Y00508*
X-01708*
Y00504*
X-01712*
Y00496*
X-01708*
X-01775Y01373D02*
Y01369D01*
X-01767*
Y01373*
X-01763*
Y01381*
X-01767*
Y01385*
X-01775*
Y01381*
X-01779*
Y01373*
X-01775*
X0158Y01302D02*
Y01298D01*
X01588*
Y01302*
X01592*
Y0131*
X01588*
Y01314*
X0158*
Y0131*
X01576*
Y01302*
X0158*
X01772Y01336D02*
Y01332D01*
X0178*
Y01336*
X01784*
Y01344*
X0178*
Y01348*
X01772*
Y01344*
X01768*
Y01336*
X01772*
X-01588Y00911D02*
Y00907D01*
X-0158*
Y00911*
X-01576*
Y00919*
X-0158*
Y00923*
X-01588*
Y00919*
X-01592*
Y00911*
X-01588*
X-0178Y00876D02*
Y00872D01*
X-01772*
Y00876*
X-01768*
Y00884*
X-01772*
Y00888*
X-0178*
Y00884*
X-01784*
Y00876*
X-0178*
X01819Y00949D02*
Y00945D01*
X01827*
Y00949*
X01831*
Y00957*
X01827*
Y00961*
X01819*
Y00957*
X01815*
Y00949*
X01819*
X-01138Y01224D02*
Y0122D01*
X-0113*
Y01224*
X-01126*
Y01232*
X-0113*
Y01236*
X-01138*
Y01232*
X-01142*
Y01224*
X-01138*
X01879Y00512D02*
Y00508D01*
X01887*
Y00512*
X01891*
Y0052*
X01887*
Y00524*
X01879*
Y0052*
X01875*
Y00512*
X01879*
X01931Y01018D02*
Y01014D01*
X01939*
Y01018*
X01943*
Y01026*
X01939*
Y0103*
X01931*
Y01026*
X01927*
Y01018*
X01931*
Y01087D02*
Y01083D01*
X01939*
Y01087*
X01943*
Y01095*
X01939*
Y01099*
X01931*
Y01095*
X01927*
Y01087*
X01931*
Y01245D02*
Y01241D01*
X01939*
Y01245*
X01943*
Y01253*
X01939*
Y01257*
X01931*
Y01253*
X01927*
Y01245*
X01931*
X0198Y00949D02*
Y00945D01*
X01988*
Y00949*
X01992*
Y00957*
X01988*
Y00961*
X0198*
Y00957*
X01976*
Y00949*
X0198*
X-01988Y01263D02*
Y01259D01*
X-0198*
Y01263*
X-01976*
Y01271*
X-0198*
Y01275*
X-01988*
Y01271*
X-01992*
Y01263*
X-01988*
Y00968D02*
Y00964D01*
X-0198*
Y00968*
X-01976*
Y00976*
X-0198*
Y0098*
X-01988*
Y00976*
X-01992*
Y00968*
X-01988*
X-01939D02*
Y00964D01*
X-01931*
Y00968*
X-01927*
Y00976*
X-01931*
Y0098*
X-01939*
Y00976*
X-01943*
Y00968*
X-01939*
Y01125D02*
Y01121D01*
X-01931*
Y01125*
X-01927*
Y01133*
X-01931*
Y01137*
X-01939*
Y01133*
X-01943*
Y01125*
X-01939*
Y01194D02*
Y0119D01*
X-01931*
Y01194*
X-01927*
Y01202*
X-01931*
Y01206*
X-01939*
Y01202*
X-01943*
Y01194*
X-01939*
X01856Y0169D02*
Y01686D01*
X01864*
Y0169*
X01868*
Y01698*
X01864*
Y01702*
X01856*
Y01698*
X01852*
Y0169*
X01856*
X01982D02*
Y01686D01*
X0199*
Y0169*
X01994*
Y01698*
X0199*
Y01702*
X01982*
Y01698*
X01978*
Y0169*
X01982*
X0162D02*
Y01686D01*
X01628*
Y0169*
X01632*
Y01698*
X01628*
Y01702*
X0162*
Y01698*
X01616*
Y0169*
X0162*
X01746D02*
Y01686D01*
X01754*
Y0169*
X01758*
Y01698*
X01754*
Y01702*
X01746*
Y01698*
X01742*
Y0169*
X01746*
X01383D02*
Y01686D01*
X01391*
Y0169*
X01395*
Y01698*
X01391*
Y01702*
X01383*
Y01698*
X01379*
Y0169*
X01383*
X01509D02*
Y01686D01*
X01517*
Y0169*
X01521*
Y01698*
X01517*
Y01702*
X01509*
Y01698*
X01505*
Y0169*
X01509*
X01147D02*
Y01686D01*
X01155*
Y0169*
X01159*
Y01698*
X01155*
Y01702*
X01147*
Y01698*
X01143*
Y0169*
X01147*
X01273D02*
Y01686D01*
X01281*
Y0169*
X01285*
Y01698*
X01281*
Y01702*
X01273*
Y01698*
X01269*
Y0169*
X01273*
X00911D02*
Y01686D01*
X00919*
Y0169*
X00923*
Y01698*
X00919*
Y01702*
X00911*
Y01698*
X00907*
Y0169*
X00911*
X01037D02*
Y01686D01*
X01045*
Y0169*
X01049*
Y01698*
X01045*
Y01702*
X01037*
Y01698*
X01033*
Y0169*
X01037*
X00675D02*
Y01686D01*
X00683*
Y0169*
X00687*
Y01698*
X00683*
Y01702*
X00675*
Y01698*
X00671*
Y0169*
X00675*
X00801D02*
Y01686D01*
X00809*
Y0169*
X00813*
Y01698*
X00809*
Y01702*
X00801*
Y01698*
X00797*
Y0169*
X00801*
X00438D02*
Y01686D01*
X00446*
Y0169*
X0045*
Y01698*
X00446*
Y01702*
X00438*
Y01698*
X00434*
Y0169*
X00438*
X00564D02*
Y01686D01*
X00572*
Y0169*
X00576*
Y01698*
X00572*
Y01702*
X00564*
Y01698*
X0056*
Y0169*
X00564*
X00202D02*
Y01686D01*
X0021*
Y0169*
X00214*
Y01698*
X0021*
Y01702*
X00202*
Y01698*
X00198*
Y0169*
X00202*
X00328D02*
Y01686D01*
X00336*
Y0169*
X0034*
Y01698*
X00336*
Y01702*
X00328*
Y01698*
X00324*
Y0169*
X00328*
X-00033D02*
Y01686D01*
X-00025*
Y0169*
X-00021*
Y01698*
X-00025*
Y01702*
X-00033*
Y01698*
X-00037*
Y0169*
X-00033*
X00092D02*
Y01686D01*
X001*
Y0169*
X00104*
Y01698*
X001*
Y01702*
X00092*
Y01698*
X00088*
Y0169*
X00092*
X-00269D02*
Y01686D01*
X-00261*
Y0169*
X-00257*
Y01698*
X-00261*
Y01702*
X-00269*
Y01698*
X-00273*
Y0169*
X-00269*
X-00143D02*
Y01686D01*
X-00135*
Y0169*
X-00131*
Y01698*
X-00135*
Y01702*
X-00143*
Y01698*
X-00147*
Y0169*
X-00143*
X-00505D02*
Y01686D01*
X-00497*
Y0169*
X-00493*
Y01698*
X-00497*
Y01702*
X-00505*
Y01698*
X-00509*
Y0169*
X-00505*
X-00379D02*
Y01686D01*
X-00371*
Y0169*
X-00367*
Y01698*
X-00371*
Y01702*
X-00379*
Y01698*
X-00383*
Y0169*
X-00379*
X-00742D02*
Y01686D01*
X-00734*
Y0169*
X-0073*
Y01698*
X-00734*
Y01702*
X-00742*
Y01698*
X-00746*
Y0169*
X-00742*
X-00616D02*
Y01686D01*
X-00608*
Y0169*
X-00604*
Y01698*
X-00608*
Y01702*
X-00616*
Y01698*
X-0062*
Y0169*
X-00616*
X-00978D02*
Y01686D01*
X-0097*
Y0169*
X-00966*
Y01698*
X-0097*
Y01702*
X-00978*
Y01698*
X-00982*
Y0169*
X-00978*
X-00852D02*
Y01686D01*
X-00844*
Y0169*
X-0084*
Y01698*
X-00844*
Y01702*
X-00852*
Y01698*
X-00856*
Y0169*
X-00852*
X-01214D02*
Y01686D01*
X-01206*
Y0169*
X-01202*
Y01698*
X-01206*
Y01702*
X-01214*
Y01698*
X-01218*
Y0169*
X-01214*
X-01088D02*
Y01686D01*
X-0108*
Y0169*
X-01076*
Y01698*
X-0108*
Y01702*
X-01088*
Y01698*
X-01092*
Y0169*
X-01088*
X-0145D02*
Y01686D01*
X-01442*
Y0169*
X-01438*
Y01698*
X-01442*
Y01702*
X-0145*
Y01698*
X-01454*
Y0169*
X-0145*
X-01324D02*
Y01686D01*
X-01316*
Y0169*
X-01312*
Y01698*
X-01316*
Y01702*
X-01324*
Y01698*
X-01328*
Y0169*
X-01324*
X-01687D02*
Y01686D01*
X-01679*
Y0169*
X-01675*
Y01698*
X-01679*
Y01702*
X-01687*
Y01698*
X-01691*
Y0169*
X-01687*
X-01561D02*
Y01686D01*
X-01553*
Y0169*
X-01549*
Y01698*
X-01553*
Y01702*
X-01561*
Y01698*
X-01565*
Y0169*
X-01561*
X-01797D02*
Y01686D01*
X-01789*
Y0169*
X-01785*
Y01698*
X-01789*
Y01702*
X-01797*
Y01698*
X-01801*
Y0169*
X-01797*
X-01923D02*
Y01686D01*
X-01915*
Y0169*
X-01911*
Y01698*
X-01915*
Y01702*
X-01923*
Y01698*
X-01927*
Y0169*
X-01923*
X01446Y00455D02*
Y00451D01*
X01454*
Y00455*
X01458*
Y00463*
X01454*
Y00467*
X01446*
Y00463*
X01442*
Y00455*
X01446*
X02035D02*
Y00451D01*
X02043*
Y00455*
X02047*
Y00463*
X02043*
Y00467*
X02035*
Y00463*
X02031*
Y00455*
X02035*
Y-00174D02*
Y-00178D01*
X02043*
Y-00174*
X02047*
Y-00166*
X02043*
Y-00162*
X02035*
Y-00166*
X02031*
Y-00174*
X02035*
X-00063Y00448D02*
Y00444D01*
X-00055*
Y00448*
X-00051*
Y00456*
X-00055*
Y0046*
X-00063*
Y00456*
X-00067*
Y00448*
X-00063*
X00035Y00852D02*
Y00848D01*
X00043*
Y00852*
X00047*
Y0086*
X00043*
Y00864*
X00035*
Y0086*
X00031*
Y00852*
X00035*
X0178Y00862D02*
Y00858D01*
X01788*
Y00862*
X01792*
Y0087*
X01788*
Y00874*
X0178*
Y0087*
X01776*
Y00862*
X0178*
X0176Y00949D02*
Y00945D01*
X01768*
Y00949*
X01772*
Y00957*
X01768*
Y00961*
X0176*
Y00957*
X01756*
Y00949*
X0176*
X-00929Y-00378D02*
Y-00382D01*
X-00921*
Y-00378*
X-00917*
Y-0037*
X-00921*
Y-00366*
X-00929*
Y-0037*
X-00933*
Y-00378*
X-00929*
X-00879Y-00712D02*
Y-00716D01*
X-00871*
Y-00712*
X-00867*
Y-00704*
X-00871*
Y-007*
X-00879*
Y-00704*
X-00883*
Y-00712*
X-00879*
X-01145Y-00387D02*
Y-00391D01*
X-01137*
Y-00387*
X-01133*
Y-00379*
X-01137*
Y-00375*
X-01145*
Y-00379*
X-01149*
Y-00387*
X-01145*
X-00299Y-00456D02*
Y-0046D01*
X-00291*
Y-00456*
X-00287*
Y-00448*
X-00291*
Y-00444*
X-00299*
Y-00448*
X-00303*
Y-00456*
X-00299*
X-00604Y00891D02*
Y00887D01*
X-00596*
Y00891*
X-00592*
Y00899*
X-00596*
Y00903*
X-00604*
Y00899*
X-00608*
Y00891*
X-00604*
X-00122D02*
Y00887D01*
X-00114*
Y00891*
X-0011*
Y00899*
X-00114*
Y00903*
X-00122*
Y00899*
X-00126*
Y00891*
X-00122*
X-00486Y00852D02*
Y00848D01*
X-00478*
Y00852*
X-00474*
Y0086*
X-00478*
Y00864*
X-00486*
Y0086*
X-0049*
Y00852*
X-00486*
X-00437Y00901D02*
Y00897D01*
X-00429*
Y00901*
X-00425*
Y00909*
X-00429*
Y00913*
X-00437*
Y00909*
X-00441*
Y00901*
X-00437*
X-00023Y00812D02*
Y00808D01*
X-00015*
Y00812*
X-00011*
Y0082*
X-00015*
Y00824*
X-00023*
Y0082*
X-00027*
Y00812*
X-00023*
X-01165Y-00318D02*
Y-00322D01*
X-01157*
Y-00318*
X-01153*
Y-0031*
X-01157*
Y-00306*
X-01165*
Y-0031*
X-01169*
Y-00318*
X-01165*
X-01234Y-00437D02*
Y-00441D01*
X-01226*
Y-00437*
X-01222*
Y-00429*
X-01226*
Y-00425*
X-01234*
Y-00429*
X-01238*
Y-00437*
X-01234*
X-00683Y-00318D02*
Y-00322D01*
X-00675*
Y-00318*
X-00671*
Y-0031*
X-00675*
Y-00306*
X-00683*
Y-0031*
X-00687*
Y-00318*
X-00683*
X01797Y-00191D02*
Y-00195D01*
X01805*
Y-00191*
X01809*
Y-00183*
X01805*
Y-00179*
X01797*
Y-00183*
X01793*
Y-00191*
X01797*
X01505D02*
Y-00195D01*
X01513*
Y-00191*
X01517*
Y-00183*
X01513*
Y-00179*
X01505*
Y-00183*
X01501*
Y-00191*
X01505*
X01383Y-00107D02*
Y-00111D01*
X01391*
Y-00107*
X01395*
Y-00099*
X01391*
Y-00095*
X01383*
Y-00099*
X01379*
Y-00107*
X01383*
X01127Y-00496D02*
Y-005D01*
X01135*
Y-00496*
X01139*
Y-00488*
X01135*
Y-00484*
X01127*
Y-00488*
X01123*
Y-00496*
X01127*
X01275D02*
Y-005D01*
X01283*
Y-00496*
X01287*
Y-00488*
X01283*
Y-00484*
X01275*
Y-00488*
X01271*
Y-00496*
X01275*
X00704D02*
Y-005D01*
X00712*
Y-00496*
X00716*
Y-00488*
X00712*
Y-00484*
X00704*
Y-00488*
X007*
Y-00496*
X00704*
X00852D02*
Y-005D01*
X0086*
Y-00496*
X00864*
Y-00488*
X0086*
Y-00484*
X00852*
Y-00488*
X00848*
Y-00496*
X00852*
X-01539D02*
Y-005D01*
X-01531*
Y-00496*
X-01527*
Y-00488*
X-01531*
Y-00484*
X-01539*
Y-00488*
X-01543*
Y-00496*
X-01539*
X-00545D02*
Y-005D01*
X-00537*
Y-00496*
X-00533*
Y-00488*
X-00537*
Y-00484*
X-00545*
Y-00488*
X-00549*
Y-00496*
X-00545*
X-01017D02*
Y-005D01*
X-01009*
Y-00496*
X-01005*
Y-00488*
X-01009*
Y-00484*
X-01017*
Y-00488*
X-01021*
Y-00496*
X-01017*
X-00712Y-0045D02*
Y-00454D01*
X-00704*
Y-0045*
X-007*
Y-00442*
X-00704*
Y-00438*
X-00712*
Y-00442*
X-00716*
Y-0045*
X-00712*
X-01303Y00499D02*
Y00495D01*
X-01295*
Y00499*
X-01291*
Y00507*
X-01295*
Y00511*
X-01303*
Y00507*
X-01307*
Y00499*
X-01303*
X-00864Y00136D02*
Y00132D01*
X-00856*
Y00136*
X-00852*
Y00144*
X-00856*
Y00148*
X-00864*
Y00144*
X-00868*
Y00136*
X-00864*
Y0027D02*
Y00266D01*
X-00856*
Y0027*
X-00852*
Y00278*
X-00856*
Y00282*
X-00864*
Y00278*
X-00868*
Y0027*
X-00864*
X-01606Y00606D02*
Y00602D01*
X-01598*
Y00606*
X-01594*
Y00614*
X-01598*
Y00618*
X-01606*
Y00614*
X-0161*
Y00606*
X-01606*
X-01708Y00446D02*
Y00442D01*
X-017*
Y00446*
X-01696*
Y00454*
X-017*
Y00458*
X-01708*
Y00454*
X-01712*
Y00446*
X-01708*
X00337Y00742D02*
Y00738D01*
X00345*
Y00742*
X00349*
Y0075*
X00345*
Y00754*
X00337*
Y0075*
X00333*
Y00742*
X00337*
Y00842D02*
Y00838D01*
X00345*
Y00842*
X00349*
Y0085*
X00345*
Y00854*
X00337*
Y0085*
X00333*
Y00842*
X00337*
X-00012Y00902D02*
Y00898D01*
X-00004*
Y00902*
X0*
Y0091*
X-00004*
Y00914*
X-00012*
Y0091*
X-00016*
Y00902*
X-00012*
X00047D02*
Y00898D01*
X00055*
Y00902*
X00059*
Y0091*
X00055*
Y00914*
X00047*
Y0091*
X00043*
Y00902*
X00047*
X00437Y00972D02*
Y00968D01*
X00445*
Y00972*
X00449*
Y0098*
X00445*
Y00984*
X00437*
Y0098*
X00433*
Y00972*
X00437*
X00367Y00792D02*
Y00788D01*
X00375*
Y00792*
X00379*
Y008*
X00375*
Y00804*
X00367*
Y008*
X00363*
Y00792*
X00367*
X00437Y00682D02*
Y00678D01*
X00445*
Y00682*
X00449*
Y0069*
X00445*
Y00694*
X00437*
Y0069*
X00433*
Y00682*
X00437*
X01508Y-00047D02*
Y-00051D01*
X01516*
Y-00047*
X0152*
Y-00039*
X01516*
Y-00035*
X01508*
Y-00039*
X01504*
Y-00047*
X01508*
Y-00007D02*
Y-00011D01*
X01516*
Y-00007*
X0152*
Y0*
X01516*
Y00004*
X01508*
Y0*
X01504*
Y-00007*
X01508*
Y00152D02*
Y00148D01*
X01516*
Y00152*
X0152*
Y0016*
X01516*
Y00164*
X01508*
Y0016*
X01504*
Y00152*
X01508*
Y00212D02*
Y00208D01*
X01516*
Y00212*
X0152*
Y0022*
X01516*
Y00224*
X01508*
Y0022*
X01504*
Y00212*
X01508*
Y00082D02*
Y00078D01*
X01516*
Y00082*
X0152*
Y0009*
X01516*
Y00094*
X01508*
Y0009*
X01504*
Y00082*
X01508*
Y00252D02*
Y00248D01*
X01516*
Y00252*
X0152*
Y0026*
X01516*
Y00264*
X01508*
Y0026*
X01504*
Y00252*
X01508*
X-00052Y00652D02*
Y00648D01*
X-00044*
Y00652*
X-0004*
Y0066*
X-00044*
Y00664*
X-00052*
Y0066*
X-00056*
Y00652*
X-00052*
X0168Y00716D02*
Y00712D01*
X01688*
Y00716*
X01692*
Y00724*
X01688*
Y00728*
X0168*
Y00724*
X01676*
Y00716*
X0168*
X01817Y00564D02*
Y0056D01*
X01825*
Y00564*
X01829*
Y00572*
X01825*
Y00576*
X01817*
Y00572*
X01813*
Y00564*
X01817*
X01399Y00039D02*
Y00035D01*
X01407*
Y00039*
X01411*
Y00047*
X01407*
Y00051*
X01399*
Y00047*
X01395*
Y00039*
X01399*
X01299Y00069D02*
Y00065D01*
X01307*
Y00069*
X01311*
Y00077*
X01307*
Y00081*
X01299*
Y00077*
X01295*
Y00069*
X01299*
X0122D02*
Y00065D01*
X01228*
Y00069*
X01232*
Y00077*
X01228*
Y00081*
X0122*
Y00077*
X01216*
Y00069*
X0122*
X01367Y01146D02*
Y01142D01*
X01375*
Y01146*
X01379*
Y01154*
X01375*
Y01158*
X01367*
Y01154*
X01363*
Y01146*
X01367*
X01288D02*
Y01142D01*
X01296*
Y01146*
X013*
Y01154*
X01296*
Y01158*
X01288*
Y01154*
X01284*
Y01146*
X01288*
X01209D02*
Y01142D01*
X01217*
Y01146*
X01221*
Y01154*
X01217*
Y01158*
X01209*
Y01154*
X01205*
Y01146*
X01209*
X0113D02*
Y01142D01*
X01138*
Y01146*
X01142*
Y01154*
X01138*
Y01158*
X0113*
Y01154*
X01126*
Y01146*
X0113*
X01288Y00989D02*
Y00985D01*
X01296*
Y00989*
X013*
Y00997*
X01296*
Y01001*
X01288*
Y00997*
X01284*
Y00989*
X01288*
X-01296Y01066D02*
Y01062D01*
X-01288*
Y01066*
X-01284*
Y01074*
X-01288*
Y01078*
X-01296*
Y01074*
X-013*
Y01066*
X-01296*
Y01145D02*
Y01141D01*
X-01288*
Y01145*
X-01284*
Y01153*
X-01288*
Y01157*
X-01296*
Y01153*
X-013*
Y01145*
X-01296*
X-01217D02*
Y01141D01*
X-01209*
Y01145*
X-01205*
Y01153*
X-01209*
Y01157*
X-01217*
Y01153*
X-01221*
Y01145*
X-01217*
Y01066D02*
Y01062D01*
X-01209*
Y01066*
X-01205*
Y01074*
X-01209*
Y01078*
X-01217*
Y01074*
X-01221*
Y01066*
X-01217*
Y00988D02*
Y00984D01*
X-01209*
Y00988*
X-01205*
Y00996*
X-01209*
Y01*
X-01217*
Y00996*
X-01221*
Y00988*
X-01217*
X-01296D02*
Y00984D01*
X-01288*
Y00988*
X-01284*
Y00996*
X-01288*
Y01*
X-01296*
Y00996*
X-013*
Y00988*
X-01296*
X-01375Y01066D02*
Y01062D01*
X-01367*
Y01066*
X-01363*
Y01074*
X-01367*
Y01078*
X-01375*
Y01074*
X-01379*
Y01066*
X-01375*
Y00988D02*
Y00984D01*
X-01367*
Y00988*
X-01363*
Y00996*
X-01367*
Y01*
X-01375*
Y00996*
X-01379*
Y00988*
X-01375*
Y01145D02*
Y01141D01*
X-01367*
Y01145*
X-01363*
Y01153*
X-01367*
Y01157*
X-01375*
Y01153*
X-01379*
Y01145*
X-01375*
X-01296Y01224D02*
Y0122D01*
X-01288*
Y01224*
X-01284*
Y01232*
X-01288*
Y01236*
X-01296*
Y01232*
X-013*
Y01224*
X-01296*
X-01375D02*
Y0122D01*
X-01367*
Y01224*
X-01363*
Y01232*
X-01367*
Y01236*
X-01375*
Y01232*
X-01379*
Y01224*
X-01375*
X-01217D02*
Y0122D01*
X-01209*
Y01224*
X-01205*
Y01232*
X-01209*
Y01236*
X-01217*
Y01232*
X-01221*
Y01224*
X-01217*
X-01138Y01145D02*
Y01141D01*
X-0113*
Y01145*
X-01126*
Y01153*
X-0113*
Y01157*
X-01138*
Y01153*
X-01142*
Y01145*
X-01138*
Y01066D02*
Y01062D01*
X-0113*
Y01066*
X-01126*
Y01074*
X-0113*
Y01078*
X-01138*
Y01074*
X-01142*
Y01066*
X-01138*
Y00988D02*
Y00984D01*
X-0113*
Y00988*
X-01126*
Y00996*
X-0113*
Y01*
X-01138*
Y00996*
X-01142*
Y00988*
X-01138*
X01367Y00989D02*
Y00985D01*
X01375*
Y00989*
X01379*
Y00997*
X01375*
Y01001*
X01367*
Y00997*
X01363*
Y00989*
X01367*
Y01225D02*
Y01221D01*
X01375*
Y01225*
X01379*
Y01233*
X01375*
Y01237*
X01367*
Y01233*
X01363*
Y01225*
X01367*
X01288D02*
Y01221D01*
X01296*
Y01225*
X013*
Y01233*
X01296*
Y01237*
X01288*
Y01233*
X01284*
Y01225*
X01288*
X0113D02*
Y01221D01*
X01138*
Y01225*
X01142*
Y01233*
X01138*
Y01237*
X0113*
Y01233*
X01126*
Y01225*
X0113*
X01209D02*
Y01221D01*
X01217*
Y01225*
X01221*
Y01233*
X01217*
Y01237*
X01209*
Y01233*
X01205*
Y01225*
X01209*
X0113Y00989D02*
Y00985D01*
X01138*
Y00989*
X01142*
Y00997*
X01138*
Y01001*
X0113*
Y00997*
X01126*
Y00989*
X0113*
X01209D02*
Y00985D01*
X01217*
Y00989*
X01221*
Y00997*
X01217*
Y01001*
X01209*
Y00997*
X01205*
Y00989*
X01209*
X00055Y00328D02*
Y00324D01*
X00063*
Y00328*
X00067*
Y00336*
X00063*
Y0034*
X00055*
Y00336*
X00051*
Y00328*
X00055*
X-00204Y00592D02*
Y00588D01*
X-00196*
Y00592*
X-00192*
Y006*
X-00196*
Y00604*
X-00204*
Y006*
X-00208*
Y00592*
X-00204*
X-00242Y00501D02*
Y00497D01*
X-00234*
Y00501*
X-0023*
Y00509*
X-00234*
Y00513*
X-00242*
Y00509*
X-00246*
Y00501*
X-00242*
X-00289Y01036D02*
Y01032D01*
X-00281*
Y01036*
X-00277*
Y01044*
X-00281*
Y01048*
X-00289*
Y01044*
X-00293*
Y01036*
X-00289*
X-00204Y00974D02*
Y0097D01*
X-00196*
Y00974*
X-00192*
Y00982*
X-00196*
Y00986*
X-00204*
Y00982*
X-00208*
Y00974*
X-00204*
X00196Y00592D02*
Y00588D01*
X00204*
Y00592*
X00208*
Y006*
X00204*
Y00604*
X00196*
Y006*
X00192*
Y00592*
X00196*
X00303Y00163D02*
Y00159D01*
X00311*
Y00163*
X00315*
Y00171*
X00311*
Y00175*
X00303*
Y00171*
X00299*
Y00163*
X00303*
X00194Y00429D02*
Y00425D01*
X00202*
Y00429*
X00206*
Y00437*
X00202*
Y00441*
X00194*
Y00437*
X0019*
Y00429*
X00194*
X00184Y00537D02*
Y00533D01*
X00192*
Y00537*
X00196*
Y00545*
X00192*
Y00549*
X00184*
Y00545*
X0018*
Y00537*
X00184*
X00352Y00438D02*
Y00434D01*
X0036*
Y00438*
X00364*
Y00446*
X0036*
Y0045*
X00352*
Y00446*
X00348*
Y00438*
X00352*
X-00051Y00035D02*
Y00031D01*
X-00043*
Y00035*
X-00039*
Y00043*
X-00043*
Y00047*
X-00051*
Y00043*
X-00055*
Y00035*
X-00051*
X00322Y00025D02*
Y00021D01*
X0033*
Y00025*
X00334*
Y00033*
X0033*
Y00037*
X00322*
Y00033*
X00318*
Y00025*
X00322*
X00017Y00488D02*
Y00484D01*
X00025*
Y00488*
X00029*
Y00496*
X00025*
Y005*
X00017*
Y00496*
X00013*
Y00488*
X00017*
X-01827Y01263D02*
Y01259D01*
X-01819*
Y01263*
X-01815*
Y01271*
X-01819*
Y01275*
X-01827*
Y01271*
X-01831*
Y01263*
X-01827*
X-01768D02*
Y01259D01*
X-0176*
Y01263*
X-01756*
Y01271*
X-0176*
Y01275*
X-01768*
Y01271*
X-01772*
Y01263*
X-01768*
X00114Y00803D02*
Y00799D01*
X00122*
Y00803*
X00126*
Y00811*
X00122*
Y00815*
X00114*
Y00811*
X0011*
Y00803*
X00114*
X00058Y00744D02*
Y0074D01*
X00066*
Y00744*
X0007*
Y00752*
X00066*
Y00756*
X00058*
Y00752*
X00054*
Y00744*
X00058*
X00436Y00614D02*
Y0061D01*
X00444*
Y00614*
X00448*
Y00622*
X00444*
Y00626*
X00436*
Y00622*
X00432*
Y00614*
X00436*
X00496Y00259D02*
Y00255D01*
X00504*
Y00259*
X00508*
Y00267*
X00504*
Y00271*
X00496*
Y00267*
X00492*
Y00259*
X00496*
X00413D02*
Y00255D01*
X00421*
Y00259*
X00425*
Y00267*
X00421*
Y00271*
X00413*
Y00267*
X00409*
Y00259*
X00413*
X00433Y00417D02*
Y00413D01*
X00441*
Y00417*
X00445*
Y00425*
X00441*
Y00429*
X00433*
Y00425*
X00429*
Y00417*
X00433*
X00114Y007D02*
Y00696D01*
X00122*
Y007*
X00126*
Y00708*
X00122*
Y00712*
X00114*
Y00708*
X0011*
Y007*
X00114*
X0044Y00566D02*
Y00562D01*
X00448*
Y00566*
X00452*
Y00574*
X00448*
Y00578*
X0044*
Y00574*
X00436*
Y00566*
X0044*
X00746Y-00119D02*
Y-00123D01*
X00754*
Y-00119*
X00758*
Y-00111*
X00754*
Y-00107*
X00746*
Y-00111*
X00742*
Y-00119*
X00746*
X00809D02*
Y-00123D01*
X00817*
Y-00119*
X00821*
Y-00111*
X00817*
Y-00107*
X00809*
Y-00111*
X00805*
Y-00119*
X00809*
X01233D02*
Y-00123D01*
X01241*
Y-00119*
X01245*
Y-00111*
X01241*
Y-00107*
X01233*
Y-00111*
X01229*
Y-00119*
X01233*
X0117D02*
Y-00123D01*
X01178*
Y-00119*
X01182*
Y-00111*
X01178*
Y-00107*
X0117*
Y-00111*
X01166*
Y-00119*
X0117*
X-00683Y0095D02*
Y00946D01*
X-00675*
Y0095*
X-00671*
Y00958*
X-00675*
Y00962*
X-00683*
Y00958*
X-00687*
Y0095*
X-00683*
X-00328Y00915D02*
Y00911D01*
X-0032*
Y00915*
X-00316*
Y00923*
X-0032*
Y00927*
X-00328*
Y00923*
X-00332*
Y00915*
X-00328*
X00517Y00937D02*
Y00933D01*
X00525*
Y00937*
X00529*
Y00945*
X00525*
Y00949*
X00517*
Y00945*
X00513*
Y00937*
X00517*
X-00399Y00257D02*
Y00253D01*
X-00391*
Y00257*
X-00387*
Y00265*
X-00391*
Y00269*
X-00399*
Y00265*
X-00403*
Y00257*
X-00399*
X-00996Y00121D02*
Y00117D01*
X-00988*
Y00121*
X-00984*
Y00129*
X-00988*
Y00133*
X-00996*
Y00129*
X-01*
Y00121*
X-00996*
X01367Y01067D02*
Y01063D01*
X01375*
Y01067*
X01379*
Y01075*
X01375*
Y01079*
X01367*
Y01075*
X01363*
Y01067*
X01367*
X01288D02*
Y01063D01*
X01296*
Y01067*
X013*
Y01075*
X01296*
Y01079*
X01288*
Y01075*
X01284*
Y01067*
X01288*
X01209D02*
Y01063D01*
X01217*
Y01067*
X01221*
Y01075*
X01217*
Y01079*
X01209*
Y01075*
X01205*
Y01067*
X01209*
X0113D02*
Y01063D01*
X01138*
Y01067*
X01142*
Y01075*
X01138*
Y01079*
X0113*
Y01075*
X01126*
Y01067*
X0113*
X01517Y00826D02*
Y00822D01*
X01525*
Y00826*
X01529*
Y00834*
X01525*
Y00838*
X01517*
Y00834*
X01513*
Y00826*
X01517*
X00431Y01066D02*
Y01062D01*
X00439*
Y01066*
X00443*
Y01074*
X00439*
Y01078*
X00431*
Y01074*
X00427*
Y01066*
X00431*
X00625Y00712D02*
Y00708D01*
X00633*
Y00712*
X00637*
Y0072*
X00633*
Y00724*
X00625*
Y0072*
X00621*
Y00712*
X00625*
X00271Y00968D02*
Y00964D01*
X00279*
Y00968*
X00283*
Y00976*
X00279*
Y0098*
X00271*
Y00976*
X00267*
Y00968*
X00271*
Y01031D02*
Y01027D01*
X00279*
Y01031*
X00283*
Y01039*
X00279*
Y01043*
X00271*
Y01039*
X00267*
Y01031*
X00271*
X00337Y00942D02*
Y00938D01*
X00345*
Y00942*
X00349*
Y0095*
X00345*
Y00954*
X00337*
Y0095*
X00333*
Y00942*
X00337*
X00417Y00912D02*
Y00908D01*
X00425*
Y00912*
X00429*
Y0092*
X00425*
Y00924*
X00417*
Y0092*
X00413*
Y00912*
X00417*
X-00177Y00366D02*
Y00362D01*
X-00169*
Y00366*
X-00165*
Y00374*
X-00169*
Y00378*
X-00177*
Y00374*
X-00181*
Y00366*
X-00177*
X01464Y00562D02*
Y00558D01*
X01472*
Y00562*
X01476*
Y0057*
X01472*
Y00574*
X01464*
Y0057*
X0146*
Y00562*
X01464*
X00367Y00892D02*
Y00888D01*
X00375*
Y00892*
X00379*
Y009*
X00375*
Y00904*
X00367*
Y009*
X00363*
Y00892*
X00367*
X-01431Y-00476D02*
Y-0048D01*
X-01423*
Y-00476*
X-01419*
Y-00468*
X-01423*
Y-00464*
X-01431*
Y-00468*
X-01435*
Y-00476*
X-01431*
X-01342Y-00486D02*
Y-0049D01*
X-01334*
Y-00486*
X-0133*
Y-00478*
X-01334*
Y-00474*
X-01342*
Y-00478*
X-01346*
Y-00486*
X-01342*
X-01017Y-00427D02*
Y-00431D01*
X-01009*
Y-00427*
X-01005*
Y-00419*
X-01009*
Y-00415*
X-01017*
Y-00419*
X-01021*
Y-00427*
X-01017*
X-00919Y-00476D02*
Y-0048D01*
X-00911*
Y-00476*
X-00907*
Y-00468*
X-00911*
Y-00464*
X-00919*
Y-00468*
X-00923*
Y-00476*
X-00919*
X-00761Y-00141D02*
Y-00145D01*
X-00753*
Y-00141*
X-00749*
Y-00133*
X-00753*
Y-00129*
X-00761*
Y-00133*
X-00765*
Y-00141*
X-00761*
X-01263Y-00269D02*
Y-00273D01*
X-01255*
Y-00269*
X-01251*
Y-00261*
X-01255*
Y-00257*
X-01263*
Y-00261*
X-01267*
Y-00269*
X-01263*
X00104Y-00456D02*
Y-0046D01*
X00112*
Y-00456*
X00116*
Y-00448*
X00112*
Y-00444*
X00104*
Y-00448*
X001*
Y-00456*
X00104*
X-00151Y-00417D02*
Y-00421D01*
X-00143*
Y-00417*
X-00139*
Y-00409*
X-00143*
Y-00405*
X-00151*
Y-00409*
X-00155*
Y-00417*
X-00151*
X00251Y-00338D02*
Y-00342D01*
X00259*
Y-00338*
X00263*
Y-0033*
X00259*
Y-00326*
X00251*
Y-0033*
X00247*
Y-00338*
X00251*
X00064Y-00397D02*
Y-00401D01*
X00072*
Y-00397*
X00076*
Y-00389*
X00072*
Y-00385*
X00064*
Y-00389*
X0006*
Y-00397*
X00064*
X-01427Y00251D02*
Y00247D01*
X-01419*
Y00251*
X-01415*
Y00259*
X-01419*
Y00263*
X-01427*
Y00259*
X-01431*
Y00251*
X-01427*
X-0146Y00025D02*
Y00021D01*
X-01452*
Y00025*
X-01448*
Y00033*
X-01452*
Y00037*
X-0146*
Y00033*
X-01464*
Y00025*
X-0146*
X-01194D02*
Y00021D01*
X-01186*
Y00025*
X-01182*
Y00033*
X-01186*
Y00037*
X-01194*
Y00033*
X-01198*
Y00025*
X-01194*
X-01192Y00094D02*
Y0009D01*
X-01184*
Y00094*
X-0118*
Y00102*
X-01184*
Y00106*
X-01192*
Y00102*
X-01196*
Y00094*
X-01192*
X-01334D02*
Y0009D01*
X-01326*
Y00094*
X-01322*
Y00102*
X-01326*
Y00106*
X-01334*
Y00102*
X-01338*
Y00094*
X-01334*
X-00131Y00714D02*
Y0071D01*
X-00123*
Y00714*
X-00119*
Y00722*
X-00123*
Y00726*
X-00131*
Y00722*
X-00135*
Y00714*
X-00131*
X-00254Y-00504D02*
Y-00508D01*
X-00246*
Y-00504*
X-00242*
Y-00496*
X-00246*
Y-00492*
X-00254*
Y-00496*
X-00258*
Y-00504*
X-00254*
X-00204Y-00454D02*
Y-00458D01*
X-00196*
Y-00454*
X-00192*
Y-00446*
X-00196*
Y-00442*
X-00204*
Y-00446*
X-00208*
Y-00454*
X-00204*
X00202Y-00348D02*
Y-00352D01*
X0021*
Y-00348*
X00214*
Y-0034*
X0021*
Y-00336*
X00202*
Y-0034*
X00198*
Y-00348*
X00202*
X00046Y-00154D02*
Y-00158D01*
X00054*
Y-00154*
X00058*
Y-00146*
X00054*
Y-00142*
X00046*
Y-00146*
X00042*
Y-00154*
X00046*
X-01099Y-00614D02*
Y-00618D01*
X-01091*
Y-00614*
X-01087*
Y-00606*
X-01091*
Y-00602*
X-01099*
Y-00606*
X-01103*
Y-00614*
X-01099*
X-01139Y-00569D02*
Y-00573D01*
X-01131*
Y-00569*
X-01127*
Y-00561*
X-01131*
Y-00557*
X-01139*
Y-00561*
X-01143*
Y-00569*
X-01139*
X-01079Y-00544D02*
Y-00548D01*
X-01071*
Y-00544*
X-01067*
Y-00536*
X-01071*
Y-00532*
X-01079*
Y-00536*
X-01083*
Y-00544*
X-01079*
X-01139Y-00509D02*
Y-00513D01*
X-01131*
Y-00509*
X-01127*
Y-00501*
X-01131*
Y-00497*
X-01139*
Y-00501*
X-01143*
Y-00509*
X-01139*
X-00084Y-00039D02*
Y-00043D01*
X-00076*
Y-00039*
X-00072*
Y-00031*
X-00076*
Y-00027*
X-00084*
Y-00031*
X-00088*
Y-00039*
X-00084*
X-01191Y00319D02*
X-01187D01*
X-01183Y00323*
X-01179Y00319*
X-01175*
Y00323*
X-01179Y00327*
X-01175Y00331*
Y00335*
X-01179*
X-01183Y00331*
X-01187Y00335*
X-01191*
Y00331*
X-01187Y00327*
X-01191Y00323*
Y00319*
X-01234D02*
X-0123D01*
X-01226Y00323*
X-01222Y00319*
X-01218*
Y00323*
X-01222Y00327*
X-01218Y00331*
Y00335*
X-01222*
X-01226Y00331*
X-0123Y00335*
X-01234*
Y00331*
X-0123Y00327*
X-01234Y00323*
Y00319*
X-01191Y00276D02*
X-01187D01*
X-01183Y0028*
X-01179Y00276*
X-01175*
Y0028*
X-01179Y00284*
X-01175Y00288*
Y00292*
X-01179*
X-01183Y00288*
X-01187Y00292*
X-01191*
Y00288*
X-01187Y00284*
X-01191Y0028*
Y00276*
X-01234D02*
X-0123D01*
X-01226Y0028*
X-01222Y00276*
X-01218*
Y0028*
X-01222Y00284*
X-01218Y00288*
Y00292*
X-01222*
X-01226Y00288*
X-0123Y00292*
X-01234*
Y00288*
X-0123Y00284*
X-01234Y0028*
Y00276*
X-01191Y00233D02*
X-01187D01*
X-01183Y00237*
X-01179Y00233*
X-01175*
Y00237*
X-01179Y00241*
X-01175Y00245*
Y00249*
X-01179*
X-01183Y00245*
X-01187Y00249*
X-01191*
Y00245*
X-01187Y00241*
X-01191Y00237*
Y00233*
X-01234D02*
X-0123D01*
X-01226Y00237*
X-01222Y00233*
X-01218*
Y00237*
X-01222Y00241*
X-01218Y00245*
Y00249*
X-01222*
X-01226Y00245*
X-0123Y00249*
X-01234*
Y00245*
X-0123Y00241*
X-01234Y00237*
Y00233*
X-01604Y00216D02*
Y00212D01*
X-01596*
Y00216*
X-01592*
Y00224*
X-01596*
Y00228*
X-01604*
Y00224*
X-01608*
Y00216*
X-01604*
Y00136D02*
Y00132D01*
X-01596*
Y00136*
X-01592*
Y00144*
X-01596*
Y00148*
X-01604*
Y00144*
X-01608*
Y00136*
X-01604*
X-01474Y00726D02*
Y00722D01*
X-01466*
Y00726*
X-01462*
Y00734*
X-01466*
Y00738*
X-01474*
Y00734*
X-01478*
Y00726*
X-01474*
X-00164Y-01034D02*
Y-01038D01*
X-00156*
Y-01034*
X-00152*
Y-01026*
X-00156*
Y-01022*
X-00164*
Y-01026*
X-00168*
Y-01034*
X-00164*
X-00122Y-00885D02*
Y-00889D01*
X-00114*
Y-00885*
X-0011*
Y-00877*
X-00114*
Y-00873*
X-00122*
Y-00877*
X-00126*
Y-00885*
X-00122*
X-02078Y-00047D02*
Y-00051D01*
X-0207*
Y-00047*
X-02066*
Y-00039*
X-0207*
Y-00035*
X-02078*
Y-00039*
X-02082*
Y-00047*
X-02078*
X0Y00716D02*
Y00712D01*
X00007*
Y00716*
X00011*
Y00724*
X00007*
Y00728*
X0*
Y00724*
X-00004*
Y00716*
X0*
X00051Y00661D02*
Y00657D01*
X00059*
Y00661*
X00063*
Y00669*
X00059*
Y00673*
X00051*
Y00669*
X00047*
Y00661*
X00051*
X-00106Y00767D02*
Y00763D01*
X-00098*
Y00767*
X-00094*
Y00775*
X-00098*
Y00779*
X-00106*
Y00775*
X-0011*
Y00767*
X-00106*
X-0008Y0136D02*
Y01356D01*
X-00072*
Y0136*
X-00068*
Y01368*
X-00072*
Y01372*
X-0008*
Y01368*
X-00084*
Y0136*
X-0008*
G54D137*
X-01999Y00787D02*
D01*
X-01999Y00787*
X-01999Y00788*
X-02Y00789*
X-02Y00789*
X-02Y0079*
X-02Y0079*
X-02Y00791*
X-02001Y00791*
X-02001Y00792*
X-02001Y00792*
X-02002Y00792*
X-02002Y00793*
X-02002Y00793*
X-02003Y00794*
X-02003Y00794*
X-02004Y00794*
X-02004Y00794*
X-02005Y00795*
X-02005Y00795*
X-02006Y00795*
X-02007Y00795*
X-02007Y00795*
X-02008*
X-02008Y00795*
X-02009Y00795*
X-02009Y00795*
X-0201Y00795*
X-0201Y00794*
X-02011Y00794*
X-02011Y00794*
X-02012Y00794*
X-02012Y00793*
X-02013Y00793*
X-02013Y00792*
X-02014Y00792*
X-02014Y00792*
X-02014Y00791*
X-02014Y00791*
X-02015Y0079*
X-02015Y0079*
X-02015Y00789*
X-02015Y00789*
X-02015Y00788*
X-02015Y00787*
X-02015Y00787*
X-02015Y00786*
X-02015Y00786*
X-02015Y00785*
X-02015Y00785*
X-02015Y00784*
X-02015Y00784*
X-02014Y00783*
X-02014Y00783*
X-02014Y00782*
X-02014Y00782*
X-02013Y00781*
X-02013Y00781*
X-02012Y00781*
X-02012Y0078*
X-02011Y0078*
X-02011Y0078*
X-0201Y00779*
X-0201Y00779*
X-02009Y00779*
X-02009Y00779*
X-02008Y00779*
X-02008Y00779*
X-02007*
X-02007Y00779*
X-02006Y00779*
X-02005Y00779*
X-02005Y00779*
X-02004Y00779*
X-02004Y0078*
X-02003Y0078*
X-02003Y0078*
X-02002Y00781*
X-02002Y00781*
X-02002Y00781*
X-02001Y00782*
X-02001Y00782*
X-02001Y00783*
X-02Y00783*
X-02Y00784*
X-02Y00784*
X-02Y00785*
X-02Y00785*
X-01999Y00786*
X-01999Y00786*
X-01999Y00787*
Y-00669D02*
D01*
X-01999Y-00668*
X-01999Y-00668*
X-02Y-00667*
X-02Y-00667*
X-02Y-00666*
X-02Y-00666*
X-02Y-00665*
X-02001Y-00665*
X-02001Y-00664*
X-02001Y-00664*
X-02002Y-00663*
X-02002Y-00663*
X-02002Y-00662*
X-02003Y-00662*
X-02003Y-00662*
X-02004Y-00662*
X-02004Y-00661*
X-02005Y-00661*
X-02005Y-00661*
X-02006Y-00661*
X-02007Y-00661*
X-02007Y-00661*
X-02008*
X-02008Y-00661*
X-02009Y-00661*
X-02009Y-00661*
X-0201Y-00661*
X-0201Y-00661*
X-02011Y-00662*
X-02011Y-00662*
X-02012Y-00662*
X-02012Y-00662*
X-02013Y-00663*
X-02013Y-00663*
X-02014Y-00664*
X-02014Y-00664*
X-02014Y-00665*
X-02014Y-00665*
X-02015Y-00666*
X-02015Y-00666*
X-02015Y-00667*
X-02015Y-00667*
X-02015Y-00668*
X-02015Y-00668*
X-02015Y-00669*
X-02015Y-00669*
X-02015Y-0067*
X-02015Y-0067*
X-02015Y-00671*
X-02015Y-00672*
X-02015Y-00672*
X-02014Y-00673*
X-02014Y-00673*
X-02014Y-00673*
X-02014Y-00674*
X-02013Y-00674*
X-02013Y-00675*
X-02012Y-00675*
X-02012Y-00675*
X-02011Y-00676*
X-02011Y-00676*
X-0201Y-00676*
X-0201Y-00676*
X-02009Y-00677*
X-02009Y-00677*
X-02008Y-00677*
X-02008Y-00677*
X-02007*
X-02007Y-00677*
X-02006Y-00677*
X-02005Y-00677*
X-02005Y-00676*
X-02004Y-00676*
X-02004Y-00676*
X-02003Y-00676*
X-02003Y-00675*
X-02002Y-00675*
X-02002Y-00675*
X-02002Y-00674*
X-02001Y-00674*
X-02001Y-00673*
X-02001Y-00673*
X-02Y-00673*
X-02Y-00672*
X-02Y-00672*
X-02Y-00671*
X-02Y-0067*
X-01999Y-0067*
X-01999Y-00669*
X-01999Y-00669*
X02015D02*
D01*
X02015Y-00668*
X02015Y-00668*
X02015Y-00667*
X02015Y-00667*
X02015Y-00666*
X02015Y-00666*
X02014Y-00665*
X02014Y-00665*
X02014Y-00664*
X02014Y-00664*
X02013Y-00663*
X02013Y-00663*
X02012Y-00662*
X02012Y-00662*
X02011Y-00662*
X02011Y-00662*
X0201Y-00661*
X0201Y-00661*
X02009Y-00661*
X02009Y-00661*
X02008Y-00661*
X02008Y-00661*
X02007*
X02007Y-00661*
X02006Y-00661*
X02005Y-00661*
X02005Y-00661*
X02004Y-00661*
X02004Y-00662*
X02003Y-00662*
X02003Y-00662*
X02002Y-00662*
X02002Y-00663*
X02002Y-00663*
X02001Y-00664*
X02001Y-00664*
X02001Y-00665*
X02Y-00665*
X02Y-00666*
X02Y-00666*
X02Y-00667*
X02Y-00667*
X01999Y-00668*
X01999Y-00668*
X01999Y-00669*
X01999Y-00669*
X01999Y-0067*
X02Y-0067*
X02Y-00671*
X02Y-00672*
X02Y-00672*
X02Y-00673*
X02001Y-00673*
X02001Y-00673*
X02001Y-00674*
X02002Y-00674*
X02002Y-00675*
X02002Y-00675*
X02003Y-00675*
X02003Y-00676*
X02004Y-00676*
X02004Y-00676*
X02005Y-00676*
X02005Y-00677*
X02006Y-00677*
X02007Y-00677*
X02007Y-00677*
X02008*
X02008Y-00677*
X02009Y-00677*
X02009Y-00677*
X0201Y-00676*
X0201Y-00676*
X02011Y-00676*
X02011Y-00676*
X02012Y-00675*
X02012Y-00675*
X02013Y-00675*
X02013Y-00674*
X02014Y-00674*
X02014Y-00673*
X02014Y-00673*
X02014Y-00673*
X02015Y-00672*
X02015Y-00672*
X02015Y-00671*
X02015Y-0067*
X02015Y-0067*
X02015Y-00669*
X02015Y-00669*
M02*