%FSTAX23Y23*%
%MOIN*%
%SFA1B1*%

%IPPOS*%
%AMD87*
4,1,8,0.041400,-0.009800,0.041400,0.009800,0.027600,0.023700,-0.027600,0.023700,-0.041400,0.009800,-0.041400,-0.009800,-0.027600,-0.023700,0.027600,-0.023700,0.041400,-0.009800,0.0*
1,1,0.027685,0.027600,-0.009800*
1,1,0.027685,0.027600,0.009800*
1,1,0.027685,-0.027600,0.009800*
1,1,0.027685,-0.027600,-0.009800*
%
%ADD82R,0.029653X0.045401*%
%ADD83C,0.058000*%
%ADD84C,0.244220*%
%ADD85C,0.008000*%
%ADD86C,0.065086*%
G04~CAMADD=87~8~0.0~0.0~473.7~828.0~138.4~0.0~15~0.0~0.0~0.0~0.0~0~0.0~0.0~0.0~0.0~0~0.0~0.0~0.0~270.0~828.0~474.0*
%ADD87D87*%
%ADD88R,0.070992X0.094614*%
%ADD89R,0.035559X0.078866*%
%ADD90R,0.082803X0.047370*%
%ADD91R,0.061149X0.023748*%
%ADD92R,0.067055X0.039496*%
%ADD93R,0.059181X0.058787*%
%ADD94R,0.059181X0.070992*%
%ADD95R,0.067055X0.074929*%
%ADD96R,0.074929X0.067055*%
%ADD97R,0.078866X0.035559*%
%ADD98R,0.094614X0.070992*%
%ADD99R,0.023748X0.090677*%
%ADD100R,0.045401X0.029653*%
%ADD101R,0.045401X0.027685*%
%ADD102R,0.031622X0.094614*%
%ADD103R,0.027685X0.045401*%
%ADD104R,0.031622X0.051307*%
%ADD105R,0.031622X0.049338*%
%ADD106R,0.043433X0.043433*%
%ADD107R,0.037527X0.059181*%
%ADD108R,0.023748X0.031622*%
%ADD109R,0.047370X0.047370*%
%ADD110R,0.033590X0.049338*%
%ADD111R,0.045401X0.118236*%
%ADD112R,0.059181X0.078866*%
%ADD113R,0.366267X0.403668*%
%ADD114R,0.171385X0.047370*%
%ADD115R,0.069023X0.045401*%
%ADD116R,0.035559X0.063118*%
%ADD117R,0.049338X0.031622*%
%ADD118R,0.039496X0.033590*%
%ADD119O,0.019811X0.078866*%
%ADD120O,0.078866X0.019811*%
%ADD121R,0.049338X0.033590*%
%ADD122R,0.059181X0.082803*%
%ADD123R,0.043433X0.049338*%
%ADD124O,0.074929X0.021779*%
%ADD125R,0.102488X0.141858*%
%ADD126R,0.045401X0.069023*%
%ADD127R,0.047370X0.051307*%
%ADD128R,0.067055X0.029653*%
%ADD129R,0.047370X0.047370*%
%ADD130R,0.029653X0.067055*%
%ADD131R,0.037527X0.065086*%
%LNpcb_singleledrow-1*%
%LPD*%
G54D82*
X00807Y00555D03*
X00744D03*
X01237Y-00152D03*
X01174D03*
X00813D03*
X0075D03*
X01261Y00073D03*
X01324D03*
X00397Y0107D03*
X00334D03*
X-00387Y00856D03*
X-00324D03*
Y00954D03*
X-00387D03*
Y01029D03*
X-00324D03*
X-00588Y00954D03*
X-00651D03*
X-00933Y0031D03*
X-00996D03*
X-00933Y00374D03*
X-00996D03*
X-01228Y00098D03*
X-01291D03*
G54D83*
X0095Y0125D03*
X0085D03*
X0075D03*
X-0075D03*
X-0085D03*
X-0095D03*
Y-0125D03*
X-0085D03*
X-0075D03*
X-0065D03*
X-0055D03*
X-0045D03*
X-0035D03*
X-0025D03*
X-0015D03*
X-0005D03*
X0005D03*
X0015D03*
X0025D03*
X0035D03*
X0045D03*
X0055D03*
X0065D03*
X0075D03*
X0085D03*
X0095D03*
G54D84*
X-02007Y00787D03*
Y-00669D03*
X02007D03*
G54D85*
X0109Y-00606D03*
X0132D03*
X00667D03*
X00897D03*
X-01248D03*
X-01576D03*
X-01055D03*
X-00775D03*
X-00253D03*
X-00582D03*
X00576Y00945D03*
Y00616D03*
X00066Y-00606D03*
X00346D03*
X-01692Y0059D03*
Y00311D03*
G54D86*
X01949Y00742D03*
Y00545D03*
G54D87*
X02056Y00505D03*
Y00781D03*
G54D88*
X01045Y-00681D03*
X01366D03*
X00622D03*
X00942D03*
X-01202D03*
X-01622D03*
X-011D03*
X-0073D03*
X-00208D03*
X-00627D03*
X00021D03*
X00391D03*
G54D89*
X01279Y-00551D03*
X0123D03*
X01181D03*
X01131D03*
X00856D03*
X00807D03*
X00757D03*
X00708D03*
X-01486D03*
X-01437D03*
X-01387D03*
X-01338D03*
X-01289D03*
X-01535D03*
X-00816D03*
X-00866D03*
X-00915D03*
X-00964D03*
X-01013D03*
X-00492D03*
X-00442D03*
X-00393D03*
X-00344D03*
X-00295D03*
X-00541D03*
X00305D03*
X00255D03*
X00206D03*
X00157D03*
X00108D03*
G54D90*
X02056Y0053D03*
Y00756D03*
G54D91*
X01949Y00694D03*
Y00669D03*
Y00643D03*
Y00618D03*
Y00592D03*
G54D92*
X0145Y-00042D03*
Y0D03*
Y00043D03*
Y00087D03*
Y0013D03*
Y00173D03*
Y00216D03*
Y0026D03*
G54D93*
X01509Y-00127D03*
X01801D03*
G54D94*
X01446Y-00103D03*
G54D95*
X0145Y004D03*
G54D96*
X02039Y004D03*
Y-00111D03*
G54D97*
X00521Y00707D03*
Y00756D03*
Y00805D03*
Y00854D03*
Y00904D03*
Y00658D03*
X-01637Y00352D03*
Y00401D03*
Y0045D03*
Y005D03*
Y00549D03*
G54D98*
X00651Y0099D03*
Y00571D03*
X-01767Y00635D03*
Y00265D03*
G54D99*
X00106Y00401D03*
X00059D03*
X00011D03*
G54D100*
X01348Y-00543D03*
Y-0048D03*
X00925Y-00543D03*
Y-0048D03*
X01784Y00775D03*
Y00837D03*
X-00137Y01336D03*
Y01399D03*
X-00196Y01336D03*
Y01399D03*
X00238Y00972D03*
Y01035D03*
X-00238D03*
Y00972D03*
X00238Y00539D03*
Y00602D03*
X-00238D03*
Y00539D03*
X-0021Y0037D03*
Y00307D03*
G54D101*
X01348Y-00374D03*
Y-00433D03*
X01062Y-00484D03*
Y-00543D03*
Y-00374D03*
Y-00433D03*
X00925Y-00374D03*
Y-00433D03*
X00639Y-00484D03*
Y-00543D03*
Y-00374D03*
Y-00433D03*
X01776Y01304D03*
Y01245D03*
X-01776Y00917D03*
Y00976D03*
X005Y00301D03*
Y0036D03*
X00417D03*
Y00301D03*
X00307Y00196D03*
Y00255D03*
X-01299Y006D03*
Y00541D03*
X-00866Y-00403D03*
Y-00462D03*
X00305Y-00452D03*
Y-00393D03*
X00255Y-00452D03*
Y-00393D03*
X00206Y-00452D03*
Y-00393D03*
X00157Y-00452D03*
Y-00393D03*
X-00079Y-00822D03*
Y-00881D03*
G54D102*
X00707Y-00235D03*
X00757D03*
X00807D03*
X00857D03*
X00707Y-00424D03*
X00757D03*
X00807D03*
X00857D03*
X0113Y-00235D03*
X0118D03*
X0123D03*
X0128D03*
X0113Y-00424D03*
X0118D03*
X0123D03*
X0128D03*
G54D103*
X01263Y-00044D03*
X01322D03*
X01263Y00014D03*
X01322D03*
X01263Y00132D03*
X01322D03*
X01263Y00191D03*
X01322D03*
X01263Y0025D03*
X01322D03*
X-00935Y00437D03*
X-00994D03*
X-01348Y00029D03*
X-01407D03*
X-0123D03*
X-01289D03*
X-01357Y00553D03*
X-01416D03*
X-01259Y-00314D03*
X-012D03*
X-00718D03*
X-00777D03*
X-0002Y-01122D03*
X-00079D03*
G54D104*
X01859Y00607D03*
X01821D03*
X01784D03*
Y00705D03*
X01821D03*
X01859D03*
G54D105*
X01721Y00759D03*
X01684D03*
X01646D03*
Y00853D03*
X01721D03*
X-01192Y-0048D03*
X-0123D03*
X-01267D03*
Y-00385D03*
X-01192D03*
X-00087Y-01047D03*
X-00012D03*
Y-00952D03*
X-0005D03*
X-00087D03*
G54D106*
X01703Y0068D03*
X01593D03*
Y00632D03*
X01703D03*
G54D107*
X01592Y00566D03*
X01505D03*
G54D108*
X01496Y00676D03*
X01531D03*
X01496Y00636D03*
X01531D03*
G54D109*
X01574Y00781D03*
Y00831D03*
X00307Y00349D03*
Y003D03*
G54D110*
X01946Y00952D03*
X01879D03*
X-01946Y01268D03*
X-01879D03*
X00311Y00472D03*
X00244D03*
X00311Y00413D03*
X00244D03*
X-00334Y00377D03*
X-00401D03*
X-00333Y-01175D03*
X-00266D03*
X-00533D03*
X-00466D03*
X-00733D03*
X-00666D03*
X-00933D03*
X-00866D03*
G54D111*
X01979Y01062D03*
X01847D03*
X-01979Y01158D03*
X-01847D03*
X-00992Y00207D03*
X-0086D03*
X-01423Y00182D03*
X-01555D03*
G54D112*
X01968Y01177D03*
X01858D03*
X-01968Y01044D03*
X-01858D03*
G54D113*
X01252Y01111D03*
X-01252Y0111D03*
G54D114*
X01646Y00977D03*
Y01044D03*
Y01111D03*
Y01178D03*
Y01245D03*
X-01646Y01244D03*
Y01177D03*
Y0111D03*
Y01043D03*
Y00976D03*
G54D115*
X00265Y01321D03*
Y01414D03*
G54D116*
X00175Y01318D03*
X001D03*
X00175Y01397D03*
X001D03*
X-00066Y01466D03*
X00007D03*
G54D117*
X-00076Y01405D03*
Y0133D03*
X00017D03*
Y01368D03*
Y01405D03*
X-00535Y00954D03*
Y00992D03*
Y01029D03*
X-0044D03*
Y00954D03*
G54D118*
X00194Y01466D03*
X00061D03*
G54D119*
X00147Y00568D03*
X00127D03*
X00108D03*
X00088D03*
X00068D03*
X00049D03*
X00029D03*
X00009D03*
X-00009D03*
X-00029D03*
X-00049D03*
X-00068D03*
X-00088D03*
X-00108D03*
X-00127D03*
X-00147D03*
Y01005D03*
X-00127D03*
X-00108D03*
X-00088D03*
X-00068D03*
X-00049D03*
X-00029D03*
X-00009D03*
X00009D03*
X00029D03*
X00049D03*
X00068D03*
X00088D03*
X00108D03*
X00127D03*
X00147D03*
G54D120*
X-00218Y00639D03*
Y00659D03*
Y00679D03*
Y00698D03*
Y00718D03*
Y00738D03*
Y00757D03*
Y00777D03*
Y00797D03*
Y00816D03*
Y00836D03*
Y00856D03*
Y00875D03*
Y00895D03*
Y00915D03*
Y00935D03*
X00218D03*
Y00915D03*
Y00895D03*
Y00875D03*
Y00856D03*
Y00836D03*
Y00816D03*
Y00797D03*
Y00777D03*
Y00757D03*
Y00738D03*
Y00718D03*
Y00698D03*
Y00679D03*
Y00659D03*
Y00639D03*
G54D121*
X0019Y00137D03*
Y0007D03*
Y00275D03*
Y00208D03*
X-00269Y00372D03*
Y00305D03*
G54D122*
X001Y0011D03*
X-00116D03*
Y00236D03*
X001D03*
G54D123*
X-00395Y00299D03*
X-0034D03*
G54D124*
X-01092Y00399D03*
Y00374D03*
Y00348D03*
Y00322D03*
Y00297D03*
Y00271D03*
Y00246D03*
Y0022D03*
Y00194D03*
Y00169D03*
X-01316Y00399D03*
Y00374D03*
Y00348D03*
Y00322D03*
Y00297D03*
Y00271D03*
Y00246D03*
Y0022D03*
Y00194D03*
Y00169D03*
G54D125*
X-01204Y00284D03*
G54D126*
X-0125Y00461D03*
X-01158D03*
G54D127*
X-01428Y00297D03*
X-0155D03*
X-01428Y00386D03*
X-0155D03*
X-01428Y00476D03*
X-0155D03*
G54D128*
X-01424Y00618D03*
Y00692D03*
X-01349Y00655D03*
G54D129*
X-01535Y00551D03*
X-01486D03*
X-01535Y0061D03*
X-01486D03*
G54D130*
X-00748Y-0047D03*
X-0071Y-00395D03*
X-00785D03*
G54D131*
X-00092Y-01181D03*
X-00007D03*
M02*