%FSTAX23Y23*%
%MOIN*%
%SFA1B1*%

%IPPOS*%
%ADD12C,0.010000*%
%ADD79C,0.007000*%
%ADD80C,0.005905*%
%LNpcb_singleledrow-1*%
%LPD*%
G54D12*
X-0185Y0D02*
Y01325D01*
X0185*
X0185Y0125D02*
Y01324D01*
X-0185Y-01324D02*
Y-0125D01*
Y-01324D02*
X-0185Y-01325D01*
X0185*
Y0*
X-0185Y0125D02*
X-01D01*
X-0185Y01249D02*
X-0185Y0125D01*
X-0185Y-0125D02*
Y01249D01*
X01Y0125D02*
X0185D01*
X0185Y01249*
Y-0125D02*
Y01249D01*
X01Y-0125D02*
X0185D01*
X-0185D02*
X-01D01*
X-007Y0125D02*
X007D01*
X01791Y01437D02*
Y01633D01*
X0186D02*
X01919D01*
X0186Y01437D02*
X01919D01*
X01988D02*
Y01535D01*
Y01633*
X01555Y01437D02*
Y01633D01*
X01624D02*
X01683D01*
X01624Y01437D02*
X01683D01*
X01751D02*
Y01535D01*
Y01633*
X01515Y01535D02*
Y01633D01*
Y01437D02*
Y01535D01*
X01387Y01437D02*
X01446D01*
X01387Y01633D02*
X01446D01*
X01318Y01437D02*
Y01633D01*
X01279Y01535D02*
Y01633D01*
Y01437D02*
Y01535D01*
X01151Y01437D02*
X0121D01*
X01151Y01633D02*
X0121D01*
X01082Y01437D02*
Y01633D01*
X01043Y01535D02*
Y01633D01*
Y01437D02*
Y01535D01*
X00915Y01437D02*
X00974D01*
X00915Y01633D02*
X00974D01*
X00846Y01437D02*
Y01633D01*
X00807Y01535D02*
Y01633D01*
Y01437D02*
Y01535D01*
X00679Y01437D02*
X00738D01*
X00679Y01633D02*
X00738D01*
X0061Y01437D02*
Y01633D01*
X0057Y01535D02*
Y01633D01*
Y01437D02*
Y01535D01*
X00442Y01437D02*
X00501D01*
X00442Y01633D02*
X00501D01*
X00374Y01437D02*
Y01633D01*
X00334Y01535D02*
Y01633D01*
Y01437D02*
Y01535D01*
X00206Y01437D02*
X00265D01*
X00206Y01633D02*
X00265D01*
X00137Y01437D02*
Y01633D01*
X00098Y01535D02*
Y01633D01*
Y01437D02*
Y01535D01*
X-00029Y01437D02*
X00029D01*
X-00029Y01633D02*
X00029D01*
X-00098Y01437D02*
Y01633D01*
X-00137Y01535D02*
Y01633D01*
Y01437D02*
Y01535D01*
X-00265Y01437D02*
X-00206D01*
X-00265Y01633D02*
X-00206D01*
X-00334Y01437D02*
Y01633D01*
X-00374Y01535D02*
Y01633D01*
Y01437D02*
Y01535D01*
X-00501Y01437D02*
X-00442D01*
X-00501Y01633D02*
X-00442D01*
X-0057Y01437D02*
Y01633D01*
X-0061Y01535D02*
Y01633D01*
Y01437D02*
Y01535D01*
X-00738Y01437D02*
X-00679D01*
X-00738Y01633D02*
X-00679D01*
X-00807Y01437D02*
Y01633D01*
X-00846Y01535D02*
Y01633D01*
Y01437D02*
Y01535D01*
X-00974Y01437D02*
X-00915D01*
X-00974Y01633D02*
X-00915D01*
X-01043Y01437D02*
Y01633D01*
X-01082Y01535D02*
Y01633D01*
Y01437D02*
Y01535D01*
X-0121Y01437D02*
X-01151D01*
X-0121Y01633D02*
X-01151D01*
X-01279Y01437D02*
Y01633D01*
X-01318Y01535D02*
Y01633D01*
Y01437D02*
Y01535D01*
X-01446Y01437D02*
X-01387D01*
X-01446Y01633D02*
X-01387D01*
X-01515Y01437D02*
Y01633D01*
X-01555Y01535D02*
Y01633D01*
Y01437D02*
Y01535D01*
X-01683Y01437D02*
X-01624D01*
X-01683Y01633D02*
X-01624D01*
X-01751Y01437D02*
Y01633D01*
X-01791Y01535D02*
Y01633D01*
Y01437D02*
Y01535D01*
X-01919Y01437D02*
X-0186D01*
X-01919Y01633D02*
X-0186D01*
X-01988Y01437D02*
Y01633D01*
X-01909Y00059D02*
Y00255D01*
X-02037Y00059D02*
X-01978D01*
X-02037Y00255D02*
X-01978D01*
X-02106Y00157D02*
Y00255D01*
Y00059D02*
Y00157D01*
X02106Y00059D02*
Y00255D01*
X01978Y00059D02*
X02037D01*
X01978Y00255D02*
X02037D01*
X01909Y00157D02*
Y00255D01*
Y00059D02*
Y00157D01*
G54D79*
X01917Y0168D02*
X01929D01*
X01917Y01709D02*
X01929D01*
X01681Y0168D02*
X01692D01*
X01681Y01709D02*
X01692D01*
X01444D02*
X01456D01*
X01444Y0168D02*
X01456D01*
X01208Y01709D02*
X0122D01*
X01208Y0168D02*
X0122D01*
X00972Y01709D02*
X00984D01*
X00972Y0168D02*
X00984D01*
X00736Y01709D02*
X00748D01*
X00736Y0168D02*
X00748D01*
X005Y01709D02*
X00511D01*
X005Y0168D02*
X00511D01*
X00263Y01709D02*
X00275D01*
X00263Y0168D02*
X00275D01*
X00027Y01709D02*
X00039D01*
X00027Y0168D02*
X00039D01*
X-00208Y01709D02*
X-00196D01*
X-00208Y0168D02*
X-00196D01*
X-00444Y01709D02*
X-00433D01*
X-00444Y0168D02*
X-00433D01*
X-00681Y01709D02*
X-00669D01*
X-00681Y0168D02*
X-00669D01*
X-00917Y01709D02*
X-00905D01*
X-00917Y0168D02*
X-00905D01*
X-01153Y01709D02*
X-01141D01*
X-01153Y0168D02*
X-01141D01*
X-01389Y01709D02*
X-01377D01*
X-01389Y0168D02*
X-01377D01*
X-01625Y01709D02*
X-01614D01*
X-01625Y0168D02*
X-01614D01*
X-01862Y01709D02*
X-0185D01*
X-01862Y0168D02*
X-0185D01*
X01968Y00012D02*
X0198D01*
X01968Y-00016D02*
X0198D01*
X-02047Y00012D02*
X-02035D01*
X-02047Y-00016D02*
X-02035D01*
G54D80*
X-01566Y01267D02*
Y01299D01*
X-01582*
X-01587Y01293*
Y01272*
X-01582Y01267*
X-01566*
X-01598D02*
X-01608D01*
X-01603*
Y01299*
X-01598*
X-01608*
X-01645Y01272D02*
X-0164Y01267D01*
X-01629*
X-01624Y01272*
Y01278*
X-01629Y01283*
X-0164*
X-01645Y01288*
Y01293*
X-0164Y01299*
X-01629*
X-01624Y01293*
X-01656Y01299D02*
Y01267D01*
X-01671*
X-01677Y01272*
Y01283*
X-01671Y01288*
X-01656*
X-0209Y00341D02*
Y0031D01*
X-02074*
X-02069Y00315*
Y00336*
X-02074Y00341*
X-0209*
X-02037Y0031D02*
X-02058D01*
X-02037Y0033*
Y00336*
X-02042Y00341*
X-02053*
X-02058Y00336*
X-02027Y00304D02*
X-02006D01*
X-01995Y00341D02*
Y0031D01*
X-01985Y0032*
X-01974Y0031*
Y00341*
X-01943Y00336D02*
X-01948Y00341D01*
X-01958*
X-01964Y00336*
Y0033*
X-01958Y00325*
X-01948*
X-01943Y0032*
Y00315*
X-01948Y0031*
X-01958*
X-01964Y00315*
X-01911Y0031D02*
X-01932D01*
X-01911Y0033*
Y00336*
X-01916Y00341*
X-01927*
X-01932Y00336*
X0191Y00341D02*
Y0031D01*
X01925*
X0193Y00315*
Y00336*
X01925Y00341*
X0191*
X01941Y0031D02*
X01951D01*
X01946*
Y00341*
X01941Y00336*
X01967Y00304D02*
X01988D01*
X01999Y00341D02*
Y0031D01*
X02009Y0032*
X0202Y0031*
Y00341*
X02051Y00336D02*
X02046Y00341D01*
X02035*
X0203Y00336*
Y0033*
X02035Y00325*
X02046*
X02051Y0032*
Y00315*
X02046Y0031*
X02035*
X0203Y00315*
X02083Y0031D02*
X02062D01*
X02083Y0033*
Y00336*
X02077Y00341*
X02067*
X02062Y00336*
X-02069Y-00063D02*
X-02074Y-00058D01*
X-02084*
X-0209Y-00063*
Y-00084*
X-02084Y-0009*
X-02074*
X-02069Y-00084*
X-02037Y-0009D02*
X-02058D01*
X-02037Y-00069*
Y-00063*
X-02042Y-00058*
X-02053*
X-02058Y-00063*
X-02027Y-00095D02*
X-02006D01*
X-01995Y-00058D02*
Y-0009D01*
X-01985Y-00079*
X-01974Y-0009*
Y-00058*
X-01943Y-00063D02*
X-01948Y-00058D01*
X-01958*
X-01964Y-00063*
Y-00069*
X-01958Y-00074*
X-01948*
X-01943Y-00079*
Y-00084*
X-01948Y-0009*
X-01958*
X-01964Y-00084*
X-01911Y-0009D02*
X-01932D01*
X-01911Y-00069*
Y-00063*
X-01916Y-00058*
X-01927*
X-01932Y-00063*
X0193Y-00043D02*
X01925Y-00038D01*
X01915*
X0191Y-00043*
Y-00064*
X01915Y-0007*
X01925*
X0193Y-00064*
X01941Y-0007D02*
X01951D01*
X01946*
Y-00038*
X01941Y-00043*
X01967Y-00075D02*
X01988D01*
X01999Y-00038D02*
Y-0007D01*
X02009Y-00059*
X0202Y-0007*
Y-00038*
X02051Y-00043D02*
X02046Y-00038D01*
X02035*
X0203Y-00043*
Y-00049*
X02035Y-00054*
X02046*
X02051Y-00059*
Y-00064*
X02046Y-0007*
X02035*
X0203Y-00064*
X02083Y-0007D02*
X02062D01*
X02083Y-00049*
Y-00043*
X02077Y-00038*
X02067*
X02062Y-00043*
X01805Y01397D02*
Y01366D01*
X0182*
X01826Y01371*
Y01392*
X0182Y01397*
X01805*
X01836Y01366D02*
X01847D01*
X01841*
Y01397*
X01836Y01392*
X01862Y01397D02*
X01883D01*
Y01392*
X01862Y01371*
Y01366*
X01894Y0136D02*
X01915D01*
X01925Y01397D02*
Y01366D01*
X01936Y01376*
X01946Y01366*
Y01397*
X01978Y01392D02*
X01973Y01397D01*
X01962*
X01957Y01392*
Y01387*
X01962Y01381*
X01973*
X01978Y01376*
Y01371*
X01973Y01366*
X01962*
X01957Y01371*
X01988Y01366D02*
X01999D01*
X01994*
Y01397*
X01988Y01392*
X01568Y01397D02*
Y01366D01*
X01584*
X01589Y01371*
Y01392*
X01584Y01397*
X01568*
X016Y01366D02*
X0161D01*
X01605*
Y01397*
X016Y01392*
X01647Y01397D02*
X01637Y01392D01*
X01626Y01381*
Y01371*
X01631Y01366*
X01642*
X01647Y01371*
Y01376*
X01642Y01381*
X01626*
X01658Y0136D02*
X01679D01*
X01689Y01397D02*
Y01366D01*
X017Y01376*
X0171Y01366*
Y01397*
X01742Y01392D02*
X01736Y01397D01*
X01726*
X01721Y01392*
Y01387*
X01726Y01381*
X01736*
X01742Y01376*
Y01371*
X01736Y01366*
X01726*
X01721Y01371*
X01752Y01366D02*
X01763D01*
X01757*
Y01397*
X01752Y01392*
X01812Y01758D02*
X01807Y01763D01*
X01796*
X01791Y01758*
Y01737*
X01796Y01732*
X01807*
X01812Y01737*
X01822Y01732D02*
X01833D01*
X01828*
Y01763*
X01822Y01758*
X01849Y01763D02*
X0187D01*
Y01758*
X01849Y01737*
Y01732*
X0188Y01727D02*
X01901D01*
X01912Y01763D02*
Y01732D01*
X01922Y01742*
X01933Y01732*
Y01763*
X01964Y01758D02*
X01959Y01763D01*
X01948*
X01943Y01758*
Y01753*
X01948Y01748*
X01959*
X01964Y01742*
Y01737*
X01959Y01732*
X01948*
X01943Y01737*
X01975Y01732D02*
X01985D01*
X0198*
Y01763*
X01975Y01758*
X01576D02*
X0157Y01763D01*
X0156*
X01555Y01758*
Y01737*
X0156Y01732*
X0157*
X01576Y01737*
X01586Y01732D02*
X01597D01*
X01591*
Y01763*
X01586Y01758*
X01633Y01763D02*
X01623Y01758D01*
X01612Y01748*
Y01737*
X01618Y01732*
X01628*
X01633Y01737*
Y01742*
X01628Y01748*
X01612*
X01644Y01727D02*
X01665D01*
X01675Y01763D02*
Y01732D01*
X01686Y01742*
X01696Y01732*
Y01763*
X01728Y01758D02*
X01723Y01763D01*
X01712*
X01707Y01758*
Y01753*
X01712Y01748*
X01723*
X01728Y01742*
Y01737*
X01723Y01732*
X01712*
X01707Y01737*
X01738Y01732D02*
X01749D01*
X01744*
Y01763*
X01738Y01758*
X01339D02*
X01334Y01763D01*
X01324*
X01318Y01758*
Y01737*
X01324Y01732*
X01334*
X01339Y01737*
X0135Y01732D02*
X0136D01*
X01355*
Y01763*
X0135Y01758*
X01397Y01763D02*
X01376D01*
Y01748*
X01387Y01753*
X01392*
X01397Y01748*
Y01737*
X01392Y01732*
X01381*
X01376Y01737*
X01408Y01727D02*
X01429D01*
X01439Y01763D02*
Y01732D01*
X0145Y01742*
X0146Y01732*
Y01763*
X01492Y01758D02*
X01486Y01763D01*
X01476*
X01471Y01758*
Y01753*
X01476Y01748*
X01486*
X01492Y01742*
Y01737*
X01486Y01732*
X01476*
X01471Y01737*
X01502Y01732D02*
X01513D01*
X01507*
Y01763*
X01502Y01758*
X01103D02*
X01098Y01763D01*
X01087*
X01082Y01758*
Y01737*
X01087Y01732*
X01098*
X01103Y01737*
X01114Y01732D02*
X01124D01*
X01119*
Y01763*
X01114Y01758*
X01156Y01732D02*
Y01763D01*
X0114Y01748*
X01161*
X01171Y01727D02*
X01192D01*
X01203Y01763D02*
Y01732D01*
X01213Y01742*
X01224Y01732*
Y01763*
X01255Y01758D02*
X0125Y01763D01*
X0124*
X01234Y01758*
Y01753*
X0124Y01748*
X0125*
X01255Y01742*
Y01737*
X0125Y01732*
X0124*
X01234Y01737*
X01266Y01732D02*
X01276D01*
X01271*
Y01763*
X01266Y01758*
X00867D02*
X00862Y01763D01*
X00851*
X00846Y01758*
Y01737*
X00851Y01732*
X00862*
X00867Y01737*
X00877Y01732D02*
X00888D01*
X00883*
Y01763*
X00877Y01758*
X00904D02*
X00909Y01763D01*
X00919*
X00925Y01758*
Y01753*
X00919Y01748*
X00914*
X00919*
X00925Y01742*
Y01737*
X00919Y01732*
X00909*
X00904Y01737*
X00935Y01727D02*
X00956D01*
X00967Y01763D02*
Y01732D01*
X00977Y01742*
X00988Y01732*
Y01763*
X01019Y01758D02*
X01014Y01763D01*
X01003*
X00998Y01758*
Y01753*
X01003Y01748*
X01014*
X01019Y01742*
Y01737*
X01014Y01732*
X01003*
X00998Y01737*
X0103Y01732D02*
X0104D01*
X01035*
Y01763*
X0103Y01758*
X00631D02*
X00625Y01763D01*
X00615*
X0061Y01758*
Y01737*
X00615Y01732*
X00625*
X00631Y01737*
X00641Y01732D02*
X00652D01*
X00646*
Y01763*
X00641Y01758*
X00688Y01732D02*
X00667D01*
X00688Y01753*
Y01758*
X00683Y01763*
X00673*
X00667Y01758*
X00699Y01727D02*
X0072D01*
X0073Y01763D02*
Y01732D01*
X00741Y01742*
X00751Y01732*
Y01763*
X00783Y01758D02*
X00778Y01763D01*
X00767*
X00762Y01758*
Y01753*
X00767Y01748*
X00778*
X00783Y01742*
Y01737*
X00778Y01732*
X00767*
X00762Y01737*
X00793Y01732D02*
X00804D01*
X00799*
Y01763*
X00793Y01758*
X00395D02*
X00389Y01763D01*
X00379*
X00374Y01758*
Y01737*
X00379Y01732*
X00389*
X00395Y01737*
X00405Y01732D02*
X00415D01*
X0041*
Y01763*
X00405Y01758*
X00431Y01732D02*
X00442D01*
X00436*
Y01763*
X00431Y01758*
X00457Y01727D02*
X00478D01*
X00489Y01763D02*
Y01732D01*
X00499Y01742*
X0051Y01732*
Y01763*
X00541Y01758D02*
X00536Y01763D01*
X00526*
X0052Y01758*
Y01753*
X00526Y01748*
X00536*
X00541Y01742*
Y01737*
X00536Y01732*
X00526*
X0052Y01737*
X00552Y01732D02*
X00562D01*
X00557*
Y01763*
X00552Y01758*
X00158D02*
X00153Y01763D01*
X00143*
X00137Y01758*
Y01737*
X00143Y01732*
X00153*
X00158Y01737*
X00169Y01732D02*
X00179D01*
X00174*
Y01763*
X00169Y01758*
X00195D02*
X002Y01763D01*
X00211*
X00216Y01758*
Y01737*
X00211Y01732*
X002*
X00195Y01737*
Y01758*
X00227Y01727D02*
X00247D01*
X00258Y01763D02*
Y01732D01*
X00268Y01742*
X00279Y01732*
Y01763*
X0031Y01758D02*
X00305Y01763D01*
X00295*
X00289Y01758*
Y01753*
X00295Y01748*
X00305*
X0031Y01742*
Y01737*
X00305Y01732*
X00295*
X00289Y01737*
X00321Y01732D02*
X00331D01*
X00326*
Y01763*
X00321Y01758*
X-00077D02*
X-00082Y01763D01*
X-00093*
X-00098Y01758*
Y01737*
X-00093Y01732*
X-00082*
X-00077Y01737*
X-00066D02*
X-00061Y01732D01*
X-00051*
X-00045Y01737*
Y01758*
X-00051Y01763*
X-00061*
X-00066Y01758*
Y01753*
X-00061Y01748*
X-00045*
X-00035Y01727D02*
X-00014D01*
X-00003Y01763D02*
Y01732D01*
X00006Y01742*
X00017Y01732*
Y01763*
X00048Y01758D02*
X00043Y01763D01*
X00032*
X00027Y01758*
Y01753*
X00032Y01748*
X00043*
X00048Y01742*
Y01737*
X00043Y01732*
X00032*
X00027Y01737*
X00059Y01732D02*
X00069D01*
X00064*
Y01763*
X00059Y01758*
X-00313D02*
X-00318Y01763D01*
X-00329*
X-00334Y01758*
Y01737*
X-00329Y01732*
X-00318*
X-00313Y01737*
X-00303Y01758D02*
X-00297Y01763D01*
X-00287*
X-00282Y01758*
Y01753*
X-00287Y01748*
X-00282Y01742*
Y01737*
X-00287Y01732*
X-00297*
X-00303Y01737*
Y01742*
X-00297Y01748*
X-00303Y01753*
Y01758*
X-00297Y01748D02*
X-00287D01*
X-00271Y01727D02*
X-0025D01*
X-0024Y01763D02*
Y01732D01*
X-00229Y01742*
X-00219Y01732*
Y01763*
X-00187Y01758D02*
X-00192Y01763D01*
X-00203*
X-00208Y01758*
Y01753*
X-00203Y01748*
X-00192*
X-00187Y01742*
Y01737*
X-00192Y01732*
X-00203*
X-00208Y01737*
X-00177Y01732D02*
X-00166D01*
X-00171*
Y01763*
X-00177Y01758*
X-00549D02*
X-00555Y01763D01*
X-00565*
X-0057Y01758*
Y01737*
X-00565Y01732*
X-00555*
X-00549Y01737*
X-00539Y01763D02*
X-00518D01*
Y01758*
X-00539Y01737*
Y01732*
X-00507Y01727D02*
X-00486D01*
X-00476Y01763D02*
Y01732D01*
X-00465Y01742*
X-00455Y01732*
Y01763*
X-00423Y01758D02*
X-00429Y01763D01*
X-00439*
X-00444Y01758*
Y01753*
X-00439Y01748*
X-00429*
X-00423Y01742*
Y01737*
X-00429Y01732*
X-00439*
X-00444Y01737*
X-00413Y01732D02*
X-00402D01*
X-00408*
Y01763*
X-00413Y01758*
X-00786D02*
X-00791Y01763D01*
X-00801*
X-00807Y01758*
Y01737*
X-00801Y01732*
X-00791*
X-00786Y01737*
X-00754Y01763D02*
X-00765Y01758D01*
X-00775Y01748*
Y01737*
X-0077Y01732*
X-00759*
X-00754Y01737*
Y01742*
X-00759Y01748*
X-00775*
X-00744Y01727D02*
X-00723D01*
X-00712Y01763D02*
Y01732D01*
X-00702Y01742*
X-00691Y01732*
Y01763*
X-0066Y01758D02*
X-00665Y01763D01*
X-00675*
X-00681Y01758*
Y01753*
X-00675Y01748*
X-00665*
X-0066Y01742*
Y01737*
X-00665Y01732*
X-00675*
X-00681Y01737*
X-00649Y01732D02*
X-00639D01*
X-00644*
Y01763*
X-00649Y01758*
X-01022D02*
X-01027Y01763D01*
X-01038*
X-01043Y01758*
Y01737*
X-01038Y01732*
X-01027*
X-01022Y01737*
X-0099Y01763D02*
X-01011D01*
Y01748*
X-01001Y01753*
X-00996*
X-0099Y01748*
Y01737*
X-00996Y01732*
X-01006*
X-01011Y01737*
X-0098Y01727D02*
X-00959D01*
X-00948Y01763D02*
Y01732D01*
X-00938Y01742*
X-00927Y01732*
Y01763*
X-00896Y01758D02*
X-00901Y01763D01*
X-00912*
X-00917Y01758*
Y01753*
X-00912Y01748*
X-00901*
X-00896Y01742*
Y01737*
X-00901Y01732*
X-00912*
X-00917Y01737*
X-00885Y01732D02*
X-00875D01*
X-0088*
Y01763*
X-00885Y01758*
X-01258D02*
X-01263Y01763D01*
X-01274*
X-01279Y01758*
Y01737*
X-01274Y01732*
X-01263*
X-01258Y01737*
X-01232Y01732D02*
Y01763D01*
X-01248Y01748*
X-01227*
X-01216Y01727D02*
X-01195D01*
X-01185Y01763D02*
Y01732D01*
X-01174Y01742*
X-01164Y01732*
Y01763*
X-01132Y01758D02*
X-01137Y01763D01*
X-01148*
X-01153Y01758*
Y01753*
X-01148Y01748*
X-01137*
X-01132Y01742*
Y01737*
X-01137Y01732*
X-01148*
X-01153Y01737*
X-01122Y01732D02*
X-01111D01*
X-01116*
Y01763*
X-01122Y01758*
X-01494D02*
X-015Y01763D01*
X-0151*
X-01515Y01758*
Y01737*
X-0151Y01732*
X-015*
X-01494Y01737*
X-01484Y01758D02*
X-01479Y01763D01*
X-01468*
X-01463Y01758*
Y01753*
X-01468Y01748*
X-01473*
X-01468*
X-01463Y01742*
Y01737*
X-01468Y01732*
X-01479*
X-01484Y01737*
X-01452Y01727D02*
X-01431D01*
X-01421Y01763D02*
Y01732D01*
X-0141Y01742*
X-014Y01732*
Y01763*
X-01368Y01758D02*
X-01374Y01763D01*
X-01384*
X-01389Y01758*
Y01753*
X-01384Y01748*
X-01374*
X-01368Y01742*
Y01737*
X-01374Y01732*
X-01384*
X-01389Y01737*
X-01358Y01732D02*
X-01347D01*
X-01353*
Y01763*
X-01358Y01758*
X-0173D02*
X-01736Y01763D01*
X-01746*
X-01751Y01758*
Y01737*
X-01746Y01732*
X-01736*
X-0173Y01737*
X-01699Y01732D02*
X-0172D01*
X-01699Y01753*
Y01758*
X-01704Y01763*
X-01715*
X-0172Y01758*
X-01688Y01727D02*
X-01668D01*
X-01657Y01763D02*
Y01732D01*
X-01647Y01742*
X-01636Y01732*
Y01763*
X-01605Y01758D02*
X-0161Y01763D01*
X-0162*
X-01626Y01758*
Y01753*
X-0162Y01748*
X-0161*
X-01605Y01742*
Y01737*
X-0161Y01732*
X-0162*
X-01626Y01737*
X-01594Y01732D02*
X-01584D01*
X-01589*
Y01763*
X-01594Y01758*
X-01967D02*
X-01972Y01763D01*
X-01982*
X-01988Y01758*
Y01737*
X-01982Y01732*
X-01972*
X-01967Y01737*
X-01956Y01732D02*
X-01946D01*
X-01951*
Y01763*
X-01956Y01758*
X-0193Y01727D02*
X-01909D01*
X-01898Y01763D02*
Y01732D01*
X-01888Y01742*
X-01877Y01732*
Y01763*
X-01846Y01758D02*
X-01851Y01763D01*
X-01862*
X-01867Y01758*
Y01753*
X-01862Y01748*
X-01851*
X-01846Y01742*
Y01737*
X-01851Y01732*
X-01862*
X-01867Y01737*
X-01836Y01732D02*
X-01825D01*
X-0183*
Y01763*
X-01836Y01758*
X01332Y01397D02*
Y01366D01*
X01348*
X01353Y01371*
Y01392*
X01348Y01397*
X01332*
X01364Y01366D02*
X01374D01*
X01369*
Y01397*
X01364Y01392*
X01411Y01397D02*
X0139D01*
Y01381*
X014Y01387*
X01406*
X01411Y01381*
Y01371*
X01406Y01366*
X01395*
X0139Y01371*
X01421Y0136D02*
X01442D01*
X01453Y01397D02*
Y01366D01*
X01463Y01376*
X01474Y01366*
Y01397*
X01505Y01392D02*
X015Y01397D01*
X0149*
X01484Y01392*
Y01387*
X0149Y01381*
X015*
X01505Y01376*
Y01371*
X015Y01366*
X0149*
X01484Y01371*
X01516Y01366D02*
X01526D01*
X01521*
Y01397*
X01516Y01392*
X01096Y01397D02*
Y01366D01*
X01112*
X01117Y01371*
Y01392*
X01112Y01397*
X01096*
X01127Y01366D02*
X01138D01*
X01133*
Y01397*
X01127Y01392*
X01169Y01366D02*
Y01397D01*
X01154Y01381*
X01175*
X01185Y0136D02*
X01206D01*
X01217Y01397D02*
Y01366D01*
X01227Y01376*
X01238Y01366*
Y01397*
X01269Y01392D02*
X01264Y01397D01*
X01253*
X01248Y01392*
Y01387*
X01253Y01381*
X01264*
X01269Y01376*
Y01371*
X01264Y01366*
X01253*
X01248Y01371*
X0128Y01366D02*
X0129D01*
X01285*
Y01397*
X0128Y01392*
X0086Y01397D02*
Y01366D01*
X00875*
X00881Y01371*
Y01392*
X00875Y01397*
X0086*
X00891Y01366D02*
X00902D01*
X00896*
Y01397*
X00891Y01392*
X00917D02*
X00923Y01397D01*
X00933*
X00938Y01392*
Y01387*
X00933Y01381*
X00928*
X00933*
X00938Y01376*
Y01371*
X00933Y01366*
X00923*
X00917Y01371*
X00949Y0136D02*
X0097D01*
X0098Y01397D02*
Y01366D01*
X00991Y01376*
X01001Y01366*
Y01397*
X01033Y01392D02*
X01028Y01397D01*
X01017*
X01012Y01392*
Y01387*
X01017Y01381*
X01028*
X01033Y01376*
Y01371*
X01028Y01366*
X01017*
X01012Y01371*
X01043Y01366D02*
X01054D01*
X01049*
Y01397*
X01043Y01392*
X00624Y01397D02*
Y01366D01*
X00639*
X00645Y01371*
Y01392*
X00639Y01397*
X00624*
X00655Y01366D02*
X00665D01*
X0066*
Y01397*
X00655Y01392*
X00702Y01366D02*
X00681D01*
X00702Y01387*
Y01392*
X00697Y01397*
X00686*
X00681Y01392*
X00713Y0136D02*
X00734D01*
X00744Y01397D02*
Y01366D01*
X00755Y01376*
X00765Y01366*
Y01397*
X00797Y01392D02*
X00791Y01397D01*
X00781*
X00776Y01392*
Y01387*
X00781Y01381*
X00791*
X00797Y01376*
Y01371*
X00791Y01366*
X00781*
X00776Y01371*
X00807Y01366D02*
X00818D01*
X00812*
Y01397*
X00807Y01392*
X00387Y01397D02*
Y01366D01*
X00403*
X00408Y01371*
Y01392*
X00403Y01397*
X00387*
X00419Y01366D02*
X00429D01*
X00424*
Y01397*
X00419Y01392*
X00445Y01366D02*
X00456D01*
X0045*
Y01397*
X00445Y01392*
X00471Y0136D02*
X00492D01*
X00503Y01397D02*
Y01366D01*
X00513Y01376*
X00524Y01366*
Y01397*
X00555Y01392D02*
X0055Y01397D01*
X00539*
X00534Y01392*
Y01387*
X00539Y01381*
X0055*
X00555Y01376*
Y01371*
X0055Y01366*
X00539*
X00534Y01371*
X00566Y01366D02*
X00576D01*
X00571*
Y01397*
X00566Y01392*
X00151Y01397D02*
Y01366D01*
X00167*
X00172Y01371*
Y01392*
X00167Y01397*
X00151*
X00183Y01366D02*
X00193D01*
X00188*
Y01397*
X00183Y01392*
X00209D02*
X00214Y01397D01*
X00225*
X0023Y01392*
Y01371*
X00225Y01366*
X00214*
X00209Y01371*
Y01392*
X0024Y0136D02*
X00261D01*
X00272Y01397D02*
Y01366D01*
X00282Y01376*
X00293Y01366*
Y01397*
X00324Y01392D02*
X00319Y01397D01*
X00309*
X00303Y01392*
Y01387*
X00309Y01381*
X00319*
X00324Y01376*
Y01371*
X00319Y01366*
X00309*
X00303Y01371*
X00335Y01366D02*
X00345D01*
X0034*
Y01397*
X00335Y01392*
X-00084Y01397D02*
Y01366D01*
X-00068*
X-00063Y01371*
Y01392*
X-00068Y01397*
X-00084*
X-00053Y01371D02*
X-00047Y01366D01*
X-00037*
X-00032Y01371*
Y01392*
X-00037Y01397*
X-00047*
X-00053Y01392*
Y01387*
X-00047Y01381*
X-00032*
X-00021Y0136D02*
X0D01*
X00009Y01397D02*
Y01366D01*
X0002Y01376*
X0003Y01366*
Y01397*
X00062Y01392D02*
X00057Y01397D01*
X00046*
X00041Y01392*
Y01387*
X00046Y01381*
X00057*
X00062Y01376*
Y01371*
X00057Y01366*
X00046*
X00041Y01371*
X00072Y01366D02*
X00083D01*
X00078*
Y01397*
X00072Y01392*
X-0032Y01397D02*
Y01366D01*
X-00305*
X-00299Y01371*
Y01392*
X-00305Y01397*
X-0032*
X-00289Y01392D02*
X-00284Y01397D01*
X-00273*
X-00268Y01392*
Y01387*
X-00273Y01381*
X-00268Y01376*
Y01371*
X-00273Y01366*
X-00284*
X-00289Y01371*
Y01376*
X-00284Y01381*
X-00289Y01387*
Y01392*
X-00284Y01381D02*
X-00273D01*
X-00257Y0136D02*
X-00236D01*
X-00226Y01397D02*
Y01366D01*
X-00215Y01376*
X-00205Y01366*
Y01397*
X-00173Y01392D02*
X-00179Y01397D01*
X-00189*
X-00194Y01392*
Y01387*
X-00189Y01381*
X-00179*
X-00173Y01376*
Y01371*
X-00179Y01366*
X-00189*
X-00194Y01371*
X-00163Y01366D02*
X-00152D01*
X-00158*
Y01397*
X-00163Y01392*
X-00557Y01397D02*
Y01366D01*
X-00541*
X-00536Y01371*
Y01392*
X-00541Y01397*
X-00557*
X-00525D02*
X-00504D01*
Y01392*
X-00525Y01371*
Y01366*
X-00494Y0136D02*
X-00473D01*
X-00462Y01397D02*
Y01366D01*
X-00452Y01376*
X-00441Y01366*
Y01397*
X-0041Y01392D02*
X-00415Y01397D01*
X-00425*
X-00431Y01392*
Y01387*
X-00425Y01381*
X-00415*
X-0041Y01376*
Y01371*
X-00415Y01366*
X-00425*
X-00431Y01371*
X-00399Y01366D02*
X-00389D01*
X-00394*
Y01397*
X-00399Y01392*
X-00793Y01397D02*
Y01366D01*
X-00777*
X-00772Y01371*
Y01392*
X-00777Y01397*
X-00793*
X-0074D02*
X-00751Y01392D01*
X-00761Y01381*
Y01371*
X-00756Y01366*
X-00746*
X-0074Y01371*
Y01376*
X-00746Y01381*
X-00761*
X-0073Y0136D02*
X-00709D01*
X-00698Y01397D02*
Y01366D01*
X-00688Y01376*
X-00677Y01366*
Y01397*
X-00646Y01392D02*
X-00651Y01397D01*
X-00662*
X-00667Y01392*
Y01387*
X-00662Y01381*
X-00651*
X-00646Y01376*
Y01371*
X-00651Y01366*
X-00662*
X-00667Y01371*
X-00635Y01366D02*
X-00625D01*
X-0063*
Y01397*
X-00635Y01392*
X-01029Y01397D02*
Y01366D01*
X-01013*
X-01008Y01371*
Y01392*
X-01013Y01397*
X-01029*
X-00977D02*
X-00998D01*
Y01381*
X-00987Y01387*
X-00982*
X-00977Y01381*
Y01371*
X-00982Y01366*
X-00992*
X-00998Y01371*
X-00966Y0136D02*
X-00945D01*
X-00935Y01397D02*
Y01366D01*
X-00924Y01376*
X-00914Y01366*
Y01397*
X-00882Y01392D02*
X-00887Y01397D01*
X-00898*
X-00903Y01392*
Y01387*
X-00898Y01381*
X-00887*
X-00882Y01376*
Y01371*
X-00887Y01366*
X-00898*
X-00903Y01371*
X-00872Y01366D02*
X-00861D01*
X-00866*
Y01397*
X-00872Y01392*
X-01265Y01397D02*
Y01366D01*
X-0125*
X-01244Y01371*
Y01392*
X-0125Y01397*
X-01265*
X-01218Y01366D02*
Y01397D01*
X-01234Y01381*
X-01213*
X-01202Y0136D02*
X-01181D01*
X-01171Y01397D02*
Y01366D01*
X-0116Y01376*
X-0115Y01366*
Y01397*
X-01118Y01392D02*
X-01124Y01397D01*
X-01134*
X-01139Y01392*
Y01387*
X-01134Y01381*
X-01124*
X-01118Y01376*
Y01371*
X-01124Y01366*
X-01134*
X-01139Y01371*
X-01108Y01366D02*
X-01097D01*
X-01103*
Y01397*
X-01108Y01392*
X-01501Y01397D02*
Y01366D01*
X-01486*
X-0148Y01371*
Y01392*
X-01486Y01397*
X-01501*
X-0147Y01392D02*
X-01465Y01397D01*
X-01454*
X-01449Y01392*
Y01387*
X-01454Y01381*
X-01459*
X-01454*
X-01449Y01376*
Y01371*
X-01454Y01366*
X-01465*
X-0147Y01371*
X-01438Y0136D02*
X-01418D01*
X-01407Y01397D02*
Y01366D01*
X-01397Y01376*
X-01386Y01366*
Y01397*
X-01355Y01392D02*
X-0136Y01397D01*
X-0137*
X-01376Y01392*
Y01387*
X-0137Y01381*
X-0136*
X-01355Y01376*
Y01371*
X-0136Y01366*
X-0137*
X-01376Y01371*
X-01344Y01366D02*
X-01334D01*
X-01339*
Y01397*
X-01344Y01392*
X-01738Y01397D02*
Y01366D01*
X-01722*
X-01717Y01371*
Y01392*
X-01722Y01397*
X-01738*
X-01685Y01366D02*
X-01706D01*
X-01685Y01387*
Y01392*
X-0169Y01397*
X-01701*
X-01706Y01392*
X-01675Y0136D02*
X-01654D01*
X-01643Y01397D02*
Y01366D01*
X-01633Y01376*
X-01622Y01366*
Y01397*
X-01591Y01392D02*
X-01596Y01397D01*
X-01606*
X-01612Y01392*
Y01387*
X-01606Y01381*
X-01596*
X-01591Y01376*
Y01371*
X-01596Y01366*
X-01606*
X-01612Y01371*
X-0158Y01366D02*
X-0157D01*
X-01575*
Y01397*
X-0158Y01392*
X-01974Y01397D02*
Y01366D01*
X-01958*
X-01953Y01371*
Y01392*
X-01958Y01397*
X-01974*
X-01942Y01366D02*
X-01932D01*
X-01937*
Y01397*
X-01942Y01392*
X-01916Y0136D02*
X-01895D01*
X-01885Y01397D02*
Y01366D01*
X-01874Y01376*
X-01864Y01366*
Y01397*
X-01832Y01392D02*
X-01837Y01397D01*
X-01848*
X-01853Y01392*
Y01387*
X-01848Y01381*
X-01837*
X-01832Y01376*
Y01371*
X-01837Y01366*
X-01848*
X-01853Y01371*
X-01822Y01366D02*
X-01811D01*
X-01816*
Y01397*
X-01822Y01392*
M02*