%FSTAX23Y23*%
%MOIN*%
%SFA1B1*%

%IPPOS*%
%AMD17*
4,1,8,0.037400,-0.009800,0.037400,0.009800,0.027600,0.019700,-0.027600,0.019700,-0.037400,0.009800,-0.037400,-0.009800,-0.027600,-0.019700,0.027600,-0.019700,0.037400,-0.009800,0.0*
1,1,0.019685,0.027600,-0.009800*
1,1,0.019685,0.027600,0.009800*
1,1,0.019685,-0.027600,0.009800*
1,1,0.019685,-0.027600,-0.009800*
%
%ADD10R,0.035433X0.059055*%
%ADD11R,0.021654X0.037401*%
%ADD12C,0.010000*%
%ADD13C,0.015000*%
%ADD14C,0.050000*%
%ADD15C,0.236220*%
%ADD16C,0.057087*%
G04~CAMADD=17~8~0.0~0.0~393.7~748.0~98.4~0.0~15~0.0~0.0~0.0~0.0~0~0.0~0.0~0.0~0.0~0~0.0~0.0~0.0~270.0~748.0~394.0*
%ADD17D17*%
%ADD18C,0.031496*%
%ADD19C,0.019685*%
%LNpcb_singleledrow-1*%
%LPD*%
G36*
X01928Y018D02*
X01947Y01794D01*
X01965Y01785*
X0198Y01773*
X0198Y01772*
X02116Y01636*
X02117Y01635*
X02129Y0162*
X02139Y01603*
X02144Y01584*
X02146Y01565*
X02146Y01564*
Y01475*
Y00895*
Y00887*
X02146Y00886*
X02145Y00874*
X02139Y00861*
X02134Y00855*
X02131Y00851*
X02122Y00839*
X02116Y00825*
X02114Y00811*
X02114*
Y-0007*
X02114*
X02116Y-00085*
X02122Y-00098*
X02131Y-0011*
X02134Y-00114*
X02139Y-00121*
X02145Y-00133*
X02146Y-00145*
X02146Y-00146*
Y-00155*
Y-00639*
Y-00737*
X02146Y-00738*
X02144Y-00757*
X02139Y-00776*
X02129Y-00794*
X02117Y-00808*
X02116Y-00809*
X01955Y-0097*
X01941Y-00984*
X01941Y-00984*
X01927Y-01001*
X01915Y-0102*
X01907Y-0104*
X01902Y-01061*
X019Y-01083*
X019*
Y-01262*
X019Y-01263*
X01898Y-01281*
X01893Y-01299*
X01884Y-01315*
X01873Y-01329*
X01872Y-0133*
X01871Y-01331*
X01857Y-01343*
X01839Y-01352*
X0182Y-01358*
X01801Y-0136*
X018Y-01359*
X-018*
X-01801Y-0136*
X-0182Y-01358*
X-01839Y-01352*
X-01857Y-01343*
X-01871Y-01331*
X-01872Y-0133*
X-01873Y-01329*
X-01884Y-01315*
X-01893Y-01299*
X-01898Y-01281*
X-019Y-01263*
X-019Y-01262*
Y-01083*
X-019*
X-01902Y-01061*
X-01907Y-0104*
X-01915Y-0102*
X-01927Y-01001*
X-01941Y-00984*
X-01941Y-00984*
X-01955Y-0097*
X-02116Y-00809*
X-02117Y-00808*
X-02129Y-00794*
X-02139Y-00776*
X-02144Y-00757*
X-02146Y-00738*
X-02146Y-00737*
Y-00155*
Y-00146*
X-02146Y-00145*
X-02145Y-00133*
X-02139Y-00121*
X-02134Y-00114*
X-02131Y-0011*
X-02122Y-00098*
X-02116Y-00085*
X-02114Y-0007*
X-02114*
Y00715*
X-0211Y00716*
X-02108Y00714*
X-02095Y00699*
X-02081Y00686*
X-02064Y00676*
X-02046Y00669*
X-02027Y00664*
X-02007Y00662*
X-01988Y00664*
X-01969Y00669*
X-01951Y00676*
X-01934Y00686*
X-01919Y00699*
X-01907Y00714*
X-01896Y0073*
X-01889Y00748*
X-01884Y00767*
X-01883Y00787*
X-01884Y00806*
X-01889Y00825*
X-01896Y00843*
X-01907Y0086*
X-01919Y00875*
X-01934Y00888*
X-01951Y00898*
X-01969Y00905*
X-01988Y0091*
X-02007Y00911*
X-02027Y0091*
X-02046Y00905*
X-02064Y00898*
X-02081Y00888*
X-02095Y00875*
X-02108Y0086*
X-02118Y00843*
X-02119Y00843*
X-02124Y00842*
X-02131Y00851*
X-02134Y00855*
X-02139Y00861*
X-02145Y00874*
X-02146Y00886*
X-02146Y00887*
Y00895*
Y01475*
Y01564*
X-02146Y01565*
X-02144Y01584*
X-02139Y01603*
X-02129Y0162*
X-02117Y01635*
X-02116Y01636*
X-0198Y01772*
X-0198Y01773*
X-01965Y01785*
X-01947Y01794*
X-01928Y018*
X-01909Y01802*
X-01908Y01802*
X01908*
X01909Y01802*
X01928Y018*
G37*
%LNpcb_singleledrow-2*%
%LPC*%
G36*
X01881Y00326D02*
D01*
X00944*
X0094Y00325*
X00936Y00322*
X0085Y00236*
X0029*
X00285Y00235*
X00282Y00232*
X00142Y00093*
X0014Y00089*
X00139Y00085*
Y-00124*
X0008Y-00183*
X00004*
X-00147Y-00031*
X-00151Y-00029*
X-00155Y-00028*
X-01885*
X-01931Y00018*
Y00025*
X-01925*
X-0192Y00026*
X-01918Y00031*
Y0009*
X-0192Y00095*
X-01925Y00097*
X-0196*
X-01965Y00095*
X-01967Y0009*
Y00031*
X-01965Y00026*
X-0196Y00025*
X-01954*
Y00014*
X-01957Y00013*
X-01958Y00013*
X-0196Y00015*
X-01967Y0002*
X-01976Y00022*
X-01984Y0002*
X-01987Y00018*
X-01994Y0002*
X-01994Y00021*
X-01998Y00023*
Y00135*
X-01934Y00198*
X-01932Y00202*
X-01931Y00206*
Y00217*
X-01925*
X-0192Y00219*
X-01918Y00224*
Y00283*
X-0192Y00288*
X-01925Y00289*
X-0196*
X-01965Y00288*
X-01967Y00283*
Y00224*
X-01965Y00219*
X-0196Y00217*
X-01954*
Y00211*
X-02017Y00147*
X-0202Y00144*
X-02021Y00139*
Y00023*
X-02025Y00021*
X-02027Y00016*
Y-0002*
X-02025Y-00025*
X-0202Y-00027*
X-01999*
X-01994Y-00025*
X-01992Y-00021*
X-01991Y-0002*
X-01987Y-00018*
X-01984Y-0002*
X-01976Y-00022*
X-01967Y-0002*
X-0196Y-00015*
X-01955Y-00008*
X-01954Y0*
X-01954Y00002*
X-01953Y00004*
X-0195Y00005*
X-01897Y-00047*
X-01894Y-00049*
X-01889Y-0005*
X-0016*
X-00007Y-00202*
X-00004Y-00205*
X0Y-00206*
X00085*
X00089Y-00205*
X00092Y-00202*
X00158Y-00137*
X0016Y-00133*
X00161Y-00129*
Y0008*
X00294Y00213*
X00854*
X00859Y00214*
X00862Y00217*
X00949Y00303*
X01877*
X01918Y00262*
Y00224*
X0192Y00219*
X01925Y00217*
X0196*
X01965Y00219*
X01967Y00224*
Y00283*
X01965Y00288*
X0196Y00289*
X01925*
X01923Y00289*
X01889Y00322*
X01886Y00325*
X01881Y00326*
G37*
G36*
X-01691Y00335D02*
X-01692Y00335D01*
X-01694Y00335*
X-01701Y00334*
X-01702Y00333*
X-01703Y00333*
X-01709Y00329*
X-0171Y00328*
X-01711Y00327*
X-01715Y00321*
X-01715Y0032*
X-01715Y00319*
X-01717Y00312*
X-01717Y00311*
X-01717Y00311*
X-01717Y0031*
X-01717Y00309*
X-01715Y00302*
X-01715Y00301*
X-01715Y003*
X-01711Y00294*
X-0171Y00293*
X-01709Y00292*
X-01703Y00288*
X-01702Y00288*
X-01701Y00287*
X-01694Y00286*
X-01692Y00286*
X-01691Y00286*
X-01684Y00287*
X-01683Y00288*
X-01682Y00288*
X-01676Y00292*
X-01675Y00293*
X-01674Y00294*
X-0167Y003*
X-0167Y00301*
X-01669Y00302*
X-01668Y00309*
X-01668Y0031*
X-01668Y00311*
X-01668Y00311*
X-01668Y00312*
X-01669Y00319*
X-0167Y0032*
X-0167Y00321*
X-01674Y00327*
X-01675Y00328*
X-01676Y00329*
X-01682Y00333*
X-01683Y00333*
X-01684Y00334*
X-01691Y00335*
G37*
G36*
X00118Y00726D02*
X00109Y00725D01*
X00102Y0072*
X00097Y00713*
X00095Y00704*
X00097Y00696*
X00102Y00689*
X00109Y00684*
X00118Y00682*
X00126Y00684*
X00133Y00689*
X00136Y00693*
X00148*
X00415Y00426*
X00414Y00421*
X00416Y00412*
X00421Y00405*
X00428Y004*
X00437Y00399*
X00445Y004*
X00452Y00405*
X00457Y00412*
X00459Y00421*
X00457Y00429*
X00452Y00436*
X00445Y00441*
X00437Y00443*
X00431Y00442*
X00161Y00712*
X00157Y00715*
X00153Y00715*
X00136*
X00133Y0072*
X00126Y00725*
X00118Y00726*
G37*
G36*
X00417Y00285D02*
X00408Y00284D01*
X00401Y00279*
X00396Y00272*
X00395Y00263*
X00396Y00255*
X00401Y00248*
X00408Y00243*
X00417Y00241*
X00425Y00243*
X00433Y00248*
X00437Y00255*
X00439Y00263*
X00437Y00272*
X00433Y00279*
X00425Y00284*
X00417Y00285*
G37*
G36*
X-02055Y00289D02*
X-0209D01*
X-02095Y00288*
X-02097Y00283*
Y00224*
X-02095Y00219*
X-0209Y00217*
X-02055*
X-0205Y00219*
X-02048Y00224*
Y00283*
X-0205Y00288*
X-02055Y00289*
G37*
G36*
X-01423Y00278D02*
X-01431Y00276D01*
X-01438Y00271*
X-01443Y00264*
X-01445Y00255*
X-01443Y00247*
X-01438Y0024*
X-01431Y00235*
X-01423Y00233*
X-01414Y00235*
X-01407Y0024*
X-01402Y00247*
X-01401Y00255*
X-01402Y00264*
X-01407Y00271*
X-01414Y00276*
X-01423Y00278*
G37*
G36*
X-00395Y00283D02*
X-00404Y00282D01*
X-00411Y00277*
X-00416Y0027*
X-00417Y00261*
X-00416Y00253*
X-00411Y00246*
X-00404Y00241*
X-00395Y00239*
X-00387Y00241*
X-00379Y00246*
X-00375Y00253*
X-00373Y00261*
X-00375Y0027*
X-00379Y00277*
X-00387Y00282*
X-00395Y00283*
G37*
G36*
X01988Y0054D02*
X01954D01*
Y00507*
X01959Y00507*
X01969Y00511*
X01977Y00517*
X01983Y00525*
X01987Y00535*
X01988Y0054*
G37*
G36*
X02051Y00535D02*
X02028D01*
X0202Y00534*
X02014Y0053*
X02009Y00523*
X02008Y00515*
Y0051*
X02051*
Y00535*
G37*
G36*
X02083D02*
X02061D01*
Y0051*
X02103*
Y00515*
X02102Y00523*
X02097Y0053*
X02091Y00534*
X02083Y00535*
G37*
G36*
X01944Y0054D02*
X01911D01*
X01912Y00535*
X01916Y00525*
X01922Y00517*
X0193Y00511*
X01939Y00507*
X01944Y00507*
Y0054*
G37*
G36*
X02051Y005D02*
X02008D01*
Y00496*
X02009Y00488*
X02014Y00481*
X0202Y00477*
X02028Y00475*
X02051*
Y005*
G37*
G36*
X02103D02*
X02061D01*
Y00475*
X02083*
X02091Y00477*
X02097Y00481*
X02102Y00488*
X02103Y00496*
Y005*
G37*
G36*
X-00238Y00528D02*
X-00246Y00526D01*
X-00253Y00521*
X-00258Y00514*
X-0026Y00505*
X-00258Y00497*
X-00253Y0049*
X-00246Y00485*
X-00238Y00483*
X-00229Y00485*
X-00222Y0049*
X-00217Y00497*
X-00216Y00505*
X-00217Y00514*
X-00222Y00521*
X-00229Y00526*
X-00238Y00528*
G37*
G36*
X01303Y00095D02*
X01294Y00093D01*
X01287Y00088*
X01282Y00081*
X0128Y00073*
X01282Y00064*
X01287Y00057*
X01294Y00052*
X01303Y00051*
X01311Y00052*
X01318Y00057*
X01323Y00064*
X01325Y00073*
X01323Y00081*
X01318Y00088*
X01311Y00093*
X01303Y00095*
G37*
G36*
X01512Y00108D02*
X01503Y00106D01*
X01496Y00101*
X01491Y00094*
X0149Y00086*
X01491Y00077*
X01496Y0007*
X01503Y00065*
X01512Y00064*
X0152Y00065*
X01528Y0007*
X01532Y00077*
X01534Y00086*
X01532Y00094*
X01528Y00101*
X0152Y00106*
X01512Y00108*
G37*
G36*
X-02077Y001D02*
X-0209D01*
X-02094Y00099*
X-02097Y00097*
X-02099Y00094*
X-021Y0009*
Y00066*
X-02077*
Y001*
G37*
G36*
X-01456Y00051D02*
X-01465Y0005D01*
X-01472Y00045*
X-01477Y00038*
X-01478Y00029*
X-01477Y00021*
X-01472Y00013*
X-01465Y00009*
X-01456Y00007*
X-01448Y00009*
X-01441Y00013*
X-01436Y00021*
X-01434Y00029*
X-01436Y00038*
X-01441Y00045*
X-01448Y0005*
X-01456Y00051*
G37*
G36*
X01963Y-00006D02*
X01947D01*
Y-0003*
X01953*
X01957Y-0003*
X0196Y-00027*
X01963Y-00024*
X01963Y-0002*
Y-00006*
G37*
G36*
X-0147Y00752D02*
X-01478Y0075D01*
X-01485Y00745*
X-0149Y00738*
X-01492Y0073*
X-0149Y00721*
X-01485Y00714*
X-01478Y00709*
X-0147Y00707*
X-01461Y00709*
X-01454Y00714*
X-01451Y00718*
X-01275*
X-01002Y00444*
X-00998Y00442*
X-00994Y00441*
X-00077*
X-00074Y00437*
X-00067Y00432*
X-00059Y0043*
X-0005Y00432*
X-00043Y00437*
X-00038Y00444*
X-00038Y00444*
X-00033Y00444*
Y0035*
X-00173Y0021*
X-01279*
X-01284Y00209*
X-01289Y00206*
X-0134Y00155*
X-01343Y0015*
X-01344Y00145*
Y00115*
X-01346Y00114*
X-01351Y00106*
X-01352Y00098*
X-01351Y00089*
X-01346Y00082*
X-01339Y00077*
X-0133Y00076*
X-01322Y00077*
X-01315Y00082*
X-0131Y00089*
X-01308Y00098*
X-0131Y00106*
X-01315Y00114*
X-01316Y00115*
Y00139*
X-01273Y00183*
X-00167*
X-00162Y00184*
X-00157Y00187*
X-00009Y00334*
X-00006Y00339*
X-00006Y00343*
X-00001Y00342*
Y0*
X-00024Y-00023*
X-00061*
X-00064Y-00019*
X-00071Y-00014*
X-0008Y-00012*
X-00088Y-00014*
X-00095Y-00019*
X-001Y-00026*
X-00102Y-00035*
X-001Y-00043*
X-00095Y-0005*
X-00088Y-00055*
X-0008Y-00057*
X-00071Y-00055*
X-00064Y-0005*
X-00061Y-00046*
X-0002*
X-00015Y-00045*
X-00012Y-00042*
X00017Y-00012*
X0002Y-00009*
X00021Y-00005*
Y0038*
X00072Y00432*
X00075Y00435*
X00076Y0044*
Y0051*
X00075Y00514*
X00072Y00517*
X-00036Y00627*
Y00637*
X-00032Y0064*
X-00027Y00648*
X-00025Y00656*
X-00027Y00664*
X-00032Y00672*
X-00039Y00676*
X-00048Y00678*
X-00056Y00676*
X-00063Y00672*
X-00068Y00664*
X-0007Y00656*
X-00068Y00648*
X-00063Y0064*
X-00059Y00637*
Y00623*
X-00058Y00618*
X-00056Y00615*
X00053Y00505*
Y00444*
X00002Y00392*
X0Y00389*
X0Y00386*
X-00005Y00386*
Y00511*
X-00006Y00517*
X-00009Y00521*
X-00114Y00625*
Y00701*
X-00112Y00702*
X-00107Y0071*
X-00105Y00718*
X-00107Y00726*
X-00112Y00734*
X-00119Y00738*
X-00127Y0074*
X-00136Y00738*
X-00143Y00734*
X-00148Y00726*
X-0015Y00718*
X-00148Y0071*
X-00143Y00702*
X-00141Y00701*
Y0062*
X-0014Y00614*
X-00137Y0061*
X-00033Y00506*
Y00461*
X-00038Y0046*
X-00038Y00461*
X-00043Y00468*
X-0005Y00473*
X-00059Y00474*
X-00067Y00473*
X-00074Y00468*
X-00077Y00463*
X-00989*
X-01263Y00737*
X-01267Y0074*
X-01271Y00741*
X-01451*
X-01454Y00745*
X-01461Y0075*
X-0147Y00752*
G37*
G36*
X-02044Y00056D02*
X-02072D01*
X-021*
Y00031*
X-02099Y00027*
X-02097Y00024*
X-02094Y00022*
X-02093Y00016*
X-02093Y00016*
Y00003*
X-02072*
X-02051*
Y00016*
X-02052Y0002*
X-02048Y00023*
X-02047Y00024*
X-02045Y00027*
X-02044Y00031*
Y00056*
G37*
G36*
X01512Y00178D02*
X01503Y00176D01*
X01496Y00171*
X01491Y00164*
X0149Y00156*
X01491Y00147*
X01496Y0014*
X01503Y00135*
X01512Y00134*
X0152Y00135*
X01528Y0014*
X01532Y00147*
X01534Y00156*
X01532Y00164*
X01528Y00171*
X0152Y00176*
X01512Y00178*
G37*
G36*
X00307Y00189D02*
X00298Y00187D01*
X00291Y00183*
X00286Y00175*
X00284Y00167*
X00285Y00165*
X00255Y00134*
X00252Y0013*
X00251Y00125*
Y-00094*
X-00059Y-00405*
X-00062Y-00409*
X-00063Y-00415*
Y-00469*
X-00186Y-00592*
X-00189Y-00596*
X-0019Y-00602*
Y-01012*
X-00189Y-01018*
X-00186Y-01022*
X-00181Y-01027*
X-00182Y-0103*
X-0018Y-01038*
X-00175Y-01045*
X-00168Y-0105*
X-0016Y-01052*
X-00151Y-0105*
X-00144Y-01045*
X-00139Y-01038*
X-00137Y-0103*
X-00139Y-01021*
X-00144Y-01014*
X-00151Y-01009*
X-0016Y-01007*
X-00163Y-01003*
Y-00607*
X-0004Y-00484*
X-00037Y-0048*
X-00036Y-00475*
Y-0042*
X00274Y-00109*
X00277Y-00105*
X00278Y-001*
Y00119*
X00304Y00145*
X00307Y00145*
X00315Y00146*
X00322Y00151*
X00327Y00158*
X00329Y00167*
X00327Y00175*
X00322Y00183*
X00315Y00187*
X00307Y00189*
G37*
G36*
X01512Y00278D02*
X01503Y00276D01*
X01496Y00271*
X01491Y00264*
X0149Y00256*
X01491Y00247*
X01496Y0024*
X01499Y00238*
Y00233*
X01496Y00231*
X01491Y00224*
X0149Y00216*
X01491Y00207*
X01496Y002*
X01503Y00195*
X01512Y00194*
X0152Y00195*
X01528Y002*
X01532Y00207*
X01534Y00216*
X01532Y00224*
X01528Y00231*
X01525Y00233*
Y00238*
X01528Y0024*
X01532Y00247*
X01534Y00256*
X01532Y00264*
X01528Y00271*
X0152Y00276*
X01512Y00278*
G37*
G36*
X-00992Y00148D02*
X-01Y00146D01*
X-01007Y00141*
X-01012Y00134*
X-01014Y00125*
X-01012Y00117*
X-01007Y0011*
X-01Y00105*
X-00992Y00103*
X-00983Y00105*
X-00976Y0011*
X-00971Y00117*
X-00969Y00125*
X-00971Y00134*
X-00976Y00141*
X-00983Y00146*
X-00992Y00148*
G37*
G36*
X01937Y001D02*
X01925D01*
X01921Y00099*
X01917Y00097*
X01915Y00094*
X01915Y0009*
Y00066*
X01937*
Y001*
G37*
G36*
X-02055D02*
X-02067D01*
Y00066*
X-02044*
Y0009*
X-02045Y00094*
X-02047Y00097*
X-02051Y00099*
X-02055Y001*
G37*
G36*
X0196D02*
X01947D01*
Y00066*
X0197*
Y0009*
X0197Y00094*
X01967Y00097*
X01964Y00099*
X0196Y001*
G37*
G36*
X-006Y00917D02*
X-00608Y00916D01*
X-00616Y00911*
X-0062Y00904*
X-00622Y00895*
X-0062Y00887*
X-00616Y00879*
X-00608Y00875*
X-006Y00873*
X-00591Y00875*
X-00584Y00879*
X-00579Y00887*
X-00578Y00895*
X-00579Y00904*
X-00584Y00911*
X-00591Y00916*
X-006Y00917*
G37*
G36*
X-00118D02*
X-00126Y00916D01*
X-00133Y00911*
X-00138Y00904*
X-0014Y00895*
X-00138Y00887*
X-00133Y00879*
X-00126Y00875*
X-00118Y00873*
X-00109Y00875*
X-00102Y00879*
X-00097Y00887*
X-00095Y00895*
X-00097Y00904*
X-00102Y00911*
X-00109Y00916*
X-00118Y00917*
G37*
G36*
X00371Y00918D02*
X00363Y00916D01*
X00356Y00912*
X00351Y00904*
X00349Y00896*
X00351Y00888*
X00356Y0088*
X00363Y00876*
X00371Y00874*
X0038Y00876*
X00387Y0088*
X00392Y00888*
X00394Y00896*
X00392Y00904*
X00387Y00912*
X0038Y00916*
X00371Y00918*
G37*
G36*
X00341Y00868D02*
X00333Y00866D01*
X00326Y00862*
X00321Y00854*
X00319Y00846*
X00321Y00838*
X00326Y0083*
X00333Y00826*
X00341Y00824*
X0035Y00826*
X00357Y0083*
X00362Y00838*
X00364Y00846*
X00362Y00854*
X00357Y00862*
X0035Y00866*
X00341Y00868*
G37*
G36*
X02051Y00811D02*
X02028D01*
X0202Y0081*
X02014Y00805*
X02009Y00799*
X02008Y00791*
Y00786*
X02051*
Y00811*
G37*
G36*
X02083D02*
X02061D01*
Y00786*
X02103*
Y00791*
X02102Y00799*
X02097Y00805*
X02091Y0081*
X02083Y00811*
G37*
G36*
X01521Y00852D02*
X01513Y00851D01*
X01505Y00846*
X01501Y00839*
X01499Y0083*
X01501Y00822*
X01505Y00815*
X01513Y0081*
X01521Y00808*
X0153Y0081*
X01537Y00815*
X01542Y00822*
X01543Y0083*
X01542Y00839*
X01537Y00846*
X0153Y00851*
X01521Y00852*
G37*
G36*
X00341Y00968D02*
X00333Y00966D01*
X00326Y00962*
X00321Y00954*
X00319Y00946*
X00321Y00938*
X00326Y0093*
X00333Y00926*
X00341Y00924*
X0035Y00926*
X00357Y0093*
X00362Y00938*
X00364Y00946*
X00362Y00954*
X00357Y00962*
X0035Y00966*
X00341Y00968*
G37*
G36*
X00441Y00998D02*
X00433Y00996D01*
X00426Y00992*
X00421Y00984*
X00419Y00976*
X0042Y00971*
X00413Y00964*
X00411Y0096*
X0041Y00956*
Y00935*
X00406Y00932*
X00401Y00924*
X00399Y00916*
X00401Y00908*
X00406Y009*
X00413Y00896*
X00421Y00894*
X0043Y00896*
X00437Y009*
X00442Y00908*
X00444Y00916*
X00442Y00924*
X00437Y00932*
X00433Y00935*
Y00951*
X00436Y00955*
X00441Y00954*
X0045Y00956*
X00457Y0096*
X00462Y00968*
X00464Y00976*
X00462Y00984*
X00457Y00992*
X0045Y00996*
X00441Y00998*
G37*
G36*
X-002Y01D02*
X-00209Y00998D01*
X-00216Y00994*
X-00221Y00986*
X-00222Y00978*
X-00221Y00969*
X-00216Y00962*
X-00209Y00957*
X-002Y00956*
X-00192Y00957*
X-00185Y00962*
X-0018Y00969*
X-00178Y00978*
X-0018Y00986*
X-00185Y00994*
X-00192Y00998*
X-002Y01*
G37*
G36*
X00521Y00963D02*
X00513Y00962D01*
X00506Y00957*
X00501Y0095*
X00499Y00941*
X00501Y00933*
X00506Y00925*
X00513Y00921*
X00521Y00919*
X0053Y00921*
X00537Y00925*
X00542Y00933*
X00544Y00941*
X00542Y0095*
X00537Y00957*
X0053Y00962*
X00521Y00963*
G37*
G36*
X-00433Y00927D02*
X-00441Y00925D01*
X-00448Y00921*
X-00453Y00913*
X-00455Y00905*
X-00453Y00897*
X-00448Y00889*
X-00441Y00885*
X-00433Y00883*
X-00424Y00885*
X-00417Y00889*
X-00412Y00897*
X-0041Y00905*
X-00412Y00913*
X-00417Y00921*
X-00424Y00925*
X-00433Y00927*
G37*
G36*
X-00008Y00928D02*
X-00016Y00926D01*
X-00023Y00922*
X-00028Y00914*
X-0003Y00906*
X-00028Y00898*
X-00023Y0089*
X-00016Y00886*
X-00008Y00884*
X0Y00886*
X00007Y0089*
X00012Y00898*
X00014Y00906*
X00012Y00914*
X00007Y00922*
X0Y00926*
X-00008Y00928*
G37*
G36*
X00051D02*
X00043Y00926D01*
X00036Y00922*
X00031Y00914*
X00029Y00906*
X00031Y00898*
X00036Y0089*
X00043Y00886*
X00051Y00884*
X0006Y00886*
X00067Y0089*
X00072Y00898*
X00074Y00906*
X00072Y00914*
X00067Y00922*
X0006Y00926*
X00051Y00928*
G37*
G36*
X00578Y00641D02*
X00576Y0064D01*
X00575Y00641*
X00568Y00639*
X00567Y00639*
X00566Y00638*
X0056Y00634*
X00559Y00633*
X00558Y00633*
X00554Y00627*
X00554Y00625*
X00553Y00624*
X00552Y00618*
X00552Y00617*
X00552Y00616*
X00552Y00616*
X00552Y00615*
X00553Y00608*
X00554Y00607*
X00554Y00606*
X00558Y006*
X00559Y00599*
X0056Y00598*
X00566Y00594*
X00567Y00594*
X00568Y00593*
X00575Y00592*
X00576Y00592*
X00578Y00592*
X00585Y00593*
X00586Y00594*
X00587Y00594*
X00593Y00598*
X00594Y00599*
X00595Y006*
X00599Y00606*
X00599Y00607*
X006Y00608*
X00601Y00615*
X00601Y00616*
X00601Y00616*
X00601Y00617*
X00601Y00618*
X006Y00624*
X00599Y00625*
X00599Y00627*
X00595Y00633*
X00594Y00633*
X00593Y00634*
X00587Y00638*
X00586Y00639*
X00585Y00639*
X00578Y00641*
G37*
G36*
X00441Y00708D02*
X00433Y00706D01*
X00426Y00702*
X00421Y00694*
X00419Y00686*
X00421Y00678*
X00426Y0067*
X00433Y00666*
X00441Y00664*
X0045Y00666*
X00457Y0067*
X00462Y00678*
X00464Y00686*
X00462Y00694*
X00457Y00702*
X0045Y00706*
X00441Y00708*
G37*
G36*
X01988Y00737D02*
X01954D01*
Y00703*
X01959Y00704*
X01969Y00708*
X01977Y00714*
X01983Y00722*
X01987Y00732*
X01988Y00737*
G37*
G36*
X-01691Y00614D02*
X-01692Y00614D01*
X-01694Y00614*
X-01701Y00613*
X-01702Y00612*
X-01703Y00612*
X-01709Y00608*
X-0171Y00607*
X-01711Y00606*
X-01715Y00601*
X-01715Y00599*
X-01715Y00598*
X-01717Y00591*
X-01717Y00591*
X-01717Y0059*
X-01717Y00589*
X-01717Y00589*
X-01715Y00582*
X-01715Y00581*
X-01715Y0058*
X-01711Y00574*
X-0171Y00573*
X-01709Y00572*
X-01703Y00568*
X-01702Y00568*
X-01701Y00567*
X-01694Y00566*
X-01692Y00566*
X-01691Y00566*
X-01684Y00567*
X-01683Y00568*
X-01682Y00568*
X-01676Y00572*
X-01675Y00573*
X-01674Y00574*
X-0167Y0058*
X-0167Y00581*
X-01669Y00582*
X-01668Y00589*
X-01668Y00589*
X-01668Y0059*
X-01668Y00591*
X-01668Y00591*
X-01669Y00598*
X-0167Y00599*
X-0167Y00601*
X-01674Y00606*
X-01675Y00607*
X-01676Y00608*
X-01682Y00612*
X-01683Y00612*
X-01684Y00613*
X-01691Y00614*
G37*
G36*
X01944Y00583D02*
X01939Y00582D01*
X0193Y00578*
X01922Y00572*
X01916Y00564*
X01912Y00555*
X01911Y0055*
X01944*
Y00583*
G37*
G36*
X01954D02*
Y0055D01*
X01988*
X01987Y00555*
X01983Y00564*
X01977Y00572*
X01969Y00578*
X01959Y00582*
X01954Y00583*
G37*
G36*
X002Y00618D02*
X00192Y00616D01*
X00185Y00612*
X0018Y00604*
X00178Y00596*
X0018Y00587*
X00185Y0058*
X00192Y00575*
X002Y00574*
X00209Y00575*
X00216Y0058*
X00221Y00587*
X00222Y00596*
X00221Y00604*
X00216Y00612*
X00209Y00616*
X002Y00618*
G37*
G36*
X02051Y00776D02*
X02008D01*
Y00771*
X02009Y00763*
X02014Y00757*
X0202Y00752*
X02028Y00751*
X02051*
Y00776*
G37*
G36*
X02103D02*
X02061D01*
Y00751*
X02083*
X02091Y00752*
X02097Y00757*
X02102Y00763*
X02103Y00771*
Y00776*
G37*
G36*
X00371Y00818D02*
X00363Y00816D01*
X00356Y00812*
X00351Y00804*
X00349Y00796*
X00351Y00788*
X00356Y0078*
X00363Y00776*
X00371Y00774*
X0038Y00776*
X00387Y0078*
X00392Y00788*
X00394Y00796*
X00392Y00804*
X00387Y00812*
X0038Y00816*
X00371Y00818*
G37*
G36*
X01954Y0078D02*
Y00747D01*
X01988*
X01987Y00752*
X01983Y00761*
X01977Y00769*
X01969Y00775*
X01959Y00779*
X01954Y0078*
G37*
G36*
X01944Y00737D02*
X01911D01*
X01912Y00732*
X01916Y00722*
X01922Y00714*
X0193Y00708*
X01939Y00704*
X01944Y00703*
Y00737*
G37*
G36*
X00341Y00768D02*
X00333Y00766D01*
X00326Y00762*
X00321Y00754*
X00319Y00746*
X00321Y00738*
X00326Y0073*
X00333Y00726*
X00341Y00724*
X0035Y00726*
X00357Y0073*
X00362Y00738*
X00364Y00746*
X00362Y00754*
X00357Y00762*
X0035Y00766*
X00341Y00768*
G37*
G36*
X01944Y0078D02*
X01939Y00779D01*
X0193Y00775*
X01922Y00769*
X01916Y00761*
X01912Y00752*
X01911Y00747*
X01944*
Y0078*
G37*
G36*
X0045Y-01218D02*
X00441Y-01219D01*
X00434Y-01222*
X00427Y-01227*
X00422Y-01234*
X00419Y-01241*
X00418Y-0125*
X00419Y-01258*
X00422Y-01265*
X00427Y-01272*
X00434Y-01277*
X00441Y-0128*
X0045Y-01281*
X00458Y-0128*
X00465Y-01277*
X00472Y-01272*
X00477Y-01265*
X0048Y-01258*
X00481Y-0125*
X0048Y-01241*
X00477Y-01234*
X00472Y-01227*
X00465Y-01222*
X00458Y-01219*
X0045Y-01218*
G37*
G36*
X0065D02*
X00641Y-01219D01*
X00634Y-01222*
X00627Y-01227*
X00622Y-01234*
X00619Y-01241*
X00618Y-0125*
X00619Y-01258*
X00622Y-01265*
X00627Y-01272*
X00634Y-01277*
X00641Y-0128*
X0065Y-01281*
X00658Y-0128*
X00665Y-01277*
X00672Y-01272*
X00677Y-01265*
X0068Y-01258*
X00681Y-0125*
X0068Y-01241*
X00677Y-01234*
X00672Y-01227*
X00665Y-01222*
X00658Y-01219*
X0065Y-01218*
G37*
G36*
X00945Y-01215D02*
X0094Y-01215D01*
X00932Y-01219*
X00925Y-01225*
X00919Y-01232*
X00915Y-0124*
X00915Y-01245*
X00945*
Y-01215*
G37*
G36*
X-0005Y-01218D02*
X-00058Y-01219D01*
X-00065Y-01222*
X-00072Y-01227*
X-00077Y-01234*
X-0008Y-01241*
X-00081Y-0125*
X-0008Y-01258*
X-00077Y-01265*
X-00072Y-01272*
X-00065Y-01277*
X-00058Y-0128*
X-0005Y-01281*
X-00041Y-0128*
X-00034Y-01277*
X-00027Y-01272*
X-00022Y-01265*
X-00019Y-01258*
X-00018Y-0125*
X-00019Y-01241*
X-00022Y-01234*
X-00027Y-01227*
X-00034Y-01222*
X-00041Y-01219*
X-0005Y-01218*
G37*
G36*
X-0035D02*
X-00358Y-01219D01*
X-00365Y-01222*
X-00372Y-01227*
X-00377Y-01234*
X-0038Y-01241*
X-00381Y-0125*
X-0038Y-01258*
X-00377Y-01265*
X-00372Y-01272*
X-00365Y-01277*
X-00358Y-0128*
X-0035Y-01281*
X-00341Y-0128*
X-00334Y-01277*
X-00327Y-01272*
X-00322Y-01265*
X-00319Y-01258*
X-00318Y-0125*
X-00319Y-01241*
X-00322Y-01234*
X-00327Y-01227*
X-00334Y-01222*
X-00341Y-01219*
X-0035Y-01218*
G37*
G36*
X-0025D02*
X-00258Y-01219D01*
X-00265Y-01222*
X-00272Y-01227*
X-00277Y-01234*
X-0028Y-01241*
X-00281Y-0125*
X-0028Y-01258*
X-00277Y-01265*
X-00272Y-01272*
X-00265Y-01277*
X-00258Y-0128*
X-0025Y-01281*
X-00241Y-0128*
X-00234Y-01277*
X-00227Y-01272*
X-00222Y-01265*
X-00219Y-01258*
X-00218Y-0125*
X-00219Y-01241*
X-00222Y-01234*
X-00227Y-01227*
X-00234Y-01222*
X-00241Y-01219*
X-0025Y-01218*
G37*
G36*
X-0015D02*
X-00158Y-01219D01*
X-00165Y-01222*
X-00172Y-01227*
X-00177Y-01234*
X-0018Y-01241*
X-00181Y-0125*
X-0018Y-01258*
X-00177Y-01265*
X-00172Y-01272*
X-00165Y-01277*
X-00158Y-0128*
X-0015Y-01281*
X-00141Y-0128*
X-00134Y-01277*
X-00127Y-01272*
X-00122Y-01265*
X-00119Y-01258*
X-00118Y-0125*
X-00119Y-01241*
X-00122Y-01234*
X-00127Y-01227*
X-00134Y-01222*
X-00141Y-01219*
X-0015Y-01218*
G37*
G36*
X-01248Y-00581D02*
X-01248Y-00581D01*
X-01249Y-00581*
X-01256Y-00583*
X-01257Y-00583*
X-01258Y-00584*
X-01264Y-00588*
X-01265Y-00589*
X-01266Y-00589*
X-0127Y-00595*
X-0127Y-00597*
X-01271Y-00598*
X-01272Y-00605*
X-01272Y-00606*
X-01272Y-00607*
X-01271Y-00614*
X-0127Y-00615*
X-0127Y-00616*
X-01266Y-00622*
X-01265Y-00623*
X-01264Y-00624*
X-01258Y-00628*
X-01257Y-00628*
X-01256Y-00629*
X-01249Y-0063*
X-01248Y-0063*
X-01248Y-0063*
X-01247Y-0063*
X-01246Y-0063*
X-01239Y-00629*
X-01238Y-00628*
X-01237Y-00628*
X-01231Y-00624*
X-0123Y-00623*
X-01229Y-00622*
X-01225Y-00616*
X-01225Y-00615*
X-01224Y-00614*
X-01223Y-00607*
X-01223Y-00606*
X-01223Y-00605*
X-01224Y-00598*
X-01225Y-00597*
X-01225Y-00595*
X-01229Y-00589*
X-0123Y-00589*
X-01231Y-00588*
X-01237Y-00584*
X-01238Y-00583*
X-01239Y-00583*
X-01246Y-00581*
X-01247Y-00581*
X-01248Y-00581*
G37*
G36*
X-00775D02*
X-00776Y-00581D01*
X-00776Y-00581*
X-00783Y-00583*
X-00784Y-00583*
X-00786Y-00584*
X-00791Y-00588*
X-00792Y-00589*
X-00793Y-00589*
X-00797Y-00595*
X-00797Y-00597*
X-00798Y-00598*
X-008Y-00605*
X-00799Y-00606*
X-008Y-00607*
X-00798Y-00614*
X-00797Y-00615*
X-00797Y-00616*
X-00793Y-00622*
X-00792Y-00623*
X-00791Y-00624*
X-00786Y-00628*
X-00784Y-00628*
X-00783Y-00629*
X-00776Y-0063*
X-00776Y-0063*
X-00775Y-0063*
X-00774Y-0063*
X-00774Y-0063*
X-00767Y-00629*
X-00766Y-00628*
X-00765Y-00628*
X-00759Y-00624*
X-00758Y-00623*
X-00757Y-00622*
X-00753Y-00616*
X-00753Y-00615*
X-00752Y-00614*
X-00751Y-00607*
X-00751Y-00606*
X-00751Y-00605*
X-00752Y-00598*
X-00753Y-00597*
X-00753Y-00595*
X-00757Y-00589*
X-00758Y-00589*
X-00759Y-00588*
X-00765Y-00584*
X-00766Y-00583*
X-00767Y-00583*
X-00774Y-00581*
X-00774Y-00581*
X-00775Y-00581*
G37*
G36*
X-00582D02*
X-00583Y-00581D01*
X-00583Y-00581*
X-0059Y-00583*
X-00591Y-00583*
X-00593Y-00584*
X-00599Y-00588*
X-00599Y-00589*
X-006Y-00589*
X-00604Y-00595*
X-00605Y-00597*
X-00605Y-00598*
X-00607Y-00605*
X-00606Y-00606*
X-00607Y-00607*
X-00605Y-00614*
X-00605Y-00615*
X-00604Y-00616*
X-006Y-00622*
X-00599Y-00623*
X-00599Y-00624*
X-00593Y-00628*
X-00591Y-00628*
X-0059Y-00629*
X-00583Y-0063*
X-00583Y-0063*
X-00582Y-0063*
X-00582Y-0063*
X-00581Y-0063*
X-00574Y-00629*
X-00573Y-00628*
X-00572Y-00628*
X-00566Y-00624*
X-00565Y-00623*
X-00564Y-00622*
X-0056Y-00616*
X-0056Y-00615*
X-00559Y-00614*
X-00558Y-00607*
X-00558Y-00606*
X-00558Y-00605*
X-00559Y-00598*
X-0056Y-00597*
X-0056Y-00595*
X-00564Y-00589*
X-00565Y-00589*
X-00566Y-00588*
X-00572Y-00584*
X-00573Y-00583*
X-00574Y-00583*
X-00581Y-00581*
X-00582Y-00581*
X-00582Y-00581*
G37*
G36*
X-01576D02*
X-01577Y-00581D01*
X-01578Y-00581*
X-01584Y-00583*
X-01586Y-00583*
X-01587Y-00584*
X-01593Y-00588*
X-01593Y-00589*
X-01594Y-00589*
X-01598Y-00595*
X-01599Y-00597*
X-01599Y-00598*
X-01601Y-00605*
X-016Y-00606*
X-01601Y-00607*
X-01599Y-00614*
X-01599Y-00615*
X-01598Y-00616*
X-01594Y-00622*
X-01593Y-00623*
X-01593Y-00624*
X-01587Y-00628*
X-01586Y-00628*
X-01584Y-00629*
X-01578Y-0063*
X-01577Y-0063*
X-01576Y-0063*
X-01576Y-0063*
X-01575Y-0063*
X-01568Y-00629*
X-01567Y-00628*
X-01566Y-00628*
X-0156Y-00624*
X-01559Y-00623*
X-01558Y-00622*
X-01554Y-00616*
X-01554Y-00615*
X-01553Y-00614*
X-01552Y-00607*
X-01552Y-00606*
X-01552Y-00605*
X-01553Y-00598*
X-01554Y-00597*
X-01554Y-00595*
X-01558Y-00589*
X-01559Y-00589*
X-0156Y-00588*
X-01566Y-00584*
X-01567Y-00583*
X-01568Y-00583*
X-01575Y-00581*
X-01576Y-00581*
X-01576Y-00581*
G37*
G36*
X00955Y-01215D02*
Y-01245D01*
X00984*
X00984Y-0124*
X0098Y-01232*
X00974Y-01225*
X00967Y-01219*
X00959Y-01215*
X00955Y-01215*
G37*
G36*
X-02007Y-00544D02*
X-02027Y-00546D01*
X-02046Y-0055*
X-02064Y-00558*
X-02081Y-00568*
X-02095Y-00581*
X-02108Y-00596*
X-02118Y-00612*
X-02126Y-0063*
X-0213Y-00649*
X-02132Y-00669*
X-0213Y-00688*
X-02126Y-00707*
X-02118Y-00725*
X-02108Y-00742*
X-02095Y-00757*
X-02081Y-0077*
X-02064Y-0078*
X-02046Y-00787*
X-02027Y-00792*
X-02007Y-00793*
X-01988Y-00792*
X-01969Y-00787*
X-01951Y-0078*
X-01934Y-0077*
X-01919Y-00757*
X-01907Y-00742*
X-01896Y-00725*
X-01889Y-00707*
X-01884Y-00688*
X-01883Y-00669*
X-01884Y-00649*
X-01889Y-0063*
X-01896Y-00612*
X-01907Y-00596*
X-01919Y-00581*
X-01934Y-00568*
X-01951Y-00558*
X-01969Y-0055*
X-01988Y-00546*
X-02007Y-00544*
G37*
G36*
X02007D02*
X01988Y-00546D01*
X01969Y-0055*
X01951Y-00558*
X01934Y-00568*
X01919Y-00581*
X01907Y-00596*
X01896Y-00612*
X01889Y-0063*
X01884Y-00649*
X01883Y-00669*
X01884Y-00688*
X01889Y-00707*
X01896Y-00725*
X01907Y-00742*
X01919Y-00757*
X01934Y-0077*
X01951Y-0078*
X01969Y-00787*
X01988Y-00792*
X02007Y-00793*
X02027Y-00792*
X02046Y-00787*
X02064Y-0078*
X02081Y-0077*
X02095Y-00757*
X02108Y-00742*
X02118Y-00725*
X02126Y-00707*
X0213Y-00688*
X02132Y-00669*
X0213Y-00649*
X02126Y-0063*
X02118Y-00612*
X02108Y-00596*
X02095Y-00581*
X02081Y-00568*
X02064Y-00558*
X02046Y-0055*
X02027Y-00546*
X02007Y-00544*
G37*
G36*
X00084Y-01255D02*
X00055D01*
Y-01284*
X00059Y-01284*
X00067Y-0128*
X00074Y-01274*
X0008Y-01267*
X00084Y-01259*
X00084Y-01255*
G37*
G36*
X00184D02*
X00155D01*
Y-01284*
X00159Y-01284*
X00167Y-0128*
X00174Y-01274*
X0018Y-01267*
X00184Y-01259*
X00184Y-01255*
G37*
G36*
X00284D02*
X00255D01*
Y-01284*
X00259Y-01284*
X00267Y-0128*
X00274Y-01274*
X0028Y-01267*
X00284Y-01259*
X00284Y-01255*
G37*
G36*
X00945D02*
X00915D01*
X00915Y-01259*
X00919Y-01267*
X00925Y-01274*
X00932Y-0128*
X0094Y-01284*
X00945Y-01284*
Y-01255*
G37*
G36*
X00045D02*
X00015D01*
X00015Y-01259*
X00019Y-01267*
X00025Y-01274*
X00032Y-0128*
X0004Y-01284*
X00045Y-01284*
Y-01255*
G37*
G36*
X00145D02*
X00115D01*
X00115Y-01259*
X00119Y-01267*
X00125Y-01274*
X00132Y-0128*
X0014Y-01284*
X00145Y-01284*
Y-01255*
G37*
G36*
X00245D02*
X00215D01*
X00215Y-01259*
X00219Y-01267*
X00225Y-01274*
X00232Y-0128*
X0024Y-01284*
X00245Y-01284*
Y-01255*
G37*
G36*
X-0065Y-01218D02*
X-00658Y-01219D01*
X-00665Y-01222*
X-00672Y-01227*
X-00677Y-01234*
X-0068Y-01241*
X-00681Y-0125*
X-0068Y-01258*
X-00677Y-01265*
X-00672Y-01272*
X-00665Y-01277*
X-00658Y-0128*
X-0065Y-01281*
X-00641Y-0128*
X-00634Y-01277*
X-00627Y-01272*
X-00622Y-01265*
X-00619Y-01258*
X-00618Y-0125*
X-00619Y-01241*
X-00622Y-01234*
X-00627Y-01227*
X-00634Y-01222*
X-00641Y-01219*
X-0065Y-01218*
G37*
G36*
X-0055D02*
X-00558Y-01219D01*
X-00565Y-01222*
X-00572Y-01227*
X-00577Y-01234*
X-0058Y-01241*
X-00581Y-0125*
X-0058Y-01258*
X-00577Y-01265*
X-00572Y-01272*
X-00565Y-01277*
X-00558Y-0128*
X-0055Y-01281*
X-00541Y-0128*
X-00534Y-01277*
X-00527Y-01272*
X-00522Y-01265*
X-00519Y-01258*
X-00518Y-0125*
X-00519Y-01241*
X-00522Y-01234*
X-00527Y-01227*
X-00534Y-01222*
X-00541Y-01219*
X-0055Y-01218*
G37*
G36*
X-0045D02*
X-00458Y-01219D01*
X-00465Y-01222*
X-00472Y-01227*
X-00477Y-01234*
X-0048Y-01241*
X-00481Y-0125*
X-0048Y-01258*
X-00477Y-01265*
X-00472Y-01272*
X-00465Y-01277*
X-00458Y-0128*
X-0045Y-01281*
X-00441Y-0128*
X-00434Y-01277*
X-00427Y-01272*
X-00422Y-01265*
X-00419Y-01258*
X-00418Y-0125*
X-00419Y-01241*
X-00422Y-01234*
X-00427Y-01227*
X-00434Y-01222*
X-00441Y-01219*
X-0045Y-01218*
G37*
G36*
X-0075D02*
X-00758Y-01219D01*
X-00765Y-01222*
X-00772Y-01227*
X-00777Y-01234*
X-0078Y-01241*
X-00781Y-0125*
X-0078Y-01258*
X-00777Y-01265*
X-00772Y-01272*
X-00765Y-01277*
X-00758Y-0128*
X-0075Y-01281*
X-00741Y-0128*
X-00734Y-01277*
X-00727Y-01272*
X-00722Y-01265*
X-00719Y-01258*
X-00718Y-0125*
X-00719Y-01241*
X-00722Y-01234*
X-00727Y-01227*
X-00734Y-01222*
X-00741Y-01219*
X-0075Y-01218*
G37*
G36*
X00984Y-01255D02*
X00955D01*
Y-01284*
X00959Y-01284*
X00967Y-0128*
X00974Y-01274*
X0098Y-01267*
X00984Y-01259*
X00984Y-01255*
G37*
G36*
X-0095Y-01218D02*
X-00958Y-01219D01*
X-00965Y-01222*
X-00972Y-01227*
X-00977Y-01234*
X-0098Y-01241*
X-00981Y-0125*
X-0098Y-01258*
X-00977Y-01265*
X-00972Y-01272*
X-00965Y-01277*
X-00958Y-0128*
X-0095Y-01281*
X-00941Y-0128*
X-00934Y-01277*
X-00927Y-01272*
X-00922Y-01265*
X-00919Y-01258*
X-00918Y-0125*
X-00919Y-01241*
X-00922Y-01234*
X-00927Y-01227*
X-00934Y-01222*
X-00941Y-01219*
X-0095Y-01218*
G37*
G36*
X-0085D02*
X-00858Y-01219D01*
X-00865Y-01222*
X-00872Y-01227*
X-00877Y-01234*
X-0088Y-01241*
X-00881Y-0125*
X-0088Y-01258*
X-00877Y-01265*
X-00872Y-01272*
X-00865Y-01277*
X-00858Y-0128*
X-0085Y-01281*
X-00841Y-0128*
X-00834Y-01277*
X-00827Y-01272*
X-00822Y-01265*
X-00819Y-01258*
X-00818Y-0125*
X-00819Y-01241*
X-00822Y-01234*
X-00827Y-01227*
X-00834Y-01222*
X-00841Y-01219*
X-0085Y-01218*
G37*
G36*
X00206Y-00322D02*
X00198Y-00324D01*
X00191Y-00328*
X00186Y-00336*
X00184Y-00344*
X00186Y-00352*
X00191Y-0036*
X00198Y-00364*
X00206Y-00366*
X00215Y-00364*
X00222Y-0036*
X00227Y-00352*
X00228Y-00344*
X00227Y-00336*
X00222Y-00328*
X00215Y-00324*
X00206Y-00322*
G37*
G36*
X00255Y-00312D02*
X00247Y-00314D01*
X0024Y-00318*
X00235Y-00326*
X00233Y-00334*
X00235Y-00343*
X0024Y-0035*
X00247Y-00355*
X00255Y-00356*
X00264Y-00355*
X00271Y-0035*
X00276Y-00343*
X00278Y-00334*
X00276Y-00326*
X00271Y-00318*
X00264Y-00314*
X00255Y-00312*
G37*
G36*
X-00679Y-00292D02*
X-00687Y-00294D01*
X-00694Y-00299*
X-00699Y-00306*
X-00701Y-00314*
X-00699Y-00323*
X-00694Y-0033*
X-00687Y-00335*
X-00679Y-00337*
X-0067Y-00335*
X-00663Y-0033*
X-00658Y-00323*
X-00656Y-00314*
X-00658Y-00306*
X-00663Y-00299*
X-0067Y-00294*
X-00679Y-00292*
G37*
G36*
X-01141Y-00361D02*
X-0115Y-00363D01*
X-01157Y-00368*
X-01162Y-00375*
X-01163Y-00383*
X-01162Y-00392*
X-01157Y-00399*
X-0115Y-00404*
X-01141Y-00406*
X-01133Y-00404*
X-01126Y-00399*
X-01121Y-00392*
X-01119Y-00383*
X-01121Y-00375*
X-01126Y-00368*
X-01133Y-00363*
X-01141Y-00361*
G37*
G36*
X-00925Y-00351D02*
X-00933Y-00353D01*
X-0094Y-00358*
X-00945Y-00365*
X-00947Y-00374*
X-00945Y-00382*
X-0094Y-00389*
X-00933Y-00394*
X-00925Y-00396*
X-00922Y-00395*
X-00889Y-00428*
Y-00464*
X-00894Y-00464*
X-00894Y-00463*
X-00899Y-00456*
X-00906Y-00451*
X-00915Y-0045*
X-00917Y-0045*
X-00954Y-00413*
X-00959Y-0041*
X-00964Y-00409*
X-00996*
X-00998Y-00407*
X-01005Y-00402*
X-01013Y-00401*
X-01022Y-00402*
X-01029Y-00407*
X-01034Y-00414*
X-01035Y-00423*
X-01034Y-00431*
X-01029Y-00438*
X-01022Y-00443*
X-01013Y-00445*
X-01005Y-00443*
X-00998Y-00438*
X-00996Y-00436*
X-0097*
X-00937Y-0047*
X-00937Y-00472*
X-00935Y-0048*
X-00931Y-00488*
X-00923Y-00492*
X-00915Y-00494*
X-00906Y-00492*
X-00899Y-00488*
X-00894Y-0048*
X-00894Y-0048*
X-00889Y-0048*
Y-00691*
X-00891Y-00692*
X-00896Y-007*
X-00898Y-00708*
X-00896Y-00717*
X-00891Y-00724*
X-00884Y-00729*
X-00875Y-0073*
X-00867Y-00729*
X-0086Y-00724*
X-00855Y-00717*
X-00853Y-00708*
X-00855Y-007*
X-0086Y-00692*
X-00862Y-00691*
Y-00423*
X-00863Y-00417*
X-00866Y-00413*
X-00903Y-00376*
X-00903Y-00374*
X-00904Y-00365*
X-00909Y-00358*
X-00916Y-00353*
X-00925Y-00351*
G37*
G36*
X-00147Y-00391D02*
X-00156Y-00392D01*
X-00163Y-00397*
X-00168Y-00404*
X-00169Y-00413*
X-00168Y-00421*
X-00163Y-00429*
X-00156Y-00433*
X-00147Y-00435*
X-00139Y-00433*
X-00131Y-00429*
X-00127Y-00421*
X-00125Y-00413*
X-00127Y-00404*
X-00131Y-00397*
X-00139Y-00392*
X-00147Y-00391*
G37*
G36*
X00068Y-00371D02*
X0006Y-00373D01*
X00053Y-00378*
X00048Y-00385*
X00046Y-00393*
X00048Y-00402*
X00053Y-00409*
X0006Y-00414*
X00068Y-00415*
X00077Y-00414*
X00084Y-00409*
X00089Y-00402*
X00091Y-00393*
X00089Y-00385*
X00084Y-00378*
X00077Y-00373*
X00068Y-00371*
G37*
G36*
X01512Y00018D02*
X01503Y00016D01*
X01496Y00011*
X01491Y00004*
X0149Y-00003*
X01491Y-00012*
X01496Y-00019*
X01499Y-00021*
Y-00026*
X01496Y-00028*
X01491Y-00035*
X0149Y-00043*
X01491Y-00052*
X01496Y-00059*
X01503Y-00064*
X01512Y-00065*
X0152Y-00064*
X01528Y-00059*
X01532Y-00052*
X01534Y-00043*
X01532Y-00035*
X01528Y-00028*
X01525Y-00026*
Y-00021*
X01528Y-00019*
X01532Y-00012*
X01534Y-00003*
X01532Y00004*
X01528Y00011*
X0152Y00016*
X01512Y00018*
G37*
G36*
X-02051Y-00006D02*
X-02072D01*
X-02093*
Y-0002*
X-02093Y-00024*
X-0209Y-00027*
X-02087Y-0003*
X-02086Y-0003*
Y-00043*
X-02085Y-00047*
X-02082Y-00051*
X-02079Y-00053*
X-02074Y-00054*
X-0207Y-00053*
X-02066Y-00051*
X-02064Y-00047*
X-02063Y-00043*
Y-0003*
X-02062*
X-02058Y-0003*
X-02054Y-00027*
X-02052Y-00024*
X-02051Y-0002*
Y-00006*
G37*
G36*
X0197Y00056D02*
X01942D01*
X01915*
Y00031*
X01915Y00027*
X01917Y00024*
X01918Y00023*
X01921Y00021*
X01921Y00016*
X01921Y00016*
Y00009*
X01911*
X01907Y00008*
X01903Y00005*
X01901Y00002*
X019Y-00001*
X01901Y-00006*
X01903Y-00009*
X01907Y-00012*
X01911Y-00013*
X01921*
Y-0002*
X01922Y-00024*
X01924Y-00027*
X01928Y-0003*
X01932Y-0003*
X01937*
Y-00001*
X01942*
Y00003*
X01963*
Y00016*
X01963Y0002*
X01963Y00021*
X01964Y00022*
X01967Y00024*
X0197Y00027*
X0197Y00031*
Y00056*
G37*
G36*
X01237Y-00092D02*
X01228Y-00094D01*
X01221Y-00099*
X01216Y-00106*
X01215Y-00115*
X01216Y-00123*
X01221Y-0013*
X01228Y-00135*
X01237Y-00137*
X01245Y-00135*
X01252Y-0013*
X01257Y-00123*
X01259Y-00115*
X01257Y-00106*
X01252Y-00099*
X01245Y-00094*
X01237Y-00092*
G37*
G36*
X01801Y-00164D02*
X01792Y-00166D01*
X01785Y-00171*
X0178Y-00178*
X01779Y-00187*
X0178Y-00195*
X01785Y-00202*
X01792Y-00207*
X01801Y-00209*
X01809Y-00207*
X01816Y-00202*
X01821Y-00195*
X01823Y-00187*
X01821Y-00178*
X01816Y-00171*
X01809Y-00166*
X01801Y-00164*
G37*
G36*
X-00757Y-00115D02*
X-00766Y-00117D01*
X-00773Y-00122*
X-00774Y-00124*
X-01171*
X-01176Y-00125*
X-0118Y-00128*
X-01269Y-00216*
X-01272Y-00221*
X-01273Y-00226*
Y-00248*
X-01275Y-0025*
X-0128Y-00257*
X-01282Y-00265*
X-0128Y-00274*
X-01275Y-00281*
X-01268Y-00286*
X-01259Y-00287*
X-01251Y-00286*
X-01244Y-00281*
X-01239Y-00274*
X-01237Y-00265*
X-01239Y-00257*
X-01244Y-0025*
X-01246Y-00248*
Y-00232*
X-01165Y-00151*
X-00774*
X-00773Y-00153*
X-00766Y-00158*
X-00757Y-00159*
X-00749Y-00158*
X-00742Y-00153*
X-00737Y-00146*
X-00735Y-00137*
X-00737Y-00129*
X-00742Y-00122*
X-00749Y-00117*
X-00757Y-00115*
G37*
G36*
X00813Y-00092D02*
X00805Y-00094D01*
X00798Y-00099*
X00793Y-00106*
X00791Y-00115*
X00793Y-00123*
X00798Y-0013*
X00805Y-00135*
X00813Y-00137*
X00822Y-00135*
X00829Y-0013*
X00834Y-00123*
X00836Y-00115*
X00834Y-00106*
X00829Y-00099*
X00822Y-00094*
X00813Y-00092*
G37*
G36*
X00897Y-00581D02*
X00897Y-00581D01*
X00896Y-00581*
X00889Y-00583*
X00888Y-00583*
X00887Y-00584*
X00881Y-00588*
X0088Y-00589*
X00879Y-00589*
X00875Y-00595*
X00875Y-00597*
X00874Y-00598*
X00873Y-00605*
X00873Y-00606*
X00873Y-00607*
X00874Y-00614*
X00875Y-00615*
X00875Y-00616*
X00879Y-00622*
X0088Y-00623*
X00881Y-00624*
X00887Y-00628*
X00888Y-00628*
X00889Y-00629*
X00896Y-0063*
X00897Y-0063*
X00897Y-0063*
X00898Y-0063*
X00898Y-0063*
X00905Y-00629*
X00906Y-00628*
X00908Y-00628*
X00914Y-00624*
X00914Y-00623*
X00915Y-00622*
X00919Y-00616*
X00919Y-00615*
X0092Y-00614*
X00922Y-00607*
X00921Y-00606*
X00922Y-00605*
X0092Y-00598*
X00919Y-00597*
X00919Y-00595*
X00915Y-00589*
X00914Y-00589*
X00914Y-00588*
X00908Y-00584*
X00906Y-00583*
X00905Y-00583*
X00898Y-00581*
X00898Y-00581*
X00897Y-00581*
G37*
G36*
X0109D02*
X01089Y-00581D01*
X01089Y-00581*
X01082Y-00583*
X01081Y-00583*
X0108Y-00584*
X01074Y-00588*
X01073Y-00589*
X01072Y-00589*
X01068Y-00595*
X01068Y-00597*
X01067Y-00598*
X01066Y-00605*
X01066Y-00606*
X01066Y-00607*
X01067Y-00614*
X01068Y-00615*
X01068Y-00616*
X01072Y-00622*
X01073Y-00623*
X01074Y-00624*
X0108Y-00628*
X01081Y-00628*
X01082Y-00629*
X01089Y-0063*
X01089Y-0063*
X0109Y-0063*
X01091Y-0063*
X01091Y-0063*
X01098Y-00629*
X01099Y-00628*
X01101Y-00628*
X01106Y-00624*
X01107Y-00623*
X01108Y-00622*
X01112Y-00616*
X01112Y-00615*
X01113Y-00614*
X01114Y-00607*
X01114Y-00606*
X01114Y-00605*
X01113Y-00598*
X01112Y-00597*
X01112Y-00595*
X01108Y-00589*
X01107Y-00589*
X01106Y-00588*
X01101Y-00584*
X01099Y-00583*
X01098Y-00583*
X01091Y-00581*
X01091Y-00581*
X0109Y-00581*
G37*
G36*
X0132D02*
X0132Y-00581D01*
X01319Y-00581*
X01312Y-00583*
X01311Y-00583*
X0131Y-00584*
X01304Y-00588*
X01303Y-00589*
X01302Y-00589*
X01298Y-00595*
X01298Y-00597*
X01297Y-00598*
X01296Y-00605*
X01296Y-00606*
X01296Y-00607*
X01297Y-00614*
X01298Y-00615*
X01298Y-00616*
X01302Y-00622*
X01303Y-00623*
X01304Y-00624*
X0131Y-00628*
X01311Y-00628*
X01312Y-00629*
X01319Y-0063*
X0132Y-0063*
X0132Y-0063*
X01321Y-0063*
X01322Y-0063*
X01329Y-00629*
X0133Y-00628*
X01331Y-00628*
X01337Y-00624*
X01337Y-00623*
X01339Y-00622*
X01342Y-00616*
X01343Y-00615*
X01343Y-00614*
X01345Y-00607*
X01345Y-00606*
X01345Y-00605*
X01343Y-00598*
X01343Y-00597*
X01342Y-00595*
X01339Y-00589*
X01337Y-00589*
X01337Y-00588*
X01331Y-00584*
X0133Y-00583*
X01329Y-00583*
X01322Y-00581*
X01321Y-00581*
X0132Y-00581*
G37*
G36*
X00667D02*
X00666Y-00581D01*
X00666Y-00581*
X00659Y-00583*
X00658Y-00583*
X00656Y-00584*
X0065Y-00588*
X0065Y-00589*
X00649Y-00589*
X00645Y-00595*
X00644Y-00597*
X00644Y-00598*
X00642Y-00605*
X00643Y-00606*
X00642Y-00607*
X00644Y-00614*
X00644Y-00615*
X00645Y-00616*
X00649Y-00622*
X0065Y-00623*
X0065Y-00624*
X00656Y-00628*
X00658Y-00628*
X00659Y-00629*
X00666Y-0063*
X00666Y-0063*
X00667Y-0063*
X00667Y-0063*
X00668Y-0063*
X00675Y-00629*
X00676Y-00628*
X00677Y-00628*
X00683Y-00624*
X00684Y-00623*
X00685Y-00622*
X00689Y-00616*
X00689Y-00615*
X0069Y-00614*
X00691Y-00607*
X00691Y-00606*
X00691Y-00605*
X0069Y-00598*
X00689Y-00597*
X00689Y-00595*
X00685Y-00589*
X00684Y-00589*
X00683Y-00588*
X00677Y-00584*
X00676Y-00583*
X00675Y-00583*
X00668Y-00581*
X00667Y-00581*
X00667Y-00581*
G37*
G36*
X-00253D02*
X-00254Y-00581D01*
X-00255Y-00581*
X-00262Y-00583*
X-00263Y-00583*
X-00264Y-00584*
X-0027Y-00588*
X-00271Y-00589*
X-00272Y-00589*
X-00276Y-00595*
X-00276Y-00597*
X-00276Y-00598*
X-00278Y-00605*
X-00278Y-00606*
X-00278Y-00607*
X-00276Y-00614*
X-00276Y-00615*
X-00276Y-00616*
X-00272Y-00622*
X-00271Y-00623*
X-0027Y-00624*
X-00264Y-00628*
X-00263Y-00628*
X-00262Y-00629*
X-00255Y-0063*
X-00254Y-0063*
X-00253Y-0063*
X-00253Y-0063*
X-00252Y-0063*
X-00245Y-00629*
X-00244Y-00628*
X-00243Y-00628*
X-00237Y-00624*
X-00236Y-00623*
X-00235Y-00622*
X-00231Y-00616*
X-00231Y-00615*
X-0023Y-00614*
X-00229Y-00607*
X-00229Y-00606*
X-00229Y-00605*
X-0023Y-00598*
X-00231Y-00597*
X-00231Y-00595*
X-00235Y-00589*
X-00236Y-00589*
X-00237Y-00588*
X-00243Y-00584*
X-00244Y-00583*
X-00245Y-00583*
X-00252Y-00581*
X-00253Y-00581*
X-00253Y-00581*
G37*
G36*
X00066D02*
X00066Y-00581D01*
X00065Y-00581*
X00058Y-00583*
X00057Y-00583*
X00056Y-00584*
X0005Y-00588*
X00049Y-00589*
X00048Y-00589*
X00044Y-00595*
X00044Y-00597*
X00043Y-00598*
X00042Y-00605*
X00042Y-00606*
X00042Y-00607*
X00043Y-00614*
X00044Y-00615*
X00044Y-00616*
X00048Y-00622*
X00049Y-00623*
X0005Y-00624*
X00056Y-00628*
X00057Y-00628*
X00058Y-00629*
X00065Y-0063*
X00066Y-0063*
X00066Y-0063*
X00067Y-0063*
X00068Y-0063*
X00075Y-00629*
X00076Y-00628*
X00077Y-00628*
X00083Y-00624*
X00084Y-00623*
X00085Y-00622*
X00089Y-00616*
X00089Y-00615*
X00089Y-00614*
X00091Y-00607*
X00091Y-00606*
X00091Y-00605*
X00089Y-00598*
X00089Y-00597*
X00089Y-00595*
X00085Y-00589*
X00084Y-00589*
X00083Y-00588*
X00077Y-00584*
X00076Y-00583*
X00075Y-00583*
X00068Y-00581*
X00067Y-00581*
X00066Y-00581*
G37*
G36*
X00346D02*
X00345Y-00581D01*
X00345Y-00581*
X00338Y-00583*
X00337Y-00583*
X00335Y-00584*
X0033Y-00588*
X00329Y-00589*
X00328Y-00589*
X00324Y-00595*
X00324Y-00597*
X00323Y-00598*
X00322Y-00605*
X00322Y-00606*
X00322Y-00607*
X00323Y-00614*
X00324Y-00615*
X00324Y-00616*
X00328Y-00622*
X00329Y-00623*
X0033Y-00624*
X00335Y-00628*
X00337Y-00628*
X00338Y-00629*
X00345Y-0063*
X00345Y-0063*
X00346Y-0063*
X00347Y-0063*
X00347Y-0063*
X00354Y-00629*
X00355Y-00628*
X00356Y-00628*
X00362Y-00624*
X00363Y-00623*
X00364Y-00622*
X00368Y-00616*
X00368Y-00615*
X00369Y-00614*
X0037Y-00607*
X0037Y-00606*
X0037Y-00605*
X00369Y-00598*
X00368Y-00597*
X00368Y-00595*
X00364Y-00589*
X00363Y-00589*
X00362Y-00588*
X00356Y-00584*
X00355Y-00583*
X00354Y-00583*
X00347Y-00581*
X00347Y-00581*
X00346Y-00581*
G37*
G36*
X-01135Y-00482D02*
X-01143Y-00484D01*
X-0115Y-00489*
X-01153Y-00493*
X-01155*
X-01159Y-00494*
X-01162Y-00497*
X-01192Y-00527*
X-01195Y-0053*
X-01196Y-00535*
Y-00745*
X-01195Y-00749*
X-01192Y-00752*
X-01072Y-00872*
X-01069Y-00875*
X-01065Y-00876*
X-00774*
X-00452Y-01197*
X-00449Y-012*
X-00445Y-01201*
X00005*
X00022Y-01217*
X00024Y-01219*
X00025Y-01224*
X00025Y-01225*
X00019Y-01232*
X00015Y-0124*
X00015Y-01245*
X0005*
X00084*
X00084Y-0124*
X0008Y-01232*
X00075Y-01226*
X00077Y-01221*
X00122*
X00124Y-01226*
X00119Y-01232*
X00115Y-0124*
X00115Y-01245*
X0015*
X00184*
X00184Y-0124*
X0018Y-01232*
X00175Y-01226*
X00177Y-01221*
X00222*
X00224Y-01226*
X00219Y-01232*
X00215Y-0124*
X00215Y-01245*
X0025*
X00284*
X00284Y-0124*
X0028Y-01232*
X00275Y-01226*
X00277Y-01221*
X00305*
X00321Y-01237*
X00319Y-01241*
X00318Y-0125*
X00319Y-01258*
X00322Y-01265*
X00327Y-01272*
X00334Y-01277*
X00341Y-0128*
X0035Y-01281*
X00358Y-0128*
X00365Y-01277*
X00372Y-01272*
X00377Y-01265*
X0038Y-01258*
X00381Y-0125*
X0038Y-01241*
X00377Y-01234*
X00372Y-01227*
X00365Y-01222*
X00358Y-01219*
X0035Y-01218*
X00341Y-01219*
X00337Y-01221*
X00322Y-01206*
X00324Y-01201*
X00485*
X00521Y-01237*
X00519Y-01241*
X00518Y-0125*
X00519Y-01258*
X00522Y-01265*
X00527Y-01272*
X00534Y-01277*
X00541Y-0128*
X0055Y-01281*
X00558Y-0128*
X00565Y-01277*
X00572Y-01272*
X00577Y-01265*
X0058Y-01258*
X00581Y-0125*
X0058Y-01241*
X00577Y-01234*
X00572Y-01227*
X00565Y-01222*
X00558Y-01219*
X0055Y-01218*
X00541Y-01219*
X00537Y-01221*
X00502Y-01186*
X00504Y-01181*
X00665*
X00721Y-01237*
X00719Y-01241*
X00718Y-0125*
X00719Y-01258*
X00722Y-01265*
X00727Y-01272*
X00734Y-01277*
X00741Y-0128*
X0075Y-01281*
X00758Y-0128*
X00765Y-01277*
X00772Y-01272*
X00777Y-01265*
X0078Y-01258*
X00781Y-0125*
X0078Y-01241*
X00777Y-01234*
X00772Y-01227*
X00765Y-01222*
X00758Y-01219*
X0075Y-01218*
X00741Y-01219*
X00737Y-01221*
X00682Y-01166*
X00684Y-01161*
X00745*
X00821Y-01237*
X00819Y-01241*
X00818Y-0125*
X00819Y-01258*
X00822Y-01265*
X00827Y-01272*
X00834Y-01277*
X00841Y-0128*
X0085Y-01281*
X00858Y-0128*
X00865Y-01277*
X00872Y-01272*
X00877Y-01265*
X0088Y-01258*
X00881Y-0125*
X0088Y-01241*
X00877Y-01234*
X00872Y-01227*
X00865Y-01222*
X00858Y-01219*
X0085Y-01218*
X00841Y-01219*
X00837Y-01221*
X00757Y-01142*
X00754Y-01139*
X0075Y-01138*
X00064*
X00044Y-01118*
X0004Y-01116*
X00036Y-01115*
X00036*
X-00413*
X-00735Y-00793*
X-00739Y-00791*
X-00743Y-0079*
X-01033*
X-0109Y-00733*
Y-00676*
X-01087Y-00672*
X-01084Y-00669*
X-01083Y-00665*
Y-00628*
X-01079Y-00625*
X-01078Y-00623*
X-01072Y-00623*
X-01071Y-00624*
X-01065Y-00628*
X-01064Y-00628*
X-01063Y-00629*
X-01056Y-0063*
X-01055Y-0063*
X-01055Y-0063*
X-01054Y-0063*
X-01053Y-0063*
X-01046Y-00629*
X-01045Y-00628*
X-01044Y-00628*
X-01038Y-00624*
X-01038Y-00623*
X-01036Y-00622*
X-01033Y-00616*
X-01032Y-00615*
X-01032Y-00614*
X-0103Y-00607*
X-0103Y-00606*
X-0103Y-00605*
X-01032Y-00598*
X-01032Y-00597*
X-01033Y-00595*
X-01036Y-00589*
X-01038Y-00589*
X-01038Y-00588*
X-01044Y-00584*
X-01045Y-00583*
X-01046Y-00583*
X-01053Y-00581*
X-01054Y-00581*
X-01055Y-00581*
X-01055Y-00581*
X-01056Y-00581*
X-01063Y-00583*
X-01064Y-00583*
X-01065Y-00584*
X-01071Y-00588*
X-01072Y-00589*
X-01073Y-00589*
X-01074Y-00592*
X-01079Y-00594*
X-01086Y-00589*
X-01095Y-00587*
X-01103Y-00589*
X-0111Y-00594*
X-01115Y-00601*
X-01117Y-0061*
X-01115Y-00618*
X-0111Y-00625*
X-01106Y-00628*
Y-00655*
X-01107Y-00656*
X-01107Y-00656*
X-01114Y-00655*
X-01114Y-00654*
X-01123Y-00645*
Y-00583*
X-01119Y-0058*
X-01114Y-00573*
X-01112Y-00565*
X-01114Y-00556*
X-01117Y-00552*
X-01114Y-00547*
X-01095*
X-01095Y-00548*
X-0109Y-00555*
X-01083Y-0056*
X-01075Y-00562*
X-01066Y-0056*
X-01059Y-00555*
X-01054Y-00548*
X-01052Y-0054*
X-01054Y-00531*
X-01059Y-00524*
X-01066Y-00519*
X-01075Y-00517*
X-01083Y-00519*
X-0109Y-00524*
X-0109Y-00524*
X-01117*
X-01118Y-00519*
X-01114Y-00513*
X-01112Y-00505*
X-01114Y-00496*
X-01119Y-00489*
X-01126Y-00484*
X-01135Y-00482*
G37*
G36*
X-00295Y-0043D02*
X-00303Y-00432D01*
X-0031Y-00437*
X-00315Y-00444*
X-00317Y-00452*
X-00315Y-00461*
X-0031Y-00468*
X-00303Y-00473*
X-00295Y-00474*
X-00286Y-00473*
X-00279Y-00468*
X-00274Y-00461*
X-00273Y-00452*
X-00274Y-00444*
X-00279Y-00437*
X-00286Y-00432*
X-00295Y-0043*
G37*
G36*
X-002Y-00427D02*
X-00208Y-00429D01*
X-00215Y-00434*
X-0022Y-00441*
X-00222Y-0045*
X-0022Y-00458*
X-00215Y-00465*
X-00208Y-0047*
X-002Y-00472*
X-00191Y-0047*
X-00184Y-00465*
X-00179Y-00458*
X-00177Y-0045*
X-00179Y-00441*
X-00184Y-00434*
X-00191Y-00429*
X-002Y-00427*
G37*
G36*
X-01427Y-0045D02*
X-01435Y-00451D01*
X-01442Y-00456*
X-01447Y-00463*
X-01449Y-00472*
X-01447Y-0048*
X-01442Y-00488*
X-01435Y-00492*
X-01427Y-00494*
X-01418Y-00492*
X-01411Y-00488*
X-0141Y-00486*
X-01359*
X-01359Y-0049*
X-01354Y-00497*
X-01347Y-00502*
X-01338Y-00504*
X-0133Y-00502*
X-01322Y-00497*
X-01318Y-0049*
X-01316Y-00482*
X-01318Y-00473*
X-01322Y-00466*
X-0133Y-00461*
X-01338Y-0046*
X-01341Y-0046*
X-01343Y-00459*
X-01348Y-00458*
X-0141*
X-01411Y-00456*
X-01418Y-00451*
X-01427Y-0045*
G37*
G36*
X-0025Y-00477D02*
X-00258Y-00479D01*
X-00265Y-00484*
X-0027Y-00491*
X-00272Y-005*
X-0027Y-00508*
X-00265Y-00515*
X-00258Y-0052*
X-0025Y-00522*
X-00241Y-0052*
X-00234Y-00515*
X-00229Y-00508*
X-00227Y-005*
X-00229Y-00491*
X-00234Y-00484*
X-00241Y-00479*
X-0025Y-00477*
G37*
G36*
X00708Y-00469D02*
X007Y-00471D01*
X00692Y-00476*
X00688Y-00483*
X00686Y-00492*
X00688Y-005*
X00692Y-00507*
X007Y-00512*
X00708Y-00514*
X00717Y-00512*
X00724Y-00507*
X00729Y-005*
X0073Y-00492*
X00729Y-00483*
X00724Y-00476*
X00717Y-00471*
X00708Y-00469*
G37*
G36*
X01131D02*
X01123Y-00471D01*
X01116Y-00476*
X01111Y-00483*
X01109Y-00492*
X01111Y-005*
X01116Y-00507*
X01123Y-00512*
X01131Y-00514*
X0114Y-00512*
X01147Y-00507*
X01152Y-005*
X01154Y-00492*
X01152Y-00483*
X01147Y-00476*
X0114Y-00471*
X01131Y-00469*
G37*
G36*
X00578Y00969D02*
X00576Y00969D01*
X00575Y00969*
X00568Y00968*
X00567Y00967*
X00566Y00967*
X0056Y00963*
X00559Y00962*
X00558Y00961*
X00554Y00955*
X00554Y00954*
X00553Y00953*
X00552Y00946*
X00552Y00946*
X00552Y00945*
X00552Y00944*
X00552Y00944*
X00553Y00937*
X00554Y00936*
X00554Y00934*
X00558Y00929*
X00559Y00928*
X0056Y00927*
X00566Y00923*
X00567Y00923*
X00568Y00922*
X00575Y00921*
X00576Y00921*
X00578Y00921*
X00585Y00922*
X00586Y00923*
X00587Y00923*
X00593Y00927*
X00594Y00928*
X00595Y00929*
X00599Y00934*
X00599Y00936*
X006Y00937*
X00601Y00944*
X00601Y00944*
X00601Y00945*
X00601Y00946*
X00601Y00946*
X006Y00953*
X00599Y00954*
X00599Y00955*
X00595Y00961*
X00594Y00962*
X00593Y00963*
X00587Y00967*
X00586Y00967*
X00585Y00968*
X00578Y00969*
G37*
G36*
X00784Y01723D02*
X00778D01*
Y01694*
X00773*
Y01689*
X00752*
Y01676*
X00753Y01672*
X00752Y01671*
X00752Y0167*
X00748Y01668*
X00746Y01665*
X00745Y01661*
Y01636*
X00773*
X00801*
Y01661*
X008Y01665*
X00798Y01668*
X00795Y0167*
X00794Y01675*
X00794Y01676*
Y01683*
X00805*
X00809Y01684*
X00813Y01686*
X00815Y0169*
X00816Y01694*
X00815Y01699*
X00813Y01702*
X00809Y01705*
X00805Y01706*
X00794*
Y01713*
X00793Y01717*
X00791Y0172*
X00788Y01723*
X00784Y01723*
G37*
G36*
X01965D02*
X01959D01*
Y01694*
X01954*
Y01689*
X01933*
Y01676*
X01934Y01672*
X01933Y01671*
X01933Y0167*
X01929Y01668*
X01927Y01665*
X01926Y01661*
Y01636*
X01954*
X01982*
Y01661*
X01981Y01665*
X01979Y01668*
X01976Y0167*
X01975Y01675*
X01975Y01676*
Y01683*
X01986*
X0199Y01684*
X01994Y01686*
X01996Y0169*
X01997Y01694*
X01996Y01699*
X01994Y01702*
X0199Y01705*
X01986Y01706*
X01975*
Y01713*
X01974Y01717*
X01972Y0172*
X01969Y01723*
X01965Y01723*
G37*
G36*
X00548D02*
X00542D01*
Y01694*
X00537*
Y01689*
X00516*
Y01676*
X00517Y01672*
X00516Y01671*
X00515Y0167*
X00512Y01668*
X0051Y01665*
X00509Y01661*
Y01636*
X00537*
X00565*
Y01661*
X00564Y01665*
X00562Y01668*
X00559Y0167*
X00558Y01675*
X00558Y01676*
Y01683*
X00568*
X00573Y01684*
X00576Y01686*
X00579Y0169*
X0058Y01694*
X00579Y01699*
X00576Y01702*
X00573Y01705*
X00568Y01706*
X00558*
Y01713*
X00557Y01717*
X00555Y0172*
X00552Y01723*
X00548Y01723*
G37*
G36*
X-00396D02*
X-00402D01*
Y01694*
X-00407*
Y01689*
X-00428*
Y01676*
X-00427Y01672*
X-00428Y01671*
X-00429Y0167*
X-00432Y01668*
X-00434Y01665*
X-00435Y01661*
Y01636*
X-00407*
X-00379*
Y01661*
X-0038Y01665*
X-00382Y01668*
X-00383Y01669*
X-00387Y01672*
X-00386Y01676*
Y01683*
X-00375*
X-00371Y01684*
X-00368Y01686*
X-00365Y0169*
X-00364Y01694*
X-00365Y01699*
X-00368Y01702*
X-00371Y01705*
X-00375Y01706*
X-00386*
Y01713*
X-00387Y01717*
X-00389Y0172*
X-00392Y01723*
X-00396Y01723*
G37*
G36*
X01256D02*
X01251D01*
Y01694*
X01246*
Y01689*
X01225*
Y01676*
X01225Y01672*
X01225Y01671*
X01224Y0167*
X01221Y01668*
X01218Y01665*
X01218Y01661*
Y01636*
X01246*
X01273*
Y01661*
X01273Y01665*
X0127Y01668*
X0127Y01669*
X01266Y01672*
X01267Y01676*
Y01683*
X01277*
X01281Y01684*
X01285Y01686*
X01287Y0169*
X01288Y01694*
X01287Y01699*
X01285Y01702*
X01281Y01705*
X01277Y01706*
X01267*
Y01713*
X01266Y01717*
X01264Y0172*
X0126Y01723*
X01256Y01723*
G37*
G36*
X-01813D02*
X-01819D01*
Y01694*
X-01824*
Y01689*
X-01845*
Y01676*
X-01845Y01672*
X-01845Y01671*
X-01846Y0167*
X-01849Y01668*
X-01851Y01665*
X-01852Y01661*
Y01636*
X-01824*
X-01796*
Y01661*
X-01797Y01665*
X-01799Y01668*
X-018Y01669*
X-01804Y01672*
X-01803Y01676*
Y01683*
X-01793*
X-01789Y01684*
X-01785Y01686*
X-01782Y0169*
X-01782Y01694*
X-01782Y01699*
X-01785Y01702*
X-01789Y01705*
X-01793Y01706*
X-01803*
Y01713*
X-01804Y01717*
X-01806Y0172*
X-0181Y01723*
X-01813Y01723*
G37*
G36*
X-00632D02*
X-00638D01*
Y01694*
X-00643*
Y01689*
X-00664*
Y01676*
X-00663Y01672*
X-00664Y01671*
X-00665Y0167*
X-00668Y01668*
X-0067Y01665*
X-00671Y01661*
Y01636*
X-00643*
X-00615*
Y01661*
X-00616Y01665*
X-00618Y01668*
X-00619Y01669*
X-00623Y01672*
X-00622Y01676*
Y01683*
X-00612*
X-00607Y01684*
X-00604Y01686*
X-00601Y0169*
X-006Y01694*
X-00601Y01699*
X-00604Y01702*
X-00607Y01705*
X-00612Y01706*
X-00622*
Y01713*
X-00623Y01717*
X-00625Y0172*
X-00628Y01723*
X-00632Y01723*
G37*
G36*
X-01357D02*
X-01363D01*
X-01367Y01723*
X-0137Y0172*
X-01372Y01717*
X-01373Y01713*
Y01699*
X-01357*
Y01723*
G37*
G36*
X-00176D02*
X-00182D01*
X-00185Y01723*
X-00189Y0172*
X-00191Y01717*
X-00192Y01713*
Y01699*
X-00176*
Y01723*
G37*
G36*
X01004D02*
X00999D01*
X00995Y01723*
X00991Y0172*
X00989Y01717*
X00988Y01713*
Y01699*
X01004*
Y01723*
G37*
G36*
X-01593D02*
X-01599D01*
X-01603Y01723*
X-01606Y0172*
X-01608Y01717*
X-01609Y01713*
Y01699*
X-01593*
Y01723*
G37*
G36*
X01729D02*
X01723D01*
Y01694*
X01718*
Y01689*
X01697*
Y01676*
X01698Y01672*
X01697Y01671*
X01696Y0167*
X01693Y01668*
X01691Y01665*
X0169Y01661*
Y01636*
X01718*
X01746*
Y01661*
X01745Y01665*
X01743Y01668*
X01742Y01669*
X01738Y01672*
X01739Y01676*
Y01683*
X0175*
X01754Y01684*
X01757Y01686*
X0176Y0169*
X01761Y01694*
X0176Y01699*
X01757Y01702*
X01754Y01705*
X0175Y01706*
X01739*
Y01713*
X01738Y01717*
X01736Y0172*
X01733Y01723*
X01729Y01723*
G37*
G36*
X00296D02*
X0029D01*
X00286Y01723*
X00283Y0172*
X0028Y01717*
X0028Y01713*
Y01699*
X00296*
Y01723*
G37*
G36*
X01477D02*
X01471D01*
X01467Y01723*
X01464Y0172*
X01462Y01717*
X01461Y01713*
Y01699*
X01477*
Y01723*
G37*
G36*
X01982Y01626D02*
X01959D01*
Y01592*
X01972*
X01976Y01592*
X01979Y01595*
X01981Y01598*
X01982Y01602*
Y01626*
G37*
G36*
X-01105Y01723D02*
X-01111D01*
Y01694*
X-01116*
Y01689*
X-01137*
Y01676*
X-01136Y01672*
X-0114Y01669*
X-01141Y01668*
X-01143Y01665*
X-01144Y01661*
Y01636*
X-01116*
X-01088*
Y01661*
X-01089Y01665*
X-01091Y01668*
X-01091Y01669*
X-01095Y01672*
X-01095Y01676*
Y01683*
X-01084*
X-0108Y01684*
X-01076Y01686*
X-01074Y0169*
X-01073Y01694*
X-01074Y01699*
X-01076Y01702*
X-0108Y01705*
X-01084Y01706*
X-01095*
Y01713*
X-01095Y01717*
X-01098Y0172*
X-01101Y01723*
X-01105Y01723*
G37*
G36*
X00075D02*
X00069D01*
Y01694*
X00064*
Y01689*
X00043*
Y01676*
X00044Y01672*
X00044Y01671*
X00043Y0167*
X0004Y01668*
X00037Y01665*
X00037Y01661*
Y01636*
X00064*
X00092*
Y01661*
X00092Y01665*
X00089Y01668*
X00089Y01669*
X00085Y01672*
X00085Y01676*
Y01683*
X00096*
X001Y01684*
X00104Y01686*
X00106Y0169*
X00107Y01694*
X00106Y01699*
X00104Y01702*
X001Y01705*
X00096Y01706*
X00085*
Y01713*
X00085Y01717*
X00082Y0172*
X00079Y01723*
X00075Y01723*
G37*
G36*
X01949Y01626D02*
X01926D01*
Y01602*
X01927Y01598*
X01929Y01595*
X01933Y01592*
X01937Y01592*
X01949*
Y01626*
G37*
G36*
X0151D02*
X01487D01*
Y01592*
X015*
X01503Y01592*
X01507Y01595*
X01509Y01598*
X0151Y01602*
Y01626*
G37*
G36*
X01713D02*
X0169D01*
Y01602*
X01691Y01598*
X01693Y01595*
X01696Y01592*
X017Y01592*
X01713*
Y01626*
G37*
G36*
X01746D02*
X01723D01*
Y01592*
X01736*
X0174Y01592*
X01743Y01595*
X01745Y01598*
X01746Y01602*
Y01626*
G37*
G36*
X-00869Y01723D02*
X-00874D01*
Y01694*
X-00879*
Y01689*
X-009*
Y01676*
X-009Y01672*
X-009Y01671*
X-00901Y0167*
X-00904Y01668*
X-00907Y01665*
X-00907Y01661*
Y01636*
X-00879*
X-00852*
Y01661*
X-00852Y01665*
X-00854Y01668*
X-00855Y01669*
X-00859Y01672*
X-00858Y01676*
Y01683*
X-00848*
X-00844Y01684*
X-0084Y01686*
X-00838Y0169*
X-00837Y01694*
X-00838Y01699*
X-0084Y01702*
X-00844Y01705*
X-00848Y01706*
X-00858*
Y01713*
X-00859Y01717*
X-00861Y0172*
X-00865Y01723*
X-00869Y01723*
G37*
G36*
X-0016D02*
X-00166D01*
Y01694*
X-00171*
Y01689*
X-00192*
Y01676*
X-00191Y01672*
X-00192Y01671*
X-00192Y0167*
X-00196Y01668*
X-00198Y01665*
X-00199Y01661*
Y01636*
X-00171*
X-00143*
Y01661*
X-00144Y01665*
X-00146Y01668*
X-00147Y01669*
X-00151Y01672*
X-0015Y01676*
Y01683*
X-00139*
X-00135Y01684*
X-00131Y01686*
X-00129Y0169*
X-00128Y01694*
X-00129Y01699*
X-00131Y01702*
X-00135Y01705*
X-00139Y01706*
X-0015*
Y01713*
X-00151Y01717*
X-00153Y0172*
X-00156Y01723*
X-0016Y01723*
G37*
G36*
X0102D02*
X01014D01*
Y01694*
X01009*
Y01689*
X00988*
Y01676*
X00989Y01672*
X00989Y01671*
X00988Y0167*
X00984Y01668*
X00982Y01665*
X00981Y01661*
Y01636*
X01009*
X01037*
Y01661*
X01036Y01665*
X01034Y01668*
X01034Y01669*
X0103Y01672*
X0103Y01676*
Y01683*
X01041*
X01045Y01684*
X01049Y01686*
X01051Y0169*
X01052Y01694*
X01051Y01699*
X01049Y01702*
X01045Y01705*
X01041Y01706*
X0103*
Y01713*
X0103Y01717*
X01027Y0172*
X01024Y01723*
X0102Y01723*
G37*
G36*
X-01341D02*
X-01347D01*
Y01694*
X-01352*
Y01689*
X-01373*
Y01676*
X-01372Y01672*
X-01376Y01669*
X-01377Y01668*
X-01379Y01665*
X-0138Y01661*
Y01636*
X-01352*
X-01324*
Y01661*
X-01325Y01665*
X-01327Y01668*
X-01328Y01669*
X-01332Y01672*
X-01331Y01676*
Y01683*
X-0132*
X-01316Y01684*
X-01312Y01686*
X-0131Y0169*
X-01309Y01694*
X-0131Y01699*
X-01312Y01702*
X-01316Y01705*
X-0132Y01706*
X-01331*
Y01713*
X-01332Y01717*
X-01334Y0172*
X-01337Y01723*
X-01341Y01723*
G37*
G36*
X00312D02*
X00306D01*
Y01694*
X00301*
Y01689*
X0028*
Y01676*
X0028Y01672*
X0028Y01671*
X00279Y0167*
X00276Y01668*
X00274Y01665*
X00273Y01661*
Y01636*
X00301*
X00329*
Y01661*
X00328Y01665*
X00326Y01668*
X00325Y01669*
X00321Y01672*
X00322Y01676*
Y01683*
X00332*
X00336Y01684*
X0034Y01686*
X00343Y0169*
X00343Y01694*
X00343Y01699*
X0034Y01702*
X00336Y01705*
X00332Y01706*
X00322*
Y01713*
X00321Y01717*
X00319Y0172*
X00315Y01723*
X00312Y01723*
G37*
G36*
X01493D02*
X01487D01*
Y01694*
X01482*
Y01689*
X01461*
Y01676*
X01462Y01672*
X01461Y01671*
X0146Y0167*
X01457Y01668*
X01455Y01665*
X01454Y01661*
Y01636*
X01482*
X0151*
Y01661*
X01509Y01665*
X01507Y01668*
X01506Y01669*
X01502Y01672*
X01503Y01676*
Y01683*
X01513*
X01518Y01684*
X01521Y01686*
X01524Y0169*
X01524Y01694*
X01524Y01699*
X01521Y01702*
X01518Y01705*
X01513Y01706*
X01503*
Y01713*
X01502Y01717*
X015Y0172*
X01497Y01723*
X01493Y01723*
G37*
G36*
X-01577D02*
X-01583D01*
Y01694*
X-01588*
Y01689*
X-01609*
Y01676*
X-01608Y01672*
X-01612Y01669*
X-01613Y01668*
X-01615Y01665*
X-01616Y01661*
Y01636*
X-01588*
X-0156*
Y01661*
X-01561Y01665*
X-01563Y01668*
X-01564Y01669*
X-01568Y01672*
X-01567Y01676*
Y01683*
X-01557*
X-01552Y01684*
X-01549Y01686*
X-01546Y0169*
X-01545Y01694*
X-01546Y01699*
X-01549Y01702*
X-01552Y01705*
X-01557Y01706*
X-01567*
Y01713*
X-01568Y01717*
X-0157Y0172*
X-01573Y01723*
X-01577Y01723*
G37*
G36*
X-00223Y0172D02*
X-00245D01*
X-00249Y01718*
X-0025Y01716*
X-00256Y01714*
X-00257Y01715*
X-00265Y01717*
X-00274Y01715*
X-00281Y0171*
X-00286Y01703*
X-00287Y01694*
X-00286Y01686*
X-00281Y01679*
X-00274Y01674*
X-00265Y01672*
X-00257Y01674*
X-00256Y01675*
X-0025Y01673*
X-00249Y01671*
X-00245Y01669*
Y01557*
X-00309Y01494*
X-00311Y0149*
X-00312Y01486*
Y01475*
X-00318*
X-00323Y01473*
X-00325Y01468*
Y01409*
X-00323Y01404*
X-00318Y01402*
X-00283*
X-00278Y01404*
X-00276Y01409*
Y01468*
X-00278Y01473*
X-00283Y01475*
X-00289*
Y01481*
X-00226Y01545*
X-00223Y01548*
X-00223Y01553*
Y01669*
X-00218Y01671*
X-00216Y01676*
Y01713*
X-00218Y01718*
X-00223Y0172*
G37*
G36*
X00012D02*
X-00008D01*
X-00013Y01718*
X-00014Y01716*
X-00019Y01714*
X-00021Y01715*
X-00029Y01717*
X-00038Y01715*
X-00045Y0171*
X-0005Y01703*
X-00051Y01694*
X-0005Y01686*
X-00045Y01679*
X-00038Y01674*
X-00029Y01672*
X-00021Y01674*
X-00019Y01675*
X-00014Y01673*
X-00013Y01671*
X-00009Y01669*
Y01557*
X-00056Y0151*
X-0006Y01513*
X-00058Y01517*
X-00056Y01525*
X-00058Y01534*
X-00063Y01541*
X-0007Y01546*
X-00078Y01547*
X-00083Y01546*
X-00086Y01551*
X-00057Y0158*
X-00054Y01584*
X-00053Y01588*
Y01595*
X-00047*
X-00042Y01597*
X-0004Y01602*
Y01661*
X-00042Y01666*
X-00047Y01667*
X-00082*
X-00087Y01666*
X-00089Y01661*
Y01602*
X-00087Y01597*
X-00082Y01595*
X-0008*
X-00078Y0159*
X-00179Y0149*
X-00181Y01486*
X-00182Y01482*
Y01475*
X-00188*
X-00193Y01473*
X-00195Y01468*
Y01409*
X-00193Y01404*
X-00188Y01402*
X-00153*
X-00148Y01404*
X-00147Y01409*
Y01468*
X-00148Y01473*
X-00153Y01475*
X-00155*
X-00157Y0148*
X-00104Y01533*
X-00099Y0153*
X-001Y01525*
X-00099Y01517*
X-00094Y01509*
X-00087Y01505*
X-00078Y01503*
X-0007Y01505*
X-00066Y01507*
X-00063Y01503*
X-00072Y01494*
X-00075Y0149*
X-00076Y01486*
Y01475*
X-00082*
X-00087Y01473*
X-00089Y01468*
Y01409*
X-00087Y01404*
X-00082Y01402*
X-00047*
X-00042Y01404*
X-0004Y01409*
Y01468*
X-00042Y01473*
X-00047Y01475*
X-00053*
Y01481*
X00009Y01545*
X00012Y01548*
X00013Y01553*
Y01669*
X00017Y01671*
X00019Y01676*
Y01713*
X00017Y01718*
X00012Y0172*
G37*
G36*
X00249D02*
X00227D01*
X00222Y01718*
X00222Y01716*
X00216Y01714*
X00215Y01715*
X00206Y01717*
X00198Y01715*
X00191Y0171*
X00186Y01703*
X00184Y01694*
X00186Y01686*
X00191Y01679*
X00198Y01674*
X00206Y01672*
X00215Y01674*
X00216Y01675*
X00222Y01673*
X00222Y01671*
X00226Y01669*
Y01557*
X00163Y01494*
X0016Y0149*
X0016Y01486*
Y01475*
X00153*
X00148Y01473*
X00147Y01468*
Y01409*
X00148Y01404*
X00153Y01402*
X00188*
X00193Y01404*
X00195Y01409*
Y01468*
X00193Y01473*
X00188Y01475*
X00182*
Y01481*
X00246Y01545*
X00248Y01548*
X00249Y01553*
Y01669*
X00253Y01671*
X00255Y01676*
Y01713*
X00253Y01718*
X00249Y0172*
G37*
G36*
X-00459D02*
X-00481D01*
X-00485Y01718*
X-00486Y01716*
X-00492Y01714*
X-00493Y01715*
X-00501Y01717*
X-0051Y01715*
X-00517Y0171*
X-00522Y01703*
X-00524Y01694*
X-00522Y01686*
X-00517Y01679*
X-0051Y01674*
X-00501Y01672*
X-00493Y01674*
X-00492Y01675*
X-00486Y01673*
X-00485Y01671*
X-00481Y01669*
Y01557*
X-00545Y01494*
X-00547Y0149*
X-00548Y01486*
Y01475*
X-00555*
X-00559Y01473*
X-00561Y01468*
Y01409*
X-00559Y01404*
X-00555Y01402*
X-00519*
X-00515Y01404*
X-00513Y01409*
Y01468*
X-00515Y01473*
X-00519Y01475*
X-00526*
Y01481*
X-00462Y01545*
X-0046Y01548*
X-00459Y01553*
Y01669*
X-00455Y01671*
X-00453Y01676*
Y01713*
X-00455Y01718*
X-00459Y0172*
G37*
G36*
X-01168D02*
X-01189D01*
X-01194Y01718*
X-01195Y01716*
X-01201Y01714*
X-01202Y01715*
X-0121Y01717*
X-01219Y01715*
X-01226Y0171*
X-01231Y01703*
X-01232Y01694*
X-01231Y01686*
X-01226Y01679*
X-01219Y01674*
X-0121Y01672*
X-01202Y01674*
X-01201Y01675*
X-01195Y01673*
X-01194Y01671*
X-0119Y01669*
Y01557*
X-01253Y01494*
X-01256Y0149*
X-01257Y01486*
Y01475*
X-01263*
X-01268Y01473*
X-0127Y01468*
Y01409*
X-01268Y01404*
X-01263Y01402*
X-01228*
X-01223Y01404*
X-01221Y01409*
Y01468*
X-01223Y01473*
X-01228Y01475*
X-01234*
Y01481*
X-01171Y01545*
X-01168Y01548*
X-01167Y01553*
Y01669*
X-01163Y01671*
X-01161Y01676*
Y01713*
X-01163Y01718*
X-01168Y0172*
G37*
G36*
X-00932D02*
X-00953D01*
X-00958Y01718*
X-00958Y01716*
X-00964Y01714*
X-00965Y01715*
X-00974Y01717*
X-00982Y01715*
X-0099Y0171*
X-00994Y01703*
X-00996Y01694*
X-00994Y01686*
X-0099Y01679*
X-00982Y01674*
X-00974Y01672*
X-00965Y01674*
X-00964Y01675*
X-00958Y01673*
X-00958Y01671*
X-00954Y01669*
Y01557*
X-01017Y01494*
X-0102Y0149*
X-01021Y01486*
Y01475*
X-01027*
X-01032Y01473*
X-01034Y01468*
Y01409*
X-01032Y01404*
X-01027Y01402*
X-00992*
X-00987Y01404*
X-00985Y01409*
Y01468*
X-00987Y01473*
X-00992Y01475*
X-00998*
Y01481*
X-00934Y01545*
X-00932Y01548*
X-00931Y01553*
Y01669*
X-00927Y01671*
X-00925Y01676*
Y01713*
X-00927Y01718*
X-00932Y0172*
G37*
G36*
X-00695D02*
X-00717D01*
X-00722Y01718*
X-00722Y01716*
X-00728Y01714*
X-00729Y01715*
X-00738Y01717*
X-00746Y01715*
X-00753Y0171*
X-00758Y01703*
X-0076Y01694*
X-00758Y01686*
X-00753Y01679*
X-00746Y01674*
X-00738Y01672*
X-00729Y01674*
X-00728Y01675*
X-00722Y01673*
X-00722Y01671*
X-00717Y01669*
Y01557*
X-00781Y01494*
X-00783Y0149*
X-00784Y01486*
Y01475*
X-00791*
X-00795Y01473*
X-00797Y01468*
Y01409*
X-00795Y01404*
X-00791Y01402*
X-00755*
X-00751Y01404*
X-00749Y01409*
Y01468*
X-00751Y01473*
X-00755Y01475*
X-00762*
Y01481*
X-00698Y01545*
X-00696Y01548*
X-00695Y01553*
Y01669*
X-00691Y01671*
X-00689Y01676*
Y01713*
X-00691Y01718*
X-00695Y0172*
G37*
G36*
X0143D02*
X01408D01*
X01403Y01718*
X01403Y01716*
X01397Y01714*
X01396Y01715*
X01387Y01717*
X01379Y01715*
X01372Y0171*
X01367Y01703*
X01365Y01694*
X01367Y01686*
X01372Y01679*
X01379Y01674*
X01387Y01672*
X01396Y01674*
X01397Y01675*
X01403Y01673*
X01403Y01671*
X01408Y01669*
Y01557*
X01344Y01494*
X01342Y0149*
X01341Y01486*
Y01475*
X01334*
X0133Y01473*
X01328Y01468*
Y01409*
X0133Y01404*
X01334Y01402*
X0137*
X01374Y01404*
X01376Y01409*
Y01468*
X01374Y01473*
X0137Y01475*
X01363*
Y01481*
X01427Y01545*
X01429Y01548*
X0143Y01553*
Y01669*
X01434Y01671*
X01436Y01676*
Y01713*
X01434Y01718*
X0143Y0172*
G37*
G36*
X01666D02*
X01644D01*
X0164Y01718*
X01639Y01716*
X01633Y01714*
X01632Y01715*
X01624Y01717*
X01615Y01715*
X01608Y0171*
X01603Y01703*
X01601Y01694*
X01603Y01686*
X01608Y01679*
X01615Y01674*
X01624Y01672*
X01632Y01674*
X01633Y01675*
X01639Y01673*
X0164Y01671*
X01644Y01669*
Y01557*
X0158Y01494*
X01578Y0149*
X01577Y01486*
Y01475*
X0157*
X01566Y01473*
X01564Y01468*
Y01409*
X01566Y01404*
X0157Y01402*
X01606*
X0161Y01404*
X01612Y01409*
Y01468*
X0161Y01473*
X01606Y01475*
X01599*
Y01481*
X01663Y01545*
X01665Y01548*
X01666Y01553*
Y01669*
X0167Y01671*
X01672Y01676*
Y01713*
X0167Y01718*
X01666Y0172*
G37*
G36*
X01902D02*
X0188D01*
X01876Y01718*
X01875Y01716*
X01869Y01714*
X01868Y01715*
X0186Y01717*
X01851Y01715*
X01844Y0171*
X01839Y01703*
X01838Y01694*
X01839Y01686*
X01844Y01679*
X01851Y01674*
X0186Y01672*
X01868Y01674*
X01869Y01675*
X01875Y01673*
X01876Y01671*
X0188Y01669*
Y01557*
X01816Y01494*
X01814Y0149*
X01813Y01486*
Y01475*
X01807*
X01802Y01473*
X018Y01468*
Y01409*
X01802Y01404*
X01807Y01402*
X01842*
X01847Y01404*
X01849Y01409*
Y01468*
X01847Y01473*
X01842Y01475*
X01836*
Y01481*
X01899Y01545*
X01902Y01548*
X01902Y01553*
Y01669*
X01907Y01671*
X01909Y01676*
Y01713*
X01907Y01718*
X01902Y0172*
G37*
G36*
X01193D02*
X01172D01*
X01167Y01718*
X01167Y01716*
X01161Y01714*
X0116Y01715*
X01151Y01717*
X01143Y01715*
X01135Y0171*
X01131Y01703*
X01129Y01694*
X01131Y01686*
X01135Y01679*
X01143Y01674*
X01151Y01672*
X0116Y01674*
X01161Y01675*
X01167Y01673*
X01167Y01671*
X01171Y01669*
Y01557*
X01108Y01494*
X01105Y0149*
X01104Y01486*
Y01475*
X01098*
X01093Y01473*
X01091Y01468*
Y01409*
X01093Y01404*
X01098Y01402*
X01133*
X01138Y01404*
X0114Y01409*
Y01468*
X01138Y01473*
X01133Y01475*
X01127*
Y01481*
X01191Y01545*
X01193Y01548*
X01194Y01553*
Y01669*
X01198Y01671*
X012Y01676*
Y01713*
X01198Y01718*
X01193Y0172*
G37*
G36*
X00485D02*
X00463D01*
X00458Y01718*
X00458Y01716*
X00452Y01714*
X00451Y01715*
X00442Y01717*
X00434Y01715*
X00427Y0171*
X00422Y01703*
X0042Y01694*
X00422Y01686*
X00427Y01679*
X00434Y01674*
X00442Y01672*
X00451Y01674*
X00452Y01675*
X00458Y01673*
X00458Y01671*
X00463Y01669*
Y01557*
X00399Y01494*
X00397Y0149*
X00396Y01486*
Y01475*
X00389*
X00385Y01473*
X00383Y01468*
Y01409*
X00385Y01404*
X00389Y01402*
X00425*
X00429Y01404*
X00431Y01409*
Y01468*
X00429Y01473*
X00425Y01475*
X00418*
Y01481*
X00482Y01545*
X00484Y01548*
X00485Y01553*
Y01669*
X00489Y01671*
X00491Y01676*
Y01713*
X00489Y01718*
X00485Y0172*
G37*
G36*
X00721D02*
X00699D01*
X00695Y01718*
X00694Y01716*
X00688Y01714*
X00687Y01715*
X00679Y01717*
X0067Y01715*
X00663Y0171*
X00658Y01703*
X00656Y01694*
X00658Y01686*
X00663Y01679*
X0067Y01674*
X00679Y01672*
X00687Y01674*
X00688Y01675*
X00694Y01673*
X00695Y01671*
X00699Y01669*
Y01557*
X00635Y01494*
X00633Y0149*
X00632Y01486*
Y01475*
X00625*
X00621Y01473*
X00619Y01468*
Y01409*
X00621Y01404*
X00625Y01402*
X00661*
X00666Y01404*
X00667Y01409*
Y01468*
X00666Y01473*
X00661Y01475*
X00654*
Y01481*
X00718Y01545*
X0072Y01548*
X00721Y01553*
Y01669*
X00726Y01671*
X00727Y01676*
Y01713*
X00726Y01718*
X00721Y0172*
G37*
G36*
X00957D02*
X00936D01*
X00931Y01718*
X0093Y01716*
X00924Y01714*
X00923Y01715*
X00915Y01717*
X00906Y01715*
X00899Y0171*
X00894Y01703*
X00893Y01694*
X00894Y01686*
X00899Y01679*
X00906Y01674*
X00915Y01672*
X00923Y01674*
X00924Y01675*
X0093Y01673*
X00931Y01671*
X00935Y01669*
Y01557*
X00871Y01494*
X00869Y0149*
X00868Y01486*
Y01475*
X00862*
X00857Y01473*
X00855Y01468*
Y01409*
X00857Y01404*
X00862Y01402*
X00897*
X00902Y01404*
X00904Y01409*
Y01468*
X00902Y01473*
X00897Y01475*
X00891*
Y01481*
X00954Y01545*
X00957Y01548*
X00958Y01553*
Y01669*
X00962Y01671*
X00964Y01676*
Y01713*
X00962Y01718*
X00957Y0172*
G37*
G36*
X-00412Y01723D02*
X-00418D01*
X-00422Y01723*
X-00425Y0172*
X-00427Y01717*
X-00428Y01713*
Y01699*
X-00412*
Y01723*
G37*
G36*
X00768D02*
X00762D01*
X00758Y01723*
X00755Y0172*
X00753Y01717*
X00752Y01713*
Y01699*
X00768*
Y01723*
G37*
G36*
X01949D02*
X01943D01*
X01939Y01723*
X01936Y0172*
X01934Y01717*
X01933Y01713*
Y01699*
X01949*
Y01723*
G37*
G36*
X-00648D02*
X-00654D01*
X-00658Y01723*
X-00661Y0172*
X-00663Y01717*
X-00664Y01713*
Y01699*
X-00648*
Y01723*
G37*
G36*
X01241D02*
X01235D01*
X01231Y01723*
X01228Y0172*
X01225Y01717*
X01225Y01713*
Y01699*
X01241*
Y01723*
G37*
G36*
X-01829D02*
X-01835D01*
X-01839Y01723*
X-01842Y0172*
X-01845Y01717*
X-01845Y01713*
Y01699*
X-01829*
Y01723*
G37*
G36*
X-01121D02*
X-01126D01*
X-0113Y01723*
X-01134Y0172*
X-01136Y01717*
X-01137Y01713*
Y01699*
X-01121*
Y01723*
G37*
G36*
X-01876Y0172D02*
X-01898D01*
X-01903Y01718*
X-01903Y01716*
X-01909Y01714*
X-0191Y01715*
X-01919Y01717*
X-01927Y01715*
X-01934Y0171*
X-01939Y01703*
X-01941Y01694*
X-01939Y01686*
X-01934Y01679*
X-01927Y01674*
X-01919Y01672*
X-0191Y01674*
X-01909Y01675*
X-01903Y01673*
X-01903Y01671*
X-01899Y01669*
Y01557*
X-01962Y01494*
X-01965Y0149*
X-01965Y01486*
Y01475*
X-01972*
X-01977Y01473*
X-01978Y01468*
Y01409*
X-01977Y01404*
X-01972Y01402*
X-01937*
X-01932Y01404*
X-0193Y01409*
Y01468*
X-01932Y01473*
X-01937Y01475*
X-01943*
Y01481*
X-01879Y01545*
X-01877Y01548*
X-01876Y01553*
Y01669*
X-01872Y01671*
X-0187Y01676*
Y01713*
X-01872Y01718*
X-01876Y0172*
G37*
G36*
X-0164D02*
X-01662D01*
X-01666Y01718*
X-01667Y01716*
X-01673Y01714*
X-01674Y01715*
X-01683Y01717*
X-01691Y01715*
X-01698Y0171*
X-01703Y01703*
X-01705Y01694*
X-01703Y01686*
X-01698Y01679*
X-01691Y01674*
X-01683Y01672*
X-01674Y01674*
X-01673Y01675*
X-01667Y01673*
X-01666Y01671*
X-01662Y01669*
Y01557*
X-01726Y01494*
X-01728Y0149*
X-01729Y01486*
Y01475*
X-01736*
X-0174Y01473*
X-01742Y01468*
Y01409*
X-0174Y01404*
X-01736Y01402*
X-017*
X-01696Y01404*
X-01694Y01409*
Y01468*
X-01696Y01473*
X-017Y01475*
X-01707*
Y01481*
X-01643Y01545*
X-01641Y01548*
X-0164Y01553*
Y01669*
X-01636Y01671*
X-01634Y01676*
Y01713*
X-01636Y01718*
X-0164Y0172*
G37*
G36*
X-01404D02*
X-01426D01*
X-0143Y01718*
X-01431Y01716*
X-01437Y01714*
X-01438Y01715*
X-01446Y01717*
X-01455Y01715*
X-01462Y0171*
X-01467Y01703*
X-01469Y01694*
X-01467Y01686*
X-01462Y01679*
X-01455Y01674*
X-01446Y01672*
X-01438Y01674*
X-01437Y01675*
X-01431Y01673*
X-0143Y01671*
X-01426Y01669*
Y01557*
X-0149Y01494*
X-01492Y0149*
X-01493Y01486*
Y01475*
X-015*
X-01504Y01473*
X-01506Y01468*
Y01409*
X-01504Y01404*
X-015Y01402*
X-01464*
X-01459Y01404*
X-01458Y01409*
Y01468*
X-01459Y01473*
X-01464Y01475*
X-01471*
Y01481*
X-01407Y01545*
X-01404Y01548*
X-01404Y01553*
Y01669*
X-01399Y01671*
X-01398Y01676*
Y01713*
X-01399Y01718*
X-01404Y0172*
G37*
G36*
X00059Y01723D02*
X00054D01*
X0005Y01723*
X00046Y0172*
X00044Y01717*
X00043Y01713*
Y01699*
X00059*
Y01723*
G37*
G36*
X-00884D02*
X-0089D01*
X-00894Y01723*
X-00897Y0172*
X-009Y01717*
X-009Y01713*
Y01699*
X-00884*
Y01723*
G37*
G36*
X00532D02*
X00526D01*
X00522Y01723*
X00519Y0172*
X00517Y01717*
X00516Y01713*
Y01699*
X00532*
Y01723*
G37*
G36*
X01713D02*
X01707D01*
X01703Y01723*
X017Y0172*
X01698Y01717*
X01697Y01713*
Y01699*
X01713*
Y01723*
G37*
G36*
X00188Y01667D02*
X00153D01*
X00148Y01666*
X00147Y01661*
Y01602*
X00148Y01597*
X00153Y01595*
X00155*
X00157Y0159*
X00057Y0149*
X00054Y01486*
X00053Y01482*
Y01475*
X00047*
X00042Y01473*
X0004Y01468*
Y01409*
X00042Y01404*
X00047Y01402*
X00082*
X00087Y01404*
X00089Y01409*
Y01468*
X00087Y01473*
X00082Y01475*
X0008*
X00078Y0148*
X00179Y0158*
X00181Y01584*
X00182Y01588*
Y01595*
X00188*
X00193Y01597*
X00195Y01602*
Y01661*
X00193Y01666*
X00188Y01667*
G37*
G36*
X00425D02*
X00389D01*
X00385Y01666*
X00383Y01661*
Y01602*
X00385Y01597*
X00389Y01595*
X00391*
X00393Y0159*
X00293Y0149*
X0029Y01486*
X00289Y01482*
Y01475*
X00283*
X00278Y01473*
X00276Y01468*
Y01409*
X00278Y01404*
X00283Y01402*
X00318*
X00323Y01404*
X00325Y01409*
Y01468*
X00323Y01473*
X00318Y01475*
X00316*
X00314Y0148*
X00415Y0158*
X00417Y01584*
X00418Y01588*
Y01595*
X00425*
X00429Y01597*
X00431Y01602*
Y01661*
X00429Y01666*
X00425Y01667*
G37*
G36*
X00661D02*
X00625D01*
X00621Y01666*
X00619Y01661*
Y01602*
X00621Y01597*
X00625Y01595*
X00628*
X0063Y0159*
X00529Y0149*
X00527Y01486*
X00526Y01482*
Y01475*
X00519*
X00515Y01473*
X00513Y01468*
Y01409*
X00515Y01404*
X00519Y01402*
X00555*
X00559Y01404*
X00561Y01409*
Y01468*
X00559Y01473*
X00555Y01475*
X00553*
X0055Y0148*
X00651Y0158*
X00654Y01584*
X00654Y01588*
Y01595*
X00661*
X00666Y01597*
X00667Y01602*
Y01661*
X00666Y01666*
X00661Y01667*
G37*
G36*
X-00283D02*
X-00318D01*
X-00323Y01666*
X-00325Y01661*
Y01602*
X-00323Y01597*
X-00318Y01595*
X-00316*
X-00314Y0159*
X-00415Y0149*
X-00417Y01486*
X-00418Y01482*
Y01475*
X-00425*
X-00429Y01473*
X-00431Y01468*
Y01409*
X-00429Y01404*
X-00425Y01402*
X-00389*
X-00385Y01404*
X-00383Y01409*
Y01468*
X-00385Y01473*
X-00389Y01475*
X-00391*
X-00393Y0148*
X-00293Y0158*
X-0029Y01584*
X-00289Y01588*
Y01595*
X-00283*
X-00278Y01597*
X-00276Y01602*
Y01661*
X-00278Y01666*
X-00283Y01667*
G37*
G36*
X-00992D02*
X-01027D01*
X-01032Y01666*
X-01034Y01661*
Y01602*
X-01032Y01597*
X-01027Y01595*
X-01025*
X-01023Y0159*
X-01124Y0149*
X-01126Y01486*
X-01127Y01482*
Y01475*
X-01133*
X-01138Y01473*
X-0114Y01468*
Y01409*
X-01138Y01404*
X-01133Y01402*
X-01098*
X-01093Y01404*
X-01091Y01409*
Y01468*
X-01093Y01473*
X-01098Y01475*
X-011*
X-01102Y0148*
X-01001Y0158*
X-00999Y01584*
X-00998Y01588*
Y01595*
X-00992*
X-00987Y01597*
X-00985Y01602*
Y01661*
X-00987Y01666*
X-00992Y01667*
G37*
G36*
X-00755D02*
X-00791D01*
X-00795Y01666*
X-00797Y01661*
Y01602*
X-00795Y01597*
X-00791Y01595*
X-00789*
X-00787Y0159*
X-00887Y0149*
X-0089Y01486*
X-00891Y01482*
Y01475*
X-00897*
X-00902Y01473*
X-00904Y01468*
Y01409*
X-00902Y01404*
X-00897Y01402*
X-00862*
X-00857Y01404*
X-00855Y01409*
Y01468*
X-00857Y01473*
X-00862Y01475*
X-00864*
X-00866Y0148*
X-00765Y0158*
X-00763Y01584*
X-00762Y01588*
Y01595*
X-00755*
X-00751Y01597*
X-00749Y01602*
Y01661*
X-00751Y01666*
X-00755Y01667*
G37*
G36*
X-00519D02*
X-00555D01*
X-00559Y01666*
X-00561Y01661*
Y01602*
X-00559Y01597*
X-00555Y01595*
X-00553*
X-0055Y0159*
X-00651Y0149*
X-00654Y01486*
X-00654Y01482*
Y01475*
X-00661*
X-00666Y01473*
X-00667Y01468*
Y01409*
X-00666Y01404*
X-00661Y01402*
X-00625*
X-00621Y01404*
X-00619Y01409*
Y01468*
X-00621Y01473*
X-00625Y01475*
X-00628*
X-0063Y0148*
X-00529Y0158*
X-00527Y01584*
X-00526Y01588*
Y01595*
X-00519*
X-00515Y01597*
X-00513Y01602*
Y01661*
X-00515Y01666*
X-00519Y01667*
G37*
G36*
X01842D02*
X01807D01*
X01802Y01666*
X018Y01661*
Y01602*
X01802Y01597*
X01807Y01595*
X01809*
X01811Y0159*
X0171Y0149*
X01708Y01486*
X01707Y01482*
Y01475*
X017*
X01696Y01473*
X01694Y01468*
Y01409*
X01696Y01404*
X017Y01402*
X01736*
X0174Y01404*
X01742Y01409*
Y01468*
X0174Y01473*
X01736Y01475*
X01734*
X01732Y0148*
X01832Y0158*
X01835Y01584*
X01836Y01588*
Y01595*
X01842*
X01847Y01597*
X01849Y01602*
Y01661*
X01847Y01666*
X01842Y01667*
G37*
G36*
X01972Y01475D02*
X01937D01*
X01932Y01473*
X0193Y01468*
Y0143*
X01789Y01289*
X01786Y01285*
X01785Y01281*
Y0097*
X0178Y00968*
X0178Y00969*
X01773Y00974*
X01764Y00975*
X01756Y00974*
X01749Y00969*
X01744Y00962*
X01742Y00953*
X01744Y00945*
X01749Y00938*
X01756Y00933*
X01764Y00931*
X01773Y00933*
X0178Y00938*
X01781Y00939*
X01786Y00938*
X01786Y00938*
X01789Y00934*
X01799Y00924*
Y006*
X01787Y00587*
X01784Y00584*
X01783Y00579*
Y00448*
X01784Y00444*
X01787Y00441*
X01881Y00346*
X01885Y00343*
X01889Y00343*
X01952*
X01992Y00302*
Y00229*
X01858Y00094*
X01855Y0009*
X01854Y00086*
Y-00019*
X01855Y-00023*
X01858Y-00027*
X01889Y-00059*
X01893Y-00061*
X01897Y-00062*
X02047*
X02051Y-00061*
X02055Y-00059*
X0208Y-00033*
X02083Y-00029*
X02084Y-00025*
Y00025*
X0209*
X02095Y00026*
X02097Y00031*
Y0009*
X02095Y00095*
X0209Y00097*
X02055*
X0205Y00095*
X02048Y0009*
Y00031*
X0205Y00026*
X02055Y00025*
X02061*
Y00009*
X02056Y00008*
X02053Y00013*
X02045Y00018*
X02037Y0002*
X02028Y00018*
X02027Y00017*
X02021Y00019*
X02021Y00021*
X02017Y00023*
Y00135*
X0208Y00198*
X02083Y00202*
X02084Y00206*
Y00217*
X0209*
X02095Y00219*
X02097Y00224*
Y00283*
X02095Y00288*
X0209Y00289*
X02055*
X0205Y00288*
X02048Y00283*
Y00224*
X0205Y00219*
X02055Y00217*
X02061*
Y00211*
X01997Y00147*
X01995Y00144*
X01994Y00139*
Y00023*
X0199Y00021*
X01988Y00016*
Y-0002*
X0199Y-00025*
X01995Y-00027*
X02016*
X02021Y-00025*
X02021Y-00023*
X02027Y-00021*
X02028Y-00022*
X02037Y-00024*
X02045Y-00022*
X02053Y-00017*
X02056Y-00012*
X02061Y-00013*
Y-0002*
X02042Y-00039*
X01902*
X01877Y-00015*
Y00081*
X02011Y00216*
X02014Y0022*
X02015Y00224*
Y00307*
X02014Y00311*
X02011Y00315*
X01964Y00362*
X0196Y00364*
X01956Y00365*
X01894*
X01806Y00453*
Y00575*
X01818Y00587*
X01821Y00591*
X01822Y00595*
Y00926*
X01823Y00931*
X01832Y00933*
X01839Y00938*
X01844Y00945*
X01845Y00953*
X01844Y00962*
X01839Y00969*
X01832Y00974*
X01823Y00975*
X01815Y00974*
X01812Y00972*
X01808Y00974*
Y01276*
X01935Y01403*
X01937Y01402*
X01972*
X01977Y01404*
X01978Y01409*
Y01468*
X01977Y01473*
X01972Y01475*
G37*
G36*
X-01829Y01626D02*
X-01852D01*
Y01602*
X-01851Y01598*
X-01849Y01595*
X-01846Y01592*
X-01842Y01592*
X-01829*
Y01626*
G37*
G36*
X01606Y01667D02*
X0157D01*
X01566Y01666*
X01564Y01661*
Y01602*
X01566Y01597*
X0157Y01595*
X01572*
X01575Y0159*
X01474Y0149*
X01471Y01486*
X01471Y01482*
Y01475*
X01464*
X01459Y01473*
X01458Y01468*
Y01409*
X01459Y01404*
X01464Y01402*
X015*
X01504Y01404*
X01506Y01409*
Y01468*
X01504Y01473*
X015Y01475*
X01497*
X01495Y0148*
X01596Y0158*
X01598Y01584*
X01599Y01588*
Y01595*
X01606*
X0161Y01597*
X01612Y01602*
Y01661*
X0161Y01666*
X01606Y01667*
G37*
G36*
X00897D02*
X00862D01*
X00857Y01666*
X00855Y01661*
Y01602*
X00857Y01597*
X00862Y01595*
X00864*
X00866Y0159*
X00765Y0149*
X00763Y01486*
X00762Y01482*
Y01475*
X00755*
X00751Y01473*
X00749Y01468*
Y01409*
X00751Y01404*
X00755Y01402*
X00791*
X00795Y01404*
X00797Y01409*
Y01468*
X00795Y01473*
X00791Y01475*
X00789*
X00787Y0148*
X00887Y0158*
X0089Y01584*
X00891Y01588*
Y01595*
X00897*
X00902Y01597*
X00904Y01602*
Y01661*
X00902Y01666*
X00897Y01667*
G37*
G36*
X01133D02*
X01098D01*
X01093Y01666*
X01091Y01661*
Y01602*
X01093Y01597*
X01098Y01595*
X011*
X01102Y0159*
X01001Y0149*
X00999Y01486*
X00998Y01482*
Y01475*
X00992*
X00987Y01473*
X00985Y01468*
Y01409*
X00987Y01404*
X00992Y01402*
X01027*
X01032Y01404*
X01034Y01409*
Y01468*
X01032Y01473*
X01027Y01475*
X01025*
X01023Y0148*
X01124Y0158*
X01126Y01584*
X01127Y01588*
Y01595*
X01133*
X01138Y01597*
X0114Y01602*
Y01661*
X01138Y01666*
X01133Y01667*
G37*
G36*
X0137D02*
X01334D01*
X0133Y01666*
X01328Y01661*
Y01602*
X0133Y01597*
X01334Y01595*
X01336*
X01338Y0159*
X01238Y0149*
X01235Y01486*
X01234Y01482*
Y01475*
X01228*
X01223Y01473*
X01221Y01468*
Y01409*
X01223Y01404*
X01228Y01402*
X01263*
X01268Y01404*
X0127Y01409*
Y01468*
X01268Y01473*
X01263Y01475*
X01261*
X01259Y0148*
X0136Y0158*
X01362Y01584*
X01363Y01588*
Y01595*
X0137*
X01374Y01597*
X01376Y01602*
Y01661*
X01374Y01666*
X0137Y01667*
G37*
G36*
X-0075Y01281D02*
X-00758Y0128D01*
X-00765Y01277*
X-00772Y01272*
X-00777Y01265*
X-0078Y01258*
X-00781Y0125*
X-0078Y01241*
X-00777Y01234*
X-00772Y01227*
X-00765Y01222*
X-00758Y01219*
X-0075Y01218*
X-00741Y01219*
X-00734Y01222*
X-00727Y01227*
X-00722Y01234*
X-00719Y01241*
X-00718Y0125*
X-00719Y01258*
X-00722Y01265*
X-00727Y01272*
X-00734Y01277*
X-00741Y0128*
X-0075Y01281*
G37*
G36*
X0075D02*
X00741Y0128D01*
X00734Y01277*
X00727Y01272*
X00722Y01265*
X00719Y01258*
X00718Y0125*
X00719Y01241*
X00722Y01234*
X00727Y01227*
X00734Y01222*
X00741Y01219*
X0075Y01218*
X00758Y01219*
X00765Y01222*
X00772Y01227*
X00777Y01234*
X0078Y01241*
X00781Y0125*
X0078Y01258*
X00777Y01265*
X00772Y01272*
X00765Y01277*
X00758Y0128*
X0075Y01281*
G37*
G36*
X0085D02*
X00841Y0128D01*
X00834Y01277*
X00827Y01272*
X00822Y01265*
X00819Y01258*
X00818Y0125*
X00819Y01241*
X00822Y01234*
X00827Y01227*
X00834Y01222*
X00841Y01219*
X0085Y01218*
X00858Y01219*
X00865Y01222*
X00872Y01227*
X00877Y01234*
X0088Y01241*
X00881Y0125*
X0088Y01258*
X00877Y01265*
X00872Y01272*
X00865Y01277*
X00858Y0128*
X0085Y01281*
G37*
G36*
X-0085D02*
X-00858Y0128D01*
X-00865Y01277*
X-00872Y01272*
X-00877Y01265*
X-0088Y01258*
X-00881Y0125*
X-0088Y01241*
X-00877Y01234*
X-00872Y01227*
X-00865Y01222*
X-00858Y01219*
X-0085Y01218*
X-00841Y01219*
X-00834Y01222*
X-00827Y01227*
X-00822Y01234*
X-00819Y01241*
X-00818Y0125*
X-00819Y01258*
X-00822Y01265*
X-00827Y01272*
X-00834Y01277*
X-00841Y0128*
X-0085Y01281*
G37*
G36*
X00275Y01057D02*
X00267Y01055D01*
X00259Y01051*
X00255Y01043*
X00253Y01035*
X00255Y01026*
X00259Y01019*
X00267Y01014*
X00275Y01013*
X00284Y01014*
X00291Y01019*
X00296Y01026*
X00297Y01035*
X00296Y01043*
X00291Y01051*
X00284Y01055*
X00275Y01057*
G37*
G36*
X-00076Y01386D02*
X-00085Y01384D01*
X-00092Y01379*
X-00097Y01372*
X-00098Y01364*
X-00097Y01355*
X-00092Y01348*
X-00085Y01343*
X-00076Y01342*
X-00074Y01339*
Y00878*
X-00094Y00858*
X-00096Y00854*
X-00097Y0085*
Y00798*
X-00102Y00793*
X-00102Y00793*
X-0011Y00792*
X-00118Y00787*
X-00121Y00782*
X-01472*
X-01475Y00782*
X-01573Y0088*
Y00896*
X-01568Y00899*
X-01564Y00906*
X-01562Y00915*
X-01564Y00923*
X-01568Y00931*
X-01576Y00935*
X-01584Y00937*
X-01593Y00935*
X-016Y00931*
X-01605Y00923*
X-01606Y00915*
X-01605Y00906*
X-016Y00899*
X-01595Y00896*
Y00875*
X-01595Y00871*
X-01592Y00868*
X-01484Y00759*
X-0148Y00757*
X-01476Y00756*
X-01472Y00757*
X-01468Y00759*
X-01467Y0076*
X-00121*
X-00118Y00755*
X-0011Y00751*
X-00102Y00749*
X-00093Y00751*
X-00086Y00755*
X-00081Y00763*
X-00081Y00766*
X-00075Y00768*
X-00055Y00747*
X-00051Y00745*
X-00047Y00744*
X-00036*
X-00017Y00725*
X-00018Y0072*
X-00016Y00711*
X-00011Y00704*
X-00004Y00699*
X00003Y00698*
X00012Y00699*
X00019Y00704*
X00024Y00703*
Y00697*
X00019Y00692*
X00017Y00689*
X00016Y00685*
Y00607*
X00017Y00603*
X00019Y00599*
X00108Y0051*
Y00264*
X00042Y00197*
X00039Y00194*
X00038Y0019*
Y-00131*
X00034Y-00134*
X00029Y-00141*
X00027Y-0015*
X00029Y-00158*
X00034Y-00165*
X00041Y-0017*
X0005Y-00172*
X00058Y-0017*
X00065Y-00165*
X0007Y-00158*
X00072Y-0015*
X0007Y-00141*
X00065Y-00134*
X00061Y-00131*
Y00185*
X00127Y00252*
X0013Y00255*
X00131Y0026*
Y00515*
X0013Y00519*
X00127Y00522*
X00038Y00612*
Y00644*
X00043Y00646*
X00046Y00644*
X00055Y00643*
X00063Y00644*
X0007Y00649*
X00075Y00656*
X00077Y00665*
X00075Y00673*
X0007Y00681*
X00063Y00685*
X00055Y00687*
X0005Y00686*
X00049Y00686*
X00046Y0069*
X00046Y00692*
Y00726*
X00051Y00729*
X00054Y00727*
X00062Y00725*
X00071Y00727*
X00078Y00732*
X00081Y00736*
X00207*
X0035Y00594*
X00353Y00592*
X00358Y00591*
X00392*
X00421Y00562*
X00424Y0056*
X00425Y0056*
X00429Y00555*
X00436Y0055*
X00444Y00548*
X00453Y0055*
X0046Y00555*
X00465Y00562*
X00467Y0057*
X00465Y00579*
X0046Y00586*
X00453Y00591*
X00448Y00592*
Y00597*
X00449Y00597*
X00456Y00602*
X00461Y00609*
X00463Y00618*
X00461Y00626*
X00456Y00633*
X00449Y00638*
X0044Y0064*
X00438Y00639*
X00437Y0064*
X00433Y00641*
X00378*
X00204Y00815*
X00201Y00817*
X00196Y00818*
X00136*
X00133Y00822*
X00126Y00827*
X00118Y00829*
X00109Y00827*
X00102Y00822*
X00097Y00815*
X00095Y00807*
X00097Y00798*
X00102Y00791*
X00109Y00786*
X00118Y00784*
X00126Y00786*
X00133Y00791*
X00136Y00795*
X00192*
X00366Y00621*
X00369Y00619*
X00374Y00618*
X00418*
X00418Y00618*
X0042Y00609*
X00425Y00602*
X00432Y00597*
X00437Y00596*
Y00591*
X00436Y00591*
X00429Y00586*
X00405Y0061*
X00401Y00612*
X00397Y00613*
X00362*
X0022Y00755*
X00216Y00758*
X00212Y00759*
X00081*
X00078Y00763*
X00071Y00768*
X00062Y0077*
X00054Y00768*
X00047Y00763*
X00043Y00758*
X00037Y00757*
X00003Y00791*
X0Y00793*
X-00003Y00794*
X-00004*
X-00006Y00799*
X-00004Y00801*
X-00001Y00805*
X00049*
X00053Y00806*
X00057Y00809*
X00145Y00897*
X00148Y00901*
X00149Y00905*
Y01009*
X0024Y011*
X01515*
X0152Y01101*
X01523Y01104*
X01592Y01173*
X01595Y01176*
X01595Y01181*
Y01287*
X016Y0129*
X01605Y01297*
X01606Y01306*
X01605Y01314*
X016Y01321*
X01593Y01326*
X01584Y01328*
X01576Y01326*
X01568Y01321*
X01564Y01314*
X01562Y01306*
X01564Y01297*
X01568Y0129*
X01573Y01287*
Y01185*
X01511Y01123*
X00236*
X00231Y01122*
X00228Y0112*
X00129Y01021*
X00127Y01018*
X00126Y01013*
Y0091*
X00065Y00848*
X0006Y00851*
X00061Y00856*
X00059Y00864*
X00055Y00871*
X00047Y00876*
X00039Y00878*
X0003Y00876*
X00023Y00871*
X0002Y00867*
X-00041*
X-00045Y00866*
X-00049Y00864*
X-00066Y00846*
X-00068Y00846*
X-00072Y00848*
X-00072Y00848*
X-00055Y00866*
X-00052Y00869*
X-00051Y00874*
Y0135*
X-00052Y01354*
X-00055Y01358*
X-00055Y01358*
X-00054Y01364*
X-00056Y01372*
X-00061Y01379*
X-00068Y01384*
X-00076Y01386*
G37*
G36*
X-0095Y01281D02*
X-00958Y0128D01*
X-00965Y01277*
X-00972Y01272*
X-00977Y01265*
X-0098Y01258*
X-00981Y0125*
X-0098Y01241*
X-00977Y01234*
X-00972Y01227*
X-00965Y01222*
X-00958Y01219*
X-0095Y01218*
X-00941Y01219*
X-00934Y01222*
X-00927Y01227*
X-00922Y01234*
X-00919Y01241*
X-00918Y0125*
X-00919Y01258*
X-00922Y01265*
X-00927Y01272*
X-00934Y01277*
X-00941Y0128*
X-0095Y01281*
G37*
G36*
X-017Y01667D02*
X-01736D01*
X-0174Y01666*
X-01742Y01661*
Y01602*
X-0174Y01597*
X-01736Y01595*
X-01734*
X-01732Y0159*
X-01832Y0149*
X-01835Y01486*
X-01836Y01482*
Y01475*
X-01842*
X-01847Y01473*
X-01849Y01468*
Y01409*
X-01847Y01404*
X-01842Y01402*
X-01807*
X-01802Y01404*
X-018Y01409*
Y01468*
X-01802Y01473*
X-01807Y01475*
X-01809*
X-01811Y0148*
X-0171Y0158*
X-01708Y01584*
X-01707Y01588*
Y01595*
X-017*
X-01696Y01597*
X-01694Y01602*
Y01661*
X-01696Y01666*
X-017Y01667*
G37*
G36*
X-01464D02*
X-015D01*
X-01504Y01666*
X-01506Y01661*
Y01602*
X-01504Y01597*
X-015Y01595*
X-01497*
X-01495Y0159*
X-01596Y0149*
X-01598Y01486*
X-01599Y01482*
Y01475*
X-01606*
X-0161Y01473*
X-01612Y01468*
Y01409*
X-0161Y01404*
X-01606Y01402*
X-0157*
X-01566Y01404*
X-01564Y01409*
Y01468*
X-01566Y01473*
X-0157Y01475*
X-01572*
X-01575Y0148*
X-01474Y0158*
X-01471Y01584*
X-01471Y01588*
Y01595*
X-01464*
X-01459Y01597*
X-01458Y01602*
Y01661*
X-01459Y01666*
X-01464Y01667*
G37*
G36*
X-01228D02*
X-01263D01*
X-01268Y01666*
X-0127Y01661*
Y01602*
X-01268Y01597*
X-01263Y01595*
X-01261*
X-01259Y0159*
X-0136Y0149*
X-01362Y01486*
X-01363Y01482*
Y01475*
X-0137*
X-01374Y01473*
X-01376Y01468*
Y01409*
X-01374Y01404*
X-0137Y01402*
X-01334*
X-0133Y01404*
X-01328Y01409*
Y01468*
X-0133Y01473*
X-01334Y01475*
X-01336*
X-01338Y0148*
X-01238Y0158*
X-01235Y01584*
X-01234Y01588*
Y01595*
X-01228*
X-01223Y01597*
X-01221Y01602*
Y01661*
X-01223Y01666*
X-01228Y01667*
G37*
G36*
X-01937D02*
X-01972D01*
X-01977Y01666*
X-01978Y01661*
Y01602*
X-01977Y01597*
X-01972Y01595*
X-01965*
Y01544*
X-02005Y01503*
X-02008Y015*
X-02009Y01496*
Y01397*
X-02008Y01393*
X-02005Y01389*
X-01986Y0137*
X-01982Y01367*
X-01978Y01366*
X-0179*
X-01787Y01362*
X-0178Y01357*
X-01771Y01355*
X-01763Y01357*
X-01755Y01362*
X-01751Y01369*
X-01749Y01377*
X-01751Y01386*
X-01755Y01393*
X-01763Y01398*
X-01771Y014*
X-0178Y01398*
X-01787Y01393*
X-0179Y01389*
X-01973*
X-01986Y01402*
Y01491*
X-01946Y01531*
X-01944Y01535*
X-01943Y01539*
Y01595*
X-01937*
X-01932Y01597*
X-0193Y01602*
Y01661*
X-01932Y01666*
X-01937Y01667*
G37*
G36*
X0095Y01281D02*
X00941Y0128D01*
X00934Y01277*
X00927Y01272*
X00922Y01265*
X00919Y01258*
X00918Y0125*
X00919Y01241*
X00922Y01234*
X00927Y01227*
X00934Y01222*
X00941Y01219*
X0095Y01218*
X00958Y01219*
X00965Y01222*
X00972Y01227*
X00977Y01234*
X0098Y01241*
X00981Y0125*
X0098Y01258*
X00977Y01265*
X00972Y01272*
X00965Y01277*
X00958Y0128*
X0095Y01281*
G37*
G36*
X-01823Y01289D02*
X-01832Y01288D01*
X-01839Y01283*
X-01844Y01276*
X-01845Y01267*
X-01844Y01259*
X-01839Y01252*
X-01832Y01247*
X-01823Y01245*
X-01815Y01247*
X-01808Y01252*
X-01803Y01259*
X-01801Y01267*
X-01803Y01276*
X-01808Y01283*
X-01815Y01288*
X-01823Y01289*
G37*
G36*
X-01764D02*
X-01773Y01288D01*
X-0178Y01283*
X-01785Y01276*
X-01786Y01267*
X-01785Y01259*
X-0178Y01252*
X-01773Y01247*
X-01764Y01245*
X-01756Y01247*
X-01749Y01252*
X-01744Y01259*
X-01742Y01267*
X-01744Y01276*
X-01749Y01283*
X-01756Y01288*
X-01764Y01289*
G37*
G36*
X00329Y01626D02*
X00306D01*
Y01592*
X00318*
X00322Y01592*
X00326Y01595*
X00328Y01598*
X00329Y01602*
Y01626*
G37*
G36*
X00532D02*
X00509D01*
Y01602*
X0051Y01598*
X00512Y01595*
X00515Y01592*
X00519Y01592*
X00532*
Y01626*
G37*
G36*
X00565D02*
X00542D01*
Y01592*
X00555*
X00559Y01592*
X00562Y01595*
X00564Y01598*
X00565Y01602*
Y01626*
G37*
G36*
X00296D02*
X00273D01*
Y01602*
X00274Y01598*
X00276Y01595*
X00279Y01592*
X00283Y01592*
X00296*
Y01626*
G37*
G36*
X-00143D02*
X-00166D01*
Y01592*
X-00153*
X-00149Y01592*
X-00146Y01595*
X-00144Y01598*
X-00143Y01602*
Y01626*
G37*
G36*
X00059D02*
X00037D01*
Y01602*
X00037Y01598*
X0004Y01595*
X00043Y01592*
X00047Y01592*
X00059*
Y01626*
G37*
G36*
X00092D02*
X00069D01*
Y01592*
X00082*
X00086Y01592*
X00089Y01595*
X00092Y01598*
X00092Y01602*
Y01626*
G37*
G36*
X01241D02*
X01218D01*
Y01602*
X01218Y01598*
X01221Y01595*
X01224Y01592*
X01228Y01592*
X01241*
Y01626*
G37*
G36*
X01273D02*
X01251D01*
Y01592*
X01263*
X01267Y01592*
X0127Y01595*
X01273Y01598*
X01273Y01602*
Y01626*
G37*
G36*
X01477D02*
X01454D01*
Y01602*
X01455Y01598*
X01457Y01595*
X0146Y01592*
X01464Y01592*
X01477*
Y01626*
G37*
G36*
X01037D02*
X01014D01*
Y01592*
X01027*
X01031Y01592*
X01034Y01595*
X01036Y01598*
X01037Y01602*
Y01626*
G37*
G36*
X00768D02*
X00745D01*
Y01602*
X00746Y01598*
X00748Y01595*
X00752Y01592*
X00755Y01592*
X00768*
Y01626*
G37*
G36*
X00801D02*
X00778D01*
Y01592*
X00791*
X00795Y01592*
X00798Y01595*
X008Y01598*
X00801Y01602*
Y01626*
G37*
G36*
X01004D02*
X00981D01*
Y01602*
X00982Y01598*
X00984Y01595*
X00988Y01592*
X00992Y01592*
X01004*
Y01626*
G37*
G36*
X-01324D02*
X-01347D01*
Y01592*
X-01334*
X-0133Y01592*
X-01327Y01595*
X-01325Y01598*
X-01324Y01602*
Y01626*
G37*
G36*
X-01121D02*
X-01144D01*
Y01602*
X-01143Y01598*
X-01141Y01595*
X-01137Y01592*
X-01133Y01592*
X-01121*
Y01626*
G37*
G36*
X-01088D02*
X-01111D01*
Y01592*
X-01098*
X-01094Y01592*
X-01091Y01595*
X-01089Y01598*
X-01088Y01602*
Y01626*
G37*
G36*
X-01357D02*
X-0138D01*
Y01602*
X-01379Y01598*
X-01377Y01595*
X-01373Y01592*
X-0137Y01592*
X-01357*
Y01626*
G37*
G36*
X-01796D02*
X-01819D01*
Y01592*
X-01807*
X-01803Y01592*
X-01799Y01595*
X-01797Y01598*
X-01796Y01602*
Y01626*
G37*
G36*
X-01593D02*
X-01616D01*
Y01602*
X-01615Y01598*
X-01613Y01595*
X-0161Y01592*
X-01606Y01592*
X-01593*
Y01626*
G37*
G36*
X-0156D02*
X-01583D01*
Y01592*
X-0157*
X-01566Y01592*
X-01563Y01595*
X-01561Y01598*
X-0156Y01602*
Y01626*
G37*
G36*
X-00412D02*
X-00435D01*
Y01602*
X-00434Y01598*
X-00432Y01595*
X-00429Y01592*
X-00425Y01592*
X-00412*
Y01626*
G37*
G36*
X-00379D02*
X-00402D01*
Y01592*
X-00389*
X-00385Y01592*
X-00382Y01595*
X-0038Y01598*
X-00379Y01602*
Y01626*
G37*
G36*
X-00176D02*
X-00199D01*
Y01602*
X-00198Y01598*
X-00196Y01595*
X-00192Y01592*
X-00188Y01592*
X-00176*
Y01626*
G37*
G36*
X-00615D02*
X-00638D01*
Y01592*
X-00625*
X-00622Y01592*
X-00618Y01595*
X-00616Y01598*
X-00615Y01602*
Y01626*
G37*
G36*
X-00884D02*
X-00907D01*
Y01602*
X-00907Y01598*
X-00904Y01595*
X-00901Y01592*
X-00897Y01592*
X-00884*
Y01626*
G37*
G36*
X-00852D02*
X-00874D01*
Y01592*
X-00862*
X-00858Y01592*
X-00854Y01595*
X-00852Y01598*
X-00852Y01602*
Y01626*
G37*
G36*
X-00648D02*
X-00671D01*
Y01602*
X-0067Y01598*
X-00668Y01595*
X-00665Y01592*
X-00661Y01592*
X-00648*
Y01626*
G37*
%LNpcb_singleledrow-3*%
%LPD*%
G54D10*
X01824Y01438D03*
X01954D03*
Y01631D03*
X01824D03*
X01588Y01438D03*
X01718D03*
Y01631D03*
X01588D03*
X01352D03*
X01482D03*
Y01438D03*
X01352D03*
X01116Y01631D03*
X01246D03*
Y01438D03*
X01116D03*
X00879Y01631D03*
X01009D03*
Y01438D03*
X00879D03*
X00643Y01631D03*
X00773D03*
Y01438D03*
X00643D03*
X00407Y01631D03*
X00537D03*
Y01438D03*
X00407D03*
X00171Y01631D03*
X00301D03*
Y01438D03*
X00171D03*
X-00064Y01631D03*
X00064D03*
Y01438D03*
X-00064D03*
X-00301Y01631D03*
X-00171D03*
Y01438D03*
X-00301D03*
X-00537Y01631D03*
X-00407D03*
Y01438D03*
X-00537D03*
X-00773Y01631D03*
X-00643D03*
Y01438D03*
X-00773D03*
X-01009Y01631D03*
X-00879D03*
Y01438D03*
X-01009D03*
X-01246Y01631D03*
X-01116D03*
Y01438D03*
X-01246D03*
X-01482Y01631D03*
X-01352D03*
Y01438D03*
X-01482D03*
X-01718Y01631D03*
X-01588D03*
Y01438D03*
X-01718D03*
X-01954Y01631D03*
X-01824D03*
Y01438D03*
X-01954D03*
X-01942Y00253D03*
X-02072D03*
Y00061D03*
X-01942D03*
X02072Y00253D03*
X01942D03*
Y00061D03*
X02072D03*
G54D11*
X01954Y01694D03*
X01891D03*
X01718D03*
X01655D03*
X01419D03*
X01482D03*
X01183D03*
X01246D03*
X00946D03*
X01009D03*
X0071D03*
X00773D03*
X00474D03*
X00537D03*
X00238D03*
X00301D03*
X00001D03*
X00064D03*
X-00234D03*
X-00171D03*
X-0047D03*
X-00407D03*
X-00706D03*
X-00643D03*
X-00942D03*
X-00879D03*
X-01179D03*
X-01116D03*
X-01415D03*
X-01352D03*
X-01651D03*
X-01588D03*
X-01887D03*
X-01824D03*
X01942Y-00001D03*
X02005D03*
X-02072D03*
X-02009D03*
G54D12*
X-02072Y0D02*
X-0207D01*
X-02074Y-00001D02*
X-02072Y0D01*
X-02074Y-00043D02*
Y-00001D01*
X-01942Y00013D02*
Y00061D01*
Y00013D02*
X-01889Y-00039D01*
X00854Y00225D02*
X00944Y00314D01*
X01881*
X01942Y00253*
X01795Y00448D02*
X01889Y00354D01*
X01795Y00448D02*
Y00579D01*
X0181Y00595*
Y00928*
X01797Y00942D02*
X0181Y00928D01*
X01797Y00942D02*
Y01281D01*
X01954Y01438*
X02005Y-00001D02*
X02037D01*
X01911D02*
X01942D01*
X-02072Y0D02*
Y00061D01*
Y-00001D02*
Y0D01*
X-02007D02*
X-01976D01*
X-02072Y00061D02*
D01*
X-01942Y00206D02*
Y00253D01*
X-02009Y00139D02*
X-01942Y00206D01*
X-02009Y-00001D02*
Y00139D01*
X01942Y00061D02*
D01*
Y-00001D02*
Y00061D01*
X02072Y00206D02*
Y00253D01*
X02005Y00139D02*
X02072Y00206D01*
X02005Y-00001D02*
Y00139D01*
X-01998Y01496D02*
X-01954Y01539D01*
X-01998Y01397D02*
Y01496D01*
Y01397D02*
X-01978Y01377D01*
X-01771*
X01584Y01181D02*
Y01306D01*
X01515Y01112D02*
X01584Y01181D01*
X00236Y01112D02*
X01515D01*
X00137Y01013D02*
X00236Y01112D01*
X-01584Y00875D02*
Y00915D01*
Y00875D02*
X-01476Y00767D01*
X-01954Y01539D02*
Y01631D01*
X0186Y01694D02*
X01891D01*
X01954D02*
X01986D01*
X01624D02*
X01655D01*
X01718D02*
X0175D01*
X01387D02*
X01419D01*
X01482D02*
X01513D01*
X01151D02*
X01183D01*
X01246D02*
X01277D01*
X00915D02*
X00946D01*
X01009D02*
X01041D01*
X00679D02*
X0071D01*
X00773D02*
X00805D01*
X00442D02*
X00474D01*
X00537D02*
X00568D01*
X00206D02*
X00238D01*
X00301D02*
X00332D01*
X-00029D02*
X00001D01*
X00064D02*
X00096D01*
X-00265D02*
X-00234D01*
X-00171D02*
X-00139D01*
X-00501D02*
X-0047D01*
X-00407D02*
X-00375D01*
X-00738D02*
X-00706D01*
X-00643D02*
X-00612D01*
X-00974D02*
X-00942D01*
X-00879D02*
X-00848D01*
X-0121D02*
X-01179D01*
X-01116D02*
X-01084D01*
X-01446D02*
X-01415D01*
X-01352D02*
X-0132D01*
X-01683D02*
X-01651D01*
X-01588D02*
X-01557D01*
X-01824D02*
X-01793D01*
X-01919D02*
X-01887D01*
X01891Y01553D02*
Y01694D01*
X01824Y01486D02*
X01891Y01553D01*
X01824Y01438D02*
Y01486D01*
X01954Y01631D02*
Y01694D01*
Y01631D02*
D01*
X01655Y01553D02*
Y01694D01*
X01588Y01486D02*
X01655Y01553D01*
X01588Y01438D02*
Y01486D01*
X01718Y01631D02*
Y01694D01*
Y01631D02*
D01*
Y01438D02*
Y01482D01*
X01824Y01588*
Y01631*
X01419Y01553D02*
Y01694D01*
X01352Y01486D02*
X01419Y01553D01*
X01352Y01438D02*
Y01486D01*
X01482Y01631D02*
Y01694D01*
Y01631D02*
D01*
Y01438D02*
Y01482D01*
X01588Y01588*
Y01631*
X01183Y01553D02*
Y01694D01*
X01116Y01486D02*
X01183Y01553D01*
X01116Y01438D02*
Y01486D01*
X01246Y01631D02*
Y01694D01*
Y01631D02*
D01*
Y01438D02*
Y01482D01*
X01352Y01588*
Y01631*
X00946Y01553D02*
Y01694D01*
X00879Y01486D02*
X00946Y01553D01*
X00879Y01438D02*
Y01486D01*
X01009Y01631D02*
Y01694D01*
Y01631D02*
D01*
Y01438D02*
Y01482D01*
X01116Y01588*
Y01631*
X0071Y01553D02*
Y01694D01*
X00643Y01486D02*
X0071Y01553D01*
X00643Y01438D02*
Y01486D01*
X00773Y01631D02*
Y01694D01*
Y01631D02*
D01*
Y01438D02*
Y01482D01*
X00879Y01588*
Y01631*
X00474Y01553D02*
Y01694D01*
X00407Y01486D02*
X00474Y01553D01*
X00407Y01438D02*
Y01486D01*
X00537Y01631D02*
Y01694D01*
Y01631D02*
D01*
Y01438D02*
Y01482D01*
X00643Y01588*
Y01631*
X00238Y01553D02*
Y01694D01*
X00171Y01486D02*
X00238Y01553D01*
X00171Y01438D02*
Y01486D01*
X00301Y01631D02*
Y01694D01*
Y01631D02*
D01*
Y01438D02*
Y01482D01*
X00407Y01588*
Y01631*
X00001Y01553D02*
Y01694D01*
X-00064Y01486D02*
X00001Y01553D01*
X-00064Y01438D02*
Y01486D01*
X00064Y01631D02*
Y01694D01*
Y01631D02*
D01*
Y01438D02*
Y01482D01*
X00171Y01588*
Y01631*
X-00234Y01553D02*
Y01694D01*
X-00301Y01486D02*
X-00234Y01553D01*
X-00301Y01438D02*
Y01486D01*
X-00171Y01631D02*
Y01694D01*
Y01631D02*
D01*
Y01438D02*
Y01482D01*
X-00064Y01588*
Y01631*
X-0047Y01553D02*
Y01694D01*
X-00537Y01486D02*
X-0047Y01553D01*
X-00537Y01438D02*
Y01486D01*
X-00407Y01631D02*
Y01694D01*
Y01631D02*
D01*
Y01438D02*
Y01482D01*
X-00301Y01588*
Y01631*
X-00706Y01553D02*
Y01694D01*
X-00773Y01486D02*
X-00706Y01553D01*
X-00773Y01438D02*
Y01486D01*
X-00643Y01631D02*
Y01694D01*
Y01631D02*
D01*
Y01438D02*
Y01482D01*
X-00537Y01588*
Y01631*
X-00942Y01553D02*
Y01694D01*
X-01009Y01486D02*
X-00942Y01553D01*
X-01009Y01438D02*
Y01486D01*
X-00879Y01631D02*
Y01694D01*
Y01631D02*
D01*
Y01438D02*
Y01482D01*
X-00773Y01588*
Y01631*
X-01179Y01553D02*
Y01694D01*
X-01246Y01486D02*
X-01179Y01553D01*
X-01246Y01438D02*
Y01486D01*
X-01116Y01631D02*
Y01694D01*
Y01631D02*
D01*
Y01438D02*
Y01482D01*
X-01009Y01588*
Y01631*
X-01415Y01553D02*
Y01694D01*
X-01482Y01486D02*
X-01415Y01553D01*
X-01482Y01438D02*
Y01486D01*
X-01352Y01631D02*
Y01694D01*
Y01631D02*
D01*
Y01438D02*
Y01482D01*
X-01246Y01588*
Y01631*
X-01651Y01553D02*
Y01694D01*
X-01718Y01486D02*
X-01651Y01553D01*
X-01718Y01438D02*
Y01486D01*
X-01588Y01631D02*
Y01694D01*
Y01631D02*
D01*
Y01438D02*
Y01482D01*
X-01482Y01588*
Y01631*
X-01718Y01588D02*
Y01631D01*
X-01824Y01482D02*
X-01718Y01588D01*
X-01824Y01438D02*
Y01482D01*
Y01631D02*
D01*
Y01694*
X-01954Y01438D02*
Y01486D01*
X-01887Y01553*
Y01694*
X-00994Y00452D02*
X-00059D01*
X00039Y00856D02*
X00049D01*
X00137Y00905D02*
Y01013D01*
X00049Y00816D02*
X00137Y00905D01*
X-00019Y00816D02*
X00049D01*
X00118Y00807D02*
X00196D01*
X00374Y00629*
X00062Y00748D02*
X00212D01*
X00358Y00602*
X00397*
X00374Y00629D02*
X00433D01*
X0044Y00622*
Y00618D02*
Y00622D01*
X00153Y00704D02*
X00437Y00421D01*
X00118Y00704D02*
X00153D01*
X00397Y00602D02*
X00429Y0057D01*
X00444*
X00421Y00956D02*
X00441Y00976D01*
X00421Y00916D02*
Y00956D01*
X0029Y00225D02*
X00854D01*
X0005Y-0015D02*
Y0019D01*
X0012Y0026*
X-00155Y-00039D02*
X0Y-00195D01*
X-01889Y-00039D02*
X-00155D01*
X0Y-00195D02*
X00085D01*
X0015Y-00129*
Y00085*
X0029Y00225*
X0031Y-0121D02*
X0035Y-0125D01*
X0049Y-0119D02*
X0055Y-0125D01*
X0067Y-0117D02*
X0075Y-0125D01*
Y-0115D02*
X0085Y-0125D01*
X00036Y-01126D02*
X0006Y-0115D01*
X0075*
X00027Y-01147D02*
X0005Y-0117D01*
X0067*
X00018Y-01168D02*
X0004Y-0119D01*
X0049*
X0001D02*
X0003Y-0121D01*
X0031*
X-00445Y-0119D02*
X0001D01*
X-00427Y-01147D02*
X00027D01*
X-00436Y-01168D02*
X00018D01*
X-0077Y-00865D02*
X-00445Y-0119D01*
X-00752Y-00822D02*
X-00427Y-01147D01*
X-00761Y-00843D02*
X-00436Y-01168D01*
X-01065Y-00865D02*
X-0077D01*
X-01047Y-00822D02*
X-00752D01*
X-01056Y-00843D02*
X-00761D01*
X-01122Y-00747D02*
X-01047Y-00822D01*
X-01101Y-00738D02*
X-01038Y-00801D01*
X-01122Y-00747D02*
Y-00662D01*
X-01101Y-00738D02*
Y-00671D01*
X-01075Y-0055D02*
Y-0054D01*
X-01101Y-00671D02*
X-01095Y-00665D01*
Y-0061*
X-01185Y-00745D02*
X-01065Y-00865D01*
X-01185Y-00745D02*
Y-00535D01*
X-0116Y-0074D02*
X-01056Y-00843D01*
X-0116Y-0074D02*
Y-00577D01*
X-01165Y-00572D02*
X-0116Y-00577D01*
X-01165Y-00572D02*
Y-0055D01*
X-0115Y-00535*
X-01155Y-00505D02*
X-01135D01*
X-01185Y-00535D02*
X-01155Y-00505D01*
X-0115Y-00535D02*
X-01079D01*
X-01075Y-0054*
X-01135Y-0065D02*
X-01122Y-00662D01*
X-01135Y-0065D02*
Y-00565D01*
X0012Y0026D02*
Y00515D01*
X-00048Y00623D02*
Y00656D01*
Y00623D02*
X00065Y0051D01*
Y0044D02*
Y0051D01*
X0001Y00385D02*
X00065Y0044D01*
X0001Y-00005D02*
Y00385D01*
X-0002Y-00035D02*
X0001Y-00005D01*
X-0008Y-00035D02*
X-0002D01*
X-0147Y0073D02*
X-01271D01*
X-00994Y00452*
X-00418Y-01126D02*
X00036D01*
X-01038Y-00801D02*
X-00743D01*
X-00418Y-01126*
X02072Y-00025D02*
Y00061D01*
X02047Y-00051D02*
X02072Y-00025D01*
X01897Y-00051D02*
X02047D01*
X01866Y-00019D02*
X01897Y-00051D01*
X01866Y-00019D02*
Y00086D01*
X02003Y00224*
Y00307*
X01956Y00354D02*
X02003Y00307D01*
X01889Y00354D02*
X01956D01*
X-00062Y00799D02*
Y00834D01*
X-00041Y00856*
X00039*
X-01476Y00767D02*
X-01472Y00771D01*
X-00102*
X-00062Y00799D02*
X-00047Y00783D01*
X-00003*
X00035Y00744*
Y00692D02*
Y00744D01*
X00027Y00685D02*
X00035Y00692D01*
X00027Y00607D02*
Y00685D01*
Y00607D02*
X0012Y00515D01*
X-00031Y00755D02*
X00003Y0072D01*
X-00047Y00755D02*
X-00031D01*
X-00086Y00795D02*
X-00047Y00755D01*
X-00086Y00795D02*
Y0085D01*
X-00062Y00874*
Y0135*
X-00076Y01364D02*
X-00062Y0135D01*
G54D13*
X-00925Y-00374D02*
X-00875Y-00423D01*
Y-00708D02*
Y-00423D01*
X-01427Y-00472D02*
X-01348D01*
X-01338Y-00482*
X-01013Y-00423D02*
X-00964D01*
X-00915Y-00472*
X-01171Y-00137D02*
X-00757D01*
X-0133Y00098D02*
Y00145D01*
X-01279Y00196*
X-00167*
X-00019Y00344*
X-00177Y-01012D02*
Y-00602D01*
X-0005Y-00475*
X-00127Y0062D02*
Y00718D01*
Y0062D02*
X-00019Y00511D01*
Y00344D02*
Y00511D01*
X00265Y00125D02*
X00307Y00167D01*
X-01259Y-00226D02*
X-01171Y-00137D01*
X-01259Y-00265D02*
Y-00226D01*
X-0005Y-00475D02*
Y-00415D01*
X00265Y-001*
Y00125*
X-00177Y-01012D02*
X-0016Y-0103D01*
G54D14*
X0095Y0125D03*
X0085D03*
X0075D03*
X-0075D03*
X-0085D03*
X-0095D03*
Y-0125D03*
X-0085D03*
X-0075D03*
X-0065D03*
X-0055D03*
X-0045D03*
X-0035D03*
X-0025D03*
X-0015D03*
X-0005D03*
X0005D03*
X0015D03*
X0025D03*
X0035D03*
X0045D03*
X0055D03*
X0065D03*
X0075D03*
X0085D03*
X0095D03*
G54D15*
X-02007Y00787D03*
Y-00669D03*
X02007D03*
G54D16*
X01949Y00742D03*
Y00545D03*
G54D17*
X02056Y00505D03*
Y00781D03*
G54D18*
X-00078Y01525D03*
X-00167Y01309D03*
X00265Y01279D03*
X-00029Y01368D03*
X01984Y01249D03*
X02037Y-00001D03*
X01911D03*
X-01976Y0D03*
X-01704Y005D03*
X-01771Y01377D03*
X01584Y01306D03*
X01776Y0134D03*
X-01584Y00915D03*
X-01776Y0088D03*
X01823Y00953D03*
X-01134Y01228D03*
X01883Y00516D03*
X01935Y01022D03*
Y01091D03*
Y01249D03*
X01984Y00953D03*
X-01984Y01267D03*
Y00972D03*
X-01935D03*
Y01129D03*
Y01198D03*
X0186Y01694D03*
X01986D03*
X01624D03*
X0175D03*
X01387D03*
X01513D03*
X01151D03*
X01277D03*
X00915D03*
X01041D03*
X00679D03*
X00805D03*
X00442D03*
X00568D03*
X00206D03*
X00332D03*
X-00029D03*
X00096D03*
X-00265D03*
X-00139D03*
X-00501D03*
X-00375D03*
X-00738D03*
X-00612D03*
X-00974D03*
X-00848D03*
X-0121D03*
X-01084D03*
X-01446D03*
X-0132D03*
X-01683D03*
X-01557D03*
X-01793D03*
X-01919D03*
X0145Y00459D03*
X02039D03*
Y-0017D03*
X-00059Y00452D03*
X00039Y00856D03*
X01784Y00866D03*
X01764Y00953D03*
X-00925Y-00374D03*
X-00875Y-00708D03*
X-01141Y-00383D03*
X-00295Y-00452D03*
X-006Y00895D03*
X-00118D03*
X-00482Y00856D03*
X-00433Y00905D03*
X-00019Y00816D03*
X-01161Y-00314D03*
X-0123Y-00433D03*
X-00679Y-00314D03*
X01801Y-00187D03*
X01509D03*
X01387Y-00103D03*
X01131Y-00492D03*
X01279D03*
X00708D03*
X00856D03*
X-01535D03*
X-00541D03*
X-01013D03*
X-00708Y-00446D03*
X-01299Y00503D03*
X-0086Y0014D03*
Y00274D03*
X-01602Y0061D03*
X-01704Y0045D03*
X00341Y00746D03*
Y00846D03*
X-00008Y00906D03*
X00051D03*
X00441Y00976D03*
X00371Y00796D03*
X00441Y00686D03*
X01512Y-00043D03*
Y-00003D03*
Y00156D03*
Y00216D03*
Y00086D03*
Y00256D03*
X-00048Y00656D03*
X01684Y0072D03*
X01821Y00568D03*
X01403Y00043D03*
X01303Y00073D03*
X01224D03*
X01371Y0115D03*
X01292D03*
X01213D03*
X01134D03*
X01292Y00993D03*
X-01292Y0107D03*
Y01149D03*
X-01213D03*
Y0107D03*
Y00992D03*
X-01292D03*
X-01371Y0107D03*
Y00992D03*
Y01149D03*
X-01292Y01228D03*
X-01371D03*
X-01213D03*
X-01134Y01149D03*
Y0107D03*
Y00992D03*
X01371Y00993D03*
Y01229D03*
X01292D03*
X01134D03*
X01213D03*
X01134Y00993D03*
X01213D03*
X00059Y00332D03*
X-002Y00596D03*
X-00238Y00505D03*
X-00285Y0104D03*
X-002Y00978D03*
X002Y00596D03*
X00307Y00167D03*
X00198Y00433D03*
X00188Y00541D03*
X00356Y00442D03*
X-00047Y00039D03*
X00326Y00029D03*
X00021Y00492D03*
X-01823Y01267D03*
X-01764D03*
X00118Y00807D03*
X00062Y00748D03*
X0044Y00618D03*
X005Y00263D03*
X00417D03*
X00437Y00421D03*
X00118Y00704D03*
X00444Y0057D03*
X0075Y-00115D03*
X00813D03*
X01237D03*
X01174D03*
X-00679Y00954D03*
X-00324Y00919D03*
X00521Y00941D03*
X-00395Y00261D03*
X-00992Y00125D03*
X01371Y01071D03*
X01292D03*
X01213D03*
X01134D03*
X01521Y0083D03*
X00435Y0107D03*
X00629Y00716D03*
X00275Y00972D03*
Y01035D03*
X00341Y00946D03*
X00421Y00916D03*
X-00173Y0037D03*
X01468Y00566D03*
X00371Y00896D03*
X-01427Y-00472D03*
X-01338Y-00482D03*
X-01013Y-00423D03*
X-00915Y-00472D03*
X-00757Y-00137D03*
X-01259Y-00265D03*
X00108Y-00452D03*
X-00147Y-00413D03*
X00255Y-00334D03*
X00068Y-00393D03*
X-01423Y00255D03*
X-01456Y00029D03*
X-0119D03*
X-01188Y00098D03*
X-0133D03*
X-00127Y00718D03*
X-0025Y-005D03*
X-002Y-0045D03*
X00206Y-00344D03*
X0005Y-0015D03*
X-01095Y-0061D03*
X-01135Y-00565D03*
X-01075Y-0054D03*
X-01135Y-00505D03*
X-0008Y-00035D03*
X-016Y0022D03*
Y0014D03*
X-0147Y0073D03*
X-0016Y-0103D03*
X-00118Y-00881D03*
X-02074Y-00043D03*
X00003Y0072D03*
X00055Y00665D03*
X-00102Y00771D03*
X-00076Y01364D03*
G54D19*
X-01183Y00327D03*
X-01226D03*
X-01183Y00284D03*
X-01226D03*
X-01183Y00241D03*
X-01226D03*
M02*