%FSTAX23Y23*%
%MOIN*%
%SFA1B1*%

%IPPOS*%
%ADD136C,0.002000*%
%LNpcb_singleledrow-1*%
%LPD*%
G54D136*
X00935Y0125D02*
X00965D01*
X0095Y01235D02*
Y01265D01*
X00835Y0125D02*
X00865D01*
X0085Y01235D02*
Y01265D01*
X00735Y0125D02*
X00765D01*
X0075Y01235D02*
Y01265D01*
X-00765Y0125D02*
X-00735D01*
X-0075Y01235D02*
Y01265D01*
X-00865Y0125D02*
X-00835D01*
X-0085Y01235D02*
Y01265D01*
X-00965Y0125D02*
X-00935D01*
X-0095Y01235D02*
Y01265D01*
X-00965Y-0125D02*
X-00935D01*
X-0095Y-01265D02*
Y-01235D01*
X-00865Y-0125D02*
X-00835D01*
X-0085Y-01265D02*
Y-01235D01*
X-00765Y-0125D02*
X-00735D01*
X-0075Y-01265D02*
Y-01235D01*
X-00665Y-0125D02*
X-00635D01*
X-0065Y-01265D02*
Y-01235D01*
X-00565Y-0125D02*
X-00535D01*
X-0055Y-01265D02*
Y-01235D01*
X-00465Y-0125D02*
X-00435D01*
X-0045Y-01265D02*
Y-01235D01*
X-00365Y-0125D02*
X-00335D01*
X-0035Y-01265D02*
Y-01235D01*
X-00265Y-0125D02*
X-00235D01*
X-0025Y-01265D02*
Y-01235D01*
X-00165Y-0125D02*
X-00135D01*
X-0015Y-01265D02*
Y-01235D01*
X-00065Y-0125D02*
X-00035D01*
X-0005Y-01265D02*
Y-01235D01*
X00035Y-0125D02*
X00065D01*
X0005Y-01265D02*
Y-01235D01*
X00135Y-0125D02*
X00165D01*
X0015Y-01265D02*
Y-01235D01*
X00235Y-0125D02*
X00265D01*
X0025Y-01265D02*
Y-01235D01*
X00335Y-0125D02*
X00365D01*
X0035Y-01265D02*
Y-01235D01*
X00435Y-0125D02*
X00465D01*
X0045Y-01265D02*
Y-01235D01*
X00535Y-0125D02*
X00565D01*
X0055Y-01265D02*
Y-01235D01*
X00635Y-0125D02*
X00665D01*
X0065Y-01265D02*
Y-01235D01*
X00735Y-0125D02*
X00765D01*
X0075Y-01265D02*
Y-01235D01*
X00835Y-0125D02*
X00865D01*
X0085Y-01265D02*
Y-01235D01*
X00935Y-0125D02*
X00965D01*
X0095Y-01265D02*
Y-01235D01*
X-02074Y00787D02*
X-0194D01*
X-02007Y0072D02*
Y00854D01*
X-02074Y-00669D02*
X-0194D01*
X-02007Y-00736D02*
Y-00602D01*
X0194Y-00669D02*
X02074D01*
X02007Y-00736D02*
Y-00602D01*
X01072Y-00606D02*
X01108D01*
X0109Y-00624D02*
Y-00588D01*
X01303Y-00606D02*
X01338D01*
X0132Y-00624D02*
Y-00588D01*
X00649Y-00606D02*
X00685D01*
X00667Y-00624D02*
Y-00588D01*
X00879Y-00606D02*
X00915D01*
X00897Y-00624D02*
Y-00588D01*
X-01265Y-00606D02*
X-0123D01*
X-01248Y-00624D02*
Y-00588D01*
X-01594Y-00606D02*
X-01559D01*
X-01576Y-00624D02*
Y-00588D01*
X-01072Y-00606D02*
X-01037D01*
X-01055Y-00624D02*
Y-00588D01*
X-00793Y-00606D02*
X-00757D01*
X-00775Y-00624D02*
Y-00588D01*
X-00271Y-00606D02*
X-00236D01*
X-00253Y-00624D02*
Y-00588D01*
X-006Y-00606D02*
X-00564D01*
X-00582Y-00624D02*
Y-00588D01*
X01933Y00742D02*
X01966D01*
X01949Y00725D02*
Y00758D01*
X01933Y00545D02*
X01966D01*
X01949Y00528D02*
Y00562D01*
X02046Y00505D02*
X02065D01*
X02056Y00496D02*
Y00515D01*
X02046Y00781D02*
X02065D01*
X02056Y00771D02*
Y00791D01*
X00559Y00945D02*
X00594D01*
X00576Y00927D02*
Y00963D01*
X00559Y00616D02*
X00594D01*
X00576Y00599D02*
Y00634D01*
X00049Y-00606D02*
X00084D01*
X00066Y-00624D02*
Y-00588D01*
X00328Y-00606D02*
X00364D01*
X00346Y-00624D02*
Y-00588D01*
X-0171Y0059D02*
X-01675D01*
X-01692Y00572D02*
Y00608D01*
X-0171Y00311D02*
X-01675D01*
X-01692Y00293D02*
Y00328D01*
X-00084Y01525D02*
X-00072D01*
X-00078Y01519D02*
Y01531D01*
X-00173Y01309D02*
X-00161D01*
X-00167Y01303D02*
Y01314D01*
X00259Y01279D02*
X00271D01*
X00265Y01273D02*
Y01285D01*
X-00035Y01368D02*
X-00023D01*
X-00029Y01362D02*
Y01374D01*
X01978Y01249D02*
X0199D01*
X01984Y01243D02*
Y01254D01*
X02031Y-00001D02*
X02043D01*
X02037Y-00007D02*
Y00003D01*
X01905Y-00001D02*
X01917D01*
X01911Y-00007D02*
Y00003D01*
X-01982Y0D02*
X-0197D01*
X-01976Y-00005D02*
Y00005D01*
X-0171Y005D02*
X-01698D01*
X-01704Y00494D02*
Y00505D01*
X-01777Y01377D02*
X-01765D01*
X-01771Y01372D02*
Y01383D01*
X01578Y01306D02*
X0159D01*
X01584Y013D02*
Y01312D01*
X0177Y0134D02*
X01782D01*
X01776Y01334D02*
Y01346D01*
X-0159Y00915D02*
X-01578D01*
X-01584Y00909D02*
Y00921D01*
X-01782Y0088D02*
X-0177D01*
X-01776Y00875D02*
Y00886D01*
X01817Y00953D02*
X01829D01*
X01823Y00947D02*
Y00959D01*
X-0114Y01228D02*
X-01128D01*
X-01134Y01222D02*
Y01234D01*
X01877Y00516D02*
X01889D01*
X01883Y0051D02*
Y00522D01*
X01929Y01022D02*
X0194D01*
X01935Y01016D02*
Y01028D01*
X01929Y01091D02*
X0194D01*
X01935Y01085D02*
Y01097D01*
X01929Y01249D02*
X0194D01*
X01935Y01243D02*
Y01254D01*
X01978Y00953D02*
X0199D01*
X01984Y00947D02*
Y00959D01*
X-0199Y01267D02*
X-01978D01*
X-01984Y01261D02*
Y01273D01*
X-0199Y00972D02*
X-01978D01*
X-01984Y00966D02*
Y00978D01*
X-0194Y00972D02*
X-01929D01*
X-01935Y00966D02*
Y00978D01*
X-0194Y01129D02*
X-01929D01*
X-01935Y01124D02*
Y01135D01*
X-0194Y01198D02*
X-01929D01*
X-01935Y01192D02*
Y01204D01*
X01854Y01694D02*
X01866D01*
X0186Y01688D02*
Y017D01*
X0198Y01694D02*
X01992D01*
X01986Y01688D02*
Y017D01*
X01618Y01694D02*
X01629D01*
X01624Y01688D02*
Y017D01*
X01744Y01694D02*
X01755D01*
X0175Y01688D02*
Y017D01*
X01381Y01694D02*
X01393D01*
X01387Y01688D02*
Y017D01*
X01507Y01694D02*
X01519D01*
X01513Y01688D02*
Y017D01*
X01145Y01694D02*
X01157D01*
X01151Y01688D02*
Y017D01*
X01271Y01694D02*
X01283D01*
X01277Y01688D02*
Y017D01*
X00909Y01694D02*
X00921D01*
X00915Y01688D02*
Y017D01*
X01035Y01694D02*
X01047D01*
X01041Y01688D02*
Y017D01*
X00673Y01694D02*
X00685D01*
X00679Y01688D02*
Y017D01*
X00799Y01694D02*
X00811D01*
X00805Y01688D02*
Y017D01*
X00437Y01694D02*
X00448D01*
X00442Y01688D02*
Y017D01*
X00562Y01694D02*
X00574D01*
X00568Y01688D02*
Y017D01*
X002Y01694D02*
X00212D01*
X00206Y01688D02*
Y017D01*
X00326Y01694D02*
X00338D01*
X00332Y01688D02*
Y017D01*
X-00035Y01694D02*
X-00023D01*
X-00029Y01688D02*
Y017D01*
X0009Y01694D02*
X00102D01*
X00096Y01688D02*
Y017D01*
X-00271Y01694D02*
X-00259D01*
X-00265Y01688D02*
Y017D01*
X-00145Y01694D02*
X-00133D01*
X-00139Y01688D02*
Y017D01*
X-00507Y01694D02*
X-00496D01*
X-00501Y01688D02*
Y017D01*
X-00381Y01694D02*
X-0037D01*
X-00375Y01688D02*
Y017D01*
X-00744Y01694D02*
X-00732D01*
X-00738Y01688D02*
Y017D01*
X-00618Y01694D02*
X-00606D01*
X-00612Y01688D02*
Y017D01*
X-0098Y01694D02*
X-00968D01*
X-00974Y01688D02*
Y017D01*
X-00854Y01694D02*
X-00842D01*
X-00848Y01688D02*
Y017D01*
X-01216Y01694D02*
X-01204D01*
X-0121Y01688D02*
Y017D01*
X-0109Y01694D02*
X-01078D01*
X-01084Y01688D02*
Y017D01*
X-01452Y01694D02*
X-0144D01*
X-01446Y01688D02*
Y017D01*
X-01326Y01694D02*
X-01314D01*
X-0132Y01688D02*
Y017D01*
X-01688Y01694D02*
X-01677D01*
X-01683Y01688D02*
Y017D01*
X-01562Y01694D02*
X-01551D01*
X-01557Y01688D02*
Y017D01*
X-01799Y01694D02*
X-01787D01*
X-01793Y01688D02*
Y017D01*
X-01925Y01694D02*
X-01913D01*
X-01919Y01688D02*
Y017D01*
X01444Y00459D02*
X01456D01*
X0145Y00453D02*
Y00464D01*
X02033Y00459D02*
X02045D01*
X02039Y00453D02*
Y00464D01*
X02033Y-0017D02*
X02045D01*
X02039Y-00176D02*
Y-00164D01*
X-00064Y00452D02*
X-00053D01*
X-00059Y00446D02*
Y00458D01*
X00033Y00856D02*
X00045D01*
X00039Y0085D02*
Y00862D01*
X01778Y00866D02*
X0179D01*
X01784Y0086D02*
Y00872D01*
X01758Y00953D02*
X0177D01*
X01764Y00947D02*
Y00959D01*
X-00931Y-00374D02*
X-00919D01*
X-00925Y-00379D02*
Y-00368D01*
X-00881Y-00708D02*
X-0087D01*
X-00875Y-00714D02*
Y-00702D01*
X-01147Y-00383D02*
X-01135D01*
X-01141Y-00389D02*
Y-00377D01*
X-00301Y-00452D02*
X-00289D01*
X-00295Y-00458D02*
Y-00446D01*
X-00606Y00895D02*
X-00594D01*
X-006Y00889D02*
Y00901D01*
X-00124Y00895D02*
X-00112D01*
X-00118Y00889D02*
Y00901D01*
X-00488Y00856D02*
X-00476D01*
X-00482Y0085D02*
Y00862D01*
X-00438Y00905D02*
X-00427D01*
X-00433Y00899D02*
Y00911D01*
X-00025Y00816D02*
X-00013D01*
X-00019Y00811D02*
Y00822D01*
X-01167Y-00314D02*
X-01155D01*
X-01161Y-0032D02*
Y-00309D01*
X-01236Y-00433D02*
X-01224D01*
X-0123Y-00438D02*
Y-00427D01*
X-00685Y-00314D02*
X-00673D01*
X-00679Y-0032D02*
Y-00309D01*
X01795Y-00187D02*
X01807D01*
X01801Y-00192D02*
Y-00181D01*
X01503Y-00187D02*
X01515D01*
X01509Y-00192D02*
Y-00181D01*
X01381Y-00103D02*
X01393D01*
X01387Y-00109D02*
Y-00098D01*
X01125Y-00492D02*
X01137D01*
X01131Y-00498D02*
Y-00486D01*
X01273Y-00492D02*
X01285D01*
X01279Y-00498D02*
Y-00486D01*
X00702Y-00492D02*
X00714D01*
X00708Y-00498D02*
Y-00486D01*
X0085Y-00492D02*
X00862D01*
X00856Y-00498D02*
Y-00486D01*
X-01541Y-00492D02*
X-01529D01*
X-01535Y-00498D02*
Y-00486D01*
X-00547Y-00492D02*
X-00535D01*
X-00541Y-00498D02*
Y-00486D01*
X-01019Y-00492D02*
X-01007D01*
X-01013Y-00498D02*
Y-00486D01*
X-00714Y-00446D02*
X-00702D01*
X-00708Y-00452D02*
Y-0044D01*
X-01305Y00503D02*
X-01293D01*
X-01299Y00498D02*
Y00509D01*
X-00866Y0014D02*
X-00854D01*
X-0086Y00134D02*
Y00146D01*
X-00866Y00274D02*
X-00854D01*
X-0086Y00268D02*
Y0028D01*
X-01608Y0061D02*
X-01596D01*
X-01602Y00604D02*
Y00616D01*
X-0171Y0045D02*
X-01698D01*
X-01704Y00444D02*
Y00456D01*
X00335Y00746D02*
X00347D01*
X00341Y0074D02*
Y00752D01*
X00335Y00846D02*
X00347D01*
X00341Y0084D02*
Y00852D01*
X-00014Y00906D02*
X-00002D01*
X-00008Y009D02*
Y00912D01*
X00045Y00906D02*
X00057D01*
X00051Y009D02*
Y00912D01*
X00435Y00976D02*
X00447D01*
X00441Y0097D02*
Y00982D01*
X00365Y00796D02*
X00377D01*
X00371Y0079D02*
Y00802D01*
X00435Y00686D02*
X00447D01*
X00441Y0068D02*
Y00692D01*
X01506Y-00043D02*
X01518D01*
X01512Y-00049D02*
Y-00037D01*
X01506Y-00003D02*
X01518D01*
X01512Y-00009D02*
Y00002D01*
X01506Y00156D02*
X01518D01*
X01512Y0015D02*
Y00162D01*
X01506Y00216D02*
X01518D01*
X01512Y0021D02*
Y00222D01*
X01506Y00086D02*
X01518D01*
X01512Y0008D02*
Y00092D01*
X01506Y00256D02*
X01518D01*
X01512Y0025D02*
Y00262D01*
X-00054Y00656D02*
X-00042D01*
X-00048Y0065D02*
Y00662D01*
X01678Y0072D02*
X0169D01*
X01684Y00714D02*
Y00726D01*
X01815Y00568D02*
X01827D01*
X01821Y00562D02*
Y00574D01*
X01397Y00043D02*
X01409D01*
X01403Y00037D02*
Y00049D01*
X01297Y00073D02*
X01309D01*
X01303Y00067D02*
Y00079D01*
X01218Y00073D02*
X0123D01*
X01224Y00067D02*
Y00079D01*
X01365Y0115D02*
X01376D01*
X01371Y01144D02*
Y01156D01*
X01286Y0115D02*
X01298D01*
X01292Y01144D02*
Y01156D01*
X01207Y0115D02*
X01219D01*
X01213Y01144D02*
Y01156D01*
X01128Y0115D02*
X0114D01*
X01134Y01144D02*
Y01156D01*
X01286Y00993D02*
X01298D01*
X01292Y00987D02*
Y00999D01*
X-01298Y0107D02*
X-01286D01*
X-01292Y01064D02*
Y01076D01*
X-01298Y01149D02*
X-01286D01*
X-01292Y01143D02*
Y01155D01*
X-01219Y01149D02*
X-01207D01*
X-01213Y01143D02*
Y01155D01*
X-01219Y0107D02*
X-01207D01*
X-01213Y01064D02*
Y01076D01*
X-01219Y00992D02*
X-01207D01*
X-01213Y00986D02*
Y00998D01*
X-01298Y00992D02*
X-01286D01*
X-01292Y00986D02*
Y00998D01*
X-01376Y0107D02*
X-01365D01*
X-01371Y01064D02*
Y01076D01*
X-01376Y00992D02*
X-01365D01*
X-01371Y00986D02*
Y00998D01*
X-01376Y01149D02*
X-01365D01*
X-01371Y01143D02*
Y01155D01*
X-01298Y01228D02*
X-01286D01*
X-01292Y01222D02*
Y01234D01*
X-01376Y01228D02*
X-01365D01*
X-01371Y01222D02*
Y01234D01*
X-01219Y01228D02*
X-01207D01*
X-01213Y01222D02*
Y01234D01*
X-0114Y01149D02*
X-01128D01*
X-01134Y01143D02*
Y01155D01*
X-0114Y0107D02*
X-01128D01*
X-01134Y01064D02*
Y01076D01*
X-0114Y00992D02*
X-01128D01*
X-01134Y00986D02*
Y00998D01*
X01365Y00993D02*
X01376D01*
X01371Y00987D02*
Y00999D01*
X01365Y01229D02*
X01376D01*
X01371Y01223D02*
Y01235D01*
X01286Y01229D02*
X01298D01*
X01292Y01223D02*
Y01235D01*
X01128Y01229D02*
X0114D01*
X01134Y01223D02*
Y01235D01*
X01207Y01229D02*
X01219D01*
X01213Y01223D02*
Y01235D01*
X01128Y00993D02*
X0114D01*
X01134Y00987D02*
Y00999D01*
X01207Y00993D02*
X01219D01*
X01213Y00987D02*
Y00999D01*
X00053Y00332D02*
X00064D01*
X00059Y00326D02*
Y00338D01*
X-00206Y00596D02*
X-00194D01*
X-002Y0059D02*
Y00602D01*
X-00244Y00505D02*
X-00232D01*
X-00238Y005D02*
Y00511D01*
X-0029Y0104D02*
X-00279D01*
X-00285Y01034D02*
Y01045D01*
X-00206Y00978D02*
X-00194D01*
X-002Y00972D02*
Y00984D01*
X00194Y00596D02*
X00206D01*
X002Y0059D02*
Y00602D01*
X00301Y00167D02*
X00312D01*
X00307Y00161D02*
Y00173D01*
X00192Y00433D02*
X00204D01*
X00198Y00427D02*
Y00438D01*
X00183Y00541D02*
X00194D01*
X00188Y00535D02*
Y00547D01*
X0035Y00442D02*
X00362D01*
X00356Y00437D02*
Y00448D01*
X-00053Y00039D02*
X-00041D01*
X-00047Y00033D02*
Y00045D01*
X0032Y00029D02*
X00332D01*
X00326Y00023D02*
Y00035D01*
X00015Y00492D02*
X00027D01*
X00021Y00486D02*
Y00498D01*
X-01829Y01267D02*
X-01817D01*
X-01823Y01261D02*
Y01273D01*
X-0177Y01267D02*
X-01758D01*
X-01764Y01261D02*
Y01273D01*
X00112Y00807D02*
X00124D01*
X00118Y00801D02*
Y00812D01*
X00057Y00748D02*
X00068D01*
X00062Y00742D02*
Y00753D01*
X00435Y00618D02*
X00446D01*
X0044Y00612D02*
Y00624D01*
X00494Y00263D02*
X00505D01*
X005Y00257D02*
Y00269D01*
X00411Y00263D02*
X00423D01*
X00417Y00257D02*
Y00269D01*
X00431Y00421D02*
X00442D01*
X00437Y00415D02*
Y00427D01*
X00112Y00704D02*
X00124D01*
X00118Y00698D02*
Y0071D01*
X00438Y0057D02*
X0045D01*
X00444Y00564D02*
Y00576D01*
X00745Y-00115D02*
X00756D01*
X0075Y-00121D02*
Y-00109D01*
X00808Y-00115D02*
X00819D01*
X00813Y-00121D02*
Y-00109D01*
X01231Y-00115D02*
X01243D01*
X01237Y-00121D02*
Y-00109D01*
X01168Y-00115D02*
X0118D01*
X01174Y-00121D02*
Y-00109D01*
X-00685Y00954D02*
X-00673D01*
X-00679Y00948D02*
Y0096D01*
X-0033Y00919D02*
X-00318D01*
X-00324Y00913D02*
Y00925D01*
X00515Y00941D02*
X00527D01*
X00521Y00935D02*
Y00947D01*
X-00401Y00261D02*
X-00389D01*
X-00395Y00255D02*
Y00267D01*
X-00998Y00125D02*
X-00986D01*
X-00992Y0012D02*
Y00131D01*
X01365Y01071D02*
X01376D01*
X01371Y01065D02*
Y01077D01*
X01286Y01071D02*
X01298D01*
X01292Y01065D02*
Y01077D01*
X01207Y01071D02*
X01219D01*
X01213Y01065D02*
Y01077D01*
X01128Y01071D02*
X0114D01*
X01134Y01065D02*
Y01077D01*
X01515Y0083D02*
X01527D01*
X01521Y00824D02*
Y00836D01*
X00429Y0107D02*
X0044D01*
X00435Y01064D02*
Y01076D01*
X00624Y00716D02*
X00635D01*
X00629Y0071D02*
Y00722D01*
X00269Y00972D02*
X00281D01*
X00275Y00966D02*
Y00978D01*
X00269Y01035D02*
X00281D01*
X00275Y01029D02*
Y01041D01*
X00335Y00946D02*
X00347D01*
X00341Y0094D02*
Y00952D01*
X00415Y00916D02*
X00427D01*
X00421Y0091D02*
Y00922D01*
X-00179Y0037D02*
X-00167D01*
X-00173Y00364D02*
Y00375D01*
X01462Y00566D02*
X01474D01*
X01468Y00561D02*
Y00572D01*
X00365Y00896D02*
X00377D01*
X00371Y0089D02*
Y00902D01*
X-01433Y-00472D02*
X-01421D01*
X-01427Y-00478D02*
Y-00466D01*
X-01344Y-00482D02*
X-01332D01*
X-01338Y-00488D02*
Y-00476D01*
X-01019Y-00423D02*
X-01007D01*
X-01013Y-00429D02*
Y-00417D01*
X-00921Y-00472D02*
X-00909D01*
X-00915Y-00478D02*
Y-00466D01*
X-00763Y-00137D02*
X-00751D01*
X-00757Y-00143D02*
Y-00131D01*
X-01265Y-00265D02*
X-01253D01*
X-01259Y-00271D02*
Y-00259D01*
X00102Y-00452D02*
X00114D01*
X00108Y-00458D02*
Y-00446D01*
X-00153Y-00413D02*
X-00141D01*
X-00147Y-00419D02*
Y-00407D01*
X0025Y-00334D02*
X00261D01*
X00255Y-0034D02*
Y-00328D01*
X00062Y-00393D02*
X00074D01*
X00068Y-00399D02*
Y-00387D01*
X-01429Y00255D02*
X-01417D01*
X-01423Y0025D02*
Y00261D01*
X-01462Y00029D02*
X-0145D01*
X-01456Y00023D02*
Y00035D01*
X-01196Y00029D02*
X-01185D01*
X-0119Y00023D02*
Y00035D01*
X-01194Y00098D02*
X-01183D01*
X-01188Y00092D02*
Y00104D01*
X-01336Y00098D02*
X-01324D01*
X-0133Y00092D02*
Y00104D01*
X-00133Y00718D02*
X-00122D01*
X-00127Y00712D02*
Y00724D01*
X-00255Y-005D02*
X-00244D01*
X-0025Y-00505D02*
Y-00494D01*
X-00205Y-0045D02*
X-00194D01*
X-002Y-00455D02*
Y-00444D01*
X002Y-00344D02*
X00212D01*
X00206Y-0035D02*
Y-00338D01*
X00044Y-0015D02*
X00055D01*
X0005Y-00155D02*
Y-00144D01*
X-011Y-0061D02*
X-01089D01*
X-01095Y-00615D02*
Y-00604D01*
X-0114Y-00565D02*
X-01129D01*
X-01135Y-0057D02*
Y-00559D01*
X-0108Y-0054D02*
X-01069D01*
X-01075Y-00545D02*
Y-00534D01*
X-0114Y-00505D02*
X-01129D01*
X-01135Y-0051D02*
Y-00499D01*
X-00085Y-00035D02*
X-00074D01*
X-0008Y-0004D02*
Y-00029D01*
X-01187Y00327D02*
X-01179D01*
X-01183Y00323D02*
Y00331D01*
X-0123Y00327D02*
X-01222D01*
X-01226Y00323D02*
Y00331D01*
X-01187Y00284D02*
X-01179D01*
X-01183Y0028D02*
Y00288D01*
X-0123Y00284D02*
X-01222D01*
X-01226Y0028D02*
Y00288D01*
X-01187Y00241D02*
X-01179D01*
X-01183Y00237D02*
Y00245D01*
X-0123Y00241D02*
X-01222D01*
X-01226Y00237D02*
Y00245D01*
X-01605Y0022D02*
X-01594D01*
X-016Y00214D02*
Y00225D01*
X-01605Y0014D02*
X-01594D01*
X-016Y00134D02*
Y00145D01*
X-01475Y0073D02*
X-01464D01*
X-0147Y00724D02*
Y00735D01*
X-00165Y-0103D02*
X-00154D01*
X-0016Y-01035D02*
Y-01024D01*
X-00124Y-00881D02*
X-00112D01*
X-00118Y-00887D02*
Y-00875D01*
X-0208Y-00043D02*
X-02068D01*
X-02074Y-00049D02*
Y-00037D01*
X-00001Y0072D02*
X00009D01*
X00003Y00714D02*
Y00726D01*
X00049Y00665D02*
X00061D01*
X00055Y00659D02*
Y00671D01*
X-00108Y00771D02*
X-00096D01*
X-00102Y00765D02*
Y00777D01*
X-00082Y01364D02*
X-0007D01*
X-00076Y01358D02*
Y0137D01*
M02*